<?xml version="1.0" encoding="UTF-8"?>
<svg xmlns="http://www.w3.org/2000/svg" xmlns:xlink="http://www.w3.org/1999/xlink" width="600" height="300">
	<rect width="600" height="300" fill="#cf142b"/>
	<svg width="300" height="150">
		<rect width="300" height="150" fill="#00247d"/>
		<path d="M 0,0 L 300,150 M 300,0 L 0,150" stroke="#fff" stroke-width="30"/>
		<clipPath id="patrick">
			<path d="M 150,75 h 150 v 75 z v 75 H 0 z H 0 V 0 z V 0 h 150 z"/>
		</clipPath>
		<path d="M 0,0 L 300,150 M 300,0 L 0,150" stroke="#cf142b" stroke-width="20" clip-path="url(#patrick)"/>
		<path d="M 150,0 v 150 M 0,75 h 300" stroke="#fff" stroke-width="50"/>
		<path d="M 150,0 v 150 M 0,75 h 300" stroke="#cf142b" stroke-width="30"/>
	</svg>
	<g id="rr">
		<g id="r" fill="none" stroke="#000" stroke-width=".25">
			<path d="m 450.163,148.802 -3.675,-37.316 c 0,0 1.117,9.757 0,0 -.017,-12.156 -1.696,-16.114 -1.696,-16.114 0,0 1.279,4.183 0,0 -2.079,-8.481 -.756,-12.733 .017,-13.986 5.371,-7.35 11.008,-5.802 11.008,-5.802 0,0 -1.425,-.202 0,0 -5.371,8.198 -2.761,13.047 -1.531,15.865 1.131,7.915 -.448,20.603 -.448,20.603 0,0 -2.262,14.135 0,0 2.262,-14.135 .34,-16.388 1.014,-21.002 2.173,-6.413 7.952,-8.723 11.473,-9.783 -2.076,5.937 -.345,11.805 -.545,16.002 -.4,6.796 -4.874,15.914 -4.874,15.914 l -10.742,35.62 z" fill="#fdd502" fill-rule="evenodd"/>
			<path d="m 455.545,75.656 c -5.797,1.299 -6.996,9.495 -6.996,9.495 0,0 .2,6.297 1.899,12.494 .4,4.997 -.4,18.99 -.4,18.99 l .4,29.785"/>
			<path d="m 465.84,81.553 c 0,0 -4.997,5.797 -5.497,7.696 -1.199,5.297 -.999,7.996 -.5,12.993 -1.099,6.796 -3.498,15.092 -3.498,15.092 l -5.697,25.787"/>
		</g>
		<use xlink:href="#r" transform="rotate(22.5 450,150)"/>
		<use xlink:href="#r" transform="rotate(45 450,150)"/>
		<use xlink:href="#r" transform="rotate(67.5 450,150)"/>
	</g>
	<use xlink:href="#rr" transform="rotate(90 450,150)"/>
	<use xlink:href="#rr" transform="rotate(180 450,150)"/>
	<use xlink:href="#rr" transform="rotate(270 450,150)"/>
	<circle cx="450" cy="150" r="37.5" fill="#0a3de7" stroke="#000" stroke-width=".25"/>
	<g transform="matrix(1.522488,0,0,1.522488,374.4935,74.30114) matrix(.851579,0,0,.851579,-219.16431,-45.67672)" fill="#fff" stroke="#000" stroke-width=".17122775" font-family="Times New Roman" font-size="8px">
		<text x="-292.27054" y="147.82066" transform="matrix(-.642787,-.766045,.766045,-.642787,0,0)">H</text>
		<text x="-262.36548" y="186.40298" transform="matrix(-.529919,-.848048,.848048,-.529919,0,0)">E</text>
		<text x="-204.71208" y="243.35283" transform="matrix(-.309017,-.951057,.951057,-.309017,0,0)">A</text>
		<text x="-115.61065" y="293.47076" transform="matrix(8.852538e-8,-1,1,8.852538e-8,0,0)">V</text>
		<text x="-30.576958" y="311.93063" transform="matrix(.258819,-.965926,.965926,.258819,0,0)">E</text>
		<text x="55.721146" y="307.81812" transform="matrix(.5,-.866025,.866025,.5,0,0)">N&#xb4;</text>
		<text x="138.06062" y="281.35995" transform="matrix(.702494,-.71169,.71169,.702494,0,0)">S</text>
		<text x="200.47827" y="245.14725" transform="matrix(.835012,-.550231,.550231,.835012,0,0)">L</text>
		<text x="248.55089" y="201.26172" transform="matrix(.924904,-.3802,.3802,.924904,0,0)">I</text>
		<text x="298.8403" y="118.74935" transform="matrix(.995693,-.09271304,.09271304,.995693,0,0)">G</text>
		<text x="314.198" y="89.991982">H</text>
		<text x="331.85617" y="-7.6095333" transform="matrix(.956203,.292703,-.292703,.956203,0,0)">T</text>
		<text x="301.4101" y="-154.6188" transform="matrix(.732576,.680685,-.680685,.732576,0,0)">O</text>
		<text x="270.75589" y="-212.15526" transform="matrix(.585062,.810989,-.810989,.585062,0,0)">U</text>
		<text x="229.94144" y="-262.26413" transform="matrix(.416738,.909027,-.909027,.416738,0,0)">R</text>
		<text x="132.42128" y="-327.7403" transform="matrix(.07792016,.99696,-.99696,.07792016,0,0)">G</text>
		<text x="66.555687" y="-349.35797" transform="matrix(-.132743,.991151,-.991151,-.132743,0,0)">U</text>
		<text x="-.54551661" y="-356.74319" transform="matrix(-.331924,.943306,-.943306,-.331924,0,0)">I</text>
		<text x="-21.327379" y="-355.94116" transform="matrix(-.394186,.919031,-.919031,-.394186,0,0)">D</text>
		<text x="-154.8848" y="-320.56967" transform="matrix(-.724505,.689269,-.689269,-.724505,0,0)">E</text>
	</g>
	<circle cx="450" cy="150" r="26.75" fill="#fff" stroke="#000" stroke-width=".25"/>
	<g id="ll">
		<path id="l" d="M 450,123.25 V 176.75 M 423.25,150 H 476.75" stroke="#000" stroke-width=".25"/>
		<use xlink:href="#l" transform="rotate(5.625 450,150)"/>
		<use xlink:href="#l" transform="rotate(11.25 450,150)"/>
		<use xlink:href="#l" transform="rotate(16.875 450,150)"/>
	</g>
	<use xlink:href="#ll" transform="rotate(22.5 450,150)"/>
	<use xlink:href="#ll" transform="rotate(45 450,150)"/>
	<use xlink:href="#ll" transform="rotate(67.5 450,150)"/>
	<g fill="#fff" stroke="#000" stroke-width=".25">
		<circle cx="435.650564" cy="178.985542" r="1.848875"/>
		<circle cx="464.308051" cy="178.985542" r="1.848875"/>
		<path d="m 440.634931,184.57085 -4.592418,5.844892 5.427396,3.479113 4.453262,.695823 .278326,-5.984063 -.974149,-1.113319 -.139155,-1.809127 -4.453247,-1.113319 z" fill="#0a3de7"/>
		<path d="m 444.274865,176.28439 -1.180842,4.329758 c 0,0 2.361683,7.281908 2.361683,7.281908 l 4.920194,.393609 -1.377654,-2.558511 1.180857,2.361699 4.329773,-.196797 .984045,-5.51063 1.377654,-1.574466 -.787233,-3.739352 -7.872329,-.98403 -3.936149,.196812 z" fill="#0a3de7"/>
		<path d="m 456.8712,181.313822 4.792838,6.161509 2.777109,2.409459 -2.749431,-2.545859 6.111617,.672072 -1.272937,6.273716 -3.937382,2.609088 -4.281312,-1.294678 -3.512441,-8.648478 .618465,-3.514237 1.453474,-2.122592 z" fill="#0a3de7"/>
		<path d="M 450,121 460.580135,135.437694 477.580639,141.038507 467.119017,155.562306 467.045772,173.461493 450,168 432.954228,173.461493 432.880983,155.562306 422.419361,141.038507 439.419865,135.437694 z"/>
		<path d="M 450,141.5 458.08398,147.373356 454.996175,156.876644 445.003825,156.876644 441.91602,147.373356 z"/>
		<g id="s">
			<path d="M 450,121 V 150"/>
			<circle cx="450" cy="145.5" r="2.5"/>
			<circle cx="450" cy="159.5" r="2.5"/>
			<circle cx="450" cy="136" r="3.25" transform="rotate(16 450,150)"/>
			<circle cx="450" cy="136" r="3.25" transform="rotate(-16 450,150)"/>
			<circle cx="450" cy="130.5" r="2.25" transform="rotate(9 450,150)"/>
			<circle cx="450" cy="130.5" r="2.25" transform="rotate(-9 450,150)"/>
			<circle cx="450" cy="127" r="1.25" transform="rotate(4.5 450,150)"/>
			<circle cx="450" cy="127" r="1.25" transform="rotate(-4.5 450,150)"/>
		</g>
		<use xlink:href="#s" transform="rotate(72 450,150)"/>
		<use xlink:href="#s" transform="rotate(144 450,150)"/>
		<use xlink:href="#s" transform="rotate(216 450,150)"/>
		<use xlink:href="#s" transform="rotate(288 450,150)"/>
	</g>
</svg>