<?xml version="1.0" encoding="iso-8859-1"?>
<!DOCTYPE svg PUBLIC "-//W3C//DTD SVG 1.0//EN" "http://www.w3.org/TR/2001/REC-SVG-20010904/DTD/svg10.dtd">
<!-- Creator: CorelDRAW -->
<svg xmlns="http://www.w3.org/2000/svg" xmlns:odm="http://product.corel.com/CGS/11/cddns/" xml:space="preserve" width="744px" height="496px" shape-rendering="geometricPrecision" text-rendering="geometricPrecision" image-rendering="optimizeQuality" fill-rule="evenodd"
     viewBox="0 0 744 496">
 <path fill="#FFFFFF" d="M0 0l744 0 0 496 -744 0 0 -496z"/>
 <g id="Layer 1">
  <path fill="#00813B" d="M368 126c-7,15 -12,15 -25,25 -5,5 -13,8 -3,13 -10,5 -15,7 -20,17 0,0 3,3 3,3 0,0 9,-5 10,-3 2,2 -13,10 -15,11 -1,1 -10,7 -10,7 -13,10 -20,7 -28,23 0,0 25,-3 25,-3 5,18 -12,20 -25,28 0,0 -20,12 -20,12 5,18 20,8 33,3 0,0 2,2 2,2 0,0 0,5 0,5 0,0 -25,13 -25,13 0,0 -30,17 -30,18 -1,1 0,5 0,5 10,2 25,5 35,0 13,-5 15,-10 30,-10 -17,12 -30,17 -50,20 0,0 0,10 0,10 15,0 25,0 38,-3 0,0 32,-10 32,-10 8,0 15,8 13,15 -8,28 -38,23 -48,46 0,0 40,-15 40,-15 10,-6 21,-11 33,-8 15,5 15,15 35,20 0,0 -5,-12 -5,-12 5,2 11,2 16,5 12,5 15,10 30,7 -13,-15 -15,-12 -25,-23 -10,-15 -16,-37 0,-40 0,0 17,5 17,5 18,3 18,-2 43,8 15,5 20,12 38,7 -8,-17 -35,-30 -53,-35 20,-13 15,5 43,-2 0,0 0,-5 0,-5 -20,-16 -28,-28 -56,-28 0,0 43,-5 43,-5 0,0 0,-5 0,-5 0,0 -42,-11 -43,-12 0,-1 1,-3 4,-4 8,5 32,4 34,4 -1,-6 -12,-11 -22,-16 0,0 -44,-27 -44,-29 1,-7 18,1 36,6 -5,-10 -15,-15 -25,-17 0,0 15,-3 15,-3 -10,-22 -35,-20 -51,-30 -10,-8 -10,-13 -25,-20z"/>
  <path fill="#FFFFFF" stroke="#FFFFFF" stroke-width="3" stroke-linecap="round" stroke-linejoin="round" d="M341 294c2,-6 4,-12 -7,-17 -11,-5 6,21 7,17z"/>
  <path fill="#FFFFFF" stroke="#FFFFFF" stroke-width="3" stroke-linecap="round" stroke-linejoin="round" d="M354 282c-2,0 -3,8 1,10 5,1 1,-10 -1,-10z"/>
  <path fill="#FFFFFF" stroke="#FFFFFF" stroke-width="3" stroke-linecap="round" stroke-linejoin="round" d="M367 281c-2,0 -2,12 6,10 8,-2 0,-11 -6,-10z"/>
  <path fill="#FFFFFF" stroke="#FFFFFF" stroke-width="3" stroke-linecap="round" stroke-linejoin="round" d="M383 251c1,-3 0,-15 -8,-10 -7,5 5,11 8,10z"/>
  <path fill="#FFFFFF" stroke="#FFFFFF" stroke-width="3" stroke-linecap="round" stroke-linejoin="round" d="M367 241c2,-1 3,-8 -4,-6 -6,2 2,8 4,6z"/>
  <path fill="#FFFFFF" stroke="#FFFFFF" stroke-width="3" stroke-linecap="round" stroke-linejoin="round" d="M353 244c0,0 -4,-6 -8,-5 -4,4 8,5 8,5z"/>
  <path fill="#FFFFFF" stroke="#FFFFFF" stroke-width="3" stroke-linecap="round" stroke-linejoin="round" d="M305 263c2,0 16,-2 20,-7 5,-6 -24,2 -24,2 0,0 3,5 4,5z"/>
  <path fill="#FFFFFF" stroke="#FFFFFF" stroke-width="3" stroke-linecap="round" stroke-linejoin="round" d="M442 229c1,-1 -7,-7 -12,-4 -1,4 12,5 12,4z"/>
  <path fill="#FFFFFF" stroke="#FFFFFF" stroke-width="3" stroke-linecap="round" stroke-linejoin="round" d="M415 216c1,-2 -3,-11 -13,-6 -10,5 10,9 13,6z"/>
  <path fill="#FFFFFF" stroke="#FFFFFF" stroke-width="3" stroke-linecap="round" stroke-linejoin="round" d="M384 211c0,0 2,-8 8,-7 7,5 -8,7 -8,7z"/>
  <path fill="#FFFFFF" stroke="#FFFFFF" stroke-width="3" stroke-linecap="round" stroke-linejoin="round" d="M378 205c-1,-3 -7,-1 -14,3 -7,5 16,2 14,-3z"/>
  <path fill="#FFFFFF" stroke="#FFFFFF" stroke-width="3" stroke-linecap="round" stroke-linejoin="round" d="M396 183c0,0 6,-3 8,0 3,4 -8,0 -8,0z"/>
  <path fill="#FFFFFF" stroke="#FFFFFF" stroke-width="3" stroke-linecap="round" stroke-linejoin="round" d="M391 180c-1,-2 -8,-2 -8,1 -1,3 9,3 8,-1z"/>
  <path fill="#FFFFFF" stroke="#FFFFFF" stroke-width="3" stroke-linecap="round" stroke-linejoin="round" d="M374 180c-1,-1 -10,0 -13,6 4,3 15,-2 13,-6z"/>
  <path fill="#FFFFFF" stroke="#FFFFFF" stroke-width="3" stroke-linecap="round" stroke-linejoin="round" d="M353 186c0,0 -13,8 -14,14 0,5 16,-9 16,-9 0,0 2,-5 -2,-5z"/>
  <path fill="#FFFFFF" stroke="#FFFFFF" stroke-width="3" stroke-linecap="round" stroke-linejoin="round" d="M338 179c1,-1 7,-5 7,-5 1,2 -5,6 -7,5z"/>
  <path fill="#FFFFFF" stroke="#FFFFFF" stroke-width="3" stroke-linecap="round" stroke-linejoin="round" d="M343 210c0,-3 -16,-2 -10,5 5,6 11,-4 10,-5z"/>
  <path fill="#FFFFFF" stroke="#FFFFFF" stroke-width="3" stroke-linecap="round" stroke-linejoin="round" d="M328 220c-1,-1 -2,-6 -4,-6 -2,0 -11,2 -12,3 -1,2 4,10 5,10 2,1 11,-6 11,-7z"/>
  <path fill="#FFFFFF" stroke="#FFFFFF" stroke-width="3" stroke-linecap="round" stroke-linejoin="round" d="M414 274c0,-2 16,-8 22,-2 7,9 -23,4 -22,2z"/>
  <path fill="#FFFFFF" stroke="#FFFFFF" stroke-width="3" stroke-linecap="round" stroke-linejoin="round" d="M458 284c4,-6 -11,-13 -17,-6 2,8 14,11 17,6z"/>
 </g>
</svg>
