<?xml version="1.0" encoding="utf-8"?>
<!-- Generator: Adobe Illustrator 16.0.0, SVG Export Plug-In . SVG Version: 6.00 Build 0)  -->
<!DOCTYPE svg PUBLIC "-//W3C//DTD SVG 1.1//EN" "http://www.w3.org/Graphics/SVG/1.1/DTD/svg11.dtd">
<svg version="1.1" id="Layer_1" xmlns="http://www.w3.org/2000/svg" xmlns:xlink="http://www.w3.org/1999/xlink" x="0px" y="0px"
	 width="600px" height="300px" viewBox="-200 0 600 300" enable-background="new -200 0 600 300" xml:space="preserve">
<g>
	<rect x="-200" fill="#CC0000" width="600" height="300"/>
	<g>
		<ellipse fill="#FDE88A" cx="250.847" cy="153.282" rx="86.268" ry="86.212"/>
		<path fill="#FEF1B9" d="M250.847,69.846c-35.452,0-65.745,22.087-77.851,53.242c2.496,0.387,4.945,1.065,7.318,2.075
			c9.665,3.798,18.633,10.689,29.678,9.308c12.765-2.066,23.118-9.652,34.852-14.135c12.765-4.831,25.878-2.416,37.951,3.794
			c2.077,1.033,4.148,1.033,6.214,2.067c13.749,8.771,28.494,12.089,43.813,11.213C325.404,98.925,291.528,69.846,250.847,69.846z"
			/>
		<path fill="#FDDC50" d="M250.847,188.966c-30.732,0-59.147-8.496-82.181-22.884c1.922,12.432,6.598,23.947,13.395,33.913h137.572
			c6.791-9.963,11.47-21.481,13.395-33.913C309.988,180.47,281.582,188.966,250.847,188.966z"/>
		<g>
			
				<rect x="163.996" y="134.379" transform="matrix(-0.4263 -0.9046 0.9046 -0.4263 142.9689 359.7857)" fill="#F7941E" width="43.169" height="0.35"/>
			<path fill="#F7941E" d="M194.312,153.882h-25.57c0,0-3.103,18.202,9.709,38.492C183.438,188.737,194.312,178.03,194.312,153.882z
				"/>
			<path fill="#F8A440" d="M186.936,153.882c0,22.863-5.766,33.673-8.877,37.854c0.129,0.211,0.264,0.425,0.398,0.639
				c4.986-3.637,15.861-14.344,15.861-38.492H186.936z"/>
			
				<rect x="165.305" y="132.803" transform="matrix(-0.4135 -0.9105 0.9105 -0.4135 145.0263 359.3825)" fill="#F7941E" width="45.912" height="0.358"/>
			<polygon fill="#F7941E" points="197.928,89.377 202.926,153.101 202.586,153.124 197.585,89.406 			"/>
			
				<rect x="169.36" y="129.533" transform="matrix(-0.5489 -0.8359 0.8359 -0.5489 197.1689 365.8194)" fill="#F7941E" width="55.873" height="0.347"/>
			<polygon fill="#F7941E" points="198.036,90.527 212.898,152.205 212.562,152.283 197.699,90.606 			"/>
			
				<rect x="175.131" y="120.088" transform="matrix(-0.2538 -0.9672 0.9672 -0.2538 144.7392 352.1765)" fill="#F7941E" width="66.154" height="0.345"/>
			
				<rect x="204.236" y="147.275" transform="matrix(-0.3685 -0.9296 0.9296 -0.3685 134.5102 403.8137)" fill="#F7941E" width="0.35" height="17.889"/>
			
				<rect x="206.174" y="146.423" transform="matrix(-0.5282 -0.8491 0.8491 -0.5282 180.6383 417.6447)" fill="#F7941E" width="0.344" height="24.432"/>
			<path fill="#F7941E" d="M194.312,153.882c0,24.148-10.875,34.855-15.861,38.492c0.322,0.521,0.656,1.033,1.002,1.546
				c0,0,18.311-8.701,18.311-40.035h-3.451V153.882z"/>
			<polygon fill="#F7941E" points="194.312,153.882 219.15,151.678 196.103,156.889 			"/>
		</g>
		<path fill="#F7941E" d="M250.847,237.421c-22.491,0-43.632-8.748-59.54-24.64c-15.902-15.896-24.662-37.028-24.662-59.502
			c0-22.477,8.76-43.604,24.662-59.499c15.908-15.892,37.049-24.646,59.54-24.646c22.485,0,43.638,8.755,59.54,24.646
			c15.902,15.896,24.656,37.022,24.656,59.499c0,22.474-8.754,43.606-24.656,59.502
			C294.484,228.673,273.332,237.421,250.847,237.421z M250.847,71.21c-21.935,0-42.56,8.534-58.072,24.04
			c-15.51,15.5-24.053,36.111-24.053,58.032c0,21.923,8.543,42.535,24.053,58.035c15.513,15.505,36.138,24.04,58.072,24.04
			c21.94,0,42.565-8.535,58.075-24.04c15.51-15.5,24.053-36.112,24.053-58.035c0-21.921-8.543-42.532-24.053-58.032
			C293.406,79.75,272.787,71.21,250.847,71.21z"/>
		<g>
			<g>
				<path fill="#C49A6C" d="M295.149,195.126c0,0,0.267,2.381,0.738,3.001c0,0,2.142,0.079,3.155-0.582
					c1.014-0.665,1.324-1.906,1.324-1.906l-2.221-1.719L295.149,195.126z"/>
				<path fill="#C49A6C" d="M280.574,194.506c0,0-1.828,0.948-2.104,1.2c-0.27,0.234-0.973,0.743-1.21,0.708
					c0,0-0.073,0.853,1.058,0.773c1.131-0.073,1.752-0.038,2.73-0.155c0.967-0.114,1.752-0.683,2.766-0.401
					c1.008,0.287,2.282,0.316,2.502-0.535c0.217-0.855,0-2.023,0-2.023L280.574,194.506z"/>
				<path fill="#C49A6C" d="M301.278,137.759c-0.164-0.319-0.325-0.618-0.478-0.866c-1.312-2.202-0.732-3.798-0.732-3.798h-2.323
					l0.026,6.462c0,0-0.416,4.462,2.575,7.68c0,0-0.032,0.111-0.067,0.296c0.258-0.1,0.521-0.196,0.814-0.296
					C299.559,143.863,298.574,140.221,301.278,137.759z"/>
				<path fill="#C49A6C" d="M300.08,148.516c-0.141,0.761-0.287,1.754-0.316,2.664c-0.053,1.575,0.489,5.932,0.39,7.858
					C302.178,155.981,302.049,151.508,300.08,148.516z"/>
				<path fill="#E8BA8B" d="M265.076,149.695c-1.298,0.343-3.97,0.085-4.752,0.861c-0.773,0.778,0.744,0.427,1.014,0.438
					c0.27,0.015,0.861,0.223,0.861,0.223s-0.976,0.653-1.43,0.642c-0.445-0.018-2.021-0.328-2.291-0.064
					c-0.27,0.267-1.099,1.101,0.117,1.355c0,0-0.354,1.057,1.301,0.963c0,0,0.727,1.253,1.96,0.973
					c1.239-0.287,2.502-2.132,3.724-2.709c0.504-0.242,1.383-0.491,2.232-0.699c-0.287-0.934-0.68-1.807-1.137-2.641
					C266.043,149.344,265.445,149.59,265.076,149.695z"/>
				<path fill="#C49A6C" d="M271.211,150.111l-1.093-2.875c0,0-1.881,1.06-3.437,1.801c0.454,0.834,0.847,1.707,1.137,2.641
					c1.178-0.287,2.3-0.498,2.3-0.498L271.211,150.111z"/>
				<path fill="#FFFFFF" d="M292.814,128.615c0,0.688-0.352,1.722,0.337,2.413c1.04,0.345,1.729-0.686,2.417-0.346
					c0.691,0.346-1.037,2.066,0,2.066c1.869,0.111,3.105,0.85,3.923,1.938c0.167-0.428,0.319-0.825,0.437-1.159
					c0.554-1.581-0.665-2.24-1.102-2.682c-0.439-0.439-1.805-0.223-1.805-0.223s0.404-0.185,0.331-0.601
					c-0.111-1.15-1.983-1.678-1.983-1.678s0.293-0.4-0.328-0.731s-1.43-1.763-1.852-2.205c-0.419-0.441-1.342-0.425-1.342-0.425
					l-8.156,4.978c-0.316,0.214-0.609,0.448-0.885,0.697C286.053,131.9,290.491,130.932,292.814,128.615z"/>
				<path fill="#E6E7E8" d="M294.531,137.923c1.031,0.255,2.256,0.706,3.237,1.631c0.021-0.111,0.038-0.217,0.062-0.334
					c0.205-0.928,1.046-2.942,1.661-4.532c-0.817-1.089-2.054-1.827-3.923-1.938c-1.037,0,0.691-1.724,0-2.066
					c-0.686-0.346-1.377,0.69-2.417,0.346c-0.688-0.686-0.337-1.725-0.337-2.413c-2.32,2.316-6.762,3.285-10.008,2.053
					c-0.592,0.547-1.081,1.156-1.482,1.777c-0.498,1.563-0.99,3.155-0.94,4.722C283.328,141.983,289.885,136.931,294.531,137.923z"
					/>
				<path fill="#E6E7E8" d="M277.627,161.377c2.068-1.727,2.414-6.9,2.76-10.35c0.252-2.796-1.74-5.032-2.394-7.674
					c-0.548,0.727-0.999,1.33-1.403,1.464c-4.731,0.838-5.194,5.487-6.472,9.062v2.853c1.605-0.313,3.243-0.668,4.743-0.879
					C274.521,158.962,275.553,163.447,277.627,161.377z"/>
				<path fill="#BCBEC0" d="M298.879,152.535c-0.141-2.641-0.976-3.145-0.976-3.145s0.445-0.292,0.592-1.03
					c0.146-0.731-0.258-1.432-0.407-2.456c-0.152-1.028-0.557-1.137-0.516-2.24c0.035-1.104-0.331-1.909-0.331-1.909
					c0.366-0.465,0.343-1.197,0.527-2.198c-0.981-0.926-2.206-1.376-3.237-1.631c-4.646-0.995-11.203,4.063-14.15-0.759
					c0.029,1.075,0.316,2.141,1.037,3.177c-1.477,0.422-2.561,1.874-3.425,3.016c0.653,2.642,2.646,4.878,2.394,7.674
					c-0.346,3.449-0.686,8.62-2.76,10.35c-2.074,2.064-3.105-2.415-2.766-5.524c-1.5,0.217-3.138,0.565-4.743,0.879v4.081
					c0,0,0.264,2.026,0.604,2.195c0.349,0.17,1.125-0.427,1.125-0.427v15.26c0,0,2.417,0.518,2.241,1.979
					c-0.176,1.464,1.556,5.604,1.436,6.556c-0.105,0.945,0.287,4.392,0.029,5.516c-0.258,1.122,1.641,1.643,1.641,1.643
					c-0.085,1.719,2.675,1.552,4.137,1.116c1.465-0.428,2.678-0.085,4.406,0.603c0.407,0.167,0.814,0.313,1.219,0.448
					C288.634,180.944,279.739,155.092,298.879,152.535z"/>
				<path fill="#D1D3D4" d="M299.263,163.488c-0.255-1.473-0.366-6.903-0.366-10.206c0-0.267-0.006-0.51-0.018-0.747
					c-19.14,2.557-10.245,28.409-11.924,43.171c1.307,0.416,2.631,0.591,4.213,0.064c2.065-0.686,2.587,0.433,3.275,0.433
					c0.691,0,1.21-1.554,2.76-1.554c1.559,0,3.885,1.981,6.217,1.981c2.323,0,3.19-1.981,3.19-1.981
					C303.505,191.033,299.521,164.958,299.263,163.488z"/>
				<path fill="#E8BA8B" d="M284.787,124.499c0,0,1.4,1.689,1.254,2.752s-0.363,1.212-0.363,1.212s-1.069,0.258-1.986,1.505
					c0,0,2.569,0.217,3.56-0.185c0.996-0.406,4.673-2.093,5.587-3.086c0,0-1.805-1.59-2.241-4.131l-3.056-4.679l-1.219-0.196
					L284.787,124.499z"/>
				<path fill="#C49A6C" d="M288.098,122.938c0.372-0.214,0.396-0.7,0.615-1.098c0.223-0.401,0.738-1.399-0.108-1.9
					c0,0-0.208-1.303-1.351-1.561c-0.226-0.056-0.598-0.129-1.037-0.223l-1.43,6.342c0,0,0.158,0.193,0.366,0.491
					c0.882-0.436,1.778-1.174,2.399-2.02C287.553,122.965,287.731,123.155,288.098,122.938z"/>
				<path fill="#E8BA8B" d="M281.312,117.691c0,0,0.337,1.842,0,2.299c-0.352,0.459-0.645,1.057-0.645,1.376
					c0,0.313,0.598,0.381,1.099,0.381c0,0,0.308,0.485,0.067,0.79c0,0,0.044,0.519,0.381,0.396c0,0-0.223,0.264,0,0.559
					c0,0,0.548-0.081,0.58,0.316c0.047,0.396-0.129,1.361,0.94,1.361c1.075,0,2.593-1.241,3.39-2.708c0,0,0.17,0.158,0.475-0.082
					c0.305-0.237,0.281-0.699,0.439-1.095c0.152-0.398,0.51-1.388-0.284-1.774c0,0-0.308-1.2-1.321-1.332
					C285.426,118.049,281.312,117.691,281.312,117.691z"/>
				<path fill="#603913" d="M286.68,117.753c0,0,0.615,3.262,1.254,3.903c0.639,0.638,1.189,1.885,1.119,2.4
					c-0.073,0.513-0.697,0.507,0.185,1.115c0.885,0.609,1.359-0.31,1.652,0.205c0.296,0.513,0.36,0.281,0.861,0.015
					c0.501-0.272,0.536-0.346,0.536-0.822c0-0.475-0.158-0.814-0.812-1.581c-0.659-0.768-1.315-3.08-1.315-3.08L286.68,117.753z"/>
				<g>
					<path fill="#FCD116" d="M291.959,120.028h-1.808v-1.725h0.671c0.768-1.95,0.838-3.616,0.229-4.96
						c-0.899-1.974-3.029-2.658-3.047-2.667l0.507-1.648c0.114,0.035,2.868,0.898,4.102,3.578c0.885,1.935,0.744,4.257-0.431,6.909
						L291.959,120.028z"/>
					<path fill="#C67F17" d="M288.262,112.407l0.709-1.37c0,0,3.352,1.514,2.631,5.592L288.262,112.407z"/>
					<path fill="#FCD116" d="M291.555,117.694c0.029-0.205,0.05-0.418,0.05-0.632c0-2.717-2.203-4.913-4.925-4.913
						c-1.91,0-3.562,1.089-4.377,2.679c-0.34,0.671-0.536,1.432-0.536,2.237c0,0.231,0.021,0.453,0.05,0.676
						c1.137,0.1,3.82,0.448,4.623,0.442c2.423-0.012,2.402,4.078,5.036,4.811c0,0-0.322-2.617,0.085-5.3H291.555z"/>
					<path fill="#C67F17" d="M282.303,114.825l-2.648,2.775l6.668,0.562C286.322,118.166,285.728,116.236,282.303,114.825z"/>
				</g>
				<path fill="#C49A6C" d="M281.459,119.211L281.459,119.211c1.187,0.146,1.163,1.066,1.529,0.955
					c0.36-0.111,0.182-0.662,0.182-0.662l0.521-0.293V119.1c-0.609-0.497-1.591-0.62-2.273-0.638
					C281.441,118.702,281.459,118.965,281.459,119.211z"/>
				<path fill="#FFFFFF" d="M299.263,163.488c-0.255-1.473-0.366-6.903-0.366-10.206c0-3.294-0.984-3.889-0.993-3.892l0,0
					l-0.466-0.091l-0.615-0.148l-0.996-0.354l-0.914-0.516l-0.803-0.978l-2.215,0.308l-1.38-0.721l-0.729,0.105L289,146.888
					l-1.195,0.846l-0.806-0.157l-0.214,0.062c-0.363,2.345,1.207,5.586,3.606,7.185c1.729,1.036,3.448,2.758,3.8,4.485
					c2.965,10.684,1.078,27.762,11.288,33.184C302.614,185.195,299.488,164.779,299.263,163.488z"/>
				<path fill="#FFFFFF" d="M281.418,140.338c-1.775-2.535-0.938-5.258-0.094-7.893c-1.351,2.096-1.67,4.274-1.67,4.274
					c-0.908,0.258-1.119,2.544-1.119,2.544c-1.427,0.472-1.471,2.412-1.471,2.412c-0.949,1.725-3.062,2.803-3.062,2.803
					c-2.153-0.472-2.194,1.47-2.194,1.47c-1.336-0.217-1.688,1.294-1.688,1.294v6.643c1.078-3.03,1.582-6.833,4.588-8.429v8.429
					c0,0,1.729-8.288,2.947-10.08l0,0C278.564,142.628,279.739,140.815,281.418,140.338z"/>
				<g>
					<path fill="#6D6E71" d="M295.826,148.65c-0.331-0.167-0.645-0.363-0.908-0.606c-0.067-0.059-0.138-0.12-0.19-0.188
						c-0.056-0.064-0.123-0.129-0.167-0.201l-0.07-0.108c-0.029-0.041-0.047-0.059-0.07-0.138c-0.067-0.135-0.129-0.278-0.196-0.413
						c-0.58,0.234-0.75,0.24-1.069,0.299c-0.299,0.041-0.592,0.053-0.879,0.023c-0.287-0.035-0.554-0.117-0.8-0.246l-0.173-0.111
						c-0.062-0.038-0.105-0.085-0.158-0.129l-0.076-0.067l-0.135-0.155l-0.278-0.311c-0.114,0.07-0.237,0.158-0.349,0.214
						c-0.129,0.067-0.158,0.073-0.211,0.097c-0.108,0.044-0.214,0.07-0.311,0.079c-0.1,0.009-0.185,0-0.246-0.023
						c-0.021-0.006-0.032-0.015-0.05-0.021l-0.006-0.003l-0.006-0.003l0,0l-0.032-0.029l-0.018-0.018l-0.085-0.085
						c-0.108-0.117-0.202-0.229-0.308-0.339c-0.135,0.189-0.275,0.406-0.422,0.585l-0.07,0.079l-0.059,0.053
						c-0.035,0.038-0.07,0.076-0.108,0.105c-0.152,0.138-0.319,0.252-0.478,0.313c-0.141,0.062-0.267,0.076-0.39,0.056
						c-0.062,0-0.123-0.023-0.185-0.05c-0.012,0.009-0.117-0.062-0.179-0.097l-0.214-0.135c-0.094,0.059-0.193,0.117-0.293,0.164
						l-0.094,0.056l-0.067,0.032c-0.094,0.05-0.19,0.085-0.284,0.129c-0.193,0.073-0.393,0.146-0.583,0.196
						c-0.401,0.107-0.806,0.166-1.21,0.166c-0.401,0.006-0.8-0.059-1.172-0.189c-0.196-0.056-0.366-0.155-0.551-0.234
						c-0.161-0.111-0.334-0.196-0.469-0.337c-0.604-0.501-0.855-1.312-0.896-2.114c-0.018-0.805,0.105-1.634,0.448-2.365
						c-0.437,0.688-0.671,1.511-0.738,2.365c-0.023,0.431,0.015,0.873,0.144,1.306c0.117,0.434,0.357,0.85,0.686,1.178
						c0,0.003,0.006,0.003,0.006,0.006c-0.738,3.63-1.348,7.398-1.793,11.292c-0.246,1.991-0.398,4.023-0.521,6.078
						c-0.038,1.031-0.064,2.067-0.1,3.104c0.006,0.527,0.012,1.054,0.023,1.575c0.012,0.524,0.053,1.042,0.07,1.569
						c0.27,4.198,0.938,8.274,1.708,12.215c0.372,1.971,0.8,3.911,1.128,5.826c0.082,0.475,0.164,0.961,0.182,1.429
						c0.029,0.469-0.059,0.946-0.202,1.394c-0.296,0.902-0.847,1.713-1.567,2.328c0.756-0.565,1.371-1.361,1.726-2.27
						c0.173-0.456,0.296-0.945,0.29-1.452c0.006-0.5-0.05-0.978-0.105-1.47c-0.246-1.95-0.595-3.899-0.911-5.879
						c-0.639-3.952-1.251-8.014-1.506-12.168c-0.026-0.519-0.067-1.036-0.079-1.552c-0.006-0.516-0.018-1.039-0.029-1.552
						c0.018-1.03,0.041-2.055,0.062-3.074c0.091-2.043,0.196-4.061,0.378-6.058c0.322-3.879,0.759-7.665,1.271-11.324
						c0.146,0.164,0.34,0.286,0.519,0.421c0.208,0.105,0.401,0.234,0.621,0.311c0.431,0.182,0.899,0.275,1.368,0.293
						c0.472,0.018,0.938-0.029,1.4-0.141c0.223-0.056,0.448-0.129,0.668-0.211c0.111-0.047,0.223-0.088,0.325-0.141l0.138-0.062l0,0
						l0.035,0.021c0.018,0.012-0.006,0.006,0.076,0.035c0.117,0.053,0.24,0.1,0.372,0.111c0.267,0.041,0.548,0,0.771-0.1
						c0.275-0.111,0.498-0.274,0.697-0.453c0.047-0.044,0.088-0.091,0.138-0.138l0.067-0.07c0.018-0.018,0.056-0.062,0.05-0.05
						c-0.006,0,0-0.003,0-0.006l0,0l0.018,0.012c0.05,0.021,0.1,0.044,0.149,0.062c0.193,0.07,0.393,0.073,0.565,0.053
						c0.179-0.018,0.337-0.07,0.489-0.129c0.064-0.029,0.17-0.076,0.158-0.076c0.012-0.006,0.006-0.006,0.012-0.012
						c0.018,0.012,0.041,0.035,0.059,0.053l0.023,0.029l0.111,0.088c0.07,0.053,0.146,0.117,0.223,0.167l0.246,0.135
						c0.334,0.16,0.688,0.245,1.043,0.266c0.346,0.018,0.688-0.018,1.022-0.088c0.308-0.062,0.738-0.204,0.744-0.233
						c0.023,0.023,0.041,0.064,0.067,0.1c0,0.006,0.041,0.061,0.07,0.099l0.103,0.126c0.062,0.088,0.141,0.149,0.214,0.223
						c0.07,0.073,0.152,0.138,0.234,0.196c0.325,0.24,0.683,0.413,1.037,0.551c0.715,0.278,1.459,0.427,2.186,0.5
						C297.191,149.221,296.485,148.987,295.826,148.65z"/>
					<path fill="#6D6E71" d="M276.613,164.92c-0.158-0.041-0.316-0.114-0.475-0.185c-0.076-0.047-0.152-0.085-0.229-0.129
						c-0.132-0.073-0.24-0.251-0.322-0.38c-0.105-0.193-0.217-0.398-0.287-0.615c-0.082-0.252-0.17-0.521-0.164-0.778
						c0.006-0.305,0.018-0.604,0.023-0.908c0.018-0.603,0.029-1.212,0.035-1.821c0.006-1.587-0.012-3.215-0.041-4.865
						c-0.029-1.651-0.117-3.273-0.182-4.86c-0.064-1.584-0.146-3.13-0.264-4.635c-0.123,1.499-0.22,3.045-0.287,4.638
						c-0.064,1.59-0.032,3.212-0.006,4.872c0.029,1.656,0.117,3.278,0.223,4.865c0.006,0.056,0.006,0.108,0.012,0.167
						c0.047,0.604,0.094,1.206,0.146,1.81c0.047,0.475,0.135,1.229-0.363,1.505c-0.141,0.076-0.34-0.006-0.463-0.085
						c-0.19-0.123-0.36-0.264-0.557-0.372c-0.498-0.293-1.567-0.556-1.567-0.556v1.59c0.091-0.067,0.185-0.135,0.281-0.202
						c0.114-0.07,0.226-0.158,0.36-0.185c0.451-0.091,0.902,0.126,1.219,0.431c0.094,0.082,0.179,0.169,0.264,0.251
						c0.275,0.278,0.609,0.56,1.014,0.592c0.188,0.018,0.293,0.047,0.396,0.226c0.275,0.478,0.196,0.966,0.185,1.49
						c-0.012,0.451-0.018,0.901-0.032,1.353c-0.018,1.188-0.029,2.368-0.035,3.561c0,1.212,0.006,2.433,0.018,3.653
						c0.032,1.833,0.05,3.631,0.1,5.382c0.006,0.878,0.023,1.745,0.041,2.605c0.009,0.854-0.029,1.692-0.035,2.532
						c0.12-0.822,0.267-1.66,0.354-2.521c0.064-0.852,0.132-1.725,0.188-2.605c0.07-1.763,0.123-3.569,0.088-5.399
						c-0.018-1.212-0.047-2.436-0.103-3.647c-0.056-1.181-0.129-2.354-0.22-3.534c-0.032-0.437-0.064-0.872-0.111-1.314
						c-0.018-0.211-0.035-0.428-0.059-0.645c-0.015-0.161,0.103-0.406,0.188-0.547c0.135-0.237,0.357-0.313,0.615-0.319
						c0.205-0.006,0.422-0.053,0.604-0.141c0.19-0.1,0.316-0.258,0.398-0.425c-0.146,0.117-0.308,0.19-0.463,0.208
						C276.936,164.987,276.771,164.964,276.613,164.92z"/>
					<path fill="#6D6E71" d="M293.688,192.096c-0.035-0.36-0.067-0.726-0.1-1.092c-0.035-0.369-0.073-0.741-0.103-1.106
						c-0.05-0.366-0.117-0.732-0.179-1.102c-0.123-0.731-0.246-1.476-0.375-2.219c-0.521-2.98-1.383-5.961-2.062-9.006
						c-0.176-0.756-0.299-1.528-0.451-2.284c-0.117-0.764-0.258-1.52-0.346-2.277c-0.196-1.517-0.349-3.033-0.445-4.526
						c-0.088-1.493-0.158-2.978-0.164-4.441c-0.023-1.461,0.006-2.91,0.076-4.33c-0.193,1.411-0.322,2.857-0.398,4.324
						c-0.076,1.47-0.094,2.96-0.064,4.474c0.041,1.511,0.144,3.042,0.313,4.576c0.073,0.778,0.208,1.549,0.313,2.318
						c0.146,0.773,0.27,1.552,0.448,2.319c0.688,3.086,1.605,6.028,2.247,8.953c0.158,0.737,0.311,1.464,0.469,2.189
						c0.07,0.36,0.17,0.721,0.234,1.078c0.053,0.368,0.105,0.726,0.17,1.092c0.059,0.36,0.108,0.72,0.164,1.08
						c0.064,0.36,0.123,0.715,0.155,1.071c0.067,0.721,0.173,1.436,0.196,2.144c0.029-0.708-0.015-1.429-0.026-2.155
						C293.758,192.819,293.72,192.462,293.688,192.096z"/>
				</g>
				<path fill="#FFFFFF" d="M292.12,190.688c-2.766-11.377-6.214-22.418-2.766-33.796c-9.313,8.623-2.76,23.106-4.828,34.832
					c-0.22,0.99-0.577,1.944-1.087,2.812c0.703,0.117,1.438,0.38,2.3,0.72c1.72,0.686,3.363,1.206,5.435,0.519
					c0.475-0.158,0.861-0.22,1.187-0.22C292.352,193.932,292.662,192.31,292.12,190.688z"/>
				<g>
					<g>
						<defs>
							<path id="SVGID_1_" d="M301.829,162.235c5.599-1.763,12.548,4.468,15.519,13.91c2.977,9.442,0.85,18.527-4.749,20.286
								c-5.599,1.763-12.548-4.468-15.521-13.909C294.104,173.08,296.23,163.995,301.829,162.235z"/>
						</defs>
						<clipPath id="SVGID_2_">
							<use xlink:href="#SVGID_1_"  overflow="visible"/>
						</clipPath>
						<g clip-path="url(#SVGID_2_)">
							<polygon fill="#003399" points="311.945,159.038 322.715,193.234 302.441,199.611 291.672,165.415 							"/>
							<polygon fill="#FFFFFF" points="308.412,183.14 320.459,193.938 322.724,193.229 321.522,189.405 309.47,178.596 
								313.158,162.85 311.951,159.026 309.689,159.741 305.998,175.495 293.951,164.688 291.684,165.403 292.885,169.227 
								304.938,180.027 301.246,195.779 302.447,199.6 304.715,198.892 							"/>
							<polygon fill="#CC0000" points="311.951,159.026 310.439,159.501 305.688,179.79 307.199,179.316 							"/>
							<polygon fill="#CC0000" points="307.199,179.316 322.724,193.229 321.918,190.682 308.711,178.836 							"/>
							<polygon fill="#CC0000" points="302.447,199.6 303.965,199.129 308.711,178.836 307.199,179.316 							"/>
							<polygon fill="#CC0000" points="307.199,179.316 291.684,165.403 292.486,167.956 305.688,179.79 							"/>
							<polygon fill="#FFFFFF" points="297.959,185.354 296.172,179.655 302.928,177.524 298.439,163.274 305.195,161.149 
								309.684,175.401 316.439,173.279 318.238,178.977 311.479,181.102 315.965,195.352 309.209,197.475 304.721,183.222 							
								"/>
							<polygon fill="#CC0000" points="297.607,184.211 296.529,180.789 304.636,178.238 299.787,162.85 303.848,161.579 
								308.688,176.962 316.803,174.415 317.878,177.835 309.769,180.388 314.611,195.779 310.562,197.053 305.717,181.661 							
								"/>
						</g>
					</g>
				</g>
				<path fill="#E8BA8B" d="M304.111,162.757c-0.366-0.478-0.146-1.143-0.973-1.78c-0.82-0.633-0.949-2.009-0.762-3.725
					c0.193-1.713,1.849-5.103,1.764-9.126c-0.076-3.562-1.605-7.894-2.862-10.367c-2.704,2.462-1.72,6.104-0.19,9.478
					c-0.293,0.1-0.551,0.196-0.812,0.296c-0.05,0.225-0.123,0.57-0.196,0.983c1.969,2.992,2.098,7.466,0.073,10.522
					c-0.012,0.281-0.041,0.51-0.085,0.674c-0.357,1.265-0.814,3.311-0.656,4.11c0.158,0.796,0.416,0.492,0.662-0.176
					c0.258-0.668,0.756-1.054,0.756-1.054s1.705,2.371,2.024,3.115c0.325,0.743,0.911,0.521,0.483-0.51
					c-0.437-1.03-1.037-1.921-1.037-1.921s1.591,0.938,1.84,1.221c0.258,0.284,0.398-0.359-0.346-0.983l0.557,0.097
					C304.349,163.614,304.478,163.23,304.111,162.757z"/>
			</g>
		</g>
		<g>
			<path fill="#630B57" d="M311.066,103.483c0.431-4.731-3.879-6.649-3.879-6.649l-10.43,9.463c0,0,3.888,2.052,3.987,6.757
				l10.26-8.499C311.022,104.203,311.043,103.846,311.066,103.483z"/>
			<path fill="#CC0000" d="M315.203,113.584c-2.912-1.493-4.327-4.808-4.195-9.029l-10.26,8.499
				c0.006,0.021,0.006,0.038,0.006,0.062c0.047,3.379,1.301,6.564,3.199,8.011c2.812,2.155,3.812,3.625,5.262,5.806l1.937-8.763
				l8.487,0.872C319.513,116.523,318.358,115.203,315.203,113.584z"/>
			<polygon fill="#F26522" points="307.188,96.834 307.768,100.526 295.961,111.47 296.761,106.297 			"/>
			<path fill="#630B57" d="M190.627,103.483c-0.428-4.731,3.876-6.649,3.876-6.649l10.433,9.463c0,0-3.885,2.052-3.99,6.757
				l-10.254-8.499C190.68,104.203,190.656,103.846,190.627,103.483z"/>
			<path fill="#CC0000" d="M186.487,113.584c2.912-1.493,4.333-4.808,4.198-9.029l10.26,8.499c0,0.021,0,0.038,0,0.062
				c-0.053,3.379-1.31,6.564-3.199,8.011c-2.812,2.155-3.814,3.625-5.265,5.806l-1.942-8.763l-8.484,0.872
				C182.178,116.523,183.332,115.203,186.487,113.584z"/>
			<polygon fill="#F26522" points="194.503,96.834 193.932,100.526 205.735,111.47 204.936,106.297 			"/>
			<path fill="#CC0000" d="M250.847,91.792c17.821,0,33.876,7.574,45.114,19.678l11.807-10.943
				c-14.18-15.271-34.436-24.828-56.921-24.828c-22.491,0-42.741,9.557-56.921,24.828l11.81,10.943
				C216.971,99.366,233.025,91.792,250.847,91.792z"/>
			<g>
				<path fill="#FCD116" d="M208.404,103.857l-4.28-5.217l-1.635,1.341l-1.532-1.874l5.104-4.184l1.529,1.874l-1.62,1.326
					l4.283,5.223L208.404,103.857z"/>
				<path fill="#FCD116" d="M214.504,99.2l-4.743-7.855l5.121-3.08l1.251,2.069l-3.076,1.854l0.469,0.776l3.006-1.812l1.254,2.072
					l-3.006,1.812l0.521,0.858l3.067-1.851l1.251,2.073L214.504,99.2z"/>
				<path fill="#FCD116" d="M226.65,92.914l-2.104-2.261l-0.794,0.334l1.099,2.664l-2.203,0.914l-3.498-8.482l3.885-1.604
					c1.699-0.699,3.164,0.243,3.817,1.83c0.606,1.464,0.196,2.538-0.249,3.112l2.561,2.45L226.65,92.914z M224.611,87.222
					c-0.188-0.456-0.621-0.515-0.993-0.362l-1.345,0.556l0.557,1.335l1.336-0.556C224.541,88.045,224.811,87.693,224.611,87.222z"/>
				<path fill="#FCD116" d="M236.529,89.893l-1.729-2.56l-0.832,0.199l0.665,2.811l-2.317,0.551l-2.121-8.924l4.09-0.966
					c1.793-0.425,3.091,0.737,3.486,2.406c0.36,1.543-0.211,2.538-0.738,3.033l2.139,2.828L236.529,89.893z M235.41,83.955
					c-0.111-0.483-0.536-0.609-0.926-0.516l-1.418,0.334l0.334,1.405l1.418-0.337C235.211,84.751,235.527,84.449,235.41,83.955z"/>
				<path fill="#FCD116" d="M247.674,88.394l-0.363-1.049l-2.824,0.205l-0.208,1.089l-2.692,0.199l2.232-9.356l2.988-0.223
					l3.565,8.938L247.674,88.394z M245.503,82.09l-0.56,3.004l1.556-0.114L245.503,82.09z"/>
				<path fill="#FCD116" d="M263.693,89.576l-2.065-5.077l-0.794,4.576l-2.353-0.407l1.567-9.035l2.42,0.419l1.957,4.752l0.744-4.28
					l2.353,0.407l-1.573,9.035L263.693,89.576z"/>
				<path fill="#FCD116" d="M270.607,86.429c0.949-2.655,3.369-3.833,5.66-3.01c2.297,0.822,3.404,3.265,2.452,5.92
					s-3.375,3.833-5.669,3.01C270.766,91.526,269.655,89.081,270.607,86.429z M276.443,88.522c0.434-1.204,0.07-2.413-1.002-2.803
					c-1.081-0.386-2.127,0.322-2.561,1.525c-0.434,1.201-0.076,2.413,1.002,2.8C274.961,90.431,276.01,89.726,276.443,88.522z"/>
				<path fill="#FCD116" d="M281.62,95.938l1.954-9.425l2.361,1.323l-1.541,6.219L288.9,89.5l2.355,1.32l-7.02,6.585L281.62,95.938z
					"/>
				<path fill="#FCD116" d="M292.768,103.41l0.445-1.017l-2.227-1.756l-0.888,0.667l-2.124-1.675l7.975-5.398l2.35,1.856
					l-3.416,8.997L292.768,103.41z M295.439,97.294l-2.449,1.833l1.225,0.966L295.439,97.294z"/>
			</g>
		</g>
		<g>
			<path d="M203.682,206.857l1.658,1.4l0.463-0.565c0.325-0.375,0.768-0.916,0.984-1.206l0.873,0.731
				c-0.258,0.287-0.727,0.8-1.031,1.165l-2.027,2.407c-0.287,0.346-0.63,0.784-0.779,0.98l-0.873-0.729
				c0.176-0.182,0.542-0.592,0.838-0.946l0.885-1.051l-1.661-1.399l-0.891,1.06c-0.296,0.34-0.642,0.776-0.788,0.973l-0.861-0.727
				c0.164-0.179,0.539-0.592,0.832-0.945l2.016-2.398c0.401-0.468,0.838-1.019,0.979-1.206l0.861,0.727
				c-0.161,0.169-0.615,0.696-1.014,1.171L203.682,206.857z"/>
			<path d="M207.769,214.654c0.094-0.176,0.208-0.374,0.343-0.652l0.293-0.595l-1.225-0.86l-0.68,0.409
				c-0.316,0.193-0.489,0.311-0.604,0.396l-0.979-0.682c0.375-0.167,0.768-0.404,1.277-0.721l4.421-2.559l1.333,0.925
				c0.396,0.281,0.744,0.498,0.967,0.633l-0.627,0.91c-0.173-0.155-0.398-0.319-0.797-0.597l-0.712-0.501l-0.653,1.379l0.604,0.425
				c0.396,0.278,0.647,0.436,0.844,0.559l-0.621,0.885c-0.158-0.126-0.363-0.278-0.694-0.513l-0.571-0.401l-0.577,1.233l0.577,0.395
				c0.404,0.281,0.686,0.472,0.861,0.571l-0.615,0.907c-0.167-0.135-0.419-0.324-0.823-0.611L207.769,214.654z M208.082,211.92
				l0.768,0.533l0.703-1.455L208.082,211.92z"/>
			<path d="M214.463,217.682c0.419,0.229,0.882,0.319,1.33,0.176l-0.683,1.188c-0.419-0.134-0.721-0.157-1.269-0.474
				c-1.383-0.791-1.676-2.548-0.826-4.029c0.844-1.47,2.505-2.107,3.885-1.32c0.562,0.319,0.721,0.571,1.02,0.806l-0.7,1.227
				c-0.097-0.46-0.384-0.812-0.788-1.039c-0.844-0.48-1.937-0.091-2.479,0.86C213.405,216.036,213.61,217.19,214.463,217.682z"/>
			<path d="M220.094,217.992c0.486,0.226,0.662,0.885,0.393,1.446c-0.27,0.571-0.873,0.855-1.368,0.621
				c-0.495-0.231-0.671-0.879-0.401-1.449C218.978,218.045,219.602,217.761,220.094,217.992z"/>
			<path d="M227.23,218.057c0.48,0.182,1.046,0.369,1.26,0.431l-0.387,1.039c-0.205-0.1-0.75-0.316-1.23-0.504l-0.311-0.11
				c-0.117,0.298-0.27,0.705-0.393,1.036l-0.791,2.107c-0.205,0.554-0.439,1.21-0.513,1.464l-1.075-0.4
				c0.111-0.246,0.366-0.894,0.574-1.443l0.788-2.108c0.123-0.328,0.272-0.734,0.366-1.042l-0.305-0.117
				c-0.478-0.176-1.025-0.363-1.239-0.428l0.384-1.03c0.199,0.088,0.738,0.311,1.213,0.485L227.23,218.057z"/>
			<path d="M230.453,223.704c-0.164,0.565-0.346,1.239-0.41,1.499l-1.084-0.321c0.088-0.252,0.305-0.917,0.469-1.473l0.803-2.729
				c0.164-0.567,0.346-1.247,0.407-1.499l1.087,0.319c-0.091,0.243-0.305,0.917-0.469,1.481L230.453,223.704z"/>
			<path d="M233.471,224.51l0.562-2.559c0.129-0.58,0.313-1.479,0.349-1.733l1.477,0.315c1.175,0.258,1.438,1.072,1.295,1.757
				c-0.114,0.545-0.46,0.896-0.847,1.002c0.416,0.292,0.768,0.901,0.595,1.687c-0.208,0.948-1.02,1.647-2.271,1.373l-1.521-0.325
				C233.184,225.769,233.348,225.089,233.471,224.51z M235.176,223.672l-0.404-0.085l-0.366,1.701l0.349,0.07
				c0.545,0.123,0.976-0.097,1.093-0.644C235.967,224.17,235.674,223.783,235.176,223.672z M234.965,222.694l0.352,0.076
				c0.357,0.076,0.683-0.1,0.779-0.533c0.088-0.415-0.146-0.731-0.551-0.825l-0.287-0.062L234.965,222.694z"/>
			<path d="M240.678,225.851c-0.088,0.58-0.173,1.271-0.196,1.537l-1.116-0.158c0.053-0.27,0.164-0.951,0.249-1.537l0.404-2.811
				c0.085-0.586,0.173-1.279,0.196-1.543l1.119,0.167c-0.056,0.255-0.17,0.951-0.258,1.54L240.678,225.851z"/>
			<path d="M244.926,224.583c0.545,0.041,0.935,0.594,0.879,1.221c-0.05,0.627-0.521,1.101-1.063,1.06
				c-0.548-0.041-0.94-0.585-0.891-1.218C243.903,225.024,244.381,224.539,244.926,224.583z"/>
			<path d="M248.84,228.107c0.021-0.266,0.026-0.963,0.026-1.549l-0.032-2.837c0-0.591-0.023-1.297-0.047-1.555l1.781-0.023
				c1.412-0.012,2.575,1.31,2.587,2.948c0.021,1.64-1.128,2.989-2.531,3.001L248.84,228.107z M249.947,227.077l0.583-0.009
				c0.873-0.006,1.562-0.907,1.55-1.962c-0.012-1.048-0.709-1.938-1.588-1.938l-0.574,0.006L249.947,227.077z"/>
			<path d="M258.068,221.67c1.544-0.161,2.848,1.089,3.018,2.781c0.182,1.692-0.838,3.191-2.385,3.35
				c-1.529,0.152-2.839-1.099-3.018-2.791C255.517,223.31,256.545,221.816,258.068,221.67z M258.59,226.74
				c0.92-0.088,1.535-1.065,1.418-2.178c-0.114-1.118-0.914-1.938-1.828-1.848c-0.911,0.097-1.523,1.068-1.406,2.182
				C256.882,226.009,257.682,226.834,258.59,226.74z"/>
			<path d="M265.422,226.699l-1.069,0.223c-0.032-0.24-0.138-0.787-0.226-1.235l-0.642-3.039c-0.108-0.516-0.272-1.206-0.378-1.663
				l0.223-0.047c0.404,0.325,0.633,0.492,0.92,0.715l2.789,2.216l-0.404-1.915c-0.094-0.488-0.249-1.168-0.334-1.52l1.063-0.219
				c0.062,0.371,0.185,1.062,0.281,1.525l0.647,3.092c0.079,0.351,0.188,0.813,0.316,1.3l-0.22,0.047
				c-0.281-0.24-0.513-0.437-0.8-0.656l-2.924-2.31l0.469,2.269C265.223,225.921,265.352,226.463,265.422,226.699z"/>
			<path d="M274.82,224.234c-0.117-0.176-0.296-0.41-0.466-0.63l-0.413-0.541l-1.693,0.529l-0.035,0.659
				c-0.012,0.325-0.018,0.562-0.012,0.808l-1.087,0.34c0.067-0.421,0.129-0.896,0.152-1.435l0.343-5.059l0.287-0.094l3.229,3.94
				c0.34,0.416,0.691,0.796,0.976,1.077L274.82,224.234z M272.348,220.943l-0.064,1.572l1.008-0.313L272.348,220.943z"/>
			<path d="M278.289,219.444c0.504-0.208,1.102,0.111,1.342,0.688c0.237,0.585,0.029,1.218-0.469,1.426
				c-0.504,0.211-1.107-0.094-1.342-0.683C277.58,220.3,277.785,219.655,278.289,219.444z"/>
			<path d="M282.73,219.371l-1.271-2.538c-0.27-0.539-0.589-1.153-0.718-1.382l1.444-0.724c0.451-0.226,0.902-0.468,1.107-0.585
				l0.492,0.983c-0.217,0.085-0.686,0.308-1.143,0.53l-0.451,0.226l0.68,1.361l0.393-0.193c0.439-0.22,0.785-0.41,0.976-0.527
				l0.495,0.983c-0.214,0.079-0.568,0.249-1.014,0.469l-0.387,0.188l0.363,0.727c0.258,0.526,0.583,1.142,0.715,1.37l-1.02,0.515
				C283.293,220.527,282.994,219.896,282.73,219.371z"/>
			<path d="M286.943,213.302l0.665,1.106l0.366-0.216c0.434-0.258,0.85-0.527,1.037-0.662l0.568,0.945
				c-0.208,0.103-0.645,0.343-1.072,0.595l-0.366,0.223l0.8,1.32l0.463-0.278c0.439-0.264,0.896-0.544,1.081-0.679l0.565,0.942
				c-0.199,0.105-0.674,0.36-1.113,0.63l-1.415,0.846c-0.231-0.416-0.571-1.013-0.776-1.347l-1.465-2.441
				c-0.311-0.51-0.677-1.09-0.82-1.304l1.365-0.822c0.434-0.258,0.885-0.557,1.066-0.688l0.574,0.952
				c-0.208,0.094-0.68,0.363-1.11,0.626L286.943,213.302z"/>
			<path d="M293.523,213.067c0.343,0.475,0.747,1.022,0.92,1.225l-0.926,0.67c-0.141-0.234-0.524-0.787-0.867-1.273l-1.664-2.316
				c-0.349-0.474-0.773-1.036-0.938-1.238l1.236-0.89c0.993-0.715,1.995-0.469,2.625,0.404c0.545,0.761,0.439,1.423,0.12,1.896
				c0.923,0.281,1.972,0.788,2.897,0.97l-1.146,0.822c-0.542-0.188-1.69-0.685-2.379-1.098c-0.038,0.038-0.073,0.067-0.108,0.091
				l-0.193,0.141L293.523,213.067z M292.568,211.744l0.337-0.237c0.39-0.28,0.445-0.781,0.144-1.197
				c-0.278-0.381-0.768-0.564-1.23-0.234l-0.299,0.211L292.568,211.744z"/>
			<path d="M296.649,204.858c1.169-1.02,2.962-0.75,4.078,0.529c1.125,1.286,1.148,3.095-0.021,4.114
				c-1.154,1.004-2.953,0.743-4.069-0.539C295.516,207.681,295.495,205.871,296.649,204.858z M300.016,208.699
				c0.686-0.603,0.633-1.751-0.105-2.597c-0.738-0.843-1.869-1.051-2.561-0.442c-0.691,0.601-0.633,1.745,0.105,2.589
				C298.193,209.092,299.324,209.303,300.016,208.699z"/>
		</g>
		<g>
			<path fill="#C49A6C" d="M221.799,192.567c0,0,0.58,1.722,1.453,1.675s2.936,0.529,3.009,0.896
				c0.073,0.36-0.407,1.338-2.235,1.411c-1.816,0.073-2.689-1.312-4.632-1.265c-1.942,0.053-1.263-1.569-1.263-1.569
				L221.799,192.567z"/>
			<path fill="#E8BA8B" d="M202.445,192.567c0,0-1.025-2.688-2.766-2.056c-1.74,0.633-1.453,3.795-1.857,4.192
				c-0.404,0.407-2.417,0.346-2.76,0.979c-0.346,0.632-1.154,1.669-0.694,1.953c0.466,0.289,1.327,0,2.188-0.404
				c0.867-0.401,3.105-1.034,3.744-0.457C200.928,197.354,202.445,192.567,202.445,192.567z"/>
			<path fill="#002B7F" d="M214.1,192.415c-3.164,0.287-6.325,0.088-9.293-0.978l-2.335,0.421
				C206.011,194.178,210.057,194.28,214.1,192.415z"/>
			<path fill="#002B7F" d="M204.783,182.068c-1.629,0-3.138,0.357-4.67,0.799c-0.012,0.349-0.006,1.154,0.164,2.146
				C201.326,183.474,202.785,182.314,204.783,182.068z"/>
			<path fill="#002B7F" d="M200.301,180.687c3.097,1.036,3.797-1.722,6.205-2.416C203.746,177.237,203.061,180.335,200.301,180.687z
				"/>
			<path fill="#4080BB" d="M211.34,184.132c3.1,3.106,4.14,7.244,5.865,11.387c0.167,0.328,0.574,0.498,1.063,0.627
				c0.653-0.604,1.093-1.447,1.181-2.612l0.393-0.141C217.738,189.798,216.487,183.819,211.34,184.132z"/>
			<path fill="#0055A4" d="M216.174,172.67c0,0,2.842,1.725,4.91,1.294c2.08-0.434,5.18-2.242,5.18-2.242v-4.056
				c0,0-0.334-0.073-0.809-0.097c-0.8,0.706-0.791,2.278-2.039,2.771c-0.346,0,0-1.031-0.686-1.031
				c-0.691,0-0.349,1.031-1.043,1.031c0-1.031-0.686-1.377-1.377-1.377c-3.19,0.319-6.674-1.136-7.998-3.814l-7.187-3.077
				c0,0-3.12,2.945-5.379,6.228c-0.829,2.117-1.187,4.277,0.202,6.526c0.346,0,1.037,0,1.377,0c-1.031,0.69-2.068,1.042-2.408,2.418
				c-0.554,1.912,0.844,2.951,2.476,3.139c1.913-0.86,2.76-2.983,5.109-2.105c-1.702,0.486-2.546,2-3.987,2.489
				c-0.322,0.646-0.721,1.238-1.172,1.774c1.113-0.275,2.238-0.466,3.439-0.466c-2.004,0.246-3.457,1.408-4.509,2.942
				c0.369,2.081,1.491,5.004,4.849,6.365l-0.316,0.062c2.965,1.065,6.129,1.265,9.293,0.978c-4.049,1.868-8.089,1.763-11.628-0.56
				l-0.19,0.038c0,0-1.556,3.965-2.332,5.177c-0.773,1.203,1.465,0.948,3.023,0.519c1.553-0.437,5.602-0.267,7.767-0.085
				c1.623,0.129,5.552,0.5,7.532-1.355c-0.486-0.129-0.896-0.299-1.061-0.627c-1.729-4.143-2.766-8.28-5.868-11.387
				c5.147-0.315,6.398,5.663,8.499,9.261l2.367-0.811c0,0-1.898-3.883-1.898-4.655c0-0.776,3.448-8.368,0.949-11.898
				c-1.377-2.067-7.245-0.17-7.245-0.17S216.174,173.958,216.174,172.67z"/>
			<path fill="#4080BB" d="M200.301,180.687c0.404-0.05,0.768-0.164,1.096-0.311c-1.632-0.188-3.029-1.227-2.479-3.139
				c0.34-1.376,1.383-1.725,2.414-2.418c-0.343,0-1.031,0-1.383,0c-1.383-2.249-1.031-4.409-0.199-6.526
				c-1.33,1.924-2.361,3.952-2.297,5.58c0,1.985,0.776,1.031,0.776,1.031s-1.471,2.588-1.38,3.539
				c0.088,0.946,1.38,0.431,1.38,0.431s-1.38,3.106,1.898,3.797c0,0-0.006,0.07-0.012,0.193c0.41-0.117,0.817-0.231,1.233-0.33
				c0.451-0.536,0.85-1.128,1.172-1.774C201.918,180.968,201.209,180.991,200.301,180.687z"/>
			<path fill="#4080BB" d="M223.064,168.354c0,0-2.496-0.17-3.1,0.179c0,0-2.502-0.688-3.19-1.467l-4.462-1.921
				c1.324,2.682,4.808,4.137,7.998,3.812c0.688,0,1.377,0.352,1.377,1.383c0.691,0,0.352-1.031,1.043-1.031
				c0.686,0,0.34,1.031,0.686,1.031c1.248-0.498,1.239-2.064,2.039-2.771C224.717,167.525,223.653,167.616,223.064,168.354z"/>
			<path fill="#002B7F" d="M217.551,178.271c-1.04,3.452-4.137,4.144-6.557,5.861c3.996,1.713,6.58,5.561,8.528,9.378l0.765-0.264
				C218.195,188.533,216.622,183.541,217.551,178.271z"/>
			<path fill="#002B7F" d="M220.656,172.412c-1.729-0.346-2.417-2.764-4.482-1.728c-0.352,0.343-0.352,1.037-0.691,1.728
				c0.34-0.69-0.349-1.385-0.686-1.728c-1.729-0.345-5.18-1.376-4.148,1.382c0.349,1.707,2.045,2.741,3.753,3.432
				c0.618-0.611,1.772-1.88,1.772-2.825c0,0,2.845,1.725,4.916,1.291c2.074-0.431,5.177-2.242,5.177-2.242v-1.786
				C224.099,170.161,222.774,173.016,220.656,172.412z"/>
			<path fill="#FFFFFF" d="M198.654,165.685c0,1.382,9.75-1.207,13.547,5.521c0.604,1.552,2.244,0.085,2.42-0.948
				c0.176-1.037,0.905-2.945,1.828-3.326c0,0,1.014-0.984-1.746-2.963c-2.754-1.985-8.971-4.57-12.164-0.688
				C202.539,163.274,198.654,163.529,198.654,165.685z"/>
			<path fill="#E8BA8B" d="M205.902,163.096c0,0,5.865,1.037,7.33,5.522c0.949-3.543-1.116-5.861-0.598-6.986
				c0,0,1.031-0.17,1.723-1.121c0,0,1.811,0.519,1.38-1.812c0,0,0.601-0.685,0.437-1.634c0,0,0.855-0.433,0.855-0.69
				s-1.898-1.64-1.898-2.413c0-0.778-0.17-1.899-0.17-1.899s-2.068-1.895-3.018,0c-0.949,1.899-6.044,6.122-6.044,6.122
				S207.109,160.338,205.902,163.096z"/>
			<path fill="#002B7F" d="M208.574,176.892c-3.319-0.605-5.057-3.844-7.061-6.73c-0.278,2.488,3.847,7.188,7.638,8.859
				c3.911,1.722,7.761,3.502,8.798,3.68c1.04,0.173,5.637,0.404,6.211,0.34c0.141-0.012,0.281-0.305,0.404-0.731
				c-1.529-0.24-3.029-0.281-4.26-0.586C216.174,179.995,213.414,177.577,208.574,176.892z"/>
			<path fill="#0055A4" d="M221.664,177.812c-1.939,0.477-3.99,0.547-5.842,0.808c0.352-0.685,0.688-1.725,0-2.418
				c-3.46-1.569-4.916-4.579-6.188-7.709c-2.092-0.812-7.143-2.325-8.068,1.438c-0.018,0.073-0.029,0.152-0.047,0.231
				c2.004,2.887,3.738,6.125,7.061,6.73c4.834,0.686,7.594,3.104,11.73,4.831c1.23,0.305,2.73,0.34,4.26,0.586
				c0.393-1.335,0.686-4.041,0.686-4.041L221.664,177.812z"/>
			<path fill="#4080BB" d="M215.822,176.201c0.686,0.69,0.346,1.728,0,2.418c1.846-0.261,3.899-0.328,5.842-0.808l-0.899-0.111
				c0,0-6.208-3.968-6.668-4.193c-0.463-0.23-2.3-4.143-4.14-4.886c-0.097-0.044-0.205-0.085-0.328-0.129
				C210.906,171.619,212.359,174.629,215.822,176.201z"/>
			<path fill="#754C29" d="M204.895,156.204c0.023,0.117,0.07,0.234,0.158,0.343c0.478,0.632-0.176,1.555-0.176,1.555
				s-0.85,1.449,1.482,1.534c0,0,2.411-1.651,4.096-0.384c0,0,0.076-0.806-0.498-1.268c0,0,0.92-1.093,1.383-1.663
				c0.457-0.577-0.521-1.669,0-2.305c0.076-0.097,0.135-0.196,0.185-0.295C209.043,154.629,207.115,157.261,204.895,156.204z"/>
			<path fill="#8B5E3C" d="M211.469,150.799c0,0-1.91-0.4-2.314-0.055c0,0-1.611-0.059-2.648,0.86
				c-1.031,0.919-1.834,2.135-1.263,3.426c0,0-0.46,0.605-0.349,1.174c2.221,1.062,4.148-1.569,6.63-2.477
				c0.237-0.521,0.038-1.002,0.208-1.307c0.211-0.356,0.647-0.468,1.307-0.239c0.662,0.228,1.922-0.117,1.922-0.117
				S213.209,149.473,211.469,150.799z"/>
			<path fill="#C49A6C" d="M211.756,155.186c0,0,0.908-0.176,1.201-0.562c0.296-0.393,0.911-0.624,1.283-0.311
				c0,0-0.255,0.627-0.987,0.823l0.108,0.157c0,0,1.424-0.471,1.245-1.227c-0.179-0.755-0.905-0.802-1.415-0.506
				C212.676,153.855,212.84,154.679,211.756,155.186z"/>
			<path fill="#C49A6C" d="M215.737,158.704c0,0,0.249-0.296,0.384-0.755c-0.428-0.094-1.154-0.167-1.351,0.43
				c0,0,0.565,0.138,0.973,0.343C215.737,158.716,215.737,158.71,215.737,158.704z"/>
			<path fill="#C49A6C" d="M211.826,160.754c0,0,0.094,0.635,0.773,0.995c0.012-0.047,0.018-0.079,0.035-0.117
				c0,0,0.457-0.079,0.97-0.409C212.995,161.17,212.166,161.041,211.826,160.754z"/>
		</g>
		<g>
			<path fill="#D94040" d="M223.445,149.994c5.666,4.77,12.621,8.254,15.521,14.902l-2.66-8.78l-0.715-1.452
				c-5.379-4.049-10.389-9.378-12.779-15.591l-0.867,3.42c0,0-0.621,1.833-0.785,4.512
				C221.726,148.12,222.476,149.146,223.445,149.994z"/>
			<path fill="#CC0000" d="M223.445,149.994c-0.97-0.849-1.72-1.874-2.285-2.989c-0.223,3.794,0.466,9.284,5.145,13.679
				c0,0-0.229,1.446-0.346,3.455c1.146-0.636,2.344-0.838,3.316-0.354c2.824,1.285,6.609,2.187,9.785,1.42l-0.094-0.311
				C236.066,158.248,229.111,154.764,223.445,149.994z"/>
			<path fill="#B20808" d="M235.595,154.664l-5.971-12.171l-1.04-7.844h-4.658l-1.113,4.424
				C225.203,145.283,230.213,150.615,235.595,154.664z"/>
			<path fill="#CC0000" d="M240.382,185.792c0.896,2.966,1.321,6.037,0.63,9.381c-0.346,0.346-1.38,0.686-1.729,0.346
				c-3.791-3.798-1.38-10.007-5.171-13.45c-0.694,1.376-0.694,2.415-0.349,3.794c1.037,3.795,3.108,7.935,0.691,11.378
				c-0.343,0.346-1.723,0.346-2.071-0.343c-2.654-6.181-1.787-15.897-7.503-19.883c-0.885,0.668-4.749,4.266,1.031,12.9
				c0,0-1.031,3.882-0.855,4.312c0.17,0.428,1.811,1.549,1.811,1.549s-0.34,1.183-0.231,2.26c0.671,0.094,1.339,0.176,1.992,0.24
				c5.575,0.618,10.872-1.537,16.392-0.983l-0.24-4.693C242.849,190.752,241.41,188.36,240.382,185.792z"/>
			<path fill="#D94040" d="M245.017,197.287c-5.52-0.551-10.813,1.604-16.392,0.986c-0.653-0.067-1.318-0.146-1.992-0.243
				c0.064,0.65,0.287,1.244,0.832,1.54c0.428,0.223,0.832,0.565,1.248,0.929c5.294-1.848,11.244-1.733,16.559-0.448
				c0.053-0.516-0.012-1.106-0.205-1.786L245.017,197.287z"/>
			<path fill="#CC0000" d="M228.713,200.496c1.011,0.884,2.016,1.902,3.234,1.663c1.729-0.352,3.193-1.225,6.387,0.035
				c2.725,1.071,6.668,0.834,6.938-2.149C239.957,198.763,234.007,198.648,228.713,200.496z"/>
			<path fill="#B20808" d="M232.384,196.895c0.349,0.691,1.729,0.691,2.071,0.343c2.417-3.446,0.346-7.583-0.691-11.378
				c-0.346-1.379-0.346-2.415,0.349-3.797c3.791,3.446,1.38,9.658,5.171,13.453c0.349,0.34,1.383,0,1.729-0.349
				c1.726-8.273-3.451-14.832-5.52-22.415c-0.58-2.887-0.434-5.624,4.377-4.887l-0.809-2.661c-3.176,0.761-6.958-0.135-9.785-1.423
				c-0.973-0.483-2.174-0.281-3.316,0.354c-0.105,2.005-0.105,4.559,0.346,6.801c0,0-1.942,2.419-1.254,5.949
				c0,0-0.064,0.041-0.173,0.12C230.597,180.997,229.729,190.711,232.384,196.895z"/>
			<path fill="#C49A6C" d="M220.311,142.062c0-0.808-0.129-1.496-0.437-2.063c0,0.056,0,0.111,0,0.169c0,0-0.384,0.237-0.987,0.612
				C219.438,141.044,219.924,141.451,220.311,142.062z"/>
			<path fill="#E8BA8B" d="M239.632,156.889c0.688,0.346,1.38-0.342,1.72-0.342c2.766-1.379,2.417-4.828,0.697-7.244
				c0.686,0,1.377-0.69,1.377-1.033c0-5.744-2.657-14.139,3.51-16.182c0.208-0.48,0.419-0.803,0.633-0.932l-4.066-2.283
				l-13.62-0.867l-4.825,1.383c0,0-1.986,2.582-1.986,4.567c0,0-3.17,2.752-3.193,6.037c0.311,0.573,0.434,1.259,0.434,2.066
				c-0.381-0.614-0.873-1.019-1.421-1.285c-1.837,1.145-5.716,3.587-6.946,4.564c-1.641,1.291-3.363,0.428-3.967,0.688
				c-0.604,0.257-4.57,2.154-4.57,2.154s1.811,1.982,3.275,1.206c0,0,1.641,0.688,3.111-0.173c1.462-0.86,3.533-1.727,4.436-1.812
				c0.908-0.085,7.38-2.846,8.326-3.016c0.943-0.173,3.275-3.03,3.19-5.314c0,0,1.122-1.411,1.38-3.306c0,0,0.604,0.946,0.732,2.844
				c0.129,1.896-0.39,8.625-0.39,8.625l0.19,0.878c0.381,0.437,0.803,0.832,1.277,1.186c5.602,5.004,9.428,12.017,7.427,18.896
				c0.343,1.282,2.446,8.859,4.151,11.176c1.263,0.441,2.613,0.62,3.606,0.62c1.014-0.173,1.611-0.998,2.124-2.011
				c-0.108-1.856-0.176-4.287-0.255-6.852c-1.351-1.619-2.259-3.684-2.909-5.621C242.049,162.408,241.012,159.65,239.632,156.889z"
				/>
			<path fill="#C49A6C" d="M246.936,132.088c-6.167,2.043-3.51,10.438-3.51,16.182c0,0.343-0.688,1.033-1.377,1.033
				c1.717,2.416,2.065,5.865-0.697,7.244c-0.34,0-1.031,0.688-1.72,0.342c1.38,2.762,2.417,5.52,3.448,8.623
				c0.647,1.935,1.556,4.002,2.906,5.621c-0.158-5.234-0.384-11.059-1.178-13.898C243.566,152.825,245.113,136.312,246.936,132.088z
				"/>
			<path fill="#C49A6C" d="M246.174,189.435c0.088-1.868,0.797-5.521,0.27-9.179c-0.076-0.583-0.146-1.361-0.199-2.269
				c-0.513,1.013-1.11,1.838-2.124,2.011c-0.993,0-2.344-0.179-3.606-0.62c0.006,0.006,0.012,0.012,0.012,0.018
				c0,0,0.902,6.467,2.979,9.57c0,0-0.302,1.241-0.22,2.138c0.308-0.656,0.656-1.271,1.178-1.798
				C245.096,188.989,245.655,189.112,246.174,189.435z"/>
			<path fill="#E8BA8B" d="M246.186,190.166c-0.023-0.192-0.023-0.441-0.012-0.731c-0.521-0.319-1.078-0.442-1.717-0.129
				c-0.521,0.527-0.873,1.142-1.178,1.798c0.029,0.287,0.097,0.541,0.22,0.708c0.53,0.686,0,5.689,0,5.689s0.185,1.981,5.704-0.437
				C249.209,197.064,246.358,191.637,246.186,190.166z"/>
			<path fill="#CC0000" d="M244.275,127.937c-5.385,2.16-11.338,3.782-14.982-1.392c-2.988-0.021-4.236,2.85-4.236,2.85
				c6.855-0.521,11.391,2.236,11.391,2.236c5.698-2.154,11.121-0.472,11.121-0.472C247.012,129.23,245.424,128.34,244.275,127.937z"
				/>
			<path fill="#D94040" d="M244.275,127.937c-0.732-0.252-1.28-0.311-1.28-0.311c-0.688-1.124-0.861-1.426-2.716-1.382
				c-1.857,0.047-3.536-0.299-6.258-0.885c-2.719-0.582-4.195,1.224-4.195,1.224c-0.182-0.023-0.363-0.032-0.533-0.035
				C232.938,131.719,238.891,130.097,244.275,127.937z"/>
			<path fill="#C49A6C" d="M240.49,124.531c0.229-1.285-0.756-2.193-0.756-2.193l-4.324-2.096l-1.512,1.364
				c0,0,0.035,0.711-0.076,1.604c2.039,1.118,4.318,1.797,6.647,2.148C240.443,125.096,240.443,124.815,240.49,124.531z"/>
			<path fill="#FCD116" d="M240.522,115.449c0,0-5.464-0.349-9.103,2.649c0,0,0.483,2.149,2.402,3.555c0,0-0.111,0.438-0.932,0.579
				c0,0,0.281,0.662,0.958,0.744l4.28-3.766L240.522,115.449z"/>
			<path fill="#E8BA8B" d="M233.816,123.205c-0.111,0.857-0.363,1.879-0.929,2.588l2.968,4.154l5.133-3.004
				c0,0-0.434-0.679-0.527-1.584C238.141,125.008,235.858,124.326,233.816,123.205z"/>
			<path fill="#E8BA8B" d="M243.314,115.856c0,0-0.24,2.605,0.938,3.302c0,0,0.164,0.855-0.721,0.993c0,0-0.082,1.098-0.029,1.499
				c0,0-0.27,0.374-0.483,0.4c0,0-0.079,0.293-0.313,0.457c0,0,0.158,0.832,0,1.259c-0.164,0.428-1.154,1.102-2.016,0.832
				c-0.855-0.27-2.332-0.967-3.056-1.903c0,0-1.257-1.312-1.661-1.499s-2.227-1.766-1.444-2.705c0.776-0.935,2.042-0.51,2.042-0.51
				s0.56-1.812,1.629-2.125C239.271,115.546,241.51,115.118,243.314,115.856z"/>
			<path fill="#C49A6C" d="M242.699,122.508c0.24-0.164,0.316-0.457,0.316-0.457c0.214-0.026,0.483-0.4,0.483-0.4h-1.992
				C241.51,121.65,241.691,122.285,242.699,122.508z"/>
			<path fill="#C49A6C" d="M239.717,118.146c0,0-0.58-0.565,1.084-1.25c0,0,1.207-0.202,1.617,0.904c0,0,0,1.017-1.515,0.498
				c0,0,0.261-0.352,0.604-0.779c0,0-0.806-0.79-1.512,0.677L239.717,118.146z"/>
			<g>
				<path fill="#BCBEC0" d="M239.295,112.023c0,0,0.302-3.578-3.021-3.578c-3.319,0-5.563,1.555-5.563,1.555
					S236.274,112.023,239.295,112.023z"/>
				<path fill="#231F20" d="M243.314,114.954c-0.659-2.705-3.091-4.72-6.012-4.72c-3.419,0-6.193,2.77-6.193,6.192
					c0,0.296,0.029,0.589,0.07,0.87c2.479-1.719,5.496-2.727,8.742-2.727C241.088,114.57,242.225,114.708,243.314,114.954z"/>
				<path fill="#58595B" d="M236.518,110.293c-1.6,0.199-3.003,1.02-3.987,2.196c-0.185,1.332-0.141,2.652,0.044,3.955
					c1.875-1.019,3.979-1.669,6.223-1.83C238.316,113.042,237.634,111.552,236.518,110.293z"/>
				<path fill="#414042" d="M230.863,118.556c-0.316,0-0.633-0.146-0.835-0.428c-0.337-0.46-0.237-1.106,0.226-1.443
					c2.818-2.059,6.17-3.145,9.674-3.145c1.315,0,2.643,0.158,3.908,0.472c0.56,0.135,0.902,0.693,0.768,1.247
					c-0.135,0.557-0.697,0.898-1.251,0.761c-1.119-0.274-2.276-0.409-3.425-0.409c-3.064,0-5.994,0.948-8.449,2.746
					C231.291,118.491,231.074,118.556,230.863,118.556z"/>
				<path fill="#FFFFFF" d="M236.436,112.577c0,0,0.308-3.578-3.023-3.578c-3.316,0-5.561,1.555-5.561,1.555
					S233.418,112.577,236.436,112.577z"/>
			</g>
			<path fill="#B20808" d="M244.457,172.755c1.729,0.343,1.04,2.758,2.42,3.446c1.031,0.345,1.38-1.382,1.38-1.722
				c-3.712-9.114-5.774-18.56-3.595-28.335l-1.16-1.487c0,0-1.805,27.059-1.541,32.059c0,0,0.05,0.094,0.161,0.229
				C243.52,176.072,244.457,174.77,244.457,172.755z"/>
			<path fill="#CC0000" d="M244.776,146.29l-0.114-0.146c-2.18,9.775-0.117,19.221,3.595,28.338c0,0.337-0.349,2.063-1.38,1.719
				c-1.38-0.688-0.686-3.104-2.42-3.446c0,2.015-0.938,3.317-2.335,4.189c0.29,0.363,0.987,1.046,2.142,0.984
				c0,0,0.451,3.829,2.309,3.513c0,0,0.656-2.137,1.857-3.344c0.885-0.878,1.307-3.457,1.33-5.36
				C245.459,164.665,244.311,155.259,244.776,146.29z"/>
			<path fill="#D94040" d="M249.76,172.737c0.012-0.703-0.032-1.314-0.123-1.71c-0.34-1.461-4.301-9.548-3.785-23.36l-1.075-1.377
				C244.311,155.259,245.459,164.665,249.76,172.737z"/>
			<path fill="#C49A6C" d="M227.898,136.462c0.498,0.621,1.271,1.101,2.168,1.247c0.917,0.173,1.828-0.211,2.405-0.731
				c-0.812,0.091-1.521,0.146-2.294,0.012C229.416,136.86,228.666,136.688,227.898,136.462z"/>
			<path fill="#C49A6C" d="M237.18,137.407c0.724,0.548,1.646,0.917,2.654,0.976c1.014,0.053,2.054-0.311,2.675-0.976
				c-0.905,0.19-1.72,0.179-2.628,0.146C239.295,137.521,238.557,137.48,237.18,137.407z"/>
			<path fill="#C49A6C" d="M231.08,135.853c0.188,0,0.34,0.138,0.34,0.305s-0.152,0.305-0.34,0.305
				c-0.185,0-0.337-0.138-0.337-0.305S230.896,135.853,231.08,135.853z"/>
			<ellipse fill="#C49A6C" cx="239.91" cy="136.93" rx="0.612" ry="0.474"/>
			<path fill="#C49A6C" d="M235.938,159.167c0.677-1.317,1.646-3.074,2.312-3.742c0,0-1.679,0.809-3.492,1.119
				C235.223,157.398,235.615,158.277,235.938,159.167z"/>
			<g>
				<path fill="#C49A6C" d="M242.57,135.584c0.026,0.192,0.059,0.386,0.1,0.573c0.463,2.135,2.25,4.433,3.158,5.487
					C245.743,138.921,245.131,135.618,242.57,135.584z"/>
				<path fill="#E8BA8B" d="M249.728,144.35c0.05-0.064,0.079-0.105,0.079-0.105c0.75-10.227-2.933-13.676-2.933-13.676
					c-3.331-0.645-4.652,2.274-4.304,5.016c2.558,0.034,3.17,3.34,3.252,6.061c0.322,0.371,0.533,0.591,0.533,0.591
					c-1.318,0.404-4.43,3.912-4.43,3.912s-0.023-0.006-0.062-0.012c0.287,0.646,0.501,1.335,0.694,1.955c0.012,0,0.018,0,0.029,0
					C244.164,145.934,246.918,144.938,249.728,144.35z"/>
				<path fill="#C49A6C" d="M242.597,148.085c1.603-0.258,3.419-0.485,4.28-1.021c1.189-0.741,2.511-2.302,2.851-2.714
					C246.918,144.938,244.164,145.934,242.597,148.085z"/>
				<path fill="#C49A6C" d="M242.564,148.091c0,0-1.254,0.258-1.951,0.639c-0.703,0.381-4.324,2.421-5.854,1.569
					c0,0-1.418-1.341,0.237-1.933c1.661-0.598,3.202-1.019,3.202-1.019l-0.393-0.51l4.099-0.621L242.564,148.091z"/>
				<g>
					<path fill="#F7941E" d="M238.533,142.616c-0.938,1.2-1.181,2.696-0.63,3.993l0.952-0.398c-0.398-0.948-0.214-2.055,0.486-2.957
						c0.05-0.059,0.105-0.107,0.155-0.163c-0.275-0.211-0.56-0.425-0.829-0.639C238.618,142.511,238.574,142.561,238.533,142.616z"
						/>
					<path fill="#F7941E" d="M251.772,137.686c1.052-2.096,1.028-4.28-0.067-5.316l-0.709,0.749c0.744,0.703,0.68,2.466-0.146,4.104
						c-0.188,0.363-0.562,1.014-1.184,1.666c0.252,0.237,0.504,0.472,0.756,0.712C250.979,139.006,251.436,138.348,251.772,137.686z
						"/>
					<path fill="#F9AF56" d="M242.166,146.06c-1.154,1.004-2.631,1.317-3.961,0.837l0.352-0.972c0.97,0.351,2.065,0.111,2.933-0.642
						c0.056-0.05,0.105-0.108,0.152-0.155c0.226,0.261,0.448,0.524,0.683,0.794C242.269,145.966,242.219,146.016,242.166,146.06z"/>
					<path fill="#F7941E" d="M242.688,141.492c0.334-0.103,0.668-0.208,1.002-0.311c0,0.018,0.006,0.035,0.006,0.053
						c0.381,1.774-0.141,3.507-1.377,4.685c-0.229-0.267-0.454-0.53-0.683-0.797C242.576,144.203,242.978,142.868,242.688,141.492z"
						/>
					<path fill="#F9AF56" d="M246.396,132.585c2.033-1.162,4.216-1.247,5.309-0.216l-0.709,0.749
						c-0.741-0.699-2.499-0.545-4.084,0.363c-0.357,0.205-0.99,0.614-1.605,1.265c-0.252-0.237-0.498-0.475-0.75-0.711
						C245.113,133.443,245.749,132.954,246.396,132.585z"/>
					<path fill="#F7941E" d="M245.301,134.746c-1.172,1.224-2.32,3.291-1.611,6.436c-0.331,0.103-0.665,0.208-0.996,0.311
						c0-0.012,0-0.023,0-0.035c-0.756-3.244,0.278-5.757,1.857-7.419C244.803,134.277,245.055,134.512,245.301,134.746z"/>
					<polygon fill="#FCD116" points="233.014,152.567 232.513,152.094 252.08,130.478 253.58,131.9 					"/>
					<path fill="#F9AF56" d="M249.666,138.889c-1.16,1.233-3.161,2.492-6.34,1.947c-0.018,0-0.035,0-0.05-0.006
						c-1.796-0.284-3.498,0.325-4.608,1.622c0.275,0.214,0.557,0.428,0.829,0.639c0.867-0.99,2.188-1.45,3.571-1.242
						c0.012,0,0.023,0,0.035,0c3.278,0.577,5.736-0.585,7.312-2.248C250.17,139.36,249.918,139.126,249.666,138.889z"/>
				</g>
				<path fill="#E8BA8B" d="M238.996,146.145c-1.834,0.286-2.991,1.438-2.991,1.438l3.062,0.105
					c0.079-0.003,0.146-0.003,0.214,0.006l-0.214-0.006c-0.604,0.046-1.333,0.644-1.333,0.644l-2.306,1.61
					c1.271,0.17,3.223-0.58,4.72-1.268c0.554-0.258,1.444-0.431,2.417-0.583c-0.193-0.626-0.41-1.312-0.694-1.958
					C241.627,146.077,240.59,145.896,238.996,146.145z"/>
			</g>
		</g>
	</g>
	<g>
		<rect x="-200" fill="#003399" width="299.997" height="149.903"/>
		<polygon fill="#FFFFFF" points="-16.459,74.952 99.997,16.759 99.997,0 66.457,0 -50,58.193 -166.459,0 -200,0 -200,16.759 
			-83.543,74.952 -200,133.142 -200,149.903 -166.459,149.903 -50,91.707 66.457,149.903 99.997,149.903 99.997,133.142 		"/>
		<polygon fill="#CC0000" points="-200,0 -200,11.174 -50,86.127 -50,74.952 		"/>
		<polygon fill="#CC0000" points="-50,74.952 99.997,0 77.638,0 -50,63.776 		"/>
		<polygon fill="#CC0000" points="99.997,149.903 99.997,138.728 -50,63.776 -50,74.952 		"/>
		<polygon fill="#CC0000" points="-50,74.952 -200,149.903 -177.638,149.903 -50,86.127 		"/>
		<polygon fill="#FFFFFF" points="-25.001,149.903 -74.999,149.903 -74.999,99.935 -200,99.935 -200,49.969 -74.999,49.969 
			-74.999,0 -25.001,0 -25.001,49.969 99.997,49.969 99.997,99.935 -25.001,99.935 		"/>
		<polygon fill="#CC0000" points="-35,149.903 -65,149.903 -65,89.942 -200,89.942 -200,59.961 -65,59.961 -65,0 -35,0 -35,59.961 
			99.997,59.961 99.997,89.942 -35,89.942 		"/>
	</g>
</g>
</svg>
