<?xml version="1.0" encoding="UTF-8" standalone="no"?>
<!-- Created with Inkscape (http://www.inkscape.org/) -->

<svg
   xmlns:dc="http://purl.org/dc/elements/1.1/"
   xmlns:cc="http://creativecommons.org/ns#"
   xmlns:rdf="http://www.w3.org/1999/02/22-rdf-syntax-ns#"
   xmlns:svg="http://www.w3.org/2000/svg"
   xmlns="http://www.w3.org/2000/svg"
   xmlns:sodipodi="http://sodipodi.sourceforge.net/DTD/sodipodi-0.dtd"
   xmlns:inkscape="http://www.inkscape.org/namespaces/inkscape"
   version="1.0"
   width="1000"
   height="750"
   viewBox="0 0 800 600"
   id="svg2"
   inkscape:version="0.48.4 r9939"
   sodipodi:docname="Flag_of_Islamic_State_of_Iraq.svg">
  <metadata
     id="metadata28">
    <rdf:RDF>
      <cc:Work
         rdf:about="">
        <dc:format>image/svg+xml</dc:format>
        <dc:type
           rdf:resource="http://purl.org/dc/dcmitype/StillImage" />
      </cc:Work>
    </rdf:RDF>
  </metadata>
  <sodipodi:namedview
     pagecolor="#ffffff"
     bordercolor="#666666"
     borderopacity="1"
     objecttolerance="10"
     gridtolerance="10"
     guidetolerance="10"
     inkscape:pageopacity="0"
     inkscape:pageshadow="2"
     inkscape:window-width="1920"
     inkscape:window-height="1096"
     id="namedview26"
     showgrid="false"
     fit-margin-top="0"
     fit-margin-left="0"
     fit-margin-right="0"
     fit-margin-bottom="0"
     inkscape:zoom="0.31466667"
     inkscape:cx="500"
     inkscape:cy="375"
     inkscape:window-x="-8"
     inkscape:window-y="-8"
     inkscape:window-maximized="1"
     inkscape:current-layer="svg2" />
  <defs
     id="defs53" />
  <path
     d="m 0,300 0,300 400,0 400,0 0,-300 L 800,0 400,0 0,0 0,300 z"
     id="path8"
     style="fill:#000000;stroke:none"
     inkscape:connector-curvature="0" />
  <path
     d="m 304,98.9 c 0,0.5 1.3,2.3 2.9,4 5.4,5.8 6.3,10.4 6.9,34.3 0.4,22.3 -0.2,28.8 -4.5,43.8 -3.4,12.2 -6,15.9 -10.2,14.5 -2.5,-0.8 -3.6,-4 -5.5,-16.6 -1.9,-12.4 -2,-22.7 -0.5,-31.9 0.6,-3.6 1.2,-13.7 1.3,-22.5 0.3,-16.9 0.7,-18.7 5.5,-23.7 2.7,-2.8 4.1,-3.5 4.1,-1.9 z"
     id="path10"
     style="fill:#ffffff;stroke:none"
     inkscape:connector-curvature="0" />
  <path
     d="m 419.7,103 c 1.2,1 3.2,4.5 4.4,7.7 2.1,5.3 2.3,7.6 2.7,28.9 l 0.4,23.1 -3.8,14.2 c -2,7.9 -4.6,15.3 -5.6,16.7 -2.1,2.6 -5.9,3.2 -7.6,1.1 -0.5,-0.6 -2,-7.5 -3.3,-15.1 -2.2,-13.3 -2.2,-14.7 -0.9,-27 0.7,-7.2 1.6,-20.3 1.9,-29.1 0.7,-18.4 2,-22.5 6.9,-22.5 1.6,0 3.8,0.9 4.9,2 z"
     id="path12"
     style="fill:#ffffff;stroke:none"
     inkscape:connector-curvature="0" />
  <path
     d="m 569.8,103.3 c 6.4,6.8 8.6,19.3 7.9,44.2 -0.5,16.1 -0.9,19.1 -3.5,28 -1.6,5.5 -3.3,11.3 -3.6,13 -1.2,5 -3.3,7.5 -6.6,7.5 -1.8,0 -3.3,-0.7 -3.9,-1.8 -0.5,-0.9 -1.9,-8.3 -3,-16.2 -1.8,-12.5 -1.9,-15.7 -1,-23.5 0.6,-5 1.4,-17.3 1.8,-27.5 0.4,-10.2 1.2,-19.7 1.9,-21.2 2.1,-5 6.6,-6.1 10,-2.5 z"
     id="path14"
     style="fill:#ffffff;stroke:none"
     inkscape:connector-curvature="0" />
  <path
     d="m 265.8,105.9 c 7.9,4 7.5,2.4 7.4,36.9 -0.1,17 -0.6,33.8 -1.1,37.5 -2.1,14.9 -7.8,17.2 -41.1,17.1 -18.6,-0.1 -27.9,-1.3 -32,-4.2 -4.9,-3.5 -5.7,-3.4 -10.7,1.7 -5.3,5.4 -10.6,7.5 -22.5,9 -12.3,1.6 -20.1,-1.8 -26.5,-11.6 -3.5,-5.2 -3.8,-6.2 -3.7,-12.7 0,-6.4 0.5,-8 4.3,-15.3 5.7,-10.9 8.1,-12.4 21.2,-13.4 11.1,-0.7 14.9,-2.4 14.9,-6.4 0,-3.3 3.4,-12.2 5.6,-14.6 6,-6.7 16.3,4.4 16.4,17.5 0,6.3 1.6,16.2 3.3,20.9 2.1,6 9.4,7.5 12.8,2.7 1.5,-2.1 2,-5.7 2.7,-22.8 l 0.9,-20.3 3.7,-5.3 c 5.2,-7.6 7.9,-9.8 11.2,-9.4 5.4,0.6 5.9,3.3 6,32.3 l 0.2,26 3.3,2.7 c 3.9,3.3 4.9,3.4 8,0.9 l 2.4,-1.9 0.1,-28.3 c 0.1,-30.3 0.6,-34.2 4.9,-38.5 2.9,-2.9 3.5,-2.9 8.3,-0.5 z"
     id="path16"
     style="fill:#ffffff;stroke:none"
     inkscape:connector-curvature="0" />
  <path
     d="m 388.3,106.1 c 1.2,0.6 3.2,2.1 4.5,3.2 l 2.2,2 0,36.4 c 0,40.2 -0.1,41 -6.2,45.6 -3.3,2.5 -4.3,2.8 -24.4,5.4 -4.1,0.5 -30.1,-1.3 -32.7,-2.3 -2.3,-0.9 -3.7,-5.1 -3.7,-11.3 0,-6.5 2.2,-10.4 6.4,-11.5 3.6,-0.9 4.6,-5.1 5.2,-23.5 0.3,-9.1 0.7,-18 1,-19.8 0.5,-3.5 8.4,-14.7 11.6,-16.4 1.1,-0.6 3,-0.8 4.2,-0.5 4.5,1.1 5,4.3 5.4,32.6 l 0.4,26.5 2.6,2.2 c 3.5,2.9 5.7,2.9 8.7,-0.2 2.1,-2 2.5,-3.4 2.5,-8.2 0,-3.2 -0.4,-7.3 -0.9,-9.1 -1,-3.2 0.2,-35.3 1.5,-43.4 0.7,-4.3 4.4,-8.8 7.4,-8.8 1.2,0 3.1,0.5 4.3,1.1 z"
     id="path18"
     style="fill:#ffffff;stroke:none"
     inkscape:connector-curvature="0" />
  <path
     d="m 652.1,108 c 2.4,1.1 5.4,2 6.5,2 1.2,0 2.3,0.8 2.5,1.7 0.2,1 0.2,18.4 0,38.8 l -0.3,37 -7,4.5 c -8.1,5.3 -11.2,5.9 -33.1,6.6 -16.8,0.6 -27.5,-0.6 -29.5,-3.3 -0.8,-1.2 -1.2,-4.4 -1,-9.7 l 0.3,-8 4.5,-2.6 c 5.5,-3.2 5.6,-3.9 6.8,-28.6 0.8,-18 0.9,-18 3.9,-22.5 4.8,-6.7 8.2,-9.9 10.6,-9.9 6.1,0.1 6.7,2.9 6.7,32.4 0,23.9 0.1,25.5 2,27.9 2.6,3.2 5,4 8.3,2.8 3.8,-1.5 5.1,-6.7 3.9,-16.1 -1.1,-9.3 0.1,-44.4 1.7,-48.5 2.8,-6.8 5.8,-7.9 13.2,-4.5 z"
     id="path20"
     style="fill:#ffffff;stroke:none"
     inkscape:connector-curvature="0" />
  <path
     d="m 539.6,114.8 c 3,2 3.4,5.8 3.9,40.2 0.5,37.6 0.2,40.5 -4.3,42.9 -5.3,2.8 -29.5,-0.1 -35.9,-4.3 -4.6,-3.1 -6.9,-2.6 -9.9,1.9 -5.1,7.8 -29.5,12.5 -39.3,7.6 -4.5,-2.4 -9.8,-8.1 -11.8,-13 -1.9,-4.5 -1.2,-17.8 1.2,-23.6 4.6,-10.8 10.5,-14.6 24.2,-15.3 10.5,-0.5 13.3,-2.1 13.3,-7.3 0,-3.7 2.5,-9.7 5.2,-12.6 3.3,-3.5 7,-3 11.1,1.6 4.2,4.6 5.2,8 6.5,21.6 0.6,5.5 1.6,11.8 2.4,14 1.5,4.6 5.2,7.1 9.1,6.1 4.9,-1.2 5.5,-3.5 6.4,-25.7 0.8,-19.2 1.1,-20.8 3.3,-24 6,-8.8 11.2,-12.4 14.6,-10.1 z"
     id="path22"
     style="fill:#ffffff;stroke:none"
     inkscape:connector-curvature="0" />
  <path
     d="m 419.3,205.1 c 1.2,0.7 2.5,1.7 2.9,2.3 2.2,3.3 -0.7,8.6 -4.8,8.6 -4.1,0 -3.6,2 0.9,3.9 8.6,3.7 7,9 -3.9,13.6 -3.8,1.6 -7,3.3 -7.2,3.7 -0.8,1.8 -5.4,0.7 -7.7,-2 -3.4,-3.8 -3.2,-7.1 0.7,-10.3 3.1,-2.6 3.2,-2.7 1.5,-5.2 -2.8,-4.3 -2.1,-7 2.8,-11.6 3.7,-3.4 5.1,-4.1 8.5,-4.1 2.3,0 5.1,0.5 6.3,1.1 z"
     id="path24"
     style="fill:#ffffff;stroke:none"
     inkscape:connector-curvature="0" />
  <path
     d="m 572,205.5 c 5.6,2.9 4.8,10.1 -1.2,10.7 -4.6,0.4 -4.4,2.1 0.4,4.3 3.9,1.8 4.3,2.4 4.3,5.5 0,3.4 -0.3,3.7 -8,7.6 -10.3,5.4 -13.2,5.5 -16.4,0.9 -2,-3 -2.2,-3.9 -1.3,-6 0.7,-1.4 2.3,-3 3.7,-3.7 3,-1.4 3.1,-1.8 0.5,-4.8 -1.1,-1.3 -2,-3.3 -2,-4.4 0,-2.2 7.1,-9.8 10,-10.9 2.9,-1 7.1,-0.7 10,0.8 z"
     id="path26"
     style="fill:#ffffff;stroke:none"
     inkscape:connector-curvature="0" />
  <path
     d="m 436.3,302 c 13.8,2.2 27.9,11.9 43.2,29.5 7,8 15.6,23.3 25.7,45.4 l 4.3,9.5 0,48 c 0,47.8 0,48.1 -2.3,53 -3.4,7.5 -11.4,17.6 -21.1,26.8 -12.9,12.3 -22.8,18.4 -47.6,29.5 -9.8,4.4 -18.7,5.2 -53.2,4.9 l -23.1,-0.2 -15.8,-7.9 c -30.4,-15.3 -42.5,-26.9 -57.6,-55 l -5.3,-10 -0.3,-25.7 -0.3,-25.7 3.1,-11.8 c 1.7,-6.5 3.9,-13.8 4.9,-16.3 1,-2.5 3.8,-10.1 6.1,-17 6.2,-18.7 22.2,-48.1 31.4,-57.8 7,-7.4 23.4,-15 40.6,-18.6 7.7,-1.7 58.1,-2.1 67.3,-0.6 z"
     id="path28"
     style="fill:#ffffff;stroke:none"
     inkscape:connector-curvature="0" />
  <path
     d="m 171.3,159.7 c -2.9,0.6 -7.6,5.2 -9.7,9.6 -2.3,5 -2.2,13.3 0.3,14.7 2.9,1.5 13.6,1.3 15,-0.3 2.5,-3.1 5.3,-20.9 3.5,-22.7 -1.2,-1.2 -6.2,-1.9 -9.1,-1.3 z"
     id="path30"
     style="fill:#000000;stroke:none"
     inkscape:connector-curvature="0" />
  <path
     d="m 474,161.8 c -4.5,2.2 -10,11.2 -10,16.2 0,6 1.8,7.4 9.8,7.8 8.3,0.5 8.5,0.3 11.3,-12.3 2.3,-9.9 2.3,-9 -0.3,-11.5 -2.7,-2.5 -6.2,-2.6 -10.8,-0.2 z"
     id="path32"
     style="fill:#000000;stroke:none"
     inkscape:connector-curvature="0" />
  <path
     d="m 437.6,324.8 c -0.3,0.5 -0.8,12.3 -1.2,26.4 -0.5,18.2 -0.4,25.7 0.4,26.2 3.2,2 5.5,-13.6 5,-34 -0.3,-8.7 -0.8,-16.7 -1.2,-17.7 -0.9,-1.8 -2.2,-2.2 -3,-0.9 z"
     id="path34"
     style="fill:#000000;stroke:none"
     inkscape:connector-curvature="0" />
  <path
     d="m 411,329.6 c -0.6,1.4 -1,11 -1,21.3 0,18.3 -0.1,18.8 -2.3,20.9 -2.8,2.6 -6.4,2.8 -9.3,0.4 -4.1,-3.3 -4.5,-5.5 -4.2,-22.5 0.3,-14.2 0.1,-16.2 -1.3,-16.5 -3,-0.5 -4.6,5.5 -5.2,18.8 -0.3,6.9 -1,13.7 -1.6,15.2 -1.4,3.8 -5.3,6.1 -8.8,5.3 -5.2,-1.1 -7,-5.6 -8.8,-21.6 -0.8,-7 -2.6,-9.9 -4.9,-8 -0.9,0.7 -1.6,2.8 -1.6,4.6 0,1.9 -0.8,3.9 -2,5 -2.5,2.2 -2.5,3.4 -0.2,4.2 5.5,2 6.9,8.9 3.3,17 -2.2,4.7 -4.5,6.3 -9.1,6.3 -10.3,0 -12.9,-8.9 -5.4,-18.7 1.3,-1.7 2.4,-3.4 2.4,-3.7 0,-0.3 -1.5,-0.6 -3.3,-0.6 -5.9,0 -9.8,4.4 -11.2,12.7 -0.9,5.6 0,9.3 3.1,12.6 3.3,3.6 6.6,4.2 14.2,2.9 4.9,-0.8 7.1,-1.8 10.2,-4.6 4.5,-4.1 5.8,-4.3 10.3,-1.9 4.2,2.1 22,3.3 31.2,2 11.3,-1.5 10.9,-0.5 11,-27.9 0.1,-12.8 0,-23.9 -0.3,-24.6 -0.8,-2.2 -4.2,-1.3 -5.2,1.4 z"
     id="path36"
     style="fill:#000000;stroke:none"
     inkscape:connector-curvature="0" />
  <path
     d="m 334.1,406.4 c -1.5,1.8 -1.6,7.4 -0.2,14.5 1.4,6.8 0.3,24.7 -1.6,28.1 -0.8,1.4 -3,3.6 -4.9,4.9 -4,2.8 -8.4,2.4 -12.2,-1.2 l -2.5,-2.2 0.6,4.4 c 0.3,2.4 1.1,4.8 1.9,5.2 0.7,0.5 4.3,0.9 7.9,0.9 8.9,0 11.1,-1.7 13.4,-10.7 2,-7.9 3,-41.9 1.3,-44.1 -1.3,-1.6 -2.3,-1.5 -3.7,0.2 z"
     id="path38"
     style="fill:#000000;stroke:none"
     inkscape:connector-curvature="0" />
  <path
     d="m 396,415.1 c -0.8,1.3 -1,4 -0.6,6.5 0.8,6.2 -2.1,9.5 -9.2,10.2 -4.7,0.4 -5.4,0.2 -8.2,-2.6 -1.6,-1.7 -3,-3.8 -3,-4.8 0,-1 -1.2,-3.5 -2.6,-5.6 -3.4,-4.9 -7.2,-5.1 -13.2,-0.7 -4.4,3.2 -5.8,6.3 -4.8,10.4 1,4.1 6.4,11.2 10.2,13.4 5.4,3.2 4.4,5.7 -3.8,10 -10.1,5.2 -8.5,7 2.8,3.1 8.8,-3.1 12.3,-5.8 13,-10.2 0.7,-4.2 3.8,-6.8 8.1,-6.8 1.5,0 6.3,1.1 10.7,2.4 9.7,2.9 39.6,5.3 44.1,3.6 4.3,-1.7 8.4,-4.9 10,-8 1.8,-3.4 2.7,-16.7 1.4,-19.3 -2.7,-5 -7.1,0.8 -8,10.6 -0.8,8.7 -2.9,11.2 -9.5,11.2 -3.8,0 -5,-0.5 -7.1,-2.9 -2.3,-2.7 -2.4,-3.4 -1.8,-10 0.6,-6.1 0.4,-7.4 -1,-8.6 -1.5,-1.3 -1.9,-1.2 -3.6,0.9 -1.1,1.3 -1.9,3.9 -1.9,6 0,5.1 -3.3,10.1 -6.7,10.2 -7.9,0.4 -9.2,-1.2 -9.5,-12 -0.3,-8 -0.5,-8.6 -2.5,-8.9 -1.4,-0.2 -2.6,0.4 -3.3,1.9 z"
     id="path40"
     style="fill:#000000;stroke:none"
     inkscape:connector-curvature="0" />
  <path
     d="m 370.5,420.4 c 1.7,1.2 1.8,1.8 0.8,4.9 -0.6,2 -0.8,5.7 -0.5,8.3 l 0.5,4.7 -4,-0.5 c -5.9,-0.8 -9.3,-3.4 -9.3,-7.1 0,-4.6 5.7,-11.1 10.1,-11.6 0.3,-0.1 1.4,0.5 2.4,1.3 z"
     id="path42"
     style="fill:#ffffff;stroke:none"
     inkscape:connector-curvature="0" />
  <path
     d="m 477.6,416.2 c -0.7,1.3 -1.7,6.1 -2.1,10.8 -0.9,11.8 -2.2,17.3 -5.1,21.5 -3.4,5.1 -3,6 1.7,3.3 4.7,-2.6 5.5,-3.8 6.4,-9.3 0.4,-2.2 1.5,-6.3 2.5,-9 0.9,-2.8 2,-7.1 2.4,-9.6 1.2,-8 -2.5,-12.9 -5.8,-7.7 z"
     id="path44"
     style="fill:#000000;stroke:none"
     inkscape:connector-curvature="0" />
  <path
     d="m 450,474.2 c -1.6,1.8 -3.7,4.8 -4.5,6.8 -2.9,6.4 -3,6.5 -7.8,6.5 -2.5,0 -4.9,0.3 -5.2,0.7 -1.6,1.6 1,5 5.5,7.3 7.8,4 9.3,9.1 3.8,12.6 -2.7,1.7 -4.4,1.9 -9.3,1.5 -10,-0.8 -13.2,-2.2 -15.5,-6.6 -3.7,-7.3 -9.6,-9.9 -17.5,-7.5 -4.7,1.3 -5.8,2.1 -7.3,5.3 -1.3,2.8 -2.4,3.8 -4.5,4 -3.7,0.4 -5.3,-1 -8.3,-7.4 -2.9,-6.2 -8.7,-11.7 -15.8,-15 -6.2,-2.9 -10.3,-3 -13.6,-0.4 -2,1.6 -2.3,2.2 -1.4,3.7 0.8,1.4 2.9,1.9 8.2,2.4 7.7,0.6 10.8,2.4 13.8,8.1 4.8,9.3 -4.5,15.4 -14.9,9.8 -4.9,-2.6 -7.7,-1.9 -7.7,2 0,3.9 2.3,5 11,5 5.1,0 9.3,-0.7 14.5,-2.5 6.5,-2.3 7.9,-2.4 11.8,-1.5 2.6,0.7 6.7,3 9.8,5.6 6.7,5.5 10,5.7 17.3,1.3 l 5,-3.2 8.8,1.7 c 10.5,2.1 18.2,1 25.3,-3.5 6.4,-4.1 5.7,-8 -2.3,-11.9 -6.3,-3.2 -8.3,-7.8 -4.3,-10 2.2,-1.1 4.4,-0.5 8.3,2.3 1.5,1.1 3.4,1.7 4.2,1.4 3.4,-1.3 8.3,-12.6 7,-16.1 -0.8,-2.1 -6.6,-5.6 -9.3,-5.6 -1.2,0 -3.5,1.4 -5.1,3.2 z"
     id="path46"
     style="fill:#000000;stroke:none"
     inkscape:connector-curvature="0" />
  <path
     d="m 458,478 c 2.6,2.6 2.6,6.6 0,8 -3.1,1.7 -8,-1.3 -8,-4.8 0,-5.2 4.3,-6.9 8,-3.2 z"
     id="path48"
     style="fill:#ffffff;stroke:none"
     inkscape:connector-curvature="0" />
  <path
     d="m 409.7,502.5 c 2.8,5 2.8,6.5 0.2,9.9 -2.9,3.7 -7.7,3.6 -12.4,-0.5 -1.9,-1.7 -3.5,-3.8 -3.5,-4.6 0,-0.9 1.8,-3.3 4,-5.5 5.2,-5.2 8.5,-5 11.7,0.7 z"
     id="path50"
     style="fill:#ffffff;stroke:none"
     inkscape:connector-curvature="0" />
</svg>
