<?xml version="1.0" encoding="UTF-8" standalone="no"?>
<svg
   xmlns:dc="http://purl.org/dc/elements/1.1/"
   xmlns:cc="http://creativecommons.org/ns#"
   xmlns:rdf="http://www.w3.org/1999/02/22-rdf-syntax-ns#"
   xmlns:svg="http://www.w3.org/2000/svg"
   xmlns="http://www.w3.org/2000/svg"
   xmlns:sodipodi="http://sodipodi.sourceforge.net/DTD/sodipodi-0.dtd"
   xmlns:inkscape="http://www.inkscape.org/namespaces/inkscape"
   version="1.0"
   width="900"
   height="600"
   id="Flag_of_the_Holy_Roman_Empire_between_1200_and_1350"
   inkscape:version="0.48.2 r9819"
   sodipodi:docname="Flag.svg">
  <metadata
     id="metadata10">
    <rdf:RDF>
      <cc:Work
         rdf:about="">
        <dc:format>image/svg+xml</dc:format>
        <dc:type
           rdf:resource="http://purl.org/dc/dcmitype/StillImage" />
      </cc:Work>
    </rdf:RDF>
  </metadata>
  <defs
     id="defs8">
    <clipPath
       id="id0-4">
      <path
         inkscape:connector-curvature="0"
         d="m 6270380,1184790 c -66510,-76010 -101350,-126680 -148860,-212190 -69670,-133020 -240700,-41180 -380050,-50680 22170,-6330 41170,6340 41170,22170 0,91850 50680,202700 158360,218530 98180,12670 190030,-22170 285040,-15830 15830,0 28500,22170 44340,38000 z"
         id="path7-8" />
    </clipPath>
  </defs>
  <sodipodi:namedview
     pagecolor="#ffffff"
     bordercolor="#666666"
     borderopacity="1"
     objecttolerance="10"
     gridtolerance="10"
     guidetolerance="10"
     inkscape:pageopacity="0"
     inkscape:pageshadow="2"
     inkscape:window-width="918"
     inkscape:window-height="764"
     id="namedview6"
     showgrid="false"
     inkscape:zoom="0.65"
     inkscape:cx="450"
     inkscape:cy="300"
     inkscape:window-x="169"
     inkscape:window-y="94"
     inkscape:window-maximized="0"
     inkscape:current-layer="Flag_of_the_Holy_Roman_Empire_between_1200_and_1350"
     showguides="false">
    <inkscape:grid
       type="xygrid"
       id="grid2811" />
  </sodipodi:namedview>
  <rect
     style="fill-rule:evenodd;fill:#000000;"
     id="rect5"
     y="400"
     x="0"
     height="200"
     width="900" />
  <rect
     style="fill:#ce1126;fill-rule:evenodd;fill-opacity:1"
     id="rect11"
     y="0"
     x="0"
     height="200"
     width="900" />
  <rect
     style="fill:#ffffff;fill-rule:evenodd"
     id="rect8"
     y="200"
     x="0"
     height="200"
     width="900" />
  <g
     style="fill-rule:evenodd"
     transform="matrix(1.1691261,0.03307337,-0.03160323,1.2235122,370.00456,-72.186504)"
     id="g4627">
    <path
       style="fill:#efbb22;fill-opacity:1;fill-rule:nonzero"
       id="path2779"
       d="m 40.134899,361.45577 c -0.27506,0.27273 -0.541785,0.54902 -0.808669,0.8269 -0.242384,-0.27095 -0.476151,-0.53871 -0.710244,-0.80642 -0.206528,0.24545 -0.412665,0.48746 -0.618791,0.72939 -0.311077,-0.34429 -0.621583,-0.69184 -0.932357,-1.03788 0.255011,-0.26211 0.50982,-0.52246 0.764527,-0.78283 0.244114,0.26061 0.497168,0.52267 0.750194,0.78484 0.212885,-0.22825 0.42608,-0.45994 0.647673,-0.68664 0.296937,0.32212 0.60241,0.64736 0.907667,0.97264 z m -0.15249,8.761 c -0.244607,-0.10433 -0.489042,-0.20958 -0.734016,-0.31302 -0.134765,-0.057 -0.256946,-0.14148 -0.355892,-0.24445 -0.199826,-0.20819 -0.346042,-0.49668 -0.438104,-0.85716 -0.127723,-0.49938 -0.164259,-1.12301 -0.09602,-1.86716 -0.311813,0.22309 -0.555703,0.36559 -0.722743,0.44327 -0.238208,0.11095 -0.423684,0.13825 -0.567094,0.0776 -0.06744,-0.0285 -0.158529,-0.0797 -0.264058,-0.14905 -0.219479,-0.14427 -0.440523,-0.28564 -0.658533,-0.43102 -0.276909,-0.18452 -0.452365,-0.31127 -0.515678,-0.36779 -0.06183,-0.0554 -0.07932,-0.11481 -0.06673,-0.186 0.01848,-0.10449 0.207552,-0.37964 0.564139,-0.83075 0.356035,-0.45036 0.60893,-0.71305 0.749355,-0.79978 0.103753,-0.0639 0.295837,-0.13277 0.570126,-0.1974 0.161021,-0.0378 0.379559,-0.0847 0.676638,-0.13187 0.104234,-0.0165 0.215687,-0.0392 0.327345,-0.0552 -0.0073,-0.0622 0.0024,-0.1181 0.0041,-0.17718 0.0015,-0.0606 0.0111,-0.11477 0.02004,-0.16528 0.02618,-0.14803 0.09632,-0.31765 0.200491,-0.5177 0.101528,-0.19471 0.265631,-0.42367 0.49331,-0.68532 -0.02365,0.64616 -0.0386,1.29568 -0.06191,1.9399 -0.02345,0.64441 -0.02813,1.29564 -0.04463,1.94498 -0.01535,0.60761 0.02498,1.04377 0.131582,1.30772 0.06995,0.17317 0.175736,0.28939 0.335885,0.35754 0.244665,0.10404 0.489418,0.20869 0.734027,0.31304 -0.09397,0.53126 -0.187958,1.06262 -0.281625,1.59213 z m -1.599846,-4.24037 c -7.84e-4,-0.2518 0.0065,-0.49825 0.01409,-0.74677 -0.128064,0.006 -0.237667,0.006 -0.310938,0.015 -0.223093,0.0267 -0.402747,0.0628 -0.545499,0.10837 -0.107009,0.034 -0.194751,0.0773 -0.266211,0.11994 -0.09074,0.0543 -0.136213,0.10352 -0.143588,0.14522 -0.0099,0.0558 0.04923,0.12904 0.171005,0.21344 0.128557,0.0891 0.25344,0.1565 0.379968,0.2111 0.08411,0.0363 0.173157,0.0513 0.274353,0.0394 0.09344,-0.0111 0.234935,-0.0464 0.426824,-0.10577 z m 4.784317,5.52226 c -1.178977,-0.46369 -2.358056,-0.92737 -3.530359,-1.42938 0.09364,-0.52943 0.187634,-1.06079 0.281585,-1.59194 0.978623,0.41735 1.969553,0.81534 2.962328,1.20467 0.0047,-0.28294 -0.0301,-0.53641 -0.101106,-0.76153 -0.03921,-0.12473 -0.146358,-0.35277 -0.305418,-0.68453 0.225859,-0.40544 0.460779,-0.80962 0.69577,-1.21535 0.229692,0.44492 0.351004,0.86816 0.392414,1.26956 0.04217,0.40721 0.0013,0.96668 -0.124666,1.67895 -0.0903,0.51057 -0.180564,1.02082 -0.270548,1.52955 z m -0.275401,0.99316 c -0.28239,0.31474 -0.556155,0.63091 -0.830453,0.95068 -0.243932,-0.26226 -0.487531,-0.52637 -0.722937,-0.78543 -0.207267,0.24901 -0.414141,0.49461 -0.612875,0.7467 -0.312661,-0.33537 -0.623433,-0.68139 -0.934188,-1.02754 0.260745,-0.2951 0.521926,-0.59204 0.783179,-0.88886 0.245385,0.25343 0.499341,0.51037 0.754007,0.76386 0.208502,-0.25597 0.425584,-0.50852 0.642713,-0.76128 0.304097,0.33237 0.608224,0.66465 0.920554,1.00187 z m 3.413709,0.24273 c -1.17908,-0.46369 -2.357895,-0.92893 -3.536955,-1.39272 0.09397,-0.53126 0.187958,-1.06262 0.281604,-1.59204 0.984165,0.386 1.976212,0.77889 2.968884,1.16821 0.0046,-0.28295 -0.03675,-0.5359 -0.109696,-0.76495 -0.03784,-0.11931 -0.137445,-0.35119 -0.29691,-0.68122 0.226082,-0.40552 0.461073,-0.81125 0.696184,-1.21709 0.221069,0.44342 0.354447,0.86782 0.3921,1.27129 0.03743,0.40184 0.0016,0.96496 -0.124701,1.67918 -0.09026,0.51026 -0.180547,1.02071 -0.27051,1.52934 z m -0.795334,1.00896 c -0.306502,0.34829 -0.612754,0.69463 -0.910235,1.04273 -0.397913,-0.41723 -0.786944,-0.83446 -1.175771,-1.25165 0.299321,-0.35855 0.598227,-0.71527 0.905915,-1.07033 0.387807,0.42419 0.783888,0.85176 1.180091,1.27925 z m 5.794519,0.93873 c -0.04191,0.23695 -0.234045,0.50311 -0.567636,0.79971 -0.333704,0.29667 -0.702415,0.52305 -1.110316,0.68554 -0.450872,0.1796 -0.810133,0.22117 -1.091659,0.1195 -0.332576,-0.11999 -0.672946,-0.34649 -1.022756,-0.68028 -0.302133,-0.28797 -0.764005,-0.81065 -1.382354,-1.57217 0.09775,-0.0904 0.19575,-0.1827 0.302411,-0.27328 0.299606,0.35841 0.545558,0.6128 0.743245,0.77275 0.191108,0.15477 0.405735,0.27386 0.652644,0.36338 0.255977,0.0926 0.534245,0.11532 0.8247,0.056 0.283597,-0.0581 0.692353,-0.21348 1.216785,-0.46735 0.725699,-0.35127 1.119043,-0.6841 1.174508,-0.99767 0.02742,-0.15499 0.0038,-0.382 -0.07069,-0.67725 -0.08553,-0.3383 -0.213228,-0.64126 -0.375604,-0.90346 0.195602,-0.49004 0.399904,-0.97853 0.603852,-1.465 0.207642,0.3653 0.344357,0.75047 0.42161,1.15587 0.07802,0.40881 0.07869,0.8369 -0.0011,1.28784 -0.105966,0.59908 -0.211684,1.19673 -0.317661,1.7959 z m 4.231499,1.26234 c -0.283216,-0.0915 -0.566263,-0.18457 -0.840584,-0.2744 -0.30874,-0.1013 -0.555453,-0.24986 -0.76417,-0.44957 -0.210156,-0.20113 -0.35415,-0.45976 -0.442041,-0.78412 -0.30375,0.23006 -0.669352,0.34687 -1.086212,0.34497 -0.280878,-10e-4 -0.571264,-0.0541 -0.878098,-0.1644 -0.204822,-0.0736 -0.400933,-0.14455 -0.596988,-0.21515 0.09367,-0.52951 0.187636,-1.06077 0.281615,-1.59213 0.196045,0.0707 0.392126,0.14173 0.596968,0.21524 0.315462,0.11349 0.541468,0.17184 0.675386,0.18222 0.134356,0.0103 0.319528,-0.0116 0.554989,-0.0599 -0.0713,-0.26405 -0.139313,-0.46666 -0.203922,-0.59114 -0.08432,-0.16239 -0.181852,-0.25424 -0.293405,-0.29076 -0.04263,-0.014 -0.07941,-0.007 -0.119271,0.008 -0.04713,0.0168 -0.09209,0.0589 -0.157884,0.12272 -0.08298,-0.0433 -0.166359,-0.085 -0.240924,-0.12512 0.124794,-0.70553 0.337129,-1.16354 0.626177,-1.38572 0.288441,-0.22176 0.688521,-0.25221 1.203287,-0.0835 0.531437,0.17419 0.923822,0.41421 1.187581,0.72382 0.269524,0.31643 0.365258,0.65379 0.299628,1.02483 -0.03543,0.20028 -0.106593,0.37446 -0.221212,0.5321 -0.113267,0.15598 -0.307111,0.35178 -0.577486,0.59681 0.03838,0.0912 0.09726,0.17103 0.183798,0.24444 0.08687,0.0739 0.168513,0.12478 0.254113,0.15272 0.274477,0.0895 0.557367,0.18288 0.840291,0.27602 -0.09397,0.53126 -0.187957,1.06263 -0.281636,1.59225 z m 2.740129,0.87092 c -1.05077,-0.31707 -2.097024,-0.66029 -3.1435,-1.00164 0.09397,-0.53126 0.187939,-1.06251 0.281926,-1.59388 0.814853,0.26636 1.638105,0.536 2.462114,0.80198 -0.0034,-0.69924 -0.006,-1.40235 -2.17e-4,-2.10175 0.0056,-0.69776 0.0031,-1.40245 0.0091,-2.10382 -0.114385,-0.1226 -0.219963,-0.24366 -0.325622,-0.36481 0.04068,-0.23 0.117363,-0.45149 0.226078,-0.66235 0.139299,-0.26971 0.355128,-0.57128 0.633428,-0.91368 0.07754,0.0747 0.155048,0.14956 0.241091,0.22752 -0.004,0.0227 -0.03335,0.0793 -0.05889,0.17827 -0.03227,0.12509 0.03433,0.27896 0.173862,0.45292 0.120472,0.1503 0.329933,0.34044 0.616888,0.56551 -0.07869,0.23941 -0.17307,0.46718 -0.284773,0.68597 -0.110171,0.2161 -0.226199,0.40741 -0.33691,0.57103 -0.06454,-0.0454 -0.128432,-0.0946 -0.192545,-0.14182 -0.0036,0.63525 -0.007,1.27063 -0.01028,1.90424 -0.0034,0.63507 -0.0066,1.26882 -0.01015,1.90417 -0.09399,0.53136 -0.187959,1.06262 -0.281621,1.59214 z m 2.026569,-1.19908 c -0.06161,0.3483 -0.15697,0.6563 -0.289529,0.91895 -0.132293,0.26173 -0.360365,0.60089 -0.670146,1.01852 -0.11244,-0.0829 -0.216307,-0.16218 -0.319729,-0.24343 0.183279,-0.47237 0.298234,-0.86543 0.353354,-1.17705 0.04188,-0.23675 0.08194,-0.59223 0.124731,-1.06472 0.04284,-0.47333 0.08041,-0.94377 0.103984,-1.40795 0.02386,-0.46875 0.01828,-1.03505 0.0012,-1.69922 -0.0059,-0.2307 -0.0041,-0.38696 0.01035,-0.46882 0.02157,-0.1219 0.119237,-0.31096 0.290482,-0.56475 0.172877,-0.25646 0.398355,-0.56002 0.687333,-0.91142 -0.01047,0.72572 -0.01232,1.44813 -0.02185,2.1752 -0.01079,0.82307 -0.05504,1.53194 -0.103694,2.12479 -0.03773,0.4588 -0.09403,0.89055 -0.166437,1.2999 z"
       inkscape:connector-curvature="0" />
    <path
       style="fill:#efbb22;fill-opacity:1;fill-rule:nonzero"
       id="path2781"
       d="m 68.779165,377.78269 c -0.0049,0.24048 -0.154368,0.55259 -0.438981,0.93063 -0.284716,0.37803 -0.614515,0.69126 -0.993407,0.94749 -0.418248,0.2828 -0.776809,0.40981 -1.062275,0.3816 -0.347674,-0.0341 -0.719699,-0.16975 -1.11761,-0.40846 -0.343531,-0.20619 -0.881202,-0.60186 -1.610837,-1.18657 0.08265,-0.1134 0.165431,-0.22845 0.257263,-0.34321 0.351608,0.27429 0.633042,0.46411 0.84611,0.56752 0.220382,0.107 0.452389,0.16959 0.701915,0.19478 0.276213,0.0278 0.553643,-0.0243 0.825178,-0.14941 0.27879,-0.12885 0.658308,-0.38007 1.132237,-0.75008 0.669971,-0.523 1.011263,-0.94536 1.017768,-1.26362 0.0032,-0.15748 -0.05156,-0.36909 -0.174692,-0.63706 -0.141854,-0.30902 -0.310031,-0.56728 -0.511008,-0.78376 0.117759,-0.52295 0.235768,-1.04788 0.362719,-1.57253 0.261753,0.30252 0.469773,0.63767 0.604848,1.00857 0.135464,0.37226 0.207334,0.78609 0.19797,1.24425 -0.0124,0.60669 -0.0248,1.21318 -0.0372,1.81986 z m 9.383989,0.36349 c -2.098367,-0.0748 -4.196835,-0.14977 -6.293803,-0.28794 -0.276514,-0.0181 -0.499014,-0.10301 -0.664868,-0.25604 -0.167386,-0.1545 -0.304669,-0.39195 -0.414335,-0.718 -0.265961,0.33606 -0.511989,0.55714 -0.74643,0.66961 -0.207539,0.0995 -0.485356,0.14002 -0.833262,0.11731 -0.285561,-0.0184 -0.571341,-0.0363 -0.847892,-0.0527 0.01098,-0.53742 0.02201,-1.07691 0.033,-1.61465 0.276552,0.0164 0.562355,0.0331 0.847926,0.051 0.463901,0.029 0.813824,-0.0622 1.050922,-0.27413 0.281505,-0.25147 0.470198,-0.7016 0.563906,-1.35616 0.133281,0.031 0.266808,0.0603 0.400334,0.0896 -0.01194,0.14147 -0.01877,0.25631 -0.02504,0.34453 -0.01849,0.25808 -0.03621,0.46811 -0.03943,0.62569 -0.0046,0.22445 0.05356,0.40348 0.167811,0.53587 0.112625,0.13039 0.272829,0.20359 0.468911,0.21655 0.187458,0.0125 0.368223,-0.0142 0.537982,-0.0827 0.163569,-0.0661 0.426896,-0.21218 0.786382,-0.44041 0.717708,-0.45565 1.431725,-0.93947 2.155786,-1.42091 0.254326,-0.16898 0.443747,-0.28821 0.570388,-0.3599 0.28908,-0.16391 0.576827,-0.24221 0.844765,-0.23216 0.446359,0.0167 0.791373,0.186 1.052935,0.50807 0.304999,0.37574 0.445504,0.92904 0.430537,1.66128 -0.01555,0.76051 -0.03102,1.51749 -0.04653,2.27624 z m -0.784861,-2.25068 c 0.0037,-0.18025 -0.136139,-0.32899 -0.419792,-0.45102 -0.230013,-0.0991 -0.488539,-0.15221 -0.774056,-0.16264 -0.267946,-0.01 -0.563523,0.0648 -0.889239,0.21897 -0.33276,0.15771 -0.813259,0.44694 -1.447527,0.87265 0.517787,0.0194 1.036007,0.038 1.562652,0.0568 1.303664,0.0467 1.959726,-0.13185 1.967962,-0.53478 z m 5.832667,2.30256 c -0.411085,-10e-4 -0.901133,-0.085 -1.460494,-0.2493 -0.488716,-0.14358 -0.922768,-0.31437 -1.294204,-0.50946 -0.239339,0.34192 -0.529438,0.57094 -0.871625,0.6757 -0.161249,0.0492 -0.385575,0.069 -0.662361,0.0591 -0.392824,-0.0142 -0.785748,-0.0284 -1.178693,-0.0418 0.01099,-0.53773 0.02202,-1.07713 0.03304,-1.61663 0.392943,0.0135 0.785854,0.0283 1.178693,0.0418 0.357064,0.0124 0.643332,-0.0292 0.851079,-0.11339 0.269755,-0.10936 0.454054,-0.30381 0.574656,-0.57387 0.225606,-0.50483 0.530687,-0.912 0.892136,-1.23623 0.321064,-0.28801 0.580953,-0.43388 0.80413,-0.43307 0.19654,7.9e-4 0.443379,0.30499 0.731746,0.91918 0.302442,0.6434 0.43949,1.23857 0.428392,1.78151 -0.0088,0.43163 -0.01768,0.86484 -0.0265,1.29647 z m -1.071305,-1.79828 c 0.0018,-0.0883 -0.08475,-0.237 -0.249837,-0.45285 -0.183038,-0.2388 -0.341367,-0.35785 -0.484221,-0.35838 -0.151912,-2.9e-4 -0.289682,0.17805 -0.404219,0.53313 0.204037,0.082 0.362872,0.14072 0.469949,0.18108 0.318438,0.12045 0.496946,0.17873 0.53263,0.17905 0.08926,6.7e-4 0.134582,-0.0274 0.135698,-0.082 z"
       inkscape:connector-curvature="0" />
    <path
       style="fill:#efbb22;fill-opacity:1;fill-rule:nonzero"
       id="path2783"
       d="m 89.188478,369.50633 c -0.101414,0.42758 -0.194214,0.85275 -0.286133,1.28111 -0.315783,-0.054 -0.623348,-0.11072 -0.93026,-0.16563 -0.05892,0.35345 -0.117216,0.70856 -0.167686,1.0594 -0.412364,-0.0631 -0.817194,-0.13215 -1.220486,-0.19622 0.08962,-0.40554 0.179659,-0.80937 0.269733,-1.21308 0.320896,0.0396 0.641269,0.0775 0.962104,0.11689 0.06943,-0.34941 0.139668,-0.6969 0.209651,-1.04451 0.381984,0.0557 0.772513,0.10883 1.163077,0.16204 z m 3.745355,7.44371 c -0.240714,0.0987 -0.482203,0.19529 -0.723081,0.2924 -0.133204,0.0538 -0.267078,0.0776 -0.392349,0.0624 -0.243722,-0.0295 -0.493594,-0.16648 -0.732547,-0.40287 -0.327179,-0.32331 -0.621214,-0.82796 -0.904553,-1.50137 -0.152904,0.4122 -0.278352,0.70554 -0.378719,0.89138 -0.143239,0.26543 -0.288035,0.42842 -0.422676,0.4772 -0.07554,0.0272 -0.163474,0.046 -0.279262,0.0643 -0.249581,0.0395 -0.489869,0.0815 -0.730672,0.11701 -0.304776,0.0448 -0.4951,0.0633 -0.570158,0.0618 -0.07548,-0.002 -0.123997,-0.0378 -0.14486,-0.10521 -0.03188,-0.10296 -0.005,-0.47067 0.08714,-1.10851 0.09213,-0.6394 0.171611,-1.04146 0.250348,-1.2145 0.06034,-0.13293 0.186673,-0.33126 0.372754,-0.57828 0.111948,-0.14879 0.27646,-0.34904 0.487295,-0.60086 0.07582,-0.0907 0.157,-0.1876 0.239578,-0.28352 -0.02477,-0.0497 -0.05371,-0.0978 -0.07471,-0.15089 -0.0215,-0.0543 -0.04147,-0.10402 -0.05713,-0.1546 -0.0445,-0.14371 -0.06714,-0.335 -0.0674,-0.5792 -2.62e-4,-0.2407 0.02649,-0.54892 0.09469,-0.9329 0.26689,0.55979 0.542485,1.1171 0.808813,1.67541 0.266268,0.55814 0.551773,1.11227 0.82581,1.67017 0.257165,0.52381 0.48815,0.86002 0.685045,1.00454 0.129645,0.0951 0.268019,0.11011 0.42583,0.0458 0.240695,-0.0977 0.48237,-0.19369 0.723115,-0.29231 0.159616,0.51548 0.318679,1.02915 0.477707,1.54272 z m -3.15743,-2.37415 c -0.111883,-0.20975 -0.215417,-0.42382 -0.319306,-0.63797 -0.100549,0.0977 -0.180716,0.17465 -0.236123,0.23417 -0.175864,0.18962 -0.308962,0.34572 -0.400351,0.4888 -0.06617,0.10391 -0.113826,0.20428 -0.152753,0.29169 -0.04933,0.11046 -0.07296,0.18748 -0.06044,0.22792 0.01674,0.0541 0.0971,0.072 0.240908,0.0531 0.134829,-0.0176 0.273966,-0.0518 0.399893,-0.0978 0.07551,-0.0273 0.152866,-0.0807 0.23036,-0.16204 0.07772,-0.0814 0.178033,-0.21077 0.297809,-0.39792 z m 6.283434,1.11365 c -1.155909,0.46533 -2.31117,0.93239 -3.458566,1.39495 -0.159031,-0.51356 -0.318094,-1.02726 -0.477707,-1.54271 0.964317,-0.38944 1.928699,-0.77866 2.901562,-1.17075 -0.113167,-0.24451 -0.25622,-0.4311 -0.418102,-0.5649 -0.08919,-0.0735 -0.266358,-0.19545 -0.549257,-0.35397 0.01091,-0.50881 0.02106,-1.01945 0.03119,-1.53008 0.373937,0.21015 0.669063,0.469 0.877724,0.78023 0.208387,0.31107 0.420263,0.81418 0.634279,1.50535 0.152789,0.49339 0.306099,0.98848 0.45888,1.48188 z m 0.217091,1.03272 c -0.08779,0.47162 -0.168059,0.93721 -0.248471,1.40276 -0.312215,-0.0422 -0.616623,-0.0886 -0.92144,-0.1368 -0.05722,0.35858 -0.114597,0.71701 -0.171973,1.07543 -0.400655,-0.0555 -0.801296,-0.11104 -1.200896,-0.16318 0.07758,-0.4444 0.154419,-0.89053 0.232036,-1.33482 0.309673,0.0336 0.627436,0.063 0.944988,0.0926 0.05432,-0.36869 0.117695,-0.73834 0.180774,-1.1079 0.392103,0.0582 0.784849,0.11809 1.184982,0.17193 z m 4.675692,-3.02187 c 0.0712,0.22977 0.0425,0.59062 -0.0948,1.08293 -0.13739,0.49253 -0.33326,0.95342 -0.5901,1.38655 -0.283787,0.47842 -0.562608,0.78039 -0.833994,0.90069 -0.320625,0.14242 -0.695426,0.19781 -1.115954,0.17164 -0.370904,-0.0231 -0.974413,-0.12604 -1.81557,-0.33594 0.03863,-0.1471 0.07723,-0.29432 0.124503,-0.44411 0.39395,0.0947 0.716104,0.13873 0.937409,0.12824 0.230211,-0.011 0.455457,-0.0696 0.685782,-0.17163 0.254738,-0.11285 0.478687,-0.29524 0.688254,-0.55572 0.208934,-0.25976 0.462518,-0.68339 0.773824,-1.2765 0.435566,-0.83056 0.598026,-1.39087 0.503866,-1.69496 -0.0466,-0.15047 -0.16525,-0.32302 -0.356546,-0.51733 -0.217915,-0.22155 -0.446734,-0.38583 -0.693348,-0.4873 -0.05932,-0.5538 -0.11855,-1.10766 -0.16974,-1.66586 0.328609,0.1556 0.61519,0.37277 0.858447,0.65825 0.241017,0.28279 0.425117,0.64801 0.560637,1.08566 0.17894,0.57786 0.35844,1.15753 0.53737,1.73539 z m 4.85023,-2.91122 c 0.20148,0.65061 0.14178,1.42011 -0.19097,2.31292 -0.33134,0.88858 -0.75499,1.45864 -1.2589,1.70268 -0.30126,0.14589 -0.66513,0.20454 -1.07728,0.17621 -0.41896,-0.0288 -1.08906,-0.1646 -2.01149,-0.42523 0.0396,-0.14381 0.08,-0.28581 0.12806,-0.43225 0.4708,0.10055 0.84804,0.13959 1.12778,0.10817 0.23535,-0.0264 0.47477,-0.0976 0.73505,-0.2239 0.34939,-0.16973 0.66881,-0.44093 0.94584,-0.81127 0.32475,-0.43447 0.62598,-1.02915 0.89031,-1.77574 -0.14691,0.0992 -0.26553,0.16945 -0.37127,0.22049 -0.34952,0.16932 -0.67239,0.18632 -0.95879,0.045 -0.28743,-0.14177 -0.49541,-0.42237 -0.62521,-0.84153 -0.1758,-0.56775 -0.22026,-1.17169 -0.13334,-1.8198 0.0939,-0.70034 0.31256,-1.13562 0.6621,-1.30496 0.28462,-0.13801 0.59222,-0.052 0.92243,0.26063 0.33127,0.31365 0.58314,0.76582 0.76308,1.34697 0.15071,0.48666 0.30191,0.97499 0.4526,1.46162 z m -1.00649,-0.83455 c -0.28662,-0.56304 -0.58391,-0.76732 -0.8923,-0.61628 -0.11371,0.0555 -0.18635,0.14482 -0.22575,0.26799 -0.0413,0.12955 -0.046,0.24403 -0.0115,0.35543 0.0419,0.13527 0.14975,0.21032 0.32416,0.23124 0.16559,0.0199 0.36634,-0.025 0.60238,-0.1385 0.065,-0.0312 0.12977,-0.0641 0.20299,-0.0999 z m 6.08188,-1.34988 c -0.36947,0.196 -0.73162,0.38653 -1.09312,0.57732 -0.0806,0.0424 -0.16039,0.0859 -0.24832,0.13429 -0.0877,0.0484 -0.20623,0.1194 -0.37022,0.22388 0.15321,0.0119 0.30754,0.007 0.45766,0.0286 0.15436,0.022 0.24751,0.13463 0.29509,0.28825 0.0461,0.14878 0.0784,0.31301 0.0888,0.49852 0.006,0.10908 0.008,0.30094 0.004,0.58757 -0.008,0.55025 -0.0436,0.9422 -0.12026,1.18159 -0.0755,0.2352 -0.21996,0.40801 -0.42085,0.51367 -0.49077,0.25835 -1.00454,0.20999 -1.53533,-0.15613 -0.5274,-0.36356 -0.91669,-0.93631 -1.15794,-1.71542 -0.41421,0.20244 -0.82104,0.39877 -1.22782,0.59497 -0.15852,-0.51188 -0.31813,-1.02734 -0.47722,-1.54112 0.16274,-0.078 0.3254,-0.15761 0.48784,-0.23613 0.18722,-0.0907 0.3869,-0.20594 0.5755,-0.34667 0.21411,-0.15963 0.35305,-0.27965 0.43571,-0.34435 0.0495,-1.35039 0.14125,-2.35601 0.28916,-3.02277 0.1293,-0.58196 0.30118,-0.93042 0.52598,-1.04991 0.18466,-0.0979 0.40246,0.006 0.65021,0.31738 0.21165,0.26639 0.36907,0.55777 0.46693,0.87377 0.13552,0.43765 0.1749,0.85674 0.10652,1.25035 -0.076,0.43815 -0.26809,0.82554 -0.5718,1.17343 0.24271,-0.18264 0.4747,-0.3391 0.6799,-0.46244 0.21258,-0.128 0.4124,-0.23888 0.58906,-0.33235 0.3616,-0.19159 0.72304,-0.38333 1.09256,-0.57922 0.15961,0.51547 0.31864,1.02904 0.47776,1.54291 z m -2.98037,-1.44013 c -0.0303,-0.098 -0.10591,-0.20242 -0.21723,-0.30866 -0.11425,-0.10903 -0.20328,-0.14267 -0.27578,-0.10532 -0.0968,0.0499 -0.1653,0.21359 -0.22269,0.48934 -0.0591,0.28435 -0.10275,0.69474 -0.13769,1.24627 0.36253,-0.36962 0.60256,-0.64889 0.72352,-0.83501 0.12588,-0.19385 0.17018,-0.35643 0.12987,-0.48662 z m 1.39311,3.68337 c -0.0659,-0.21287 -0.23963,-0.35324 -0.5239,-0.42302 -0.34302,-0.0839 -0.79787,-0.0398 -1.3478,0.11753 0.15965,0.30419 0.41705,0.50698 0.75921,0.60925 0.34827,0.10409 0.67602,0.0701 0.98993,-0.0954 0.11222,-0.0589 0.14872,-0.12392 0.12256,-0.20839 z m 6.0836,-4.78744 c -0.36534,0.2094 -0.8266,0.38153 -1.37501,0.5128 -0.47884,0.11473 -0.9184,0.17516 -1.30932,0.18132 -0.10521,0.44554 -0.29285,0.80815 -0.5623,1.08346 -0.12841,0.13114 -0.30923,0.26783 -0.56614,0.40674 -0.35186,0.1903 -0.70754,0.37287 -1.06121,0.56013 -0.15909,-0.51376 -0.31812,-1.02734 -0.47771,-1.5427 0.35364,-0.18738 0.70929,-0.37004 1.06117,-0.56025 0.32103,-0.17346 0.55808,-0.36774 0.71656,-0.55512 0.20426,-0.24142 0.30804,-0.52066 0.33039,-0.83569 0.0422,-0.59375 0.18395,-1.13174 0.40408,-1.62505 0.19383,-0.43477 0.38781,-0.7108 0.57851,-0.81983 0.18261,-0.10447 0.48956,0.0596 0.93757,0.49105 0.47141,0.45388 0.7793,0.94597 0.93987,1.46453 0.12815,0.41378 0.25585,0.82621 0.38354,1.23861 z m -1.51545,-1.14916 c -0.0262,-0.0846 -0.14983,-0.18175 -0.36437,-0.30024 -0.23645,-0.13055 -0.4153,-0.16371 -0.54255,-0.0911 -0.13495,0.077 -0.2009,0.31771 -0.19141,0.71095 0.20634,-0.0286 0.36687,-0.0542 0.47382,-0.0708 0.32135,-0.0496 0.49755,-0.0845 0.52933,-0.10281 0.0792,-0.0456 0.11085,-0.0954 0.0952,-0.14601 z m 7.13382,-2.27197 c -1.9935,1.23381 -3.98005,2.46013 -5.98157,3.63738 -0.1591,-0.51376 -0.31871,-1.02922 -0.47776,-1.5429 1.24665,-0.71558 2.48825,-1.47784 3.72846,-2.24521 -0.57028,-0.21047 -1.06827,-0.31099 -1.48603,-0.29903 -0.37924,0.0108 -0.71356,0.11216 -1.02003,0.30094 -0.0862,0.053 -0.17106,0.11124 -0.23931,0.16307 -0.0756,0.0574 -0.18078,0.14103 -0.31284,0.25795 0.0429,-0.58559 0.15499,-1.06876 0.32048,-1.4417 0.16487,-0.37178 0.39686,-0.65099 0.69499,-0.83576 0.22758,-0.14083 0.46637,-0.21651 0.71548,-0.22699 0.24904,-0.0106 0.55192,0.038 0.89531,0.14314 0.27628,0.0844 0.67828,0.22699 1.19414,0.4432 0.36535,0.15324 0.62612,0.23781 0.79675,0.2476 0.16245,0.009 0.391,-0.0358 0.69362,-0.14629 0.15961,0.51545 0.31921,1.03083 0.47831,1.5446 z m -1.55438,2.44052 c -0.0873,0.56403 -0.17442,1.12802 -0.2547,1.68435 -0.47232,0.0148 -0.94587,0.0263 -1.41822,0.041 0.0793,-0.5596 0.1589,-1.11768 0.23854,-1.67575 0.47243,-0.0147 0.95392,-0.0305 1.43438,-0.0496 z"
       inkscape:connector-curvature="0" />
  </g>
  <g
     style="fill-rule:evenodd"
     id="g3461"
     transform="matrix(-1.4428845e-5,0,0,1.5626137e-5,543.7875,198.49063)">
    <path
       transform="matrix(1,0,0,1.0125003,0.28990097,-111152.78)"
       d="M 6479466.7,11553887 C 4350898.8,11533397 2904485,10312767 2904485,10312767 c -22107,81962 -461084.7,386386 -461084.7,386386 0,0 -44214,172703 -284229.2,81961 -322121,-120012 -438977.7,-649831 -438977.7,-649831 0,61472 -527405.5,263446 -527405.5,263446 22107,-181484 22107,-304426 0,-506400 -22106.9,-204902 -41052.8,-184412 416870.9,-632270 461084.7,-447856.2 527405.4,-20490 571619.2,-81961 0,0 44213.9,-58540 195801.5,-181482.4 154748.6,-122941.9 593726.3,-509328.1 900062.4,-201973.2 1367459,1355281.6 2829667.8,1402112.6 3202324.8,1402112.6 372656.8,0 1831704.7,-46831 3199163.7,-1402112.6 306336.2,-307354.9 745314.6,79031.3 900063.6,201973.2 151587,122942.4 195800,181482.4 195800,181482.4 44214,61471 110535,-365895.2 571620,81961 461085,447858 438978,427368 416871,632270 -22107,201974 -22107,324916 0,506400 0,0 -527405,-201974 -527405,-263446 0,0 -113696,538600 -438978,649831 -208436,70252 -284230,-81961 -284230,-81961 0,0 -438977,-304424 -461084,-386386 0,0 -1446414.4,1261610 -3571821.3,1241120 z"
       id="path11"
       style="fill:#009e60;fill-rule:evenodd"
       inkscape:connector-curvature="0" />
    <polygon
       points="7795880,7666990 9835390,9583710 8394190,10692800 6457060,11343700 4363310,10752600 3122390,9616710 5255590,7687090 "
       id="polygon13"
       style="fill:#ffffff;fill-opacity:1;fill-rule:evenodd;stroke:#efbb22;stroke-width:61066.58984375;stroke-opacity:1"
       transform="matrix(0.99715544,0,0,0.93578938,18487.827,-66598.857)" />
    <g
       style="fill:#ffffff;fill-rule:evenodd"
       id="_47212472"
       transform="matrix(0.99715544,0,0,0.93578938,18487.827,-66598.857)">
      <path
         id="_46568480"
         d="m 8258600,6851340 c 0,0 84840,0 188530,84840 103690,84840 131970,216810 131970,216810 0,0 -122550,28270 -245090,-9430 -122540,-37710 -179100,-94260 -179100,-94260 l 103690,-197960 z"
         style="fill:#ffffff;fill-opacity:1;stroke:#efbb22;stroke-width:61066.58984375;stroke-opacity:1"
         inkscape:connector-curvature="0" />
      <path
         id="_105117120"
         d="m 8146060,7076430 c 0,0 84830,0 188520,84840 103690,84830 131970,216800 131970,216800 0,0 -122540,28280 -245080,-9420 -122540,-37710 -179100,-94270 -179100,-94270 l 103690,-197950 z"
         style="fill:#ffffff;fill-opacity:1;stroke:#efbb22;stroke-width:61066.58984375;stroke-opacity:1"
         inkscape:connector-curvature="0" />
      <path
         id="_99531504"
         d="m 8033510,7311510 c 0,0 84840,0 188530,84840 103690,84840 131970,216810 131970,216810 0,0 -122540,28280 -245090,-9430 -122540,-37700 -179100,-94260 -179100,-94260 l 103690,-197960 z"
         style="fill:#ffffff;fill-opacity:1;stroke:#efbb22;stroke-width:61066.58984375;stroke-opacity:1"
         inkscape:connector-curvature="0" />
      <path
         id="_100008936"
         d="m 7911540,7557170 c 0,0 84840,0 188530,84840 103690,84840 131970,216810 131970,216810 0,0 -122540,28280 -245080,-9430 -122550,-37710 -179110,-94260 -179110,-94260 l 103690,-197960 z"
         style="fill:#ffffff;fill-opacity:1;stroke:#efbb22;stroke-width:61066.58984375;stroke-opacity:1"
         inkscape:connector-curvature="0" />
      <path
         id="_99531464"
         d="m 7770720,7800830 c 0,0 84840,0 188530,84830 103690,84840 131970,216810 131970,216810 0,0 -122540,28280 -245090,-9430 -122540,-37700 -179100,-94260 -179100,-94260 l 103690,-197950 z"
         style="fill:#ffffff;fill-opacity:1;stroke:#efbb22;stroke-width:61066.58984375;stroke-opacity:1"
         inkscape:connector-curvature="0" />
    </g>
    <g
       style="fill:#ffffff;fill-rule:evenodd"
       id="_46848968"
       transform="matrix(0.99715544,0,0,0.93578938,18487.827,-66598.857)">
      <path
         id="_103554712"
         d="m 4753500,6851340 c 0,0 -84840,0 -188530,84840 -103690,84840 -131970,216810 -131970,216810 0,0 122540,28270 245090,-9430 122540,-37710 179100,-94260 179100,-94260 l -103690,-197960 z"
         style="fill:#ffffff;fill-opacity:1;stroke:#efbb22;stroke-width:61066.58984375;stroke-opacity:1"
         inkscape:connector-curvature="0" />
      <path
         id="_103622104"
         d="m 4866040,7076430 c 0,0 -84840,0 -188530,84840 -103690,84830 -131960,216800 -131960,216800 0,0 122540,28280 245080,-9420 122540,-37710 179100,-94270 179100,-94270 l -103690,-197950 z"
         style="fill:#ffffff;fill-opacity:1;stroke:#efbb22;stroke-width:61066.58984375;stroke-opacity:1"
         inkscape:connector-curvature="0" />
      <path
         id="_100564448"
         d="m 4978590,7311510 c 0,0 -84840,0 -188530,84840 -103690,84840 -131970,216810 -131970,216810 0,0 122540,28280 245080,-9430 122550,-37700 179110,-94260 179110,-94260 l -103690,-197960 z"
         style="fill:#ffffff;fill-opacity:1;stroke:#efbb22;stroke-width:61066.58984375;stroke-opacity:1"
         inkscape:connector-curvature="0" />
      <path
         id="_47610432"
         d="m 5100550,7557170 c 0,0 -84830,0 -188520,84840 -103690,84840 -131970,216810 -131970,216810 0,0 122540,28280 245080,-9430 122550,-37710 179100,-94260 179100,-94260 l -103690,-197960 z"
         style="fill:#ffffff;fill-opacity:1;stroke:#efbb22;stroke-width:61066.58984375;stroke-opacity:1"
         inkscape:connector-curvature="0" />
      <path
         id="_46849008"
         d="m 5241380,7800830 c 0,0 -84840,0 -188530,84830 -103690,84840 -131970,216810 -131970,216810 0,0 122540,28280 245090,-9430 122540,-37700 179100,-94260 179100,-94260 l -103690,-197950 z"
         style="fill:#ffffff;fill-opacity:1;stroke:#efbb22;stroke-width:61066.58984375;stroke-opacity:1"
         inkscape:connector-curvature="0" />
    </g>
    <path
       transform="matrix(1,0,0,1.0125003,0.28990097,-111152.78)"
       d="m 6501573.6,8295954.2 75793.7,-49760.8 c 0,0 44213.9,679100.9 296863.2,1056706.6 138953.6,204893 252649.3,427367 274756.2,468348 22107,38051 142114.5,175624 -132641.6,193193 -186328.4,8780 -505298.5,8780 -505298.5,8780 0,0 -315809.2,0 -502137.5,-8780 -274756.3,-17569 -154748.7,-155142 -132641.6,-193193 22106.9,-40981 135802.4,-263455 274756.1,-468348 252649.3,-377605.7 296863.1,-1056706.6 296863.1,-1056706.6 l 53686.9,49760.8 z"
       id="path27"
       style="fill:#efbb22;fill-opacity:1;fill-rule:evenodd"
       inkscape:connector-curvature="0" />
    <path
       transform="matrix(1,0,0,1.0125003,0.28990097,-111152.78)"
       d="m 4941464.1,3779332.1 c 0,0 230542.4,-336616 0,-673241.3 0,0 170543.4,-354185.8 126329.6,-579579.3 -41062.8,-222463.5 -334764.9,-1085977.4 -1408522,-1047926.6 -1076917.9,38050.8 -1834855.5,749352.2 -2024345,860584.1 -189489.5,114161.5 -397924.9,281013.9 -524244.5,58550.3 0,0 -85266.8,187333.3 18946,298565.2 107373.6,108302 233703.2,184412.8 423182.7,108302 0,0 -442128.7,600069.5 -486342.5,787412.3 -41053,187333.3 -63159.9,187333.3 -230542.48,131722.2 0,0 22106.93,169772.8 126319.65,187342.5 104222.83,20481.1 252649.33,93662.2 356871.93,-55620.5 0,0 -189489.3,412726.9 -126329.6,655680.9 85276.8,319064.8 -18945.9,617639.3 -104212.7,676180.4 0,0 337916.2,73181 505298.6,-131722.3 0,0 -22106.9,1012796.6 -315809.1,1328931.6 0,0 337916,131722.2 483181.7,-73181 0,0 -252649.4,1422602.8 -1452725.95,3486256.4 0,0 401075.85,128791 716894.95,-450787 0,0 356862,111231 631618.2,-450778.3 0,0 672681,20490.4 884267.3,-954255.4 0,0 442138.8,93662.1 631628.2,-523967.9 0,0 442128.8,0 568458.5,-582499.9 0,0 380275.2,133413.6 568458.3,-523967.9 120925,-422440.6 195851.3,-700450.8 259001.2,-1449812.3 166146,435000.9 302467.1,70436 332351.8,-36322.5 117086.1,-418337 40265.2,-1045865.7 40265.2,-1045865.7 z"
       id="path29"
       style="fill:#ffffff;fill-opacity:1;fill-rule:evenodd;stroke:#efbb22;stroke-width:87936.21875;stroke-opacity:1"
       inkscape:connector-curvature="0" />
    <path
       transform="matrix(1,0,0,1.0125003,0.28990097,-111152.78)"
       d="M 6479466.7,11553887 C 4350898.8,11533397 2904485,10312767 2904485,10312767 c -22107,81962 -461084.7,386386 -461084.7,386386 0,0 -44214,172703 -284229.2,81961 -322121,-120012 -438977.7,-649831 -438977.7,-649831 0,61472 -527405.5,263446 -527405.5,263446 22107,-181484 22107,-304426 0,-506400 -22106.9,-204902 -41052.8,-184412 416870.9,-632270 461084.7,-447856.2 527405.4,-20490 571619.2,-81961 0,0 44213.9,-58540 195801.5,-181482.4 154748.6,-122941.9 593726.3,-509328.1 900062.4,-201973.2 1367459,1355281.6 2829667.8,1402112.6 3202324.8,1402112.6 372656.8,0 1831704.7,-46831 3199163.7,-1402112.6 306336.2,-307354.9 745314.6,79031.3 900063.6,201973.2 151587,122942.4 195800,181482.4 195800,181482.4 44214,61471 110535,-365895.2 571620,81961 461085,447858 438978,427368 416871,632270 -22107,201974 -22107,324916 0,506400 0,0 -527405,-201974 -527405,-263446 0,0 -113696,538600 -438978,649831 -208436,70252 -284230,-81961 -284230,-81961 0,0 -438977,-304424 -461084,-386386 0,0 -1446414.4,1261610 -3571821.3,1241120 z"
       id="path31"
       style="fill:#ffffff;fill-opacity:1;fill-rule:evenodd"
       inkscape:connector-curvature="0" />
    <path
       transform="matrix(1,0,0,1.0125003,0.28990097,-111152.78)"
       d="m 2938148.9,10339902 c -22097,-17422 -33663.9,-27145 -33663.9,-27145 -22107,81963 -461084.7,386387 -461084.7,386387 0,0 -688.1,2680 -2343.4,7190 -16522.8,-60971 -44532.9,-158839 -69780.9,-221243 -38889.1,-96120 -226852.9,-264332 -362964.5,-450565 -136111.7,-186234 -116667.1,-384483 -116667.1,-384483 0,0 84259.5,-90113 149074.7,-84105 64815.1,6008 207408.3,108135 408335.1,282354 200926.7,174218 492594.7,486610 492594.7,486610 l -3500,5000 z m -1217247.5,-205597 -708,-3031 c 0,61472 -527405.5,263446 -527405.5,263446 22107,-181484 22107,-304426 0,-506400 -9592.6,-88883 -18537,-135354 11726.6,-196030 27441.8,-9113 68843.7,-20731 110275.4,-24225 71296.7,-6007 149074.8,12016 265741.9,102129 98100.1,75769 132053.4,295940 140369.6,364111 z M 11760960,9712401 c 19016,51628 10580,97083 2075,175919 -22108,201974 -22108,324916 0,506400 0,0 -445181,-170458 -517494,-245830 5025,-52145 29905,-262428 109159,-330635 90741,-78098 149075,-150190 285186,-132167 42788,5666 84269,15509 121074,26313 z m -1269817,971853 c -87989,-62034 -420630,-300413 -439806,-371497 0,0 -21488,18716 -62731.4,51332 l -1505,-11165 c 0,0 213890.4,-180225 557410.4,-516647 343520,-336423 369446,-258324 434261,-270339 64815,-12016 84259,78097 84259,78097 0,0 0,126159 -32407,216272 -32407,90114 -168519,300377 -362964,510641 -194446,210263 -175001,312391 -175001,312391 l -1516,915 z"
       id="path33"
       style="fill:#ffffff;fill-opacity:1;fill-rule:evenodd"
       inkscape:connector-curvature="0" />
    <g
       style="fill-rule:evenodd"
       id="_103757528"
       transform="matrix(0.99715544,0,0,0.93578938,18487.827,-66598.857)">
      <path
         id="_104419856"
         d="m 5119610,8200970 c -222100,338530 -641230,853230 -1291080,1177160 -129850,66510 -186860,88680 -98180,167860 88680,76010 177360,174190 342050,107680 138800,-56050 902960,-539570 1244080,-1217270 -68350,-76220 -134000,-154690 -196870,-235430 z"
         style="fill:#efbb22;fill-opacity:1"
         inkscape:connector-curvature="0" />
      <path
         id="_104431664"
         d="m 5384270,8510300 c -190330,344590 -552050,863070 -1144010,1222550 -123520,72840 -174200,98180 -82350,167850 91850,66510 183690,155190 338880,79180 126980,-66140 817310,-585320 1098540,-1258430 -72690,-68250 -143070,-138630 -211060,-211150 z"
         style="fill:#efbb22;fill-opacity:1"
         inkscape:connector-curvature="0" />
      <path
         id="_100122360"
         d="m 5701900,8818540 c -177920,352920 -515700,877160 -1081590,1256350 -120350,79180 -171020,107690 -76010,171030 95010,63340 190030,148850 342050,63340 124180,-68700 788350,-618030 1041870,-1302110 -77430,-60810 -152910,-123680 -226320,-188610 z"
         style="fill:#efbb22;fill-opacity:1"
         inkscape:connector-curvature="0" />
      <path
         id="_100122256"
         d="m 6036160,9089590 c -131040,293890 -382720,726660 -858440,1222840 -98180,104510 -158350,120350 -60170,177360 98180,57010 288210,142520 430730,50670 117880,-76880 553000,-674300 723170,-1285440 -80070,-53210 -158550,-108350 -235290,-165430 z"
         style="fill:#efbb22;fill-opacity:1"
         inkscape:connector-curvature="0" />
      <path
         id="_104323120"
         d="m 7891130,8188780 c 221370,338500 640240,855050 1289830,1179850 133020,66510 186860,88680 98180,164690 -85510,76010 -174190,177360 -338880,110850 -138850,-56070 -901250,-542150 -1243390,-1220940 67450,-75920 132230,-154070 194260,-234450 z"
         style="fill:#efbb22;fill-opacity:1"
         inkscape:connector-curvature="0" />
      <path
         id="_102633280"
         d="m 7628950,8497920 c 190880,345220 553120,864540 1143450,1222260 120350,76010 171030,101350 82350,167850 -91850,66510 -183700,155190 -338880,79180 -129550,-63450 -815190,-583840 -1097180,-1257040 72440,-68600 142550,-139370 210260,-212250 z"
         style="fill:#efbb22;fill-opacity:1"
         inkscape:connector-curvature="0" />
      <path
         id="_104350776"
         d="m 7313050,8807180 c 177060,353540 513630,877930 1079300,1255050 117180,79170 167860,107680 76010,171020 -95010,63340 -193200,148860 -342050,66510 -126670,-71250 -787510,-619710 -1039270,-1302630 77360,-61250 152730,-124570 226010,-189950 z"
         style="fill:#efbb22;fill-opacity:1"
         inkscape:connector-curvature="0" />
      <path
         id="_105174832"
         d="m 6979480,9079970 c 130540,294200 381220,726620 855460,1222960 95010,101340 158350,117180 60170,174190 -95010,57010 -285040,145690 -430730,50670 -115170,-74210 -550820,-669610 -722180,-1279790 80790,-54040 159930,-110020 237280,-168030 z"
         style="fill:#efbb22;fill-opacity:1"
         inkscape:connector-curvature="0" />
    </g>
    <path
       transform="matrix(1,0,0,1.0125003,0.28990097,-111152.78)"
       d="m 7944826.4,4519913.3 309497.2,-608849.8 c -274756.2,-81961.2 -176855.4,-447857.1 -176855.4,-447857.1 -176855.6,-81961.3 -524244.6,-728871.1 -524244.6,-728871.1 l 221069.3,-40980.7 c -176855.5,-81961.3 -394763.8,-406876.4 -394763.8,-406876.4 l 262122.3,-40980.7 c -132641.7,-38050.7 -350550.2,-485907.9 -350550.2,-485907.9 l 262122.4,0 c -262122.4,-81961.3 -587404.4,-749352.2 -963222.2,-1015726.25 -483191.7,-348326.2 -1095863.9,-122942 -1095863.9,-122942 0,0 -438977.7,-40980.6 -483191.6,201982.6 0,0 483191.6,40980.6 568458.3,245874.55 0,0 -360022.9,-286855.25 -558985.3,-73171.75 0,0 296863.1,-8789.6 341077,193193.15 0,0 -44213.9,163913.2 132641.6,570789.7 0,0 -176855.5,242954 -176855.5,447857.2 0,201973.3 88427.7,848883.2 -262122.2,889863.8 l -176855.5,283934.5 c 0,0 132641.6,447857.2 -173694.6,570789.8 l 306336.2,567878.4 2933880.5,0 z"
       id="path44"
       style="fill:#ffffff;fill-opacity:1;fill-rule:evenodd;stroke:#efbb22;stroke-width:58624.15234375;stroke-opacity:1"
       inkscape:connector-curvature="0" />
    <path
       transform="matrix(1,0,0,1.0125003,0.28990097,-111152.78)"
       d="m 7028979.1,1493224.8 c -88427.8,-60491.3 -176855.6,-120991.8 -265283.3,-181492.4 109487.7,142461.9 218965.4,284905.1 328443.1,427366.8 -160003.5,-94650.9 -320017.2,-189292.7 -480030.6,-283934.4 35797.9,94641.7 71585.7,189283.5 107373.7,283934.4 -116846.7,-121971.4 -233693.4,-243933.5 -350550,-365895.7 m -678993.1,140511.7 c 0,0 66320.8,143422.8 22107,245874.4 m 328443,-245874.4 c 0,0 -66320.8,204893.8 -44213.9,266364.7 0,0 -107373.6,-266364.7 -173694.5,-304424.8 m 546351.5,38060.1 c 0,0 22107,122932.5 22107,204893.8 0,0 -173694.6,-163913.3 -240015.4,-225384.2"
       id="path46"
       style="fill:none;stroke:#efbb22;stroke-width:58624.15234375;stroke-opacity:1"
       inkscape:connector-curvature="0" />
    <path
       transform="matrix(1,0,0,1.0125003,0.28990097,-111152.78)"
       d="m 7291101.2,2166466.2 c 0,0 -93313.7,-81443.9 -110534.6,-163922.6 -43166.7,94651.1 -86323.8,189302.1 -129480.6,283934.6 0,0 -271665,-186409.2 -309497.1,-304424.9 -14917.5,119679.3 -63159.8,204903.1 -129480.6,242963.2 -66320.8,-94641.9 -132641.6,-189292.9 -198962.4,-283943.9 0,0 -150939.4,175577.1 -217908.5,266374.2 0,0 -139133,-147027.6 -198962.4,-245883.8 -43156.8,94651 -86313.7,189302 -129480.6,283934.5 -58951.8,-101462.6 -117893.6,-202934.5 -176855.5,-304424.9 0,0 -22106.9,184412.9 -110534.7,245883.8"
       id="path48"
       style="fill:none;stroke:#efbb22;stroke-width:58624.15234375;stroke-opacity:1"
       inkscape:connector-curvature="0" />
    <path
       transform="matrix(1,0,0,1.0125003,0.28990097,-111152.78)"
       d="m 7486902.8,2631883.7 c -35797.9,-46831.1 -71595.8,-93662.1 -107373.7,-140502.4 0,0 -22107,242954 -66320.9,301504.4 0,0 -240015.2,-181492.4 -262122.2,-321994.7 0,0 -198962.5,181483 -243176.3,242954 0,0 -172637.4,-117045.3 -195801.4,-304424.9 -45280.9,97183.3 -110534.7,324915.2 -132641.6,383465.6 0,0 -204925.4,-178793.6 -217908.5,-362975.3 -69122.7,110436.9 -132641.6,324915.3 -221069.3,362975.3 0,0 -175010.8,-168968.9 -195801.4,-383465.6 -75165.6,166399.5 -95208.4,258665.9 -176855.5,324915.2 -44213.8,-115122.8 -88427.8,-230264.3 -132641.6,-345405.5 0,0 0,163922.5 -85266.9,242953.9"
       id="path50"
       style="fill:none;stroke:#efbb22;stroke-width:58624.15234375;stroke-opacity:1"
       inkscape:connector-curvature="0" />
    <path
       transform="matrix(1,0,0,1.0125003,0.28990097,-111152.78)"
       d="m 7619544.4,3056330 c 0,0 -22107,143432.1 -110534.7,245874.4 0,0 -240015.3,-245874.4 -262122.3,-327835.7 0,0 -132641.6,286855.2 -195801.4,365895.8 -143719.9,-164939.2 -168429.4,-222907.2 -243176.3,-345405.5 0,0 -66320.8,225393.4 -129480.6,307345.4 0,0 -126808.2,-200106.3 -154748.5,-348326.1 -45300.8,112645.9 -110534.7,307345.6 -221069.4,365895.9 -87380.7,-127821.8 -174751.6,-255634.5 -262122.3,-383465.7 0,0 -110534.6,242963.3 -173694.5,304434.3 0,0 -84578.7,-118764.3 -176855.5,-324924.5 -38131.1,77312.3 -110534.7,222472.9 -154748.5,283943.8 0,0 -129480.7,-204903.1 -107373.7,-283943.8"
       id="path52"
       style="fill:none;stroke:#efbb22;stroke-width:58624.15234375;stroke-opacity:1"
       inkscape:connector-curvature="0" />
    <path
       transform="matrix(1,0,0,1.0125003,0.28990097,-111152.78)"
       d="m 6271031.2,1139029.7 c -66320.7,-70251.2 -101061.7,-117082.2 -148436.4,-196113.75 -69471.9,-122941.8 -240015.4,-38060 -378969.1,-46840.3 22107,-5850.3 41053,5859.7 41053,20490.4 0,84891.15 50535.7,187342.75 157909.6,201973.45 97900.6,11710.1 189489.3,-20490.4 284229.1,-14630.7 15784.9,0 28418.9,20490.3 44213.8,35120.9 z"
       id="path54"
       style="fill:#ffffff;fill-opacity:1;fill-rule:evenodd"
       inkscape:connector-curvature="0" />
    <g
       clip-path="url(#id0-4)"
       id="g56"
       style="fill:#efbb22;fill-opacity:1;fill-rule:evenodd"
       transform="matrix(0.99715544,0,0,0.93578938,18487.827,-66598.857)">
      <g
         id="_45709960"
         style="fill:#efbb22;fill-opacity:1">
        <path
           id="_466408241"
           d="m 5918830,1096110 c -60180,0 -107680,-50670 -107680,-110840 0,-60180 47500,-107690 107680,-107690 60170,0 107680,47510 107680,107690 0,60170 -47510,110840 -107680,110840 z"
           style="fill:#efbb22;fill-opacity:1"
           inkscape:connector-curvature="0" />
      </g>
    </g>
    <path
       transform="matrix(1,0,0,1.0125003,0.28990097,-111152.78)"
       d="m 6271031.2,1139029.7 c -66320.7,-70251.2 -101061.7,-117082.2 -148436.4,-196113.75 -69471.9,-122941.8 -240015.4,-38060 -378969.1,-46840.3 22107,-5850.3 41053,5859.7 41053,20490.4 0,84891.15 50535.7,187342.75 157909.6,201973.45 97900.6,11710.1 189489.3,-20490.4 284229.1,-14630.7 15784.9,0 28418.9,20490.3 44213.8,35120.9 z"
       id="path60"
       style="fill:none;stroke:#efbb22;stroke-width:58624.15234375;stroke-opacity:1"
       inkscape:connector-curvature="0" />
    <path
       transform="matrix(1,0,0,1.0125003,0.28990097,-111152.78)"
       d="m 5592038.2,1139029.7 c -6321.9,-49760.8 28419,-38050.8 -12634,-70251.2 0,0 -360022.9,-286855.25 -558985.3,-73171.75 0,0 266070.9,-7856.1 331923.1,162702.55 86513.1,-18041.1 171141.8,-32422.2 239696.2,-19279.6 z m -12634,-70251.2 c 97900.7,-99521.75 82115.8,-351255.95 -22106.8,-459557.95 l -5913.3,-6081.5 c -36575.5,10222.1 -57246.6,17782.3 -57246.6,17782.3 0,0 -438977.7,-40980.6 -483191.6,201982.6 0,0 483191.6,40980.6 568458.3,245874.55 z"
       id="path62"
       style="fill:#ffffff;fill-opacity:1;fill-rule:evenodd;stroke:#efbb22;stroke-width:58624.15234375;stroke-opacity:1"
       inkscape:connector-curvature="0" />
    <path
       transform="matrix(1,0,0,1.0125003,0.28990097,-111152.78)"
       d="m 8058522.1,3779332.1 c 0,0 -230542.3,-336616 0,-673241.3 0,0 -170543.5,-354185.8 -126329.6,-579579.3 41062.9,-222463.5 334765,-1085977.4 1408521.9,-1047926.6 1076918.6,38050.8 1834856.6,749352.2 2024345.6,860584.1 189489,114161.5 397925,281013.9 524245,58550.3 0,0 85267,187333.3 -18947,298565.2 -107373,108302 -233702,184412.8 -423182,108302 0,0 442129,600069.5 486343,787412.3 41053,187333.3 63160,187333.3 230542,131722.2 0,0 -22107,169772.8 -126320,187342.5 -104222,20481.1 -252649,93662.2 -356871,-55620.5 0,0 189488,412726.9 126329,655680.9 -85277,319064.8 18946,617639.3 104212,676180.4 0,0 -337916,73181 -505299,-131722.3 0,0 22108,1012796.6 315810,1328931.6 0,0 -337916,131722.2 -483182,-73181 0,0 252650,1422602.8 1452725,3486256.4 0,0 -401075,128791 -716893,-450787 0,0 -356863,111231 -631618,-450778.3 0,0 -672682,20490.4 -884268,-954255.4 0,0 -442139,93662.1 -631628.9,-523967.9 0,0 -442128.8,0 -568458.5,-582499.9 0,0 -380275.1,133413.6 -568458.3,-523967.9 -120925.1,-422440.6 -195851.2,-700450.8 -259001.1,-1449812.3 -166146.1,435000.9 -302467.2,70436 -332352,-36322.5 -117085.9,-418337 -40265.1,-1045865.7 -40265.1,-1045865.7 z"
       id="path64"
       style="fill:#ffffff;fill-opacity:1;fill-rule:evenodd;stroke:#efbb22;stroke-width:87936.21875;stroke-opacity:1"
       inkscape:connector-curvature="0" />
    <g
       style="fill-rule:evenodd"
       id="_140533680"
       transform="matrix(0.99715544,0,0,0.93578938,18487.827,-66598.857)">
      <path
         id="_103631224"
         d="M 11461300,2986880 C 11356780,2869700 10447820,1938570 9412170,1938570"
         style="fill:none;stroke:#efbb22;stroke-width:91599.8828125;stroke-opacity:1"
         inkscape:connector-curvature="0" />
      <path
         id="_105021888"
         d="m 9456500,2280620 c 0,0 861460,76010 1456870,687260 528910,547910 782280,1156000 782280,1156000"
         style="fill:none;stroke:#efbb22;stroke-width:91599.8828125;stroke-opacity:1"
         inkscape:connector-curvature="0" />
      <path
         id="_46525000"
         d="m 9497670,2606830 c 0,0 617590,139350 1076820,503570 253370,202700 677770,709440 741110,1095820 63340,383230 104510,1013480 104510,1216180"
         style="fill:none;stroke:#efbb22;stroke-width:91599.8828125;stroke-opacity:1"
         inkscape:connector-curvature="0" />
      <path
         id="_104656736"
         d="m 9538840,2986880 c 107690,41180 497240,129860 867800,427570 253360,202690 547910,608080 592250,1317520 41170,709430 -22170,1276350 253370,2049120"
         style="fill:none;stroke:#efbb22;stroke-width:91599.8828125;stroke-opacity:1"
         inkscape:connector-curvature="0" />
      <path
         id="_139206144"
         d="m 9412160,3271930 c 171020,82340 1121160,304040 1225670,1542380 107690,1235180 126690,2068130 465570,2980260 253370,680930 886790,2270820 886790,2270820"
         style="fill:none;stroke:#efbb22;stroke-width:91599.8828125;stroke-opacity:1"
         inkscape:connector-curvature="0" />
      <path
         id="_104642216"
         d="m 11356800,9577660 c 0,0 -630260,-1374530 -845620,-2248660 -253370,-1035640 -262870,-2090290 -275540,-2372170 -19000,-570080 -41170,-953300 -801280,-1238340"
         style="fill:none;stroke:#efbb22;stroke-width:91599.8828125;stroke-opacity:1"
         inkscape:connector-curvature="0" />
      <path
         id="_103540272"
         d="m 9348820,4063700 c 126680,19010 500400,142520 487730,1013480 -22170,1441040 566920,3306470 633430,3468000"
         style="fill:none;stroke:#efbb22;stroke-width:91599.8828125;stroke-opacity:1"
         inkscape:connector-curvature="0" />
      <path
         id="_103540104"
         d="m 9158790,4446930 c 85510,22170 288210,-60180 275540,649260 -22170,1136990 275540,2394340 402220,2882070"
         style="fill:none;stroke:#efbb22;stroke-width:91599.8828125;stroke-opacity:1"
         inkscape:connector-curvature="0" />
      <path
         id="_103508624"
         d="m 8886420,4956830 c 0,0 0,1133830 380050,2391180"
         style="fill:none;stroke:#efbb22;stroke-width:91599.8828125;stroke-opacity:1"
         inkscape:connector-curvature="0" />
    </g>
    <path
       transform="matrix(1,0,0,1.0125003,0.28990097,-111152.78)"
       d="m 7764819.9,4247679.5 c 0,0 208435.5,-655680.7 587404.4,-728861.8 0,0 -63159.9,-319055.6 230542.3,-488837.7 0,0 -271595.2,-333695.5 -208435.4,-597139.7 63159.9,-260514.6 183167.5,-649830.6 735840.9,-749352.3 185131.9,-33291 181861.2,-82922.4 167352.6,-200947.4 15196.7,-3410.4 9931.6,-4732.1 63189.7,-3955.7 22765.2,172009.5 44213.9,412726.9 85266.7,544449 41053,128801.5 189489.5,913274.6 -22106.9,1045006.1 0,0 85266.8,506398.3 -18945.9,676171.2 -107373.7,166852.3 -211596.3,447857 -378978.9,485907.9 0,0 -44213.9,676180.5 -757947.8,676180.5 l -12624,-105381.6 -470557.7,-553238.5 z"
       id="path76"
       style="fill:#efbb22;fill-opacity:1;fill-rule:evenodd"
       inkscape:connector-curvature="0" />
    <g
       style="fill-rule:evenodd"
       id="_105015632"
       transform="matrix(0.99715544,0,0,0.93578938,18487.827,-66598.857)">
      <path
         id="_46103624"
         d="M 1538700,2986880 C 1643220,2869700 2552180,1938570 3587830,1938570"
         style="fill:none;stroke:#efbb22;stroke-width:91599.8828125;stroke-opacity:1"
         inkscape:connector-curvature="0" />
      <path
         id="_104746024"
         d="m 3543490,2280620 c 0,0 -861460,76010 -1456870,687260 -528910,547910 -782280,1156000 -782280,1156000"
         style="fill:none;stroke:#efbb22;stroke-width:91599.8828125;stroke-opacity:1"
         inkscape:connector-curvature="0" />
      <path
         id="_139342672"
         d="m 3502320,2606830 c 0,0 -617590,139350 -1076820,503570 -253370,202700 -677770,709440 -741110,1095820 -63340,383230 -104510,1013480 -104510,1216180"
         style="fill:none;stroke:#efbb22;stroke-width:91599.8828125;stroke-opacity:1"
         inkscape:connector-curvature="0" />
      <path
         id="_139342608"
         d="m 3461150,2986880 c -107690,41180 -497240,129860 -867790,427570 -253370,202690 -547920,608080 -592260,1317520 -41170,709430 22170,1276350 -253370,2049120"
         style="fill:none;stroke:#efbb22;stroke-width:91599.8828125;stroke-opacity:1"
         inkscape:connector-curvature="0" />
      <path
         id="_105551120"
         d="m 3587830,3271930 c -171020,82340 -1121160,304040 -1225670,1542380 -107690,1235180 -126690,2068130 -465570,2980260 -253370,680930 -886790,2270820 -886790,2270820"
         style="fill:none;stroke:#efbb22;stroke-width:91599.8828125;stroke-opacity:1"
         inkscape:connector-curvature="0" />
      <path
         id="_105551040"
         d="m 1643220,9577660 c 0,0 630260,-1374530 845620,-2248660 253370,-1035640 262870,-2090290 275540,-2372170 19000,-570080 41170,-953300 801280,-1238340"
         style="fill:none;stroke:#efbb22;stroke-width:91599.8828125;stroke-opacity:1"
         inkscape:connector-curvature="0" />
      <path
         id="_102259512"
         d="m 3651170,4063700 c -126680,19010 -500400,142520 -487730,1013480 22170,1441040 -566920,3306470 -633430,3468000"
         style="fill:none;stroke:#efbb22;stroke-width:91599.8828125;stroke-opacity:1"
         inkscape:connector-curvature="0" />
      <path
         id="_99299256"
         d="m 3841200,4446930 c -85510,22170 -288210,-60180 -275540,649260 22170,1136990 -275540,2394340 -402220,2882070"
         style="fill:none;stroke:#efbb22;stroke-width:91599.8828125;stroke-opacity:1"
         inkscape:connector-curvature="0" />
      <path
         id="_105015672"
         d="m 4113570,4956830 c 0,0 0,1133830 -380050,2391180"
         style="fill:none;stroke:#efbb22;stroke-width:91599.8828125;stroke-opacity:1"
         inkscape:connector-curvature="0" />
    </g>
    <path
       transform="matrix(1,0,0,1.0125003,0.28990097,-111152.78)"
       d="m 10404958,10233708 c -31579,0 -56847,-23420 -56847,-55620 0,-29271 25268,-52683 56847,-52683 31580,0 56838,23412 56838,52683 0,32200 -25258,55620 -56838,55620 z"
       id="path88"
       style="fill:#1f1a17;fill-rule:evenodd;stroke:#1f1a17;stroke-width:7315.22802734"
       inkscape:connector-curvature="0" />
    <g
       style="fill-rule:evenodd"
       id="_47344672"
       transform="matrix(0.99715544,0,0,0.93578938,18487.827,-66598.857)">
      <path
         id="_47639088"
         d="m 10786700,9878530 c 88680,88680 221700,288210 266040,395890 41170,110850 63340,310380 -155190,639760 -221700,329380 -373720,395890 -373720,614420"
         style="fill:none;stroke:#efbb22;stroke-width:61066.58984375;stroke-opacity:1"
         inkscape:connector-curvature="0" />
      <path
         id="_99394064"
         d="m 11755800,10451800 c -110850,-44340 -395890,-88680 -506740,462400"
         style="fill:none;stroke:#efbb22;stroke-width:53340;stroke-opacity:1"
         inkscape:connector-curvature="0" />
      <path
         id="_100301656"
         d="m 11071700,10385300 c -107680,-129850 -174190,-110850 -525740,266040 -351550,373720 -351550,351550 -484570,459230"
         style="fill:none;stroke:#efbb22;stroke-width:61066.58984375;stroke-opacity:1"
         inkscape:connector-curvature="0" />
    </g>
    <g
       style="fill-rule:evenodd"
       id="_100125792"
       transform="matrix(0.99715544,0,0,0.93578938,18487.827,-66598.857)">
      <path
         id="_47344584"
         d="m 2156290,9900700 c -85510,88680 -209030,253370 -250200,364220 -44340,110850 -66510,307210 152020,636590 221700,332550 373720,395890 373720,617590"
         style="fill:none;stroke:#efbb22;stroke-width:61066.58984375;stroke-opacity:1"
         inkscape:connector-curvature="0" />
      <path
         id="_46467312"
         d="m 1199820,10442300 c 110850,-44340 395890,-88680 506740,459230"
         style="fill:none;stroke:#efbb22;stroke-width:61066.58984375;stroke-opacity:1"
         inkscape:connector-curvature="0" />
      <path
         id="_102379224"
         d="m 1883920,10375800 c 107680,-133020 174190,-110850 525740,262870 351550,373720 351550,351550 484570,462400"
         style="fill:none;stroke:#efbb22;stroke-width:61066.58984375;stroke-opacity:1"
         inkscape:connector-curvature="0" />
    </g>
    <path
       transform="matrix(1,0,0,1.0125003,0.28990097,-111152.78)"
       d="m 5238327.2,4247679.5 c 0,0 -208435.4,-655680.7 -587404.3,-728861.8 0,0 63159.8,-319055.6 -230542.4,-488837.7 0,0 271595.2,-333695.5 208435.5,-597139.7 -63159.8,-260514.6 -183167.5,-649830.6 -735840.9,-749352.3 -185131.9,-33291 -181861.2,-82922.4 -167352.7,-200947.4 -15196.6,-3410.4 -9931.6,-4732.1 -63189.7,-3955.7 -22765,172009.5 -44213.8,412726.9 -85266.7,544449 -41052.8,128801.5 -189489.5,913274.6 22107,1045006.1 0,0 -85266.8,506398.3 18945.9,676171.2 107373.6,166852.3 211596.4,447857 378978.8,485907.9 0,0 44214,676180.5 757947.8,676180.5 l 12624.1,-105381.6 470557.6,-553238.5 z"
       id="path98"
       style="fill:#efbb22;fill-opacity:1;fill-rule:evenodd"
       inkscape:connector-curvature="0" />
    <g
       style="fill:#ffffff;fill-rule:evenodd"
       id="_104435904"
       transform="matrix(0.99715544,0,0,0.93578938,18487.827,-66598.857)">
      <g
         style="fill:#ffffff"
         id="g101">
        <path
           id="_103560856"
           d="m 10875400,10584800 c 41170,-57010 66510,-186860 -66510,-297710 -107680,-88680 -152020,-98180 -174190,-142520 0,0 -66510,152020 -12670,285040 25340,60180 120350,329380 253370,155190 z"
           style="fill:#ffffff;fill-opacity:1;stroke:#efbb22;stroke-width:61066.58984375;stroke-opacity:1"
           inkscape:connector-curvature="0" />
        <path
           id="_102668768"
           d="m 10698000,10825500 c 47510,-50670 60180,-158350 -38010,-259700 -104510,-101350 -253360,-72850 -281870,-114020 -28500,-41170 3170,199530 38010,288210 0,0 161520,218530 281870,85510 z"
           style="fill:#ffffff;fill-opacity:1;stroke:#efbb22;stroke-width:61066.58984375;stroke-opacity:1"
           inkscape:connector-curvature="0" />
        <path
           id="_102631856"
           d="m 10466800,11047200 c 53840,-47510 28500,-199530 -82340,-285040 -114020,-91850 -190030,-85510 -228040,-117180 -50670,-38010 -72840,215360 15840,310370 91840,98180 218530,155190 294540,91850 z"
           style="fill:#ffffff;fill-opacity:1;stroke:#efbb22;stroke-width:61066.58984375;stroke-opacity:1"
           inkscape:connector-curvature="0" />
      </g>
      <g
         style="fill:#ffffff"
         id="g106">
        <path
           id="_103653024"
           d="m 2520510,11025000 c -104510,-72840 57010,-250200 60180,-253370 117180,-91850 266030,-79180 297710,-114020 31670,-38000 -15840,212200 -72850,297710 0,0 -142520,167860 -285040,69680 z"
           style="fill:#ffffff;fill-opacity:1;stroke:#efbb22;stroke-width:61066.58984375;stroke-opacity:1"
           inkscape:connector-curvature="0" />
        <path
           id="_102928352"
           d="m 2102450,10607000 c -88680,-66510 -44340,-313540 88680,-351550 76010,-22170 133020,-44340 152020,-88680 22170,-44340 -9500,186860 -9500,253370 0,63340 -110850,275540 -231200,186860 z"
           style="fill:#ffffff;fill-opacity:1;stroke:#efbb22;stroke-width:61066.58984375;stroke-opacity:1"
           inkscape:connector-curvature="0" />
        <path
           id="_105874096"
           d="m 2289310,10803300 c -6330,-6330 -85510,-133020 28510,-247030 104510,-104520 240700,-142520 269200,-183700 28500,-38000 34840,240700 6340,300880 69670,-145690 -95020,338880 -304050,129850 z"
           style="fill:#ffffff;fill-opacity:1;stroke:#efbb22;stroke-width:61066.58984375;stroke-opacity:1"
           inkscape:connector-curvature="0" />
      </g>
    </g>
    <path
       transform="matrix(0.99715544,0,0,0.93578938,18487.827,-66598.857)"
       id="_103806952"
       d="m 8686890,8009930 c 0,0 519410,-291370 297710,-440230 -199530,-129850 -319880,231200 -297710,440230 z"
       style="fill:#ffffff;fill-opacity:1;fill-rule:evenodd;stroke:#efbb22;stroke-width:61066.58984375;stroke-opacity:1"
       inkscape:connector-curvature="0" />
    <path
       transform="matrix(0.99715544,0,0,0.93578938,18487.827,-66598.857)"
       id="_104449368"
       d="m 8544370,8275970 c 0,0 380050,-452900 34840,-734770 0,0 -278710,250200 -34840,734770 z"
       style="fill:#ffffff;fill-opacity:1;fill-rule:evenodd;stroke:#efbb22;stroke-width:61066.58984375;stroke-opacity:1"
       inkscape:connector-curvature="0" />
    <path
       transform="matrix(0.99715544,0,0,0.93578938,18487.827,-66598.857)"
       id="_104645832"
       d="m 8544370,8275970 c 0,0 95010,-456060 608090,-389550 0,0 -164690,475060 -608090,389550 z"
       style="fill:#ffffff;fill-opacity:1;fill-rule:evenodd;stroke:#efbb22;stroke-width:61066.58984375;stroke-opacity:1"
       inkscape:connector-curvature="0" />
    <path
       transform="matrix(0.99715544,0,0,0.93578938,18487.827,-66598.857)"
       id="_103805496"
       d="m 8446190,8538840 c 0,0 47510,-433890 554240,-367380 0,0 -60170,332540 -554240,367380 z"
       style="fill:#ffffff;fill-opacity:1;fill-rule:evenodd;stroke:#efbb22;stroke-width:61066.58984375;stroke-opacity:1"
       inkscape:connector-curvature="0" />
    <path
       transform="matrix(0.99715544,0,0,0.93578938,18487.827,-66598.857)"
       id="_101932816"
       d="m 8411350,8526170 c 0,0 357890,-418060 12670,-699930 0,0 -300880,310380 -12670,699930 z"
       style="fill:#ffffff;fill-opacity:1;fill-rule:evenodd;stroke:#efbb22;stroke-width:61066.58984375;stroke-opacity:1"
       inkscape:connector-curvature="0" />
    <path
       transform="matrix(0.99715544,0,0,0.93578938,18487.827,-66598.857)"
       id="_103627632"
       d="m 8300500,8757370 c 0,0 60180,-389550 566920,-323040 0,0 -120350,411720 -566920,323040 z"
       style="fill:#ffffff;fill-opacity:1;fill-rule:evenodd;stroke:#efbb22;stroke-width:61066.58984375;stroke-opacity:1"
       inkscape:connector-curvature="0" />
    <path
       transform="matrix(0.99715544,0,0,0.93578938,18487.827,-66598.857)"
       id="_99049696"
       d="m 8281500,8792210 c 0,0 357880,-421220 12670,-703100 0,0 -278710,250200 -12670,703100 z"
       style="fill:#ffffff;fill-opacity:1;fill-rule:evenodd;stroke:#efbb22;stroke-width:61066.58984375;stroke-opacity:1"
       inkscape:connector-curvature="0" />
    <path
       transform="matrix(0.99715544,0,0,0.93578938,18487.827,-66598.857)"
       id="_104486544"
       d="m 8113640,9032910 c 0,0 370550,-399050 25340,-677760 0,0 -285040,215360 -25340,677760 z"
       style="fill:#ffffff;fill-opacity:1;fill-rule:evenodd;stroke:#efbb22;stroke-width:61066.58984375;stroke-opacity:1"
       inkscape:connector-curvature="0" />
    <path
       transform="matrix(0.99715544,0,0,0.93578938,18487.827,-66598.857)"
       id="_101206832"
       d="m 8113640,9032910 c 0,0 91850,-399050 598590,-332540 0,0 -152020,421220 -598590,332540 z"
       style="fill:#ffffff;fill-opacity:1;fill-rule:evenodd;stroke:#efbb22;stroke-width:61066.58984375;stroke-opacity:1"
       inkscape:connector-curvature="0" />
    <path
       transform="matrix(0.99715544,0,0,0.93578938,18487.827,-66598.857)"
       id="_101206728"
       d="m 7971120,9286280 c 0,0 79180,-386390 633430,-367380 0,0 -186860,452890 -633430,367380 z"
       style="fill:#ffffff;fill-opacity:1;fill-rule:evenodd;stroke:#efbb22;stroke-width:61066.58984375;stroke-opacity:1"
       inkscape:connector-curvature="0" />
    <path
       transform="matrix(0.99715544,0,0,0.93578938,18487.827,-66598.857)"
       id="_101024624"
       d="m 7939450,9264110 c 0,0 361050,-218530 57010,-690430 0,0 -218530,205860 -57010,690430 z"
       style="fill:#ffffff;fill-opacity:1;fill-rule:evenodd;stroke:#efbb22;stroke-width:61066.58984375;stroke-opacity:1"
       inkscape:connector-curvature="0" />
    <path
       transform="matrix(0.99715544,0,0,0.93578938,18487.827,-66598.857)"
       id="_101024416"
       d="m 7743090,9517480 c 0,0 126680,-357880 630260,-291370 0,0 -104520,357880 -630260,291370 z"
       style="fill:#ffffff;fill-opacity:1;fill-rule:evenodd;stroke:#efbb22;stroke-width:61066.58984375;stroke-opacity:1"
       inkscape:connector-curvature="0" />
    <path
       transform="matrix(0.99715544,0,0,0.93578938,18487.827,-66598.857)"
       id="_46828048"
       d="m 7743090,9517480 c 0,0 433890,-376890 91850,-655590 0,0 -310380,193190 -91850,655590 z"
       style="fill:#ffffff;fill-opacity:1;fill-rule:evenodd;stroke:#efbb22;stroke-width:61066.58984375;stroke-opacity:1"
       inkscape:connector-curvature="0" />
    <path
       transform="matrix(0.99715544,0,0,0.93578938,18487.827,-66598.857)"
       id="_104761152"
       d="m 7448550,9748680 c 0,0 262870,-351550 753770,-259700 0,0 -348380,361050 -753770,259700 z"
       style="fill:#ffffff;fill-opacity:1;fill-rule:evenodd;stroke:#efbb22;stroke-width:61066.58984375;stroke-opacity:1"
       inkscape:connector-curvature="0" />
    <path
       transform="matrix(0.99715544,0,0,0.93578938,18487.827,-66598.857)"
       id="_46069120"
       d="m 7448550,9748680 c 0,0 468730,-155190 199530,-668260 0,0 -212200,50670 -199530,668260 z"
       style="fill:#ffffff;fill-opacity:1;fill-rule:evenodd;stroke:#efbb22;stroke-width:61066.58984375;stroke-opacity:1"
       inkscape:connector-curvature="0" />
    <path
       transform="matrix(0.99715544,0,0,0.93578938,18487.827,-66598.857)"
       id="_46255968"
       d="m 7249020,9945040 c 0,0 224860,-370550 690430,-240700 0,0 -262870,389560 -690430,240700 z"
       style="fill:#ffffff;fill-opacity:1;fill-rule:evenodd;stroke:#efbb22;stroke-width:61066.58984375;stroke-opacity:1"
       inkscape:connector-curvature="0" />
    <path
       transform="matrix(0.99715544,0,0,0.93578938,18487.827,-66598.857)"
       id="_103542464"
       d="m 7249020,9945040 c 0,0 475070,-335710 171020,-661920 0,0 -304040,136180 -171020,661920 z"
       style="fill:#ffffff;fill-opacity:1;fill-rule:evenodd;stroke:#efbb22;stroke-width:61066.58984375;stroke-opacity:1"
       inkscape:connector-curvature="0" />
    <path
       transform="matrix(0.99715544,0,0,0.93578938,18487.827,-66598.857)"
       id="_105750120"
       d="m 6986150,10211100 c 0,0 525740,-345220 250200,-696770 0,0 -338880,145690 -250200,696770 z"
       style="fill:#ffffff;fill-opacity:1;fill-rule:evenodd;stroke:#efbb22;stroke-width:61066.58984375;stroke-opacity:1"
       inkscape:connector-curvature="0" />
    <path
       transform="matrix(0.99715544,0,0,0.93578938,18487.827,-66598.857)"
       id="_105351176"
       d="m 6986150,10211100 c 0,0 209030,-427560 731600,-231200 0,0 -300870,424390 -731600,231200 z"
       style="fill:#ffffff;fill-opacity:1;fill-rule:evenodd;stroke:#efbb22;stroke-width:61066.58984375;stroke-opacity:1"
       inkscape:connector-curvature="0" />
    <path
       transform="matrix(0.99715544,0,0,0.93578938,18487.827,-66598.857)"
       id="_101931704"
       d="m 6678940,10474000 c 0,0 525740,-307210 285040,-680930 0,0 -307210,129850 -285040,680930 z"
       style="fill:#ffffff;fill-opacity:1;fill-rule:evenodd;stroke:#efbb22;stroke-width:61066.58984375;stroke-opacity:1"
       inkscape:connector-curvature="0" />
    <path
       transform="matrix(0.99715544,0,0,0.93578938,18487.827,-66598.857)"
       id="_47332864"
       d="m 6720110,10451800 c 0,0 266040,-395890 728440,-177360 0,0 -332550,395890 -728440,177360 z"
       style="fill:#ffffff;fill-opacity:1;fill-rule:evenodd;stroke:#efbb22;stroke-width:61066.58984375;stroke-opacity:1"
       inkscape:connector-curvature="0" />
    <path
       transform="matrix(0.99715544,0,0,0.93578938,18487.827,-66598.857)"
       id="_105891832"
       d="m 6523750,10651300 c 0,0 440230,-266040 196360,-639760 0,0 -351550,177360 -196360,639760 z"
       style="fill:#ffffff;fill-opacity:1;fill-rule:evenodd;stroke:#efbb22;stroke-width:61066.58984375;stroke-opacity:1"
       inkscape:connector-curvature="0" />
    <path
       transform="matrix(0.99715544,0,0,0.93578938,18487.827,-66598.857)"
       id="_47370536"
       d="m 6523750,10651300 c 0,0 174190,-354720 636590,-133020 0,0 -240700,351550 -636590,133020 z"
       style="fill:#ffffff;fill-opacity:1;fill-rule:evenodd;stroke:#efbb22;stroke-width:61066.58984375;stroke-opacity:1"
       inkscape:connector-curvature="0" />
    <g
       transform="matrix(1,0,0,1.0125003,0.28990097,-111152.78)"
       style="fill:#ffffff;fill-rule:evenodd"
       id="g137">
      <path
         id="_102614544"
         d="m 4297212,7447071 c 0,0 -517932.5,-269294.8 -296863.2,-406876.5 198962.4,-120012.2 318970.1,213683.3 296863.2,406876.5 z"
         style="fill:#ffffff;fill-opacity:1;stroke:#efbb22;stroke-width:58624.15234375;stroke-opacity:1"
         inkscape:connector-curvature="0" />
      <path
         id="_102614440"
         d="m 4439326.6,7692954.8 c 0,0 -378969.1,-418586.6 -34741,-679101 0,0 277917.3,231243.8 34741,679101 z"
         style="fill:#ffffff;fill-opacity:1;stroke:#efbb22;stroke-width:58624.15234375;stroke-opacity:1"
         inkscape:connector-curvature="0" />
      <path
         id="_46829752"
         d="m 4439326.6,7692954.8 c 0,0 -94739.8,-421507.2 -606360.3,-360036.3 0,0 164221.4,439067.7 606360.3,360036.3 z"
         style="fill:#ffffff;fill-opacity:1;stroke:#efbb22;stroke-width:58624.15234375;stroke-opacity:1"
         inkscape:connector-curvature="0" />
      <path
         id="_46177608"
         d="m 4537227.2,7935908.8 c 0,0 -47374.8,-401016.9 -552663.4,-339546 0,0 59998.8,307345.6 552663.4,339546 z"
         style="fill:#ffffff;fill-opacity:1;stroke:#efbb22;stroke-width:58624.15234375;stroke-opacity:1"
         inkscape:connector-curvature="0" />
      <path
         id="_104377952"
         d="m 4571968.2,7924198.7 c 0,0 -356862.1,-386386.3 -12634.1,-646900.7 0,0 300024.2,286864.4 12634.1,646900.7 z"
         style="fill:#ffffff;fill-opacity:1;stroke:#efbb22;stroke-width:58624.15234375;stroke-opacity:1"
         inkscape:connector-curvature="0" />
      <path
         id="_105639712"
         d="m 4682502.9,8137882.1 c 0,0 -60008.9,-360036.2 -565307.4,-298565.3 0,0 120017.5,380526.4 565307.4,298565.3 z"
         style="fill:#ffffff;fill-opacity:1;stroke:#efbb22;stroke-width:58624.15234375;stroke-opacity:1"
         inkscape:connector-curvature="0" />
      <path
         id="_106411920"
         d="m 4704609.7,8170082.4 c 0,0 -360022.9,-389306.8 -15794.9,-649830.3 0,0 277917.2,231243.8 15794.9,649830.3 z"
         style="fill:#ffffff;fill-opacity:1;stroke:#efbb22;stroke-width:58624.15234375;stroke-opacity:1"
         inkscape:connector-curvature="0" />
      <path
         id="_105260896"
         d="m 4868831.2,8392546 c 0,0 -369495.8,-368816.5 -25267.8,-626410.3 0,0 287390.2,199043.5 25267.8,626410.3 z"
         style="fill:#ffffff;fill-opacity:1;stroke:#efbb22;stroke-width:58624.15234375;stroke-opacity:1"
         inkscape:connector-curvature="0" />
      <path
         id="_105260640"
         d="m 4868831.2,8392546 c 0,0 -91588.6,-368816.5 -596887.2,-307345.4 0,0 151587.6,389306.7 596887.2,307345.4 z"
         style="fill:#ffffff;fill-opacity:1;stroke:#efbb22;stroke-width:58624.15234375;stroke-opacity:1"
         inkscape:connector-curvature="0" />
      <path
         id="_104931024"
         d="m 5010945.9,8626719.8 c 0,0 -78954.8,-357115.5 -631618.2,-339545.9 0,0 186328.5,418577.4 631618.2,339545.9 z"
         style="fill:#ffffff;fill-opacity:1;stroke:#efbb22;stroke-width:58624.15234375;stroke-opacity:1"
         inkscape:connector-curvature="0" />
      <path
         id="_104930944"
         d="m 5042525.9,8606229.5 c 0,0 -360023,-201973.4 -56848,-638120.5 0,0 221069.3,190263.3 56848,638120.5 z"
         style="fill:#ffffff;fill-opacity:1;stroke:#efbb22;stroke-width:58624.15234375;stroke-opacity:1"
         inkscape:connector-curvature="0" />
      <path
         id="_103620080"
         d="m 5241488.2,8840403.1 c 0,0 -126329.6,-330765.6 -631628.2,-269294.6 0,0 104222.7,330765.7 631628.2,269294.6 z"
         style="fill:#ffffff;fill-opacity:1;stroke:#efbb22;stroke-width:58624.15234375;stroke-opacity:1"
         inkscape:connector-curvature="0" />
      <path
         id="_103619976"
         d="m 5241488.2,8840403.1 c 0,0 -435816.8,-348335.3 -91588.7,-605919.9 0,0 309497.1,178553.1 91588.7,605919.9 z"
         style="fill:#ffffff;fill-opacity:1;stroke:#efbb22;stroke-width:58624.15234375;stroke-opacity:1"
         inkscape:connector-curvature="0" />
      <path
         id="_103606272"
         d="m 5535190.4,9054086.6 c 0,0 -262122.3,-324915.2 -754786.9,-240024.2 0,0 350550.1,333695.6 754786.9,240024.2 z"
         style="fill:#ffffff;fill-opacity:1;stroke:#efbb22;stroke-width:58624.15234375;stroke-opacity:1"
         inkscape:connector-curvature="0" />
      <path
         id="_104403680"
         d="m 5535190.4,9054086.6 c 0,0 -470557.7,-143432.3 -198962.4,-617630.2 0,0 211596.3,46831.1 198962.4,617630.2 z"
         style="fill:#ffffff;fill-opacity:1;stroke:#efbb22;stroke-width:58624.15234375;stroke-opacity:1"
         inkscape:connector-curvature="0" />
      <path
         id="_100012624"
         d="m 5734152.8,9235569 c 0,0 -224230.3,-342475.2 -691626.9,-222463.1 0,0 265283.1,360045.1 691626.9,222463.1 z"
         style="fill:#ffffff;fill-opacity:1;stroke:#efbb22;stroke-width:58624.15234375;stroke-opacity:1"
         inkscape:connector-curvature="0" />
      <path
         id="_100127104"
         d="m 5734152.8,9235569 c 0,0 -473718.6,-310274.7 -170543.5,-611769.8 0,0 303185.1,125862.5 170543.5,611769.8 z"
         style="fill:#ffffff;fill-opacity:1;stroke:#efbb22;stroke-width:58624.15234375;stroke-opacity:1"
         inkscape:connector-curvature="0" />
      <path
         id="_100126896"
         d="m 5996275,9481472 c 0,0 -524244.5,-319065 -249488.3,-643980.2 0,0 337916.1,134652 249488.3,643980.2 z"
         style="fill:#ffffff;fill-opacity:1;stroke:#efbb22;stroke-width:58624.15234375;stroke-opacity:1"
         inkscape:connector-curvature="0" />
      <path
         id="_46386328"
         d="m 5996275,9481472 c 0,0 -208435.4,-395166.5 -729518.8,-213684 0,0 300014,392236 729518.8,213684 z"
         style="fill:#ffffff;fill-opacity:1;stroke:#efbb22;stroke-width:58624.15234375;stroke-opacity:1"
         inkscape:connector-curvature="0" />
      <path
         id="_46386224"
         d="m 6302611.2,9724453 c 0,0 -524244.5,-283935 -284229.2,-629339.6 0,0 306336.1,120011.6 284229.2,629339.6 z"
         style="fill:#ffffff;fill-opacity:1;stroke:#efbb22;stroke-width:58624.15234375;stroke-opacity:1"
         inkscape:connector-curvature="0" />
      <path
         id="_47111216"
         d="m 6261558.2,9703935 c 0,0 -265283.2,-365895 -726367.8,-163922 0,0 331604,365895 726367.8,163922 z"
         style="fill:#ffffff;fill-opacity:1;stroke:#efbb22;stroke-width:58624.15234375;stroke-opacity:1"
         inkscape:connector-curvature="0" />
      <path
         id="_47502104"
         d="m 6457359.8,9888320 c 0,0 -438977.8,-245884 -195801.6,-591289 0,0 350550.1,163923 195801.6,591289 z"
         style="fill:#ffffff;fill-opacity:1;stroke:#efbb22;stroke-width:58624.15234375;stroke-opacity:1"
         inkscape:connector-curvature="0" />
      <path
         id="_45802712"
         d="m 6457359.8,9888320 c 0,0 -173694.6,-327845 -634779.3,-122941 0,0 240015.3,324915 634779.3,122941 z"
         style="fill:#ffffff;fill-opacity:1;stroke:#efbb22;stroke-width:58624.15234375;stroke-opacity:1"
         inkscape:connector-curvature="0" />
    </g>
    <path
       transform="matrix(1,0,0,1.0125003,0.28990097,-111152.78)"
       d="m 5500170.3,3520305.7 -929458.5,1137531.4 c -257665,1552356.3 444751.2,2914745 1930921.6,3791771.3 1484305.8,-877506.9 2185106.7,-2240561 1927641,-3791771.3 l -926187.7,-1137531.4 -2002916.4,0 z"
       id="path166"
       style="fill:#ffffff;fill-opacity:1;fill-rule:evenodd;stroke:#efbb22;stroke-width:117248.3046875;stroke-opacity:1"
       inkscape:connector-curvature="0" />
    <path
       transform="matrix(1,0,0,1.0125003,0.28990097,-111152.78)"
       d="M 5644169.6,3820608.5 4842346.9,4797369 C 4624009.7,6131541 5223619.2,7297307.7 6501633.4,8052233.1 7777782.9,7296817.9 8375797,6130394.9 8157639.4,4797369 l -798552,-976760.5 -1714917.8,0 z"
       id="path168"
       style="fill:#efbb22;fill-opacity:1;fill-rule:evenodd;stroke:#efbb22;stroke-width:51206.59765625;stroke-opacity:1"
       inkscape:connector-curvature="0" />
    <path
       transform="matrix(1,0,0,1.0125003,0.28990097,-111152.78)"
       d="M 6479466.7,11553887 C 4350898.8,11533397 2904485,10312767 2904485,10312767 c -22107,81962 -461084.7,386386 -461084.7,386386 0,0 -44214,172703 -284229.2,81961 -322121,-120012 -438977.7,-649831 -438977.7,-649831 0,61472 -527405.5,263446 -527405.5,263446 22107,-181484 22107,-304426 0,-506400 -22106.9,-204902 -41052.8,-184412 416870.9,-632270 461084.7,-447856.2 527405.4,-20490 571619.2,-81961 0,0 44213.9,-58540 195801.5,-181482.4 154748.6,-122941.9 593726.3,-509328.1 900062.4,-201973.2 1367459,1355281.6 2829667.8,1402112.6 3202324.8,1402112.6 372656.8,0 1831704.7,-46831 3199163.7,-1402112.6 306336.2,-307354.9 745314.6,79031.3 900063.6,201973.2 151587,122942.4 195800,181482.4 195800,181482.4 44214,61471 110535,-365895.2 571620,81961 461085,447858 438978,427368 416871,632270 -22107,201974 -22107,324916 0,506400 0,0 -527405,-201974 -527405,-263446 0,0 -113696,538600 -438978,649831 -208436,70252 -284230,-81961 -284230,-81961 0,0 -438977,-304424 -461084,-386386 0,0 -1446414.4,1261610 -3571821.3,1241120 z"
       id="path170"
       style="fill:none;stroke:#efbb22;stroke-width:58624.15234375;stroke-opacity:1"
       inkscape:connector-curvature="0" />
    <path
       id="path2310"
       style="fill:#efbb22;fill-opacity:1"
       d="m 4981097.9,11012110 c 30056.7,-22664 35784.2,-43975 19190.4,-71398 -17240.8,-28490 -48000.6,-35046 -77592.7,-16534 -31250,19549 -35478.3,38532 -15818.3,71020 20575.4,34003 44366.3,39425 74220.6,16912 z"
       inkscape:connector-curvature="0" />
    <path
       id="path2300"
       style="fill:#efbb22;fill-opacity:1"
       d="m 6436870.5,11265646 c -1174,-9792 -14965,-37675 -74394.7,-54473 l -87899.5,-4194 8874.3,-34216 8873.6,-34217 171530.9,14309 c 59778.4,-171558 31769.1,-216278 -83895.6,-316456 -43775.5,-27959 -124998.8,-51868 -129774.7,-53130 l -44308.2,229075 -111045.8,-24758 c -19493.9,-111373 -36820.9,-151566 -92397.5,-190795 -21946.8,-22746 -25648.6,-33868 -21851.8,-65656 3609.4,-30197 -924.2,-45863 -21489.1,-74255 -14335.2,-19791 -30784.1,-37224 -36554.2,-38742 -7086.4,-1864 -16871.1,18453 -30150.9,62605 l -19660.7,65364 -34321.7,-612 c -51193.5,-892 -105581.1,38295 -134592.5,96988 -12897.6,26091 -26115.6,51896 -29374.1,57345 l -215014,-72067 -44776.5,-70401 c -24627.6,-38721 -45435.9,-70565 -46239.6,-70765 -805.6,-183 -34589.1,17995 -75077.4,40437 l -73616.7,40804 -120676.3,-30167 c -66371.1,-16592 -121968.9,-34212 -123549.5,-39154 -2797.6,-8744 69818.2,-67910 101002.6,-82295 8552.7,-3949 26864.4,-3466 40693.8,1064 21856.8,7161 26350.5,5117 34371.1,-15605 14901.6,-38505 10881.9,-65503 -12834.6,-86198 -48237.3,-42092 -88263.5,-28732 -175472.3,58570 -31477.4,31512 -74862,66114 -96409.7,76892 -38158.4,19088 -41011.6,19071 -109723.8,-673 l -70545.6,-20269 52213.2,-219221 c 28717.2,-120570 50683.3,-225750 48814.9,-233733 -4789.6,-20463 -52590.4,-69527 -64237.3,-65936 -5882.4,1815 -38824.7,115333 -83875.4,289047 -71228.8,274654 -73669.2,286916 -61198.6,307524 12487.4,20635 24606.3,24368 313501.8,96589 295194.4,73795 300624.8,75489 306856.3,95685 3490.7,11309 18976.2,31576 34416.7,45039 48390.3,42193 106545.9,46716 166865.3,12973 l 33193.4,-18568 c 0,0 209358.2,72878 399962.5,110576 195265.3,38620 354689.6,62423 354689.6,62423 l -9901.5,56732 c -15125.8,178187 243137.9,167659 258999.8,96503 z"
       inkscape:connector-curvature="0" />
    <path
       id="path2298"
       style="fill:#ffffff;fill-opacity:1"
       d="m 5292477.2,10871920 c -18704.6,-30910 4046.5,-57546 41212.7,-48254 16425.2,4108 32301,30533 28092.1,46763 -2316.8,8937 -36012.8,24126 -47275,21311 -6503.2,-1626 -16417.1,-10545 -22029.8,-19820 z"
       inkscape:connector-curvature="0" />
    <path
       id="path2296"
       style="fill:#ffffff;fill-opacity:1"
       d="m 6318828.3,10977982 c 5045.6,-27656 10650.2,-37553 22022.3,-38866 27449.5,-3173 61158.1,70976 40968.5,90117 -4059,3851 -21416.5,2243 -38569.3,-3577 -30128.5,-10213 -30957.2,-11830 -24421.5,-47676 z"
       inkscape:connector-curvature="0" />
    <path
       id="path2294"
       style="fill:#ffffff;fill-opacity:1"
       d="m 5936372,10925693 c 2160.6,-18791 8668.1,-37284 14455.7,-41097 14984.6,-9873 47321.2,44583 42060.1,70830 -3690.6,18403 -7599.8,19937 -32322.3,12682 -25870.9,-7591 -27811.1,-10993 -24193.5,-42415 z"
       inkscape:connector-curvature="0" />
    <path
       id="path2292"
       style="fill:#ffffff;fill-opacity:1"
       d="m 5785140,10903943 c 2860.1,-28921 37016.4,-57590 52169,-43789 9171.5,8354 -630.7,70086 -12352.5,77811 -4115.3,2708 -15357.5,2225 -24981.7,-1082 -12534.9,-4304 -16743.7,-13650 -14834.8,-32944 z"
       inkscape:connector-curvature="0" />
    <path
       id="path2290"
       style="fill:#efbb22;fill-opacity:1"
       d="m 9486774.9,10139684 c 16104.1,-29596 13513.3,-88787 -4340,-99159 -7234.3,-4200 -27580.3,5398 -59556.7,28094 l -48568.8,34477 -65780.7,-74401 c -73310.3,-82917.5 -86519.4,-89326.5 -155911.9,-75645.9 -42462.9,8371.3 -42728.3,11054.9 -6188.4,62663.9 l 23138.5,32680 -60911.1,50661 -60911.3,50660 -10615.7,-23172 c -57072.6,-124587 -111240.9,-136492.1 -219991.5,-48348 -43357.8,35143 -69726,51218 -90561.6,55213 -16165.8,3099 -30964.2,9896 -32883.1,15105 -3821.8,10372 48452.6,79035 69465.6,91243 10658.1,6191 25405.9,-1950 78882.3,-43554 69645.4,-54181 80713.3,-56900 96032.4,-23593 17458.5,37957 -4883.3,66226 -121070.5,153180 l -105469.7,78934 -145903.8,-173680 c -80246.8,-95525 -152120.9,-176447 -159719.3,-179828 -19480.5,-8665 -88200.4,-1094 -92354.2,10178 -2098.2,5692 69491.7,99762 182197.6,239415 151469.6,187683 189488.8,231080 206487.2,235693 19794.6,5373 33925.3,-4249 283165.7,-192798 l 262331.5,-198450 34205.1,33174 c 19031.5,18458 45146.1,35053 58867.9,37408 53965.4,9266 117532.3,-23897 145963.7,-76150 z"
       inkscape:connector-curvature="0" />
    <path
       id="path2282"
       style="fill:#efbb22;fill-opacity:1"
       d="m 8599680.5,10659272 c 374.7,-4878 -80539,-102483 -179857.2,-216900 l -180577.3,-208032 -57468.5,-4499 c -37489.1,-2934 -57812.6,-244 -58458.3,7681 -624.5,7610 76161.6,99718 204551.3,245391 l 205541.1,233209 32773.8,-23989 c 18026.2,-13195 33098,-27981 33495.1,-32859 z"
       inkscape:connector-curvature="0" />
    <path
       id="path2276"
       style="fill:#efbb22;fill-opacity:1"
       d="m 4440782.2,10680863 c 4496.2,-2115 49759.1,-119871 100588.6,-261678 l 92418.1,-257830 -24921.1,-51040 c -16257.3,-33297 -28824,-49205 -36145.8,-45758 -7011.5,3301 -49525,114764 -113264.6,296956 l -102039.2,291674 37594.6,15761 c 20678.5,8668 41274.5,14029 45769.4,11915 z"
       inkscape:connector-curvature="0" />
    <path
       id="path2274"
       style="fill:#efbb22;fill-opacity:1"
       d="m 4096676.1,10431485 c 6244.6,-3705 22457.5,-22774 36034.6,-42377 l 24685.7,-35641 -110822.3,-90153 -110821.6,-90154 16031.8,-24830 c 27260.4,-42222 38969.7,-39406 132323.8,31829 94073.6,71784 91397.1,71474 135275,15666 36543.6,-46476 36118.4,-60200 -1960.8,-63246 -24000,-1919 -44634.1,-13182 -98402.3,-53710 -102320.8,-77127 -107187.3,-79596.2 -147182.3,-74673 -36800.2,4530 -37018.8,4719 -105410,91115 -59388.3,75023 -68020.9,89439 -64683.8,108018 3309.7,18424 23531.7,36458 143715.9,128166 112226,85635 142106.6,105394 151213.2,99990 z"
       inkscape:connector-curvature="0" />
    <path
       id="path2270"
       style="fill:#efbb22;fill-opacity:1"
       d="m 2823104.3,9473297.9 c 4983.2,-183.4 94738,-90021.2 199457.3,-199697.2 l 190399.5,-199410.4 -1860.9,-56573.3 c -1211.4,-36904.2 -6182.1,-56435.6 -14300.8,-56178.3 -7770.8,244.6 -92427.4,85441.8 -225536.2,226972.1 l -213096.2,226577.7 27939.7,29298.3 c 15367.4,16114.8 32015.6,29169.4 36997.6,29011.1 z"
       inkscape:connector-curvature="0" />
    <path
       id="path2288"
       style="fill:#efbb22;fill-opacity:1"
       d="m 6841474.6,11241670 c 28131.7,-19673 53238.5,-73465 42281.9,-90588 -4471.2,-6988 -27034.6,-7601 -66048,-1791 l -59257,8821 -23789.2,-95714 c -19855.8,-79886 -27341.1,-98309 -45266,-111408 -25613.3,-18719 -90049.5,-38062 -96302.2,-28910 -8651.2,12663 51087.2,284181 66821,303709 37109.5,46058 127148.9,53935 181559.5,15882 z"
       inkscape:connector-curvature="0" />
    <path
       id="path2304"
       style="fill:#efbb22;fill-opacity:1"
       d="m 7223390.4,11197972 c 24530.4,-28034 20319.1,-51654 -13135.4,-73688 -32426.7,-21357 -54616.7,-17442 -74085.9,13071 -19542.3,30628 -14260.1,54844 16029.1,73473 30209.2,18581 46212.7,15691 71192.2,-12856 z"
       inkscape:connector-curvature="0" />
    <path
       id="path2302"
       style="fill:#efbb22;fill-opacity:1"
       d="m 7070337.1,11228232 c 7792,-11404 12211.3,-30477 9821.5,-42385 -5220.5,-26006 -39773.4,-50786 -64223.9,-46056 -24449.9,4731 -46847.8,40526 -41628.7,66532 5220.6,26007 39772.8,50786 64222.7,46055 9702.8,-1876 24017.1,-12742 31808.4,-24146 z"
       inkscape:connector-curvature="0" />
    <path
       id="path2278"
       style="fill:#efbb22;fill-opacity:1"
       d="m 7452791.2,10963012 c 4383.7,-24787 -122113.9,-606831 -132156.4,-608089 -5482.8,-685 -22941.9,15042 -38803,34954 l -28837.3,36204 40545.2,224869 40543.9,224869 -167600.5,32422 -167600.4,32421 -13885.3,-42298 c -7637.1,-23264 -17872.6,-47600 -22745.8,-54081 -12647.1,-16816 -80284.2,-47965 -88296.6,-40663 -3696.8,3374 3790.5,58509 16635.5,122533 32985.5,164369 5395.3,155870 312864.2,96393 190321.8,-36817 247743.5,-50528 249336.5,-59534 z"
       inkscape:connector-curvature="0" />
    <path
       id="path2280"
       style="fill:#efbb22;fill-opacity:1"
       d="m 8115239.4,10766830 c 6244.6,-14330 3284.6,-35522 -10402.8,-74576 -21192.8,-60463 -40992.3,-78751 -97062.7,-89657 -36593.7,-7117 -38000,-3350 -21142.8,56724 l 10768.1,38371 -143085.6,50911 c -158376.7,56353 -156473.4,56331 -175749,2042 -9317.5,-26246 -19690.3,-36188 -55808.7,-53491 -75582.2,-36210 -77870.8,-29088 -32371.7,100719 55402.2,158063 30711.9,152990 300669.8,61778 197943.9,-66880 216176.1,-74429 224185.4,-92818 z"
       inkscape:connector-curvature="0" />
    <path
       id="path2268"
       style="fill:#efbb22;fill-opacity:1"
       d="m 7869878.1,10446042 c 9386.2,-14287 13405.2,-33230 9446.7,-44522 -7162.5,-20434 -54417.4,-42292 -75807.5,-35065 -16280.1,5502 -40471.5,55965 -34709,72405 5763.8,16440 56461.3,41603 72742,36102 6596.1,-2225 19342.5,-15242 28327.8,-28920 z"
       inkscape:connector-curvature="0" />
    <path
       id="path2266"
       style="fill:#efbb22;fill-opacity:1"
       d="m 7725770.9,10491167 c 7527.1,-15146 11591.7,-33514 9031.5,-40817 -6026.1,-17185 -56772.9,-41496 -74274.5,-35583 -17502.3,5917 -42266.3,55740 -36242.8,72924 6026.1,17184 56773.6,41497 74275.2,35584 7439.1,-2513 19682.8,-16963 27210.6,-32108 z"
       inkscape:connector-curvature="0" />
    <path
       id="path2272"
       style="fill:#efbb22;fill-opacity:1"
       d="m 3630624.7,10117810 c 22955.9,-11174 426496,-455275.7 421596.5,-463974.1 -2672.8,-4743.8 -25916.5,-9284.6 -51650,-10083 l -46788.6,-1454.9 -160824.3,164980.8 -160823.6,164980.7 -120501.5,-105641.3 c -66275.5,-58102.7 -123054.9,-110698.8 -126175.3,-116879.1 -7393.6,-14644 11865.4,-21154.5 84835.8,-28683.4 47546.1,-4902.7 59599.5,-2573.6 76002.2,14708.8 17320.8,18248.9 21683.9,18679.2 39145.8,3857.4 31737.7,-26938.1 41258.9,-52572.8 30396.3,-81842.4 -22093.5,-59533.2 -63778.9,-66437.4 -182754.8,-30266.1 -42943.1,13056.4 -97822.2,23281.2 -121953.3,22721.3 l -43874.8,-1014.8 -68898.3,-65678.7 -68898.3,-65678.7 29091.9,-38038.9 c 24797.4,-32422.1 28528.6,-44548.7 25272,-82143.8 -6561.8,-75749.4 -12504.8,-74324.4 -106067.6,25448.9 -74091.9,79007.8 -82108.2,90130.6 -81162.7,112612.2 1017.9,24238.5 9867.1,32918.5 312121.1,306144.8 243569.5,220177.3 313425.7,280053.3 321911.5,275923.3 z"
       inkscape:connector-curvature="0" />
    <path
       id="path2264"
       style="fill:#efbb22;fill-opacity:1"
       d="m 3423040.6,9387838.3 c 17150.3,-690.7 36788.4,-7239.7 43639.4,-14546.1 16688.1,-17794.7 13991.7,-59889.6 -4933.3,-76993.5 -19234.7,-17388.1 -65181.5,-17658.9 -81290.7,-489 -14571.3,15537.7 -13997.4,70326.5 874.2,83772.3 5788.8,5232.8 24554.5,8944.7 41704.2,8247.8 z"
       inkscape:connector-curvature="0" />
    <path
       id="path2262"
       style="fill:#efbb22;fill-opacity:1"
       d="m 3310600.4,9286196.8 c 17150.8,-690.8 36787.1,-7241 43638.7,-14547.4 25520.6,-27214.4 5414.1,-86033.5 -31343.7,-91687 -41141.5,-6329.5 -78443.8,37097.5 -64827.4,75470.7 9722.9,27399.6 17867.8,32168.5 52532.4,30763.7 z"
       inkscape:connector-curvature="0" />
    <path
       id="path2312"
       style="fill:#efbb22;fill-opacity:1"
       d="m 9716062.8,10017563 c 3615.6,-37773.3 -29268.8,-66725.6 -66535,-58580.5 -24804.6,5422.3 -28573.8,8714.2 -36942.1,32272.3 -12447.9,35041.2 9739.6,66389.2 49466.2,69890.2 36198.3,3192 50650.7,-8471 54010.9,-43582 z"
       inkscape:connector-curvature="0" />
    <path
       id="path2308"
       style="fill:#efbb22;fill-opacity:1"
       d="m 10022527,9738281.3 c 6635,-36379.8 -9207,-54630.5 -49423.1,-56936.4 -38980.3,-2231.3 -56072.9,12200 -57067,48192.2 -999.2,36127.9 16076.5,54357.8 51804.7,55309 35635.4,947.5 47928.4,-9518.7 54685.4,-46564.8 z"
       inkscape:connector-curvature="0" />
    <path
       id="path2306"
       style="fill:#efbb22;fill-opacity:1"
       d="m 9906317.2,9840646 c 818.1,-13708.7 -5239.2,-32343.9 -13458.2,-41411.5 -17944.4,-19803.4 -60527.8,-23926.7 -79145.9,-7663.4 -18618.7,16263.4 -19403.7,58267.2 -1461.2,78070.6 17945,19802.9 60527.7,23926.2 79146.4,7663.4 7389.3,-6454.2 14101.5,-22951.1 14917,-36659.1 z"
       inkscape:connector-curvature="0" />
    <path
       id="path2286"
       style="fill:#efbb22;fill-opacity:1"
       d="m 10241815,9303420.5 c 249,-4566.5 -21274,-32271.8 -47878,-61559.7 -38341,-42209.2 -57859,-57213.3 -94129,-72357.3 -75220,-31407.3 -108919.7,-27636.8 -188344.7,21076.8 -37770.1,23165.1 -79195.8,43741.2 -92057,45724.3 -12861.3,1986.8 -26423.3,6261 -30137.4,9505.3 -4071.5,3557.8 22725.1,39902.7 67561.5,91625.2 l 74313.8,85727.3 -117549.1,102677.7 -117549.3,102677.7 -33836.6,-29519 c -18609.3,-16235.2 -39983.2,-32124.4 -47496.6,-35308.7 -15145.6,-6419.4 -85387.9,-2213 -94393.9,5654.6 -3153.5,2750.9 16962.8,33033.4 44696.7,67291.3 l 50425.3,62288.4 -70529.7,61606.2 -70529,61606.7 -35659.5,-32203.3 c -30394.6,-27449.7 -42313.6,-32299.8 -80738.8,-32856.1 -77423.6,-1118.7 -76569.3,4823.2 15247.4,106153.6 72707.7,80237.1 83182.9,89174.5 106062.3,90485.7 24768.3,1424.4 34341.8,-6367.4 393706.6,-320266.7 202576,-176947.2 368543,-325461.7 368815,-330030.6 z"
       inkscape:connector-curvature="0" />
    <path
       id="path2284"
       style="fill:#ffffff;fill-opacity:1"
       d="m 9984939.1,9323168.3 c -21223.9,-23421.2 -24688.4,-32306.6 -16628.5,-42641.4 19029.5,-24401.8 50391.4,-33735.3 81701.4,-24315.6 47534,14300.5 47823,28965.2 1293,65492.3 l -39556,31051.6 -26809.9,-29586.9 z"
       inkscape:connector-curvature="0" />
    <path
       id="path2260"
       style="fill:#efbb22;fill-opacity:1"
       d="m 9877007.2,8951134.5 c 2204.4,-37086.5 -14055.8,-57077.6 -48013.7,-59023.4 -50320.4,-2879.3 -75249.2,49758.3 -41302.7,87220.1 17516,19330.3 60751.3,25755.2 77117,11459.7 5707.6,-4982.2 11199,-22833.1 12199.4,-39656.4 z"
       inkscape:connector-curvature="0" />
    <path
       id="path2256"
       style="fill:#efbb22;fill-opacity:1"
       d="m 9762817,9050878.5 c 2273,-38271.8 -12426,-55052.9 -49084.7,-56029.8 -35709.4,-947.5 -54639.8,15062.1 -57883.8,48961.8 -3147.3,32901.4 10951,48905.6 48977.9,55591.5 37053.9,6514.7 55642.6,-9039.5 57990.6,-48523.5 z"
       inkscape:connector-curvature="0" />
  </g>
</svg>
