<?xml version="1.0" encoding="UTF-8" standalone="no"?>
<!-- Creator: CorelDRAW -->

<svg
   xmlns:dc="http://purl.org/dc/elements/1.1/"
   xmlns:cc="http://creativecommons.org/ns#"
   xmlns:rdf="http://www.w3.org/1999/02/22-rdf-syntax-ns#"
   xmlns:svg="http://www.w3.org/2000/svg"
   xmlns="http://www.w3.org/2000/svg"
   xmlns:sodipodi="http://sodipodi.sourceforge.net/DTD/sodipodi-0.dtd"
   xmlns:inkscape="http://www.inkscape.org/namespaces/inkscape"
   xml:space="preserve"
   width="600px"
   height="295px"
   style="shape-rendering:geometricPrecision; text-rendering:geometricPrecision; image-rendering:optimizeQuality; fill-rule:evenodd"
   viewBox="0 0 600 294"
   id="svg2"
   version="1.1"
   inkscape:version="0.48.2 r9819"
   sodipodi:docname="Flag_of_Terengganu.svg"><metadata
   id="metadata19"><rdf:RDF><cc:Work
       rdf:about=""><dc:format>image/svg+xml</dc:format><dc:type
         rdf:resource="http://purl.org/dc/dcmitype/StillImage" /><dc:title></dc:title></cc:Work></rdf:RDF></metadata><defs
   id="defs17" /><sodipodi:namedview
   pagecolor="#ffffff"
   bordercolor="#666666"
   borderopacity="1"
   objecttolerance="10"
   gridtolerance="10"
   guidetolerance="10"
   inkscape:pageopacity="0"
   inkscape:pageshadow="2"
   inkscape:window-width="1024"
   inkscape:window-height="718"
   id="namedview15"
   showgrid="false"
   inkscape:zoom="1.0074671"
   inkscape:cx="300"
   inkscape:cy="147.5"
   inkscape:window-x="-8"
   inkscape:window-y="-8"
   inkscape:window-maximized="1"
   inkscape:current-layer="layer2" />
 
<g
   inkscape:groupmode="layer"
   id="layer1"
   inkscape:label="Layer1"><rect
     style="fill:#ffffff;fill-opacity:1;stroke:#000000;stroke-width:0.5;stroke-miterlimit:4;stroke-opacity:1;stroke-dasharray:none"
     id="rect2997"
     width="233.25824"
     height="293.80612"
     x="0.99258828"
     y="1.1938665"
     transform="translate(0,-0.5)" /></g><g
   inkscape:groupmode="layer"
   id="layer2"
   inkscape:label="Layer2"><rect
     style="fill:#000000;fill-opacity:1;stroke:#000000;stroke-width:0.5;stroke-miterlimit:4;stroke-opacity:1;stroke-dasharray:none"
     id="rect3000"
     width="366.26508"
     height="293.80612"
     x="234.25084"
     y="1.1938665"
     transform="translate(0,-0.5)" /><path
     sodipodi:type="star"
     style="fill:#ffffff;fill-opacity:1;stroke:#000000;stroke-width:0.5;stroke-miterlimit:4;stroke-opacity:1;stroke-dasharray:none"
     id="path3007"
     sodipodi:sides="5"
     sodipodi:cx="273.95438"
     sodipodi:cy="85.563873"
     sodipodi:r1="75.240547"
     sodipodi:r2="27.531179"
     sodipodi:arg1="0.93521063"
     sodipodi:arg2="1.5635292"
     inkscape:flatsided="false"
     inkscape:rounded="-0.023888275"
     inkscape:randomized="0"
     d="m 318.62085,146.11176 c 1.06467,-0.78542 -45.7894,-33.00782 -44.4664,-33.01743 1.323,-0.01 -45.05781,32.89035 -43.98184,33.66021 1.07598,0.76986 17.2426,-53.748286 17.66058,-52.49301 0.41797,1.255275 -45.20422,-32.688848 -45.6039,-31.427631 -0.39969,1.261217 56.44591,-0.210448 55.38123,0.574969 -1.06468,0.785417 17.12007,-53.09317 15.79708,-53.083555 -1.323,0.0096 17.64289,53.618218 16.56691,52.848358 -1.07598,-0.769861 55.785,-0.124536 55.36702,-1.379811 -0.41797,-1.255275 -45.542,33.34833 -45.14231,32.087112 0.39968,-1.261217 17.35695,53.016198 18.42163,52.230788 z"
     transform="matrix(0.50238107,0,0,0.50238107,366.52133,21.041668)"
     inkscape:transform-center-x="0.2307145"
     inkscape:transform-center-y="-3.285007" /><path
     sodipodi:type="arc"
     style="fill:#ffffff;fill-opacity:1;stroke:#000000;stroke-width:0.5;stroke-miterlimit:4;stroke-opacity:1;stroke-dasharray:none"
     id="path3009"
     sodipodi:cx="372.22061"
     sodipodi:cy="160.50429"
     sodipodi:rx="74.444122"
     sodipodi:ry="73.94783"
     d="m 446.66473,160.50429 a 74.444122,73.94783 0 1 1 -148.88824,0 74.444122,73.94783 0 1 1 148.88824,0 z"
     transform="matrix(0.68025181,0,0,-0.68564897,253.91462,261.15902)" /><path
     transform="matrix(0.58677817,0,0,0.56282725,288.70365,49.290895)"
     sodipodi:type="arc"
     style="fill:#000000;fill-opacity:1;fill-rule:evenodd;stroke:#000000;stroke-width:0.5;stroke-miterlimit:4;stroke-opacity:1;stroke-dasharray:none"
     id="path3009-1"
     sodipodi:cx="372.22061"
     sodipodi:cy="160.50429"
     sodipodi:rx="74.444122"
     sodipodi:ry="73.94783"
     d="m 446.66473,160.50429 a 74.444122,73.94783 0 1 1 -148.88824,0 74.444122,73.94783 0 1 1 148.88824,0 z" /></g></svg>