<?xml version="1.0" encoding="UTF-8"?>
<svg xmlns="http://www.w3.org/2000/svg" width="1300" height="900" viewBox="0 0 81 56">
<rect fill="#fff" width="81" height="56"/>
<path fill="#ce1126"
	d="M21,0 l-3,1 l3,1 l-3,1 l3,1 l-3,1 l3,1 l-3,1 l3,1 l-3,1 l3,1 l-3,1 l3,1 l-3,1 l3,1 l-3,1 l3,1 l-3,1 l3,1 l-3,1 l3,1 l-3,1 l3,1 l-3,1 l3,1 l-3,1 l3,1 l-3,1 l3,1 l-3,1 l3,1 l-3,1 l3,1 l-3,1 l3,1 l-3,1 l3,1 l-3,1 l3,1 l-3,1 l3,1 l-3,1 l3,1 l-3,1 l3,1 l-3,1 l3,1 l-3,1 l3,1 l-3,1 l3,1 l-3,1 l3,1 l-3,1 l3,1 l-3,1 l3,1
	H81V0z"/>
</svg>