<?xml version="1.0" encoding="UTF-8" standalone="no"?>
<svg
   xmlns:dc="http://purl.org/dc/elements/1.1/"
   xmlns:cc="http://creativecommons.org/ns#"
   xmlns:rdf="http://www.w3.org/1999/02/22-rdf-syntax-ns#"
   xmlns:svg="http://www.w3.org/2000/svg"
   xmlns="http://www.w3.org/2000/svg"
   xmlns:sodipodi="http://sodipodi.sourceforge.net/DTD/sodipodi-0.dtd"
   xmlns:inkscape="http://www.inkscape.org/namespaces/inkscape"
   version="1.0"
   width="750"
   height="275"
   viewBox="0 0 504 198"
   id="svg2"
   sodipodi:version="0.32"
   inkscape:version="0.46"
   sodipodi:docname="Flag of Qatar (1936-1949).svg"
   inkscape:output_extension="org.inkscape.output.svg.inkscape">
  <metadata
     id="metadata13">
    <rdf:RDF>
      <cc:Work
         rdf:about="">
        <dc:format>image/svg+xml</dc:format>
        <dc:type
           rdf:resource="http://purl.org/dc/dcmitype/StillImage" />
      </cc:Work>
    </rdf:RDF>
  </metadata>
  <defs
     id="defs11">
    <inkscape:perspective
       sodipodi:type="inkscape:persp3d"
       inkscape:vp_x="0 : 148.5 : 1"
       inkscape:vp_y="0 : 1000 : 0"
       inkscape:vp_z="756 : 148.5 : 1"
       inkscape:persp3d-origin="378 : 99 : 1"
       id="perspective15" />
    <inkscape:perspective
       id="perspective2395"
       inkscape:persp3d-origin="372.04724 : 350.78739 : 1"
       inkscape:vp_z="744.09448 : 526.18109 : 1"
       inkscape:vp_y="0 : 1000 : 0"
       inkscape:vp_x="0 : 526.18109 : 1"
       sodipodi:type="inkscape:persp3d" />
    <inkscape:perspective
       id="perspective3189"
       inkscape:persp3d-origin="372.04724 : 350.78739 : 1"
       inkscape:vp_z="744.09448 : 526.18109 : 1"
       inkscape:vp_y="0 : 1000 : 0"
       inkscape:vp_x="0 : 526.18109 : 1"
       sodipodi:type="inkscape:persp3d" />
    <inkscape:perspective
       id="perspective3214"
       inkscape:persp3d-origin="372.04724 : 350.78739 : 1"
       inkscape:vp_z="744.09448 : 526.18109 : 1"
       inkscape:vp_y="0 : 1000 : 0"
       inkscape:vp_x="0 : 526.18109 : 1"
       sodipodi:type="inkscape:persp3d" />
  </defs>
  <sodipodi:namedview
     inkscape:window-height="750"
     inkscape:window-width="1280"
     inkscape:pageshadow="2"
     inkscape:pageopacity="0.0"
     guidetolerance="10.0"
     gridtolerance="10.0"
     objecttolerance="10.0"
     borderopacity="1.0"
     bordercolor="#666666"
     pagecolor="#ffffff"
     id="base"
     showgrid="false"
     inkscape:zoom="0.5"
     inkscape:cx="411.80645"
     inkscape:cy="102.52414"
     inkscape:window-x="-8"
     inkscape:window-y="-8"
     inkscape:current-layer="svg2" />
  <desc
     id="desc4">Flag of Qatar</desc>
  <rect
     width="540"
     height="198"
     id="rect6"
     x="-18.000008"
     y="4.7249546e-06"
     style="fill:#70193d" />
  <path
     style="fill:#ffffff;fill-opacity:1;stroke:none;stroke-width:1.5;stroke-linecap:square;stroke-linejoin:miter;stroke-miterlimit:4;stroke-opacity:1"
     d="M -18.000007,-4.22e-06 L 118.8,-4.22e-06 L 162,9.8999958 L 118.8,19.799996 L 162,29.699996 L 118.8,39.599996 L 162,49.499996 L 118.8,59.399996 L 162,69.299996 L 118.8,79.199996 L 162,89.099996 L 118.8,99.000005 L 162,108.9 L 118.8,118.80001 L 162,128.70001 L 118.8,138.60001 L 162,148.50001 L 118.8,158.40001 L 162,168.30002 L 118.8,178.20002 L 162,188.10002 L 118.8,198 L -18.000007,198 L -18.000007,-4.22e-06 z"
     id="rect2401"
     sodipodi:nodetypes="cccccccccccccccccccccccc" />
  <path
     style="fill:#70193d;fill-opacity:1;stroke:none;stroke-width:1.5;stroke-linecap:square;stroke-linejoin:miter;stroke-miterlimit:4;stroke-opacity:1"
     d="M 104.4,4.9499958 L 92.159996,9.8999958 L 104.4,14.849996 L 116.64,9.8999958 L 104.4,4.9499958 z M 104.4,24.749996 L 92.159996,29.699996 L 104.4,34.649996 L 116.64,29.699996 L 104.4,24.749996 z M 104.4,44.549996 L 92.159996,49.499996 L 104.4,54.449996 L 116.64,49.499996 L 104.4,44.549996 z M 104.4,64.349996 L 92.159996,69.299996 L 104.4,74.249996 L 116.64,69.299996 L 104.4,64.349996 z M 104.4,84.149996 L 92.159996,89.099996 L 104.4,94.049996 L 116.64,89.099996 L 104.4,84.149996 z M 104.4,103.95 L 92.159996,108.9 L 104.4,113.85 L 116.64,108.9 L 104.4,103.95 z M 104.4,123.75 L 92.159996,128.7 L 104.4,133.65 L 116.64,128.7 L 104.4,123.75 z M 104.4,143.55 L 92.159996,148.5 L 104.4,153.45 L 116.64,148.5 L 104.4,143.55 z M 104.4,163.35 L 92.159996,168.3 L 104.4,173.25 L 116.64,168.3 L 104.4,163.35 z M 104.4,183.15 L 92.159996,188.1 L 104.4,193.05 L 116.64,188.1 L 104.4,183.15 z"
     id="path3174" />
  <g
     id="g3249">
    <path
       sodipodi:nodetypes="csssscccscccccssscccssssssssssssscccssssscccsccssscccc"
       id="path3195"
       d="M 415.42106,127.90719 C 424.27226,126.07102 437.19429,119.44858 440.8545,114.87272 C 442.41557,112.92113 443.51102,111.14258 443.28883,110.9204 C 443.06664,110.69822 439.89406,111.95932 436.23864,113.72286 C 428.51401,117.44957 413.91384,121.50515 406.42105,122.00549 C 397.74671,122.58471 383.61951,119.03968 373.26599,113.68567 L 370.16909,112.08421 L 374.15106,109.8224 C 379.56679,106.74621 383.68421,103.75551 383.68421,102.89797 C 383.68421,102.50756 381.32577,101.44469 378.44323,100.53605 L 373.20224,98.883974 L 369.11421,103.39934 L 365.0262,107.91469 L 361.10833,104.8117 C 353.23751,98.577888 353.36841,99.011338 353.36841,79.183957 C 353.36841,67.015268 353.78575,59.909349 354.70956,56.347956 C 355.44718,53.504336 355.73605,50.615486 355.35147,49.928288 C 354.9669,49.24109 352.80829,47.458098 350.55459,45.96608 L 346.45693,43.253322 L 344.17491,46.731921 C 342.91981,48.645151 340.54757,51.38289 338.90328,52.815785 C 335.93713,55.400602 335.93198,55.420785 338.2463,55.387478 C 339.52926,55.369013 341.64474,54.744647 342.94737,53.999996 C 346.32636,52.068388 346.37563,52.109751 346.61496,57.078943 C 346.73417,59.553943 347.56669,68.94155 348.46502,77.940292 C 349.51435,88.451618 349.75143,94.146979 349.12811,93.869088 C 348.59449,93.631175 344.58727,91.687917 340.10526,89.823522 C 334.91464,87.664364 331.68938,85.43751 322.44156,84.770523 C 315.55427,84.273786 312.5215,86.490167 310.8363,88.01525 C 306.30533,92.115726 309.75088,98.141634 320.90911,105.63157 C 325.17846,108.49737 328.68625,111.136 328.7042,111.49521 C 328.77302,112.87238 293.44677,111.11352 275.93461,108.86788 C 262.08783,107.09224 256.36525,105.03469 255.97399,101.69103 C 255.76631,99.916169 256.41533,98.645227 258.27723,97.180642 L 260.86963,95.141461 L 256.19798,90.955286 C 253.62856,88.652896 251.25476,86.750012 250.92285,86.726659 C 250.59094,86.703316 248.24621,88.069733 245.71232,89.763155 C 241.77963,92.391411 241.06303,93.348679 240.81671,96.302878 C 240.17814,103.96156 251.42923,111.76321 265.73684,113.58282 C 270.36349,114.17124 292.95426,114.90115 328.26315,115.60307 C 349.53953,116.02602 355.89308,115.86014 360.36558,114.7649 L 365.9417,113.39941 L 372.11159,117.6235 C 379.29719,122.54294 386.38749,126.28657 391.73684,127.98552 C 396.86277,129.61349 407.3632,129.57877 415.42106,127.90719 z M 337.73684,112.37232 C 331.97463,111.5758 330.67097,110.8779 322.62341,104.28144 C 316.01295,98.862971 312.63158,95.173681 312.63158,93.379753 C 312.63158,91.803862 316.90505,90.473682 321.9679,90.473682 C 332.46549,90.473682 346.41281,96.487861 355.89123,105.10164 L 361.37111,110.08163 L 358.08029,111.11746 C 353.56482,112.53875 343.45303,113.16249 337.73684,112.37232 z"
       style="fill:#ffffff;fill-opacity:1" />
    <rect
       transform="matrix(0.7071068,0.7071068,-0.7071068,0.7071068,0,0)"
       y="-126.75996"
       x="234.33119"
       height="5.5799999"
       width="5.5799999"
       id="rect3245"
       style="fill:#ffffff;fill-opacity:1;stroke:none;stroke-width:1.5;stroke-linecap:square;stroke-linejoin:miter;stroke-miterlimit:4;stroke-dasharray:none;stroke-opacity:1" />
    <rect
       transform="matrix(0.7071068,0.7071068,-0.7071068,0.7071068,0,0)"
       y="-119.88687"
       x="224.27612"
       height="5.5799999"
       width="5.5799999"
       id="rect3247"
       style="fill:#ffffff;fill-opacity:1;stroke:none;stroke-width:1.5;stroke-linecap:square;stroke-linejoin:miter;stroke-miterlimit:4;stroke-dasharray:none;stroke-opacity:1" />
  </g>
</svg>
