<?xml version="1.0" encoding="UTF-8" standalone="no"?>
<!-- Created with Inkscape (http://www.inkscape.org/) -->

<svg
   xmlns:v="http://schemas.microsoft.com/visio/2003/SVGExtensions/"
   xmlns:dc="http://purl.org/dc/elements/1.1/"
   xmlns:cc="http://creativecommons.org/ns#"
   xmlns:rdf="http://www.w3.org/1999/02/22-rdf-syntax-ns#"
   xmlns:svg="http://www.w3.org/2000/svg"
   xmlns="http://www.w3.org/2000/svg"
   xmlns:xlink="http://www.w3.org/1999/xlink"
   xmlns:sodipodi="http://sodipodi.sourceforge.net/DTD/sodipodi-0.dtd"
   xmlns:inkscape="http://www.inkscape.org/namespaces/inkscape"
   version="1.0"
   width="6.25in"
   height="3.125in"
   viewBox="0 0 450 225"
   id="svg1976"
   xml:space="preserve"
   inkscape:version="0.48.2 r9819"
   sodipodi:docname="AJAX1.svg"><metadata
   id="metadata153"><rdf:RDF><cc:Work
       rdf:about=""><dc:format>image/svg+xml</dc:format><dc:type
         rdf:resource="http://purl.org/dc/dcmitype/StillImage" /></cc:Work></rdf:RDF></metadata><sodipodi:namedview
   pagecolor="#ffffff"
   bordercolor="#666666"
   borderopacity="1"
   objecttolerance="10"
   gridtolerance="10"
   guidetolerance="10"
   inkscape:pageopacity="0"
   inkscape:pageshadow="2"
   inkscape:window-width="1280"
   inkscape:window-height="1004"
   id="namedview151"
   showgrid="false"
   inkscape:zoom="1.6191174"
   inkscape:cx="143.28117"
   inkscape:cy="142.43166"
   inkscape:window-x="-8"
   inkscape:window-y="-8"
   inkscape:window-maximized="1"
   inkscape:current-layer="shape8-13" /><defs
   id="defs2882" />
	<v:documentProperties
   v:viewMarkup="false"
   v:metric="true"
   v:langID="1033" />

	<style
   type="text/css"
   id="style1978" />

	<g
   id="g1980">
		<title
   id="title1982">svg19402</title>
		<v:pageProperties
   v:shadowOffsetY="-9"
   v:shadowOffsetX="9"
   v:drawingUnits="19"
   v:pageScale="1"
   v:drawingScale="1" />
		<g
   id="group1-1">
			<title
   id="title1985">g3573</title>
			<g
   id="group2-2">
				<title
   id="title1988">g1325</title>
				<g
   id="shape3-3">
					<title
   id="title1991">rect1764</title>
					<rect
   width="450"
   height="225"
   x="0"
   y="0"
   style="fill:#00247d;stroke:none;stroke-width:1;stroke-linecap:butt;fill-opacity:1"
   id="rect1993" />
				</g>
				<g
   transform="translate(0,-112.5)"
   id="shape4-5"
   style="stroke:none">
					<title
   id="title1996">path4640</title>
					<path
   d="M 0,225 L 25.15,225 L 225,125.08 L 225,112.5 L 199.84,112.5 L 0,212.42 L 0,225 z "
   style="fill:white;stroke:none;stroke-width:1;stroke-linecap:butt"
   id="path1998" />
				</g>
				<g
   transform="translate(0,-112.5)"
   id="shape5-7"
   style="stroke:none">
					<title
   id="title2001">path6505</title>
					<path
   d="M 225,225 L 199.84,225 L 0,125.08 L 0,112.5 L 25.15,112.5 L 225,212.42 L 225,225 z "
   style="fill:white;stroke:none;stroke-width:1;stroke-linecap:butt"
   id="path2003" />
				</g>
				<g
   transform="translate(93.75,-112.5)"
   id="shape6-9"
   style="stroke:none">
					<title
   id="title2006">rect1530</title>
					<rect
   width="37.5"
   height="112.5"
   x="0"
   y="112.5"
   style="fill:white;stroke:none;stroke-width:1;stroke-linecap:butt"
   id="rect2008" />
				</g>
				<g
   transform="translate(0,-150)"
   id="shape7-11"
   style="stroke:none">
					<title
   id="title2011">rect2152</title>
					<rect
   width="225"
   height="37.5"
   x="0"
   y="187.5"
   style="fill:white;stroke:none;stroke-width:1;stroke-linecap:butt"
   id="rect2013" />
				</g>
				<g
   transform="translate(0,-112.5)"
   id="shape8-13">
					<title
   id="title2016">rect3395</title>
					<path
   d="M 101.25,112.5 L 101.25,157.5 L 0,157.5 L 0,180 L 101.25,180 L 101.25,225 L 123.75,225 L 123.75,180 L 225,180 L 225,157.5 L 123.75,157.5 L 123.75,112.5 L 101.25,112.5 z "
   style="fill:#cf142b;stroke:none;stroke-width:1;stroke-linecap:butt;fill-opacity:1"
   id="path2018" />
				</g>
				<g
   transform="translate(133.23,-187.5)"
   id="shape9-15"
   style="stroke:none">
					<title
   id="title2021">path8371</title>
					<path
   d="M 0,225 L 16.77,225 L 91.77,187.5 L 75,187.5 L 0,225 z "
   style="fill:#cf142b;stroke:none;stroke-width:1;stroke-linecap:butt;fill-opacity:1"
   id="path2023" />
				</g>
				<g
   transform="translate(0,-187.5)"
   id="shape10-17"
   style="stroke:none">
					<title
   id="title2026">path9616</title>
					<path
   d="M 0,187.5 L 0,195.89 L 58.23,225 L 75,225 L 0,187.5 z "
   style="fill:#cf142b;stroke:none;stroke-width:1;stroke-linecap:butt;fill-opacity:1"
   id="path2028" />
				</g>
				<g
   transform="matrix(-1,0,0,-1,225,300)"
   id="shape11-19"
   style="stroke:none">
					<title
   id="title2031">Feuille.11</title>
					<path
   d="M 0,187.5 L 0,195.89 L 58.23,225 L 75,225 L 0,187.5 z "
   style="fill:#cf142b;stroke:none;stroke-width:1;stroke-linecap:butt;fill-opacity:1"
   id="path2033" />
				</g>
				<g
   transform="translate(0,-112.5)"
   id="shape12-21"
   style="stroke:none">
					<title
   id="title2036">Feuille.12</title>
					<path
   d="M 0,225 L 16.77,225 L 91.77,187.5 L 75,187.5 L 0,225 z "
   style="fill:#cf142b;stroke:none;stroke-width:1;stroke-linecap:butt;fill-opacity:1"
   id="path2038" />
				</g>
			</g>
			<g
   transform="translate(281.25,-56.25)"
   id="shape13-23">
				<title
   id="title2041">path1355</title>
				<path
   d="M 112.5,168.75 C 112.5,199.82 87.32,225 56.25,225 C 25.18,225 0,199.82 0,168.75 C 0,137.68 25.18,112.5 56.25,112.5 C 87.32,112.5 112.5,137.68 112.5,168.75 z "
   style="fill:white;stroke:none;stroke-width:0.89999998;stroke-linecap:butt"
   id="path2043" />
			</g>
		</g>
		
	<g
   transform="matrix(0.321464,0,0,0.321464,202.4399,-53.77823)"
   id="layer1"><path
     d="M 420.14062,646.35248 C 480.43755,646.35248 533.11927,599.39702 533.11927,582.64818 C 533.11927,575.81738 521.32098,571.87899 518.95215,558.15157 C 518.33895,554.59806 515.18403,547.82305 512.97422,546.97184 C 511.10693,546.25256 505.74045,543.46868 494.3746,551.31609 C 473.86816,565.47452 490.7752,572.0501 502.20172,583.50752 C 480.26558,608.57684 451.25474,618.08382 420.14062,618.08382 C 389.0265,618.08382 360.01567,608.57684 338.07953,583.50752 C 349.50605,572.0501 366.41309,565.47452 345.90665,551.31609 C 334.5408,543.46868 329.17432,546.25256 327.30703,546.97184 C 325.09722,547.82305 321.9423,554.59806 321.3291,558.15157 C 318.96027,571.87899 307.16198,575.81738 307.16198,582.64818 C 307.16198,599.39702 359.8437,646.35248 420.14062,646.35248 z "
     style="opacity:1;fill:#f7c600;fill-opacity:1;fill-rule:evenodd;stroke:black;stroke-width:0.5;stroke-linecap:butt;stroke-linejoin:bevel;marker:none;marker-start:none;marker-mid:none;marker-end:none;stroke-miterlimit:4;stroke-dasharray:none;stroke-dashoffset:0;stroke-opacity:1;visibility:visible;display:inline;overflow:visible"
     id="path4660" /><path
     d="M 333.8154,587.69389 L 330.88581,590.33205 L 330.62703,590.04468 C 331.14951,589.26576 331.46499,588.63955 331.57346,588.16603 C 331.6819,587.69251 331.66099,587.19574 331.51075,586.67572 C 331.42442,586.38724 331.15362,585.99022 330.69837,585.48465 L 329.97234,584.67842 L 321.62261,592.19753 C 321.06915,592.69592 320.75079,593.03802 320.66755,593.22383 C 320.58429,593.40962 320.57104,593.63838 320.62782,593.91012 C 320.68458,594.18184 320.85194,594.47203 321.1299,594.78069 L 321.45338,595.13991 L 321.15803,595.40588 L 316.05423,589.73828 L 316.34959,589.47231 L 316.67307,589.83152 C 316.95581,590.1455 317.23932,590.34796 317.5236,590.4389 C 317.7227,590.51017 317.94867,590.50425 318.20149,590.42114 C 318.38192,590.36466 318.74355,590.09202 319.28636,589.60321 L 327.6361,582.08409 L 326.93163,581.30181 C 326.27507,580.57274 325.64391,580.18221 325.03814,580.13021 C 324.19014,580.05541 323.31191,580.31622 322.40345,580.91266 L 322.13028,580.60933 L 325.05988,577.97117 L 333.8154,587.69389 z M 333.81723,587.84586 L 339.30376,592.98797 L 339.03197,593.27797 L 338.75764,593.02087 C 338.34483,592.63399 338.02096,592.41142 337.78602,592.35316 C 337.55106,592.29492 337.32991,592.31095 337.12259,592.40126 C 336.91524,592.49159 336.52753,592.83981 335.95947,593.44594 L 331.08181,598.65031 C 330.1905,599.6013 329.67223,600.29829 329.527,600.74125 C 329.38175,601.18422 329.37823,601.66185 329.51643,602.17417 C 329.65463,602.68648 329.97454,603.1777 330.47617,603.64784 C 331.05094,604.18653 331.66202,604.51632 332.3094,604.63721 C 332.95676,604.75809 333.59406,604.68551 334.22131,604.41946 C 334.84853,604.1534 335.69105,603.45604 336.74887,602.32739 L 340.81113,597.99303 C 341.25676,597.51753 341.52544,597.13136 341.61717,596.83453 C 341.70887,596.5377 341.71569,596.27908 341.63763,596.05868 C 341.51511,595.71813 341.23963,595.34706 340.81117,594.94548 L 341.08297,594.65548 L 344.75895,598.10069 L 344.48715,598.3907 L 344.26769,598.18501 C 343.96983,597.90587 343.66531,597.73334 343.35413,597.66743 C 343.04292,597.60151 342.73027,597.64711 342.41618,597.80422 C 342.19152,597.90776 341.87597,598.17638 341.46952,598.61008 L 337.68639,602.6466 C 336.51594,603.89544 335.58887,604.71966 334.90517,605.11929 C 334.22146,605.5189 333.34294,605.6525 332.26961,605.52009 C 331.19626,605.38767 330.10833,604.8048 329.00581,603.77149 C 328.08615,602.90957 327.4906,602.12075 327.21915,601.40503 C 326.84806,600.42907 326.7663,599.5476 326.97386,598.76063 C 327.18142,597.97365 327.69901,597.13862 328.52665,596.25555 L 333.40431,591.05118 C 333.97728,590.43983 334.29959,590.02786 334.37124,589.81527 C 334.44287,589.60269 334.43672,589.37363 334.35277,589.12808 C 334.26881,588.88255 333.99969,588.55181 333.54543,588.13586 L 333.81723,587.84586 z M 356.34151,606.75015 L 356.10331,607.06833 C 355.62755,606.81953 355.07965,606.76271 354.45961,606.89788 C 354.00421,607.00427 353.14161,607.40964 351.87179,608.114 L 341.18629,614.01644 L 340.90251,613.80399 L 343.84382,601.5403 C 344.19917,600.06187 344.36811,599.16404 344.35066,598.84679 C 344.33319,598.52956 344.11732,598.17562 343.70306,597.78495 L 343.94126,597.46677 L 349.53083,601.65138 L 349.29263,601.96955 L 349.10344,601.82792 C 348.59894,601.45024 348.20775,601.25579 347.92989,601.24456 C 347.73364,601.23185 347.57329,601.30862 347.44884,601.47486 C 347.37157,601.57806 347.3033,601.71705 347.24403,601.89184 C 347.18473,602.06664 347.05732,602.55945 346.86181,603.3703 L 345.00147,611.03539 L 351.17525,607.59253 C 351.91823,607.17366 352.40065,606.88177 352.62253,606.71686 C 352.84438,606.55196 353.0111,606.39497 353.12271,606.24592 C 353.25145,606.07393 353.31932,605.88768 353.32633,605.68715 C 353.3333,605.48662 353.27368,605.28544 353.14748,605.08359 C 352.97391,604.80158 352.68362,604.50822 352.2766,604.20349 L 352.5148,603.88531 L 356.34151,606.75015 z M 357.81049,619.54037 L 353.34875,616.97734 L 352.11151,617.90189 C 351.70219,618.21185 351.42084,618.50034 351.26746,618.76736 C 351.06412,619.12132 351.05713,619.46418 351.24647,619.79594 C 351.35705,619.99161 351.7272,620.30334 352.3569,620.73114 L 352.15892,621.07579 L 347.958,618.66258 L 348.15597,618.31793 C 348.64853,618.51003 349.12902,618.53622 349.59746,618.39649 C 350.0659,618.25676 350.79081,617.82871 351.7722,617.11233 L 362.0794,609.62897 L 362.25637,609.73063 L 360.86117,622.70511 C 360.73223,623.93596 360.73436,624.75895 360.86755,625.17408 C 360.96809,625.48786 361.20195,625.77086 361.56914,626.02308 L 361.37116,626.36773 L 355.26072,622.8576 L 355.4587,622.51296 L 355.71019,622.65743 C 356.20076,622.93924 356.58464,623.06891 356.86184,623.04645 C 357.05552,623.02556 357.20588,622.92198 357.3129,622.73569 C 357.3771,622.62391 357.42446,622.49833 357.45499,622.35894 C 357.47467,622.29591 357.51529,622.00954 357.57686,621.49981 L 357.81049,619.54037 z M 357.88975,618.66916 L 358.507,613.23833 L 354.07072,616.47533 L 357.88975,618.66916 z M 376.40964,627.16832 L 373.91605,631.66585 L 362.00094,626.63516 L 362.15553,626.26899 L 362.60087,626.45702 C 362.99012,626.62136 363.33275,626.6844 363.62876,626.64614 C 363.83929,626.62619 364.03809,626.52357 364.22517,626.33825 C 364.36459,626.21055 364.57637,625.81023 364.86049,625.13728 L 368.58755,616.3098 C 368.87724,615.62367 369.02202,615.17951 369.02188,614.97732 C 369.02172,614.77516 368.9383,614.56309 368.77161,614.34111 C 368.6049,614.11915 368.33352,613.92878 367.95747,613.76999 L 367.51214,613.58197 L 367.66674,613.21581 L 374.82174,616.23673 L 374.66714,616.60289 L 374.08326,616.35637 C 373.694,616.19204 373.35137,616.129 373.05537,616.16725 C 372.84483,616.18721 372.64273,616.28844 372.44907,616.47096 C 372.30963,616.59867 372.09786,616.999 371.81374,617.67193 L 368.20367,626.22231 C 367.91397,626.90846 367.76901,627.36225 367.7688,627.58371 C 367.76858,627.80517 367.86443,628.01082 368.05635,628.20068 C 368.19621,628.3297 368.58282,628.52791 369.21619,628.79533 L 370.33447,629.26748 C 371.04699,629.56831 371.69369,629.69366 372.27458,629.64352 C 372.85544,629.59337 373.43326,629.37092 374.00806,628.97616 C 374.58283,628.58141 375.24811,627.92169 376.00389,626.99701 L 376.40964,627.16832 z M 379.65274,618.3605 L 386.88527,620.41811 L 386.77651,620.8004 L 386.41489,620.69752 C 385.87071,620.54272 385.48087,620.49324 385.24534,620.54907 C 385.0098,620.60493 384.82057,620.72048 384.67765,620.89573 C 384.53471,621.071 384.34958,621.55814 384.12227,622.35716 L 382.17048,629.21773 C 381.81382,630.47137 381.67239,631.32834 381.74621,631.78863 C 381.82,632.24892 382.03567,632.67511 382.3932,633.0672 C 382.75072,633.45929 383.26012,633.7494 383.92138,633.93753 C 384.67907,634.15309 385.37333,634.16632 386.00417,633.97723 C 386.63499,633.78814 387.16825,633.43168 387.60394,632.90786 C 388.03961,632.38404 388.46909,631.37822 388.89239,629.89038 L 390.5179,624.17668 C 390.69621,623.54986 390.75815,623.08352 390.70372,622.77764 C 390.64925,622.47178 390.53685,622.23877 390.3665,622.07861 C 390.10159,621.83201 389.68673,621.62836 389.12192,621.46766 L 389.23068,621.08537 L 394.07648,622.46397 L 393.96772,622.84626 L 393.67842,622.76396 C 393.28578,622.65227 392.93606,622.6384 392.62925,622.72235 C 392.32242,622.80632 392.06538,622.99007 391.85816,623.2736 C 391.70589,623.46855 391.54844,623.85188 391.38581,624.42359 L 389.87199,629.74467 C 389.40362,631.39093 388.9571,632.54827 388.53241,633.21668 C 388.1077,633.88509 387.38798,634.40628 386.37323,634.78026 C 385.35846,635.15422 384.12438,635.13446 382.671,634.72098 C 381.45868,634.37609 380.56795,633.94771 379.9988,633.43584 C 379.22186,632.73829 378.7454,631.9922 378.56941,631.19756 C 378.39341,630.40293 378.471,629.42357 378.80218,628.25947 L 380.75398,621.3989 C 380.98325,620.593 381.08104,620.07915 381.04735,619.85735 C 381.01365,619.63557 380.90325,619.43478 380.71615,619.25496 C 380.52903,619.07517 380.13831,618.90444 379.54398,618.74279 L 379.65274,618.3605 z M 396.25123,626.95476 C 397.08886,627.11174 397.74471,627.53884 398.21881,628.23607 C 398.69289,628.93331 398.85144,629.70075 398.69448,630.53837 C 398.53882,631.36897 398.11171,632.02483 397.41316,632.50595 C 396.7146,632.98708 395.95003,633.14981 395.11944,632.99416 C 394.28181,632.83719 393.62452,632.40799 393.14758,631.70657 C 392.67063,631.00517 392.50998,630.23916 392.66564,629.40856 C 392.82261,628.57094 393.24828,627.91299 393.94266,627.43472 C 394.63703,626.95646 395.40655,626.79648 396.25123,626.95476 L 396.25123,626.95476 z M 408.89587,634.0372 L 413.61433,624.78566 L 419.52451,625.26625 L 419.4923,625.6624 L 419.0212,625.62409 C 418.5929,625.58928 418.24419,625.63637 417.97506,625.76536 C 417.78846,625.85079 417.63207,626.00692 417.50586,626.23376 C 417.4134,626.39869 417.33786,626.84162 417.27926,627.56253 L 416.50092,637.13446 C 416.44054,637.8768 416.44207,638.34395 416.50552,638.53592 C 416.56893,638.72789 416.71632,638.90334 416.94771,639.06226 C 417.17906,639.22119 417.49818,639.31719 417.90506,639.35027 L 418.37616,639.38858 L 418.34395,639.78474 L 410.7635,639.16833 L 410.79571,638.77218 L 411.26681,638.81049 C 411.69507,638.84531 412.04379,638.79822 412.31295,638.66922 C 412.49951,638.5838 412.6562,638.4241 412.78302,638.19012 C 412.87545,638.0252 412.95127,637.5787 413.01049,636.85063 L 413.88547,626.09025 L 407.24095,638.8819 L 406.98398,638.861 L 402.39989,625.2533 L 401.56844,635.47834 C 401.5104,636.19214 401.49255,636.63257 401.51489,636.79964 C 401.57866,637.16408 401.75665,637.47135 402.04887,637.72144 C 402.34108,637.97153 402.8191,638.12357 403.48293,638.17754 L 403.45072,638.5737 L 398.48274,638.16973 L 398.51496,637.77358 L 398.66485,637.78576 C 398.98548,637.81902 399.28948,637.79165 399.57685,637.70365 C 399.86422,637.61565 400.08684,637.48466 400.24469,637.31068 C 400.40253,637.1367 400.53436,636.88517 400.64015,636.55607 C 400.66081,636.47871 400.69755,636.11526 400.75037,635.46571 L 401.49737,626.27924 C 401.55715,625.54404 401.55518,625.08224 401.49147,624.89383 C 401.42775,624.70544 401.2802,624.53178 401.04884,624.37284 C 400.81746,624.21393 400.49835,624.11793 400.09149,624.08483 L 399.6311,624.0474 L 399.66331,623.65124 L 405.5949,624.13357 L 408.89587,634.0372 z M 426.53855,624.52216 C 428.85205,624.32494 430.76762,624.9104 432.28527,626.27855 C 433.80289,627.64673 434.61362,629.41095 434.71748,631.5712 C 434.80617,633.41673 434.34415,635.06647 433.33143,636.52041 C 431.99017,638.44901 430.01409,639.47606 427.40318,639.60155 C 424.78511,639.7274 422.71812,638.93771 421.20221,637.23248 C 420.00461,635.88478 419.35957,634.24883 419.26708,632.32461 C 419.16324,630.16435 419.81167,628.32821 421.21237,626.81617 C 422.61307,625.30416 424.38846,624.53949 426.53855,624.52216 L 426.53855,624.52216 z M 426.70032,625.20268 C 425.36982,625.26665 424.3903,625.99485 423.76178,627.3873 C 423.25031,628.53037 423.04478,630.14627 423.14518,632.23499 C 423.26448,634.71716 423.78902,636.53098 424.71879,637.67646 C 425.36669,638.47701 426.23787,638.85097 427.33231,638.79837 C 428.06908,638.76295 428.67566,638.55455 429.15205,638.17317 C 429.75952,637.68511 430.21435,636.93014 430.51656,635.90827 C 430.81875,634.8864 430.931,633.56715 430.8533,631.95052 C 430.7608,630.02632 430.51277,628.59534 430.10922,627.65757 C 429.70565,626.71982 429.21723,626.06755 428.64395,625.70076 C 428.07066,625.33399 427.42278,625.16797 426.70032,625.20268 L 426.70032,625.20268 z M 438.3025,627.9031 C 439.14693,627.78822 439.90394,627.98696 440.57354,628.49934 C 441.24313,629.01173 441.63537,629.69014 441.75027,630.53457 C 441.8642,631.37191 441.66545,632.12892 441.15404,632.80561 C 440.64261,633.4823 439.96823,633.87761 439.1309,633.99154 C 438.28647,634.10644 437.52744,633.90616 436.85382,633.3907 C 436.18019,632.87526 435.78641,632.19886 435.67248,631.36152 C 435.55759,630.5171 435.75432,629.75855 436.26267,629.08588 C 436.77103,628.41323 437.45097,628.01897 438.3025,627.9031 L 438.3025,627.9031 z M 453.85639,620.54013 L 454.71593,624.38767 L 454.33851,624.47198 C 453.91655,623.63434 453.52596,623.052 453.16674,622.72498 C 452.8075,622.39799 452.36448,622.17225 451.8377,622.04777 C 451.544,621.98131 451.06517,622.02224 450.40121,622.17055 L 449.34235,622.4071 L 451.79213,633.37312 C 451.9545,634.1 452.09618,634.54532 452.21716,634.70908 C 452.33812,634.87284 452.5309,634.99672 452.79549,635.0807 C 453.06006,635.16468 453.39504,635.16139 453.80043,635.07083 L 454.27219,634.96544 L 454.35885,635.35334 L 446.91537,637.01619 L 446.82872,636.62829 L 447.30049,636.5229 C 447.71285,636.43078 448.02844,636.28323 448.24726,636.08025 C 448.40712,635.94181 448.51292,635.74206 448.56468,635.481 C 448.60408,635.29609 448.54416,634.84719 448.3849,634.13429 L 445.93512,623.16826 L 444.90771,623.39778 C 443.95019,623.61171 443.30005,623.96975 442.95728,624.47191 C 442.47569,625.17389 442.27163,626.06701 442.34508,627.15129 L 441.9467,627.24028 L 441.08716,623.39274 L 453.85639,620.54013 z M 458.98097,619.64496 L 460.93523,625.24336 L 461.20906,625.14777 C 462.08127,624.84331 462.61787,624.3488 462.81885,623.66422 C 463.01983,622.97967 462.98795,622.08437 462.72323,620.9783 L 463.10862,620.84376 L 465.62225,628.0446 L 465.23686,628.17913 C 464.88193,627.42315 464.48698,626.84042 464.05202,626.43094 C 463.61705,626.02147 463.19706,625.79072 462.79205,625.73866 C 462.38703,625.68663 461.8566,625.77508 461.20075,626.00401 L 462.55316,629.87826 C 462.81749,630.63554 463.01129,631.08748 463.13453,631.23409 C 463.25776,631.3807 463.42616,631.47742 463.63972,631.52423 C 463.85328,631.57105 464.15614,631.52601 464.5483,631.38912 L 465.3698,631.10235 C 466.65445,630.65391 467.58002,629.99707 468.1465,629.13182 C 468.71297,628.26658 468.95282,627.16644 468.86606,625.83138 L 469.24131,625.70038 L 470.14853,630.28756 L 458.26208,634.43682 L 458.13108,634.06156 L 458.58747,633.90225 C 458.98639,633.763 459.28277,633.57989 459.47662,633.35293 C 459.61937,633.19691 459.69795,632.98743 459.71237,632.7245 C 459.73009,632.53627 459.61859,632.09733 459.37785,631.40766 L 456.21988,622.36098 C 456.00274,621.73895 455.85248,621.36283 455.76911,621.23263 C 455.61889,621.0196 455.43008,620.88071 455.20268,620.81595 C 454.87966,620.71634 454.49503,620.74441 454.04878,620.90017 L 453.59239,621.05948 L 453.4614,620.68423 L 464.97259,616.66596 L 466.39226,620.73291 L 466.00687,620.86745 C 465.46383,619.94199 464.9393,619.32485 464.43328,619.01601 C 463.92725,618.70722 463.31429,618.56468 462.5944,618.5884 C 462.17328,618.59889 461.4421,618.78586 460.40085,619.14931 L 458.98097,619.64496 z M 470.94766,618.56833 C 471.72362,618.21599 472.50582,618.18917 473.29428,618.48787 C 474.08273,618.7866 474.65314,619.32394 475.00549,620.09989 C 475.35488,620.86934 475.3817,621.65155 475.08595,622.44652 C 474.79019,623.2415 474.25759,623.81368 473.48815,624.16307 C 472.71219,624.51543 471.92761,624.54136 471.13442,624.24085 C 470.34122,623.94036 469.76993,623.40539 469.42053,622.63595 C 469.06818,621.85999 469.03899,621.0769 469.33297,620.28665 C 469.62695,619.49643 470.16518,618.92365 470.94766,618.56833 L 470.94766,618.56833 z M 484.64228,618.42477 L 480.17931,620.98565 L 480.35394,622.52027 C 480.41525,623.03003 480.52254,623.41846 480.6758,623.68555 C 480.87896,624.03961 481.17152,624.21852 481.55348,624.22227 C 481.77822,624.22543 482.23405,624.06294 482.92099,623.73483 L 483.11881,624.07957 L 478.91672,626.49075 L 478.7189,626.14601 C 479.13314,625.8175 479.39801,625.41575 479.51352,624.94076 C 479.62904,624.46578 479.62486,623.62393 479.50101,622.41521 L 478.23518,609.74096 L 478.41221,609.63938 L 488.91345,617.38584 C 489.91139,618.11777 490.62319,618.53088 491.04885,618.62515 C 491.37052,618.69654 491.73283,618.63726 492.13578,618.44733 L 492.33359,618.79207 L 486.22146,622.29925 L 486.02364,621.95451 L 486.27521,621.81016 C 486.76591,621.52859 487.07144,621.26245 487.19181,621.01174 C 487.27143,620.83395 487.25778,620.65188 487.15086,620.46552 C 487.08669,620.35372 487.00212,620.2495 486.89714,620.15286 C 486.85263,620.10409 486.6258,619.92463 486.21665,619.61446 L 484.64228,618.42477 z M 483.92987,617.91707 L 479.55105,614.64586 L 480.10978,620.10905 L 483.92987,617.91707 z M 494.9908,598.64225 L 497.34327,601.80583 L 497.03295,602.03659 C 496.30633,601.44351 495.71238,601.07083 495.25109,600.91853 C 494.7898,600.76626 494.29325,600.74059 493.76145,600.84152 C 493.46616,600.90048 493.04554,601.13294 492.4996,601.53889 L 491.62897,602.1863 L 498.33384,611.20294 C 498.77826,611.8006 499.08908,612.14957 499.26628,612.24984 C 499.44346,612.35011 499.66998,612.3847 499.94584,612.3536 C 500.22168,612.32251 500.52625,612.18304 500.85957,611.93518 L 501.24748,611.64672 L 501.48465,611.96567 L 495.36437,616.51678 L 495.1272,616.19784 L 495.5151,615.90938 C 495.85416,615.65726 496.08226,615.39394 496.1994,615.11941 C 496.28899,614.92785 496.30424,614.70233 496.24515,614.44283 C 496.2058,614.25791 495.96818,613.87236 495.53231,613.28619 L 488.82743,604.26956 L 487.98266,604.89774 C 487.19536,605.4832 486.74749,606.07505 486.63904,606.6733 C 486.48522,607.51057 486.66272,608.40936 487.17154,609.36964 L 486.84398,609.61322 L 484.4915,606.44964 L 494.9908,598.64225 z M 494.82718,598.80974 L 500.33965,593.69544 L 500.60998,593.98681 L 500.33435,594.24253 C 499.91961,594.62733 499.67498,594.93488 499.60047,595.16518 C 499.52597,595.39551 499.52653,595.61723 499.60215,595.83035 C 499.67779,596.0435 499.9981,596.45456 500.56311,597.06354 L 505.41439,602.29251 C 506.30087,603.24801 506.95998,603.81366 507.39173,603.98945 C 507.82348,604.16526 508.29971,604.20211 508.82042,604.09999 C 509.34112,603.99789 509.85347,603.71304 510.35747,603.24544 C 510.93496,602.70966 511.3066,602.12309 511.47237,601.48572 C 511.63813,600.84838 511.6102,600.20756 511.38858,599.56328 C 511.16694,598.91902 510.53008,598.02989 509.478,596.89588 L 505.4377,592.54104 C 504.99446,592.06331 504.62799,591.76833 504.33828,591.65611 C 504.04857,591.54393 503.79106,591.51908 503.56575,591.58156 C 503.21747,591.68001 502.82809,591.92893 502.39759,592.32832 L 502.12726,592.03694 L 505.82061,588.61036 L 506.09094,588.90173 L 505.87044,589.10631 C 505.57119,589.38396 505.37783,589.6757 505.29036,589.98151 C 505.20289,590.28737 505.22656,590.60244 505.36136,590.92672 C 505.44898,591.15806 505.69492,591.49159 506.0992,591.92732 L 509.86186,595.98292 C 511.02597,597.23767 511.78349,598.22001 512.13442,598.92992 C 512.48534,599.63986 512.55731,600.52556 512.35032,601.58703 C 512.14331,602.64852 511.48594,603.69312 510.37821,604.72085 C 509.45421,605.57811 508.62575,606.11716 507.89283,606.338 C 506.89335,606.64007 506.00833,606.66012 505.23776,606.39814 C 504.46718,606.13617 503.67032,605.56156 502.84716,604.67431 L 497.99588,599.44535 C 497.426,598.83111 497.03753,598.48084 496.83046,598.39452 C 496.6234,598.30823 496.39446,598.29839 496.14365,598.36499 C 495.89286,598.43162 495.54415,598.67699 495.09751,599.10112 L 494.82718,598.80974 z M 519.00441,589.3876 L 515.56281,593.21273 L 516.20737,594.61633 C 516.42462,595.08154 516.6477,595.41713 516.87663,595.62309 C 517.18008,595.89613 517.51385,595.97486 517.87793,595.85929 C 518.09244,595.79219 518.47486,595.49564 519.02519,594.96964 L 519.32066,595.23548 L 516.08023,598.83701 L 515.78476,598.57117 C 516.07587,598.12984 516.20222,597.66552 516.16383,597.1782 C 516.12543,596.69088 515.85889,595.89233 515.36422,594.78253 L 510.20846,583.13534 L 510.34498,582.98362 L 522.73848,587.06833 C 523.91492,587.4525 524.72006,587.62298 525.15389,587.57979 C 525.48178,587.54729 525.80753,587.37797 526.13114,587.07183 L 526.4266,587.33767 L 521.71326,592.57626 L 521.41779,592.31042 L 521.61178,592.0948 C 521.99018,591.67423 522.19747,591.32608 522.23363,591.05033 C 522.25382,590.85657 522.18407,590.68784 522.02436,590.54413 C 521.92853,590.45792 521.81567,590.38528 521.68578,590.3262 C 521.62828,590.29375 521.35679,590.19398 520.87131,590.0269 L 519.00441,589.3876 z M 518.16919,589.12743 L 512.98852,587.38514 L 515.22334,592.40155 L 518.16919,589.12743 z "
     style="font-size:28px;font-style:normal;font-variant:normal;font-weight:bold;font-stretch:normal;text-align:center;line-height:125%;writing-mode:lr-tb;text-anchor:middle;fill:black;fill-opacity:1;stroke:none;stroke-width:1px;stroke-linecap:butt;stroke-linejoin:miter;stroke-opacity:1;font-family:Times New Roman"
     id="text4690" /><path
     d="M 338.07953,583.50752 C 334.98086,580.03307 331.56044,576.7875 329.59799,571.48184"
     style="opacity:1;fill:none;fill-opacity:1;fill-rule:evenodd;stroke:black;stroke-width:0.5;stroke-linecap:butt;stroke-linejoin:bevel;marker:none;marker-start:none;marker-mid:none;marker-end:none;stroke-miterlimit:4;stroke-dasharray:none;stroke-dashoffset:0;stroke-opacity:1;visibility:visible;display:inline;overflow:visible"
     id="path4662" /><path
     d="M 329.59799,571.48184 L 337.39605,561.34436 C 346.76626,576.57992 358.61942,568.14798 351.95243,559.78475 C 336.15904,539.97314 317.62509,545.83956 329.59799,571.48184 z "
     style="opacity:1;fill:#bd5200;fill-opacity:1;fill-rule:evenodd;stroke:black;stroke-width:0.5;stroke-linecap:butt;stroke-linejoin:bevel;marker:none;marker-start:none;marker-mid:none;marker-end:none;stroke-miterlimit:4;stroke-dasharray:none;stroke-dashoffset:0;stroke-opacity:1;visibility:visible;display:inline;overflow:visible"
     id="path4664" /><path
     d="M 502.20172,583.50752 C 505.30039,580.03307 508.72081,576.7875 510.68326,571.48184"
     style="opacity:1;fill:none;fill-opacity:1;fill-rule:evenodd;stroke:black;stroke-width:0.5;stroke-linecap:butt;stroke-linejoin:bevel;marker:none;marker-start:none;marker-mid:none;marker-end:none;stroke-miterlimit:4;stroke-dasharray:none;stroke-dashoffset:0;stroke-opacity:1;visibility:visible;display:inline;overflow:visible"
     id="path4670" /><path
     d="M 510.68326,571.48184 L 502.8852,561.34436 C 493.51499,576.57992 481.66183,568.14798 488.32882,559.78475 C 504.12221,539.97314 522.65616,545.83956 510.68326,571.48184 z "
     style="opacity:1;fill:#bd5200;fill-opacity:1;fill-rule:evenodd;stroke:black;stroke-width:0.5;stroke-linecap:butt;stroke-linejoin:bevel;marker:none;marker-start:none;marker-mid:none;marker-end:none;stroke-miterlimit:4;stroke-dasharray:none;stroke-dashoffset:0;stroke-opacity:1;visibility:visible;display:inline;overflow:visible"
     id="path4672" /><path
     d="M 338.46875,408.0625 L 338.46875,520.21875 C 338.46875,559.78832 373.50085,600.09797 420.15625,614.28125 C 466.81165,600.09797 501.81249,559.78832 501.8125,520.21875 L 501.8125,408.0625 L 338.46875,408.0625 z "
     style="opacity:1;fill:#f7c600;fill-opacity:1;fill-rule:evenodd;stroke:black;stroke-width:0.5;stroke-linecap:butt;stroke-linejoin:miter;marker:none;marker-start:none;marker-mid:none;marker-end:none;stroke-miterlimit:4;stroke-dasharray:none;stroke-dashoffset:0;stroke-opacity:1;visibility:visible;display:inline;overflow:visible"
     id="path3227" /><path
     d="M 366.71875,438.0625 L 366.71875,498.90625 C 366.71875,500.24632 366.72352,501.66277 366.71875,503.03125 L 473.59375,503.03125 C 473.58898,501.66277 473.59375,500.24632 473.59375,498.90625 L 473.59375,438.0625 L 366.71875,438.0625 z "
     style="opacity:1;fill:#0073bd;fill-opacity:1;fill-rule:evenodd;stroke:none;stroke-width:0.5;stroke-linecap:butt;stroke-linejoin:miter;marker:none;marker-start:none;marker-mid:none;marker-end:none;stroke-miterlimit:4;stroke-dasharray:none;stroke-dashoffset:0;stroke-opacity:1;visibility:visible;display:inline;overflow:visible"
     id="path4333" /><path
     d="M 473.59375,503.03125 L 366.71875,503.03125 C 366.62894,528.78364 367.06732,559.13473 420.15625,580.25 C 473.24518,559.13473 473.68355,528.78364 473.59375,503.03125 z "
     style="opacity:1;fill:#f7c600;fill-opacity:1;fill-rule:evenodd;stroke:none;stroke-width:0.5;stroke-linecap:butt;stroke-linejoin:miter;marker:none;marker-start:none;marker-mid:none;marker-end:none;stroke-miterlimit:4;stroke-dasharray:none;stroke-dashoffset:0;stroke-opacity:1;visibility:visible;display:inline;overflow:visible"
     id="path4338" /><path
     d="M 377.28125,486.875 L 372.4375,487.125 L 377.28125,489.59375 L 377.28125,486.875 z "
     style="opacity:1;fill:#ffbd21;fill-opacity:1;fill-rule:evenodd;stroke:black;stroke-width:0.25;stroke-linecap:butt;stroke-linejoin:bevel;marker:none;marker-start:none;marker-mid:none;marker-end:none;stroke-miterlimit:4;stroke-dasharray:none;stroke-dashoffset:0;stroke-opacity:1;visibility:visible;display:inline;overflow:visible"
     id="path4263" /><rect
     width="88.189674"
     height="14.872224"
     x="377.28485"
     y="484.3476"
     style="opacity:1;fill:#ffad29;fill-opacity:1;fill-rule:evenodd;stroke:black;stroke-width:0.5;stroke-linecap:butt;stroke-linejoin:bevel;marker:none;marker-start:none;marker-mid:none;marker-end:none;stroke-miterlimit:4;stroke-dasharray:none;stroke-dashoffset:0;stroke-opacity:1;visibility:visible;display:inline;overflow:visible"
     id="rect4261" /><g
     id="g4301"><rect
       width="2.906739"
       height="11.925063"
       x="461.04922"
       y="485.62283"
       style="fill:#0073bd;fill-opacity:1;fill-rule:evenodd;stroke:none;stroke-width:440.25;stroke-linecap:butt;stroke-linejoin:bevel;marker:none;marker-start:none;marker-mid:none;marker-end:none;stroke-miterlimit:4;stroke-dasharray:none;stroke-dashoffset:0;stroke-opacity:1;visibility:visible;display:inline;overflow:visible"
       id="rect4290" /><rect
       width="4.9962244"
       height="11.925063"
       x="445.44638"
       y="485.62283"
       style="fill:#0073bd;fill-opacity:1;fill-rule:evenodd;stroke:none;stroke-width:440.25;stroke-linecap:butt;stroke-linejoin:bevel;marker:none;marker-start:none;marker-mid:none;marker-end:none;stroke-miterlimit:4;stroke-dasharray:none;stroke-dashoffset:0;stroke-opacity:1;visibility:visible;display:inline;overflow:visible"
       id="rect4292" /><rect
       width="5.0946879"
       height="11.925063"
       x="430.91257"
       y="485.62283"
       style="fill:#0073bd;fill-opacity:1;fill-rule:evenodd;stroke:none;stroke-width:440.25;stroke-linecap:butt;stroke-linejoin:bevel;marker:none;marker-start:none;marker-mid:none;marker-end:none;stroke-miterlimit:4;stroke-dasharray:none;stroke-dashoffset:0;stroke-opacity:1;visibility:visible;display:inline;overflow:visible"
       id="rect4294" /><rect
       width="5.0946879"
       height="11.925063"
       x="416.93915"
       y="485.62283"
       style="fill:#0073bd;fill-opacity:1;fill-rule:evenodd;stroke:none;stroke-width:440.25;stroke-linecap:butt;stroke-linejoin:bevel;marker:none;marker-start:none;marker-mid:none;marker-end:none;stroke-miterlimit:4;stroke-dasharray:none;stroke-dashoffset:0;stroke-opacity:1;visibility:visible;display:inline;overflow:visible"
       id="rect4299" /></g><g
     id="g4326"><rect
       width="5.4101591"
       height="5.9230094"
       x="387.1149"
       y="485.62283"
       style="fill:#0073bd;fill-opacity:1;fill-rule:evenodd;stroke:none;stroke-width:440.25;stroke-linecap:butt;stroke-linejoin:bevel;marker:none;marker-start:none;marker-mid:none;marker-end:none;stroke-miterlimit:4;stroke-dasharray:none;stroke-dashoffset:0;stroke-opacity:1;visibility:visible;display:inline;overflow:visible"
       id="rect4309" /><rect
       width="5.4101591"
       height="5.9230094"
       x="400.15384"
       y="485.62283"
       style="fill:#0073bd;fill-opacity:1;fill-rule:evenodd;stroke:none;stroke-width:440.25;stroke-linecap:butt;stroke-linejoin:bevel;marker:none;marker-start:none;marker-mid:none;marker-end:none;stroke-miterlimit:4;stroke-dasharray:none;stroke-dashoffset:0;stroke-opacity:1;visibility:visible;display:inline;overflow:visible"
       id="rect4318" /><rect
       width="6.6519632"
       height="5.9230094"
       x="423.12723"
       y="485.62283"
       style="fill:#0073bd;fill-opacity:1;fill-rule:evenodd;stroke:none;stroke-width:440.25;stroke-linecap:butt;stroke-linejoin:bevel;marker:none;marker-start:none;marker-mid:none;marker-end:none;stroke-miterlimit:4;stroke-dasharray:none;stroke-dashoffset:0;stroke-opacity:1;visibility:visible;display:inline;overflow:visible"
       id="rect4320" /><rect
       width="7.4798326"
       height="5.9230094"
       x="436.99405"
       y="485.62283"
       style="fill:#0073bd;fill-opacity:1;fill-rule:evenodd;stroke:none;stroke-width:440.25;stroke-linecap:butt;stroke-linejoin:bevel;marker:none;marker-start:none;marker-mid:none;marker-end:none;stroke-miterlimit:4;stroke-dasharray:none;stroke-dashoffset:0;stroke-opacity:1;visibility:visible;display:inline;overflow:visible"
       id="rect4322" /><rect
       width="7.4798326"
       height="5.9230094"
       x="452.30963"
       y="485.62283"
       style="fill:#0073bd;fill-opacity:1;fill-rule:evenodd;stroke:none;stroke-width:440.25;stroke-linecap:butt;stroke-linejoin:bevel;marker:none;marker-start:none;marker-mid:none;marker-end:none;stroke-miterlimit:4;stroke-dasharray:none;stroke-dashoffset:0;stroke-opacity:1;visibility:visible;display:inline;overflow:visible"
       id="rect4324" /></g><path
     d="M 414.68022,484.96947 L 467.31859,486.19362 L 451.09863,470.2797 L 404.27495,460.18047 L 414.68022,484.96947 z "
     style="opacity:1;fill:#ffad29;fill-opacity:1;fill-rule:evenodd;stroke:black;stroke-width:0.5;stroke-linecap:butt;stroke-linejoin:bevel;marker:none;marker-start:none;marker-mid:none;marker-end:none;stroke-miterlimit:4;stroke-dasharray:none;stroke-dashoffset:0;stroke-opacity:1;visibility:visible;display:inline;overflow:visible"
     id="path3275" /><g
     id="g4283"><rect
       width="4.9962244"
       height="11.925063"
       x="406.98376"
       y="485.62283"
       style="opacity:1;fill:#0073bd;fill-opacity:1;fill-rule:evenodd;stroke:none;stroke-width:440.25;stroke-linecap:butt;stroke-linejoin:bevel;marker:none;marker-start:none;marker-mid:none;marker-end:none;stroke-miterlimit:4;stroke-dasharray:none;stroke-dashoffset:0;stroke-opacity:1;visibility:visible;display:inline;overflow:visible"
       id="rect4277" /><rect
       width="4.9962244"
       height="11.925063"
       x="393.9928"
       y="485.62283"
       style="opacity:1;fill:#0073bd;fill-opacity:1;fill-rule:evenodd;stroke:none;stroke-width:440.25;stroke-linecap:butt;stroke-linejoin:bevel;marker:none;marker-start:none;marker-mid:none;marker-end:none;stroke-miterlimit:4;stroke-dasharray:none;stroke-dashoffset:0;stroke-opacity:1;visibility:visible;display:inline;overflow:visible"
       id="rect4279" /><rect
       width="6.6618018"
       height="11.925063"
       x="378.93661"
       y="485.62283"
       style="opacity:1;fill:#0073bd;fill-opacity:1;fill-rule:evenodd;stroke:none;stroke-width:440.25;stroke-linecap:butt;stroke-linejoin:bevel;marker:none;marker-start:none;marker-mid:none;marker-end:none;stroke-miterlimit:4;stroke-dasharray:none;stroke-dashoffset:0;stroke-opacity:1;visibility:visible;display:inline;overflow:visible"
       id="rect4281" /></g><path
     d="M 372.44711,487.11173 L 414.68022,484.96947 L 404.27495,460.18047 L 372.44711,487.11173 z "
     style="opacity:1;fill:#ffbd21;fill-opacity:1;fill-rule:evenodd;stroke:black;stroke-width:0.5;stroke-linecap:butt;stroke-linejoin:bevel;marker:none;marker-start:none;marker-mid:none;marker-end:none;stroke-miterlimit:4;stroke-dasharray:none;stroke-dashoffset:0;stroke-opacity:1;visibility:visible;display:inline;overflow:visible"
     id="path3273" /><path
     d="M 411.5625,480.96875 L 411.0625,481 C 411.1867,482.72091 411.24558,483.57941 411.3125,484.4375 L 411.8125,484.4375 C 411.76657,483.8722 411.75677,483.70051 411.5625,480.96875 z M 410.5625,481 L 410.0625,481.03125 C 410.18331,482.75899 410.25342,483.64706 410.3125,484.5 L 410.8125,484.46875 C 410.7747,483.91587 410.75191,483.70575 410.5625,481 z M 409.03125,481.0625 C 409.1555,482.78047 409.21525,483.6847 409.28125,484.53125 L 409.78125,484.5 C 409.73745,483.96357 409.71851,483.69101 409.53125,481.0625 L 409.03125,481.0625 z M 408.53125,481.09375 L 408.03125,481.125 C 408.14901,482.80984 408.22357,483.72989 408.28125,484.5625 L 408.78125,484.5625 C 408.74593,484.04508 408.71506,483.72035 408.53125,481.09375 z M 407.53125,481.125 L 407.03125,481.15625 C 407.14942,482.84716 407.22393,483.79756 407.28125,484.625 L 407.78125,484.59375 C 407.74673,484.08789 407.71322,483.72547 407.53125,481.125 z M 406,481.1875 C 406.11752,482.86927 406.19311,483.83512 406.25,484.65625 L 406.75,484.625 C 406.71658,484.135 406.67671,483.71327 406.5,481.1875 L 406,481.1875 z M 405.5,481.21875 L 405,481.25 C 405.11518,482.89865 405.19405,483.87996 405.25,484.6875 L 405.75,484.6875 C 405.71785,484.21553 405.67648,483.74163 405.5,481.21875 z M 404.5,481.25 L 404,481.28125 C 404.11557,482.93575 404.19441,483.94766 404.25,484.75 L 404.75,484.71875 C 404.71862,484.25782 404.67468,483.74728 404.5,481.25 z M 403.03125,481.3125 C 403.14606,482.9563 403.19487,483.98561 403.25,484.78125 L 403.75,484.75 C 403.71967,484.30429 403.70058,483.73377 403.53125,481.3125 L 403.03125,481.3125 z M 402.5,481.34375 L 402,481.375 C 402.11779,482.98678 402.18914,484.03002 402.25,484.8125 L 402.75,484.8125 C 402.71401,484.38428 402.67331,483.76278 402.5,481.34375 z M 401.5,481.375 L 401,481.40625 C 401.11289,483.0231 401.16489,484.09783 401.21875,484.875 L 401.71875,484.84375 C 401.69037,484.42592 401.6673,483.76795 401.5,481.375 z M 400,481.4375 C 400.11232,483.04642 400.19656,484.13513 400.25,484.90625 L 400.75,484.875 C 400.72262,484.47166 400.66243,483.76117 400.5,481.4375 L 400,481.4375 z M 399.5,481.46875 L 399,481.5 C 399.11005,483.07686 399.19745,484.17932 399.25,484.9375 L 399.75,484.9375 C 399.72379,484.55086 399.66216,483.78876 399.5,481.46875 z M 398.5,481.5 L 398,481.53125 C 398.11042,483.11351 398.19781,484.24705 398.25,485 L 398.75,484.96875 C 398.72449,484.5921 398.66042,483.79546 398.5,481.5 z M 396.96875,481.5625 C 397.07854,483.13592 397.16697,484.28431 397.21875,485.03125 L 397.71875,485 C 397.69415,484.63649 397.62433,483.78912 397.46875,481.5625 L 396.96875,481.5625 z M 396.46875,481.59375 L 395.96875,481.625 C 396.07631,483.16688 396.16784,484.32818 396.21875,485.0625 L 396.71875,485.0625 C 396.69526,484.71501 396.62403,483.81635 396.46875,481.59375 z M 395.46875,481.625 L 394.96875,481.65625 C 395.07666,483.20332 395.16819,484.39592 395.21875,485.125 L 395.71875,485.09375 C 395.69592,484.75572 395.62233,483.82357 395.46875,481.625 z M 393.96875,481.6875 C 394.07604,483.22583 394.16859,484.43308 394.21875,485.15625 L 394.71875,485.125 C 394.69677,484.79925 394.61762,483.81913 394.46875,481.6875 L 393.96875,481.6875 z M 393.46875,481.71875 L 392.96875,481.75 C 393.08017,483.25631 393.16391,484.47697 393.21875,485.1875 L 393.71875,485.1875 C 393.69152,484.87736 393.62229,483.84406 393.46875,481.71875 z M 392.46875,481.75 L 391.96875,481.78125 C 392.07408,483.29198 392.13858,484.54483 392.1875,485.25 L 392.6875,485.21875 C 392.66722,484.91745 392.61543,483.85083 392.46875,481.75 z M 390.96875,481.8125 C 391.07346,483.31461 391.13897,484.58188 391.1875,485.28125 L 391.6875,485.25 C 391.66801,484.96012 391.61086,483.84834 391.46875,481.8125 L 390.96875,481.8125 z M 390.46875,481.84375 L 389.96875,481.875 C 390.07131,483.34661 390.1398,484.62513 390.1875,485.3125 L 390.6875,485.3125 C 390.66902,485.03721 390.61052,483.87493 390.46875,481.84375 z M 389.46875,481.875 L 388.96875,481.90625 C 389.0717,483.38355 389.1714,484.69285 389.21875,485.375 L 389.71875,485.34375 C 389.70089,485.07729 389.60899,483.88447 389.46875,481.875 z M 387.9375,481.9375 C 388.03984,483.40627 388.14054,484.7298 388.1875,485.40625 L 388.6875,485.375 C 388.67036,485.11913 388.57329,483.88381 388.4375,481.9375 L 387.9375,481.9375 z M 387.4375,481.96875 L 386.9375,482 C 387.03773,483.43878 387.14134,484.77274 387.1875,485.4375 L 387.6875,485.4375 C 387.67132,485.19548 387.57293,483.91009 387.4375,481.96875 z M 386.4375,482 L 385.9375,482.03125 C 386.03803,483.47459 386.14169,484.8405 386.1875,485.5 L 386.6875,485.46875 C 386.67187,485.23461 386.57134,483.91889 386.4375,482 z M 384.9375,482.0625 C 385.03744,483.49741 385.14207,484.87735 385.1875,485.53125 L 385.6875,485.5 C 385.67254,485.27564 385.56703,483.92008 385.4375,482.0625 L 384.9375,482.0625 z M 384.4375,482.09375 L 383.9375,482.125 C 384.04259,483.5295 384.13865,484.92027 384.1875,485.5625 L 384.6875,485.53125 C 384.66744,485.31466 384.57125,483.92776 384.4375,482.09375 z M 383.40625,482.125 L 382.90625,482.15625 C 383.0044,483.56602 383.11195,484.98774 383.15625,485.625 L 383.65625,485.59375 C 383.64271,485.38984 383.53385,483.95539 383.40625,482.125 z M 381.90625,482.1875 C 382.00381,483.58895 382.11232,485.02449 382.15625,485.65625 L 382.65625,485.625 C 382.64332,485.43009 382.52967,483.95841 382.40625,482.1875 L 381.90625,482.1875 z M 381.4375,482.21875 L 380.9375,482.25 C 381.03292,483.62102 381.11311,485.06721 381.15625,485.6875 L 381.65625,485.65625 C 381.64381,485.46849 381.55923,483.96574 381.4375,482.21875 z M 380.4375,482.25 L 379.9375,482.28125 C 380.03234,483.6441 380.11348,485.10386 380.15625,485.71875 L 380.65625,485.71875 C 380.64465,485.5431 380.55883,483.99142 380.4375,482.25 z M 378.90625,482.3125 C 379.00137,483.67946 379.08257,485.1716 379.125,485.78125 L 379.625,485.75 C 379.61396,485.58257 379.52353,483.9963 379.40625,482.3125 L 378.90625,482.3125 z M 378.09375,482.34375 L 377.90625,482.5 C 377.99804,483.80912 378.11607,485.23529 378.15625,485.8125 L 378.65625,485.78125 C 378.64568,485.62068 378.52213,484.00779 378.40625,482.34375 L 378.09375,482.34375 z M 377.4375,482.875 L 376.96875,483.28125 C 377.04194,484.28937 377.12544,485.40125 377.15625,485.84375 L 377.65625,485.84375 C 377.64787,485.71598 377.53641,484.2682 377.4375,482.875 z M 376.5,483.6875 L 376.03125,484.09375 C 376.07965,484.75702 376.13484,485.5989 376.15625,485.90625 L 376.65625,485.875 C 376.65034,485.78477 376.5666,484.6064 376.5,483.6875 z M 375.53125,484.5 L 375.0625,484.90625 C 375.08862,485.2206 375.14336,485.76398 375.15625,485.9375 L 375.65625,485.90625 C 375.65066,485.85068 375.57107,484.96813 375.53125,484.5 z "
     style="opacity:1;fill:black;fill-opacity:1;fill-rule:evenodd;stroke:none;stroke-width:0.5;stroke-linecap:butt;stroke-linejoin:miter;marker:none;stroke-miterlimit:4;stroke-dasharray:none;stroke-dashoffset:0;stroke-opacity:1;visibility:visible;display:inline;overflow:visible"
     id="path3277" /><path
     d="M 408,474 L 407.46875,474.03125 L 406.6875,478 L 407.21875,477.96875 L 408,474 z M 407,474.0625 L 406.46875,474.09375 L 405.6875,478.03125 L 406.21875,478.03125 L 407,474.0625 z M 406,474.125 L 405.46875,474.15625 L 404.6875,478.09375 L 405.1875,478.0625 L 406,474.125 z M 404.96875,474.15625 L 404.4375,474.1875 L 403.65625,478.125 L 404.1875,478.09375 L 404.96875,474.15625 z M 403.96875,474.21875 L 403.4375,474.25 L 402.65625,478.15625 L 403.1875,478.125 L 403.96875,474.21875 z M 402.9375,474.28125 L 402.4375,474.3125 L 401.65625,478.1875 L 402.1875,478.1875 L 402.9375,474.28125 z M 401.9375,474.34375 L 401.40625,474.375 L 400.65625,478.21875 L 401.15625,478.21875 L 401.9375,474.34375 z M 400.9375,474.40625 L 400.40625,474.4375 L 399.625,478.28125 L 400.15625,478.25 L 400.9375,474.40625 z M 399.90625,474.46875 L 399.375,474.5 L 398.625,478.3125 L 399.15625,478.28125 L 399.90625,474.46875 z M 398.90625,474.53125 L 398.375,474.5625 L 397.625,478.34375 L 398.15625,478.3125 L 398.90625,474.53125 z M 397.875,474.59375 L 397.375,474.625 L 396.625,478.375 L 397.125,478.375 L 397.875,474.59375 z M 396.875,474.65625 L 396.34375,474.6875 L 395.59375,478.4375 L 396.125,478.40625 L 396.875,474.65625 z M 395.875,474.71875 L 395.34375,474.75 L 394.59375,478.46875 L 395.125,478.4375 L 395.875,474.71875 z M 394.84375,474.78125 L 394.34375,474.8125 L 393.59375,478.5 L 394.125,478.46875 L 394.84375,474.78125 z M 393.84375,474.8125 L 393.3125,474.84375 L 392.59375,478.53125 L 393.09375,478.53125 L 393.84375,474.8125 z M 392.84375,474.875 L 392.3125,474.90625 L 391.5625,478.5625 L 392.09375,478.5625 L 392.84375,474.875 z M 391.8125,474.9375 L 391.28125,474.96875 L 390.5625,478.625 L 391.09375,478.59375 L 391.8125,474.9375 z M 390.8125,475 L 390.28125,475.03125 L 389.5625,478.65625 L 390.09375,478.625 L 390.8125,475 z M 389.78125,475.0625 L 389.28125,475.09375 L 388.5625,478.6875 L 389.0625,478.6875 L 389.78125,475.0625 z M 388.78125,475.125 L 388.25,475.15625 L 387.53125,478.71875 L 388.0625,478.71875 L 388.78125,475.125 z M 387.78125,475.1875 L 387.25,475.21875 L 386.53125,478.78125 L 387.0625,478.75 L 387.78125,475.1875 z M 386.75,475.25 L 386.46875,475.28125 L 386.21875,475.46875 L 385.53125,478.8125 L 386.0625,478.78125 L 386.75,475.25 z M 385.625,475.96875 L 385,476.5 L 384.53125,478.84375 L 385.03125,478.8125 L 385.625,475.96875 z M 384.40625,477 L 383.8125,477.5 L 383.53125,478.875 L 384.03125,478.875 L 384.40625,477 z M 383.21875,478 L 382.5625,478.5625 L 382.5,478.9375 L 383.03125,478.90625 L 383.21875,478 z "
     style="opacity:1;fill:black;fill-opacity:1;fill-rule:evenodd;stroke:none;stroke-width:0.5;stroke-linecap:butt;stroke-linejoin:miter;marker:none;stroke-miterlimit:4;stroke-dasharray:none;stroke-dashoffset:0;stroke-opacity:1;visibility:visible;display:inline;overflow:visible"
     id="path3812" /><path
     d="M 393.5625,469.25 L 393.34375,469.4375 L 393.5,472.0625 L 394,472.0625 L 393.84375,469.25 L 393.5625,469.25 z M 394.28125,469.25 L 394.4375,472.0625 L 394.9375,472.0625 L 394.78125,469.25 L 394.28125,469.25 z M 395.21875,469.25 L 395.375,472.0625 L 395.875,472.0625 L 395.71875,469.25 L 395.21875,469.25 z M 396.15625,469.25 L 396.34375,472.0625 L 396.84375,472.0625 L 396.6875,469.25 L 396.15625,469.25 z M 397.125,469.25 L 397.28125,472.0625 L 397.78125,472.0625 L 397.625,469.25 L 397.125,469.25 z M 398.0625,469.25 L 398.21875,472.0625 L 398.71875,472.0625 L 398.5625,469.25 L 398.0625,469.25 z M 399,469.25 L 399.15625,472.0625 L 399.65625,472.0625 L 399.5,469.25 L 399,469.25 z M 399.9375,469.25 L 400.09375,472.0625 L 400.59375,472.0625 L 400.4375,469.25 L 399.9375,469.25 z M 400.875,469.25 L 401.0625,472.0625 L 401.5625,472.0625 L 401.40625,469.25 L 400.875,469.25 z M 401.84375,469.25 L 402,472.0625 L 402.5,472.0625 L 402.34375,469.25 L 401.84375,469.25 z M 402.78125,469.25 L 402.9375,472.0625 L 403.4375,472.0625 L 403.28125,469.25 L 402.78125,469.25 z M 403.71875,469.25 L 403.875,472.0625 L 404.375,472.0625 L 404.21875,469.25 L 403.71875,469.25 z M 404.65625,469.25 L 404.84375,472.0625 L 405.34375,472.0625 L 405.1875,469.25 L 404.65625,469.25 z M 405.625,469.25 L 405.78125,472.0625 L 406.28125,472.0625 L 406.125,469.25 L 405.625,469.25 z M 406.5625,469.25 L 406.71875,472.0625 L 407.21875,472.0625 L 407.0625,469.25 L 406.5625,469.25 z M 407.5,469.25 L 407.65625,472.0625 L 408.15625,472.0625 L 408,469.25 L 407.5,469.25 z M 392.9375,469.78125 L 392.4375,470.21875 L 392.5625,472.0625 L 393.0625,472.0625 L 392.9375,469.78125 z M 392,470.5625 L 391.53125,470.96875 L 391.59375,472.0625 L 392.09375,472.0625 L 392,470.5625 z M 391.125,471.3125 L 390.625,471.71875 L 390.65625,472.0625 L 391.15625,472.0625 L 391.125,471.3125 z "
     style="opacity:1;fill:black;fill-opacity:1;fill-rule:evenodd;stroke:none;stroke-width:0.5;stroke-linecap:butt;stroke-linejoin:bevel;marker:none;stroke-miterlimit:4;stroke-dasharray:none;stroke-dashoffset:0;stroke-opacity:1;visibility:visible;display:inline;overflow:visible"
     id="path3992" /><path
     d="M 400.5625,463.375 L 400.1875,466.90625 L 400.6875,466.90625 L 401.0625,463.375 L 400.5625,463.375 z M 401.375,463.375 L 401.03125,466.90625 L 401.53125,466.90625 L 401.875,463.375 L 401.375,463.375 z M 402.21875,463.375 L 401.875,466.90625 L 402.375,466.90625 L 402.71875,463.375 L 402.21875,463.375 z M 403.03125,463.375 L 402.6875,466.90625 L 403.1875,466.90625 L 403.5625,463.40625 L 403.03125,463.375 z M 403.875,463.40625 L 403.53125,466.9375 L 404.03125,466.9375 L 404.375,463.40625 L 403.875,463.40625 z M 404.71875,463.40625 L 404.375,466.9375 L 404.875,466.9375 L 405.21875,463.40625 L 404.71875,463.40625 z M 405.53125,463.40625 L 405.1875,466.9375 L 405.6875,466.9375 L 405.96875,464.21875 L 405.625,463.40625 L 405.53125,463.40625 z M 400.1875,463.65625 L 399.65625,464.125 L 399.375,466.875 L 399.875,466.90625 L 400.1875,463.65625 z M 399.28125,464.4375 L 398.71875,464.875 L 398.53125,466.875 L 399.03125,466.875 L 399.28125,464.4375 z M 406.25,464.84375 L 406.03125,466.9375 L 406.53125,466.9375 L 406.65625,465.8125 L 406.25,464.84375 z M 398.375,465.1875 L 397.8125,465.65625 L 397.6875,466.875 L 398.1875,466.875 L 398.375,465.1875 z M 397.46875,465.96875 L 396.90625,466.40625 L 396.875,466.875 L 397.375,466.875 L 397.46875,465.96875 z M 396.53125,466.71875 L 396.375,466.875 L 396.53125,466.875 L 396.53125,466.71875 z "
     style="opacity:1;fill:black;fill-opacity:1;fill-rule:evenodd;stroke:none;stroke-width:0.5;stroke-linecap:butt;stroke-linejoin:bevel;marker:none;stroke-miterlimit:4;stroke-dasharray:none;stroke-dashoffset:0;stroke-opacity:1;visibility:visible;display:inline;overflow:visible"
     id="path4046" /><path
     d="M 405.71875,462.59375 L 405.875,463.96875 L 406.53125,465.5625 L 406.21875,462.71875 L 405.71875,462.59375 z M 406.875,462.84375 L 407.375,467.53125 L 407.9375,468.875 L 408.03125,468.90625 L 407.375,462.96875 L 406.875,462.84375 z M 408.03125,463.125 L 408.6875,469.03125 L 409.21875,469.15625 L 408.5625,463.25 L 408.03125,463.125 z M 409.1875,463.375 L 409.84375,469.3125 L 410.375,469.4375 L 409.71875,463.5 L 409.1875,463.375 z M 410.375,463.65625 L 411.03125,469.5625 L 411.53125,469.6875 L 410.875,463.75 L 410.375,463.65625 z M 411.53125,463.90625 L 412.1875,469.84375 L 412.71875,469.96875 L 412.0625,464.03125 L 411.53125,463.90625 z M 412.6875,464.1875 L 413.34375,470.09375 L 413.875,470.21875 L 413.21875,464.28125 L 412.6875,464.1875 z M 413.875,464.4375 L 414.53125,470.375 L 415.0625,470.46875 L 414.40625,464.5625 L 413.875,464.4375 z M 415.03125,464.71875 L 415.6875,470.625 L 416.21875,470.75 L 415.5625,464.8125 L 415.03125,464.71875 z M 416.21875,464.96875 L 416.875,470.90625 L 417.375,471 L 416.71875,465.09375 L 416.21875,464.96875 z M 417.375,465.25 L 418.03125,471.15625 L 418.53125,471.28125 L 417.90625,465.34375 L 417.375,465.25 z M 418.53125,465.5 L 419.1875,471.4375 L 419.6875,471.53125 L 419.0625,465.625 L 418.53125,465.5 z M 419.71875,465.78125 L 420.375,471.6875 L 420.875,471.8125 L 420.21875,465.875 L 419.71875,465.78125 z M 420.875,466.03125 L 421.53125,471.9375 L 422.03125,472.0625 L 421.375,466.15625 L 420.875,466.03125 z M 422.0625,466.28125 L 422.71875,472.21875 L 423.21875,472.34375 L 422.5625,466.40625 L 422.0625,466.28125 z M 423.21875,466.5625 L 423.875,472.46875 L 424.375,472.59375 L 423.71875,466.6875 L 423.21875,466.5625 z M 424.375,466.8125 L 425.03125,472.75 L 425.53125,472.84375 L 424.875,466.9375 L 424.375,466.8125 z M 425.53125,467.09375 L 426.1875,473 L 426.71875,473.125 L 426.0625,467.21875 L 425.53125,467.09375 z M 426.6875,467.34375 L 427.34375,473.28125 L 427.875,473.375 L 427.21875,467.46875 L 426.6875,467.34375 z M 427.875,467.625 L 428.53125,473.53125 L 429.0625,473.65625 L 428.40625,467.75 L 427.875,467.625 z M 429.03125,467.875 L 429.6875,473.8125 L 430.21875,473.90625 L 429.5625,468 L 429.03125,467.875 z M 430.21875,468.15625 L 430.875,474.0625 L 431.375,474.1875 L 430.71875,468.25 L 430.21875,468.15625 z M 431.375,468.40625 L 432.03125,474.34375 L 432.5625,474.4375 L 431.90625,468.53125 L 431.375,468.40625 z M 432.53125,468.65625 L 433.1875,474.59375 L 433.71875,474.71875 L 433.0625,468.78125 L 432.53125,468.65625 z M 433.71875,468.9375 L 434.375,474.875 L 434.90625,474.96875 L 434.25,469.0625 L 433.71875,468.9375 z M 434.875,469.1875 L 435.53125,475.125 L 436.03125,475.25 L 435.40625,469.3125 L 434.875,469.1875 z M 436.0625,469.46875 L 436.71875,475.40625 L 437.21875,475.5 L 436.59375,469.59375 L 436.0625,469.46875 z M 437.21875,469.71875 L 437.875,475.65625 L 438.375,475.78125 L 437.71875,469.84375 L 437.21875,469.71875 z M 438.375,470 L 439.03125,475.90625 L 439.53125,476.03125 L 438.875,470.125 L 438.375,470 z M 439.5625,470.25 L 440.21875,476.1875 L 440.71875,476.3125 L 440.0625,470.375 L 439.5625,470.25 z "
     style="opacity:1;fill:black;fill-opacity:1;fill-rule:evenodd;stroke:none;stroke-width:0.5;stroke-linecap:butt;stroke-linejoin:bevel;marker:none;stroke-miterlimit:4;stroke-dasharray:none;stroke-dashoffset:0;stroke-opacity:1;visibility:visible;display:inline;overflow:visible"
     id="path4082" /><path
     d="M 461.59375,481.3125 L 461.09375,481.34375 L 461.28125,484.78125 L 461.78125,484.78125 L 461.59375,481.3125 z M 462.34375,481.3125 L 462.5625,484.8125 L 463.0625,484.8125 L 462.875,481.84375 L 462.34375,481.3125 z M 459.84375,481.34375 L 460.03125,484.75 L 460.53125,484.75 L 460.34375,481.34375 L 459.84375,481.34375 z M 457.875,481.375 L 457.375,481.40625 L 457.53125,484.6875 L 458.03125,484.6875 L 457.875,481.375 z M 458.625,481.375 L 458.78125,484.71875 L 459.28125,484.71875 L 459.125,481.375 L 458.625,481.375 z M 456.125,481.40625 L 456.28125,484.65625 L 456.78125,484.65625 L 456.625,481.40625 L 456.125,481.40625 z M 454.125,481.4375 L 453.625,481.46875 L 453.78125,484.59375 L 454.28125,484.59375 L 454.125,481.4375 z M 454.875,481.4375 L 455.03125,484.625 L 455.53125,484.625 L 455.375,481.4375 L 454.875,481.4375 z M 452.375,481.46875 L 452.53125,484.5625 L 453.03125,484.5625 L 452.875,481.46875 L 452.375,481.46875 z M 450.375,481.5 L 449.875,481.53125 L 450.03125,484.5 L 450.53125,484.53125 L 450.375,481.5 z M 451.125,481.5 L 451.28125,484.53125 L 451.78125,484.5625 L 451.625,481.5 L 451.125,481.5 z M 448.625,481.53125 L 448.78125,484.46875 L 449.28125,484.5 L 449.125,481.53125 L 448.625,481.53125 z M 446.625,481.5625 L 446.125,481.59375 L 446.28125,484.40625 L 446.78125,484.4375 L 446.625,481.5625 z M 447.375,481.5625 L 447.53125,484.4375 L 448.03125,484.46875 L 447.875,481.5625 L 447.375,481.5625 z M 444.875,481.59375 L 445.03125,484.375 L 445.53125,484.40625 L 445.375,481.59375 L 444.875,481.59375 z M 442.875,481.625 L 442.375,481.65625 L 442.53125,484.3125 L 443.03125,484.34375 L 442.875,481.625 z M 443.625,481.625 L 443.78125,484.34375 L 444.28125,484.375 L 444.125,481.625 L 443.625,481.625 z M 441.125,481.65625 L 441.28125,484.3125 L 441.78125,484.3125 L 441.625,481.65625 L 441.125,481.65625 z M 439.875,481.6875 L 440.03125,484.28125 L 440.53125,484.28125 L 440.375,481.6875 L 439.875,481.6875 z M 437.375,481.71875 L 437.5,484.21875 L 438,484.21875 L 437.875,481.71875 L 437.375,481.71875 z M 438.625,481.71875 L 438.78125,484.25 L 439.28125,484.25 L 439.125,481.71875 L 438.625,481.71875 z M 436.125,481.75 L 436.25,484.1875 L 436.75,484.1875 L 436.625,481.75 L 436.125,481.75 z M 433.625,481.78125 L 433.75,484.125 L 434.25,484.125 L 434.125,481.78125 L 433.625,481.78125 z M 434.875,481.78125 L 435,484.15625 L 435.5,484.15625 L 435.375,481.78125 L 434.875,481.78125 z M 432.375,481.8125 L 432.5,484.09375 L 433,484.09375 L 432.875,481.8125 L 432.375,481.8125 z M 430.375,481.84375 L 429.875,481.875 L 430,484.03125 L 430.5,484.03125 L 430.375,481.84375 z M 431.125,481.84375 L 431.25,484.0625 L 431.75,484.0625 L 431.625,481.84375 L 431.125,481.84375 z M 428.625,481.875 L 428.75,484 L 429.25,484 L 429.125,481.875 L 428.625,481.875 z M 426.625,481.90625 L 426.125,481.9375 L 426.25,483.9375 L 426.75,483.9375 L 426.625,481.90625 z M 427.375,481.90625 L 427.5,483.96875 L 428,483.96875 L 427.875,481.90625 L 427.375,481.90625 z M 424.90625,481.9375 L 425,483.90625 L 425.5,483.90625 L 425.40625,481.9375 L 424.90625,481.9375 z M 422.90625,481.96875 L 422.40625,482 L 422.5,483.84375 L 423,483.875 L 422.90625,481.96875 z M 423.65625,481.96875 L 423.75,483.875 L 424.25,483.90625 L 424.15625,481.96875 L 423.65625,481.96875 z M 421.15625,482 L 421.25,483.8125 L 421.75,483.84375 L 421.65625,482 L 421.15625,482 z M 419.15625,482.03125 L 418.65625,482.0625 L 418.75,483.75 L 419.25,483.78125 L 419.15625,482.03125 z M 419.90625,482.03125 L 420,483.78125 L 420.5,483.8125 L 420.40625,482.03125 L 419.90625,482.03125 z M 417.40625,482.0625 L 417.5,483.71875 L 418,483.75 L 417.90625,482.0625 L 417.40625,482.0625 z M 463.6875,482.625 L 463.8125,484.84375 L 464.3125,484.84375 L 464.21875,483.15625 L 463.6875,482.625 z M 465,483.9375 L 465.0625,484.875 L 465.5625,484.875 L 465.53125,484.4375 L 465,483.9375 z "
     style="opacity:1;fill:black;fill-opacity:1;fill-rule:evenodd;stroke:none;stroke-width:0.5;stroke-linecap:butt;stroke-linejoin:bevel;marker:none;stroke-miterlimit:4;stroke-dasharray:none;stroke-dashoffset:0;stroke-opacity:1;visibility:visible;display:inline;overflow:visible"
     id="path4158" /><path
     d="M 414.68022,484.96947 L 414.68022,496.04539 L 414.68022,484.96947 z "
     style="opacity:1;fill:#ffbd21;fill-opacity:1;fill-rule:evenodd;stroke:black;stroke-width:0.5;stroke-linecap:butt;stroke-linejoin:bevel;marker:none;marker-start:none;marker-mid:none;marker-end:none;stroke-miterlimit:4;stroke-dasharray:none;stroke-dashoffset:0;stroke-opacity:1;visibility:visible;display:inline;overflow:visible"
     id="path4273" /><path
     d="M 469.03125,499.3125 L 371.28125,499.3125 L 368.53125,503.03125 L 471.78125,503.03125 L 469.03125,499.3125 z "
     style="opacity:1;fill:#005a39;fill-opacity:1;fill-rule:evenodd;stroke:none;stroke-width:0.5;stroke-linecap:butt;stroke-linejoin:miter;marker:none;marker-start:none;marker-mid:none;marker-end:none;stroke-miterlimit:4;stroke-dasharray:none;stroke-dashoffset:0;stroke-opacity:1;visibility:visible;display:inline;overflow:visible"
     id="path3271" /><path
     d="M 374,495.625 L 371.28125,499.3125 L 469.03125,499.3125 L 466.3125,495.625 L 374,495.625 z "
     style="opacity:1;fill:#d6d6d6;fill-opacity:1;fill-rule:evenodd;stroke:none;stroke-width:0.5;stroke-linecap:butt;stroke-linejoin:miter;marker:none;marker-start:none;marker-mid:none;marker-end:none;stroke-miterlimit:4;stroke-dasharray:none;stroke-dashoffset:0;stroke-opacity:1;visibility:visible;display:inline;overflow:visible"
     id="rect3265" /><path
     d="M 404.21875,561.5 C 399.27456,561.5 397.56483,564.66362 394.59375,566.84375 C 397.24104,568.70626 400.1395,570.53343 403.3125,572.3125 C 403.60405,572.28744 403.90156,572.25 404.21875,572.25 C 409.06212,572.25 410.76407,575.29491 413.625,577.46875 C 415.10887,578.13632 416.63961,578.7864 418.21875,579.4375 C 418.81531,579.53143 419.45094,579.625 420.15625,579.625 C 420.86156,579.625 421.49719,579.53143 422.09375,579.4375 C 423.67289,578.7864 425.20363,578.13632 426.6875,577.46875 C 429.54843,575.2949 431.25038,572.24998 436.09375,572.25 C 436.41094,572.25 436.70845,572.28744 437,572.3125 C 440.173,570.53343 443.07146,568.70626 445.71875,566.84375 C 442.74767,564.66361 441.03794,561.49999 436.09375,561.5 C 428.56832,561.5 428.61074,568.87499 420.15625,568.875 C 411.70176,568.875 411.74418,561.49998 404.21875,561.5 z "
     style="opacity:1;fill:#0073bd;fill-opacity:1;fill-rule:evenodd;stroke:none;stroke-width:1;stroke-linecap:butt;stroke-linejoin:bevel;marker:none;marker-start:none;marker-mid:none;marker-end:none;stroke-miterlimit:4;stroke-dasharray:none;stroke-dashoffset:0;stroke-opacity:1;visibility:visible;display:inline;overflow:visible"
     id="path4439" /><path
     d="M 372.3125,504.40625 C 369.81397,504.40625 368.13895,505.19699 366.71875,506.28125 C 366.72466,509.7367 366.77873,513.24823 367,516.8125 C 368.35831,515.83708 369.98113,515.15624 372.3125,515.15625 C 379.83793,515.15625 379.79551,522.49998 388.25,522.5 C 396.70449,522.5 396.69332,515.15623 404.21875,515.15625 C 411.74418,515.15625 411.70176,522.49998 420.15625,522.5 C 428.61074,522.5 428.56832,515.15623 436.09375,515.15625 C 443.61918,515.15625 443.60801,522.49998 452.0625,522.5 C 460.51699,522.5 460.47457,515.15623 468,515.15625 C 470.33137,515.15625 471.95419,515.83708 473.3125,516.8125 C 473.53377,513.24823 473.58783,509.7367 473.59375,506.28125 C 472.17355,505.19699 470.49854,504.40625 468,504.40625 C 460.47457,504.40625 460.51699,511.74999 452.0625,511.75 C 443.60801,511.75 443.61918,504.40624 436.09375,504.40625 C 428.56832,504.40625 428.61074,511.74999 420.15625,511.75 C 411.70176,511.75 411.74418,504.40624 404.21875,504.40625 C 396.69332,504.40625 396.70449,511.74999 388.25,511.75 C 379.79551,511.75 379.83793,504.40624 372.3125,504.40625 z "
     style="opacity:1;fill:#0073bd;fill-opacity:1;fill-rule:evenodd;stroke:none;stroke-width:1;stroke-linecap:butt;stroke-linejoin:bevel;marker:none;marker-start:none;marker-mid:none;marker-end:none;stroke-miterlimit:4;stroke-dasharray:none;stroke-dashoffset:0;stroke-opacity:1;visibility:visible;display:inline;overflow:visible"
     id="path4419" /><path
     d="M 372.3125,523.4375 C 370.43114,523.4375 369.00026,523.90351 367.8125,524.59375 C 368.29295,527.87517 368.97332,531.18635 369.96875,534.46875 C 370.66596,534.29207 371.43551,534.1875 372.3125,534.1875 C 379.83793,534.1875 379.79551,541.53126 388.25,541.53125 C 396.70449,541.53125 396.69332,534.18751 404.21875,534.1875 C 411.74418,534.1875 411.70176,541.53126 420.15625,541.53125 C 428.61074,541.53125 428.56832,534.18751 436.09375,534.1875 C 443.61918,534.1875 443.60801,541.53126 452.0625,541.53125 C 460.51699,541.53125 460.47457,534.18751 468,534.1875 C 468.87699,534.1875 469.64654,534.29207 470.34375,534.46875 C 471.33918,531.18635 472.01955,527.87517 472.5,524.59375 C 471.31224,523.90351 469.88136,523.4375 468,523.4375 C 460.47457,523.4375 460.51699,530.78127 452.0625,530.78125 C 443.60801,530.78125 443.61918,523.43752 436.09375,523.4375 C 428.56832,523.4375 428.61074,530.78127 420.15625,530.78125 C 411.70176,530.78125 411.74418,523.43752 404.21875,523.4375 C 396.69332,523.4375 396.70449,530.78127 388.25,530.78125 C 379.79551,530.78125 379.83793,523.43752 372.3125,523.4375 z "
     style="opacity:1;fill:#0073bd;fill-opacity:1;fill-rule:evenodd;stroke:none;stroke-width:1;stroke-linecap:butt;stroke-linejoin:bevel;marker:none;marker-start:none;marker-mid:none;marker-end:none;stroke-miterlimit:4;stroke-dasharray:none;stroke-dashoffset:0;stroke-opacity:1;visibility:visible;display:inline;overflow:visible"
     id="path4443" /><path
     d="M 404.21875,542.46875 C 396.69332,542.46875 396.70449,549.81252 388.25,549.8125 C 380.11023,549.8125 379.81903,543.03936 373.09375,542.53125 C 376.03926,548.67384 380.32228,554.71619 386.59375,560.46875 C 387.10765,560.53577 387.65858,560.59375 388.25,560.59375 C 396.70449,560.59375 396.69332,553.21876 404.21875,553.21875 C 411.74418,553.21875 411.70176,560.59376 420.15625,560.59375 C 428.61074,560.59375 428.56832,553.21876 436.09375,553.21875 C 443.61918,553.21875 443.60801,560.59376 452.0625,560.59375 C 452.65392,560.59375 453.20486,560.53577 453.71875,560.46875 C 459.99022,554.71619 464.27324,548.67384 467.21875,542.53125 C 460.49346,543.03934 460.20227,549.81252 452.0625,549.8125 C 443.60801,549.8125 443.61918,542.46877 436.09375,542.46875 C 428.56832,542.46875 428.61074,549.81252 420.15625,549.8125 C 411.70176,549.8125 411.74418,542.46877 404.21875,542.46875 z "
     style="opacity:1;fill:#0073bd;fill-opacity:1;fill-rule:evenodd;stroke:none;stroke-width:1;stroke-linecap:butt;stroke-linejoin:bevel;marker:none;marker-start:none;marker-mid:none;marker-end:none;stroke-miterlimit:4;stroke-dasharray:none;stroke-dashoffset:0;stroke-opacity:1;visibility:visible;display:inline;overflow:visible"
     id="path4441" /><path
     d="M 366.71875,438.0625 L 366.71875,498.90625 C 366.71875,525.46406 364.24617,558.01266 420.15625,580.25 C 476.06633,558.01266 473.59374,525.46406 473.59375,498.90625 L 473.59375,438.0625 L 366.71875,438.0625 z "
     style="opacity:1;fill:none;fill-opacity:0.50196078;fill-rule:evenodd;stroke:black;stroke-width:0.5;stroke-linecap:butt;stroke-linejoin:miter;marker:none;marker-start:none;marker-mid:none;marker-end:none;stroke-miterlimit:4;stroke-dasharray:none;stroke-dashoffset:0;stroke-opacity:1;visibility:visible;display:inline;overflow:visible"
     id="path2930" /><g
     id="g4526"><path
       d="M 340.78894,433.73377 C 340.85648,432.32502 343.06649,426.52872 345.09798,426.05244 C 344.82014,424.00501 349.10083,414.88282 351.70257,418.06228 C 351.96649,416.25982 354.12128,411.38303 360.2733,412.37592 C 367.99813,411.50478 368.72331,419.54403 364.39499,420.994 C 365.08957,424.70768 360.06816,426.52583 357.65041,426.23979 C 357.02591,427.85696 351.92355,436.49644 349.59437,433.35907 C 347.36421,434.17926 344.71223,437.68036 342.28774,438.40378 C 341.53833,436.90498 341.53835,435.79462 342.28774,434.29582 L 340.78894,433.73377 z "
       style="opacity:1;fill:#005a39;fill-opacity:1;fill-rule:evenodd;stroke:black;stroke-width:0.5;stroke-linecap:butt;stroke-linejoin:bevel;marker:none;marker-start:none;marker-mid:none;marker-end:none;stroke-miterlimit:4;stroke-dasharray:none;stroke-dashoffset:0;stroke-opacity:1;visibility:visible;display:inline;overflow:visible"
       id="path4457" /><path
       d="M 345.12153,426.89012 C 345.09751,430.40967 343.3903,432.1669 341.04299,433.10502 C 343.48336,431.03339 344.47059,428.96175 345.12153,426.89012 z "
       style="opacity:1;fill:#003108;fill-opacity:1;fill-rule:evenodd;stroke:none;stroke-width:0.25;stroke-linecap:butt;stroke-linejoin:bevel;marker:none;marker-start:none;marker-mid:none;marker-end:none;stroke-miterlimit:4;stroke-dasharray:none;stroke-dashoffset:0;stroke-opacity:1;visibility:visible;display:inline;overflow:visible"
       id="path4459" /><path
       d="M 345.70418,427.27855 C 345.68016,430.7981 343.97295,432.55533 341.62564,433.49345 C 344.06601,431.42182 345.05324,429.35018 345.70418,427.27855 z "
       style="opacity:1;fill:#003108;fill-opacity:1;fill-rule:evenodd;stroke:none;stroke-width:0.25;stroke-linecap:butt;stroke-linejoin:bevel;marker:none;marker-start:none;marker-mid:none;marker-end:none;stroke-miterlimit:4;stroke-dasharray:none;stroke-dashoffset:0;stroke-opacity:1;visibility:visible;display:inline;overflow:visible"
       id="path4461" /><path
       d="M 346.18972,427.8612 C 346.1657,431.38075 344.45849,433.13798 342.11118,434.0761 C 344.55155,432.00447 345.53878,429.93283 346.18972,427.8612 z "
       style="opacity:1;fill:#003108;fill-opacity:1;fill-rule:evenodd;stroke:none;stroke-width:0.25;stroke-linecap:butt;stroke-linejoin:bevel;marker:none;marker-start:none;marker-mid:none;marker-end:none;stroke-miterlimit:4;stroke-dasharray:none;stroke-dashoffset:0;stroke-opacity:1;visibility:visible;display:inline;overflow:visible"
       id="path4463" /><path
       d="M 346.67526,428.44385 C 346.65124,431.9634 344.94403,433.72063 342.59672,434.65875 C 345.03709,432.58712 346.02432,430.51548 346.67526,428.44385 z "
       style="opacity:1;fill:#003108;fill-opacity:1;fill-rule:evenodd;stroke:none;stroke-width:0.25;stroke-linecap:butt;stroke-linejoin:bevel;marker:none;marker-start:none;marker-mid:none;marker-end:none;stroke-miterlimit:4;stroke-dasharray:none;stroke-dashoffset:0;stroke-opacity:1;visibility:visible;display:inline;overflow:visible"
       id="path4465" /><path
       d="M 344.92731,426.30748 C 344.68679,429.35794 343.09898,431.44258 340.75167,432.8137 C 342.8312,430.70599 343.7712,428.34303 344.92731,426.30748 z "
       style="opacity:1;fill:#003108;fill-opacity:1;fill-rule:evenodd;stroke:none;stroke-width:0.25;stroke-linecap:butt;stroke-linejoin:bevel;marker:none;marker-start:none;marker-mid:none;marker-end:none;stroke-miterlimit:4;stroke-dasharray:none;stroke-dashoffset:0;stroke-opacity:1;visibility:visible;display:inline;overflow:visible"
       id="path4467" /><path
       d="M 350.72724,418.83653 C 350.69895,422.98112 348.68856,425.05041 345.92439,426.15513 C 348.79815,423.7156 349.9607,421.27606 350.72724,418.83653 z "
       style="opacity:1;fill:#003108;fill-opacity:1;fill-rule:evenodd;stroke:none;stroke-width:0.25;stroke-linecap:butt;stroke-linejoin:bevel;marker:none;marker-start:none;marker-mid:none;marker-end:none;stroke-miterlimit:4;stroke-dasharray:none;stroke-dashoffset:0;stroke-opacity:1;visibility:visible;display:inline;overflow:visible"
       id="path4482" /><path
       d="M 351.41336,419.29394 C 351.38508,423.43853 349.37468,425.50782 346.61051,426.61255 C 349.48427,424.17301 350.64682,421.73347 351.41336,419.29394 z "
       style="opacity:1;fill:#003108;fill-opacity:1;fill-rule:evenodd;stroke:none;stroke-width:0.25;stroke-linecap:butt;stroke-linejoin:bevel;marker:none;marker-start:none;marker-mid:none;marker-end:none;stroke-miterlimit:4;stroke-dasharray:none;stroke-dashoffset:0;stroke-opacity:1;visibility:visible;display:inline;overflow:visible"
       id="path4484" /><path
       d="M 351.98513,419.98006 C 351.95684,424.12465 349.94645,426.19395 347.18228,427.29867 C 350.05604,424.85914 351.21859,422.41959 351.98513,419.98006 z "
       style="opacity:1;fill:#003108;fill-opacity:1;fill-rule:evenodd;stroke:none;stroke-width:0.25;stroke-linecap:butt;stroke-linejoin:bevel;marker:none;marker-start:none;marker-mid:none;marker-end:none;stroke-miterlimit:4;stroke-dasharray:none;stroke-dashoffset:0;stroke-opacity:1;visibility:visible;display:inline;overflow:visible"
       id="path4486" /><path
       d="M 352.5569,420.66619 C 352.52861,424.81077 350.51822,426.88007 347.75405,427.98479 C 350.6278,425.54526 351.79035,423.10572 352.5569,420.66619 z "
       style="opacity:1;fill:#003108;fill-opacity:1;fill-rule:evenodd;stroke:none;stroke-width:0.25;stroke-linecap:butt;stroke-linejoin:bevel;marker:none;marker-start:none;marker-mid:none;marker-end:none;stroke-miterlimit:4;stroke-dasharray:none;stroke-dashoffset:0;stroke-opacity:1;visibility:visible;display:inline;overflow:visible"
       id="path4488" /><path
       d="M 350.49853,418.15042 C 350.21529,421.74261 348.3455,424.19746 345.58133,425.81208 C 348.03017,423.33006 349.1371,420.54746 350.49853,418.15042 z "
       style="opacity:1;fill:#003108;fill-opacity:1;fill-rule:evenodd;stroke:none;stroke-width:0.25;stroke-linecap:butt;stroke-linejoin:bevel;marker:none;marker-start:none;marker-mid:none;marker-end:none;stroke-miterlimit:4;stroke-dasharray:none;stroke-dashoffset:0;stroke-opacity:1;visibility:visible;display:inline;overflow:visible"
       id="path4490" /><path
       d="M 358.06239,412.89056 C 357.10348,416.9228 354.67951,418.4874 351.73779,418.94272 C 355.08625,417.21136 356.76726,415.09545 358.06239,412.89056 z "
       style="opacity:1;fill:#003108;fill-opacity:1;fill-rule:evenodd;stroke:none;stroke-width:0.25;stroke-linecap:butt;stroke-linejoin:bevel;marker:none;marker-start:none;marker-mid:none;marker-end:none;stroke-miterlimit:4;stroke-dasharray:none;stroke-dashoffset:0;stroke-opacity:1;visibility:visible;display:inline;overflow:visible"
       id="path4492" /><path
       d="M 358.62818,413.49046 C 357.66928,417.52269 355.2453,419.0873 352.30357,419.54263 C 355.65203,417.81125 357.33305,415.69534 358.62818,413.49046 z "
       style="opacity:1;fill:#003108;fill-opacity:1;fill-rule:evenodd;stroke:none;stroke-width:0.25;stroke-linecap:butt;stroke-linejoin:bevel;marker:none;marker-start:none;marker-mid:none;marker-end:none;stroke-miterlimit:4;stroke-dasharray:none;stroke-dashoffset:0;stroke-opacity:1;visibility:visible;display:inline;overflow:visible"
       id="path4494" /><path
       d="M 359.03115,414.28751 C 358.07223,418.31975 355.64826,419.88436 352.70654,420.33968 C 356.055,418.60832 357.73601,416.4924 359.03115,414.28751 z "
       style="opacity:1;fill:#003108;fill-opacity:1;fill-rule:evenodd;stroke:none;stroke-width:0.25;stroke-linecap:butt;stroke-linejoin:bevel;marker:none;marker-start:none;marker-mid:none;marker-end:none;stroke-miterlimit:4;stroke-dasharray:none;stroke-dashoffset:0;stroke-opacity:1;visibility:visible;display:inline;overflow:visible"
       id="path4496" /><path
       d="M 359.43411,415.08458 C 358.4752,419.1168 356.05123,420.68142 353.10951,421.13674 C 356.45795,419.40537 358.13897,417.28946 359.43411,415.08458 z "
       style="opacity:1;fill:#003108;fill-opacity:1;fill-rule:evenodd;stroke:none;stroke-width:0.25;stroke-linecap:butt;stroke-linejoin:bevel;marker:none;marker-start:none;marker-mid:none;marker-end:none;stroke-miterlimit:4;stroke-dasharray:none;stroke-dashoffset:0;stroke-opacity:1;visibility:visible;display:inline;overflow:visible"
       id="path4498" /><path
       d="M 357.99371,412.17061 C 356.9105,415.60728 354.53689,417.57918 351.48059,418.53136 C 354.42454,416.6631 356.12845,414.20041 357.99371,412.17061 z "
       style="opacity:1;fill:#003108;fill-opacity:1;fill-rule:evenodd;stroke:none;stroke-width:0.25;stroke-linecap:butt;stroke-linejoin:bevel;marker:none;marker-start:none;marker-mid:none;marker-end:none;stroke-miterlimit:4;stroke-dasharray:none;stroke-dashoffset:0;stroke-opacity:1;visibility:visible;display:inline;overflow:visible"
       id="path4500" /><path
       d="M 362.88516,420.61793 C 358.75136,420.9181 356.81843,423.05993 355.89745,425.89062 C 358.14317,422.86299 360.50117,421.54288 362.88516,420.61793 z "
       style="opacity:1;fill:#003108;fill-opacity:1;fill-rule:evenodd;stroke:none;stroke-width:0.25;stroke-linecap:butt;stroke-linejoin:bevel;marker:none;marker-start:none;marker-mid:none;marker-end:none;stroke-miterlimit:4;stroke-dasharray:none;stroke-dashoffset:0;stroke-opacity:1;visibility:visible;display:inline;overflow:visible"
       id="path4502" /><path
       d="M 362.3837,419.9633 C 358.24991,420.26345 356.31698,422.40529 355.39599,425.236 C 357.64172,422.20836 359.99974,420.88825 362.3837,419.9633 z "
       style="opacity:1;fill:#003108;fill-opacity:1;fill-rule:evenodd;stroke:none;stroke-width:0.25;stroke-linecap:butt;stroke-linejoin:bevel;marker:none;marker-start:none;marker-mid:none;marker-end:none;stroke-miterlimit:4;stroke-dasharray:none;stroke-dashoffset:0;stroke-opacity:1;visibility:visible;display:inline;overflow:visible"
       id="path4504" /><path
       d="M 361.66156,419.43778 C 357.52775,419.73795 355.59482,421.87978 354.67384,424.71047 C 356.91956,421.68284 359.27757,420.36274 361.66156,419.43778 z "
       style="opacity:1;fill:#003108;fill-opacity:1;fill-rule:evenodd;stroke:none;stroke-width:0.25;stroke-linecap:butt;stroke-linejoin:bevel;marker:none;marker-start:none;marker-mid:none;marker-end:none;stroke-miterlimit:4;stroke-dasharray:none;stroke-dashoffset:0;stroke-opacity:1;visibility:visible;display:inline;overflow:visible"
       id="path4506" /><path
       d="M 360.93938,418.91226 C 356.80559,419.21243 354.87267,421.35426 353.95168,424.18495 C 356.19741,421.15734 358.55541,419.83722 360.93938,418.91226 z "
       style="opacity:1;fill:#003108;fill-opacity:1;fill-rule:evenodd;stroke:none;stroke-width:0.25;stroke-linecap:butt;stroke-linejoin:bevel;marker:none;marker-start:none;marker-mid:none;marker-end:none;stroke-miterlimit:4;stroke-dasharray:none;stroke-dashoffset:0;stroke-opacity:1;visibility:visible;display:inline;overflow:visible"
       id="path4508" /><path
       d="M 363.58478,420.80113 C 360.01893,421.31945 357.69204,423.34628 356.26227,426.21044 C 358.57828,423.60403 361.28224,422.3169 363.58478,420.80113 z "
       style="opacity:1;fill:#003108;fill-opacity:1;fill-rule:evenodd;stroke:none;stroke-width:0.25;stroke-linecap:butt;stroke-linejoin:bevel;marker:none;marker-start:none;marker-mid:none;marker-end:none;stroke-miterlimit:4;stroke-dasharray:none;stroke-dashoffset:0;stroke-opacity:1;visibility:visible;display:inline;overflow:visible"
       id="path4510" /><path
       d="M 356.11442,426.65205 C 352.10583,427.70544 350.5986,430.1655 350.21251,433.1171 C 351.86473,429.72889 353.94055,427.99863 356.11442,426.65205 z "
       style="opacity:1;fill:#003108;fill-opacity:1;fill-rule:evenodd;stroke:none;stroke-width:0.25;stroke-linecap:butt;stroke-linejoin:bevel;marker:none;marker-start:none;marker-mid:none;marker-end:none;stroke-miterlimit:4;stroke-dasharray:none;stroke-dashoffset:0;stroke-opacity:1;visibility:visible;display:inline;overflow:visible"
       id="path4512" /><path
       d="M 355.50138,426.10052 C 351.4928,427.15388 349.98557,429.61396 349.59948,432.56558 C 351.2517,429.17736 353.32755,427.44709 355.50138,426.10052 z "
       style="opacity:1;fill:#003108;fill-opacity:1;fill-rule:evenodd;stroke:none;stroke-width:0.25;stroke-linecap:butt;stroke-linejoin:bevel;marker:none;marker-start:none;marker-mid:none;marker-end:none;stroke-miterlimit:4;stroke-dasharray:none;stroke-dashoffset:0;stroke-opacity:1;visibility:visible;display:inline;overflow:visible"
       id="path4514" /><path
       d="M 354.69509,425.71639 C 350.68649,426.76978 349.17926,429.22984 348.79318,432.18144 C 350.4454,428.79323 352.52123,427.06297 354.69509,425.71639 z "
       style="opacity:1;fill:#003108;fill-opacity:1;fill-rule:evenodd;stroke:none;stroke-width:0.25;stroke-linecap:butt;stroke-linejoin:bevel;marker:none;marker-start:none;marker-mid:none;marker-end:none;stroke-miterlimit:4;stroke-dasharray:none;stroke-dashoffset:0;stroke-opacity:1;visibility:visible;display:inline;overflow:visible"
       id="path4516" /><path
       d="M 353.88876,425.33226 C 349.88019,426.38565 348.37297,428.84571 347.98687,431.79731 C 349.6391,428.40912 351.71492,426.67885 353.88876,425.33226 z "
       style="opacity:1;fill:#003108;fill-opacity:1;fill-rule:evenodd;stroke:none;stroke-width:0.25;stroke-linecap:butt;stroke-linejoin:bevel;marker:none;marker-start:none;marker-mid:none;marker-end:none;stroke-miterlimit:4;stroke-dasharray:none;stroke-dashoffset:0;stroke-opacity:1;visibility:visible;display:inline;overflow:visible"
       id="path4518" /><path
       d="M 356.83577,426.70381 C 353.42551,427.86745 351.50991,430.28674 350.62981,433.36457 C 352.42839,430.37754 354.85036,428.61624 356.83577,426.70381 z "
       style="opacity:1;fill:#003108;fill-opacity:1;fill-rule:evenodd;stroke:none;stroke-width:0.25;stroke-linecap:butt;stroke-linejoin:bevel;marker:none;marker-start:none;marker-mid:none;marker-end:none;stroke-miterlimit:4;stroke-dasharray:none;stroke-dashoffset:0;stroke-opacity:1;visibility:visible;display:inline;overflow:visible"
       id="path4520" /><path
       d="M 349.9952,432.6849 C 345.85401,432.8553 343.85487,434.93547 342.84559,437.73589 C 345.18514,434.78016 347.58338,433.53465 349.9952,432.6849 z "
       style="opacity:1;fill:#003108;fill-opacity:1;fill-rule:evenodd;stroke:none;stroke-width:0.25;stroke-linecap:butt;stroke-linejoin:bevel;marker:none;marker-start:none;marker-mid:none;marker-end:none;stroke-miterlimit:4;stroke-dasharray:none;stroke-dashoffset:0;stroke-opacity:1;visibility:visible;display:inline;overflow:visible"
       id="path4522" /><path
       d="M 349.28985,432.13699 C 345.14869,432.3074 343.14956,434.38756 342.14026,437.18798 C 344.47982,434.23228 346.87805,432.98675 349.28985,432.13699 z "
       style="opacity:1;fill:#003108;fill-opacity:1;fill-rule:evenodd;stroke:none;stroke-width:0.25;stroke-linecap:butt;stroke-linejoin:bevel;marker:none;marker-start:none;marker-mid:none;marker-end:none;stroke-miterlimit:4;stroke-dasharray:none;stroke-dashoffset:0;stroke-opacity:1;visibility:visible;display:inline;overflow:visible"
       id="path4524" /></g><use
     transform="matrix(7.638784e-2,0.997078,0.997078,-7.638784e-2,-29.38142,103.2475)"
     id="use4556"
     x="0"
     y="0"
     width="744.09448"
     height="1052.3622"
     xlink:href="#g4526" /><g
     id="g4610"><path
       d="M 370.40625,423.5 C 370.09819,423.80649 369.90248,424.18147 369.84375,424.5625 C 369.8258,424.67893 369.8362,424.78871 369.84375,424.90625 C 371.84585,424.74715 373.4191,426.92273 376.0625,427.65625 C 380.08179,428.77157 384.81249,428.76799 384.8125,426.5625 C 384.8125,423.143 375.92873,423.71668 370.40625,423.5 z "
       style="opacity:1;fill:#f7ad00;fill-opacity:1;fill-rule:evenodd;stroke:none;stroke-width:0.5;stroke-linecap:butt;stroke-linejoin:bevel;marker:none;marker-start:none;marker-mid:none;marker-end:none;stroke-miterlimit:4;stroke-dasharray:none;stroke-dashoffset:0;stroke-opacity:1;visibility:visible;display:inline;overflow:visible"
       id="path4560" /><path
       d="M 408.52514,422.3182 C 408.52514,419.4054 380.15111,409.943 366.10664,422.47023 C 366.76308,424.9201 384.80727,421.72098 384.80727,426.57525 C 384.80727,428.78075 380.08605,428.78402 376.06676,427.6687 C 372.429,426.65925 370.5808,420.51349 367.32294,426.27117 C 377.84446,437.01743 408.52514,425.79036 408.52514,422.3182 z "
       style="opacity:1;fill:#ffc673;fill-opacity:1;fill-rule:evenodd;stroke:none;stroke-width:0.5;stroke-linecap:butt;stroke-linejoin:bevel;marker:none;marker-start:none;marker-mid:none;marker-end:none;stroke-miterlimit:4;stroke-dasharray:none;stroke-dashoffset:0;stroke-opacity:1;visibility:visible;display:inline;overflow:visible"
       id="path4558" /><path
       d="M 403.875,419.34375 C 403.25069,420.28277 402.90625,421.41364 402.90625,422.625 C 402.90625,423.78745 403.23374,424.86574 403.8125,425.78125 C 406.69342,424.45181 408.53125,423.15408 408.53125,422.3125 C 408.53125,421.5843 406.75451,420.44473 403.875,419.34375 z "
       style="opacity:1;fill:#ef1829;fill-opacity:1;fill-rule:evenodd;stroke:none;stroke-width:0.5;stroke-linecap:butt;stroke-linejoin:bevel;marker:none;marker-start:none;marker-mid:none;marker-end:none;stroke-miterlimit:4;stroke-dasharray:none;stroke-dashoffset:0;stroke-opacity:1;visibility:visible;display:inline;overflow:visible"
       id="path4565" /><path
       d="M 371.64112,421.69336 C 371.64196,422.06267 371.26649,422.40411 370.65634,422.58889 C 370.04618,422.77367 369.29421,422.77367 368.68405,422.58889 C 368.0739,422.40411 367.69843,422.06267 367.69927,421.69336 C 367.69843,421.32405 368.0739,420.98261 368.68405,420.79783 C 369.29421,420.61305 370.04618,420.61305 370.65634,420.79783 C 371.26649,420.98261 371.64196,421.32405 371.64112,421.69336 L 371.64112,421.69336 z "
       transform="matrix(0.958534,-0.284977,0.284977,0.958534,-104.5856,122.9753)"
       style="opacity:1;fill:#ff7b29;fill-opacity:1;fill-rule:evenodd;stroke:none;stroke-width:0.5;stroke-linecap:butt;stroke-linejoin:bevel;marker:none;marker-start:none;marker-mid:none;marker-end:none;stroke-miterlimit:4;stroke-dasharray:none;stroke-dashoffset:0;stroke-opacity:1;visibility:visible;display:inline;overflow:visible"
       id="path4572" /><use
       transform="translate(5.304642,0)"
       id="use4574"
       x="0"
       y="0"
       width="744.09448"
       height="1052.3622"
       xlink:href="#path4572" /><use
       transform="translate(9.385137,-2.448297)"
       id="use4576"
       x="0"
       y="0"
       width="744.09448"
       height="1052.3622"
       xlink:href="#path4572" /><use
       transform="translate(12.03746,-0.204025)"
       id="use4578"
       x="0"
       y="0"
       width="744.09448"
       height="1052.3622"
       xlink:href="#path4572" /><use
       transform="translate(14.79179,-4.386531)"
       id="use4580"
       x="0"
       y="0"
       width="744.09448"
       height="1052.3622"
       xlink:href="#path4572" /><use
       transform="translate(19.99442,-3.978482)"
       id="use4582"
       x="0"
       y="0"
       width="744.09448"
       height="1052.3622"
       xlink:href="#path4572" /><use
       transform="translate(19.07631,-0.408049)"
       id="use4584"
       x="0"
       y="0"
       width="744.09448"
       height="1052.3622"
       xlink:href="#path4572" /><use
       transform="translate(26.31919,-1.836222)"
       id="use4586"
       x="0"
       y="0"
       width="744.09448"
       height="1052.3622"
       xlink:href="#path4572" /><use
       transform="translate(23.76888,0.918111)"
       id="use4588"
       x="0"
       y="0"
       width="744.09448"
       height="1052.3622"
       xlink:href="#path4572" /><use
       transform="translate(30.19566,1.224148)"
       id="use4590"
       x="0"
       y="0"
       width="744.09448"
       height="1052.3622"
       xlink:href="#path4572" /><use
       transform="matrix(0.837843,0.545911,-0.545911,0.837843,317.304,-130.5864)"
       id="use4592"
       x="0"
       y="0"
       width="744.09448"
       height="1052.3622"
       xlink:href="#path4572" /><use
       transform="matrix(0.837843,0.545911,-0.545911,0.837843,313.7336,-128.8522)"
       id="use4594"
       x="0"
       y="0"
       width="744.09448"
       height="1052.3622"
       xlink:href="#path4572" /><use
       transform="matrix(0.837843,0.545911,-0.545911,0.837843,309.041,-129.8723)"
       id="use4596"
       x="0"
       y="0"
       width="744.09448"
       height="1052.3622"
       xlink:href="#path4572" /><use
       transform="matrix(0.837843,0.545911,-0.545911,0.837843,309.4491,-126.7099)"
       id="use4598"
       x="0"
       y="0"
       width="744.09448"
       height="1052.3622"
       xlink:href="#path4572" /><use
       transform="matrix(0.837843,0.545911,-0.545911,0.837843,292.005,-127.526)"
       id="use4600"
       x="0"
       y="0"
       width="744.09448"
       height="1052.3622"
       xlink:href="#path4572" /><use
       transform="matrix(0.940064,0.340999,-0.340999,0.940064,181.5232,-99.22981)"
       id="use4604"
       x="0"
       y="0"
       width="744.09448"
       height="1052.3622"
       xlink:href="#path4572" /><path
       d="M 408.52514,422.3182 C 408.52514,419.4054 380.15111,409.943 366.10664,422.47023 C 366.76308,424.9201 384.80727,421.72098 384.80727,426.57525 C 384.80727,428.78075 380.08605,428.78402 376.06676,427.6687 C 372.429,426.65925 370.5808,420.51349 367.32294,426.27117 C 377.84446,437.01743 408.52514,425.79036 408.52514,422.3182 z "
       style="opacity:1;fill:none;fill-opacity:1;fill-rule:evenodd;stroke:black;stroke-width:0.5;stroke-linecap:butt;stroke-linejoin:bevel;marker:none;marker-start:none;marker-mid:none;marker-end:none;stroke-miterlimit:4;stroke-dasharray:none;stroke-dashoffset:0;stroke-opacity:1;visibility:visible;display:inline;overflow:visible"
       id="path4608" /></g><use
     transform="translate(63.19665,1.07113)"
     id="use4632"
     x="0"
     y="0"
     width="744.09448"
     height="1052.3622"
     xlink:href="#g4610" /><use
     transform="matrix(0.183503,-0.983019,0.983019,0.183503,3.179868,695.6196)"
     id="use4634"
     x="0"
     y="0"
     width="744.09448"
     height="1052.3622"
     xlink:href="#g4526" /><use
     transform="matrix(0,1,-1,0,908.8066,71.44264)"
     id="use4636"
     x="0"
     y="0"
     width="744.09448"
     height="1052.3622"
     xlink:href="#g4610" /><use
     transform="matrix(0,-1,1,0,-73.12046,844.0033)"
     id="use4638"
     x="0"
     y="0"
     width="744.09448"
     height="1052.3622"
     xlink:href="#g4610" /><use
     transform="matrix(-0.985201,-0.171405,-0.171405,0.985201,908.3896,135.9032)"
     id="use4640"
     x="0"
     y="0"
     width="744.09448"
     height="1052.3622"
     xlink:href="#g4526" /><use
     transform="matrix(1,0,0,-1,-1.606691,912.7732)"
     id="use4644"
     x="0"
     y="0"
     width="744.09448"
     height="1052.3622"
     xlink:href="#g4526" /><use
     transform="matrix(-0.258819,-0.965926,0.965926,-0.258819,42.62521,999.3233)"
     id="use4646"
     x="0"
     y="0"
     width="744.09448"
     height="1052.3622"
     xlink:href="#g4610" /><use
     transform="matrix(-0.578999,0.815328,-0.815328,-0.578999,913.6874,509.6449)"
     id="use4648"
     x="0"
     y="0"
     width="744.09448"
     height="1052.3622"
     xlink:href="#g4526" /><use
     transform="matrix(-0.661253,-0.750163,-0.750163,0.661253,960.6138,590.3981)"
     id="use4650"
     x="0"
     y="0"
     width="744.09448"
     height="1052.3622"
     xlink:href="#g4610" /><use
     transform="matrix(0.466652,-0.884441,-0.884441,-0.466652,628.0331,1107.751)"
     id="use4652"
     x="0"
     y="0"
     width="744.09448"
     height="1052.3622"
     xlink:href="#g4526" /><use
     transform="matrix(-0.770558,0.63737,0.63737,0.770558,481.3127,9.466978)"
     id="use4654"
     x="0"
     y="0"
     width="744.09448"
     height="1052.3622"
     xlink:href="#g4610" /><use
     transform="matrix(0.942915,0.333033,-0.333033,0.942915,283.1321,39.55504)"
     id="use4656"
     x="0"
     y="0"
     width="744.09448"
     height="1052.3622"
     xlink:href="#g4526" /><use
     transform="matrix(-3.534769e-2,0.999375,-0.999375,-3.534769e-2,919.5458,152.1456)"
     id="use4658"
     x="0"
     y="0"
     width="744.09448"
     height="1052.3622"
     xlink:href="#g4610" /></g></g>
</svg>