<?xml version="1.0" encoding="UTF-8" standalone="no"?>
<!-- Created with Inkscape (http://www.inkscape.org/) -->

<svg
   xmlns:dc="http://purl.org/dc/elements/1.1/"
   xmlns:cc="http://creativecommons.org/ns#"
   xmlns:rdf="http://www.w3.org/1999/02/22-rdf-syntax-ns#"
   xmlns:svg="http://www.w3.org/2000/svg"
   xmlns="http://www.w3.org/2000/svg"
   xmlns:xlink="http://www.w3.org/1999/xlink"
   version="1.0"
   width="720"
   height="480"
   viewBox="-125 -75 250 150"
   id="svg2">
  <metadata
     id="metadata52">
    <rdf:RDF>
      <cc:Work
         rdf:about="">
        <dc:format>image/svg+xml</dc:format>
        <dc:type
           rdf:resource="http://purl.org/dc/dcmitype/StillImage" />
        <dc:title></dc:title>
      </cc:Work>
    </rdf:RDF>
  </metadata>
  <defs
     id="defs4">
    <g
       id="star">
      <g
         id="triangle">
        <g
           id="cone">
          <path
             d="m 0,0 0,10 10,0"
             transform="matrix(0.8660254,0.5,-0.5,0.8660254,0,-10)"
             id="helper" />
          <use
             transform="scale(-1,1)"
             id="use13"
             x="0"
             y="0"
             width="250"
             height="150"
             xlink:href="#helper" />
        </g>
        <use
           transform="matrix(-0.5,0.8660254,-0.8660254,-0.5,0,0)"
           id="use15"
           x="0"
           y="0"
           width="250"
           height="150"
           xlink:href="#cone" />
        <use
           transform="matrix(-0.5,-0.8660254,0.8660254,-0.5,0,0)"
           id="use17"
           x="0"
           y="0"
           width="250"
           height="150"
           xlink:href="#cone" />
      </g>
      <use
         transform="scale(-1,-1)"
         id="use19"
         x="0"
         y="0"
         width="250"
         height="150"
         xlink:href="#triangle" />
    </g>
  </defs>
  <path
     d="M 0,2.0000002e-7 -125,-83.333333 l 250,0 L 0,2.0000002e-7 z m 0,0 L 125,83.333334 l -250,0 L 0,2.0000002e-7 z"
     id="path21"
     style="fill:#ce1126" />
  <path
     d="M 0,2.0000002e-7 -125,-83.333333 -125,83.333334 0,2.0000002e-7 z m 0,0 L 125,83.333334 125,-83.333333 0,2.0000002e-7 z"
     id="path23"
     style="fill:#1eb53a" />
  <path
     d="M -125,70.695991 C -90.52191,46.408299 -19.987713,1.310394 -19.538057,-0.2290434 L -125,-70.601249 l 0,-12.732084 19.10247,0 c 35.411703,23.076137 69.986573,47.45838 105.64697444,70.153845 L 106.04386,-83.333333 l 9.47808,0 9.47806,0 0,6.366937 0,6.366937 C 90.359162,-46.296432 53.657521,-24.830395 19.565223,0.2592038 L 125,70.601262 l 0,6.366014 0,6.366058 -9.55123,0 -9.55124,0 C 70.202018,60.64511 36.211327,35.175553 7.7777778e-6,13.29455 L -105.89753,83.333334 l -19.10247,0 0,-12.637343 z"
     id="path2455"
     style="fill:#ffffff;fill-opacity:1;stroke:none" />
  <comment
     id="comment41">The size of the red stars needs to be precisely 82% of the size of the green stars</comment>
  <g
     id="g3016">
    <circle
       cx="0"
       cy="0"
       r="42.5"
       transform="scale(1.1111111,-1.1111111)"
       id="circle31"
       style="fill:#ffffff" />
    <path
       d="m -11.111111,-32.291666 22.222222,0 -0.694444,6.944444 -3.472221,6.944444 0.694444,8.333333 -15.277778,0 0.694445,-8.333333 -3.472223,-6.944444 z"
       id="rect3983"
       style="fill:#e37909;fill-opacity:1;stroke:none" />
    <g
       transform="translate(-0.6396575,-0.69444444)"
       id="g3974">
      <path
         d="m 358.84222,206 0.18903,34.625 -2.5625,83.40625 2.5625,0.34375 5.625,0 2.5625,-0.34375 -2.5625,-83.40625 0.18597,-34.625 z"
         transform="matrix(0.34722222,0,0,0.34722222,-125,-83.333333)"
         id="rect3059"
         style="fill:#1eb53a;fill-opacity:1;stroke:none" />
      <path
         d="m -0.1566848,20.013656 0.76121177,9.272111 C -4.538598,36.594722 -8.2201674,32.439465 -11.127001,31.823142 -3.6171327,31.114097 -0.1820494,28.138083 -0.1566848,20.013656 z"
         id="rect3830"
         style="fill:#1eb53a;fill-opacity:1;stroke:none" />
      <path
         d="M -0.1314587,26.289408 0.37601404,17.397903 C -9.562154,3.9613522 -19.527575,16.172895 -21.758744,17.651638 c 7.708164,-4.302848 20.8889842,-6.986756 21.6272853,8.63777 z"
         id="rect3830-1"
         style="fill:#1eb53a;fill-opacity:1;stroke:none" />
      <path
         d="M 0.1222825,15.159887 0.62975247,6.2683821 C -10.577104,-7.2950365 -25.744138,4.4090309 -28.229045,7.917672 -20.140279,1.9655318 -0.6160275,-0.46463885 0.1222825,15.159887 z"
         id="rect3830-1-7"
         style="fill:#1eb53a;fill-opacity:1;stroke:none" />
      <path
         d="M 1.435999,20.013656 0.674787,29.285768 C 5.81791,36.594723 9.49948,32.439466 12.40631,31.823143 4.89645,31.114098 1.461363,28.138084 1.435999,20.013656 z"
         id="rect3830-0"
         style="fill:#1eb53a;fill-opacity:1;stroke:none" />
      <path
         d="M 1.410774,26.289407 0.903301,17.397903 C 10.84147,3.9613524 20.80689,16.172895 23.03806,17.651638 15.3299,13.34879 2.149075,10.664882 1.410774,26.289407 z"
         id="rect3830-1-9"
         style="fill:#1eb53a;fill-opacity:1;stroke:none" />
      <path
         d="M 1.157033,15.159887 0.649562,6.2683824 C 11.85642,-7.2950366 27.02345,4.4090314 29.50836,7.9176724 21.41959,1.9655314 1.895343,-0.4646386 1.157033,15.159887 z"
         id="rect3830-1-7-4"
         style="fill:#1eb53a;fill-opacity:1;stroke:none" />
    </g>
    <path
       d="m 0,-25.694445 c -0.512375,0.858163 -1.7011667,1.249281 -1.7361111,3.168403 -0.8091597,-0.565052 -0.7507674,-0.272472 -1.6493055,-0.390625 0.0035,1.980139 -0.1579167,3.02843 0.531684,3.895399 -0.810184,-0.408219 -1.8482361,-0.602066 -2.6584201,-0.564236 2.6057117,2.891097 1.6484479,7.063375 3.0815972,7.779948 l 1.3888888,0.694444 1.0416667,0 1.0416667,0 1.3888888,-0.694444 c 1.4331493,-0.716573 0.4758889,-4.888851 3.0815972,-7.779948 -0.8101909,-0.03783 -1.8482291,0.156017 -2.6584201,0.564236 0.6896007,-0.866969 0.528184,-1.91526 0.531684,-3.895399 -0.8985416,0.118153 -0.8401458,-0.174427 -1.6493055,0.390625 C 1.7012118,-24.445164 0.51237847,-24.836282 0,-25.694445 z"
       id="rect4004"
       style="fill:#ce1126;fill-opacity:1;stroke:none" />
  </g>
</svg>
