<?xml version="1.0" encoding="UTF-8" standalone="no"?>
<svg
   xmlns:dc="http://purl.org/dc/elements/1.1/"
   xmlns:cc="http://creativecommons.org/ns#"
   xmlns:rdf="http://www.w3.org/1999/02/22-rdf-syntax-ns#"
   xmlns:svg="http://www.w3.org/2000/svg"
   xmlns="http://www.w3.org/2000/svg"
   xmlns:sodipodi="http://sodipodi.sourceforge.net/DTD/sodipodi-0.dtd"
   xmlns:inkscape="http://www.inkscape.org/namespaces/inkscape"
   width="600"
   height="300"
   id="svg5650"
   version="1.1"
   inkscape:version="0.48.2 r9819"
   sodipodi:docname="Old Soviet Flag.svg">
  <metadata
     id="metadata5664">
    <rdf:RDF>
      <cc:Work
         rdf:about="">
        <dc:format>image/svg+xml</dc:format>
        <dc:type
           rdf:resource="http://purl.org/dc/dcmitype/StillImage" />
        <dc:title></dc:title>
      </cc:Work>
    </rdf:RDF>
  </metadata>
  <defs
     id="defs5662" />
  <sodipodi:namedview
     pagecolor="#ffffff"
     bordercolor="#666666"
     borderopacity="1"
     objecttolerance="10"
     gridtolerance="10"
     guidetolerance="10"
     inkscape:pageopacity="0"
     inkscape:pageshadow="2"
     inkscape:window-width="1366"
     inkscape:window-height="706"
     id="namedview5660"
     showgrid="false"
     inkscape:zoom="2.0417187"
     inkscape:cx="94.76302"
     inkscape:cy="177.42168"
     inkscape:window-x="-8"
     inkscape:window-y="-8"
     inkscape:window-maximized="1"
     inkscape:current-layer="svg5650" />
  <rect
     width="600"
     height="300"
     id="rect5652"
     ry="0"
     x="0"
     y="0"
     style="fill:#bc0000"
     rx="0" />
  <path
     d="m 80.995155,20.085664 15.769577,0 4.871228,-15.1259854 4.87123,15.1259854 15.76956,0 -12.75601,9.347048 4.87123,15.125985 -12.75601,-9.347049 -12.756017,9.347049 4.871218,-15.125985 z"
     id="path5654"
     inkscape:connector-curvature="0"
     style="fill:#fcd116" />
  <path
     d="m 88.563233,22.564591 9.987368,0 3.085099,-9.579811 3.08513,9.579811 9.98737,0 -8.0788,5.919812 3.0851,9.579798 -8.0788,-5.919811 -8.078788,5.919811 3.085092,-9.579798 z"
     id="path5656"
     inkscape:connector-curvature="0"
     style="fill:#bc0000" />
  <path
     d="M 71.978462,57.955771 C 167.4208,43.439356 147.00758,166.48247 77.240837,122.0198 c 0.860692,-1.17881 0.301814,-0.5623 1.211306,-1.77367 l -3.899384,-3.78714 c -0.429432,0.18801 -1.11388,0.60871 -1.713017,1.02194 -0.809297,-0.84243 -2.14151,-1.8568 -2.896816,-2.8495 l -4.605129,3.80576 c 0.56385,0.75997 2.140861,2.35673 2.743707,3.05522 -3.107066,2.61642 -10.889778,9.37709 -12.01629,11.01038 -4.805438,5.99682 4.247317,13.71481 8.723665,8.79668 1.757674,-1.39045 6.491458,-8.79218 9.637921,-13.37408 8.021761,8.43518 18.951109,14.32523 33.6521,14.05843 3.2889,-0.0597 22.54616,-0.84636 34.8593,-21.51 9.0091,-15.11887 6.41723,-37.822476 -9.72272,-53.497902 C 115.68422,49.949225 89.471551,51.272109 71.978462,57.955771 z"
     id="path5658"
     inkscape:connector-curvature="0"
     style="fill:#fcd116"
     sodipodi:nodetypes="cccccccccccsssc" />
  <path
     d="M 94.344841,84.278777 106.42505,72.164898 102.43291,68.440591 86.610533,67.34872 63.977868,88.48921 76.704809,101.10507 87.595455,90.97743 c 16.566265,17.22661 47.773265,49.94281 50.283165,52.78007 2.5099,2.83726 10.21625,-3.87157 7.64819,-6.83418 -2.56806,-2.96261 -39.73185,-42.669981 -51.181969,-52.644543 z"
     id="path5658-1"
     inkscape:connector-curvature="0"
     style="fill:#fcd116"
     sodipodi:nodetypes="ccccccczzc" />
</svg>
