<?xml version="1.0" encoding="UTF-8" standalone="no"?>
<svg
   xmlns:dc="http://purl.org/dc/elements/1.1/"
   xmlns:cc="http://creativecommons.org/ns#"
   xmlns:rdf="http://www.w3.org/1999/02/22-rdf-syntax-ns#"
   xmlns:svg="http://www.w3.org/2000/svg"
   xmlns="http://www.w3.org/2000/svg"
   xmlns:sodipodi="http://sodipodi.sourceforge.net/DTD/sodipodi-0.dtd"
   xmlns:inkscape="http://www.inkscape.org/namespaces/inkscape"
   version="1.0"
   preserveAspectRatio="xMidYMid meet"
   zoomAndPan="magnify"
   id="Flag_of_Morocco"
   viewBox="-60 -40 120 80"
   width="900"
   height="600"
   sodipodi:version="0.32"
   inkscape:version="0.46"
   sodipodi:docname="Flag_of_International_Tangier.svg"
   inkscape:output_extension="org.inkscape.output.svg.inkscape">
  <sodipodi:namedview
     inkscape:window-height="850"
     inkscape:window-width="1440"
     inkscape:pageshadow="2"
     inkscape:pageopacity="0.0"
     guidetolerance="10.0"
     gridtolerance="10.0"
     objecttolerance="10.0"
     borderopacity="1.0"
     bordercolor="#666666"
     pagecolor="#ffffff"
     id="base"
     showgrid="false"
     inkscape:zoom="1"
     inkscape:cx="304.41207"
     inkscape:cy="312.19034"
     inkscape:window-x="-8"
     inkscape:window-y="-8"
     inkscape:current-layer="g2394" />
  <metadata
     id="metadata29">
    <rdf:RDF>
      <cc:Work
         rdf:about="">
        <dc:format>image/svg+xml</dc:format>
        <dc:type
           rdf:resource="http://purl.org/dc/dcmitype/StillImage" />
      </cc:Work>
    </rdf:RDF>
  </metadata>
  <defs
     id="defs27" />
  <g
     id="g2454">
    <g
       transform="translate(-3.52941e-08, 0.0735295)"
       id="g2469">
      <g
         id="g2565"
         transform="scale(1.11111, 1)">
        <g
           id="g2427"
           transform="scale(0.9, 1)">
          <g
             id="g2392">
            <g
               id="g2393">
              <g
                 id="g2394">
                <g
                   id="g3970">
                  <rect
                     style="fill:#c1272d;fill-opacity:1"
                     width="120"
                     height="80"
                     x="-60"
                     y="-40.073528"
                     id="rect3" />
                  <g
                     transform="matrix(0.439295,0,0,0.4618638,-52.342977,-57.082469)"
                     id="g5"
                     style="fill:#006233;fill-opacity:1;stroke:#000000;stroke-width:0.88802484;stroke-linecap:square;stroke-miterlimit:4;stroke-dasharray:none;stroke-opacity:1">
                    <path
                       d="M 181.25,113.1875 L 146.46875,113.21875 L 186.0625,141.96875 L 192,137.65625 L 168,120.21875 L 178.96875,120.1875 L 181.25,113.1875 z"
                       id="path7"
                       style="fill:#006233;fill-opacity:1;stroke:#000000;stroke-width:0.88802484;stroke-miterlimit:4;stroke-dasharray:none;stroke-opacity:1" />
                    <path
                       d="M 202.76559,113.19883 L 191.98787,80.129551 L 176.88014,126.66968 L 182.81636,130.98395 L 191.984,102.77011 L 195.40325,113.19235 L 202.76559,113.19883 z"
                       id="path9"
                       style="fill:#006233;fill-opacity:1;stroke:#000000;stroke-width:0.88802484;stroke-miterlimit:4;stroke-dasharray:none;stroke-opacity:1" />
                    <path
                       d="M 209.40356,133.66496 L 237.52382,113.19577 L 188.59298,113.20916 L 186.32426,120.18802 L 215.99017,120.18841 L 207.13464,126.66096 L 209.40356,133.66496 z"
                       id="path11"
                       style="fill:#006233;fill-opacity:1;stroke:#000000;stroke-width:0.88802484;stroke-miterlimit:4;stroke-dasharray:none;stroke-opacity:1" />
                    <path
                       d="M 191.99045,146.30222 L 220.14744,166.72085 L 205.01425,120.18899 L 197.67588,120.1879 L 206.84278,148.40198 L 197.95051,141.97999 L 191.99045,146.30222 z"
                       id="path13"
                       style="fill:#006233;fill-opacity:1;stroke:#000000;stroke-width:0.88802484;stroke-miterlimit:4;stroke-dasharray:none;stroke-opacity:1" />
                    <path
                       d="M 174.59078,133.64658 L 163.8725,166.73517 L 203.45052,137.96351 L 201.18387,130.98397 L 177.18341,148.42084 L 180.54323,137.97929 L 174.59078,133.64658 z"
                       id="path15"
                       style="fill:#006233;fill-opacity:1;stroke:#000000;stroke-width:0.88802484;stroke-miterlimit:4;stroke-dasharray:none;stroke-opacity:1" />
                  </g>
                  <g
                     id="g2547"
                     transform="translate(-95.6817, 5.91182)">
                    <g
                       id="g2549"
                       transform="translate(-3.52941e-08, 0.0735295)" />
                  </g>
                  <g
                     transform="translate(-204.28509,-82.159917)"
                     id="g2963">
                    <g
                       transform="matrix(0.3340138,0,0,0.3397644,149.23062,48.364771)"
                       id="g3063">
                      <path
                         id="path2853"
                         d="M 38.6,11.2 C 40.9,11.1 43.3,11 45.7,11 C 46.8,14.7 48.5,18.3 51.2,21.2 C 52.1,20 52.9,18.8 53.8,17.6 C 53.4,15.4 53.1,13.2 52.8,11.1 C 55.6,11 58.4,11 61.2,11.1 C 60.9,13.4 60.6,15.7 60.1,17.9 C 61.8,19.4 63.8,20.8 65.9,21.7 C 67,20 68.3,18.5 69.2,16.7 C 69.3,14.8 69.1,12.9 69,11 C 72,11 75.1,11 78.1,11.1 C 77.6,14.6 76.9,18.4 79.1,21.6 C 81.2,21 82.7,19.5 83.6,17.6 C 83.5,15.4 83.1,13.3 82.9,11.1 C 85.9,11 89,11 92,11 C 91.7,14.7 91.2,18.6 93.8,21.7 C 95.2,20.4 96.6,19.1 97.7,17.6 C 98.2,15.4 98.1,13.2 98.2,11 C 101.2,11 104.3,11 107.4,11.1 C 106.4,15.5 104.2,19.5 104.1,24.1 C 104,28.7 102.9,33.3 103,38 C 103,53 102.9,68 103,83.1 C 103,85.7 103,89 100.7,90.7 C 95.4,93.3 89.3,92.7 83.9,94.9 C 80.6,95.8 77.9,98.9 74.3,97.9 C 71.8,97.1 69.7,95.6 67.4,94.5 C 62.2,92.9 56.7,93.2 51.4,92.7 C 49.1,91 46.7,88.7 46.2,85.8 C 43.2,64.5 47,42.8 43.4,21.5 C 43.1,17.5 38.8,15.3 38.6,11.2 z"
                         style="fill:#000000;stroke:#000000;stroke-width:0.09375" />
                      <path
                         id="path2855"
                         d="M 23.5,11.7 C 26.6,19.2 30.6,28 25.9,35.7 C 26.3,36 27.2,36.7 27.6,37.1 C 29.6,34.2 32.1,31.7 33.5,28.5 C 34.1,26.6 34.4,24.6 34.9,22.7 C 35.4,23.1 36.5,23.9 37,24.3 C 36.9,30.6 37.8,38.1 33,43.1 C 31.4,45.4 28.4,46.2 26,47.4 C 26,50.8 26,54.2 26.2,57.6 C 30.2,55 33.7,51.3 34.8,46.5 C 36.4,47.9 38.7,49.4 38,51.9 C 37.8,57.7 33.6,62 29.2,65.3 C 26,67.6 25.7,71.8 26,75.5 C 31.6,73.7 35.9,68.4 36.7,62.5 C 37.8,66.6 38.8,71.1 37.2,75.2 C 35.7,80.5 30.4,83.1 27.4,87.4 C 26.9,90.2 26.5,92.9 26,95.6 C 26.9,96.5 27.8,97.3 28.7,98.2 C 30.1,95.5 31.6,92.9 33.7,90.7 C 35.9,88.7 36.3,85.6 37.9,83.2 C 38.3,87 37.1,90.6 37.4,94.3 C 37.5,95.8 37.2,97.2 36.7,98.6 C 33.9,102.2 30.1,105 26.9,108.2 C 26.5,111.2 28.2,113.8 30.4,115.7 C 31,112.8 31,109.5 33.2,107.3 C 35.8,103.9 39.8,101.7 41.8,97.9 C 42.6,101 44.8,104.1 43.5,107.4 C 42.4,112.5 37.5,115.1 34.2,118.7 C 37.7,120 40.5,122.7 43.8,124.5 C 44,120.8 43.6,116.9 45.5,113.5 C 47.2,110.8 47,107.5 47.4,104.4 C 49.4,107.9 51.2,111.5 53,115.1 C 52.4,118.9 50.3,122.3 48.7,125.7 C 51.8,126.5 54.9,127.1 58.1,127.2 C 59.2,129.6 60.4,131.9 62.1,133.9 C 58.7,131.8 54.4,131.8 51.2,129.3 C 50.8,129.5 49.9,130 49.4,130.2 C 49,133.6 46.8,136.4 44.9,139 C 39.8,139 34.7,139 29.6,139 C 34.9,136.4 38.7,131.9 42.7,127.6 C 40.8,126.2 38,125 35.9,126.8 C 33.2,129 29.8,130.5 26.3,130 C 22.1,127.2 19.2,122.9 16.4,118.8 C 19.8,120 23.3,121.4 27,121 C 29.8,120.6 32.1,122.3 34.3,123.7 C 35.2,123.4 36.2,123.1 37.1,122.9 C 33.9,120.7 31.6,117.7 28.5,115.4 C 23.8,114.9 18.1,114 15.8,109.2 C 14.1,104.8 13,100 12.9,95.3 C 15,97.2 16.7,99.4 18.7,101.4 C 20.7,103 23,104.5 25,106.2 C 25,103.9 25.2,101.7 24.7,99.5 C 23.6,97.9 22.2,96.5 20.9,95 C 18.7,92.8 15.1,92.3 13.3,89.6 C 11.6,84.8 11.9,79.6 12,74.5 C 14.8,79.2 20.4,81.4 22.6,86.4 C 23,88.1 23.2,89.9 23.6,91.6 C 24.6,87.7 25.5,83.4 23.2,79.9 C 19.6,75.7 15.4,72.1 12.3,67.5 C 11.6,63 12.2,58.3 12,53.8 C 15.7,58.9 21.4,62.4 24,68.5 C 23.7,63.9 25.3,58.1 21.3,54.8 C 18.3,51.7 13.1,50.4 12.1,45.8 C 11.8,40 12,34.2 12,28.4 C 13.4,31.2 13.8,34.6 16.2,36.7 C 19.1,39.4 21.4,42.6 24,45.5 C 24.9,39.6 22.2,34.1 20.2,28.7 C 19.5,22.9 21.2,17 23.5,11.7 z"
                         style="fill:#006233;fill-opacity:1;stroke:#006233;stroke-width:0.09375;stroke-opacity:1" />
                      <path
                         id="path2857"
                         d="M 40,12 C 41.5,12 43.1,12 44.6,12 C 45.1,13 45.6,14 46.1,15 C 44,15 42,15 40,15 C 40,14.2 40,12.7 40,12 z"
                         style="fill:#fae000;stroke:#fae000;stroke-width:0.09375" />
                      <path
                         id="path2859"
                         d="M 54,12 C 56,12 58,12 60,12 C 60,12.8 60,14.3 60,15 C 58,15 56,15 54,15 C 54,14.3 54,12.8 54,12 z"
                         style="fill:#fae000;stroke:#fae000;stroke-width:0.09375" />
                      <path
                         id="path2861"
                         d="M 70,12 C 72.3,12 74.7,12 77,12 C 77,12.8 77,14.2 77,15 C 74.7,15 72.3,15 70,15 C 70,14.3 70,12.7 70,12 z"
                         style="fill:#fae000;stroke:#fae000;stroke-width:0.09375" />
                      <path
                         id="path2863"
                         d="M 84,12 C 86.3,12 88.7,12 91,12 C 91,12.7 91,14.2 91,15 C 88.7,15 86.3,15 84,15 C 84,14.3 84,12.8 84,12 z"
                         style="fill:#fae000;stroke:#fae000;stroke-width:0.09375" />
                      <path
                         id="path2865"
                         d="M 99,12 C 101.3,12 103.7,12 106,12 C 106,12.8 106,14.3 106,15 C 103.7,15 101.3,15 99,15 C 99,14.2 99,12.7 99,12 z"
                         style="fill:#fae000;stroke:#fae000;stroke-width:0.09375" />
                      <path
                         id="path2867"
                         d="M 123.2,12 C 123.8,12 125.1,12 125.7,12 C 125.6,16.5 129,19.7 129.8,24 C 129.4,27.4 127.3,30.1 126.2,33.2 C 126.1,38.4 125.4,43.4 124.9,48.6 C 126.3,46.6 127.4,44.6 128.5,42.5 C 129.9,39.9 132.9,38.9 134.6,36.6 C 136,34.4 136.8,32 137.8,29.6 C 138.3,34.9 140.3,40.5 137.7,45.6 C 134.6,50.1 129.2,52 125,55.1 C 125,59.2 125,63.3 125,67.4 C 129,61.2 134.6,56.3 137.9,49.7 C 138.7,54.4 138.5,59.1 137.8,63.7 C 134.4,66.4 130.9,68.9 127.4,71.3 C 126.8,74.6 126,77.9 124.8,81 C 125.2,81.5 125.9,82.6 126.2,83.1 C 129.6,80.2 133.5,77.8 136.2,74.2 C 137.2,72.2 137.1,69.9 138.6,68.1 C 139.2,74 139.9,80.4 136.7,85.6 C 134.2,88.5 130.7,90.3 128.1,93.1 C 126.5,97.1 127.1,101.4 126.1,105.5 C 131.5,102.5 136.4,98.3 138.6,92.5 C 141.6,95.5 137.5,98.6 138,102 C 138,106.1 136.5,110.6 132.9,112.9 C 130.8,114.5 128.1,114.8 125.6,115.5 C 123.4,117.8 121.4,120.3 119.7,123 C 123.5,124.2 127.4,125.4 131.5,125.5 C 128.4,128.1 124.5,129.6 120.7,130.9 C 115.6,132.4 111.5,125.8 106.5,129 C 108.8,130.8 111.2,132.6 112.9,135.1 C 114,137.1 116.5,137 118.4,137.6 C 115.2,139.3 111.5,142.4 107.7,140.4 C 103.5,138.8 102.8,133.9 99.7,131.2 C 98.1,131 96.4,130.9 94.8,130.8 C 94.9,130.2 95,129 95.1,128.5 C 97.2,127.4 99.3,126.2 101.2,124.8 C 101.1,121.5 99.2,118 100.8,114.9 C 102.3,111.2 105.1,108.3 107.5,105.3 C 107.9,110.1 108.3,115 107.9,119.8 C 107.2,122.9 104.5,124.9 102.6,127.2 C 106.7,126.3 110.9,125.3 113.8,122 C 112.1,116.8 111.8,111.4 111.1,106.1 C 111.4,103.9 112.8,102 113.4,99.9 C 116.1,104.2 118.9,108.4 121.1,113 C 119.7,116.2 117.9,119.1 116.6,122.4 C 119.5,120 122.2,117.1 123.7,113.6 C 124.3,110.5 123.9,107.4 124,104.2 C 119.4,100.7 114.3,96.8 113.1,90.8 C 112.7,87.3 113,83.7 113.3,80.2 C 115.9,84.1 119,87.5 122,91 C 124.3,93.3 123.9,96.7 124.6,99.7 C 124.9,95.8 125.8,92.1 125.9,88.3 C 125,86.2 124.1,84 122.7,82.3 C 119.9,80.1 116.3,78.8 114.4,75.6 C 112.9,71.4 112.9,66.9 113,62.6 C 114.4,64.6 115.2,67.3 117.7,68.3 C 120.4,69.4 121.6,72.1 123,74.4 C 123,71.8 123.2,69.2 122.7,66.6 C 120.4,64.5 117.7,62.8 115.4,60.6 C 113.8,58.4 112.8,55.8 113,53 C 113.3,48.8 112.4,44.7 111.9,40.5 C 113.5,44.5 116.1,47.9 118.7,51.3 C 120.7,53.6 120.9,57.4 124.1,58.7 C 124,55.2 123.4,51.7 122.7,48.4 C 120.7,45.6 116.7,45.1 114.8,42.2 C 113,39 111.1,35.4 111.6,31.6 C 112.1,27.8 111.9,24.1 112.2,20.3 C 113.1,22.3 113.8,24.3 114.7,26.3 C 116.7,29.3 119.5,31.8 120.6,35.4 C 121.7,37.8 121.7,40.9 123.9,42.8 C 124.9,36.2 120.3,30.5 120.2,24.2 C 121.4,20.1 123.5,16.4 123.2,12 z"
                         style="fill:#006233;fill-opacity:1;stroke:#006233;stroke-width:0.09375;stroke-opacity:1" />
                      <path
                         id="path2869"
                         d="M 41.8,16 C 43.4,16 45,16 46.6,16 C 47.4,17.7 48.2,19.4 49.1,21 C 47.5,21 45.9,21 44.3,21 C 44.1,19 43.8,17 41.8,16 z"
                         style="fill:#fae000;stroke:#fae000;stroke-width:0.09375" />
                      <path
                         id="path2871"
                         d="M 52.7,21 C 53.9,19 55.3,17.1 56.9,15.4 C 58.6,17.1 60.3,18.8 61.6,20.8 C 58.7,21 55.7,21 52.7,21 z"
                         style="fill:#fae000;stroke:#fae000;stroke-width:0.09375" />
                      <path
                         id="path2873"
                         d="M 67.3,20.7 C 68.8,18.6 70.9,17.1 73.1,15.9 C 75.9,15.7 76.8,19.2 78.2,21 C 74.6,21 70.9,21.1 67.3,20.7 z"
                         style="fill:#fae000;stroke:#fae000;stroke-width:0.09375" />
                      <path
                         id="path2875"
                         d="M 86.2,16 C 87.3,16 88.4,16 89.5,16 C 90,17.8 90.9,19.5 92,21 C 88.9,21 85.8,21 82.7,21 C 83.8,19.3 84.9,17.6 86.2,16 z"
                         style="fill:#fae000;stroke:#fae000;stroke-width:0.09375" />
                      <path
                         id="path2877"
                         d="M 100.2,16 C 101.6,16 102.9,16 104.2,16 C 103.9,17.7 104.4,19.8 102.7,20.9 C 100.7,21.1 98.8,21 96.8,21 C 98,19.4 99.2,17.7 100.2,16 z"
                         style="fill:#fae000;stroke:#fae000;stroke-width:0.09375" />
                      <path
                         id="path2879"
                         d="M 45,22 C 64.3,22 83.7,22 103,22 L 103,23 C 83.7,23 64.3,23 45,23 L 45,22 z"
                         style="fill:#fae000;stroke:#fae000;stroke-width:0.09375" />
                      <path
                         id="path2881"
                         d="M 45,24 C 64.3,24 83.7,24 103,24 C 103,25.3 103,26.7 103,28 C 83.7,28 64.3,28 45,28 C 45,26.7 45,25.3 45,24 z"
                         style="fill:#fae000;stroke:#fae000;stroke-width:0.09375" />
                      <path
                         id="path2883"
                         d="M 45,29 C 64.3,29 83.7,29 103,29 L 103,30 C 83.7,30 64.3,30 45,30 L 45,29 z"
                         style="fill:#fae000;stroke:#fae000;stroke-width:0.09375" />
                      <path
                         id="path2885"
                         d="M 70.7,33.6 C 75.4,31.5 80.4,34.2 84.1,37.2 C 84,39.8 83.7,42.4 83.5,45.1 C 83.9,47.1 84.8,48.9 85.3,50.8 C 83,52.2 81.5,54.2 81.7,57 C 78,56.9 74.4,57 70.8,56.9 C 71.1,55.5 71.5,54.2 71.8,52.8 C 69.7,53.3 67.6,53.8 65.4,54.2 C 65,53.7 64.1,52.5 63.7,51.9 C 65,50.5 66.3,49.2 67.6,47.7 C 66.7,46.8 65.7,45.8 64.8,44.9 C 67.2,41.3 65.8,35.3 70.7,33.6 z"
                         style="fill:#daab01;stroke:#daab01;stroke-width:0.09375" />
                      <path
                         id="path2889"
                         d="M 68,41.6 C 70.5,41.2 73,41.7 75.5,42.1 C 74.2,43.9 72.8,45.6 71.5,47.4 C 70.5,47 68.5,46.4 67.5,46.1 C 67.7,45.5 68.1,44.5 68.3,43.9 L 68.9,43.8 C 70.4,45.2 72.4,42.2 70.1,41.9 C 69.7,42.2 69,42.7 68.7,43 L 68.2,43.1 C 68.1,42.7 68,42 68,41.6 z"
                         style="fill:#fae000;stroke:#fae000;stroke-width:0.09375" />
                      <path
                         id="path2891"
                         d="M 68.7,43 C 69,42.7 69.7,42.2 70.1,41.9 C 72.4,42.2 70.4,45.2 68.9,43.8 L 68.7,43 z"
                         style="fill:#0a0701;stroke:#0a0701;stroke-width:0.09375" />
                      <path
                         id="path2893"
                         d="M 71.4,56.1 C 73.1,53.8 74.8,51.6 76.7,49.5 C 78,51.7 79.3,53.9 80.5,56.1 C 77.5,56.2 74.5,56.2 71.4,56.1 z"
                         style="fill:#fae000;stroke:#fae000;stroke-width:0.09375" />
                      <path
                         id="path2895"
                         d="M 46,59 C 64.7,59 83.3,59 102,59 C 102,67 102.1,75 102,83 C 102.2,87.9 97.7,91.9 92.9,91.9 C 86.9,92 80.9,93.5 76.1,97.1 C 72.3,95.5 68.7,93.4 64.8,92.2 C 60.4,91.8 56,92.1 51.6,92 C 47.5,87.7 46.8,81.6 46,76 C 45.8,70.3 46,64.6 46,59 z"
                         style="fill:#00a5fa;stroke:#00a5fa;stroke-width:0.09375" />
                      <path
                         id="path2897"
                         d="M 65.3,63 C 67.9,63 70.6,63 73.2,63.1 C 73.5,67.9 70.2,71.7 69.1,76.2 C 68.4,79.4 65.6,81.5 64.2,84.4 C 63.8,86.6 64,88.8 63.9,91 C 61.6,91 59.4,91 57.1,91 C 57.8,85.8 55.2,81.3 53.3,76.7 C 51.6,72.5 48.7,68.7 48.8,64.1 C 51.2,64 53.6,64 56.1,64 C 56.9,67.7 58.4,71 60.5,74.2 C 62.1,70.4 65.3,67.3 65.3,63 z"
                         style="fill:#daab01;stroke:#daab01;stroke-width:0.09375" />
                      <path
                         id="path2899"
                         d="M 77.7,63.1 C 80.1,63 82.4,63 84.8,63 C 84.9,64.5 84.9,66.1 85.2,67.6 C 86.4,69.1 87.8,70.3 89.2,71.7 C 91.4,69.2 92.4,66.2 92.2,63 C 94.9,63 97.6,63 100.3,63.1 C 100,64.7 99.9,66.5 99,68 C 96.3,72.2 93.9,76.6 92.1,81.2 C 91.8,84.4 92,87.7 92,91 C 89.7,91 87.3,91 85,91 C 85,88.1 85.2,85.1 84.9,82.2 C 83.2,78.8 80.7,75.7 80.1,71.9 C 79.6,68.9 78.1,66.1 77.7,63.1 z"
                         style="fill:#daab01;stroke:#daab01;stroke-width:0.09375" />
                      <path
                         id="path2903"
                         d="M 85.8,80 C 87.5,80.8 89.3,81.5 91.1,82.2 C 91.1,84.8 91.1,87.5 91.2,90.1 C 89.4,90.1 87.6,90.1 85.9,90.1 C 85.8,86.7 85.8,83.4 85.8,80 z"
                         style="fill:#fae000;stroke:#fae000;stroke-width:0.09375" />
                      <path
                         id="path2905"
                         d="M 57.6,83.4 C 59.4,83.9 61.3,84.3 63.1,84.7 C 63.1,86.5 63.1,88.3 63.1,90 C 61.4,90.1 59.7,90.1 58,90.1 C 57.9,87.9 57.7,85.6 57.6,83.4 z"
                         style="fill:#fae000;stroke:#fae000;stroke-width:0.09375" />
                      <path
                         id="path2913"
                         d="M 91.4,114.3 C 93.2,113 94.6,115.3 96,116.2 C 96.1,120.3 96.1,124.4 95.1,128.5 C 95,129 94.9,130.2 94.8,130.8 C 92.9,131.5 91.2,132.6 89.2,133.1 C 86.9,131 84,130.7 81,131 C 81,128.1 81,125.3 81,122.5 C 84,119.2 87.4,116.2 91.4,114.3 z"
                         style="fill:#00a5fa;stroke:#00a5fa;stroke-width:0.09375" />
                      <path
                         id="path2917"
                         d="M 59.5,116 C 60.8,116 62.2,116 63.6,116 C 65.9,118.4 68,121 71,122.6 C 71,125.9 71,129.3 70.9,132.7 C 69.1,133.6 67.3,134.6 65.4,135.5 C 64.3,135.1 63.1,134.6 62.1,133.9 C 60.4,131.9 59.2,129.6 58.1,127.2 C 56.8,124.4 56.9,121.4 57,118.5 C 57.8,117.6 58.7,116.8 59.5,116 z"
                         style="fill:#00a5fa;stroke:#00a5fa;stroke-width:0.09375" />
                      <path
                         id="path2921"
                         d="M 73.4,120 C 75.2,120 76.9,120 78.7,120 C 79.4,120.8 80.2,121.6 81,122.5 C 81,125.3 81,128.1 81,131 L 81,132.1 C 79.5,133 78,133.9 76.4,134.7 C 75.5,134.9 74.5,135 73.6,135 C 70.6,135.2 67.7,135.5 64.8,135.8 L 65.4,135.5 C 67.3,134.6 69.1,133.6 70.9,132.7 C 71,129.3 71,125.9 71,122.6 C 71.8,121.7 72.6,120.9 73.4,120 z"
                         style="fill:#001bc4;stroke:#001bc4;stroke-width:0.09375" />
                      <path
                         id="path2923"
                         d="M 72,123.2 C 73.4,122.3 74.9,121.4 76.3,120.6 C 79.8,122.8 81.4,127.4 79.1,131.1 C 77.6,133.6 74.3,132.6 72,132.2 C 72,129.2 72,126.2 72,123.2 z"
                         style="fill:#00a5fa;stroke:#00a5fa;stroke-width:0.09375" />
                      <path
                         id="path2925"
                         d="M 76.4,134.7 C 78,133.9 79.5,133 81,132.1 C 86.8,133.7 92.9,135.8 96.9,140.4 C 97.6,145.2 91.1,146.5 87.5,146.1 C 83.8,142.2 79.9,138.6 76.4,134.7 z"
                         style="fill:#00a5fa;stroke:#00a5fa;stroke-width:0.09375" />
                      <path
                         id="path2927"
                         d="M 64.8,135.8 C 67.7,135.5 70.6,135.2 73.6,135 C 72.1,137.7 69.5,139.5 68.3,142.3 C 67.3,144.9 65.6,147.1 63.7,149.1 C 60.3,146.9 57,144.4 53,143.6 C 53,143 53,141.8 53,141.2 C 57,139.4 60.2,135.7 64.8,135.8 z"
                         style="fill:#00a5fa;stroke:#00a5fa;stroke-width:0.09375" />
                      <path
                         id="path2929"
                         d="M 55.7,152.6 C 63.1,151.1 70.6,150.9 78,149.9 C 86.8,148.9 95.2,152.3 104,151.8 C 108.8,151.5 113.6,152.5 118.2,153.8 C 118.2,158 118.2,162.2 118.1,166.4 C 118,167.1 117.9,168.6 117.8,169.3 C 113.1,168.5 108.3,167.7 103.5,168 C 93.6,168.4 83.8,167.7 74,168.1 C 67.9,168.4 61.8,168 55.6,168.1 C 50.5,168.8 45.3,169.3 40.1,169 C 40,165.8 40,162.6 39.4,159.4 C 39.1,158 39,156.5 38.8,155.1 C 44.4,153.7 50,153.2 55.7,152.6 z"
                         style="fill:#ffc400;fill-opacity:1;stroke:#ffc400;stroke-width:0.09375;stroke-opacity:1" />
                      <path
                         id="path2931"
                         d="M 72,154 C 72.5,154 73.5,154 74,154 C 74,157.5 74.1,161.1 73.8,164.6 C 71.3,162.9 69.2,160.7 67,158.6 C 67,160.4 67,162.2 67,164 C 66.5,164 65.5,164 65,164 C 65,160.8 65,157.6 65.2,154.4 C 67.7,156.1 69.8,158.3 72,160.4 C 72,158.3 72,156.1 72,154 z"
                         style="fill:#000000;stroke:#000000;stroke-width:0.09375" />
                      <path
                         id="path2933"
                         d="M 79.6,156.7 C 80.9,153.4 85.1,154.1 88,153.9 C 88,154.4 88,155.4 88,155.9 C 85.7,156.3 82.6,155.1 81.1,157.4 C 80.9,159 80.6,161 82.4,161.9 C 84.5,162.4 86.6,161.8 88.5,160.8 C 86.9,160.1 85.1,159.7 84.3,157.9 C 86.2,158.2 88.7,157.4 90,159.3 C 90.7,161.3 88.8,162.6 87.8,164 C 85.6,164 83.3,164 81,164 C 79.9,161.8 77.9,159.2 79.6,156.7 z"
                         style="fill:#0a0701;stroke:#0a0701;stroke-width:0.09375" />
                      <path
                         id="path2935"
                         d="M 95,155 C 95.5,155 96.5,155 97,155 C 97,158 97,161 97,164 C 96.5,164 95.5,164 95,164 C 95,161 95,158 95,155 z"
                         style="fill:#000000;stroke:#000000;stroke-width:0.09375" />
                      <path
                         id="path2937"
                         d="M 58,156 C 58.5,156 59.5,156 60,156 C 60,159 60,162 60,165 C 59.5,165 58.5,165 58,165 C 58,162 58,159 58,156 z"
                         style="fill:#000000;stroke:#000000;stroke-width:0.09375" />
                      <path
                         id="path2939"
                         d="M 104.3,156.1 C 105.7,156 107.1,155.9 108.5,155.9 C 109.1,157 109.6,158.1 110.2,159.2 C 108.3,158.6 106.4,158 104.4,157.7 C 105.9,158.9 107.5,160.1 109,161.3 C 109,162.5 109,163.7 109,164.9 C 106.2,166.5 103.4,165.8 101,163.9 C 101,163.1 101,161.5 101,160.7 C 102.6,161.8 104.2,162.8 105.8,164 C 106.1,163.6 106.8,162.7 107.2,162.2 C 105.6,161.3 104.1,160.4 102.5,159.5 C 103,158.3 103.4,157.1 104.3,156.1 z"
                         style="fill:#000000;stroke:#000000;stroke-width:0.09375" />
                      <path
                         id="path2941"
                         d="M 44.3,157.2 C 47.4,156.9 50.6,156.9 53.8,157.3 C 52.9,158.5 51.4,159 50,159.5 C 50,161.6 50,163.8 50,166 C 49.5,166 48.5,166 48,166 C 48,163.8 48,161.6 48,159.5 C 46.6,159 45.1,158.6 44.3,157.2 z"
                         style="fill:#0a0701;stroke:#0a0701;stroke-width:0.09375" />
                      <path
                         id="path2943"
                         d="M 39.4,159.4 C 40,162.6 40,165.8 40.1,169 C 45.3,169.3 50.5,168.8 55.6,168.1 L 54.8,168.6 C 51.5,170.1 47.9,170 44.4,170 C 47.5,171.3 50.6,172.6 53.4,174.5 L 54.2,175 C 53.7,174.8 52.7,174.6 52.1,174.4 C 47.7,173.1 43.4,171 39,169.5 C 39,166.6 38.9,163.7 39.1,160.7 L 39.4,159.4 z"
                         style="fill:#000000;stroke:#000000;stroke-width:0.09375" />
                      <path
                         id="path2945"
                         d="M 21,167.9 C 26.9,165.2 33.2,163.5 39.1,160.7 C 38.9,163.7 39,166.6 39,169.5 C 43.4,171 47.7,173.1 52.1,174.4 C 46.1,175.6 39.8,176.5 34.2,179.3 C 26.7,182.9 18.3,183.6 10.5,186.3 C 11.3,182.6 13.7,179.7 15.6,176.5 C 12.1,175.9 8.6,175.3 5.2,174.3 C 10.1,171.4 15.8,170.1 21,167.9 z"
                         style="fill:#ffc400;fill-opacity:1;stroke:#ffc400;stroke-width:0.09375;stroke-opacity:1" />
                      <path
                         id="path2947"
                         d="M 118.1,166.4 L 118.7,165.4 C 118.9,167.2 119,169.1 119.1,170.9 C 113.5,171.9 108.3,174 103,176.1 L 103.9,175.4 C 107.4,172.4 112.2,171.5 116.7,170.3 C 112.6,169.4 108.4,169.1 104.4,168.4 L 103.5,168 C 108.3,167.7 113.1,168.5 117.8,169.3 C 117.9,168.6 118,167.1 118.1,166.4 z"
                         style="fill:#000000;stroke:#000000;stroke-width:0.09375" />
                      <path
                         id="path2949"
                         d="M 118.7,165.4 C 129,167.7 139.4,169.9 149.8,172.1 C 151.6,172.6 153.2,173.6 154.8,174.5 C 151.1,175.4 147.2,176.1 143.6,177.5 C 145.9,180.6 148.9,183.3 150.2,187 C 149.8,187.1 149.2,187.4 148.9,187.5 C 142.6,186.1 136.5,183.6 130,183.2 C 122.2,182.8 114.9,180 107.2,178.9 C 105.5,178.7 104.3,177.2 103,176.1 C 108.3,174 113.5,171.9 119.1,170.9 C 119,169.1 118.9,167.2 118.7,165.4 z"
                         style="fill:#ffc400;fill-opacity:1;stroke:#ffc400;stroke-width:0.09375;stroke-opacity:1" />
                      <path
                         id="path2951"
                         d="M 44.4,170 C 47.9,170 51.5,170.1 54.8,168.6 C 54.3,170.5 53.9,172.5 53.4,174.5 C 50.6,172.6 47.5,171.3 44.4,170 z"
                         style="fill:#fae000;stroke:#fae000;stroke-width:0.09375" />
                      <path
                         id="path2953"
                         d="M 104.4,168.4 C 108.4,169.1 112.6,169.4 116.7,170.3 C 112.2,171.5 107.4,172.4 103.9,175.4 C 104,173.1 104.1,170.7 104.4,168.4 z"
                         style="fill:#fae000;stroke:#fae000;stroke-width:0.09375" />
                    </g>
                  </g>
                </g>
              </g>
            </g>
          </g>
        </g>
      </g>
    </g>
  </g>
</svg>
