<?xml version="1.0" encoding="UTF-8" standalone="no"?>
<svg
   xmlns:dc="http://purl.org/dc/elements/1.1/"
   xmlns:cc="http://creativecommons.org/ns#"
   xmlns:rdf="http://www.w3.org/1999/02/22-rdf-syntax-ns#"
   xmlns:svg="http://www.w3.org/2000/svg"
   xmlns="http://www.w3.org/2000/svg"
   width="1183" height="789" viewBox="30.378122 235.95015 646.62006 431.26083"
   version="1.1">
  <metadata>
    <rdf:RDF>
      <cc:Work rdf:about="">
        <dc:format>image/svg+xml</dc:format>
        <dc:type rdf:resource="http://purl.org/dc/dcmitype/StillImage" />
        <dc:title>Flag of Autonomous Albanians June-Nov 1912</dc:title>
      </cc:Work>
    </rdf:RDF>
  </metadata>
  <rect style="fill:#990000;fill-opacity:1" width="646.62006" height="431.26083"
     x="30.378122" y="235.95015" />
  <path
     style="fill:#000000;fill-opacity:1"
     d="m 352.08338,654.09001 c 0,0 -1.34253,-2.76252 -1.72611,-5.83117 -0.38359,-3.06865 -4.2194,-4.98656 -4.98657,-9.78133 -0.76716,-4.79478 3.06866,-6.13731 3.06866,-11.12387 -2.1097,3.06865 -8.24701,9.78133 -15.34327,3.45223 -7.09626,-6.3291 7.28805,-19.75446 9.20596,-21.67237 1.91791,-1.9179 -2.30149,-3.45223 -4.41119,-1.34253 -2.1097,2.1097 -9.39775,8.82238 -12.08282,11.89103 -2.68508,3.06866 -7.67164,-2.1097 -4.60298,-5.37014 3.06865,-3.26045 9.01417,-9.39775 11.50745,-10.93208 2.49328,-1.53433 1.34253,-4.41119 -2.1097,-1.34254 -3.45224,3.06866 -6.8699,7.0062 -13.61716,10.93208 -1.90818,1.11027 -5.94551,0 -2.49327,-3.26044 3.45223,-3.26045 5.56193,-8.24701 6.1373,-12.27462 -5.37014,7.28805 -12.65819,11.89104 -14.19252,12.08283 -1.53433,0.19179 -5.17835,-1.34254 -5.17835,-5.17836 2.87686,-1.72611 4.0276,-3.83581 4.41119,-6.71268 3.06865,-1.72612 7.28805,-14.19252 6.32909,-19.56267 0,0 -3.83581,2.3015 -8.43879,7.09627 -4.60298,4.79477 -1.91791,6.71268 -4.98657,10.3567 -3.06865,3.64403 -6.1373,7.86343 -9.78133,5.56194 0,0 -3.64403,6.90447 -5.75373,9.39775 0,0 3.73992,0.19179 4.89067,1.05485 1.78933,1.34198 1.82201,12.37051 -1.63022,15.24737 0.19179,-7.09626 -3.7332,-11.70454 -8.15111,-10.3567 -5.65783,1.72612 -5.94552,13.71305 -3.45224,18.7955 -3.45223,-0.57537 -7.19216,-4.98656 -7.19216,-8.4388 l -7.86342,7.47985 c 0,0 0.28769,-9.01417 0.0959,-16.8776 -11.69925,-0.19179 -15.43917,1.91791 -21.28879,5.37014 -0.86306,-12.08282 16.7817,-13.04178 24.93281,-11.79513 0.95895,-1.53433 3.54813,-2.78097 6.2332,-2.39739 0.57538,-1.34254 15.52911,-14.03765 15.52911,-14.03765 0,0 0,0 -2.16986,-4.33973 2.71233,0 29.83565,-28.20826 29.83565,-28.20826 0,0 0.54247,-3.79726 0,-8.67946 -1.62739,-0.54247 -26.30962,-22.24113 -26.30962,-32.54799 0,-10.30687 7.86576,-17.35893 13.8329,-17.35893 5.96713,0 10.84933,8.67947 17.35892,8.137 6.5096,-0.54247 8.40824,-3.79726 8.40824,-9.22193 0,-5.42466 -4.61097,-9.7644 -8.9507,-9.7644 -4.33974,0 -11.93427,5.42467 -15.73153,5.42467 -3.79727,0 -15.73153,-5.96713 -23.32606,-17.90139 -0.54247,8.67946 -15.18906,78.65763 -56.41651,88.9645 -5.96713,-11.93427 14.91782,-42.31239 15.73153,-66.72338 -3.79727,0 -11.93427,0.27123 -14.10413,-48.55075 -2.16987,-48.82198 21.96989,-58.58638 42.04115,-57.50145 20.07125,1.08494 28.47949,8.40824 40.95622,25.2247 20.61372,-7.3233 9.28775,-56.61396 -1.08493,-60.21378 -4.8822,5.96713 -10.59173,14.29591 -33.37532,9.41372 -2.16987,-43.39732 32.83285,-48.47131 42.05478,-43.04664 0,0 4.8822,-5.96713 15.18906,-8.67947 -3.79727,5.42467 -5.42467,9.22193 -3.2548,18.98633 17.42981,13.85446 23.19387,51.0601 25.16139,63.16354 0.42064,2.58764 1.96193,2.4749 1.78817,2.4749 -0.17376,0 1.36753,0.11274 1.78817,-2.4749 1.96752,-12.10344 7.73158,-49.30908 25.16139,-63.16354 2.16987,-9.7644 0.54247,-13.56166 -3.2548,-18.98633 10.30686,2.71234 15.18906,8.67947 15.18906,8.67947 9.22193,-5.42467 43.84107,-0.54247 41.6712,42.85485 -22.78359,4.88219 -28.10954,-3.2548 -32.99174,-9.22193 -11.71521,2.0655 -21.69865,52.89048 -1.08493,60.21378 12.47673,-16.81646 20.88497,-24.13976 40.95622,-25.2247 20.07126,-1.08493 44.21102,8.67947 42.04115,57.50145 -2.16986,48.82198 -10.30686,48.55075 -14.10413,48.55075 0.81371,24.41099 21.69866,54.78911 15.73153,66.72338 -41.22745,-10.30687 -55.87404,-80.28504 -56.41651,-88.9645 -7.59453,11.93426 -19.52879,17.90139 -23.32606,17.90139 -3.79726,0 -11.39179,-5.42467 -15.73153,-5.42467 -4.33973,0 -8.9507,4.33974 -8.9507,9.7644 0,5.42467 1.89864,8.67946 8.40824,9.22193 6.50959,0.54247 11.39179,-8.137 17.35892,-8.137 5.96714,0 13.8329,7.05206 13.8329,17.35893 0,10.30686 -24.68223,32.00552 -26.30962,32.54799 -0.54247,4.8822 0,8.67946 0,8.67946 0,0 27.12332,28.20826 29.83565,28.20826 -2.16986,4.33973 -2.16986,4.33973 -2.16986,4.33973 0,0 14.95373,12.69511 15.52911,14.03765 2.68507,-0.38358 5.27425,0.86306 6.2332,2.39739 8.15111,-1.24665 25.79587,-0.28769 24.93281,11.79513 -5.84962,-3.45223 -9.58954,-5.56193 -21.28879,-5.37014 -0.19179,7.86343 0.0959,16.8776 0.0959,16.8776 l -7.86342,-7.47985 c 0,3.45224 -3.73993,7.86343 -7.19216,8.4388 2.49328,-5.08245 2.20559,-17.06938 -3.45224,-18.7955 -4.41791,-1.34784 -8.3429,3.26044 -8.15111,10.3567 -3.45223,-2.87686 -3.41955,-13.90539 -1.63022,-15.24737 1.15075,-0.86306 4.89067,-1.05485 4.89067,-1.05485 -2.1097,-2.49328 -5.75373,-9.39775 -5.75373,-9.39775 -3.64403,2.30149 -6.71268,-1.91791 -9.78133,-5.56194 -3.06866,-3.64402 -0.38359,-5.56193 -4.98657,-10.3567 -4.60298,-4.79477 -8.43879,-7.09627 -8.43879,-7.09627 -0.95896,5.37015 3.26044,17.83655 6.32909,19.56267 0.38359,2.87687 1.53433,4.98657 4.41119,6.71268 0,3.83582 -3.64402,5.37015 -5.17835,5.17836 -1.53433,-0.19179 -8.82238,-4.79478 -14.19252,-12.08283 0.57537,4.02761 2.68507,9.01417 6.1373,12.27462 3.45224,3.26044 -0.58509,4.37071 -2.49327,3.26044 -6.74726,-3.92588 -10.16492,-7.86342 -13.61716,-10.93208 -3.45223,-3.06865 -4.60298,-0.19179 -2.1097,1.34254 2.49328,1.53433 8.4388,7.67163 11.50745,10.93208 3.06866,3.26044 -1.9179,8.4388 -4.60298,5.37014 -2.68507,-3.06865 -9.97312,-9.78133 -12.08282,-11.89103 -2.1097,-2.1097 -6.3291,-0.57537 -4.41119,1.34253 1.91791,1.91791 16.30222,15.34327 9.20596,21.67237 -7.09626,6.3291 -13.23357,-0.38358 -15.34327,-3.45223 0,4.98656 3.83582,6.32909 3.06866,11.12387 -0.76717,4.79477 -4.60298,6.71268 -4.98657,9.78133 -0.38358,3.06865 -1.72611,5.83117 -1.72611,5.83117 -0.3782,0.85133 -1.12056,0.76876 -1.38718,0 z M 309.91787,332.88212 c -1.01712,-0.84761 -1.76301,-1.35616 -4.0685,-1.35616 -2.30548,0 -7.05271,1.62083 -8.13699,2.16986 -1.30122,0.65888 -10.24807,6.54699 -8.9507,13.8329 0.62422,3.50555 7.3233,4.1024 11.12056,3.2887 3.79727,-0.8137 9.32365,-5.32295 10.44248,-7.62843 0.66989,-1.38037 0.57638,-8.47604 -0.40685,-10.30687 z m -12.11461,6.20985 c -0.14384,-0.0959 3.26044,-0.86306 5.80167,-0.19179 2.54123,0.67127 3.26045,1.96586 1.39049,3.50018 -1.86996,1.53433 -4.07556,3.45224 -6.23321,4.17146 -2.15764,0.71921 -4.55503,0.38358 -6.28115,-1.29459 -1.72612,-1.67817 3.59608,-5.13041 5.3222,-6.18526 z m 98.37818,-7.87543 c -0.98323,1.83083 -1.07674,8.9265 -0.40685,10.30687 1.11883,2.30548 6.64521,6.81473 10.44248,7.62843 3.79726,0.8137 10.49634,0.21685 11.12056,-3.2887 1.29737,-7.28591 -7.64948,-13.17402 -8.9507,-13.8329 -1.08428,-0.54903 -5.83151,-2.16986 -8.13699,-2.16986 -2.30549,0 -3.05138,0.50855 -4.0685,1.35616 z m 12.11461,6.20985 c 0.14384,-0.0959 -3.26044,-0.86306 -5.80167,-0.19179 -2.54123,0.67127 -3.26045,1.96586 -1.39049,3.50018 1.86996,1.53433 4.07556,3.45224 6.23321,4.17146 2.15764,0.71921 4.55503,0.38358 6.28115,-1.29459 1.72612,-1.67817 -3.59608,-5.13041 -5.3222,-6.18526 z" />
  <path
     style="fill:#ffffff;fill-opacity:1"
     d="m 380.60872,265.78581 -9.05587,14.67041 9.38934,16.21505 -17.23288,-0.50741 -9.34797,16.23893 -8.17702,-15.17781 -18.73731,0.0239 9.05586,-14.67041 -9.38934,-16.21505 17.23288,0.50741 9.34798,-16.23894 8.17701,15.17782 18.73732,-0.0239 z"/>
</svg>
