<?xml version="1.0" encoding="UTF-8" standalone="no"?>
<!-- Created with Inkscape (http://www.inkscape.org/) -->

<svg
   xmlns:dc="http://purl.org/dc/elements/1.1/"
   xmlns:cc="http://creativecommons.org/ns#"
   xmlns:rdf="http://www.w3.org/1999/02/22-rdf-syntax-ns#"
   xmlns:svg="http://www.w3.org/2000/svg"
   xmlns="http://www.w3.org/2000/svg"
   version="1.0"
   width="744.09448"
   height="496.06299"
   id="svg548">
  <metadata
     id="metadata13">
    <rdf:RDF>
      <cc:Work
         rdf:about="">
        <dc:format>image/svg+xml</dc:format>
        <dc:type
           rdf:resource="http://purl.org/dc/dcmitype/StillImage" />
        <dc:title></dc:title>
      </cc:Work>
    </rdf:RDF>
  </metadata>
  <defs
     id="defs550" />
  <rect
     width="744.09448"
     height="496.06302"
     x="0"
     y="-0.000145"
     id="rect551"
     style="font-size:12px;fill:#0039a5;fill-opacity:1;fill-rule:evenodd;stroke-width:1pt" />
  <path
     d="m 192.26143,142.48953 -29.10156,-21.17346 -29.16367,21.08783 11.14428,-34.22019 -29.06779,-21.219794 35.98911,0.02422 11.19878,-34.202392 11.09821,34.23516 35.98902,0.08156 -29.13003,21.134274 11.04365,34.25279 z"
     transform="matrix(2.32476,0,0,2.32833,-6.6179,-1.76374)"
     id="polygon555"
     style="font-size:12px;fill:#ffc61e;fill-opacity:1;fill-rule:evenodd;stroke-width:1pt" />
  <path
     d="m 192.26143,142.48953 -29.10156,-21.17346 -29.16367,21.08783 11.14428,-34.22019 -29.06779,-21.219794 35.98911,0.02422 11.19878,-34.202392 11.09821,34.23516 35.98902,0.08156 -29.13003,21.134274 11.04365,34.25279 z"
     transform="matrix(0.702023,0,0,0.703102,-54.0337,378.026)"
     id="polygon556"
     style="font-size:12px;fill:#ffc61e;fill-opacity:1;fill-rule:evenodd;stroke-width:1pt" />
  <path
     d="m 192.26143,142.48953 -29.10156,-21.17346 -29.16367,21.08783 11.14428,-34.22019 -29.06779,-21.219794 35.98911,0.02422 11.19878,-34.202392 11.09821,34.23516 35.98902,0.08156 -29.13003,21.134274 11.04365,34.25279 z"
     transform="matrix(0.702023,0,0,0.703102,-54.0337,298.418)"
     id="polygon557"
     style="font-size:12px;fill:#ffc61e;fill-opacity:1;fill-rule:evenodd;stroke-width:1pt" />
  <path
     d="m 192.26143,142.48953 -29.10156,-21.17346 -29.16367,21.08783 11.14428,-34.22019 -29.06779,-21.219794 35.98911,0.02422 11.19878,-34.202392 11.09821,34.23516 35.98902,0.08156 -29.13003,21.134274 11.04365,34.25279 z"
     transform="matrix(0.702023,0,0,0.703102,-54.0337,220.3)"
     id="polygon558"
     style="font-size:12px;fill:#ffc61e;fill-opacity:1;fill-rule:evenodd;stroke-width:1pt" />
  <path
     d="m 192.26143,142.48953 -29.10156,-21.17346 -29.16367,21.08783 11.14428,-34.22019 -29.06779,-21.219794 35.98911,0.02422 11.19878,-34.202392 11.09821,34.23516 35.98902,0.08156 -29.13003,21.134274 11.04365,34.25279 z"
     transform="matrix(0.702023,0,0,0.703102,-54.0337,140.691)"
     id="polygon559"
     style="font-size:12px;fill:#ffc61e;fill-opacity:1;fill-rule:evenodd;stroke-width:1pt" />
  <path
     d="m 192.26143,142.48953 -29.10156,-21.17346 -29.16367,21.08783 11.14428,-34.22019 -29.06779,-21.219794 35.98911,0.02422 11.19878,-34.202392 11.09821,34.23516 35.98902,0.08156 -29.13003,21.134274 11.04365,34.25279 z"
     transform="matrix(0.702023,0,0,0.703102,-54.0337,60.4859)"
     id="polygon560"
     style="font-size:12px;fill:#ffc61e;fill-opacity:1;fill-rule:evenodd;stroke-width:1pt" />
  <path
     d="m 192.26143,142.48953 -29.10156,-21.17346 -29.16367,21.08783 11.14428,-34.22019 -29.06779,-21.219794 35.98911,0.02422 11.19878,-34.202392 11.09821,34.23516 35.98902,0.08156 -29.13003,21.134274 11.04365,34.25279 z"
     transform="matrix(0.702023,0,0,0.703102,-54.0337,-19.7194)"
     id="polygon561"
     style="font-size:12px;fill:#ffc61e;fill-opacity:1;fill-rule:evenodd;stroke-width:1pt" />
</svg>
