<?xml version="1.0" encoding="UTF-8" standalone="no"?>
<!-- Created with Inkscape (http://www.inkscape.org/) -->
<svg
   xmlns:dc="http://purl.org/dc/elements/1.1/"
   xmlns:cc="http://web.resource.org/cc/"
   xmlns:rdf="http://www.w3.org/1999/02/22-rdf-syntax-ns#"
   xmlns:svg="http://www.w3.org/2000/svg"
   xmlns="http://www.w3.org/2000/svg"
   xmlns:sodipodi="http://sodipodi.sourceforge.net/DTD/sodipodi-0.dtd"
   xmlns:inkscape="http://www.inkscape.org/namespaces/inkscape"
   version="1.0"
   width="900"
   height="600"
   id="svg912"
   sodipodi:version="0.32"
   inkscape:version="0.45.1"
   sodipodi:docname="Flag_of_Mozambique_(1983).svg"
   inkscape:output_extension="org.inkscape.output.svg.inkscape"
   sodipodi:docbase="D:\">
  <metadata
     id="metadata24">
    <rdf:RDF>
      <cc:Work
         rdf:about="">
        <dc:format>image/svg+xml</dc:format>
        <dc:type
           rdf:resource="http://purl.org/dc/dcmitype/StillImage" />
      </cc:Work>
    </rdf:RDF>
  </metadata>
  <sodipodi:namedview
     inkscape:window-height="968"
     inkscape:window-width="1280"
     inkscape:pageshadow="2"
     inkscape:pageopacity="0.0"
     guidetolerance="10.0"
     gridtolerance="10.0"
     objecttolerance="10.0"
     borderopacity="1.0"
     bordercolor="#666666"
     pagecolor="#ffffff"
     id="base"
     inkscape:zoom="0.88859752"
     inkscape:cx="450"
     inkscape:cy="300"
     inkscape:window-x="-4"
     inkscape:window-y="-4"
     inkscape:current-layer="svg912" />
  <defs
     id="defs914" />
  <rect
     width="900"
     height="187.5"
     x="0"
     y="206.25"
     transform="matrix(1,0,0,3.2,0,-660)"
     style="font-size:12px;fill:#000000;fill-opacity:1;fill-rule:evenodd;stroke-width:1pt"
     id="rect934" />
  <rect
     width="900"
     height="18.771421"
     x="0"
     y="187.45711"
     transform="matrix(1,0,0,10.98745,0,-2059.676)"
     style="font-size:12px;fill:#ffffff;fill-opacity:1;fill-rule:evenodd;stroke-width:1pt"
     id="rect935" />
  <rect
     width="900"
     height="187.5"
     x="0"
     y="0"
     style="font-size:12px;fill:#007168;fill-opacity:1;fill-rule:evenodd;stroke-width:1pt"
     id="rect937" />
  <rect
     width="900"
     height="18.771421"
     x="0"
     y="393.72849"
     transform="matrix(1,0,0,11.00077,0,-3937.817)"
     style="font-size:12px;fill:#ffffff;fill-opacity:1;fill-rule:evenodd;stroke-width:1pt"
     id="rect933" />
  <rect
     width="900"
     height="187.5"
     x="0"
     y="412.49997"
     style="font-size:12px;fill:#fce100;fill-opacity:1;fill-rule:evenodd;stroke-width:1pt"
     id="rect931" />
  <path
     d="M 0,0 L 0,600 L 393.75,300 L 0,0 z "
     style="font-size:12px;fill:#d21034;fill-opacity:1;fill-rule:evenodd;stroke-width:1pt"
     id="path932" />
  <g
     id="g2176">
    <g
       id="g1913">
      <path
         id="polygon916"
         style="font-size:12px;fill:#fce100;fill-opacity:1;fill-rule:evenodd;stroke-width:1pt"
         transform="matrix(1.221793,2.542786e-2,-2.542786e-2,1.221793,-21.7604,145.5065)"
         d="M 189.54603,214.56867 L 128.78569,171.99623 L 69.930531,217.0706 L 91.643351,146.12847 L 30.587837,104.08263 L 104.76744,102.81043 L 125.88822,31.750306 L 150.02091,101.90617 L 224.12978,100.03443 L 164.86501,144.66535 L 189.54603,214.56867 z " />
    </g>
    <g
       id="Layer 1"
       style="fill-rule:evenodd"
       transform="matrix(7.5847926e-2,0,0,7.5847926e-2,-408.96224,209.50016)">
      <g
         id="g2358"
         transform="translate(4862.7108,-418.95231)">
        <path
           id="path19"
           style="fill:#ffffff;stroke:#000000;stroke-width:14"
           d="M 2259,2718 L 2259,2869 C 2211,2869 2164,2866 2117,2860 L 2137,2710 C 2096,2704 2057,2696 2018,2686 L 1979,2832 C 1933,2819 1889,2803 1845,2786 L 1903,2646 C 1865,2630 1829,2611 1794,2590 L 1719,2723 C 1677,2698 1638,2672 1601,2644 L 1693,2524 C 1661,2499 1630,2472 1602,2443 L 1495,2550 C 1461,2516 1430,2480 1402,2444 L 1522,2351 C 1497,2319 1474,2285 1454,2250 L 1324,2326 C 1301,2284 1280,2242 1262,2199 L 1402,2141 C 1386,2103 1373,2064 1363,2025 L 1217,2065 C 1205,2019 1196,1972 1190,1926 L 1340,1906 C 1334,1866 1332,1825 1329,1784 L 1174,1783 C 1174,1735 1178,1688 1184,1642 L 1334,1661 C 1339,1621 1347,1581 1357,1542 L 1212,1503 C 1225,1457 1240,1413 1258,1370 L 1397,1428 C 1413,1390 1433,1353 1453,1318 L 1321,1243 C 1345,1202 1371,1162 1399,1125 L 1520,1217 C 1544,1185 1571,1154 1600,1126 L 1493,1019 C 1527,986 1563,954 1600,926 L 1692,1046 C 1724,1021 1758,999 1793,978 L 1718,848 C 1759,825 1802,804 1845,786 L 1903,926 C 1940,910 1979,897 2018,887 L 1979,741 C 2025,729 2071,720 2117,714 L 2137,864 C 2178,859 2218,856 2259,857 L 2259,706 C 2306,706 2354,709 2400,715 L 2380,865 C 2421,870 2460,878 2499,889 L 2539,743 C 2585,756 2629,771 2673,789 L 2615,929 C 2653,945 2689,964 2724,984 L 2799,852 C 2841,876 2880,902 2917,931 L 2825,1051 C 2857,1076 2888,1103 2916,1131 L 3023,1024 C 3057,1059 3088,1094 3116,1131 L 2996,1223 C 3021,1256 3044,1290 3064,1324 L 3194,1249 C 3217,1291 3238,1333 3256,1376 L 3116,1434 C 3132,1472 3145,1510 3155,1549 L 3301,1510 C 3313,1556 3322,1602 3328,1649 L 3178,1668 C 3184,1709 3186,1750 3189,1791 L 3344,1792 C 3344,1840 3340,1887 3334,1933 L 3184,1913 C 3179,1954 3171,1994 3161,2033 L 3306,2071 C 3293,2117 3278,2162 3260,2205 L 3121,2147 C 3105,2185 3085,2221 3065,2256 L 3197,2332 C 3173,2373 3147,2412 3119,2449 L 2999,2357 C 2974,2390 2947,2420 2918,2449 L 3025,2555 C 2991,2589 2955,2620 2918,2649 L 2826,2529 C 2794,2554 2760,2576 2725,2596 L 2800,2727 C 2759,2750 2716,2771 2673,2788 L 2615,2649 C 2578,2664 2539,2677 2500,2688 L 2539,2834 C 2493,2846 2447,2855 2401,2861 L 2381,2711 C 2340,2716 2300,2719 2259,2718 z " />
        <g
           id="g21">
          <path
             id="path23"
             style="fill:#ffffff;stroke:#000000;stroke-width:11;stroke-linecap:round;stroke-linejoin:round"
             d="M 1707,2177 L 2157,2177 C 2193,2218 2274,2234 2351,2177 C 2492,2099 2765,2177 2765,2177 L 2819,2120 L 2688,1690 L 2641,1640 C 2641,1640 2540,1579 2349,1600 C 2157,1620 2090,1593 2090,1593 C 2090,1593 1922,1613 1875,1636 C 1870,1641 1821,1690 1821,1690 L 1707,2177 z " />
          <path
             id="path25"
             style="fill:none;stroke:#000000;stroke-width:11;stroke-linecap:round;stroke-linejoin:round"
             d="M 1798,2066 C 1798,2066 2228,2013 2352,2177 C 2282,2225 2220,2229 2154,2180 C 2164,2163 2308,2013 2674,2063" />
          <path
             id="path27"
             style="fill:none;stroke:#000000;stroke-width:11"
             d="M 2258,1636 L 2255,2110" />
          <path
             id="path29"
             style="fill:none;stroke:#000000;stroke-width:11"
             d="M 2641,1643 L 2721,2019" />
          <path
             id="path31"
             style="fill:none;stroke:#000000;stroke-width:11;stroke-linecap:round;stroke-linejoin:round"
             d="M 1880,1637 L 1835,1831" />
          <path
             id="path33"
             style="fill:#000000;stroke:#000000;stroke-width:11;stroke-linecap:round;stroke-linejoin:round"
             d="M 1415,2229 L 1521,2353 C 1533,2360 1544,2360 1555,2353 L 1712,2165 L 1778,2083 C 1788,2071 1792,2057 1791,2045 L 1917,1933 C 1927,1934 1933,1935 1943,1936 C 1931,1933 1922,1927 1932,1914 L 1960,1892 L 1982,1920 C 1982,1920 1951,1961 1947,1961 C 1944,1961 1913,1961 1913,1961 L 1847,2020 L 1876,2046 L 1919,2165 L 1973,2127 L 1938,2005 L 2013,1923 L 1985,1879 L 2004,1854 C 2004,1854 2264,2018 2365,1974 C 2367,1975 2371,1857 2371,1857 C 2371,1857 2101,1829 2095,1776 C 2089,1722 2154,1716 2154,1716 L 2126,1675 L 2132,1653 L 2180,1713 L 2286,1622 L 2913,2337 C 2948,2323 2955,2315 2957,2281 C 2956,2280 2343,1575 2343,1575 L 2390,1525 C 2399,1514 2402,1510 2402,1493 L 2474,1431 C 2496,1438 2510,1451 2521,1468 L 2720,1300 C 2725,1305 2741,1311 2752,1305 L 3079,990 L 2722,1242 L 2710,1233 C 2710,1223 2723,1220 2710,1202 C 2696,1185 2675,1217 2672,1217 C 2669,1217 2620,1200 2610,1178 L 2606,1236 L 2515,1321 L 2446,1318 L 2346,1415 L 2333,1453 L 2349,1484 C 2349,1484 2296,1531 2296,1528 C 2296,1525 2285,1514 2284,1513 L 2330,1471 L 2336,1443 L 2321,1419 C 2316,1423 2258,1484 2255,1478 C 2250,1472 2085,1286 2085,1286 L 2095,1252 L 1988,1136 C 1949,1122 1888,1120 1875,1205 C 1866,1225 1784,1208 1784,1208 L 1740,1217 L 1493,1569 L 1631,1735 L 1913,1377 L 1921,1276 L 1981,1342 C 2000,1345 2019,1345 2037,1336 L 2204,1523 L 2176,1550 C 2186,1560 2192,1567 2202,1577 C 2211,1571 2220,1564 2229,1557 C 2233,1562 2238,1569 2241,1574 C 2227,1581 2217,1591 2203,1599 C 2181,1584 2159,1566 2161,1537 L 2067,1616 L 2063,1631 L 1784,1863 L 1759,1867 L 1753,1939 L 1935,1788 L 1935,1766 L 1954,1782 L 2095,1669 C 2095,1669 2104,1682 2101,1682 C 2098,1682 1976,1794 1976,1794 L 1973,1807 L 1951,1826 L 1938,1816 L 1769,1967 L 1744,1967 L 1650,2061 C 1625,2063 1604,2066 1584,2080 L 1415,2229 z " />
        </g>
        <path
           id="path35"
           style="fill:#d21034"
           d="M 2852,1248 L 2903,1402 L 3065,1402 L 2934,1498 L 2984,1653 L 2852,1557 L 2720,1653 L 2771,1498 L 2639,1402 L 2802,1402 L 2852,1248 z " />
      </g>
    </g>
  </g>
</svg>
