<?xml version="1.0" encoding="UTF-8" standalone="no"?>
<!-- Created with Inkscape (http://www.inkscape.org/) -->
<svg
   xmlns:dc="http://purl.org/dc/elements/1.1/"
   xmlns:cc="http://creativecommons.org/ns#"
   xmlns:rdf="http://www.w3.org/1999/02/22-rdf-syntax-ns#"
   xmlns:svg="http://www.w3.org/2000/svg"
   xmlns="http://www.w3.org/2000/svg"
   xmlns:sodipodi="http://sodipodi.sourceforge.net/DTD/sodipodi-0.dtd"
   xmlns:inkscape="http://www.inkscape.org/namespaces/inkscape"
   version="1.0"
   width="449.99997"
   height="300"
   id="svg2"
   sodipodi:version="0.32"
   inkscape:version="0.46"
   sodipodi:docname="Flag_of_Anjouan.svg"
   sodipodi:docbase="D:\Wikipedia\toSVG"
   inkscape:output_extension="org.inkscape.output.svg.inkscape">
  <metadata
     id="metadata7">
    <rdf:RDF>
      <cc:Work
         rdf:about="">
        <dc:format>image/svg+xml</dc:format>
        <dc:type
           rdf:resource="http://purl.org/dc/dcmitype/StillImage" />
      </cc:Work>
    </rdf:RDF>
  </metadata>
  <sodipodi:namedview
     inkscape:window-height="764"
     inkscape:window-width="1152"
     inkscape:pageshadow="2"
     inkscape:pageopacity="0.0"
     guidetolerance="10.0"
     gridtolerance="10.0"
     objecttolerance="10.0"
     borderopacity="1.0"
     bordercolor="#666666"
     pagecolor="#ffffff"
     id="base"
     inkscape:zoom="1"
     inkscape:cx="117.50944"
     inkscape:cy="174.19048"
     inkscape:window-x="85"
     inkscape:window-y="-19"
     inkscape:current-layer="svg2"
     showgrid="false" />
  <defs
     id="defs4" />
  <g
     id="g3185"
     transform="translate(-2e-6,-48.38095)">
    <path
       sodipodi:nodetypes="ccccc"
       d="M 2e-06,48.38095 L 449.99998,48.38095 L 449.99998,348.38095 L 2e-06,348.38095 L 2e-06,48.38095 z"
       style="fill:#ce1126;fill-opacity:1"
       id="path1909" />
    <path
       transform="matrix(0.841325,0,0,0.841325,-1.8048277,60.167046)"
       d="M 355.7541,175.57294 A 86.173599,86.173599 0 1 1 183.40691,175.57294 A 86.173599,86.173599 0 1 1 355.7541,175.57294 z"
       sodipodi:ry="86.173599"
       sodipodi:rx="86.173599"
       sodipodi:cy="175.57294"
       sodipodi:cx="269.58051"
       id="path2385"
       style="opacity:1;fill:#ffffff;fill-opacity:1;fill-rule:evenodd;stroke:none;stroke-width:2;marker:none;marker-start:none;marker-mid:none;marker-end:none;stroke-miterlimit:4;stroke-dasharray:none;stroke-opacity:1;visibility:visible;display:inline;overflow:visible;enable-background:accumulate"
       sodipodi:type="arc" />
    <path
       transform="matrix(0.8123138,0,0,0.8123138,6.0160263,45.760639)"
       d="M 355.7541,175.57294 A 86.173599,86.173599 0 1 1 183.40691,175.57294 A 86.173599,86.173599 0 1 1 355.7541,175.57294 z"
       sodipodi:ry="86.173599"
       sodipodi:rx="86.173599"
       sodipodi:cy="175.57294"
       sodipodi:cx="269.58051"
       id="path3157"
       style="opacity:1;fill:#ce1126;fill-opacity:1;fill-rule:evenodd;stroke:none;stroke-width:2;marker:none;marker-start:none;marker-mid:none;marker-end:none;stroke-miterlimit:4;stroke-dasharray:none;stroke-opacity:1;visibility:visible;display:inline;overflow:visible;enable-background:accumulate"
       sodipodi:type="arc" />
    <path
       sodipodi:nodetypes="cssssssssssccccsssccccssssccccsssssssc"
       d="M 236.59256,234.57493 C 239.53097,233.89304 243.37032,231.98686 245.12443,230.33896 C 249.67298,226.06583 254.76393,210.27313 258.33664,189.35317 C 260.03258,179.42262 262.65897,168.17262 264.17307,164.35318 C 265.68715,160.53373 267.47583,156.00989 268.14791,154.30018 C 270.14877,149.21026 268.31526,146.59289 263.43292,147.56937 C 257.53746,148.74846 254.63643,151.80534 252.06457,159.54851 C 250.84532,163.21933 249.03439,166.89775 248.0403,167.72278 C 246.57827,168.93615 246.08855,165.83762 245.47796,151.51023 C 244.59768,130.8553 243.26377,126.15873 238.27766,126.15873 C 235.00208,126.15873 232.48049,127.48445 231.53951,133.22238 C 230.98027,136.63243 231.36403,140.4587 231.51938,147.58797 L 231.92824,165.70362 L 231.2947,165.70998 L 230.67456,147.68651 C 230.37558,142.19597 230.35886,137.82643 230.0387,134.35309 C 229.18944,125.13947 227.62856,122.23199 225.55036,121.43451 C 220.32308,119.42862 217.50856,123.88292 216.56888,137.18679 C 216.35252,140.24997 216.3754,143.47337 216.31701,147.54654 L 216.45668,164.46191 L 215.91217,164.48067 L 215.60156,145.32516 C 215.44261,141.99341 215.50939,139.07096 215.39563,136.74857 C 214.77242,124.02668 209.33072,123.07157 207.1,123.94931 C 206.19144,124.30681 204.81104,125.70474 204.00201,128.17282 C 203.19298,130.64089 203.3847,134.33501 203.12247,137.15802 C 202.81665,140.45012 202.74787,146.91404 202.74787,146.91404 L 202.19049,168.51984 L 201.49607,168.5363 L 201.83472,152.16021 C 201.78702,149.51364 201.87129,147.71501 201.80745,143.66624 C 201.74361,139.61745 202.13968,135.83994 200.43051,133.87277 C 198.72134,131.90558 194.43989,131.41145 191.94301,136.92262 C 189.98839,141.23687 189.60093,146.42253 189.68589,167.13095 C 189.77424,188.6626 190.19016,193.30519 192.68389,200.59488 C 194.27637,205.25004 196.03125,212.67602 196.58362,217.09708 C 197.83592,227.12004 202.51093,232.97043 210.49618,234.50747 C 218.24475,235.99894 230.32146,236.03014 236.59256,234.57493 z"
       style="fill:#ffffff;fill-opacity:1"
       id="path2383" />
  </g>
</svg>
