<?xml version="1.0" encoding="UTF-8" standalone="no"?>
<!-- Created with Inkscape (http://www.inkscape.org/) -->

<svg
   xmlns:dc="http://purl.org/dc/elements/1.1/"
   xmlns:cc="http://creativecommons.org/ns#"
   xmlns:rdf="http://www.w3.org/1999/02/22-rdf-syntax-ns#"
   xmlns:svg="http://www.w3.org/2000/svg"
   xmlns="http://www.w3.org/2000/svg"
   xmlns:sodipodi="http://sodipodi.sourceforge.net/DTD/sodipodi-0.dtd"
   xmlns:inkscape="http://www.inkscape.org/namespaces/inkscape"
   version="1.1"
   width="900"
   height="600"
   id="svg2165"
   inkscape:version="0.48.1 "
   sodipodi:docname="ZZ1.svg">
  <metadata
     id="metadata110">
    <rdf:RDF>
      <cc:Work
         rdf:about="">
        <dc:format>image/svg+xml</dc:format>
        <dc:type
           rdf:resource="http://purl.org/dc/dcmitype/StillImage" />
      </cc:Work>
    </rdf:RDF>
  </metadata>
  <sodipodi:namedview
     pagecolor="#ffffff"
     bordercolor="#666666"
     borderopacity="1"
     objecttolerance="10"
     gridtolerance="10"
     guidetolerance="10"
     inkscape:pageopacity="0"
     inkscape:pageshadow="2"
     inkscape:window-width="1280"
     inkscape:window-height="1004"
     id="namedview108"
     showgrid="false"
     showguides="true"
     inkscape:guide-bbox="true"
     inkscape:zoom="1.2303658"
     inkscape:cx="373.20256"
     inkscape:cy="328.06582"
     inkscape:window-x="-8"
     inkscape:window-y="-8"
     inkscape:window-maximized="1"
     inkscape:current-layer="svg2165" />
  <defs
     id="defs2167" />
  <g
     id="g23042">
    <rect
       width="900"
       height="600"
       x="0"
       y="0"
       id="rect17243"
       style="fill:#de2119;fill-opacity:1;fill-rule:evenodd;stroke:none" />
    <g
       transform="matrix(0.50889821,0,0,0.50889821,50.809555,-204.53219)"
       id="g6360">
      <g
         id="g6314">
        <g
           id="g5398">
          <path
             d="m 366.66876,897.28478 c 4.73924,-2.18587 4.62017,-6.8009 4.54004,-11.39646 -0.48131,-9.091 -8.89565,-35.7914 6.71742,-43.54738 2.97843,-3.0091 3.67547,-5.87722 8.94111,-11.21114 2.13104,-4.0277 3.70616,-11.22634 6.53211,-11.67441 1.63532,-4.20123 1.56893,-8.85078 5.88353,-11.4891 3.50365,-10.08469 5.73008,-11.31108 8.2462,-14.54668 1.23539,-7.39903 2.19282,-8.97897 3.4282,-10.09929 0.70507,-6.3386 0.59991,-13.89551 4.35474,-17.41895 -1.17841,-7.15009 -0.2549,-12.54871 1.76043,-18.71611 -1.3001,-6.60932 -3.11397,-13.21864 -0.37062,-19.82796 -1.07468,-5.88052 -3.97961,-10.38835 -2.409,-18.25284 -1.96216,-6.75878 -8.51002,-13.30913 -5.55924,-20.29123 -3.42142,-4.60602 -5.03906,-9.84867 -4.26208,-15.93649 -2.99667,-4.53276 -6.77259,-8.45325 -6.48579,-15.56587 -2.61839,-4.10054 -6.37923,-7.45136 -5.28127,-13.99076 -2.99092,-4.41361 -9.2837,-7.92083 -6.57844,-13.8981 -4.75821,-2.66064 -9.13406,-5.63566 -8.43152,-12.78625 -9.52715,-6.78701 -11.4965,-11.33861 -12.36931,-15.56588 -7.5096,-3.18243 -13.73041,-10.26719 -14.4077,-16.67772 -7.56674,-8.12267 -17.91922,-13.02619 -22.70023,-24.36801 6.83106,1.71323 14.0251,5.72528 21.21777,9.72867 -4.62684,-8.66019 12.28126,-3.71914 15.75118,2.31636 6.47194,1.00129 12.86527,2.25693 17.27998,9.91398 8.09678,2.35019 12.39549,6.70266 15.51954,11.6744 6.72227,4.17822 7.86632,5.9397 11.30379,13.34218 4.97896,2.6002 7.8649,6.91287 10.14562,11.72073 5.89814,3.87299 10.26143,8.61805 10.74786,15.56587 7.19281,3.63799 9.1074,8.85648 10.05297,14.59301 5.59,2.50009 7.15964,8.58593 8.2462,15.1026 6.79185,5.40953 6.60643,11.56663 6.67109,17.69692 7.72299,4.69169 7.7542,13.4555 7.22701,22.51493 5.42165,3.63505 8.90054,9.53665 6.94905,21.77369 4.16908,5.78075 4.69289,12.31807 2.31636,19.45735 6.66153,11.01743 3.85404,18.14205 -0.46327,24.64596 6.50277,10.00918 2.76395,18.52726 -2.96493,27.24028 3.93312,9.58432 1.11293,17.31497 -5.18863,24.09005 2.01356,11.97417 -2.7585,18.02041 -8.24621,23.44146 1.06399,10.0891 -2.55397,16.75963 -9.2654,21.17145 -0.41083,7.09189 -4.36475,13.89129 -9.63602,17.74323 -2.04685,6.07117 -3.4831,12.00614 -11.25746,16.16813 -1.19217,4.47774 -4.08946,12.58212 -14.59301,16.35342 -4.61029,13.08159 -21.76531,16.22787 -49.84786,8.0609 -4.71801,-1.38998 -9.18747,-3.38363 -15.56587,-0.74124 z"
             id="path4138"
             style="fill:#297b31;fill-opacity:1;stroke:#000000;stroke-width:1.79266429;stroke-linecap:butt;stroke-linejoin:round;stroke-miterlimit:4;stroke-opacity:1;stroke-dasharray:none" />
          <g
             transform="matrix(-0.51218978,0,0,0.51218978,531.77821,390.27211)"
             id="g4142">
            <path
               d="m 294.68255,966.01366 c -11.05733,-29.92749 9.0339,-42.02386 4.88424,-82.30851 l -7.23592,-9.76848 c 10.0203,20.33912 2.89686,51.35952 -8.50219,83.75569 z"
               id="path4146"
               style="fill:#000000;fill-opacity:1;stroke:#000000;stroke-opacity:1" />
            <path
               d="m 268.99506,941.95425 c -0.70437,-30.18282 15.80289,-46.86008 16.64259,-77.60517 l -5.60783,-7.23591 c 6.40181,20.94723 -7.31175,54.80292 -18.81337,76.70068 z"
               id="path4148"
               style="fill:#000000;fill-opacity:1;stroke:#000000;stroke-opacity:1" />
            <path
               d="m 251.26707,922.41728 c -6.21287,-28.17572 19.80652,-52.7279 20.62235,-82.12761 l -5.42693,-8.3213 c 4.78747,27.63327 -12.89314,56.42648 -23.69762,81.04223 z"
               id="path4150"
               style="fill:#000000;fill-opacity:1;stroke:#000000;stroke-opacity:1" />
            <path
               d="m 231.911,896.0062 c -2.15154,-27.3485 27.68737,-55.94429 26.77288,-78.87145 l -3.07526,-6.33142 c -1.31721,26.85057 -18.4191,54.86205 -32.01892,73.80631 z"
               id="path4152"
               style="fill:#000000;fill-opacity:1;stroke:#000000;stroke-opacity:1" />
            <path
               d="m 214.90661,870.8614 c -5.44714,-28.58309 26.1825,-45.52813 30.02904,-80.31863 l -3.97976,-7.9595 c 0.81275,31.91969 -20.10739,53.99312 -33.4661,75.07259 z"
               id="path4154"
               style="fill:#000000;fill-opacity:1;stroke:#000000;stroke-opacity:1" />
            <path
               d="m 201.88196,846.98289 c -5.81017,-31.2746 16.61811,-35.69932 34.18969,-77.96696 l -2.35167,-8.68309 c -7.60823,30.99976 -24.5385,50.25318 -39.61662,70.00745 z"
               id="path4156"
               style="fill:#000000;fill-opacity:1;stroke:#000000;stroke-opacity:1" />
            <path
               d="m 187.59104,812.7932 c -2.98919,-31.04569 28.13646,-44.93549 40.8829,-76.88157 l -2.17077,-5.60783 c -4.78743,15.98171 -23.22945,45.7254 -46.12894,62.59064 z"
               id="path4158"
               style="fill:#000000;fill-opacity:1;stroke:#000000;stroke-opacity:1" />
            <path
               d="m 174.0237,772.45299 c -4.17167,-19.34608 31.16671,-46.98762 49.38511,-73.98721 l 0.90448,-11.93925 c -15.95124,27.83503 -33.59818,49.17486 -53.54575,70.36925 z"
               id="path4160"
               style="fill:#000000;fill-opacity:1;stroke:#000000;stroke-opacity:1" />
            <path
               d="m 167.14958,731.75098 c -0.22946,-25.1023 36.41307,-44.46771 56.98282,-72.35912 l 2.17077,-9.76849 c -21.02952,26.08033 -39.43363,46.9024 -60.96256,65.48501 z"
               id="path4162"
               style="fill:#000000;fill-opacity:1;stroke:#000000;stroke-opacity:1" />
            <path
               d="m 165.7024,685.44114 c 10.82244,-21.62217 41.73734,-41.13548 62.95244,-61.50526 l 4.34155,-10.49207 c -22.92399,21.11527 -45.95248,45.34449 -67.47489,62.04795 z"
               id="path4164"
               style="fill:#000000;fill-opacity:1;stroke:#000000;stroke-opacity:1" />
            <path
               d="m 170.04395,643.47285 c 5.20606,-18.36241 49.08189,-33.98827 70.00745,-60.41987 l 1.80898,-5.24604 c -20.11897,22.0014 -45.75026,40.17138 -70.91194,53.18396 z"
               id="path4166"
               style="fill:#000000;fill-opacity:1;stroke:#000000;stroke-opacity:1" />
            <path
               d="m 174.3855,615.25278 c 11.27422,-22.2569 49.86739,-35.75739 73.8063,-62.04795 l 1.98988,-6.15052 c -21.29807,20.63358 -47.86666,39.13244 -69.82656,53.54575 z"
               id="path4168"
               style="fill:#000000;fill-opacity:1;stroke:#000000;stroke-opacity:1" />
            <path
               d="m 188.49553,578.71143 c 2.33286,-17.10939 49.13726,-34.60057 72.17823,-54.63114 l 3.25616,-8.6831 c -20.91905,21.78602 -45.10815,35.5358 -69.82656,46.30984 z"
               id="path4170"
               style="fill:#000000;fill-opacity:1;stroke:#000000;stroke-opacity:1" />
            <path
               d="m 212.19314,525.88927 c 16.5535,-13.28844 33.48113,-17.52301 59.33448,-30.20994 l 3.79886,-7.23591 c -23.49001,15.30036 -42.61527,23.6717 -60.05808,27.85826 z"
               id="path4172"
               style="fill:#000000;fill-opacity:1;stroke:#000000;stroke-opacity:1" />
            <path
               d="m 225.21778,502.91524 c 10.25842,-19.31879 37.27507,-19.24424 60.78167,-35.63687 11.75274,-12.20132 16.34381,-21.76575 15.42344,-23.8951 -0.44766,-1.03568 -5.09931,4.38305 -5.29316,3.09185 -9.08016,24.18903 -45.47745,35.3984 -65.48501,42.33009 z"
               id="path4174"
               style="fill:#000000;fill-opacity:1;stroke:#000000;stroke-opacity:1" />
            <path
               d="m 245.47834,472.70531 c 12.27959,-14.36179 36.74014,-18.85249 56.44012,-30.02904 7.91112,-9.41609 18.73321,-17.66779 22.33318,-28.80834 l -14.19278,6.37701 c 1.42614,20.65569 -38.64163,35.2792 -56.80191,40.15932 z"
               id="path4176"
               style="fill:#000000;fill-opacity:1;stroke:#000000;stroke-opacity:1" />
            <path
               d="m 266.64338,444.48524 c 17.35395,-18.42824 38.46705,-20.88008 57.70641,-31.29532 10.64711,-8.61502 23.11458,-14.39027 28.10464,-31.83028 l -10.82889,3.61023 c -1.21086,25.72448 -47.26186,40.13321 -63.2238,43.77727 z"
               id="path4178"
               style="fill:#000000;fill-opacity:1;stroke:#000000;stroke-opacity:1" />
            <path
               d="m 394.5,332.3125 c -2.3446,0.0232 -7.05612,2.18668 -12.5625,5.34375 -5.48805,2.49903 -23.24894,12.23417 -26.96875,12.5 -23.44403,18.52488 -45.38744,41.36819 -59.0625,60.34375 12.75668,-8.67285 37.31222,-24.76073 56.84375,-29.5 4.29941,-8.98792 27.09136,-25.62024 35.6875,-35.65625 8.16659,-9.5345 9.07698,-13.06113 6.0625,-13.03125 z m -6.875,7.1875 c 3.89506,0.16526 -3.80816,7.29625 -5.8125,9.90625 -15.02354,19.56326 -34.27424,29.77006 -53.46875,37.34375 -21.41199,8.44865 -7.83086,-1.54179 -4.71875,-4.71875 13.86586,-14.15481 29.25438,-27.60967 49.875,-37.375 8.18136,-3.87446 12.35452,-5.23137 14.125,-5.15625 z"
               id="path4180"
               style="fill:#000000;fill-opacity:1;stroke:#000000;stroke-opacity:1" />
          </g>
          <g
             id="g5375">
            <path
               d="m 379.82563,597.45637 c -3.53644,-8.56842 -7.18062,-16.51187 -11.4891,-24.46065 -1.2829,-0.42724 -2.96956,-0.63727 -3.96983,-1.79537 -2.96019,-3.42727 -18.44015,-9.26047 -14.25461,-2.17013 3.19755,1.53274 13.8175,-8.77065 28.32373,28.61146 z"
               id="path4140"
               style="fill:#000000;fill-opacity:1;stroke:#000000;stroke-width:0.51218981;stroke-opacity:1" />
            <g
               transform="matrix(-0.51218978,0,0,0.51218978,531.77821,390.27211)"
               id="g4182"
               style="fill:#000000;fill-opacity:1;stroke:#000000;stroke-opacity:1">
              <path
                 d="m 352.27536,1038.7292 c -43.58382,-30.8299 -51.38571,1.3218 -113.33187,-9.7215 l -2.30245,-3.8374 c 21.81559,5.5086 54.72223,1.3156 93.88893,-5.6283 l 25.90783,14.7938 z"
                 id="path4184"
                 style="fill:#000000;fill-opacity:1;stroke:#000000;stroke-width:1px;stroke-linecap:butt;stroke-linejoin:miter;stroke-opacity:1" />
              <path
                 d="m 326.94837,1017.4954 c -35.47479,-25.07109 -80.25923,-6.5852 -116.91346,-19.44292 l -1.27914,-4.34908 c 31.23948,8.4055 54.23959,6.7481 91.8423,5.62822 z"
                 id="path4186"
                 style="fill:#000000;fill-opacity:1;stroke:#000000;stroke-width:1px;stroke-linecap:butt;stroke-linejoin:miter;stroke-opacity:1" />
              <path
                 d="M 286.78335,987.81935 C 270.7933,970.75668 218.5801,979.19232 189.057,967.3531 l -2.04662,-5.88405 c 22.80906,11.40406 52.42921,12.96658 85.4466,13.04724 z"
                 id="path4188"
                 style="fill:#000000;fill-opacity:1;stroke:#000000;stroke-width:1px;stroke-linecap:butt;stroke-linejoin:miter;stroke-opacity:1" />
              <path
                 d="M 255.57232,959.67825 C 249.91794,944.8699 200.41351,943.0222 169.35823,932.8163 l -0.76748,-4.86074 c 19.18369,5.61672 26.42545,12.62203 72.65519,15.09386 z"
                 id="path4190"
                 style="fill:#000000;fill-opacity:1;stroke:#000000;stroke-width:1px;stroke-linecap:butt;stroke-linejoin:miter;stroke-opacity:1" />
              <path
                 d="m 226.15208,923.86231 c -0.0441,-7.67504 -47.64026,-21.69035 -74.95764,-33.00183 l 0,-5.11656 c 17.98421,7.62995 3.58979,7.16524 67.79445,26.3503 z"
                 id="path4192"
                 style="fill:#000000;fill-opacity:1;stroke:#000000;stroke-width:1px;stroke-linecap:butt;stroke-linejoin:miter;stroke-opacity:1" />
              <path
                 d="m 201.08092,882.92981 c 0.71867,-7.86324 -42.87301,-23.0995 -65.74783,-36.83925 l -0.51166,-5.88405 c 18.95032,11.72339 38.68261,22.59999 63.70121,31.46686 z"
                 id="path4194"
                 style="fill:#000000;fill-opacity:1;stroke:#000000;stroke-width:1px;stroke-linecap:butt;stroke-linejoin:miter;stroke-opacity:1" />
              <path
                 d="m 180.61467,835.6016 c -15.91403,-16.74268 -37.0794,-26.13348 -56.02636,-38.63005 l -3.32577,-11.00061 c 16.55256,17.04851 40.37723,32.91715 55.25888,38.1184 z"
                 id="path4196"
                 style="fill:#000000;fill-opacity:1;stroke:#000000;stroke-width:1px;stroke-linecap:butt;stroke-linejoin:miter;stroke-opacity:1" />
              <path
                 d="m 117.93678,744.78261 c 15.80821,17.36946 36.62275,31.39039 49.37483,45.53741 l -1.53497,-9.72147 c -19.15323,-11.44393 -33.96165,-25.06027 -46.3049,-39.90919 z"
                 id="path4198"
                 style="fill:#000000;fill-opacity:1;stroke:#000000;stroke-width:1px;stroke-linecap:butt;stroke-linejoin:miter;stroke-opacity:1" />
              <path
                 d="m 160.40425,755.27156 -1.7908,-20.21042 c -22.56614,-14.66748 -29.5716,-29.84662 -40.67667,-44.76993 l -0.76749,5.88405 c 13.85948,22.88759 41.09902,38.84149 43.23496,59.0963 z"
                 id="path4200"
                 style="fill:#000000;fill-opacity:1;stroke:#000000;stroke-width:1px;stroke-linecap:butt;stroke-linejoin:miter;stroke-opacity:1" />
              <path
                 d="m 157.59014,715.87403 c -7.51685,-22.60767 -26.78466,-40.10907 -36.07177,-58.32882 l 1.53497,-5.11656 c 10.8624,19.08566 22.67844,37.69451 37.60674,54.74722 z"
                 id="path4202"
                 style="fill:#000000;fill-opacity:1;stroke:#000000;stroke-width:1px;stroke-linecap:butt;stroke-linejoin:miter;stroke-opacity:1" />
              <path
                 d="m 157.59014,696.68692 c 4.20555,-32.36845 -12.83654,-55.49879 -23.02453,-81.60918 l 2.30245,-11.51227 c 3.03427,26.27222 17.94156,44.98887 27.62944,67.02698 z"
                 id="path4204"
                 style="fill:#000000;fill-opacity:1;stroke:#000000;stroke-width:1px;stroke-linecap:butt;stroke-linejoin:miter;stroke-opacity:1" />
              <path
                 d="m 161.68339,652.94031 c 2.13397,-16.53995 5.42113,-31.24149 -14.07055,-82.12084 l 4.09325,-4.09325 c 3.54837,21.95784 10.57284,41.01894 18.1638,59.60796 z"
                 id="path4206"
                 style="fill:#000000;fill-opacity:1;stroke:#000000;stroke-width:1px;stroke-linecap:butt;stroke-linejoin:miter;stroke-opacity:1" />
              <path
                 d="m 169.10241,618.65933 c 6.90361,-40.17104 -7.45138,-58.2705 -7.93068,-81.865 l 4.34908,-6.13988 c -0.99067,19.18166 4.53466,42.8943 12.53558,66.00366 z"
                 id="path4208"
                 style="fill:#000000;fill-opacity:1;stroke:#000000;stroke-width:1px;stroke-linecap:butt;stroke-linejoin:miter;stroke-opacity:1" />
              <path
                 d="m 180.35884,580.28511 c 8.2756,-20.15505 -5.71811,-48.50436 -3.83742,-73.93433 l 4.60491,-4.34908 c -2.56726,25.98647 1.22791,41.93026 8.1865,60.11961 z"
                 id="path4210"
                 style="fill:#000000;fill-opacity:1;stroke:#000000;stroke-width:1px;stroke-linecap:butt;stroke-linejoin:miter;stroke-opacity:1" />
              <path
                 d="m 198.26681,540.37592 c -4.19071,-38.51 -2.30923,-45.79157 -2.04662,-61.39876 l 3.32577,-3.83742 c -1.83537,20.36063 -0.88815,39.32996 4.09325,56.2822 z"
                 id="path4212"
                 style="fill:#000000;fill-opacity:1;stroke:#000000;stroke-width:1px;stroke-linecap:butt;stroke-linejoin:miter;stroke-opacity:1" />
              <path
                 d="m 217.70975,501.49004 c -1.12917,-18.00353 -2.75612,-36.25596 -1.27914,-52.95642 l 6.90736,-6.90736 c -3.50977,12.21659 -6.23907,25.81402 -1.02331,53.46808 z"
                 id="path4214"
                 style="fill:#000000;fill-opacity:1;stroke:#000000;stroke-width:1px;stroke-linecap:butt;stroke-linejoin:miter;stroke-opacity:1" />
              <path
                 d="m 236.12938,475.13974 c -1.29464,-14.73338 -2.17069,-29.99 -0.76748,-48.09569 l 6.13987,-5.62822 c -4.82284,18.57229 -3.15761,35.70278 -2.04662,52.95643 z"
                 id="path4216"
                 style="fill:#000000;fill-opacity:1;stroke:#000000;stroke-width:1px;stroke-linecap:butt;stroke-linejoin:miter;stroke-opacity:1" />
              <path
                 d="m 257.36312,446.48699 c -0.35805,-15.14267 -1.8626,-29.4664 2.30245,-47.83986 l 16.373,-15.86135 c -12.32571,17.14848 -20.54354,36.1227 -14.5822,61.39876 z"
                 id="path4218"
                 style="fill:#000000;fill-opacity:1;stroke:#000000;stroke-width:1px;stroke-linecap:butt;stroke-linejoin:miter;stroke-opacity:1" />
              <path
                 d="m 278.34102,425.50908 c 1.71339,-15.35494 5.21091,-32.64606 10.48896,-49.63066 5.86897,-5.33439 18.79359,-19.40334 30.69641,-19.3301 1.61589,0.01 -3.33672,3.73011 -1.532,4.49207 -7.28983,2.15546 -33.44395,7.03268 -33.25766,57.04968 z"
                 id="path4220"
                 style="fill:#000000;fill-opacity:1;stroke:#000000;stroke-width:1px;stroke-linecap:butt;stroke-linejoin:miter;stroke-opacity:1" />
            </g>
          </g>
        </g>
        <path
           d="m 322.38014,933.0492 -8.89479,-8.89479 C 384.19398,908.71875 536.45819,767.60375 379.0844,598.38292 491.53597,702.89295 468.54849,876.56205 322.38014,933.0492 z"
           id="path4222"
           style="fill:#297b31;fill-opacity:1;stroke:#000000;stroke-width:2.50972986;stroke-linecap:butt;stroke-linejoin:round;stroke-miterlimit:4;stroke-opacity:1;stroke-dasharray:none" />
      </g>
      <g
         id="g5442">
        <path
           d="m 133.97932,905.80895 c -4.73924,-2.18587 -4.62017,-6.8009 -4.54004,-11.39646 0.48131,-9.09101 4.63357,-34.12363 -10.9795,-41.87961 -4.1386,-5.77709 -7.30651,-10.25278 -8.98745,-10.37725 -2.57336,-4.06308 -2.53241,-7.18199 -7.7366,-11.02583 -2.131047,-4.0277 -3.706164,-11.22634 -6.532114,-11.67441 -1.635325,-4.20123 -1.568935,-8.85078 -5.883529,-11.4891 -3.503655,-10.08469 -5.730083,-11.31108 -8.246205,-14.54668 -1.235386,-7.39903 -2.192812,-8.97897 -3.428199,-10.09929 -0.70507,-6.3386 -0.599907,-13.89552 -4.354739,-17.41895 1.17841,-7.15009 0.254901,-12.54871 -1.760427,-18.71611 1.300096,-6.60932 3.113965,-13.21864 0.370615,-19.82796 1.074687,-5.88052 3.979612,-10.38835 2.409003,-18.25284 1.962163,-6.75878 8.510017,-13.30913 5.559241,-20.29123 3.421422,-4.60602 5.039061,-9.84867 4.262085,-15.93649 2.996668,-4.53276 6.772583,-8.45325 6.485782,-15.56587 2.618396,-4.10054 6.379237,-7.45136 5.281276,-13.99076 2.990917,-4.41361 9.283691,-7.92083 6.578441,-13.8981 4.7582,-2.66064 9.13405,-5.63566 8.43151,-12.78625 9.52716,-6.78701 11.49651,-11.33861 12.36931,-15.56588 7.50961,-3.18243 13.73042,-10.26719 14.4077,-16.67772 7.56674,-8.12267 17.91922,-13.02619 22.70024,-24.36801 -6.83107,1.71323 -14.0251,5.72528 -21.21777,9.72867 4.62684,-8.66019 -12.28127,-3.71915 -15.75118,2.31636 -6.47195,1.00129 -12.86527,2.25693 -17.27998,9.91398 -8.09678,2.35018 -12.395491,6.70266 -15.519547,11.6744 -6.722271,4.17822 -7.866313,5.9397 -11.303788,13.34217 -4.978956,2.60021 -7.864904,6.91288 -10.145619,11.72074 -5.898142,3.87299 -10.26143,8.61805 -10.747862,15.56587 -7.192809,3.63798 -9.107395,8.85648 -10.052964,14.59301 -5.590008,2.50009 -7.159639,8.58593 -8.246204,15.1026 -6.791846,5.40953 -6.606429,11.56663 -6.671087,17.69692 -7.722993,4.69169 -7.7542,13.4555 -7.227014,22.51493 -5.421646,3.63505 -8.900542,9.53665 -6.949052,21.77369 -4.169077,5.78075 -4.692883,12.31807 -2.316353,19.45735 -6.661535,11.01743 -3.854044,18.14205 0.46327,24.64596 -6.502771,10.00918 -2.76395,18.52726 2.964929,27.24028 -3.933121,9.58432 -1.112932,17.31496 5.188626,24.09005 -2.013557,11.97417 2.758505,18.02041 8.246209,23.44146 -1.063987,10.0891 2.553968,16.75963 9.2654,21.17145 0.410828,7.09189 4.364749,13.89129 9.636021,17.74323 2.046849,6.07117 3.483096,12.00614 11.257461,16.16813 1.192172,4.47774 4.089461,12.58212 14.593009,16.35342 4.610291,13.08159 21.765315,16.22787 49.847855,8.0609 4.71801,-1.38998 9.18747,-3.38363 15.56587,-0.74124 z"
           id="path3761"
           style="fill:#297b31;fill-opacity:1;stroke:#000000;stroke-width:1.79266429;stroke-linecap:butt;stroke-linejoin:round;stroke-miterlimit:4;stroke-opacity:1;stroke-dasharray:none" />
        <g
           transform="matrix(0.51218978,0,0,0.51218978,-43.175153,390.27211)"
           id="g4070">
          <path
             d="m 318.01837,988.08319 c -10.83858,-11.41482 7.11885,-68.51558 -2.35168,-85.74557 -1.93349,-1.61775 -5.57436,-5.74014 -4.58485,-3.62074 9.8662,21.132 3.01492,59.60974 -4.27914,79.77873 z"
             id="path3763"
             style="fill:#000000;fill-opacity:1;stroke:#000000;stroke-opacity:1" />
          <path
             d="m 294.68255,966.01366 c -11.05733,-29.92749 9.0339,-42.02386 4.88424,-82.30851 l -7.23592,-9.76848 c 10.0203,20.33912 2.89686,51.35952 -8.50219,83.75569 z"
             id="path3769"
             style="fill:#000000;fill-opacity:1;stroke:#000000;stroke-opacity:1" />
          <path
             d="m 268.99506,941.95425 c -0.70437,-30.18282 15.80289,-46.86008 16.64259,-77.60517 l -5.60783,-7.23591 c 6.40181,20.94723 -7.31175,54.80292 -18.81337,76.70068 z"
             id="path3771"
             style="fill:#000000;fill-opacity:1;stroke:#000000;stroke-opacity:1" />
          <path
             d="m 251.26707,922.41728 c -6.21287,-28.17572 19.80652,-52.7279 20.62235,-82.12761 l -5.42693,-8.3213 c 4.78747,27.63327 -12.89314,56.42648 -23.69762,81.04223 z"
             id="path3773"
             style="fill:#000000;fill-opacity:1;stroke:#000000;stroke-opacity:1" />
          <path
             d="m 231.911,896.0062 c -2.15154,-27.3485 27.68737,-55.94429 26.77288,-78.87145 l -3.07526,-6.33142 c -1.31721,26.85057 -18.4191,54.86205 -32.01892,73.80631 z"
             id="path3775"
             style="fill:#000000;fill-opacity:1;stroke:#000000;stroke-opacity:1" />
          <path
             d="m 214.90661,870.8614 c -5.44714,-28.58309 26.1825,-45.52813 30.02904,-80.31863 l -3.97976,-7.9595 c 0.81275,31.91969 -20.10739,53.99312 -33.4661,75.07259 z"
             id="path3777"
             style="fill:#000000;fill-opacity:1;stroke:#000000;stroke-opacity:1" />
          <path
             d="m 201.88196,846.98289 c -5.81017,-31.2746 16.61811,-35.69932 34.18969,-77.96696 l -2.35167,-8.68309 c -7.60823,30.99976 -24.5385,50.25318 -39.61662,70.00745 z"
             id="path3779"
             style="fill:#000000;fill-opacity:1;stroke:#000000;stroke-opacity:1" />
          <path
             d="m 187.59104,812.7932 c -2.98919,-31.04569 28.13646,-44.93549 40.8829,-76.88157 l -2.17077,-5.60783 c -4.78743,15.98171 -23.22945,45.7254 -46.12894,62.59064 z"
             id="path3781"
             style="fill:#000000;fill-opacity:1;stroke:#000000;stroke-opacity:1" />
          <path
             d="m 174.0237,772.45299 c -4.17167,-19.34608 31.16671,-46.98762 49.38511,-73.98721 l 0.90448,-11.93925 c -15.95124,27.83503 -33.59818,49.17486 -53.54575,70.36925 z"
             id="path3783"
             style="fill:#000000;fill-opacity:1;stroke:#000000;stroke-opacity:1" />
          <path
             d="m 167.14958,731.75098 c -0.22946,-25.1023 36.41307,-44.46771 56.98282,-72.35912 l 2.17077,-9.76849 c -21.02952,26.08033 -39.43363,46.9024 -60.96256,65.48501 z"
             id="path3785"
             style="fill:#000000;fill-opacity:1;stroke:#000000;stroke-opacity:1" />
          <path
             d="m 165.7024,685.44114 c 10.82244,-21.62217 41.73734,-41.13548 62.95244,-61.50526 l 4.34155,-10.49207 c -22.92399,21.11527 -45.95248,45.34449 -67.47489,62.04795 z"
             id="path3787"
             style="fill:#000000;fill-opacity:1;stroke:#000000;stroke-opacity:1" />
          <path
             d="m 170.04395,643.47285 c 5.20606,-18.36241 49.08189,-33.98827 70.00745,-60.41987 l 1.80898,-5.24604 c -20.11897,22.0014 -45.75026,40.17138 -70.91194,53.18396 z"
             id="path3789"
             style="fill:#000000;fill-opacity:1;stroke:#000000;stroke-opacity:1" />
          <path
             d="m 174.3855,615.25278 c 11.27422,-22.2569 49.86739,-35.75739 73.8063,-62.04795 l 1.98988,-6.15052 c -21.29807,20.63358 -47.86666,39.13244 -69.82656,53.54575 z"
             id="path3791"
             style="fill:#000000;fill-opacity:1;stroke:#000000;stroke-opacity:1" />
          <path
             d="m 188.49553,578.71143 c 2.33286,-17.10939 49.13726,-34.60057 72.17823,-54.63114 l 3.25616,-8.6831 c -20.91905,21.78602 -45.10815,35.5358 -69.82656,46.30984 z"
             id="path3793"
             style="fill:#000000;fill-opacity:1;stroke:#000000;stroke-opacity:1" />
          <path
             d="m 212.19314,525.88927 c 16.5535,-13.28844 33.48113,-17.52301 59.33448,-30.20994 l 3.79886,-7.23591 c -23.49001,15.30036 -42.61527,23.6717 -60.05808,27.85826 z"
             id="path3795"
             style="fill:#000000;fill-opacity:1;stroke:#000000;stroke-opacity:1" />
          <path
             d="m 225.21778,502.91524 c 10.25842,-19.31879 37.27507,-19.24424 60.78167,-35.63687 11.75274,-12.20132 16.34381,-21.76575 15.42344,-23.8951 -0.44766,-1.03568 -5.09931,4.38305 -5.29316,3.09185 -9.08016,24.18903 -45.47745,35.3984 -65.48501,42.33009 z"
             id="path3809"
             style="fill:#000000;fill-opacity:1;stroke:#000000;stroke-opacity:1" />
          <path
             d="m 245.47834,472.70531 c 12.27959,-14.36179 36.74014,-18.85249 56.44012,-30.02904 7.91112,-9.41609 18.73321,-17.66779 22.33318,-28.80834 l -14.19278,6.37701 c 1.42614,20.65569 -38.64163,35.2792 -56.80191,40.15932 z"
             id="path3811"
             style="fill:#000000;fill-opacity:1;stroke:#000000;stroke-opacity:1" />
          <path
             d="m 266.64338,444.48524 c 17.35395,-18.42824 38.46705,-20.88008 57.70641,-31.29532 10.64711,-8.61502 23.11458,-14.39027 28.10464,-31.83028 l -10.82889,3.61023 c -1.21086,25.72448 -47.26186,40.13321 -63.2238,43.77727 z"
             id="path3813"
             style="fill:#000000;fill-opacity:1;stroke:#000000;stroke-opacity:1" />
          <path
             d="m 394.5,332.3125 c -2.3446,0.0232 -7.05612,2.18668 -12.5625,5.34375 -5.48805,2.49903 -23.24894,12.23417 -26.96875,12.5 -23.44403,18.52488 -45.38744,41.36819 -59.0625,60.34375 12.75668,-8.67285 37.31222,-24.76073 56.84375,-29.5 4.29941,-8.98792 27.09136,-25.62024 35.6875,-35.65625 8.16659,-9.5345 9.07698,-13.06113 6.0625,-13.03125 z m -6.875,7.1875 c 3.89506,0.16526 -3.80816,7.29625 -5.8125,9.90625 -15.02354,19.56326 -34.27424,29.77006 -53.46875,37.34375 -21.41199,8.44865 -7.83086,-1.54179 -4.71875,-4.71875 13.86586,-14.15481 29.25438,-27.60967 49.875,-37.375 8.18136,-3.87446 12.35452,-5.23137 14.125,-5.15625 z"
             id="path3815"
             style="fill:#000000;fill-opacity:1;stroke:#000000;stroke-opacity:1" />
        </g>
        <g
           id="g5352">
          <path
             d="m 108.77743,597.45637 c 3.53643,-8.56842 7.18061,-16.51187 11.4891,-24.46065 1.2829,-0.42724 2.96956,-0.63727 3.96983,-1.79537 2.96019,-3.42727 18.44015,-9.26047 14.2546,-2.17013 -3.19754,1.53274 -13.81749,-8.77065 -28.32372,28.61146 z"
             id="path3821"
             style="fill:#000000;fill-opacity:1;stroke:#000000;stroke-width:0.51218981;stroke-opacity:1" />
          <g
             transform="matrix(0.51218978,0,0,0.51218978,-43.175153,390.27211)"
             id="g4029"
             style="fill:#000000;fill-opacity:1;stroke:#000000;stroke-opacity:1">
            <path
               d="m 352.27536,1038.7292 c -43.58382,-30.8299 -51.38571,1.3218 -113.33187,-9.7215 l -2.30245,-3.8374 c 21.81559,5.5086 54.72223,1.3156 93.88893,-5.6283 l 25.90783,14.7938 z"
               id="path3991"
               style="fill:#000000;fill-opacity:1;stroke:#000000;stroke-width:1px;stroke-linecap:butt;stroke-linejoin:miter;stroke-opacity:1" />
            <path
               d="m 326.94837,1017.4954 c -35.47479,-25.07109 -80.25923,-6.5852 -116.91346,-19.44292 l -1.27914,-4.34908 c 31.23948,8.4055 54.23959,6.7481 91.8423,5.62822 z"
               id="path3993"
               style="fill:#000000;fill-opacity:1;stroke:#000000;stroke-width:1px;stroke-linecap:butt;stroke-linejoin:miter;stroke-opacity:1" />
            <path
               d="M 286.78335,987.81935 C 270.7933,970.75668 218.5801,979.19232 189.057,967.3531 l -2.04662,-5.88405 c 22.80906,11.40406 52.42921,12.96658 85.4466,13.04724 z"
               id="path3995"
               style="fill:#000000;fill-opacity:1;stroke:#000000;stroke-width:1px;stroke-linecap:butt;stroke-linejoin:miter;stroke-opacity:1" />
            <path
               d="M 255.57232,959.67825 C 249.91794,944.8699 200.41351,943.0222 169.35823,932.8163 l -0.76748,-4.86074 c 19.18369,5.61672 26.42545,12.62203 72.65519,15.09386 z"
               id="path3997"
               style="fill:#000000;fill-opacity:1;stroke:#000000;stroke-width:1px;stroke-linecap:butt;stroke-linejoin:miter;stroke-opacity:1" />
            <path
               d="m 226.15208,923.86231 c -0.0441,-7.67504 -47.64026,-21.69035 -74.95764,-33.00183 l 0,-5.11656 c 17.98421,7.62995 3.58979,7.16524 67.79445,26.3503 z"
               id="path3999"
               style="fill:#000000;fill-opacity:1;stroke:#000000;stroke-width:1px;stroke-linecap:butt;stroke-linejoin:miter;stroke-opacity:1" />
            <path
               d="m 201.08092,882.92981 c 0.71867,-7.86324 -42.87301,-23.0995 -65.74783,-36.83925 l -0.51166,-5.88405 c 18.95032,11.72339 38.68261,22.59999 63.70121,31.46686 z"
               id="path4001"
               style="fill:#000000;fill-opacity:1;stroke:#000000;stroke-width:1px;stroke-linecap:butt;stroke-linejoin:miter;stroke-opacity:1" />
            <path
               d="m 180.61467,835.6016 c -15.91403,-16.74268 -37.0794,-26.13348 -56.02636,-38.63005 l -3.32577,-11.00061 c 16.55256,17.04851 40.37723,32.91715 55.25888,38.1184 z"
               id="path4003"
               style="fill:#000000;fill-opacity:1;stroke:#000000;stroke-width:1px;stroke-linecap:butt;stroke-linejoin:miter;stroke-opacity:1" />
            <path
               d="m 117.93678,744.78261 c 15.80821,17.36946 36.62275,31.39039 49.37483,45.53741 l -1.53497,-9.72147 c -19.15323,-11.44393 -33.96165,-25.06027 -46.3049,-39.90919 z"
               id="path4005"
               style="fill:#000000;fill-opacity:1;stroke:#000000;stroke-width:1px;stroke-linecap:butt;stroke-linejoin:miter;stroke-opacity:1" />
            <path
               d="m 160.40425,755.27156 -1.7908,-20.21042 c -22.56614,-14.66748 -29.5716,-29.84662 -40.67667,-44.76993 l -0.76749,5.88405 c 13.85948,22.88759 41.09902,38.84149 43.23496,59.0963 z"
               id="path4007"
               style="fill:#000000;fill-opacity:1;stroke:#000000;stroke-width:1px;stroke-linecap:butt;stroke-linejoin:miter;stroke-opacity:1" />
            <path
               d="m 157.59014,715.87403 c -7.51685,-22.60767 -26.78466,-40.10907 -36.07177,-58.32882 l 1.53497,-5.11656 c 10.8624,19.08566 22.67844,37.69451 37.60674,54.74722 z"
               id="path4009"
               style="fill:#000000;fill-opacity:1;stroke:#000000;stroke-width:1px;stroke-linecap:butt;stroke-linejoin:miter;stroke-opacity:1" />
            <path
               d="m 157.59014,696.68692 c 4.20555,-32.36845 -12.83654,-55.49879 -23.02453,-81.60918 l 2.30245,-11.51227 c 3.03427,26.27222 17.94156,44.98887 27.62944,67.02698 z"
               id="path4011"
               style="fill:#000000;fill-opacity:1;stroke:#000000;stroke-width:1px;stroke-linecap:butt;stroke-linejoin:miter;stroke-opacity:1" />
            <path
               d="m 161.68339,652.94031 c 2.13397,-16.53995 5.42113,-31.24149 -14.07055,-82.12084 l 4.09325,-4.09325 c 3.54837,21.95784 10.57284,41.01894 18.1638,59.60796 z"
               id="path4013"
               style="fill:#000000;fill-opacity:1;stroke:#000000;stroke-width:1px;stroke-linecap:butt;stroke-linejoin:miter;stroke-opacity:1" />
            <path
               d="m 169.10241,618.65933 c 6.90361,-40.17104 -7.45138,-58.2705 -7.93068,-81.865 l 4.34908,-6.13988 c -0.99067,19.18166 4.53466,42.8943 12.53558,66.00366 z"
               id="path4015"
               style="fill:#000000;fill-opacity:1;stroke:#000000;stroke-width:1px;stroke-linecap:butt;stroke-linejoin:miter;stroke-opacity:1" />
            <path
               d="m 180.35884,580.28511 c 8.2756,-20.15505 -5.71811,-48.50436 -3.83742,-73.93433 l 4.60491,-4.34908 c -2.56726,25.98647 1.22791,41.93026 8.1865,60.11961 z"
               id="path4017"
               style="fill:#000000;fill-opacity:1;stroke:#000000;stroke-width:1px;stroke-linecap:butt;stroke-linejoin:miter;stroke-opacity:1" />
            <path
               d="m 198.26681,540.37592 c -4.19071,-38.51 -2.30923,-45.79157 -2.04662,-61.39876 l 3.32577,-3.83742 c -1.83537,20.36063 -0.88815,39.32996 4.09325,56.2822 z"
               id="path4019"
               style="fill:#000000;fill-opacity:1;stroke:#000000;stroke-width:1px;stroke-linecap:butt;stroke-linejoin:miter;stroke-opacity:1" />
            <path
               d="m 217.70975,501.49004 c -1.12917,-18.00353 -2.75612,-36.25596 -1.27914,-52.95642 l 6.90736,-6.90736 c -3.50977,12.21659 -6.23907,25.81402 -1.02331,53.46808 z"
               id="path4021"
               style="fill:#000000;fill-opacity:1;stroke:#000000;stroke-width:1px;stroke-linecap:butt;stroke-linejoin:miter;stroke-opacity:1" />
            <path
               d="m 236.12938,475.13974 c -1.29464,-14.73338 -2.17069,-29.99 -0.76748,-48.09569 l 6.13987,-5.62822 c -4.82284,18.57229 -3.15761,35.70278 -2.04662,52.95643 z"
               id="path4023"
               style="fill:#000000;fill-opacity:1;stroke:#000000;stroke-width:1px;stroke-linecap:butt;stroke-linejoin:miter;stroke-opacity:1" />
            <path
               d="m 257.36312,446.48699 c -0.35805,-15.14267 -1.8626,-29.4664 2.30245,-47.83986 l 16.373,-15.86135 c -12.32571,17.14848 -20.54354,36.1227 -14.5822,61.39876 z"
               id="path4025"
               style="fill:#000000;fill-opacity:1;stroke:#000000;stroke-width:1px;stroke-linecap:butt;stroke-linejoin:miter;stroke-opacity:1" />
            <path
               d="m 278.34102,425.50908 c 1.71339,-15.35494 5.21091,-32.64606 10.48896,-49.63066 5.86897,-5.33439 18.79359,-19.40334 30.69641,-19.3301 1.61589,0.01 -3.33672,3.73011 -1.532,4.49207 -7.28983,2.15546 -33.44395,7.03268 -33.25766,57.04968 z"
               id="path4027"
               style="fill:#000000;fill-opacity:1;stroke:#000000;stroke-width:1px;stroke-linecap:butt;stroke-linejoin:miter;stroke-opacity:1" />
          </g>
        </g>
        <path
           d="m 166.22292,933.0492 8.89478,-8.89479 C 104.40907,908.71875 -47.855133,767.60375 109.51866,598.38292 -2.9329382,702.89295 20.054563,876.56205 166.22292,933.0492 z"
           id="path2987"
           style="fill:#297b31;fill-opacity:1;stroke:#000000;stroke-width:2.50972986;stroke-linecap:butt;stroke-linejoin:round;stroke-miterlimit:4;stroke-opacity:1;stroke-dasharray:none" />
      </g>
      <g
         id="g5540">
        <path
           d="m 299.41688,884.37133 c 1.07773,-27.77879 3.29418,-47.15178 7.99706,-59.34906 21.90631,-56.81557 59.02166,26.5573 55.74891,62.59195 -20.01454,-6.44954 -51.09958,-6.05262 -63.74597,-3.24289 z"
           id="path4313"
           style="fill:#fce100;fill-opacity:1;stroke:#000000;stroke-width:2.04875922;stroke-linecap:butt;stroke-linejoin:round;stroke-miterlimit:4;stroke-opacity:1;stroke-dasharray:none" />
        <path
           d="M 178.41619,985.09667 324.98939,841.00925 C 340.51448,825.433 328.2878,816.44541 314.61214,830.26139 L 167.66833,976.20188 c -10.15929,10.08993 -1.11812,20.55955 10.74786,8.89479 z"
           id="path4311"
           style="fill:#fce100;fill-opacity:1;stroke:#000000;stroke-width:2.04875922;stroke-linecap:butt;stroke-linejoin:round;stroke-miterlimit:4;stroke-opacity:1;stroke-dasharray:none" />
        <path
           d="m 262.81855,901.69764 c -7.98787,4.53092 -12.64213,1.50191 -18.43815,-1.76044 l -1.57512,2.40901 9.72867,9.914 z"
           id="path4315"
           style="fill:#000000;fill-opacity:1;stroke:#000000;stroke-width:0.51218981px;stroke-linecap:butt;stroke-linejoin:miter;stroke-opacity:1" />
        <path
           d="m 227.14675,917.72676 c 6.98733,-3.66364 15.00075,4.0989 9.54336,9.54337 l 6.11517,-5.92982 -9.82133,-9.54338 z"
           id="path4317"
           style="fill:#000000;fill-opacity:1;stroke:#000000;stroke-width:0.51218981px;stroke-linecap:butt;stroke-linejoin:miter;stroke-opacity:1" />
        <path
           d="M 305.79652,984.89026 160.37162,837.55761 c -6.46587,-6.5507 0.45525,-20.91002 10.5419,-10.58641 l 145.76687,149.19124 c 7.66625,7.84639 0.0994,19.85524 -10.88387,8.72782 z"
           id="path4326"
           style="fill:#fce100;fill-opacity:1;stroke:#000000;stroke-width:2.04875922;stroke-linecap:butt;stroke-linejoin:round;stroke-miterlimit:4;stroke-opacity:1;stroke-dasharray:none" />
        <path
           d="m 194.47354,806.72436 c 1.08732,-1.08013 1.1923,-0.92003 2.19351,-0.20597 10.05715,7.17275 21.19082,9.46644 27.16042,4.39981 1.92593,-1.63461 3.26876,-1.34286 4.87988,0.3347 l 11.76209,12.24711 -37.08222,36.29602 3.79995,3.79995 c -9.72183,-0.0171 -10.42059,5.38221 -8.25506,13.23428 l -6.68265,-6.42059 -27.64788,27.38581 c -0.78481,0.77737 -1.20574,1.18987 -2.48962,-0.13104 l -27.25477,-28.04096 c -1.80988,-1.8621 -1.33302,-2.52627 0.17504,-3.98743 20.02848,-19.40543 39.6524,-39.25355 59.44131,-58.91169 z"
           id="path4343"
           style="fill:#000000;fill-opacity:1;stroke:#000000;stroke-width:0.51218981px;stroke-linecap:butt;stroke-linejoin:miter;stroke-opacity:1" />
        <path
           d="m 138.133,869.36141 c -1.49779,-1.5401 -0.88252,-1.61326 0,-2.48962 l 55.72023,-55.33057 c 0.51346,-0.71887 0.88334,-0.24798 1.44443,0.0875 10.82652,6.38829 19.49038,5.56773 27.63835,3.0275 1.03229,-0.37985 1.2951,-0.57694 2.0809,0.18391 l 7.59058,7.3496 c 2.08542,2.01922 0.85173,2.9558 -0.13104,3.93097 l -67.74383,67.21971 c -1.40278,1.39192 -2.17048,1.14026 -3.40685,-0.13104 z"
           id="path4345"
           style="fill:#fce100;fill-opacity:1;stroke:#fce100;stroke-width:1.79266429;stroke-linecap:butt;stroke-linejoin:miter;stroke-miterlimit:4;stroke-opacity:1;stroke-dasharray:none" />
      </g>
      <path
         d="m 293.49823,622.61338 -48.73601,-33.17013 -47.80947,34.83787 16.21445,-56.88953 -48.5507,-35.76446 60.13245,-1.11184 18.3455,-57.26018 20.10592,56.61159 59.76184,0.0927 -47.49042,37.09218 z"
         id="path4371"
         style="fill:#fce100;fill-opacity:1;stroke:none;stroke-width:2.56094884999999990;stroke-linecap:butt;stroke-linejoin:round;stroke-miterlimit:4;stroke-opacity:1;stroke-dasharray:none" />
    </g>
  </g>
</svg>
