<?xml version="1.0" encoding="UTF-8" standalone="no"?>
<!-- Created with Inkscape (http://www.inkscape.org/) -->
<svg
   xmlns:svg="http://www.w3.org/2000/svg"
   xmlns="http://www.w3.org/2000/svg"
   xmlns:inkscape="http://www.inkscape.org/namespaces/inkscape"
   version="1.0"
   width="1200"
   height="600"
   viewBox="-15 -7.5 30 15"
   id="Union_Jack">
  <defs
     id="defs3">
    <inkscape:perspective
       id="perspective2465" />
    <inkscape:perspective
       id="perspective83" />
    <clipPath
       id="border">
      <rect
         width="30"
         height="15"
         x="-15"
         y="-7.5"
         id="rect6" />
    </clipPath>
    <linearGradient
       id="linearGradient2294">
      <stop
         id="stop2296"
         style="stop-color:#ffffff;stop-opacity:1"
         offset="0" />
      <stop
         id="stop2298"
         style="stop-color:#959595;stop-opacity:1"
         offset="1" />
    </linearGradient>
    <linearGradient
       id="linearGradient2275">
      <stop
         id="stop2277"
         style="stop-color:#000000;stop-opacity:1"
         offset="0" />
      <stop
         id="stop2279"
         style="stop-color:#fffcfc;stop-opacity:0"
         offset="1" />
    </linearGradient>
    <linearGradient
       id="linearGradient2265">
      <stop
         id="stop2267"
         style="stop-color:#000000;stop-opacity:1"
         offset="0" />
      <stop
         id="stop2283"
         style="stop-color:#7f7e7e;stop-opacity:0.49803922"
         offset="0" />
      <stop
         id="stop2269"
         style="stop-color:#fffcfc;stop-opacity:0"
         offset="1" />
    </linearGradient>
    <linearGradient
       id="linearGradient2257">
      <stop
         id="stop2259"
         style="stop-color:#000000;stop-opacity:1"
         offset="0" />
      <stop
         id="stop2261"
         style="stop-color:#fffcfc;stop-opacity:0"
         offset="1" />
    </linearGradient>
    <inkscape:perspective
       id="perspective3355" />
  </defs>
  <g
     transform="matrix(-0.9368595,0.349706,0.349706,0.9368595,-316.29693,-496.9835)"
     id="g3282" />
  <g
     transform="translate(-6.657825e-2,-3.4381113e-2)"
     id="g4409">
    <g
       transform="matrix(1.0007557,0,0,1.0119498,0.121821,3.4381113e-2)"
       clip-path="url(#border)"
       id="g8">
      <circle
         cx="0"
         cy="0"
         r="20"
         id="circle10"
         style="fill:#00247d" />
      <path
         d="M -20,-10 L 20,10 M -20,10 L 20,-10"
         id="diags_white"
         style="stroke:#ffffff;stroke-width:3" />
      <path
         d="M -20,-10 L 20,10 M -20,10 L 20,-10"
         id="diags_red"
         style="stroke:#cf142b;stroke-width:2" />
      <path
         d="M 0,0 L 20,10 L 17,10 L -3,0 M 0,0 L 20,-10 L 23,-10 L 3,0 M 0,0 L -20,10 L -23,10 L -3,0 M 0,0 L -20,-10 L -17,-10 L 3,0"
         id="eraser_white"
         style="fill:#ffffff;stroke:none" />
      <path
         d="M -20,0 L 20,0 M 0,-10 L 0,10"
         id="cross_white"
         style="stroke:#ffffff;stroke-width:5" />
      <path
         d="M -20,0 L 20,0 M 0,-10 L 0,10"
         id="cross_red"
         style="stroke:#cf142b;stroke-width:3" />
    </g>
    <path
       d="M 3.4825493,1.8095599 C 3.4825496,3.1830138 2.4767053,4.3000883 1.2281681,4.3132394 C -0.020369025,4.3263905 -1.0454757,3.2307084 -1.0693853,1.8575063 C -1.093295,0.48430427 -0.10708134,-0.65375249 1.1409979,-0.69320025 C 2.3890772,-0.73264801 3.4330698,0.34124048 3.48088,1.7136871"
       transform="matrix(1.6398863,0,0,1.4908057,-1.9783151,-2.6977023)"
       id="path3553"
       style="fill:#cf142b;fill-opacity:1" />
  </g>
  <path
     d="M 3.0584217,-0.034381131 C 3.0584221,1.6798349 1.6774817,3.0740623 -0.036655905,3.0904763 C -1.7507934,3.1068902 -3.1581794,1.7393628 -3.1910053,0.025461058 C -3.2238314,-1.6884406 -1.8698422,-3.1088561 -0.15633333,-3.1580911 C 1.5571756,-3.2073261 2.9904905,-1.8669994 3.0561299,-0.15404055"
     id="path2170"
     style="fill:#ffffff;fill-opacity:1" />
  <rect
     width="4.4925776"
     height="2.0535152"
     x="-2.1901805"
     y="-1.5306561"
     id="rect3886"
     style="fill:#ffffff;fill-rule:evenodd;stroke:#ffffff;stroke-width:0.02487312px;stroke-linecap:butt;stroke-linejoin:miter;stroke-opacity:0" />
  <path
     d="M -0.73481875,0.51884718 L -0.73481875,0.51884718 C -0.73481875,0.51884718 -0.72457615,0.85221974 -0.32049845,0.7916081 C -0.18239155,0.77089208 -0.10911887,0.68814554 0.13971795,0.75094195 C 0.15048255,0.7536585 0.006691312,0.52294824 0.006787156,0.51962002 C -0.24214044,0.44060821 -0.31911034,0.53651707 -0.45721724,0.5572331 C -0.58803917,0.57685638 -0.67758051,0.55518346 -0.74146481,0.51673204 M -1.3446571,0.75094195 C -1.5897967,0.67498321 -1.6667666,0.77089208 -1.8048735,0.7916081 C -2.2089511,0.85221974 -2.2191938,0.51884718 -2.2224343,0.51787215 C -2.1643969,0.55518346 -2.0748556,0.57685638 -1.9440337,0.5572331 C -1.8059268,0.53651707 -1.7289569,0.44060821 -1.4800293,0.51962002 M -1.4794477,0.51884718 L -1.4794477,0.51884718 M 0.74955625,0.51884718 L 0.74955625,0.51884718 C 0.74955625,0.51884718 0.75979885,0.85221974 1.1638765,0.7916081 C 1.3019835,0.77089208 1.3801207,0.67131345 1.624093,0.75094195 C 1.6324162,0.7536585 1.4910663,0.53271386 1.4887207,0.51962002 C 1.2397931,0.44060821 1.1628232,0.53651707 1.0247164,0.5572331 C 0.89389442,0.57685638 0.80435308,0.55518346 0.74291019,0.51673204"
     id="path4377"
     style="fill:#cf142b;fill-opacity:1;fill-rule:evenodd;stroke:none;stroke-width:0.075;stroke-linecap:butt;stroke-linejoin:miter;stroke-miterlimit:4;stroke-dasharray:none;stroke-opacity:1" />
  <path
     d="M 0.0886264,0.588236 L 0.03432806,0.55030315 L 0.03432806,0.5776341 C 0.03432806,0.592666 0.028192215,0.60496495 0.020692938,0.60496495 C -0.02858463,0.60496495 -0.16172171,0.50506963 -0.20669594,0.43435074 C -0.25381664,0.36025662 -0.22251234,0.22067056 -0.14585048,0.16304194 C -0.10209394,0.13014902 -0.052646201,0.11727768 0.029961978,0.11727768 C 0.09428603,0.11727768 0.1060046,0.11365449 0.14140323,0.082821517 C 0.16316037,0.063870624 0.19534149,0.030682446 0.21291688,0.009070161 L 0.24487197,-0.030225134 L 0.16498456,-0.090589367 C 0.07619468,-0.1576805 0.02776952,-0.21781944 0.014364973,-0.27764298 C 0.009465391,-0.29950939 0.000187648,-0.31740009 -0.006252162,-0.31740009 C -0.012691971,-0.31740009 -0.060149506,-0.30785839 -0.11171319,-0.2961963 C -0.16327687,-0.28453421 -0.22458088,-0.27499251 -0.2479441,-0.27499251 L -0.29042282,-0.27499251 L -0.29042282,-0.21634154 C -0.29042282,-0.14501261 -0.31573091,-0.091953195 -0.36140245,-0.067529499 C -0.38020124,-0.057476568 -0.40438167,-0.03205852 -0.41513677,-0.011044924 C -0.43963714,0.036824761 -0.49123928,0.081733017 -0.55022352,0.10651856 C -0.57522933,0.11702621 -0.60737967,0.13637106 -0.62166871,0.14950734 C -0.63595775,0.16264352 -0.67103084,0.18730417 -0.69960892,0.20430876 C -0.78561321,0.25548316 -0.89282023,0.34485938 -0.92043951,0.3884107 C -0.93472857,0.41094228 -0.9668789,0.44054415 -0.99188472,0.45419261 C -1.0416886,0.4813763 -1.0535849,0.50294204 -1.0555401,0.5695879 L -1.0568349,0.61372497 L -1.0980178,0.60139359 C -1.1206684,0.59461124 -1.1587114,0.5741499 -1.1825577,0.55592396 L -1.2259148,0.52278583 L -1.2339654,0.56387539 C -1.2383932,0.5864746 -1.2474987,0.60496495 -1.2541997,0.60496495 C -1.2731011,0.60496495 -1.3202299,0.58326477 -1.3511047,0.56034559 C -1.3780809,0.54032041 -1.3795903,0.54027312 -1.3934244,0.55902003 C -1.4065745,0.57683992 -1.4118218,0.57482025 -1.4563808,0.53478876 C -1.5074232,0.48893238 -1.5453476,0.4158377 -1.5583077,0.33833614 C -1.5674884,0.28343708 -1.5368964,0.17802878 -1.5026604,0.14659712 C -1.4690832,0.1157702 -1.3833552,0.085978017 -1.3274406,0.085704807 C -1.301233,0.085576737 -1.270341,0.082512577 -1.2587917,0.078895417 C -1.229751,0.069800267 -1.174318,0.001660177 -1.0491296,-0.17882757 L -0.94209444,-0.33314338 L -0.99621716,-0.34605745 C -1.0259846,-0.35316008 -1.0846598,-0.37585758 -1.1266064,-0.39649618 C -1.1928139,-0.42907168 -1.2138412,-0.43402096 -1.2860339,-0.43402096 L -1.3691948,-0.43402096 L -1.3467998,-0.40612557 C -1.324488,-0.37833365 -1.3245229,-0.37826018 -1.3562429,-0.38630479 C -1.4506616,-0.41025098 -1.5043038,-0.44040033 -1.557579,-0.49946477 C -1.5882581,-0.53347778 -1.6170867,-0.57515818 -1.6216428,-0.59208814 C -1.6272273,-0.61283955 -1.6401817,-0.62497056 -1.6613983,-0.6293166 C -1.6787079,-0.6328623 -1.7134367,-0.6505012 -1.7385735,-0.66851414 C -1.7637104,-0.68652708 -1.7842329,-0.69719259 -1.784179,-0.69221521 C -1.7840274,-0.67819452 -1.7099456,-0.44734861 -1.6812684,-0.37153592 L -1.6556274,-0.30374983 L -1.6944287,-0.27416757 C -1.7578424,-0.2258207 -1.8639574,-0.20617273 -1.97168,-0.22283266 C -2.060796,-0.2366148 -2.1062744,-0.27487429 -2.1297157,-0.35578299 C -2.1756056,-0.51417363 -2.1836776,-0.90613594 -2.1460187,-1.1474303 C -2.1323466,-1.2350331 -2.1330417,-1.242035 -2.1575974,-1.2640512 C -2.1719655,-1.2769336 -2.1902975,-1.2978945 -2.1983347,-1.310631 C -2.2186207,-1.3427774 -2.2158046,-1.4305075 -2.193463,-1.462405 C -2.1832526,-1.4769826 -2.1746914,-1.4990006 -2.1744383,-1.5113341 C -2.1741851,-1.5236676 -2.1622869,-1.545889 -2.1479978,-1.5607149 C -2.1337088,-1.5755408 -2.1220177,-1.597287 -2.1220177,-1.6090397 C -2.1220177,-1.6366114 -2.0612671,-1.6956466 -2.0328943,-1.6956466 C -2.0180969,-1.6956466 -1.9890953,-1.7316434 -1.9431628,-1.8070217 C -1.7176724,-2.1770661 -1.4067665,-2.4707993 -1.1278086,-2.5773404 C -1.0822179,-2.5947527 -1.0329134,-2.6074488 -1.0182429,-2.6055539 C -0.99518562,-2.6025759 -1.0037122,-2.590492 -1.0811357,-2.516422 C -1.28438,-2.3219808 -1.4872336,-2.0479268 -1.6260206,-1.7802854 C -1.7012463,-1.6352176 -1.7017603,-1.6319792 -1.6553203,-1.5956665 C -1.6104698,-1.5605968 -1.5960514,-1.5296751 -1.5762564,-1.4261067 C -1.560313,-1.3426895 -1.5210302,-1.2607027 -1.4838465,-1.2332383 C -1.4597205,-1.2154186 -1.4575714,-1.215502 -1.4350441,-1.2351328 C -1.4142959,-1.2532133 -1.4124099,-1.2685587 -1.4192651,-1.3635111 C -1.4261701,-1.4591529 -1.4307252,-1.4745719 -1.459526,-1.4997945 L -1.4920011,-1.5282347 L -1.4417803,-1.5112494 L -1.3915597,-1.494264 L -1.3996504,-1.5233925 C -1.4207939,-1.5995115 -1.4219778,-1.6201585 -1.4076841,-1.6634828 C -1.389199,-1.7195104 -1.3343331,-1.7642415 -1.2679333,-1.7774188 C -1.2212671,-1.78668 -1.2193422,-1.7888169 -1.2223333,-1.8280415 C -1.2242211,-1.8527975 -1.2366763,-1.8787424 -1.2538252,-1.8936406 C -1.287943,-1.9232807 -1.2751212,-1.924808 -1.1733286,-1.9032293 L -1.1023,-1.8881722 L -1.0664444,-1.9236284 C -1.0190029,-1.9705415 -0.88014079,-2.0455092 -0.84068551,-2.0455092 C -0.81017503,-2.0455092 -0.80987457,-2.0446925 -0.82917569,-2.01423 C -0.84007588,-1.9970264 -0.84899432,-1.978906 -0.84899432,-1.9739624 C -0.84899432,-1.9639058 -0.65817551,-2.0365688 -0.62893858,-2.0577588 C -0.61318946,-2.0691732 -0.61174458,-2.0680944 -0.61980919,-2.0509422 C -0.62507859,-2.0397347 -0.63295653,-2.0093277 -0.63731573,-1.983371 C -0.6474564,-1.9229883 -0.62472098,-1.9316284 -0.6010104,-1.9971681 L -0.58389317,-2.0444827 L -0.54942775,-2.0129761 C -0.53047191,-1.9956474 -0.50447183,-1.9624824 -0.49165002,-1.939276 C -0.47882821,-1.9160697 -0.46020673,-1.8970826 -0.45026883,-1.8970826 C -0.44033107,-1.8970826 -0.40390415,-1.9186844 -0.36932013,-1.9450865 L -0.30643992,-1.9930903 L -0.29787442,-1.955826 C -0.29316332,-1.9353307 -0.29314968,-1.8839111 -0.29784402,-1.8415603 L -0.30637913,-1.7645589 L -0.25499886,-1.737129 L -0.20361873,-1.7096991 L -0.17386245,-1.7608518 C -0.13910177,-1.8206077 -0.061893548,-1.8757019 0.04365295,-1.9160665 C 0.10806586,-1.9407001 0.13559214,-1.9447912 0.23692467,-1.9447912 C 0.30432009,-1.9447912 0.36291983,-1.9397088 0.37332004,-1.9329615 C 0.4080802,-1.9104102 0.46868794,-1.909261 0.54048919,-1.9297918 C 0.64387454,-1.9593538 0.71713977,-1.9561011 0.81832227,-1.9174569 C 0.89922264,-1.886559 0.95662055,-1.8827997 0.95662055,-1.908399 C 0.95662055,-1.9250113 0.90605722,-1.9606706 0.88192784,-1.9610753 C 0.86448391,-1.9613679 0.86826155,-1.9675219 0.89816539,-1.9875274 C 0.96789175,-2.0341739 1.0886113,-2.0182067 1.1503241,-1.9541751 C 1.1701811,-1.933572 1.1774512,-1.9107775 1.1774512,-1.8691206 C 1.1774512,-1.8164664 1.1812219,-1.8094319 1.2278933,-1.7750188 C 1.2931282,-1.726918 1.3119698,-1.6882324 1.3047532,-1.6172094 L 1.2989487,-1.560083 L 1.4817631,-1.5552427 C 1.704442,-1.5493468 1.7627515,-1.5339996 1.8621926,-1.4551126 C 1.9641684,-1.3742148 2.0036247,-1.2801205 1.9800194,-1.1741232 C 1.9648243,-1.1058912 1.9430906,-1.0706312 1.8824778,-1.0158742 L 1.8355522,-0.97348216 L 1.8692742,-0.94595985 C 1.8923399,-0.92713459 1.9160807,-0.91874107 1.9444025,-0.91939828 L 1.985809,-0.92035913 L 1.9550936,-0.89349721 C 1.9095871,-0.8536997 1.8327381,-0.82524644 1.7525027,-0.81848784 L 1.6813677,-0.81249575 L 1.6892092,-0.77247306 L 1.6970508,-0.73245026 L 1.6173453,-0.75794401 C 1.5489074,-0.77983385 1.5406441,-0.78072844 1.558891,-0.76427249 C 1.5889076,-0.73720224 1.5854328,-0.72961701 1.5446214,-0.73312327 L 1.5091007,-0.73617502 L 1.5134184,-0.66319867 C 1.5174074,-0.59577654 1.522387,-0.58488341 1.5788452,-0.52007306 C 1.6471758,-0.44163397 1.7233158,-0.39820235 1.7517703,-0.42143354 C 1.7609704,-0.42894488 1.7679299,-0.45657501 1.7672356,-0.48283368 L 1.7659736,-0.53057678 L 1.8175485,-0.49025024 C 1.8459147,-0.46807076 1.8823801,-0.42606954 1.8985828,-0.39691432 L 1.9280422,-0.34390484 L 1.9398233,-0.38037345 C 1.9515795,-0.41676436 1.9516683,-0.41666672 1.981508,-0.33463083 C 1.9979549,-0.28941458 2.0114113,-0.2357693 2.0114113,-0.21541917 C 2.0114113,-0.1908056 2.021546,-0.17014727 2.0416847,-0.15371115 C 2.0726517,-0.12843729 2.0920094,-0.082669856 2.1063119,-0.000913221 C 2.1107512,0.024463055 2.1189018,0.055473604 2.1244243,0.067999107 C 2.1346118,0.091105197 2.1303521,0.19124733 2.1187802,0.20069192 C 2.1153069,0.20352666 2.104194,0.1966525 2.0940847,0.18541608 C 2.0764786,0.16584678 2.0750798,0.16632598 2.0608786,0.19679191 C 2.0407602,0.23995192 2.0024472,0.27226438 1.9194925,0.31603378 L 1.8496568,0.35288141 L 1.8568676,0.40205937 C 1.8608334,0.42910736 1.8683866,0.46032083 1.8736527,0.47142281 C 1.8823915,0.48984626 1.878381,0.49107778 1.827709,0.48553065 C 1.7931238,0.48174472 1.7531275,0.46694987 1.7216316,0.4462924 L 1.6710725,0.41313157 L 1.6710725,0.45073788 C 1.6710725,0.49381423 1.6624581,0.49586517 1.5958622,0.46864469 C 1.5693549,0.45780998 1.5322433,0.44592546 1.5133918,0.44223441 C 1.4668105,0.43311413 1.4024862,0.3708299 1.3850411,0.31795431 C 1.3687837,0.26867839 1.3796525,0.17003209 1.4043802,0.14243206 C 1.4133049,0.13247084 1.4579635,0.10961622 1.5036219,0.091643987 C 1.5822103,0.060709775 1.5866372,0.056988509 1.5866372,0.021860608 C 1.5866372,-0.010474118 1.5789118,-0.019459968 1.5265631,-0.048014163 C 1.4883416,-0.068862476 1.4103743,-0.093199024 1.3122274,-0.11491627 C 1.0085328,-0.18211575 0.88433178,-0.21557354 0.82950266,-0.24495447 L 0.77382997,-0.27478746 L 0.76283988,-0.25103572 C 0.74968916,-0.22261394 0.75942727,-0.20565154 0.81261224,-0.16433955 C 0.85883948,-0.1284321 0.86252099,-0.10273352 0.82804764,-0.056593642 C 0.80980483,-0.032176837 0.80520558,-0.011321104 0.81015712,0.024533028 C 0.81514114,0.060621249 0.81009866,0.083083487 0.7901652,0.11358918 C 0.77550386,0.1360265 0.75728547,0.17111974 0.7496798,0.19157408 C 0.71295048,0.29035344 0.45525949,0.44150055 0.28488596,0.46419646 C 0.22793349,0.47178317 0.22021676,0.47647335 0.19345599,0.5197664 C 0.17738082,0.54577254 0.16422841,0.5803519 0.16422841,0.59660948 C 0.16422841,0.63504762 0.15401499,0.63391639 0.0886264,0.588236 z"
     id="path4061"
     style="fill:#000000;fill-opacity:1" />
  <path
     d="M -1.270894,0.39937126 C -1.2471878,0.36984275 -1.2471931,0.36881872 -1.2711273,0.3545351 C -1.284599,0.34649536 -1.3026468,0.33991752 -1.3112336,0.33991752 C -1.3441905,0.33991752 -1.3521886,0.39938929 -1.3270611,0.45760685 L -1.3115064,0.49364503 L -1.3033302,0.46161754 C -1.2988333,0.44400239 -1.2842369,0.41599164 -1.270894,0.39937126 z"
     id="path4059"
     style="fill:#fdc82f;fill-opacity:1" />
  <path
     d="M 0.1284093,0.44416958 C 0.14533518,0.41129956 0.14739163,0.39661763 0.13656119,0.38596697 C 0.12076323,0.37043105 0.07859862,0.36674848 0.06854381,0.38002641 C 0.0602285,0.39100743 0.08590785,0.48837493 0.09708266,0.48823626 C 0.10186247,0.48817699 0.11595952,0.46834689 0.1284093,0.44416958 z"
     id="path4057"
     style="fill:#fdc82f;fill-opacity:1" />
  <path
     d="M -1.1227734,0.39099099 C -1.1216503,0.37071794 -1.1702866,0.3540578 -1.1881151,0.36860859 C -1.1951278,0.37433213 -1.1910898,0.39923248 -1.1781051,0.43033463 L -1.1563404,0.48246702 L -1.1400511,0.44564844 C -1.1310918,0.42539818 -1.1233169,0.40080231 -1.1227734,0.39099099 z"
     id="path4055"
     style="fill:#fdc82f;fill-opacity:1" />
  <path
     d="M 0.001226332,0.35951004 C -0.018134406,0.30972406 -0.064941789,0.3635131 -0.050917747,0.41943175 C -0.047992911,0.43109383 -0.045024298,0.44779182 -0.044320758,0.45653839 C -0.043617218,0.46528495 -0.031366965,0.45144004 -0.017098061,0.42577189 C -0.002829028,0.40010375 0.005416917,0.37028591 0.001226332,0.35951004 z"
     id="path4053"
     style="fill:#fdc82f;fill-opacity:1" />
  <path
     d="M -1.4075659,0.42265207 C -1.4075659,0.41567666 -1.392395,0.3921026 -1.3738527,0.37026513 C -1.335212,0.32475744 -1.3409674,0.30811183 -1.3953425,0.30811183 C -1.4333757,0.30811183 -1.433546,0.30839554 -1.433546,0.37172321 C -1.433546,0.40706283 -1.4277727,0.43533459 -1.4205559,0.43533459 C -1.4134114,0.43533459 -1.4075659,0.42962749 -1.4075659,0.42265207 z"
     id="path4051"
     style="fill:#fdc82f;fill-opacity:1" />
  <path
     d="M -0.069592222,0.35909497 C -0.069592222,0.33969234 -0.076381853,0.32931562 -0.089077274,0.32931562 C -0.10372055,0.32931562 -0.10845971,0.34182915 -0.10814924,0.37967463 C -0.10776708,0.42625895 -0.10630648,0.42849107 -0.088664191,0.40945398 C -0.078174608,0.39813519 -0.069592222,0.37547363 -0.069592222,0.35909497 z"
     id="path4049"
     style="fill:#fdc82f;fill-opacity:1" />
  <path
     d="M -0.13485909,0.31468236 C -0.14950653,0.30209684 -0.16593801,0.37724924 -0.1523959,0.39488952 C -0.14525983,0.40418505 -0.13874597,0.39469996 -0.13284603,0.36642226 C -0.12797957,0.34309809 -0.1288855,0.31981516 -0.13485909,0.31468236 z"
     id="path4047"
     style="fill:#fdc82f;fill-opacity:1" />
  <path
     d="M 0.26012539,0.36584965 C 0.26453824,0.35646422 0.26814869,0.31959612 0.26814869,0.28392053 C 0.26814869,0.23723444 0.27210415,0.22228417 0.28226249,0.23057496 C 0.2906777,0.23744308 0.29461134,0.2725536 0.29200502,0.31753437 C 0.28960082,0.35902659 0.2905565,0.3928053 0.29412876,0.39259813 C 0.29770102,0.39239108 0.31291793,0.38383376 0.32794416,0.37358204 C 0.3758253,0.34091463 0.38682227,0.31216271 0.37841941,0.24161334 C 0.37175357,0.18564858 0.37307583,0.17881905 0.38709714,0.19679191 C 0.39619523,0.208454 0.40384259,0.2478076 0.40409148,0.28424441 C 0.40434037,0.32068123 0.40853018,0.35049906 0.41340209,0.35050627 C 0.42781726,0.35052769 0.4716081,0.2943564 0.47951331,0.26570424 C 0.48353529,0.25112663 0.48223109,0.21567442 0.47661524,0.18692154 C 0.46786216,0.14210775 0.4688672,0.13739256 0.48365389,0.15389695 C 0.49314116,0.16448623 0.50443755,0.19516759 0.508757,0.22207775 C 0.52168131,0.30259725 0.52291705,0.3046836 0.53889492,0.27296548 C 0.54716386,0.25655056 0.55401896,0.21361288 0.55412834,0.17754841 C 0.55435293,0.10350741 0.57285256,0.11104854 0.58833175,0.19149096 C 0.59639051,0.23337068 0.59865921,0.23596126 0.606901,0.21269476 C 0.61206493,0.19811715 0.61734733,0.16233575 0.61863984,0.13318053 L 0.62098973,0.080171037 L 0.63883376,0.11197674 C 0.64864812,0.12946987 0.65703111,0.15570956 0.65746277,0.17028717 C 0.65808927,0.19144707 0.66081887,0.19358505 0.67099851,0.18088907 C 0.67801157,0.1721425 0.68098681,0.1363611 0.67761005,0.10137484 C 0.6722514,0.0458527 0.67340141,0.041471042 0.68665293,0.066918667 C 0.71281499,0.11715937 0.726911,0.10024266 0.71800451,0.029293067 C 0.71163589,-0.021440932 0.71422701,-0.042458239 0.72878754,-0.058172583 C 0.75841781,-0.090150661 0.75294914,-0.10547793 0.69681984,-0.14776974 C 0.62406513,-0.20258833 0.62741227,-0.25509041 0.70846502,-0.33043311 C 0.74476333,-0.36417418 0.74678562,-0.37011453 0.73441846,-0.40667019 C 0.72363089,-0.43855688 0.71037819,-0.45025321 0.66669543,-0.46643987 C 0.55758537,-0.50687062 0.36951487,-0.48716361 0.2356736,-0.42127515 C 0.13178735,-0.37013319 0.11226827,-0.35132606 0.11226827,-0.30237159 C 0.11226827,-0.26182463 0.1196809,-0.25334841 0.2356736,-0.16125928 C 0.30354653,-0.10737355 0.35907893,-0.059352044 0.35907893,-0.054544826 C 0.35907893,-0.049737502 0.33827708,-0.01745992 0.31285272,0.017183369 C 0.25829627,0.091521857 0.14208845,0.19149096 0.11023117,0.19149096 C 0.07561805,0.19149096 0.06922631,0.21067531 0.1023331,0.2151967 C 0.12572854,0.21839179 0.12069945,0.221832 0.07777531,0.23199593 C 0.04808749,0.23902563 0.010091641,0.25419154 -0.006659919,0.26569788 L -0.037117134,0.28661839 L -0.004642047,0.30741348 L 0.027833041,0.32820847 L 0.06680315,0.29822853 C 0.10487551,0.2689392 0.15281978,0.24450045 0.17220767,0.24450045 C 0.17753553,0.24450045 0.1574606,0.26157024 0.12759651,0.28243319 C 0.06596906,0.32548611 0.05995129,0.33991752 0.103626,0.33991752 C 0.12099445,0.33991752 0.14889523,0.35360372 0.16891976,0.37194617 C 0.19702994,0.39769489 0.20861263,0.4019101 0.22799389,0.39344448 C 0.24125347,0.38765277 0.25571255,0.37523509 0.26012539,0.36584965 z"
     id="path4045"
     style="fill:#fdc82f;fill-opacity:1" />
  <path
     d="M 1.7684978,0.29502177 C 1.7463055,0.28171501 1.7095902,0.28613569 1.7016266,0.30307349 C 1.6974395,0.31197887 1.7107492,0.33935721 1.7312619,0.3640344 L 1.7684978,0.40882985 L 1.7749928,0.35582037 C 1.778623,0.32619146 1.7757584,0.29937544 1.7684978,0.29502177 z"
     id="path4043"
     style="fill:#fdc82f;fill-opacity:1" />
  <path
     d="M -1.0300009,0.38195213 C -1.0144411,0.37515568 -1.0048748,0.35979385 -1.0048748,0.34160428 C -1.0048748,0.32544911 -0.99033046,0.29614186 -0.97255412,0.27647694 C -0.95477778,0.25681211 -0.9364917,0.22368193 -0.93191829,0.2028545 C -0.92734502,0.18202697 -0.91817132,0.15782994 -0.91153251,0.14908337 C -0.89990708,0.13376703 -0.90392217,0.1669569 -0.92371664,0.2498014 C -0.93041067,0.27781733 -0.92887602,0.27996994 -0.91083689,0.26786703 C -0.88029537,0.24737611 -0.84899432,0.1874686 -0.84899432,0.14950586 C -0.84899432,0.12988588 -0.84361684,0.11873873 -0.83600429,0.12257863 C -0.82885977,0.12618243 -0.82301425,0.14660889 -0.82301425,0.16797087 L -0.82301425,0.20681081 L -0.80148301,0.18172216 C -0.7896409,0.16792337 -0.77941125,0.13585242 -0.77875045,0.11045345 C -0.77724659,0.052646502 -0.76315383,0.050711974 -0.75155971,0.10672084 C -0.73740317,0.17510785 -0.7148739,0.14522407 -0.72245735,0.068118377 C -0.72610664,0.031014497 -0.72679537,0.000656814 -0.72398797,0.000656814 C -0.72118056,0.000656814 -0.70916971,0.020471017 -0.69729708,0.0446884 L -0.67571063,0.088719877 L -0.64544216,0.059999978 C -0.61268272,0.028916488 -0.60746346,0.000419119 -0.62862072,-0.031845846 C -0.63635771,-0.043644803 -0.63694785,-0.052352671 -0.63001052,-0.052352671 C -0.61377194,-0.052352671 -0.60218366,-0.025501247 -0.60218366,0.01212584 C -0.60218366,0.047589185 -0.59432806,0.050143076 -0.56098888,0.025518368 C -0.53213502,0.004206541 -0.53100996,-0.024688399 -0.55671853,-0.084158362 C -0.56743531,-0.10894878 -0.57577011,-0.13459561 -0.57524025,-0.1411513 C -0.57381121,-0.15883049 -0.52633095,-0.071453897 -0.52520679,-0.049076473 C -0.52467692,-0.03852801 -0.51839793,-0.032846029 -0.51125341,-0.036449826 C -0.49215247,-0.046084618 -0.4962985,-0.11714532 -0.51774843,-0.14776974 C -0.54465716,-0.18618773 -0.54056413,-0.1995881 -0.51082123,-0.17044953 C -0.49676991,-0.1566836 -0.48527334,-0.13640748 -0.48527334,-0.12539147 C -0.48527334,-0.09136744 -0.42472575,-0.099466654 -0.4011717,-0.13664135 C -0.37386028,-0.17974612 -0.37616757,-0.18804603 -0.41382815,-0.18217025 C -0.44375108,-0.1775017 -0.44630324,-0.1801966 -0.44630324,-0.21646081 C -0.44630324,-0.30230395 -0.39198255,-0.33507409 -0.19949257,-0.36535459 C -0.083432454,-0.38361191 0.04580099,-0.4163863 0.26165367,-0.48230391 C 0.37909372,-0.518168 0.40681316,-0.52245382 0.55063272,-0.52698412 L 0.70971128,-0.53199511 L 0.68057516,-0.57430526 C 0.63316815,-0.64314762 0.52556169,-0.70295006 0.42562883,-0.71599219 C 0.39633396,-0.71981545 0.3760347,-0.72753395 0.38033596,-0.73321413 C 0.39301592,-0.74995887 0.50133073,-0.73144881 0.57943214,-0.69919031 C 0.72078178,-0.64080789 0.7530502,-0.60077226 0.80949723,-0.41374663 C 0.82934106,-0.34799823 0.83958072,-0.33198587 0.87218532,-0.31571831 C 0.9206449,-0.29154005 1.1968087,-0.21693578 1.2985087,-0.20054917 C 1.3943275,-0.18511015 1.5454424,-0.1345108 1.6033031,-0.098491703 C 1.6517369,-0.06834118 1.6840906,-0.01704581 1.6840139,0.029471497 C 1.6839434,0.072296057 1.6407839,0.12381089 1.5976157,0.13259562 C 1.5227043,0.14783998 1.4780787,0.17189039 1.4641362,0.20453267 C 1.4458665,0.24730613 1.4449682,0.24575349 1.4859644,0.24225126 C 1.5098693,0.24020912 1.530843,0.22754748 1.5493636,0.20397777 C 1.5645855,0.18460588 1.5888122,0.16202628 1.6032008,0.15380101 C 1.625022,0.14132671 1.6227626,0.14879002 1.58958,0.19879175 C 1.5593089,0.24440662 1.5549746,0.25711639 1.5714508,0.25195634 C 1.5833598,0.24822659 1.6060139,0.24907283 1.6217933,0.2538369 C 1.6469769,0.26144026 1.6538975,0.25654039 1.6784218,0.21374254 C 1.693788,0.18692653 1.7196794,0.15544451 1.7359586,0.14378243 L 1.7655569,0.12257863 L 1.7458593,0.15438432 C 1.7350256,0.17187745 1.722362,0.20061209 1.7177178,0.21823902 C 1.7096285,0.24894169 1.7117894,0.25089424 1.7691556,0.26471837 C 1.8207577,0.27715355 1.8316609,0.27700735 1.8480139,0.26366073 C 1.8627326,0.25164803 1.8639561,0.2416585 1.8534668,0.21914166 C 1.8460287,0.20317457 1.8403301,0.17730138 1.8408034,0.16164556 C 1.8414549,0.14009477 1.8483961,0.14803114 1.8693796,0.1943187 C 1.8846231,0.22794463 1.9032338,0.25380753 1.9107367,0.2517919 C 1.9359074,0.24502948 1.9578089,0.19711219 1.9516243,0.16233575 C 1.9451908,0.12616027 1.9541769,0.11933413 1.9802354,0.14060186 C 1.9923592,0.15049693 1.9958233,0.14951551 1.9958233,0.13618521 C 1.9958233,0.12675875 1.9797481,0.10943588 1.9601008,0.097690037 L 1.9243781,0.076333787 L 1.9810644,0.082460737 C 2.0344844,0.088234527 2.0369578,0.087378637 2.0239912,0.067604507 C 2.0039328,0.037015701 1.9811914,0.024205853 1.937316,0.018782347 C 1.9159111,0.016136431 1.9262033,0.015049419 1.9601877,0.016366704 L 2.0219773,0.018761673 L 1.9990941,-0.013216617 C 1.986439,-0.030901535 1.9559176,-0.051488087 1.9308094,-0.059274332 L 1.885408,-0.073353757 L 1.9406156,-0.067222256 C 1.9874908,-0.062016195 1.9958233,-0.063905665 1.9958233,-0.079741188 C 1.9958233,-0.11323407 1.9562693,-0.13712438 1.8996323,-0.1378399 C 1.8544038,-0.13841123 1.8508431,-0.13995625 1.8758544,-0.14815713 C 1.9145577,-0.16084739 1.9340542,-0.20317229 1.9175331,-0.23863712 L 1.9048363,-0.26589311 L 1.8708627,-0.24408246 C 1.8521774,-0.23208663 1.831496,-0.22499237 1.8249042,-0.22831734 C 1.8181449,-0.2317268 1.8167103,-0.26171109 1.8216139,-0.29708516 C 1.8274234,-0.33899404 1.8256957,-0.35980768 1.8164073,-0.35980768 C 1.8087616,-0.35980768 1.7988933,-0.35503683 1.7944779,-0.34920578 C 1.7794554,-0.32936751 1.7167212,-0.33911903 1.6390988,-0.37335818 C 1.5814332,-0.39879436 1.5441185,-0.42625624 1.492961,-0.48090891 C 1.4280157,-0.55029122 1.4242618,-0.55770619 1.4242618,-0.61660959 C 1.4242618,-0.68732159 1.4062929,-0.72166198 1.3441823,-0.76964882 C 1.2951242,-0.80755134 1.1598043,-0.88454338 1.0345608,-0.94581195 C 0.92265407,-1.0005562 0.97785695,-0.98722752 1.1774512,-0.91131115 C 1.3409798,-0.84911258 1.4242546,-0.82275139 1.4334651,-0.83026856 C 1.43621,-0.83250874 1.4184965,-0.85161367 1.3941024,-0.87272396 C 1.340624,-0.91900283 1.3635803,-0.92445443 1.4515547,-0.88636765 C 1.482983,-0.87276138 1.5252619,-0.85825757 1.5455081,-0.85413703 C 1.5848761,-0.84612465 1.5843079,-0.85353781 1.5424438,-0.89412156 C 1.5224838,-0.91347097 1.5236816,-0.91399322 1.5736473,-0.90772549 C 1.6022253,-0.90414077 1.6606805,-0.89799994 1.7035475,-0.89407936 L 1.7814877,-0.88695107 L 1.7522601,-0.91296431 C 1.7107972,-0.9498676 1.7157414,-0.97289089 1.7738462,-1.0134829 C 1.8461003,-1.0639596 1.8919031,-1.1439909 1.8919031,-1.219764 C 1.8919031,-1.3305099 1.8297778,-1.4058526 1.6970525,-1.4560696 C 1.6013853,-1.4922655 1.2404475,-1.4864567 0.6767405,-1.4396489 C 0.41983502,-1.4183167 0.1920984,-1.4546858 0.0935747,-1.5327796 C -0.020977146,-1.6235781 0.000220773,-1.71817 0.14337369,-1.7549991 C 0.24483508,-1.7811021 0.30835895,-1.7695126 0.45241597,-1.6986162 C 0.61318727,-1.6194941 0.71700506,-1.5807215 0.78993709,-1.5725628 C 0.84333107,-1.5665898 0.86190305,-1.5708028 0.95758845,-1.6105937 C 1.0502018,-1.6491072 1.0725144,-1.6543864 1.1177356,-1.6484846 C 1.1466336,-1.6447132 1.1814855,-1.6335056 1.1951844,-1.623579 C 1.2193812,-1.6060453 1.2198377,-1.6067402 1.2111943,-1.6479381 C 1.2001804,-1.700434 1.1411425,-1.7486561 1.0878857,-1.7486561 C 1.0674282,-1.7486561 1.0163754,-1.7358344 0.97443525,-1.7201635 C 0.84595402,-1.6721566 0.71277745,-1.6840945 0.62212714,-1.7517443 C 0.57606825,-1.7861167 0.58770316,-1.7903269 0.65355627,-1.763117 C 0.72547534,-1.7334006 0.76833622,-1.7300006 0.75660934,-1.754942 C 0.73665742,-1.7973771 0.7322981,-1.8258821 0.74688552,-1.818524 C 0.75507197,-1.8143947 0.76177002,-1.804685 0.76177002,-1.7969469 C 0.76177002,-1.7718249 0.84557328,-1.7486561 0.93644155,-1.7486561 C 1.0112907,-1.7486561 1.0270837,-1.7521917 1.0553758,-1.7752826 C 1.0816685,-1.7967414 1.0872263,-1.8104702 1.0840131,-1.8460214 C 1.0796908,-1.8938396 1.0522086,-1.91359 1.0453048,-1.8738394 C 1.0425517,-1.8579872 1.0243008,-1.8426888 0.99346415,-1.8303847 C 0.94108235,-1.8094841 0.96633385,-1.8052859 0.73846382,-1.8727802 C 0.68477055,-1.888684 0.67862704,-1.8882026 0.57433317,-1.8599181 C 0.51136878,-1.8428421 0.453116,-1.8331279 0.43526393,-1.836727 C 0.41836805,-1.8401333 0.37249868,-1.8503534 0.33333216,-1.8594384 C 0.17362007,-1.8964847 -0.048211663,-1.8256218 -0.10366716,-1.7198414 C -0.14486051,-1.641266 -0.1072076,-1.5456254 -0.006133952,-1.4721018 C 0.10944242,-1.3880282 0.38978023,-1.3099091 0.49424427,-1.3326659 C 0.52337326,-1.3390116 0.54875423,-1.3429399 0.55064623,-1.3413958 C 0.55253836,-1.3398516 0.52513198,-1.3224623 0.48974336,-1.3027529 C 0.45435473,-1.2830434 0.42765956,-1.2650739 0.4304206,-1.2628204 C 0.43318163,-1.260567 0.46063931,-1.265907 0.49143752,-1.2746872 C 0.66294092,-1.3235806 0.78420978,-1.3387567 0.67957077,-1.298231 C 0.63423723,-1.2806736 0.57844373,-1.2395352 0.60062876,-1.2400243 C 0.65991814,-1.2413314 0.7358032,-1.2672865 0.77776907,-1.3006117 C 0.84529036,-1.3542308 0.8511325,-1.3382779 0.78788882,-1.272978 C 0.75890221,-1.2430488 0.7373294,-1.2185613 0.73994936,-1.2185613 C 0.76884569,-1.2185613 0.9048989,-1.2672247 0.93021154,-1.2866142 C 0.98490865,-1.3285119 1.0625088,-1.3670074 1.0915811,-1.3666655 C 1.1157393,-1.3663814 1.1163992,-1.3651068 1.0971366,-1.3559356 C 1.0715438,-1.3437505 1.0309654,-1.2821727 1.0485286,-1.2821727 C 1.0551157,-1.2821727 1.1123791,-1.3012361 1.1757806,-1.3245359 C 1.3182289,-1.376885 1.465443,-1.4030306 1.5800615,-1.3963374 C 1.6799472,-1.3905046 1.7114227,-1.3769002 1.748033,-1.3237364 C 1.8148286,-1.226739 1.7519676,-1.1144272 1.6061223,-1.0701894 C 1.531658,-1.0476028 1.1218546,-1.0436064 0.94363055,-1.0637288 C 0.86146854,-1.0730053 0.63349342,-1.0880157 0.43701914,-1.0970853 C 0.24054486,-1.1061549 0.021295286,-1.1163545 -0.050201996,-1.1197511 L -0.1801973,-1.1259267 L -0.17359356,-1.0446276 C -0.16903536,-0.98851152 -0.16095841,-0.96021664 -0.14751853,-0.95328258 C -0.13168992,-0.94511604 -0.13321871,-0.94320633 -0.15569056,-0.94307433 C -0.17089423,-0.94298506 -0.19310719,-0.95364644 -0.2050527,-0.96676628 L -0.22677165,-0.99062055 L -0.21905725,-0.96411581 C -0.21481419,-0.9495382 -0.20791622,-0.90153037 -0.20372823,-0.85743178 C -0.19782361,-0.79525781 -0.20075196,-0.77025938 -0.21676815,-0.74611186 L -0.23742243,-0.71497123 L -0.23794256,-0.7633039 C -0.2382286,-0.78988689 -0.24704506,-0.82089743 -0.25753465,-0.83221623 C -0.27523188,-0.85131258 -0.27665481,-0.84935706 -0.27727599,-0.80508736 C -0.27764413,-0.77884766 -0.29536656,-0.71705578 -0.31665918,-0.66777212 C -0.36190269,-0.56305188 -0.36218497,-0.56124372 -0.33328993,-0.56124372 C -0.31656331,-0.56124372 -0.31485434,-0.55826682 -0.3262444,-0.54897076 C -0.35598093,-0.52470111 -0.37923335,-0.55799011 -0.37962837,-0.62539697 C -0.37983141,-0.66003337 -0.38597024,-0.69674233 -0.39327025,-0.70697263 C -0.40392805,-0.72190837 -0.40664596,-0.71721777 -0.40706502,-0.68316554 C -0.40765749,-0.63502752 -0.44990576,-0.55446657 -0.51015952,-0.48658039 C -0.53265631,-0.46123391 -0.54794714,-0.43386957 -0.54413924,-0.42577067 C -0.54006336,-0.41710161 -0.54389763,-0.41283837 -0.55346219,-0.41540488 C -0.56251936,-0.41783536 -0.57258274,-0.44449532 -0.57620359,-0.47565175 L -0.5826986,-0.53153901 L -0.61409123,-0.49672217 C -0.63135707,-0.47757292 -0.64548373,-0.45563134 -0.64548373,-0.44796309 C -0.64548373,-0.44029495 -0.64972965,-0.43402096 -0.65491904,-0.43402096 C -0.67098564,-0.43402096 -0.67703302,-0.45948513 -0.66624921,-0.4817295 C -0.65262994,-0.50982251 -0.65145655,-0.56124372 -0.66443476,-0.56124372 C -0.68418195,-0.56124372 -0.77378085,-0.42279557 -0.77565752,-0.38938263 C -0.7770698,-0.36423578 -0.770163,-0.35262426 -0.74839858,-0.34355603 C -0.70800698,-0.32672669 -0.72532763,-0.31729874 -0.77519365,-0.3289709 C -0.79782839,-0.33426909 -0.81757909,-0.33860389 -0.81908412,-0.33860389 C -0.82517268,-0.33860389 -0.9682552,-0.13533775 -1.0355071,-0.031148877 C -1.0750272,0.030077078 -1.1253713,0.095676317 -1.1473828,0.11462721 C -1.1839067,0.14607275 -1.1942408,0.14908337 -1.2656547,0.14908337 C -1.3089361,0.14908337 -1.3603345,0.15601702 -1.3806677,0.16459872 C -1.4201375,0.18125706 -1.4776167,0.25039139 -1.4654047,0.26651815 C -1.4557762,0.27923332 -1.4205559,0.2792329 -1.4205559,0.26651773 C -1.4205559,0.24911195 -1.352308,0.18994287 -1.3210405,0.18024044 C -1.2900752,0.17063184 -1.2127154,0.17792 -1.2127154,0.19044593 C -1.2127154,0.19424438 -1.2350412,0.19561457 -1.2623285,0.19349069 C -1.3058507,0.19010328 -1.3170138,0.19434415 -1.3532587,0.2280356 C -1.3759831,0.24915913 -1.3945759,0.27071512 -1.3945759,0.27593772 C -1.3945759,0.29572107 -1.3345528,0.29187502 -1.2971506,0.26969501 C -1.247056,0.23998828 -1.1607552,0.21084536 -1.1607552,0.2236356 C -1.1607552,0.22905804 -1.1747285,0.23635692 -1.1918069,0.23985523 C -1.2088853,0.24335364 -1.238389,0.25944615 -1.2573707,0.27561638 L -1.2918829,0.30501682 L -1.2587943,0.3227116 C -1.2334577,0.33626061 -1.2257054,0.33710134 -1.2257054,0.32629991 C -1.2257054,0.31854145 -1.1979392,0.29576995 -1.1640027,0.27569653 C -1.06505,0.21716621 -1.059081,0.21701959 -1.1315276,0.27489874 C -1.1690364,0.30486532 -1.1997252,0.33184449 -1.1997252,0.33485246 C -1.1997252,0.33786043 -1.1853269,0.33737211 -1.1677287,0.33376725 C -1.1429807,0.32869785 -1.1275313,0.33437146 -1.0995311,0.3588119 C -1.0557935,0.39698902 -1.0606932,0.39535834 -1.0300009,0.38195213 z"
     id="path4041"
     style="fill:#fdc82f;fill-opacity:1" />
  <path
     d="M 1.6077503,0.32898506 C 1.6272783,0.29338664 1.6282224,0.28502747 1.6132461,0.28033698 C 1.5932522,0.27407518 1.5411721,0.2932714 1.5411721,0.30690279 C 1.5411721,0.32535868 1.5705315,0.38310106 1.5771633,0.37768847 C 1.5810173,0.374543 1.5947814,0.35262644 1.6077503,0.32898506 z"
     id="path4039"
     style="fill:#fdc82f;fill-opacity:1" />
  <path
     d="M 1.51386,0.28893936 C 1.5276778,0.26786713 1.5260305,0.26570424 1.4961639,0.26570424 C 1.4684379,0.26570424 1.4632319,0.27059511 1.4632319,0.2966428 C 1.4632319,0.31365906 1.4672551,0.33613837 1.4721726,0.34659693 C 1.4798635,0.36295449 1.482337,0.36187776 1.4898684,0.33889348 C 1.4946841,0.32419798 1.5054801,0.30171867 1.51386,0.28893936 z"
     id="path4037"
     style="fill:#fdc82f;fill-opacity:1" />
  <path
     d="M -1.446536,0.3218943 C -1.446536,0.30057399 -1.450291,0.29633386 -1.4612508,0.30527879 C -1.469344,0.31188409 -1.4724503,0.3247654 -1.4681536,0.33390391 C -1.4562622,0.35919559 -1.446536,0.35379222 -1.446536,0.3218943 z"
     id="path4035"
     style="fill:#fdc82f;fill-opacity:1" />
  <path
     d="M -0.059850085,0.27661105 C -0.051054792,0.26511658 -0.021882421,0.24624404 0.004977334,0.23467196 C 0.05600115,0.21268914 0.0467907,0.20532156 -0.009772721,0.22287332 C -0.04667754,0.23432496 -0.095572292,0.27081658 -0.095572292,0.28690804 C -0.095572292,0.30432335 -0.07694705,0.29895455 -0.059850085,0.27661105 z"
     id="path4033"
     style="fill:#fdc82f;fill-opacity:1" />
  <path
     d="M -0.001040949,0.20327741 C 0.028187409,0.19638353 0.032581158,0.19311475 0.013516463,0.19244715 C -0.020935448,0.19124076 -0.093102366,0.2309437 -0.11964075,0.26570424 C -0.13359049,0.28397597 -0.12481546,0.2799304 -0.09139054,0.25268024 C -0.064723427,0.23093935 -0.024066176,0.20870813 -0.001040949,0.20327741 z"
     id="path4031"
     style="fill:#fdc82f;fill-opacity:1" />
  <path
     d="M -1.8094822,-0.30298724 C -1.7706168,-0.31567919 -1.7581643,-0.3249919 -1.7634097,-0.3374434 C -1.7960252,-0.41486726 -1.8527152,-0.60796183 -1.8695778,-0.69906839 C -1.9080947,-0.90716931 -1.8892852,-1.3326261 -1.836565,-1.4457981 C -1.8288404,-1.4623804 -1.824145,-1.4770384 -1.8261311,-1.4783717 C -1.8281171,-1.479705 -1.8531241,-1.4839084 -1.8817022,-1.4877125 L -1.9336623,-1.494629 L -1.8951999,-1.4683843 C -1.8740455,-1.4539496 -1.8594317,-1.4401892 -1.8627248,-1.4378055 C -1.8841179,-1.4223197 -1.9314974,-1.4093955 -1.9668739,-1.4093955 C -2.0015642,-1.4093955 -2.0057525,-1.4069015 -1.9926689,-1.3940349 C -1.9840781,-1.3855867 -1.955957,-1.3729931 -1.9301776,-1.3660493 L -1.883306,-1.3534241 L -1.9189511,-1.3284003 C -1.9414893,-1.3125778 -1.9710474,-1.3033765 -1.9993368,-1.3033765 C -2.0262499,-1.3033765 -2.0442417,-1.2980959 -2.0444891,-1.2901241 C -2.0447154,-1.2828353 -2.0532986,-1.2267778 -2.0635627,-1.1655518 C -2.0850992,-1.0370846 -2.0892223,-0.62777551 -2.0701306,-0.51353519 C -2.0422407,-0.34664765 -2.0302961,-0.31614631 -1.9867749,-0.30068154 C -1.9324212,-0.28136753 -1.8733335,-0.28213596 -1.8094822,-0.30298724 z"
     id="path4029"
     style="fill:#ffffff;fill-opacity:1" />
  <path
     d="M -0.74465901,-0.54060056 C -0.6987356,-0.60263321 -0.69102523,-0.62084494 -0.69730812,-0.65244357 C -0.70937405,-0.71312788 -0.67180167,-0.67716762 -0.64292443,-0.60039335 L -0.61876089,-0.53615137 L -0.60324897,-0.57451221 C -0.58209626,-0.62682229 -0.60370453,-0.68864619 -0.66133781,-0.74071136 C -0.71391835,-0.788212 -0.72158949,-0.81578796 -0.67173204,-0.77807637 C -0.65282739,-0.76377717 -0.63246668,-0.75207787 -0.62648567,-0.75207787 C -0.60506511,-0.75207787 -0.54611477,-0.63964772 -0.53754355,-0.58244752 L -0.52880607,-0.52413708 L -0.49417658,-0.58244752 C -0.46778044,-0.62689428 -0.45951696,-0.65690241 -0.45942018,-0.70866141 C -0.45929782,-0.77414413 -0.46114552,-0.7780029 -0.51125341,-0.81690614 C -0.53983149,-0.83909389 -0.56321355,-0.86437804 -0.56321355,-0.87309312 C -0.56321355,-0.88503202 -0.55563543,-0.88317626 -0.53247692,-0.86556641 C -0.51557182,-0.85271161 -0.47752388,-0.8263836 -0.44792582,-0.80705984 C -0.4183279,-0.78773597 -0.3833773,-0.75484931 -0.37025788,-0.73397821 L -0.34640428,-0.69603084 L -0.33076519,-0.74672116 C -0.30950765,-0.81562214 -0.32249339,-0.85292142 -0.3876896,-0.91022637 C -0.4180933,-0.93695004 -0.44718318,-0.970742 -0.45233386,-0.9853196 L -0.46169864,-1.0118244 L -0.43854741,-0.9853196 C -0.40985398,-0.95246994 -0.39117626,-0.94290438 -0.31292675,-0.92098486 L -0.25099533,-0.90363633 L -0.25854969,-0.94182755 C -0.27881505,-1.0442806 -0.33499435,-1.1090762 -0.44591665,-1.1579314 C -0.5075267,-1.1850674 -0.48827716,-1.1896987 -0.41041814,-1.1664722 C -0.33320303,-1.1434377 -0.27731678,-1.1130774 -0.23723369,-1.0723897 L -0.20890151,-1.04363 L -0.21748689,-1.0894345 C -0.22789788,-1.1449795 -0.25659599,-1.1828994 -0.30306446,-1.2025114 C -0.35003617,-1.2223359 -0.42032317,-1.2769213 -0.42032317,-1.2935753 C -0.42032317,-1.3017095 -0.40824555,-1.2978123 -0.38992817,-1.2837676 C -0.31338725,-1.2250806 -0.20832073,-1.2382854 -0.19215281,-1.308624 C -0.1874751,-1.3289743 -0.18779842,-1.3540094 -0.19287129,-1.3642576 C -0.20122908,-1.3811419 -0.20308977,-1.3807903 -0.21269668,-1.3605112 C -0.23672994,-1.3097795 -0.31042903,-1.3252303 -0.34210354,-1.387641 C -0.35574009,-1.4145104 -0.36384146,-1.4191627 -0.38631383,-1.4130299 C -0.4014467,-1.4089 -0.43595784,-1.4028147 -0.46300517,-1.3995069 C -0.50827142,-1.3939709 -0.51632069,-1.3873681 -0.56421833,-1.3164818 C -0.59283811,-1.274126 -0.61162702,-1.24073 -0.60597155,-1.2422685 C -0.58794788,-1.2471719 -0.58694777,-1.2353386 -0.60262415,-1.2026585 C -0.62333741,-1.1594779 -0.61232251,-0.8437353 -0.58931339,-0.82110799 C -0.57564086,-0.80766234 -0.57749869,-0.80508736 -0.60087153,-0.80508736 C -0.61891677,-0.80508736 -0.63405834,-0.81535105 -0.64388284,-0.83424257 C -0.65983499,-0.86491693 -0.71764311,-0.92170822 -0.73291472,-0.92170822 C -0.74536359,-0.92170822 -0.79703418,-0.82144661 -0.79703418,-0.79729093 C -0.79703418,-0.78641826 -0.79001956,-0.7717974 -0.78144614,-0.76480015 C -0.77287272,-0.75780289 -0.77141134,-0.75222958 -0.77819863,-0.75241501 C -0.7948603,-0.75287026 -0.83600429,-0.77892972 -0.83600429,-0.7890276 C -0.83600429,-0.79348665 -0.85173782,-0.82574865 -0.87096775,-0.86072081 L -0.9059312,-0.92430664 L -0.9294229,-0.90062911 C -0.96027373,-0.86953427 -0.95924167,-0.84749494 -0.92693453,-0.84749494 C -0.88628066,-0.84749494 -0.89451062,-0.80411718 -0.94632698,-0.74528407 C -1.0370429,-0.64228356 -1.0695957,-0.58930514 -1.069183,-0.54534088 L -1.0687849,-0.50293329 L -1.0494547,-0.5320109 C -1.0351293,-0.55356021 -1.0167667,-0.56283178 -0.97852966,-0.56782199 C -0.94469036,-0.57223832 -0.92693453,-0.58009167 -0.92693453,-0.59064225 C -0.92693453,-0.62138956 -0.85602349,-0.69869011 -0.81785604,-0.70954921 C -0.76433255,-0.72477735 -0.76423512,-0.72409703 -0.81440796,-0.68547728 C -0.90122517,-0.61865109 -0.92450137,-0.46418834 -0.85813138,-0.39532457 L -0.83066889,-0.36683017 L -0.81509189,-0.41666619 C -0.80652444,-0.44407591 -0.77482967,-0.49984644 -0.74465901,-0.54060056 z"
     id="path4027"
     style="fill:#fdc82f;fill-opacity:1" />
  <path
     d="M -1.0947526,-0.49602732 C -1.1322983,-0.55328477 -1.1043124,-0.6206347 -1.0001058,-0.72379996 C -0.95986156,-0.7636421 -0.92693453,-0.80183703 -0.92693453,-0.80867758 C -0.92693453,-0.81551824 -0.94447109,-0.82745047 -0.96590465,-0.83519367 C -0.98733821,-0.84293687 -1.0052856,-0.85722134 -1.0057878,-0.86693691 C -1.0066181,-0.88300186 -1.0075004,-0.88304279 -1.0155304,-0.86738919 C -1.0203866,-0.85792244 -1.0506646,-0.82540897 -1.082815,-0.79513716 C -1.222903,-0.66323408 -1.2348254,-0.59010113 -1.1308567,-0.50044163 C -1.0880167,-0.46349763 -1.0721495,-0.46155759 -1.0947526,-0.49602732 z"
     id="path4025"
     style="fill:#fdc82f;fill-opacity:1" />
  <path
     d="M -1.2145896,-0.54555249 C -1.2407446,-0.58173221 -1.2415571,-0.63435239 -1.2169399,-0.69777336 C -1.211162,-0.71265906 -1.212149,-0.71283315 -1.2242812,-0.69906839 C -1.2319902,-0.69032182 -1.2385731,-0.67123841 -1.2389096,-0.6566608 C -1.2395007,-0.63106358 -1.2401747,-0.63086066 -1.2585936,-0.65073572 C -1.2690832,-0.66205451 -1.2776654,-0.68891039 -1.2776654,-0.71041549 C -1.2776654,-0.73192048 -1.2929445,-0.77675368 -1.3116188,-0.8100447 C -1.3585457,-0.89370215 -1.3521331,-0.9756511 -1.2933326,-1.0437358 C -1.2707211,-1.0699173 -1.2579459,-1.0913386 -1.2649432,-1.0913386 C -1.2839453,-1.0913386 -1.3296257,-1.0510752 -1.3296257,-1.0343262 C -1.3296257,-1.0262937 -1.3385278,-1.0136918 -1.3494081,-1.006322 C -1.365732,-0.99526493 -1.3678996,-0.9956678 -1.3618069,-1.0086262 C -1.3577459,-1.0172633 -1.3634577,-1.0304494 -1.3744996,-1.0379286 C -1.3855415,-1.0454079 -1.3945759,-1.0579768 -1.3945759,-1.0658597 C -1.3945759,-1.0737426 -1.410651,-1.0870467 -1.4302984,-1.0954244 C -1.4888084,-1.1203732 -1.5879654,-1.2087097 -1.6229283,-1.2670337 C -1.6445826,-1.3031565 -1.6594633,-1.3521776 -1.6670911,-1.412517 C -1.6805716,-1.5191557 -1.6915747,-1.5396571 -1.7450249,-1.5577266 C -1.7802095,-1.5696212 -1.8680402,-1.5672053 -1.8843497,-1.5538943 C -1.8954569,-1.544829 -1.846307,-1.4942105 -1.8263975,-1.4942105 C -1.8053279,-1.4942105 -1.8062141,-1.476051 -1.8359694,-1.2980756 C -1.8546803,-1.1861609 -1.8527608,-0.9797076 -1.8328843,-0.96624425 C -1.8238957,-0.9601559 -1.7873613,-0.94551923 -1.7516966,-0.93371848 L -1.6868516,-0.91226257 L -1.7550493,-0.91168445 C -1.7925581,-0.9113665 -1.823247,-0.90644541 -1.823247,-0.9007488 C -1.823247,-0.88215307 -1.7584543,-0.85518323 -1.6829162,-0.84233638 L -1.6089114,-0.82975044 L -1.6644802,-0.81565246 C -1.6950429,-0.80789855 -1.7179777,-0.79638585 -1.7154462,-0.7900685 C -1.7089962,-0.77397259 -1.6148813,-0.74983133 -1.5796839,-0.75524445 C -1.5295913,-0.76294821 -1.5476884,-0.74399594 -1.6054227,-0.72828923 L -1.6603891,-0.71333546 L -1.5966136,-0.69560008 C -1.5615372,-0.68584559 -1.5166879,-0.67786459 -1.4969488,-0.67786459 C -1.4772095,-0.67786459 -1.4577835,-0.6735387 -1.4537798,-0.66825143 C -1.449776,-0.66296416 -1.4582304,-0.6611418 -1.4725674,-0.66420171 C -1.5032593,-0.67075231 -1.5374866,-0.65069935 -1.5374177,-0.62620748 C -1.537391,-0.61671709 -1.524968,-0.59234937 -1.5098111,-0.57205702 L -1.4822531,-0.53516179 L -1.4676421,-0.57205702 C -1.4471248,-0.62386648 -1.4041212,-0.62754587 -1.3689764,-0.58049889 C -1.3545315,-0.56116198 -1.3426909,-0.53699189 -1.3426643,-0.52678756 C -1.3426235,-0.51119524 -1.3302466,-0.50823424 -1.2651136,-0.50823424 L -1.1876115,-0.50823424 L -1.2145896,-0.54555249 z"
     id="path4023"
     style="fill:#fdc82f;fill-opacity:1" />
  <path
     d="M -0.93992458,-0.53473898 C -0.93992458,-0.55565939 -0.9965914,-0.55565939 -1.0178648,-0.53473898 C -1.031733,-0.52110091 -1.0273347,-0.51883614 -0.98698033,-0.51883614 C -0.95381301,-0.51883614 -0.93992458,-0.52352981 -0.93992458,-0.53473898 z"
     id="path4021"
     style="fill:#fdc82f;fill-opacity:1" />
  <path
     d="M -0.725953,-1.9406311 L -0.782203,-1.9007873 C -0.84567375,-1.8563876 -0.8740065,-1.8113834 -0.875953,-1.7515686 L -0.8775155,-1.7117248 L -0.88923425,-1.7515686 C -0.895598,-1.7736246 -0.909704,-1.8056483 -0.92048425,-1.8226623 C -0.9312645,-1.8396764 -0.94049925,-1.8672749 -0.94079675,-1.8835998 L -0.94079675,-1.9132873 L -0.98610925,-1.8710998 C -1.037216,-1.8238616 -1.0418077,-1.7949618 -1.010328,-1.7164123 C -0.99890075,-1.6878998 -0.991741,-1.6588213 -0.994703,-1.6515686 C -0.9976645,-1.6443158 -1.007356,-1.6606238 -1.016578,-1.6875061 C -1.0257995,-1.7143886 -1.050393,-1.7491398 -1.0704842,-1.7648498 L -1.1064217,-1.7937561 L -1.1275155,-1.7609436 C -1.1388173,-1.7431066 -1.147828,-1.7189888 -1.147828,-1.7070373 C -1.1478275,-1.6828561 -1.1608477,-1.6788143 -1.1829842,-1.6968811 C -1.2007955,-1.7114178 -1.2550877,-1.7016801 -1.2829842,-1.6789123 C -1.311207,-1.6558783 -1.3091385,-1.5966903 -1.2775155,-1.5460998 C -1.2458105,-1.4953783 -1.2193032,-1.4733023 -1.1673592,-1.4523498 L -1.1282967,-1.4367248 L -1.2064217,-1.4304748 L -1.2845467,-1.4250061 L -1.2486092,-1.3960998 C -1.2291447,-1.3799483 -1.195891,-1.3636718 -1.1743905,-1.3601623 C -1.1528897,-1.3566528 -1.1384812,-1.3496583 -1.1423592,-1.3445373 C -1.1551332,-1.3276673 -1.2282875,-1.3345706 -1.272828,-1.3570373 C -1.310891,-1.3762368 -1.316578,-1.3767706 -1.316578,-1.3617248 C -1.3165772,-1.3354791 -1.2816842,-1.2855536 -1.2579842,-1.2781311 C -1.2162222,-1.2650513 -1.174778,-1.2717196 -1.160328,-1.2937561 C -1.1523525,-1.3059173 -1.1428065,-1.3130778 -1.1392342,-1.3101623 C -1.1219785,-1.2960796 -1.1692177,-1.2577588 -1.2392342,-1.2289123 C -1.3450407,-1.1853203 -1.3689217,-1.1642501 -1.3689217,-1.1125061 C -1.368922,-1.0891816 -1.362785,-1.0703186 -1.3556405,-1.0703186 C -1.348496,-1.0703186 -1.3423592,-1.0747936 -1.3423592,-1.0804748 C -1.342359,-1.0929118 -1.2770485,-1.1216641 -1.2376717,-1.1265686 C -1.2217372,-1.1285528 -1.1955985,-1.1484473 -1.1775155,-1.1718811 C -1.148087,-1.2100168 -1.1464138,-1.2108528 -1.154078,-1.1828186 C -1.1586712,-1.1660161 -1.184216,-1.1257363 -1.2111092,-1.0929748 C -1.2767675,-1.0129898 -1.2929765,-0.9759761 -1.2923592,-0.9109436 C -1.2920725,-0.8807956 -1.290642,-0.8547681 -1.288453,-0.8531311 C -1.286264,-0.85149435 -1.24583,-0.86763735 -1.1993905,-0.8890686 C -1.1396632,-0.9166326 -1.1026918,-0.94269985 -1.072828,-0.97891235 C -1.0496082,-1.0070683 -1.0306405,-1.0246971 -1.0306405,-1.0179748 C -1.030641,-0.99421635 -1.0811237,-0.92671485 -1.1220467,-0.8953186 C -1.1771905,-0.8530121 -1.234813,-0.78334135 -1.2462655,-0.74609985 C -1.2553297,-0.71662585 -1.253667,-0.7171421 -1.1743905,-0.76797485 C -1.129814,-0.7965586 -1.076477,-0.83610635 -1.0556405,-0.85547485 L -1.0181405,-0.8906311 L -1.0181405,-1.0593811 C -1.0181407,-1.1984306 -1.0216082,-1.2307894 -1.038453,-1.2445373 C -1.0544842,-1.2576213 -1.0547877,-1.2609436 -1.0407967,-1.2609436 C -1.0309977,-1.2609436 -1.0163967,-1.2553096 -1.0079842,-1.2484436 C -0.99025125,-1.2339706 -1.058079,-1.3698083 -1.097828,-1.4281311 C -1.123006,-1.4650751 -1.1200555,-1.4639916 -1.0517342,-1.4078186 C -0.98832375,-1.3556833 -0.979078,-1.3426296 -0.979078,-1.3070373 C -0.9790775,-1.2844976 -0.96988725,-1.2551531 -0.9587655,-1.2421936 C -0.931665,-1.2106148 -0.87024125,-1.2106148 -0.8431405,-1.2421936 C -0.81419625,-1.2759206 -0.818356,-1.2978598 -0.8556405,-1.3117248 C -0.892744,-1.3255223 -0.89407975,-1.3374851 -0.86892175,-1.4234436 L -0.850953,-1.4859436 L -0.94704675,-1.4820373 C -1.0482725,-1.4778653 -1.059857,-1.4832576 -1.025953,-1.5210998 C -1.0094317,-1.5395401 -1.0116297,-1.5433893 -1.0517342,-1.5656311 C -1.0760337,-1.5791071 -1.0954842,-1.5952338 -1.0954842,-1.6015686 C -1.0954842,-1.6094086 -1.090912,-1.6103981 -1.0798592,-1.6031311 C -1.070928,-1.5972593 -1.0437257,-1.5885771 -1.019703,-1.5843811 C -0.99567975,-1.5801851 -0.95313575,-1.5596878 -0.92517175,-1.5390686 C -0.89720825,-1.5184493 -0.87173425,-1.5039606 -0.86892175,-1.5062561 C -0.86611,-1.5085513 -0.868375,-1.5395563 -0.87360925,-1.5757873 C -0.88114075,-1.6279178 -0.879421,-1.6399551 -0.866578,-1.6312561 C -0.8576525,-1.6252101 -0.846425,-1.5941686 -0.841578,-1.5625061 C -0.83293925,-1.5060761 -0.832255,-1.5046936 -0.79079675,-1.5046936 C -0.75005725,-1.5046938 -0.7480225,-1.5069931 -0.7400155,-1.5562561 C -0.735443,-1.5843853 -0.7239245,-1.6157529 -0.71423425,-1.6265686 C -0.699377,-1.6431521 -0.69901625,-1.6360891 -0.713453,-1.5789123 C -0.722869,-1.5416221 -0.72930525,-1.5092793 -0.7275155,-1.5078186 C -0.72572575,-1.5063581 -0.695946,-1.5219791 -0.66110925,-1.5421936 C -0.62627325,-1.5624081 -0.586329,-1.5789123 -0.572828,-1.5789123 C -0.55932675,-1.5789123 -0.5374285,-1.5838136 -0.52360925,-1.5898498 C -0.48638625,-1.6061086 -0.49169225,-1.5829166 -0.52985925,-1.5625061 C -0.55897075,-1.5469383 -0.559323,-1.5437311 -0.54235925,-1.5171936 C -0.51798425,-1.4790623 -0.51985125,-1.4705986 -0.547828,-1.4828186 C -0.56063325,-1.4884118 -0.60689975,-1.4899851 -0.650953,-1.4867248 L -0.7306405,-1.4804748 L -0.722828,-1.3976623 L -0.7150155,-1.3148498 L -0.7493905,-1.3078186 C -0.791084,-1.2992781 -0.794941,-1.2700123 -0.75798425,-1.2398498 C -0.7015755,-1.1938113 -0.650239,-1.2194733 -0.610328,-1.3140686 C -0.587112,-1.3690931 -0.5706235,-1.3888996 -0.52517175,-1.4171936 C -0.494152,-1.4365028 -0.465345,-1.4495569 -0.46110925,-1.4460998 C -0.456874,-1.4426428 -0.46174375,-1.4356718 -0.47204675,-1.4304748 C -0.498572,-1.4170951 -0.47960425,-1.4058181 -0.4431405,-1.4132873 C -0.346548,-1.4330736 -0.26537925,-1.5184328 -0.2650155,-1.6007873 C -0.26463175,-1.6874934 -0.33447425,-1.7203121 -0.40954675,-1.6687561 C -0.45553225,-1.6371753 -0.48924425,-1.6331711 -0.44860925,-1.6640686 C -0.41915975,-1.6864611 -0.412738,-1.7023371 -0.4025155,-1.7781311 C -0.39677875,-1.8206608 -0.39814575,-1.8233541 -0.4243905,-1.8171936 C -0.46767175,-1.8070341 -0.51489225,-1.7768463 -0.54704675,-1.7382873 C -0.58116175,-1.6973781 -0.5853305,-1.7111358 -0.55485925,-1.7632873 C -0.53923625,-1.7900254 -0.536332,-1.8121688 -0.5431405,-1.8492248 L -0.5525155,-1.9000061 L -0.60485925,-1.8585998 C -0.63365925,-1.8360056 -0.66715925,-1.7989763 -0.679078,-1.7765686 L -0.70017175,-1.7359436 L -0.70173425,-1.7820373 C -0.70233325,-1.8073606 -0.70789675,-1.8533898 -0.71423425,-1.8843811 L -0.725953,-1.9406311 z M -1.2118905,-1.6703186 C -1.1980988,-1.6713246 -1.1828533,-1.6680846 -1.166578,-1.6593811 C -1.1270795,-1.6382591 -1.1231555,-1.6158993 -1.1618905,-1.6328186 C -1.2035725,-1.6510248 -1.225953,-1.6374616 -1.225953,-1.5945373 C -1.2259522,-1.5524743 -1.210023,-1.5220728 -1.169703,-1.4859436 C -1.133522,-1.4535231 -1.1612587,-1.4560898 -1.2048592,-1.4890686 C -1.2586922,-1.5297866 -1.2818117,-1.5838808 -1.2642342,-1.6273498 C -1.2533372,-1.6542988 -1.234877,-1.6686418 -1.2118905,-1.6703186 z M -0.37517175,-1.6484436 C -0.34316175,-1.6507208 -0.3022025,-1.6308548 -0.2900155,-1.6046936 C -0.28018325,-1.5835861 -0.2826275,-1.5665511 -0.300953,-1.5328186 C -0.32810625,-1.4828348 -0.34599225,-1.4687813 -0.400953,-1.4523498 L -0.4400155,-1.4406311 L -0.39704675,-1.4679748 C -0.3336305,-1.5093996 -0.31120625,-1.5509858 -0.332203,-1.5867248 C -0.34142475,-1.6024204 -0.3625915,-1.6206431 -0.379078,-1.6273498 C -0.4034225,-1.6372533 -0.40497725,-1.6409248 -0.388453,-1.6460998 C -0.3843645,-1.6473803 -0.3797445,-1.6481183 -0.37517175,-1.6484436 z M -0.900953,-1.3140686 C -0.89380825,-1.3140683 -0.88767175,-1.3089621 -0.88767175,-1.3031311 C -0.88767125,-1.2973001 -0.8938085,-1.2929748 -0.900953,-1.2929748 C -0.90809725,-1.2929748 -0.91423425,-1.2973001 -0.91423425,-1.3031311 C -0.91423425,-1.3089621 -0.9080975,-1.3140686 -0.900953,-1.3140686 z M -0.6931405,-1.3140686 C -0.6859965,-1.3140683 -0.67985925,-1.3089621 -0.67985925,-1.3031311 C -0.67985975,-1.2973001 -0.685996,-1.2929748 -0.6931405,-1.2929748 C -0.70028575,-1.2929748 -0.70642175,-1.2973001 -0.70642175,-1.3031311 C -0.706421,-1.3089621 -0.700285,-1.3140686 -0.6931405,-1.3140686 z M -0.935328,-1.2882873 C -0.930594,-1.2881573 -0.92673425,-1.2841678 -0.92673425,-1.2773498 C -0.9267345,-1.2587273 -0.93434875,-1.2563946 -0.94548425,-1.2710998 C -0.94959525,-1.2765281 -0.9472765,-1.2838436 -0.9400155,-1.2875061 C -0.93820025,-1.2884216 -0.936906,-1.2883306 -0.935328,-1.2882873 z M -0.66735925,-1.2820373 C -0.660215,-1.2820373 -0.654078,-1.2777121 -0.654078,-1.2718811 C -0.654078,-1.2660498 -0.66021475,-1.2609436 -0.66735925,-1.2609436 C -0.674504,-1.2609436 -0.67985925,-1.2660501 -0.67985925,-1.2718811 C -0.67985975,-1.2777121 -0.67450375,-1.2820373 -0.66735925,-1.2820373 z M -0.71892175,-1.2718811 C -0.71177675,-1.2718808 -0.70642175,-1.2667746 -0.70642175,-1.2609436 C -0.706421,-1.2551126 -0.71177725,-1.2500061 -0.71892175,-1.2500061 C -0.72606575,-1.2500061 -0.732203,-1.2551126 -0.732203,-1.2609436 C -0.73220275,-1.2667748 -0.72606625,-1.2718811 -0.71892175,-1.2718811 z M -0.90017175,-1.2656311 C -0.8930125,-1.2669811 -0.88512925,-1.2658393 -0.88142175,-1.2609436 C -0.876934,-1.2550173 -0.88278325,-1.2500061 -0.89392175,-1.2500061 C -0.90505975,-1.2500061 -0.91423425,-1.2521224 -0.91423425,-1.2546936 C -0.91423425,-1.2602886 -0.907331,-1.2642811 -0.90017175,-1.2656311 z"
     id="path4019"
     style="fill:#fdc82f;fill-opacity:1" />
  <path
     d="M -0.76967782,-0.92393345 C -0.74233574,-0.96813997 -0.73402524,-0.99114863 -0.74438284,-0.99396651 C -0.75286676,-0.99627454 -0.77537109,-1.0090885 -0.7943924,-1.022442 L -0.82897668,-1.0467212 L -0.86596217,-1.0213213 C -0.8863043,-1.0073514 -0.907629,-0.9959215 -0.91335059,-0.9959215 C -0.93610616,-0.9959215 -0.95847721,-1.0324728 -0.97385325,-1.0947749 L -0.99001286,-1.1602509 L -0.98926385,-1.04363 C -0.98885194,-0.97948856 -0.98447001,-0.91786313 -0.97952613,-0.9066847 C -0.971474,-0.88847848 -0.96691138,-0.8902401 -0.93574582,-0.92358826 C -0.91661057,-0.9440637 -0.90068622,-0.96752231 -0.90035835,-0.97571842 C -0.90003048,-0.98391464 -0.88285441,-0.96080272 -0.86218934,-0.9243587 C -0.84152427,-0.88791468 -0.82141739,-0.85809684 -0.81750739,-0.85809684 C -0.81359726,-0.85809684 -0.79207407,-0.88772331 -0.76967782,-0.92393345 z"
     id="path4001"
     style="fill:#fdc82f;fill-opacity:1" />
  <path
     d="M -0.63808071,-1.1147079 C -0.63619858,-1.1771249 -0.63960535,-1.2241358 -0.64565117,-1.2191767 C -0.65169699,-1.2142175 -0.66442892,-1.1735698 -0.67394425,-1.1288486 C -0.68345958,-1.0841274 -0.69976571,-1.0369236 -0.71018008,-1.0239513 C -0.73124082,-0.99771789 -0.72132241,-0.96934212 -0.67362885,-0.91937983 L -0.64764878,-0.89216402 L -0.64457573,-0.94669329 C -0.64288559,-0.97668436 -0.63996284,-1.0522909 -0.63808071,-1.1147079 z"
     id="path3999"
     style="fill:#fdc82f;fill-opacity:1" />
  <path
     d="M -0.87626924,-1.1788042 C -0.87555712,-1.1890085 -0.88374267,-1.1973575 -0.89445944,-1.1973575 C -0.91530351,-1.1973575 -0.92070373,-1.1604372 -0.90480003,-1.1266619 C -0.8967618,-1.1095907 -0.89456129,-1.1104476 -0.88660983,-1.1337462 C -0.88163464,-1.1483238 -0.87698135,-1.1685999 -0.87626924,-1.1788042 z"
     id="path3997"
     style="fill:#ffffff;fill-opacity:1" />
  <path
     d="M 1.5903839,-1.1388737 C 1.6509056,-1.1591949 1.6843337,-1.1980177 1.6836494,-1.2471901 C 1.6830804,-1.288078 1.6594916,-1.3097369 1.601231,-1.322866 C 1.5404543,-1.3365621 1.3299277,-1.301739 1.1774385,-1.2527667 C 1.0177519,-1.2014829 0.91392438,-1.1763504 0.8656903,-1.1773049 C 0.84068448,-1.1777998 0.79684311,-1.1712919 0.76826504,-1.162843 L 0.7163049,-1.1474811 L 0.87218532,-1.1345008 C 0.95791955,-1.1273616 1.0339112,-1.1195629 1.0410557,-1.1171705 C 1.0482003,-1.1147781 1.1621879,-1.114474 1.2943615,-1.1164949 C 1.4867317,-1.119436 1.5457911,-1.1239008 1.5903839,-1.1388737 z"
     id="path3995"
     style="fill:#ffffff;fill-opacity:1" />
  <path
     d="M -0.72701867,-1.1682023 C -0.72019306,-1.1918377 -0.72307074,-1.1973575 -0.74221818,-1.1973575 C -0.76166439,-1.1973575 -0.76487774,-1.1906497 -0.76040644,-1.1593909 C -0.75451494,-1.1182029 -0.74038048,-1.1219332 -0.72701867,-1.1682023 z"
     id="path3993"
     style="fill:#ffffff;fill-opacity:1" />
  <path
     d="M 0.30191615,-1.2106099 C 0.3096955,-1.2295608 0.31843272,-1.2515009 0.32133223,-1.2593656 C 0.32490839,-1.2690662 0.30362603,-1.2784561 0.25515865,-1.2885618 C 0.09077755,-1.3228361 -0.12158016,-1.4386834 -0.1604618,-1.5152947 L -0.17672559,-1.5473405 L -0.19785154,-1.5128241 C -0.21859857,-1.4789271 -0.21839502,-1.478096 -0.18650254,-1.466504 C -0.1241001,-1.4438223 -0.10206731,-1.4122625 -0.10206731,-1.3455592 C -0.10206731,-1.2975018 -0.10878874,-1.2765293 -0.13262286,-1.2502187 C -0.14991,-1.2311352 -0.15827909,-1.2124896 -0.15189591,-1.20728 C -0.14569058,-1.2022154 -0.05302616,-1.1938393 0.05402511,-1.1886664 C 0.16107625,-1.1834934 0.25746296,-1.178562 0.26821767,-1.1777074 C 0.27958719,-1.1768041 0.2936919,-1.1905756 0.30191615,-1.2106099 z"
     id="path3991"
     style="fill:#ffffff;fill-opacity:1" />
  <path
     d="M 0.44135444,-1.191286 C 0.44725841,-1.2038432 0.44141601,-1.2044775 0.40702152,-1.195013 C 0.3503634,-1.1794223 0.34819237,-1.1761537 0.39449419,-1.1761537 C 0.41694071,-1.1761537 0.43733623,-1.18274 0.44135444,-1.191286 z"
     id="path3989"
     style="fill:#fdc82f;fill-opacity:1" />
  <path
     d="M -2.0700576,-1.3542656 C -2.0700576,-1.3705925 -2.0640536,-1.3888512 -2.0567152,-1.3948404 C -2.0475853,-1.4022918 -2.0538434,-1.4096235 -2.0765361,-1.4180621 C -2.1062458,-1.4291102 -2.1112087,-1.4276903 -2.1241961,-1.4044264 C -2.1357822,-1.3836726 -2.1343504,-1.3730491 -2.117066,-1.3515193 C -2.0887423,-1.3162389 -2.0700576,-1.3173305 -2.0700576,-1.3542656 z"
     id="path3987"
     style="fill:#fdc82f;fill-opacity:1" />
  <path
     d="M -1.9531474,-1.3331884 C -1.9531474,-1.3379229 -1.9701444,-1.3520528 -1.9909186,-1.364588 C -2.0233329,-1.3841473 -2.029781,-1.3850588 -2.0363836,-1.3710158 C -2.0532281,-1.3351897 -2.0445982,-1.3245803 -1.9986125,-1.3245803 C -1.9736067,-1.3245803 -1.9531474,-1.3284539 -1.9531474,-1.3331884 z"
     id="path3985"
     style="fill:#fdc82f;fill-opacity:1" />
  <path
     d="M -0.74936478,-1.3351822 C -0.73367529,-1.3351822 -0.73148296,-1.3441063 -0.73829545,-1.3802403 C -0.75917667,-1.490995 -0.75851548,-1.4896164 -0.7918331,-1.4918668 C -0.82785343,-1.4942999 -0.84017824,-1.4758525 -0.85403264,-1.3987674 C -0.86170156,-1.3560973 -0.85947754,-1.3497715 -0.83307049,-1.339146 C -0.81682281,-1.3326085 -0.79574427,-1.3290421 -0.7862292,-1.3312208 C -0.77671426,-1.3333996 -0.76012534,-1.3351822 -0.74936478,-1.3351822 z"
     id="path3983"
     style="fill:#fdc82f;fill-opacity:1" />
  <path
     d="M -2.0310075,-1.4438516 C -2.0309635,-1.4511404 -2.0227834,-1.4698439 -2.0128296,-1.4854149 C -1.9956245,-1.5123288 -1.9965512,-1.5143408 -2.0316107,-1.5261931 C -2.0518941,-1.5330502 -2.0746879,-1.535534 -2.0822635,-1.5317126 C -2.1052787,-1.5201036 -2.0986855,-1.4541154 -2.0733051,-1.4420504 C -2.0427069,-1.427505 -2.0311033,-1.4279992 -2.0310075,-1.4438516 z"
     id="path3981"
     style="fill:#fdc82f;fill-opacity:1" />
  <path
     d="M -1.9141773,-1.439558 C -1.9141773,-1.4444853 -1.9257587,-1.4570708 -1.9399136,-1.4675259 C -1.9609753,-1.4830824 -1.9692336,-1.4841079 -1.9853788,-1.4731719 C -2.020242,-1.4495573 -2.0087813,-1.4305993 -1.9596424,-1.4305993 C -1.9346366,-1.4305993 -1.9141773,-1.4346307 -1.9141773,-1.439558 z"
     id="path3979"
     style="fill:#fdc82f;fill-opacity:1" />
  <path
     d="M 0.65784974,-1.5148732 C 0.69000007,-1.5195422 0.70901359,-1.5239594 0.70010204,-1.5246892 C 0.67517832,-1.5267305 0.53296354,-1.5833001 0.41753409,-1.6370879 C 0.28866385,-1.6971389 0.23415104,-1.7102561 0.17884817,-1.6945217 C 0.08403534,-1.6675461 0.09880124,-1.5963368 0.2082719,-1.5526243 C 0.31084498,-1.511666 0.51672366,-1.4943784 0.65784974,-1.5148732 z"
     id="path3977"
     style="fill:#ffffff;fill-opacity:1" />
  <path
     d="M -1.9016003,-1.5233658 C -1.9018276,-1.527739 -1.9104131,-1.5403741 -1.9206794,-1.5514436 C -1.9364845,-1.5684855 -1.9425285,-1.569414 -1.9601153,-1.5575015 C -1.9788189,-1.5448327 -1.97789,-1.5420765 -1.9507789,-1.5297993 C -1.9160231,-1.5140604 -1.9010148,-1.5120969 -1.9016003,-1.5233658 z"
     id="path3975"
     style="fill:#fdc82f;fill-opacity:1" />
  <path
     d="M -1.9401573,-1.605973 C -1.9401573,-1.6207329 -1.9948593,-1.6315836 -2.0180974,-1.6214333 C -2.0464988,-1.6090278 -2.0549406,-1.5519423 -2.0294012,-1.5449943 C -2.0168877,-1.54159 -1.9401573,-1.5940183 -1.9401573,-1.605973 z"
     id="path3973"
     style="fill:#fdc82f;fill-opacity:1" />
  <path
     d="M 1.1353156,-1.5498705 C 1.1273411,-1.5696967 1.0539473,-1.5719111 1.0125101,-1.5535757 C 0.97666075,-1.5377128 0.97736045,-1.5374606 1.0583757,-1.5370426 C 1.1185496,-1.5367321 1.1392144,-1.5401775 1.1353156,-1.5498705 z"
     id="path3971"
     style="fill:#ffffff;fill-opacity:1" />
  <path
     d="M -1.805333,-1.591351 C -1.8037569,-1.5933187 -1.7798442,-1.6426371 -1.7521937,-1.7009475 C -1.6448749,-1.9272658 -1.5247838,-2.1157295 -1.3519341,-2.3290914 L -1.2553243,-2.4483442 L -1.3152077,-2.403757 C -1.5252855,-2.2473393 -1.7436613,-1.9967709 -1.884921,-1.7500573 C -1.9306645,-1.670165 -1.9396944,-1.6453321 -1.9294213,-1.6276784 C -1.9223328,-1.6154971 -1.9134666,-1.5976128 -1.9097186,-1.5879357 C -1.9041425,-1.5735386 -1.8942978,-1.571925 -1.8555513,-1.5790572 C -1.8295074,-1.5838512 -1.8069092,-1.5893834 -1.805333,-1.591351 z"
     id="path3967"
     style="fill:#ffffff;fill-opacity:1" />
  <path
     d="M -0.60491096,0.75094195 C -0.85005056,0.67498321 -0.92702046,0.77089208 -1.0651274,0.7916081 C -1.4692051,0.85221974 -1.4794477,0.51884718 -1.4797385,0.5192336 C -1.4153249,0.55730492 -1.3283765,0.57584645 -1.2042876,0.5572331 C -1.0661807,0.53651708 -0.98921075,0.44060821 -0.74146481,0.51673204 M -0.73481875,0.51884718 L -0.73481875,0.51884718 M 0.74291019,0.51673204 C 0.73919131,0.51106876 0.88168373,0.7536585 0.87946404,0.75094195 C 0.63432444,0.67498321 0.55735454,0.77089208 0.41924764,0.7916081 C 0.015169953,0.85221974 0.004927353,0.51884718 0.005857254,0.5192336 C 0.07149156,0.55730492 0.15843986,0.57584645 0.28252886,0.5572331 C 0.42063576,0.53651708 0.49760566,0.44060821 0.74291019,0.51673204 z M 1.4887207,0.51962002 C 1.5534252,0.55730492 1.6403735,0.57584645 1.7644624,0.5572331 C 1.8390616,0.54604322 1.895823,0.51291445 1.9741188,0.49595235 C 2.3814299,0.43450946 2.3916726,0.76788202 2.394913,0.76885705 C 2.3368757,0.73154574 2.2473344,0.70987282 2.1130531,0.73037602 C 2.0347553,0.74742236 1.9780722,0.78044068 1.9036226,0.7916081 C 1.4995449,0.85221974 1.4893023,0.51884718 1.4893023,0.51884718 L 1.4893023,0.51884718"
     id="path4383"
     style="fill:#fdc82f;fill-opacity:1;fill-rule:evenodd;stroke:none;stroke-width:0.075;stroke-linecap:butt;stroke-linejoin:miter;stroke-miterlimit:4;stroke-dasharray:none;stroke-opacity:1" />
  <path
     d="M -1.3446571,0.75094195 C -1.5897967,0.67498321 -1.6667666,0.77089208 -1.8048735,0.7916081 C -2.2089511,0.85221974 -2.2191938,0.51884718 -2.2224343,0.51787215 C -2.1643969,0.55518346 -2.0748556,0.57685638 -1.9440337,0.5572331 C -1.8059268,0.53651707 -1.7289569,0.44060821 -1.4800293,0.51962002 C -1.4153249,0.55730492 -1.3283765,0.57584645 -1.2042876,0.5572331 C -1.0661807,0.53651708 -0.98921075,0.44060821 -0.74146481,0.51673204 C -0.67758051,0.55518346 -0.58803917,0.57685638 -0.45721724,0.5572331 C -0.31911034,0.53651707 -0.24214044,0.44060821 0.006787156,0.51962002 C 0.07149156,0.55730492 0.15843986,0.57584645 0.28252886,0.5572331 C 0.42063576,0.53651708 0.49760566,0.44060821 0.74291019,0.51673204 C 0.80435308,0.55518346 0.89389442,0.57685638 1.0247164,0.5572331 C 1.1628232,0.53651707 1.2397931,0.44060821 1.4887207,0.51962002 C 1.5534252,0.55730492 1.6403735,0.57584645 1.7644624,0.5572331 C 1.8390616,0.54604322 1.895823,0.51291445 1.9741188,0.49595235 C 2.3814299,0.43450946 2.3916726,0.76788202 2.394913,0.76885705 C 2.3368757,0.73154574 2.2473344,0.70987282 2.1130531,0.73037602 C 2.0347553,0.74742236 1.9780722,0.78044068 1.9036226,0.7916081 C 1.4995449,0.85221974 1.4893023,0.51884718 1.4893023,0.51884718 L 1.4893023,0.51884718 M -1.4794477,0.51884718 L -1.4794477,0.51884718 C -1.4794477,0.51884718 -1.4692051,0.85221974 -1.0651274,0.7916081 C -0.92702046,0.77089208 -0.85005056,0.67498321 -0.60491096,0.75094195 M -0.73481875,0.51884718 L -0.73481875,0.51884718 C -0.73481875,0.51884718 -0.72457615,0.85221974 -0.32049845,0.7916081 C -0.18239155,0.77089208 -0.10542165,0.67498321 0.13971795,0.75094195 M 0.004927353,0.51884718 C 0.004927353,0.51884718 0.015169953,0.85221974 0.41924764,0.7916081 C 0.55735454,0.77089208 0.63432444,0.67498321 0.87946404,0.75094195 M 0.74955625,0.51884718 L 0.74955625,0.51884718 C 0.74955625,0.51884718 0.75979885,0.85221974 1.1638765,0.7916081 C 1.3019835,0.77089208 1.3789533,0.67498321 1.624093,0.75094195"
     id="path3555"
     style="fill:none;fill-rule:evenodd;stroke:#000000;stroke-width:0.075;stroke-linecap:butt;stroke-linejoin:miter;stroke-miterlimit:4;stroke-dasharray:none;stroke-opacity:1" />
  <path
     d="M -1.4211322,1.6093064 C -1.3789451,1.6168587 -1.3471743,1.6296191 -1.3258197,1.6475876 C -1.2966534,1.672067 -1.2820702,1.7069628 -1.2820697,1.7522751 C -1.2820702,1.7999315 -1.2979556,1.8369106 -1.3297258,1.8632126 C -1.3482159,1.8783168 -1.3687887,1.8880824 -1.3914447,1.8925095 C -1.4096742,1.8961553 -1.4295961,1.8979782 -1.4512103,1.8979782 L -1.7391009,1.8979782 L -1.7391009,1.8581345 L -1.7234759,1.8581345 C -1.7000385,1.8581345 -1.6838926,1.8539679 -1.6750384,1.8456345 C -1.6708719,1.8414679 -1.6680073,1.8350877 -1.6664447,1.8264939 C -1.665924,1.8233689 -1.6656635,1.8145148 -1.6656634,1.7999314 L -1.6656634,1.462822 C -1.6656635,1.4456349 -1.6667052,1.4339162 -1.6687884,1.4276657 C -1.6737364,1.4120412 -1.6919656,1.4043589 -1.7234759,1.4046189 L -1.7391009,1.4046189 L -1.7391009,1.3647751 L -1.4457416,1.3647751 C -1.4038148,1.3647756 -1.3700908,1.3785777 -1.3445697,1.4061814 C -1.3216535,1.4314422 -1.3101951,1.4611297 -1.3101947,1.4952439 C -1.3101951,1.5233692 -1.3185285,1.5477182 -1.3351947,1.5682907 C -1.3484764,1.5849577 -1.3650127,1.5965462 -1.3848041,1.6030564 C -1.3931378,1.6056608 -1.4052471,1.6077441 -1.4211322,1.6093064 L -1.4211322,1.6093064 z M -1.5500384,1.412822 L -1.5500384,1.6026657 L -1.5254291,1.6026657 C -1.5009501,1.602666 -1.4832418,1.6007129 -1.472304,1.5968064 C -1.4418356,1.5858692 -1.4266013,1.554489 -1.4266009,1.5026657 C -1.4266013,1.4664682 -1.4364971,1.4412079 -1.4562884,1.4268845 C -1.4672262,1.4190725 -1.4814189,1.4146454 -1.4988666,1.4136032 C -1.5066793,1.4130829 -1.5186584,1.4128225 -1.5348041,1.412822 L -1.5500384,1.412822 z M -1.5500384,1.6432907 L -1.5500384,1.8042282 C -1.5500387,1.8266241 -1.5479553,1.8414679 -1.5437884,1.8487595 C -1.5375387,1.8599574 -1.5228251,1.8655564 -1.4996478,1.8655564 C -1.4772523,1.8655564 -1.4605856,1.862822 -1.4496478,1.8573532 C -1.4199607,1.8425095 -1.4051169,1.8082648 -1.4051166,1.7546189 C -1.4051169,1.7106086 -1.4169659,1.6792285 -1.4406634,1.6604782 C -1.4516013,1.6521451 -1.4642314,1.6469368 -1.4785541,1.6448532 C -1.4855856,1.6438118 -1.5000387,1.643291 -1.5219134,1.6432907 L -1.5500384,1.6432907 z M -1.1336322,1.7729782 C -1.1159239,1.7729784 -1.1004292,1.7792284 -1.0871477,1.7917282 C -1.0725646,1.8055304 -1.0652729,1.8224575 -1.0652727,1.8425095 C -1.0652729,1.8633429 -1.0726948,1.8804001 -1.0875383,1.8936814 C -1.1005594,1.9054001 -1.1161844,1.9112595 -1.1344133,1.9112595 C -1.1523823,1.9112595 -1.1680071,1.9054001 -1.1812883,1.8936814 C -1.1961322,1.8804001 -1.2035541,1.8634731 -1.203554,1.8429001 C -1.2035541,1.8223273 -1.1962624,1.80527 -1.181679,1.7917282 C -1.1681375,1.7792284 -1.1521218,1.7729784 -1.1336322,1.7729782 L -1.1336322,1.7729782 z M -0.4258196,1.3561814 L -0.4258196,1.5116501 L -0.45902272,1.5116501 C -0.463971,1.494463 -0.46839808,1.4811818 -0.47230397,1.4718064 C -0.48324181,1.4442026 -0.50264283,1.4234995 -0.5305071,1.409697 C -0.55108029,1.3995412 -0.57399693,1.3944631 -0.5992571,1.3944626 C -0.62321563,1.3944631 -0.64209582,1.3998016 -0.65589773,1.4104782 C -0.67152288,1.4227183 -0.67933537,1.4383433 -0.67933523,1.4573532 C -0.67933537,1.4800099 -0.66488226,1.501364 -0.63597585,1.5214157 C -0.61983022,1.532614 -0.59313754,1.5469369 -0.55589773,1.5643845 C -0.51501261,1.5833952 -0.48506473,1.5998014 -0.46605397,1.6136032 C -0.42152312,1.6461556 -0.39925752,1.6900357 -0.3992571,1.7452439 C -0.39925752,1.7845669 -0.41071584,1.8194627 -0.4336321,1.8499314 C -0.46774704,1.8955043 -0.51813761,1.9182907 -0.58480398,1.9182907 C -0.62412709,1.9182907 -0.65772081,1.909697 -0.68558523,1.8925095 C -0.69626244,1.8859991 -0.71071555,1.8757126 -0.7289446,1.8616501 L -0.7445696,1.9007126 L -0.78246023,1.9007126 L -0.77542898,1.7225876 L -0.7445696,1.7225876 C -0.73545511,1.7572232 -0.72386658,1.7836554 -0.70980398,1.8018845 C -0.67751245,1.8432908 -0.63753854,1.8639939 -0.5898821,1.8639939 C -0.56331986,1.8639939 -0.54157509,1.8573533 -0.52464773,1.844072 C -0.50355429,1.8274054 -0.49300743,1.8055304 -0.4930071,1.778447 C -0.49300743,1.758395 -0.50003867,1.7409471 -0.51410085,1.7261032 C -0.52503865,1.7146451 -0.54743446,1.7003222 -0.58128835,1.6831345 C -0.59066358,1.6784472 -0.61527293,1.6667285 -0.65511648,1.6479782 C -0.68844994,1.6320931 -0.71462179,1.615166 -0.7336321,1.597197 C -0.75993425,1.5719369 -0.77308528,1.5383432 -0.77308523,1.4964157 C -0.77308528,1.4552703 -0.75902279,1.420635 -0.73089773,1.3925095 C -0.69938743,1.3604788 -0.65706977,1.3444632 -0.6039446,1.3444626 C -0.55342403,1.3444632 -0.50967408,1.3586559 -0.4726946,1.3870407 L -0.45902272,1.3561814 L -0.4258196,1.3561814 z M -0.25238209,1.7729782 C -0.23467389,1.7729784 -0.21917911,1.7792284 -0.20589772,1.7917282 C -0.19131456,1.8055304 -0.1840229,1.8224575 -0.18402271,1.8425095 C -0.1840229,1.8633429 -0.19144476,1.8804001 -0.20628834,1.8936814 C -0.21930932,1.9054001 -0.2349343,1.9112595 -0.25316334,1.9112595 C -0.27113218,1.9112595 -0.28675717,1.9054001 -0.30003834,1.8936814 C -0.31488214,1.8804001 -0.32230401,1.8634731 -0.32230397,1.8429001 C -0.32230401,1.8223273 -0.31501235,1.80527 -0.30042897,1.7917282 C -0.28688738,1.7792284 -0.27087177,1.7729784 -0.25238209,1.7729782 L -0.25238209,1.7729782 z M 0.36910224,1.3561814 L 0.55035224,1.8014939 C 0.56050799,1.8262335 0.56949236,1.8417283 0.57730537,1.8479782 C 0.58563818,1.8547491 0.5987892,1.8581345 0.61675849,1.8581345 L 0.63472724,1.8581345 L 0.63472724,1.8979782 L 0.37613349,1.8979782 L 0.37613349,1.8581345 L 0.41246162,1.8581345 C 0.42079459,1.8581345 0.42743521,1.8564418 0.43238349,1.8530564 C 0.43811228,1.8491502 0.44097686,1.8438116 0.44097724,1.8370407 C 0.44097686,1.8323533 0.43928415,1.8255825 0.43589912,1.8167282 L 0.39683661,1.7202439 L 0.23394599,1.7202439 L 0.19683661,1.8167282 C 0.19345106,1.8255825 0.19175836,1.8323533 0.19175849,1.8370407 C 0.19175836,1.8453741 0.19488335,1.8513637 0.20113349,1.8550095 C 0.20451876,1.8570929 0.21207084,1.8581345 0.22378974,1.8581345 L 0.25933661,1.8581345 L 0.25933661,1.8979782 L 0.05464911,1.8979782 L 0.05464911,1.8581345 C 0.07157618,1.8583949 0.08498763,1.8568324 0.09488349,1.853447 C 0.11285218,1.8474575 0.12756571,1.8301398 0.13902411,1.8014939 L 0.31793036,1.3561814 L 0.36910224,1.3561814 z M 0.38043036,1.6811814 L 0.31519599,1.5139939 L 0.24839911,1.6811814 L 0.38043036,1.6811814 z M 0.741368,1.7729782 C 0.75907621,1.7729784 0.77457098,1.7792284 0.78785238,1.7917282 C 0.80243554,1.8055304 0.8097272,1.8224575 0.80972738,1.8425095 C 0.8097272,1.8633429 0.80230533,1.8804001 0.78746176,1.8936814 C 0.77444078,1.9054001 0.75881579,1.9112595 0.74058675,1.9112595 C 0.72261791,1.9112595 0.70699293,1.9054001 0.69371175,1.8936814 C 0.67886795,1.8804001 0.67144609,1.8634731 0.67144613,1.8429001 C 0.67144609,1.8223273 0.67873775,1.80527 0.69332113,1.7917282 C 0.70686272,1.7792284 0.72287833,1.7729784 0.741368,1.7729782 L 0.741368,1.7729782 z M 1.5921493,1.3573532 C 1.5926695,1.4039683 1.5963154,1.4685516 1.6030867,1.5511032 L 1.6038679,1.5589157 L 1.562071,1.5589157 C 1.5532165,1.5245411 1.5399352,1.4947234 1.5222274,1.4694626 C 1.506081,1.446286 1.4857685,1.428187 1.4612899,1.4151657 C 1.4365499,1.401885 1.4103781,1.3952444 1.3827742,1.3952439 C 1.3267844,1.3952444 1.2823833,1.4198537 1.249571,1.469072 C 1.2230085,1.5086557 1.2097271,1.5636036 1.2097273,1.6339157 C 1.2097271,1.6836555 1.2176699,1.7277961 1.2335554,1.7663376 C 1.2481385,1.8012335 1.2709251,1.827145 1.3019148,1.844072 C 1.3258728,1.8573533 1.3528259,1.8639939 1.3827742,1.8639939 C 1.4351175,1.8639939 1.4814718,1.8468064 1.5218368,1.8124314 C 1.5457945,1.792119 1.5653257,1.7672492 1.5804304,1.737822 L 1.6202743,1.7671189 C 1.6043882,1.7999315 1.5845965,1.827145 1.5608993,1.8487595 C 1.5101175,1.8948532 1.4463154,1.9179001 1.3694929,1.9179001 C 1.2913678,1.9179001 1.2261335,1.8949834 1.1737898,1.8491501 C 1.1133731,1.7960252 1.0831648,1.7251919 1.0831648,1.6366501 C 1.0831648,1.5530567 1.1105086,1.4840464 1.1651961,1.4296189 C 1.2222271,1.373109 1.2933208,1.3448538 1.3784774,1.3448532 C 1.4417582,1.3448538 1.4976175,1.3615204 1.5460554,1.3948532 L 1.562071,1.3573532 L 1.5921493,1.3573532 z M 1.7507428,1.7729782 C 1.768451,1.7729784 1.7839459,1.7792284 1.7972272,1.7917282 C 1.8118104,1.8055304 1.819102,1.8224575 1.8191023,1.8425095 C 1.819102,1.8633429 1.8116801,1.8804001 1.7968366,1.8936814 C 1.7838156,1.9054001 1.7681906,1.9112595 1.7499616,1.9112595 C 1.7319928,1.9112595 1.7163678,1.9054001 1.7030866,1.8936814 C 1.6882428,1.8804001 1.6808209,1.8634731 1.6808209,1.8429001 C 1.6808209,1.8223273 1.6881126,1.80527 1.702696,1.7917282 C 1.7162376,1.7792284 1.7322532,1.7729784 1.7507428,1.7729782 L 1.7507428,1.7729782 z"
     id="text4397"
     style="fill:#000000" />
</svg>
