<?xml version="1.0" encoding="UTF-8" standalone="no"?>
<!-- Created with Sodipodi ("http://www.sodipodi.com/") -->
<!--



-->
<svg
   xmlns:dc="http://purl.org/dc/elements/1.1/"
   xmlns:cc="http://creativecommons.org/ns#"
   xmlns:rdf="http://www.w3.org/1999/02/22-rdf-syntax-ns#"
   xmlns:svg="http://www.w3.org/2000/svg"
   xmlns="http://www.w3.org/2000/svg"
   xmlns:sodipodi="http://sodipodi.sourceforge.net/DTD/sodipodi-0.dtd"
   xmlns:inkscape="http://www.inkscape.org/namespaces/inkscape"
   height="500"
   id="svg678"
   sodipodi:docbase="D:\Kuvat\Wikipedia"
   sodipodi:docname="Flag of Eritrea 1993.svg"
   sodipodi:version="0.32"
   width="750"
   inkscape:version="0.46"
   version="1.0"
   inkscape:output_extension="org.inkscape.output.svg.inkscape">
  <metadata
     id="metadata1778">
    <rdf:RDF>
      <cc:Work
         rdf:about="">
        <dc:title> eritrea</dc:title>
        <dc:description />
        <dc:subject>
          <rdf:Bag>
            <rdf:li />
            <rdf:li>united_nations_member</rdf:li>
            <rdf:li>flag</rdf:li>
            <rdf:li>africa</rdf:li>
            <rdf:li>sign</rdf:li>
          </rdf:Bag>
        </dc:subject>
        <dc:publisher>
          <cc:Agent
             rdf:about="http://www.openclipart.org">
            <dc:title> Andrew Duhan</dc:title>
          </cc:Agent>
        </dc:publisher>
        <dc:creator>
          <cc:Agent>
            <dc:title>Andrew Duhan</dc:title>
          </cc:Agent>
        </dc:creator>
        <dc:rights>
          <cc:Agent>
            <dc:title> Andrew Duhan</dc:title>
          </cc:Agent>
        </dc:rights>
        <dc:date />
        <dc:format>image/svg+xml</dc:format>
        <dc:type
           rdf:resource="http://purl.org/dc/dcmitype/StillImage" />
        <cc:license
           rdf:resource="http://web.resource.org/cc/PublicDomain" />
        <dc:language>en</dc:language>
      </cc:Work>
      <cc:License
         rdf:about="http://web.resource.org/cc/PublicDomain">
        <cc:permits
           rdf:resource="http://web.resource.org/cc/Reproduction" />
        <cc:permits
           rdf:resource="http://web.resource.org/cc/Distribution" />
        <cc:permits
           rdf:resource="http://web.resource.org/cc/DerivativeWorks" />
      </cc:License>
    </rdf:RDF>
  </metadata>
  <defs
     id="defs680">
    <inkscape:perspective
       sodipodi:type="inkscape:persp3d"
       inkscape:vp_x="0 : 250 : 1"
       inkscape:vp_y="0 : 1000 : 0"
       inkscape:vp_z="1000 : 250 : 1"
       inkscape:persp3d-origin="500 : 166.66667 : 1"
       id="perspective2441" />
  </defs>
  <sodipodi:namedview
     id="base"
     inkscape:zoom="0.64379276"
     inkscape:cx="472.04375"
     inkscape:cy="241.16671"
     inkscape:window-width="1024"
     inkscape:window-height="712"
     inkscape:window-x="-4"
     inkscape:window-y="-4"
     inkscape:current-layer="svg678"
     showgrid="false" />
  <rect
     height="500"
     id="rect686"
     style="font-size:12px;fill:#ea0437;fill-opacity:1;fill-rule:evenodd;stroke-width:1pt"
     width="750"
     x="0"
     y="0" />
  <path
     d="M 176.24958,369.16163 C 165.43939,372.1465 159.24179,380.53339 159.4005,388.44622 L 212.61117,388.23259 C 213.08931,379.72971 206.09411,371.86571 195.44466,368.76894 C 247.54235,367.69261 292.80154,348.1781 301.02566,335.65674 C 292.88699,332.12456 283.47666,337.80942 276.76835,336.50112 C 292.69573,329.1397 340.41483,298.25342 332.65664,265.14122 C 326.62587,283.53259 308.35658,298.74987 300.57602,302.83549 C 318.40174,275.76829 342.7425,247.58813 321.62466,225.7663 C 322.69083,238.41379 313.58771,252.33298 309.56722,253.37878 C 319.90739,224.77949 329.7735,188.87165 307.36978,165.2003 C 310.3119,173.75608 309.12365,197.89133 305.07262,198.97581 C 303.82538,179.52845 300.50683,138.62345 280.02586,139.20537 C 286.53069,144.99604 289.37718,160.80134 289.52165,176.76536 C 284.85413,165.82901 279.54974,157.59471 268.20443,149.51911 C 259.02603,131.91719 242.69578,117.33268 226.36349,106.88465 C 228.19672,119.69696 229.71459,129.8052 247.60339,143.09362 C 238.27648,142.51374 228.95158,124.83247 218.98374,124.34211 C 211.05464,123.95959 204.83262,131.52653 191.87586,127.17234 C 193.31029,131.44921 199.3553,133.34349 200.63102,136.5074 C 197.85574,138.42406 191.26749,136.2083 185.79016,133.3557 C 193.32453,143.61857 204.99946,149.65339 214.91034,147.61669 C 226.69717,145.35007 239.33451,146.54849 251.38789,153.40736 C 248.30942,154.9883 236.32726,154.97812 228.63826,154.01573 C 235.62734,161.0923 240.31522,165.78222 252.46829,165.7049 C 263.32325,165.63368 269.01422,159.91423 271.80171,163.45659 C 278.60973,171.52405 283.19179,179.58744 288.88683,189.08528 C 276.30648,190.47496 280.0991,174.85685 266.08837,166.86874 C 258.21624,183.16237 275.14264,202.47747 286.66498,210.50627 C 286.81962,222.75294 288.61013,232.99955 293.80462,242.32443 C 297.30629,248.89845 301.83344,255.6271 300.12635,270.4639 C 293.22882,265.4403 286.48797,248.49762 288.96822,235.04846 C 280.33512,237.40258 276.9596,252.58323 281.02894,260.22546 C 284.06874,266.04258 286.0973,277.17629 282.59157,282.15309 C 279.17536,286.7901 278.81726,286.27125 278.86202,296.22282 C 278.9841,302.17829 275.65742,309.22029 270.23909,314.12994 C 271.37037,309.93445 272.66035,302.71544 271.40699,298.20254 C 267.12402,305.46835 256.37893,312.98645 252.99528,320.79755 C 249.67266,328.62696 248.8303,342.18803 232.75032,345.31531 C 212.06384,349.42128 204.92418,353.00637 191.61338,358.45317 C 190.13621,348.3429 194.55754,327.25966 203.0116,328.46214 C 211.26624,329.93118 236.29267,319.83922 227.34013,298.75598 C 225.572,305.40122 219.6735,311.8857 213.29685,312.17259 C 220.18624,303.23429 232.48174,293.97858 226.49371,279.00138 C 223.16499,285.36786 217.92979,293.00805 209.99051,297.3073 C 218.50152,280.99739 210.97936,276.11826 200.87315,289.55114 C 197.05611,294.73344 194.75083,305.11838 192.3255,318.30712 C 188.35587,307.58034 188.61834,293.45974 183.91419,281.99438 C 179.00046,269.5951 190.4353,266.32133 195.81701,267.31627 C 208.99352,270.83422 231.01474,270.83218 229.37886,249.06326 C 223.6879,256.42672 213.70784,258.70149 202.93021,256.0503 C 215.03445,247.21171 224.5913,230.58643 211.10347,221.90653 C 210.65381,231.11138 203.53043,241.43122 194.02038,246.18421 C 191.79446,238.41787 191.79446,230.17542 193.70298,221.13946 C 188.3925,226.72869 184.51442,238.35886 181.42986,251.58014 C 181.1979,238.51146 183.67003,229.09501 185.50326,222.06523 C 188.28262,211.79626 195.19032,218.47811 205.7645,219.23501 C 215.94802,219.81285 229.96893,214.18496 227.28926,200.37566 C 223.81202,205.83875 216.6744,207.96498 209.38214,207.38714 C 218.16174,202.06851 233.45838,192.61747 225.06944,178.07976 C 221.54539,183.58557 220.40394,188.29582 210.20414,189.98461 C 212.87566,183.8399 213.31923,175.15187 221.23613,171.70922 C 207.11349,168.8973 199.02771,178.16522 194.91768,192.68054 C 193.25128,182.61707 191.26749,178.91194 190.87275,171.55051 C 198.50683,163.07203 199.30646,146.48542 182.77885,142.77621 C 181.79813,151.332 182.08909,153.37074 183.96912,160.33744 C 176.21093,155.72892 165.27662,153.18558 157.99658,159.70263 C 162.92861,165.02533 170.56269,169.71117 182.32918,163.90626 C 179.54982,172.99918 172.32064,171.44267 162.38739,167.97558 C 168.45885,179.3799 176.12141,181.40645 184.57749,180.09205 C 189.00493,191.76494 189.20026,200.63406 176.26179,217.63373 C 176.85998,207.06973 176.1092,199.19962 167.71619,190.65808 C 160.52363,183.61406 154.67803,190.95922 165.91754,206.62006 C 159.09936,201.5985 151.38187,191.40685 149.05827,181.21722 C 146.80997,193.80571 148.83446,208.64253 155.8032,216.96026 C 152.50704,220.48226 148.75917,216.58587 143.2147,207.96904 C 145.31245,235.54491 157.0769,240.86557 172.88832,234.71885 C 173.33798,249.85474 173.33798,263.86955 174.2373,282.15309 C 165.01822,268.8911 153.33107,258.99854 146.80997,256.52642 C 144.7875,263.94483 152.43176,273.6095 156.70253,279.00544 C 150.18344,277.65646 136.02011,266.86661 136.02011,266.86661 C 134.59584,279.15602 150.48458,290.5461 160.74949,295.6409 C 148.68592,295.11595 143.36323,290.5461 135.57045,283.0524 C 135.72102,317.14736 172.5119,311.22646 179.40739,305.98109 C 180.30672,322.7671 181.58856,342.17174 182.48789,358.95778 C 172.08666,357.14285 172.90459,354.01555 164.00494,353.19152 C 139.30406,352.22912 119.71021,323.54029 113.22165,302.4367 C 111.35992,305.90987 112.83709,309.54379 111.13408,313.8105 C 107.12374,303.452 102.00045,290.07405 95.12937,283.84797 C 96.87918,289.88686 97.06434,296.02342 96.45597,307.30973 C 94.09779,299.99714 91.90442,297.75493 91.74571,289.17066 C 91.89628,282.58037 98.10405,277.7175 97.7602,268.44755 C 97.50586,261.68024 91.33268,247.0123 90.42521,235.65682 C 87.43628,247.34397 85.56032,259.66389 80.98232,266.89917 C 83.25708,254.41851 82.52785,245.80576 86.37622,237.40664 C 90.82197,228.56397 94.60239,220.66946 91.64195,211.74539 C 88.80358,215.19213 89.78022,218.32347 82.64891,226.69818 C 81.09992,217.59099 91.86983,203.01462 102.32192,197.15478 C 109.69354,193.27059 118.98586,179.37787 112.93272,169.85563 C 106.00061,174.83446 102.88756,181.56107 93.0947,193.05493 C 100.07972,165.74966 118.22896,158.60594 139.9572,158.51235 C 144.76512,158.48996 154.45829,156.75439 157.17864,150.39198 C 151.05429,152.75627 143.8129,153.0574 137.3691,151.76742 C 142.05901,144.8821 151.9353,145.77735 161.1381,145.73666 C 168.3571,145.70207 179.62714,144.72339 184.18277,134.44221 C 175.37672,138.25721 161.6427,139.05074 152.99536,136.34869 C 166.74768,129.22328 188.28872,128.45621 199.33698,119.10487 C 186.74442,109.70674 155.23349,121.29418 135.33037,134.94477 C 140.89315,129.8581 149.68494,120.83434 154.5356,113.55023 C 143.65013,108.3313 116.12106,138.82896 106.63746,156.94972 C 97.62998,162.03638 94.02658,170.01026 90.52898,175.57509 C 95.32877,159.35673 95.83743,147.58821 99.84166,134.23264 C 68.96475,144.86175 81.79903,201.91184 75.08279,215.5604 C 75.87326,200.49163 75.23315,181.13379 69.02924,171.15171 C 59.51879,178.40734 58.75132,221.11098 67.68026,256.66275 C 64.45592,247.14864 58.37022,238.2673 56.41776,226.688 C 42.342322,252.35942 64.66895,282.64547 83.33846,306.5691 C 69.28337,299.24837 55.38658,283.50206 46.25824,270.30114 C 48.77778,316.24803 96.75914,325.7947 104.20806,337.0871 C 94.09779,332.38093 74.76925,323.06824 66.5675,332.82651 C 79.9194,335.90904 90.56968,339.47174 99.15191,345.0976 C 111.60408,360.64451 135.18386,367.44437 176.24958,369.16163 z"
     id="path687"
     sodipodi:nodetypes="cccccccccccccccccscccsccsccccsccscsccsscsccccscsscccccccsccccccccccccccccccccccccccccscccccsccsccsccsccscccccccccccccccccc"
     style="fill:#ffc726;fill-opacity:1;fill-rule:evenodd;stroke:none;stroke-width:1pt;stroke-linecap:butt;stroke-linejoin:miter;stroke-opacity:1" />
  <path
     d="M 1.9150543e-09,499.99986 L 750,499.68666 L 749.9532,249.99986 L 1.9150543e-09,499.99986 z"
     id="path684"
     style="fill:#4189dd;fill-opacity:1;fill-rule:evenodd;stroke:none;stroke-width:1pt;stroke-linecap:butt;stroke-linejoin:miter;stroke-opacity:1" />
  <path
     d="M 1.9150543e-09,0.00033999558 L 749.9997,0.31354 L 749.9529,250.00023 L 1.9150543e-09,0.00033999558 z"
     id="path685"
     style="fill:#12ad2b;fill-opacity:1;fill-rule:evenodd;stroke:none;stroke-width:1pt;stroke-linecap:butt;stroke-linejoin:miter;stroke-opacity:1" />
</svg>
