<?xml version="1.0" encoding="UTF-8" standalone="no"?>
<!-- Created with Inkscape (http://www.inkscape.org/) -->
<svg
   xmlns:dc="http://purl.org/dc/elements/1.1/"
   xmlns:cc="http://creativecommons.org/ns#"
   xmlns:rdf="http://www.w3.org/1999/02/22-rdf-syntax-ns#"
   xmlns:svg="http://www.w3.org/2000/svg"
   xmlns="http://www.w3.org/2000/svg"
   xmlns:xlink="http://www.w3.org/1999/xlink"
   xmlns:sodipodi="http://sodipodi.sourceforge.net/DTD/sodipodi-0.dtd"
   xmlns:inkscape="http://www.inkscape.org/namespaces/inkscape"
   width="9000"
   height="6000"
   id="svg2"
   sodipodi:version="0.32"
   inkscape:version="0.46"
   version="1.0"
   sodipodi:docbase="D:\Flag\SVG"
   sodipodi:docname="Flag_of_Thailand_1855.svg"
   inkscape:output_extension="org.inkscape.output.svg.inkscape">
  <defs
     id="defs4">
    <inkscape:perspective
       sodipodi:type="inkscape:persp3d"
       inkscape:vp_x="0 : 3000 : 1"
       inkscape:vp_y="0 : 1000 : 0"
       inkscape:vp_z="9000 : 3000 : 1"
       inkscape:persp3d-origin="4500 : 2000 : 1"
       id="perspective84" />
    <linearGradient
       id="linearGradient2601">
      <stop
         style="stop-color:#7b7342;stop-opacity:1;"
         offset="0"
         id="stop2605" />
      <stop
         style="stop-color:#fbeb86;stop-opacity:1;"
         offset="1"
         id="stop2607" />
    </linearGradient>
    <linearGradient
       id="linearGradient2584">
      <stop
         style="stop-color:#fbeb86;stop-opacity:1;"
         offset="0"
         id="stop2586" />
      <stop
         id="stop2588"
         offset="0.75"
         style="stop-color:#7b7342;stop-opacity:1;" />
      <stop
         id="stop2590"
         offset="1"
         style="stop-color:#fbeb86;stop-opacity:1;" />
    </linearGradient>
    <linearGradient
       id="linearGradient2575">
      <stop
         style="stop-color:#fbeb86;stop-opacity:1;"
         offset="0"
         id="stop2577" />
      <stop
         style="stop-color:#fbeb86;stop-opacity:0;"
         offset="1"
         id="stop2579" />
    </linearGradient>
    <linearGradient
       inkscape:collect="always"
       xlink:href="#linearGradient2550"
       id="linearGradient2556"
       x1="133.9362"
       y1="166.72597"
       x2="267.61923"
       y2="166.72597"
       gradientUnits="userSpaceOnUse" />
    <linearGradient
       y2="167.4341"
       x2="224.32999"
       y1="164.58865"
       x1="224.32999"
       gradientUnits="userSpaceOnUse"
       id="linearGradient2599"
       xlink:href="#linearGradient2550"
       inkscape:collect="always" />
    <linearGradient
       inkscape:collect="always"
       xlink:href="#linearGradient2601"
       id="linearGradient2581"
       x1="209.37079"
       y1="155.96468"
       x2="209.37079"
       y2="164.53145"
       gradientUnits="userSpaceOnUse" />
    <linearGradient
       inkscape:collect="always"
       xlink:href="#linearGradient2584"
       id="linearGradient2692"
       x1="210.84088"
       y1="168.30154"
       x2="210.84088"
       y2="164.75606"
       gradientUnits="userSpaceOnUse" />
    <linearGradient
       inkscape:collect="always"
       xlink:href="#linearGradient2601"
       id="linearGradient6769"
       gradientUnits="userSpaceOnUse"
       x1="209.37079"
       y1="155.96468"
       x2="209.37079"
       y2="164.53145"
       gradientTransform="translate(0,-5744)" />
    <linearGradient
       inkscape:collect="always"
       xlink:href="#linearGradient2584"
       id="linearGradient6771"
       gradientUnits="userSpaceOnUse"
       x1="210.84088"
       y1="168.30154"
       x2="210.84088"
       y2="164.75606"
       gradientTransform="translate(0,-5744)" />
    <linearGradient
       y2="164.75606"
       x2="210.84088"
       y1="168.30154"
       x1="210.84088"
       gradientTransform="matrix(4.266667e-2,0,0,4.266667e-2,0,3.9388019e-5)"
       gradientUnits="userSpaceOnUse"
       id="linearGradient6964"
       xlink:href="#linearGradient2584"
       inkscape:collect="always" />
    <linearGradient
       y2="164.53145"
       x2="209.37079"
       y1="155.96468"
       x1="209.37079"
       gradientTransform="matrix(4.266667e-2,0,0,4.266667e-2,0,3.9388019e-5)"
       gradientUnits="userSpaceOnUse"
       id="linearGradient6962"
       xlink:href="#linearGradient2601"
       inkscape:collect="always" />
    <linearGradient
       gradientTransform="translate(0,-5744)"
       y2="164.75606"
       x2="210.84088"
       y1="168.30154"
       x1="210.84088"
       gradientUnits="userSpaceOnUse"
       id="linearGradient3974"
       xlink:href="#linearGradient2584"
       inkscape:collect="always" />
    <linearGradient
       gradientTransform="translate(0,-5744)"
       y2="164.53145"
       x2="209.37079"
       y1="155.96468"
       x1="209.37079"
       gradientUnits="userSpaceOnUse"
       id="linearGradient3972"
       xlink:href="#linearGradient2601"
       inkscape:collect="always" />
    <linearGradient
       gradientUnits="userSpaceOnUse"
       y2="164.75606"
       x2="210.84088"
       y1="168.30154"
       x1="210.84088"
       id="linearGradient3970"
       xlink:href="#linearGradient2584"
       inkscape:collect="always" />
    <linearGradient
       gradientUnits="userSpaceOnUse"
       y2="164.53145"
       x2="209.37079"
       y1="155.96468"
       x1="209.37079"
       id="linearGradient3968"
       xlink:href="#linearGradient2601"
       inkscape:collect="always" />
    <linearGradient
       inkscape:collect="always"
       xlink:href="#linearGradient2550"
       id="linearGradient3966"
       gradientUnits="userSpaceOnUse"
       x1="224.32999"
       y1="164.58865"
       x2="224.32999"
       y2="167.4341" />
    <linearGradient
       gradientUnits="userSpaceOnUse"
       y2="166.72597"
       x2="267.61923"
       y1="166.72597"
       x1="133.9362"
       id="linearGradient3964"
       xlink:href="#linearGradient2550"
       inkscape:collect="always" />
    <linearGradient
       id="linearGradient3958">
      <stop
         id="stop3960"
         offset="0"
         style="stop-color:#fbeb86;stop-opacity:1;" />
      <stop
         id="stop3962"
         offset="1"
         style="stop-color:#fbeb86;stop-opacity:0;" />
    </linearGradient>
    <linearGradient
       id="linearGradient3950">
      <stop
         id="stop3952"
         offset="0"
         style="stop-color:#fbeb86;stop-opacity:1;" />
      <stop
         style="stop-color:#7b7342;stop-opacity:1;"
         offset="0.75"
         id="stop3954" />
      <stop
         style="stop-color:#fbeb86;stop-opacity:1;"
         offset="1"
         id="stop3956" />
    </linearGradient>
    <linearGradient
       id="linearGradient3944">
      <stop
         id="stop3946"
         offset="0"
         style="stop-color:#7b7342;stop-opacity:1;" />
      <stop
         id="stop3948"
         offset="1"
         style="stop-color:#fbeb86;stop-opacity:1;" />
    </linearGradient>
  </defs>
  <sodipodi:namedview
     id="base"
     pagecolor="#ffffff"
     bordercolor="#666666"
     borderopacity="1.0"
     inkscape:pageopacity="0.0"
     inkscape:pageshadow="2"
     inkscape:zoom="0.050999995"
     inkscape:cx="4500"
     inkscape:cy="3000.0002"
     inkscape:document-units="px"
     inkscape:current-layer="layer1"
     inkscape:window-width="1024"
     inkscape:window-height="746"
     inkscape:window-x="0"
     inkscape:window-y="0"
     showguides="true"
     inkscape:guide-bbox="true"
     showgrid="false" />
  <metadata
     id="metadata7">
    <rdf:RDF>
      <cc:Work
         rdf:about="">
        <dc:format>image/svg+xml</dc:format>
        <dc:type
           rdf:resource="http://purl.org/dc/dcmitype/StillImage" />
      </cc:Work>
    </rdf:RDF>
  </metadata>
  <g
     inkscape:label="Layer 1"
     inkscape:groupmode="layer"
     id="layer1">
    <rect
       style="fill:#ce1126;fill-opacity:1"
       y="-0.00048828125"
       x="0"
       width="9000"
       height="6000.0005"
       id="red stripes" />
    <path
       id="path6100"
       d="M 2573.832,1954.4304 C 2558.4569,1980.7 2537.8521,2008.0281 2515.7494,2022.7501 C 2408.1981,2094.3982 2423.4389,2170.5748 2423.6001,2240.0422 C 2423.7163,2290.0148 2419.2862,2355.9037 2341.6896,2443.6788 C 2156.713,2652.9218 2194.2017,2876.5009 2329.1756,3091.0007 C 2342.6587,3112.4284 2360.1884,3132.5457 2374.6814,3153.5694 C 2414.3038,3107.5139 2454.785,3059.3579 2495.2718,3009.0903 C 2495.0873,3008.8209 2495.4568,3008.2202 2495.2718,3007.9509 C 2439.2221,2926.7029 2542.2189,2886.2246 2645.441,2886.2246 C 2854.9049,2886.2246 2857.043,2783.1703 2857.043,2712.1631 C 2857.043,2540.6827 2901.3929,2554.0322 2951.4675,2554.0322 C 3033.0354,2554.0322 3088.1792,2700.7867 3194.9235,2700.7867 C 3287.4277,2700.7867 3335.9916,2660.9709 3335.9916,2660.9709 C 3431.7791,2987.4622 3587.7839,3339.659 3803.5637,3608.6274 C 3949.404,3794.262 3956.3278,4544.7292 3887.7495,4581.3158 C 3820.9164,4616.9706 3839.5544,4678.2068 3849.0694,4737.1714 L 3841.106,4739.4467 L 4346.2204,4739.4467 C 4346.2204,4589.1647 4308.6785,4444.1795 4308.6782,4269.6011 C 4308.6782,3750.5474 4240.4195,3615.02 4240.4195,3506.2393 C 4240.4195,3243.5252 4565.1969,3311.4382 4831.9948,3358.3455 C 5096.6457,3404.8779 5247.271,3431.1548 5641.9982,3431.1548 C 5641.9982,3431.1548 5722.9104,3527.6927 5934.3729,3751.9708 C 6310.4559,4150.8492 6265.308,4509.606 6219.9219,4535.81 C 6182.1296,4557.6273 6160.0817,4520.9824 6172.1408,4739.4467 L 6714.7975,4739.4467 C 6724.3717,4576.5214 6711.5797,4592.7469 6676.1176,4516.4683 C 6589.2379,4329.5922 6654.9494,4277.0749 6479.305,3938.5446 C 6236.7768,3471.1052 6426.0198,3486.6154 6344.1916,3057.4556 L 6480.7656,3499.953 C 6587.2072,3816.3896 6670.3904,3918.5002 6664.7412,3926.0323 C 6655.1838,3938.7738 6632.8387,3993.1041 6654.5024,4014.7686 C 6671.2758,4031.5401 6691.3715,4061.6432 6720.4857,4076.2014 C 6740.7853,4086.3511 6766.7404,4094.0141 6781.9186,4109.1912 C 6800.782,4128.0561 6821.8406,4160.4928 6843.3514,4182.0005 C 6855.9947,4194.6439 6886.6209,4229.2319 6903.6467,4237.747 C 6924.6551,4248.2497 6943.6622,4243.4334 6976.456,4243.4334 C 7012.4678,4243.4334 7030.1433,4239.3997 7059.5041,4232.057 C 7066.8089,4230.2331 7126.6247,4229.13 7126.625,4214.994 C 7126.625,4181.7385 7122.7378,4173.2999 7099.3215,4159.2477 C 7072.9118,4143.4044 7072.1226,4128.7406 7059.5041,4103.5049 C 7044.4584,4073.4129 7028.9903,4066.5796 6999.2088,4059.1349 C 6959.8033,4049.2838 6961.3808,4038.3734 6937.7759,4014.7686 C 6916.3027,3993.2934 6884.8079,3982.645 6876.3431,3948.7851 C 6871.4532,3929.225 6860.9487,3899.2603 6843.3514,3881.6623 C 6802.0464,3840.3576 6743.0386,3843.2694 6699.1557,3843.2694 C 6556.1262,3636.7504 6466.832,3146.9038 6422.4227,2938.5563 C 6286.9814,2303.1315 6127.9102,1390.2195 4733.0197,1390.2195 C 4495.158,1390.2195 4339.8172,1427.7636 4200.6018,1427.7636 C 4016.5064,1427.7636 3720.6197,1321.4692 3523.703,1489.1964 C 3523.703,1500.5874 3478.5525,1419.7249 3438.7809,1384.6774 C 3357.4328,1312.9918 3263.5823,1282.836 3205.0058,1272.2024 C 3145.2369,1260.1787 3098.7222,1258.0421 3057.1789,1263.1442 C 2997.8013,1270.4364 2955.3524,1286.8715 2885.1495,1349.0522 C 2767.1579,1481.0557 2709.9814,1598.5934 2663.4754,1748.531 C 2650.1503,1823.661 2571.9392,1978.2672 2566.9435,1969.2827 C 2567.115,1969.0132 2566.7726,1968.4163 2566.9435,1968.1432 C 2568.6205,1965.4783 2572.2175,1957.2046 2573.832,1954.4304 z"
       style="fill:#ffffff;fill-opacity:1;fill-rule:nonzero;stroke:#000000;stroke-width:36.40464401;stroke-linecap:butt;stroke-linejoin:miter;stroke-miterlimit:4;stroke-dasharray:none;stroke-opacity:1"
       sodipodi:nodetypes="ccccccccsssscccccccsccccccccccscccccscsccccscccsscscscccsc" />
    <path
       style="fill:#ffffff;fill-opacity:1;fill-rule:evenodd;stroke:#000000;stroke-width:36.40464401px;stroke-linecap:butt;stroke-linejoin:miter;stroke-opacity:1"
       d="M 2322.9883,3089.1478 C 2180.6403,3210.7501 2032.2884,3326.3531 1873.3753,3431.3951 C 2184.0969,3359.1864 2291.9511,3239.2441 2428.0131,3125.9418"
       id="path2773"
       sodipodi:nodetypes="ccc" />
    <path
       id="path6102"
       d="M 3413.3513,2893.0504 C 3381.5982,3033.1355 3326.8904,3291.9107 3326.8904,3419.7784 C 3326.8904,3587.7602 3405.3879,3682.0083 3405.3879,4045.4831 C 3405.3879,4218.9732 3412.079,4456.3096 3316.6516,4551.737 C 3263.9106,4604.4764 3242.903,4702.2411 3254.0811,4739.4467 L 3770.5719,4739.4467 C 3770.5719,4570.3288 3743.0329,4597.1738 3725.0661,4530.1199 C 3667.7362,4316.1627 3707.9389,3860.5367 3769.4343,3564.261 C 3620.6216,3366.806 3501.695,3129.4513 3413.3513,2893.0504 z"
       style="fill:#ffffff;fill-opacity:1;fill-rule:evenodd;stroke:#000000;stroke-width:36.40464401px;stroke-linecap:butt;stroke-linejoin:miter;stroke-opacity:1" />
    <path
       style="fill:#ffffff;fill-opacity:1;fill-rule:evenodd;stroke:#000000;stroke-width:36.40464401;stroke-linecap:butt;stroke-linejoin:miter;stroke-miterlimit:4;stroke-dasharray:none;stroke-opacity:1"
       d="M 2917.3381,2554.0322 C 2906.0207,2555.1899 2895.4885,2559.2927 2886.6217,2567.684 C 2868.8064,2585.3912 2857.043,2625.0832 2857.043,2712.1631 C 2857.043,2741.5635 2856.4153,2776.927 2841.1158,2807.7253 C 2897.415,2734.7485 2954.481,2660.8653 3010.625,2587.0222 L 3009.4874,2576.7851 C 2990.961,2562.7403 2972.1143,2554.0322 2951.4675,2554.0322 C 2939.7314,2554.0322 2927.9483,2552.9474 2917.3381,2554.0322 z M 2841.1158,2807.7253 C 2840.6831,2808.599 2840.4355,2809.1378 2839.9782,2810.0006 C 2840.4948,2809.3343 2840.5994,2808.3952 2841.1158,2807.7253 z M 2814.95,2841.8547 C 2784.9753,2868.3936 2733.8085,2886.2246 2645.441,2886.2246 C 2626.0868,2886.2246 2606.8503,2887.9284 2588.5587,2890.7752 C 2557.3468,2930.7584 2526.1476,2969.6095 2495.2718,3007.9509 C 2495.2659,3008.049 2495.2948,3008.981 2495.2718,3009.0903 C 2490.2108,3015.3738 2485.5415,3021.0747 2480.4824,3027.2926 C 2479.3014,3028.7488 2478.2497,3030.3906 2477.0694,3031.8432 C 2475.6492,3033.5833 2473.9386,3035.7931 2472.519,3037.5295 C 2471.1016,3039.2734 2469.3845,3040.3437 2467.9684,3042.0801 C 2466.7826,3043.529 2465.7407,3045.1892 2464.5554,3046.6307 C 2462.1997,3049.5176 2460.0823,3052.8632 2457.7295,3055.7319 C 2450.1544,3064.9096 2442.527,3074.007 2434.9765,3083.0354 C 2433.9205,3084.3095 2432.6195,3085.1797 2431.5637,3086.4501 C 2430.0499,3088.2557 2428.5254,3090.3382 2427.0131,3092.1366 C 2425.5136,3093.9385 2423.9605,3096.0319 2422.4625,3097.8267 C 2420.7595,3099.8507 2418.4751,3101.4998 2416.7743,3103.513 C 2412.5423,3108.5697 2408.482,3113.2986 2404.2601,3118.3043 C 2399.2603,3124.1908 2394.4488,3130.6818 2389.4709,3136.5065 C 2388.588,3137.5441 2388.0779,3138.8838 2387.1955,3139.9176 C 2383.1182,3144.6831 2378.7417,3148.8514 2374.6814,3153.5694 C 2193.6633,3363.9773 2023.9886,3523.1893 1879.8058,3554.0205 C 2231.4863,3537.795 2526.8408,3212.2645 2814.95,2841.8547 z"
       id="path2617" />
    <path
       style="fill:#edd1b7;fill-opacity:1;fill-rule:evenodd;stroke:none;stroke-width:1px;stroke-linecap:butt;stroke-linejoin:miter;stroke-opacity:1"
       d="M 3474.7842,3085.3108 L 3564.6583,3770.173 L 3551.7523,4166.6158 C 3551.7523,4166.6158 3542.7272,4488.8942 3632.8981,4671.1312 C 3669.4174,4744.9374 3748.1293,4645.2413 3748.1293,4645.2413 C 3695.2789,4406.07 3696.2322,3830.2225 3750.0943,3567.6722 C 3641.4677,3422.1483 3550.3584,3256.4307 3474.7842,3085.3108 z"
       id="path6064"
       sodipodi:nodetypes="cccsccc" />
    <path
       id="path6104"
       d="M 5000.3664,3386.7884 C 4966.8216,4002.726 5110.7179,4048.4028 5110.7179,4290.0787 C 5110.7175,4583.8096 4983.2696,4475.5203 5003.7792,4739.4467 L 5512.3066,4739.4467 C 5512.3066,4580.8317 5408.7885,4540.1823 5405.3681,4007.9427 C 5403.8241,3767.7266 5446.4605,3583.865 5516.8572,3430.019 C 5290.7665,3426.0837 5152.3597,3411.1795 5000.3664,3386.7884 z"
       style="fill:#ffffff;fill-opacity:1;fill-rule:evenodd;stroke:#000000;stroke-width:36.40464401px;stroke-linecap:butt;stroke-linejoin:miter;stroke-opacity:1" />
    <path
       style="fill:#edd1b7;fill-opacity:1;fill-rule:evenodd;stroke:none;stroke-width:1px;stroke-linecap:butt;stroke-linejoin:miter;stroke-opacity:1"
       d="M 4373.695,1435.0932 C 4373.695,1435.0932 4944.3777,1432.2047 5294.0684,1598.1517 C 5644.7128,1764.5513 5838.4186,1879.3534 6072.1145,2183.0451 L 6322.5802,2603.7831 C 6270.9227,2275.6384 6056.9769,1965.8605 6035.6234,1937.4287 C 5691.3381,1455.9141 5013.3344,1352.0099 4373.695,1435.0932 z"
       id="path5984"
       sodipodi:nodetypes="czcccc" />
    <path
       sodipodi:nodetypes="cscsccsscscccsccccccsccsssssc"
       style="fill:#edd1b7;fill-opacity:1;fill-rule:evenodd;stroke:none;stroke-width:1px;stroke-linecap:butt;stroke-linejoin:miter;stroke-opacity:1"
       d="M 3189.2353,1808.8728 C 3188.2589,1809.1277 3186.6921,1809.8157 3185.8224,1810.0123 C 3185.7233,1810.0123 3184.7929,1810.0159 3184.6848,1810.0123 C 3137.0853,1813.6345 3068.6449,1835.4155 3068.6449,1931.7386 C 3068.6449,2155.4451 3285.4255,2496.3564 3043.6167,2581.3357 C 3054.8873,2591.7438 3065.6358,2603.5425 3076.6085,2614.3256 C 3113.5686,2650.6574 3149.8932,2682.5843 3194.9235,2682.5843 C 3232.2907,2682.5843 3296.5671,2670.4014 3317.835,2662.7527 C 3318.7667,2662.4178 3319.209,2660.8161 3320.1104,2660.4775 C 3320.2169,2660.3501 3321.141,2660.6086 3321.248,2660.4775 C 3324.1411,2657.0263 3326.7557,2653.2001 3330.3492,2650.2405 C 3330.5345,2650.0476 3331.2993,2649.294 3331.4868,2649.101 C 3368.6243,2616.6462 3388.0202,2596.0923 3404.2503,2560.858 C 3404.2655,2560.4831 3404.2354,2560.0973 3404.2503,2559.7186 C 3406.3337,2506.9247 3403.5272,2442.816 3396.2867,2367.4584 L 3370.1209,2280.9975 L 3364.4326,2280.9975 L 3330.3034,2280.9975 L 3321.2022,2280.9975 L 3315.514,2274.1715 C 3203.5056,2137.9817 3160.2008,2016.1719 3167.62,1923.7769 C 3171.3297,1877.5793 3187.8173,1837.9128 3216.5388,1811.1482 C 3216.541,1811.0207 3216.5395,1810.1179 3216.5388,1810.0123 C 3211.3016,1809.5463 3204.577,1808.7345 3197.1988,1808.8728 C 3196.9556,1808.8802 3196.2959,1808.8764 3196.0612,1808.8728 C 3195.142,1808.8401 3193.6086,1808.8582 3192.6482,1808.8728 C 3192.5383,1808.8728 3191.61,1808.8728 3191.5106,1808.8728 C 3191.4021,1808.8693 3190.472,1808.8728 3190.373,1808.8728 C 3190.1994,1808.9165 3189.4305,1808.8219 3189.2353,1808.8728 z"
       id="path5942" />
    <path
       style="fill:#edd1b7;fill-opacity:1;fill-rule:nonzero;stroke:none;stroke-width:1;stroke-linecap:butt;stroke-linejoin:miter;stroke-miterlimit:4;stroke-opacity:1"
       d="M 5384.8905,2865.747 C 5073.5732,2925.9602 4758.5569,2813.4771 4442.9202,2888.4998 C 4185.7938,2949.616 3975.5606,3189.8503 4035.6433,3574.4981 L 4188.4418,4643.9344 L 4328.4975,4661.3206 C 4324.2015,4614.9047 4290.4758,4320.502 4290.4758,4269.6011 C 4290.4758,3752.1418 4222.2171,3622.636 4222.2171,3506.2393 C 4222.2171,3436.8121 4244.8429,3384.9792 4283.6499,3351.5197 C 4322.4569,3318.0638 4375.5054,3303.2399 4434.9567,3298.0521 C 4553.8593,3287.6732 4702.2436,3316.7314 4835.4078,3340.1433 C 5097.4655,3386.217 5245.2706,3412.4465 5630.6218,3412.9526 C 5542.9845,3276.7045 5428.383,3145.4985 5441.7727,2990.8879 L 5384.8905,2865.747 z"
       id="path5922"
       sodipodi:nodetypes="cscccsssssccc" />
    <path
       style="fill:#edd1b7;fill-opacity:1;fill-rule:evenodd;stroke:none;stroke-width:1px;stroke-linecap:butt;stroke-linejoin:miter;stroke-opacity:1"
       d="M 5838.7576,2288.9077 L 5828.1801,2296.4983 C 5947.9478,2997.1312 6005.22,2881.4556 6158.489,3287.8114 C 6244.6808,3672.5124 6452.3278,4308.1266 6625.2492,4719.2038 L 6716.449,4720.9369 C 6732.1689,4566.0029 6599.0522,4316.574 6593.0695,4287.8033 C 6576.8968,4210.0321 6550.5955,4114.6082 6463.378,3946.5099 C 6341.2488,3711.121 6329.0414,3590.8884 6331.5176,3471.0807 C 6347.825,3360.9764 6361.471,3116.3705 6312.0712,3042.0801 C 6312.0005,3041.687 6312.1422,3041.3411 6312.0712,3040.9444 L 5838.7576,2288.9077 z"
       id="path6078"
       sodipodi:nodetypes="ccccccccccc" />
    <path
       style="fill:#edd1b7;fill-opacity:1;fill-rule:evenodd;stroke:none;stroke-width:1px;stroke-linecap:butt;stroke-linejoin:miter;stroke-opacity:1"
       d="M 5018.5686,3407.2661 C 5015.2212,3476.839 5014.4534,3539.0837 5015.1556,3594.9758 C 5269.5671,3661.3196 5340.1116,4488.9187 5340.1116,4727.7112 L 5505.7282,4725.8717 C 5490.7714,4635.4279 5388.2531,4177.1478 5387.1657,4007.9427 C 5385.6822,3777.1554 5426.3695,3598.7362 5491.829,3447.0818 C 5292.1711,3442.6187 5156.52,3428.7448 5018.5686,3407.2661 z"
       id="path5912"
       sodipodi:nodetypes="ccccccc" />
    <path
       style="fill:#edd1b7;fill-opacity:1;fill-rule:evenodd;stroke:none;stroke-width:1px;stroke-linecap:butt;stroke-linejoin:miter;stroke-opacity:1"
       d="M 2256.3663,2618.8762 C 2256.0808,2619.6879 2255.5083,2620.3433 2255.2287,2621.1514 C 2254.9513,2621.956 2254.3629,2622.6258 2254.0911,2623.4268 C 2253.8326,2624.1913 2253.2068,2624.9375 2252.9533,2625.702 C 2251.9504,2628.7163 2251.6031,2631.789 2250.6781,2634.8032 C 2250.3527,2635.8772 2249.8556,2637.144 2249.5405,2638.2179 C 2246.2895,2649.1611 2243.8344,2660.2282 2241.5769,2671.2079 C 2240.85,2674.7464 2239.9286,2677.9099 2239.3017,2681.4486 C 2239.0348,2682.9885 2238.412,2684.4591 2238.1641,2685.999 C 2238.1123,2686.3086 2238.215,2686.8255 2238.1641,2687.1349 C 2237.4949,2691.3724 2237.556,2695.4096 2237.0263,2699.6508 C 2236.974,2700.055 2237.0772,2700.3825 2237.0263,2700.7867 C 2236.8822,2701.9661 2236.0223,2703.0218 2235.8887,2704.2014 C 2235.8148,2704.8239 2235.9594,2705.8542 2235.8887,2706.4766 C 2235.8061,2707.2484 2235.967,2707.9802 2235.8887,2708.752 C 2235.8017,2709.5602 2235.9705,2710.2155 2235.8887,2711.0272 C 2235.8101,2711.8427 2234.8245,2712.4834 2234.7511,2713.3026 C 2234.6785,2714.0634 2234.8188,2714.8133 2234.7511,2715.5778 C 2234.6858,2716.3496 2234.8118,2717.0814 2234.7511,2717.8532 C 2234.6837,2718.6649 2234.8134,2719.3165 2234.7511,2720.1284 C 2234.6947,2720.9002 2234.8031,2721.6283 2234.7511,2722.4036 C 2234.5644,2724.9993 2233.7503,2727.7697 2233.6135,2730.3654 C 2233.5948,2730.7549 2233.6309,2731.119 2233.6135,2731.5048 C 2233.553,2732.7207 2233.6629,2733.7001 2233.6135,2734.916 C 2233.5992,2735.3055 2233.6265,2735.6696 2233.6135,2736.0554 C 2233.5636,2737.3551 2233.6509,2739.3064 2233.6135,2740.606 C 2233.6054,2740.9155 2233.6208,2741.4324 2233.6135,2741.7418 C 2233.5818,2742.9614 2233.6346,2743.937 2233.6135,2745.1566 C 2233.584,2747.0934 2233.6174,2748.9062 2233.6135,2750.843 C 2233.6102,2752.0662 2233.6062,2753.0346 2233.6135,2754.2578 C 2233.6243,2756.1982 2233.5774,2758.0038 2233.6135,2759.9442 C 2233.6417,2761.5751 2233.5664,2762.8639 2233.6135,2764.4948 C 2233.9411,2775.9149 2234.6444,2787.1639 2235.8887,2798.6241 C 2236.0664,2800.2623 2236.8304,2801.5364 2237.0263,2803.1747 C 2237.2222,2804.8129 2236.8123,2807.2265 2237.0263,2808.8647 C 2237.2403,2810.503 2237.9317,2811.7735 2238.1641,2813.4153 C 2238.3963,2815.0536 2237.9138,2816.324 2238.1641,2817.9659 C 2238.4141,2819.6077 2239.0337,2822.0105 2239.3017,2823.6523 C 2242.2482,2841.709 2246.7977,2860.1371 2251.8157,2878.2593 C 2253.6403,2884.8522 2255.4191,2891.0045 2257.5039,2897.601 C 2263.7591,2917.3943 2270.6522,2936.9327 2279.1192,2956.7587 C 2282.6472,2965.0188 2286.6081,2973.5229 2290.4957,2981.7867 C 2303.7142,3009.8803 2318.9837,3037.9337 2336.0014,3065.9726 C 2337.0027,3067.6217 2338.4012,3068.874 2339.4144,3070.5231 C 2340.4276,3072.1723 2340.6645,3074.564 2341.6896,3076.2096 C 2342.7148,3077.8587 2344.0655,3079.1146 2345.1026,3080.7602 C 2345.3713,3081.1896 2345.9669,3081.4226 2346.2402,3081.8996 C 2346.4599,3082.2418 2346.0178,3082.6896 2346.2402,3083.0354 C 2346.6539,3083.789 2346.9538,3084.4552 2347.378,3085.3108 C 2347.5959,3085.6456 2348.2946,3086.1152 2348.5156,3086.4501 C 2348.6299,3086.6868 2348.4008,3087.3421 2348.5156,3087.586 C 2348.864,3088.1138 2349.2989,3088.1975 2349.6532,3088.7255 C 2357.3313,3100.1893 2366.8847,3112.1846 2375.8191,3123.9906 C 2400.2561,3095.4093 2425.9668,3066.4349 2450.9036,3036.3938 C 2452.0896,3034.9631 2453.1308,3033.2739 2454.3166,3031.8432 C 2455.6741,3029.9974 2456.3728,3027.9078 2457.7295,3026.1531 C 2458.2589,3025.5124 2459.4754,3025.6617 2460.0048,3025.0174 C 2460.9091,3023.8706 2461.3761,3022.7056 2462.2801,3021.6025 C 2366.5496,2928.0936 2300.7742,2789.3627 2256.3663,2618.8762 z"
       id="path5897" />
    <path
       style="fill:#edd1b7;fill-opacity:1;fill-rule:evenodd;stroke:#000000;stroke-width:36.40464401;stroke-linecap:butt;stroke-linejoin:miter;stroke-miterlimit:4;stroke-dasharray:none;stroke-opacity:1"
       d="M 2576.0445,3130.8164 C 2531.1198,3180.2576 2485.5878,3227.6383 2439.5271,3270.7487 C 2458.8192,3317.9218 2472.1893,3370.0351 2473.6566,3430.019 C 2477.6424,3592.9589 2336.0011,3895.9256 2336.0014,4015.9043 C 2336.0014,4173.2379 2530.2617,4477.5008 2797.8854,4086.4384 L 2726.2137,4025.0055 C 2598.2391,4328.107 2303.5529,4124.9654 2602.2105,3722.3919 C 2742.3642,3533.4736 2667.4753,3289.7409 2576.0445,3130.8164 z"
       id="path2633" />
    <path
       style="fill:#f3ecde;fill-opacity:1;fill-rule:evenodd;stroke:none;stroke-width:1px;stroke-linecap:butt;stroke-linejoin:miter;stroke-opacity:1"
       d="M 2570.3563,3162.6705 C 2562.3404,3171.3531 2554.5393,3180.2867 2546.4659,3188.8382 C 2590.2398,3382.6201 2568.3038,3587.997 2531.6764,3795.2012 C 2547.3745,3768.2581 2566.0587,3739.8115 2587.4211,3711.0155 C 2654.3418,3620.812 2670.1823,3518.5733 2657.955,3417.503 C 2646.7904,3325.2173 2610.4183,3236.9324 2570.3563,3162.6705 z"
       id="path5881" />
    <path
       style="fill:none;fill-opacity:0.75;fill-rule:evenodd;stroke:#000000;stroke-width:36.40464401px;stroke-linecap:butt;stroke-linejoin:miter;stroke-opacity:1"
       d="M 3413.3513,2893.0504 C 3381.5982,3033.1355 3326.8904,3291.9107 3326.8904,3419.7784 C 3326.8904,3587.7602 3405.3879,3682.0083 3405.3879,4045.4831 C 3405.3879,4218.9732 3412.079,4456.3096 3316.6516,4551.737 C 3263.9106,4604.4764 3242.903,4702.2411 3254.0811,4739.4467 L 3770.5719,4739.4467 C 3770.5719,4570.3288 3743.0329,4597.1738 3725.0661,4530.1199 C 3667.7362,4316.1627 3707.9389,3860.5367 3769.4343,3564.261 C 3620.6216,3366.806 3501.695,3129.4513 3413.3513,2893.0504 z"
       id="path2699" />
    <path
       style="fill:none;fill-opacity:0.75;fill-rule:nonzero;stroke:#000000;stroke-width:36.40464401;stroke-linecap:butt;stroke-linejoin:miter;stroke-miterlimit:4;stroke-opacity:1"
       d="M 5344.7592,2658.4121 C 5328.0342,2818.4384 5490.3458,3257.0685 5642.099,3431.326"
       id="path2726"
       sodipodi:nodetypes="cc" />
    <path
       style="fill:#000000;fill-opacity:1;fill-rule:evenodd;stroke:none;stroke-width:1px;stroke-linecap:butt;stroke-linejoin:miter;stroke-opacity:1"
       d="M 2742.5088,2195.5157 C 2728.1767,2184.3139 2687.3347,2181.6783 2661.4564,2188.1473 C 2635.3569,2194.6711 2635.1548,2208.6177 2628.2987,2236.0413 C 2622.2694,2260.1593 2617.7716,2295.7777 2650.404,2287.6193 C 2692.8969,2276.9966 2718.3332,2306.4988 2735.1401,2272.8828 C 2744.3796,2254.4039 2748.067,2223.3069 2742.5088,2195.5157 z"
       id="path2771"
       sodipodi:nodetypes="cssssc" />
    <path
       style="fill:#edd1b7;fill-opacity:1;fill-rule:evenodd;stroke:none;stroke-width:1px;stroke-linecap:butt;stroke-linejoin:miter;stroke-opacity:1"
       d="M 3745.5437,1444.8264 C 3737.9293,1444.9465 3731.0733,1445.6855 3723.9285,1445.9659 C 3598.1804,1450.8695 3545.4315,1479.9569 3504.363,1513.0851 L 3521.4276,1517.6357 C 3564.9633,1500.0704 3601.6271,1490.365 3635.1922,1486.9211 C 3669.2582,1483.4263 3699.5331,1485.8107 3728.4791,1490.3323 C 3783.6576,1498.9564 3834.153,1514.9417 3904.8141,1516.5 C 3913.5512,1503.74 3918.8165,1478.9958 3926.4293,1453.9276 C 3854.1697,1446.9306 3794.4924,1444.0656 3745.5437,1444.8264 z"
       id="path5999" />
    <path
       style="fill:#6b00f0;fill-opacity:0.2469136;fill-rule:evenodd;stroke:none;stroke-width:1px;stroke-linecap:butt;stroke-linejoin:miter;stroke-opacity:1"
       d="M 3932.1175,1541.528 C 3932.1205,1541.6301 3932.1074,1542.5474 3932.1175,1542.6639 L 3933.2551,1541.528 C 3933.1293,1541.6228 3932.2218,1541.4334 3932.1175,1541.528 z"
       id="path6013" />
    <path
       style="fill:none;fill-opacity:0.75;fill-rule:evenodd;stroke:#000000;stroke-width:36.40464401px;stroke-linecap:round;stroke-linejoin:miter;stroke-opacity:1"
       d="M 3986.4916,1408.3053 C 3937.0867,1416.4453 3945.1901,1492.7459 3917.981,1529.0267 C 3893.2166,1562.0457 3881.6625,1566.1122 3872.0809,1604.439 C 3859.1779,1656.0498 3878.7623,1688.0896 3851.1354,1715.717 C 3830.1943,1736.6569 3823.1843,1792.1268 3806.7032,1825.0875 C 3789.9138,1858.6671 3770.8428,1893.6375 3749.498,1914.9815 C 3721.082,1943.3989 3716.4899,1989.1705 3700.4646,2021.2211 C 3679.7122,2062.726 3692.2925,2130.7118 3692.2925,2176.4943 C 3692.2925,2228.3781 3694.2144,2283.2144 3684.1203,2323.5908 C 3671.2267,2375.169 3648.9881,2402.0283 3626.9148,2446.1762 C 3608.8313,2482.3405 3610.5706,2547.6505 3610.5706,2593.2764 C 3610.5706,2652.798 3618.204,2712.0867 3626.9148,2773.0645 C 3636.2683,2838.5381 3635.087,2920.0954 3635.087,2985.5401 C 3635.087,3028.0535 3673.6406,3082.5475 3684.1203,3124.4675 C 3696.4717,3173.8723 3680.4253,3232.269 3692.2925,3279.7407 C 3707.2675,3339.6408 3718.7704,3369.3069 3733.1535,3426.8372 C 3741.9768,3462.1316 3734.8928,3497.5533 3749.498,3526.7643"
       id="path2847"
       sodipodi:nodetypes="csssssssssssssssc" />
    <path
       style="fill:#edd1b7;fill-opacity:1;fill-rule:evenodd;stroke:none;stroke-width:1px;stroke-linecap:butt;stroke-linejoin:miter;stroke-opacity:1"
       d="M 3393.977,2610.5071 L 3360.2645,2675.6098 C 3427.9662,2930.3735 3568.9532,3238.7416 3719.3779,3463.0088 C 3718.8821,3451.738 3718.489,3441.2535 3715.9651,3431.1548 C 3701.7785,3374.4109 3690.1734,3345.0578 3675.0098,3284.4005 C 3661.3544,3229.7788 3676.5416,3171.0727 3665.9086,3128.5412 C 3661.4924,3110.8777 3649.7843,3087.2474 3638.6052,3062.5578 C 3627.426,3037.8717 3616.9899,3011.9589 3616.9899,2985.1979 C 3616.9899,2982.5878 3616.9873,2979.8938 3616.9899,2977.2361 L 3393.977,2610.5071 z"
       id="path6019"
       sodipodi:nodetypes="cccccccscc" />
    <path
       style="fill:none;fill-opacity:0.75;fill-rule:evenodd;stroke:#000000;stroke-width:36.40464401px;stroke-linecap:round;stroke-linejoin:miter;stroke-opacity:1"
       d="M 3429.1066,1675.7084 C 3432.8446,1688.5883 3436.8859,1704.093 3453.5122,1708.2505 C 3469.9347,1712.3569 3483.307,1719.11 3499.6119,1713.6746 C 3507.9973,1710.8788 3507.7468,1678.8865 3507.7468,1670.284 C 3507.7468,1655.3909 3507.757,1637.7018 3510.4586,1626.897 C 3511.3953,1623.151 3535.9342,1610.0925 3540.2879,1607.9156 C 3554.0546,1601.0314 3558.4795,1597.067 3580.9638,1597.067 C 3599.042,1597.067 3617.1202,1597.067 3635.1984,1597.067 C 3656.5708,1597.067 3657.9669,1606.7906 3662.3159,1624.1849 C 3663.6056,1629.3434 3662.3159,1648.2229 3662.3159,1659.4391 C 3662.3159,1679.4763 3670.547,1681.1799 3686.7216,1689.269 C 3703.404,1697.6094 3715.7338,1692.5346 3719.2622,1678.4205 C 3724.2766,1658.3651 3721.3147,1648.9218 3738.2443,1640.4576 C 3747.6075,1635.7761 3773.4821,1641.1311 3781.6321,1643.1698 C 3799.0514,1647.5239 3810.1035,1659.4354 3816.8849,1672.9962 C 3823.8742,1686.9756 3829.2293,1696.1895 3844.0019,1710.9625"
       id="path2803"
       sodipodi:nodetypes="cssssssssssssssc" />
    <path
       style="fill:none;fill-opacity:0.75;fill-rule:evenodd;stroke:#000000;stroke-width:36.40464401px;stroke-linecap:round;stroke-linejoin:miter;stroke-opacity:1"
       d="M 2520.4525,2075.4786 C 2534.2302,2097.3433 2550.1233,2114.9994 2582.2799,2123.0376 C 2607.4014,2129.3174 2602.6928,2103.2153 2606.0598,2089.7457"
       id="path2805" />
    <path
       style="fill:none;fill-opacity:0.75;fill-rule:evenodd;stroke:#000000;stroke-width:36.40464401px;stroke-linecap:round;stroke-linejoin:miter;stroke-opacity:1"
       d="M 3432.3803,1664.6888 C 3499.7206,1396.3204 3731.8225,1529.5328 3896.0212,1529.5066"
       id="path2807"
       sodipodi:nodetypes="cc" />
    <path
       style="fill:none;fill-opacity:0.75;fill-rule:evenodd;stroke:#000000;stroke-width:36.40464401px;stroke-linecap:round;stroke-linejoin:miter;stroke-opacity:1"
       d="M 3292.6171,4628.4817 C 3328.2414,4635.5114 3365.6613,4635.4058 3365.6613,4710.6542"
       id="path5591"
       sodipodi:nodetypes="cc" />
    <path
       style="fill:none;fill-opacity:0.75;fill-rule:evenodd;stroke:#000000;stroke-width:36.40464401px;stroke-linecap:round;stroke-linejoin:miter;stroke-opacity:1"
       d="M 3438.7051,4717.5019 C 3425.8119,4628.9149 3542.1431,4611.0511 3550.5535,4666.1423"
       id="path5593"
       sodipodi:nodetypes="cc" />
    <path
       style="fill:none;fill-opacity:0.75;fill-rule:evenodd;stroke:#000000;stroke-width:36.40464401px;stroke-linecap:round;stroke-linejoin:miter;stroke-opacity:1"
       d="M 3639.5756,4715.2194 C 3639.3714,4680.6641 3687.6219,4669.0584 3744.5762,4661.5771"
       id="path5595"
       sodipodi:nodetypes="cc" />
    <path
       style="fill:none;fill-opacity:0.75;fill-rule:evenodd;stroke:#000000;stroke-width:36.40464401px;stroke-linecap:round;stroke-linejoin:miter;stroke-opacity:1"
       d="M 3866.9857,4625.8824 C 3899.076,4651.8134 3944.204,4661.4461 3947.1272,4723.8327"
       id="path5599"
       sodipodi:nodetypes="cc" />
    <path
       style="fill:none;fill-opacity:0.75;fill-rule:evenodd;stroke:#000000;stroke-width:36.40464401px;stroke-linecap:round;stroke-linejoin:miter;stroke-opacity:1"
       d="M 4125.2191,4723.8327 C 4130.2203,4684.5666 4191.5363,4621.8679 4277.3345,4671.4001"
       id="path5601"
       sodipodi:nodetypes="cc" />
    <path
       style="fill:none;fill-opacity:0.75;fill-rule:evenodd;stroke:#000000;stroke-width:36.40464401px;stroke-linecap:round;stroke-linejoin:miter;stroke-opacity:1"
       d="M 5015.6796,4628.8493 C 5059.2243,4626.1918 5096.6682,4633.7058 5116.5983,4670.4052"
       id="path5603"
       sodipodi:nodetypes="cc" />
    <path
       style="fill:none;fill-opacity:0.75;fill-rule:evenodd;stroke:#000000;stroke-width:36.40464401px;stroke-linecap:round;stroke-linejoin:miter;stroke-opacity:1"
       d="M 5184.8672,4631.8199 C 5239.0202,4628.1249 5268.1764,4649.429 5259.0723,4708.9905"
       id="path5605"
       sodipodi:nodetypes="cc" />
    <path
       style="fill:none;fill-opacity:0.75;fill-rule:evenodd;stroke:#000000;stroke-width:36.40464401px;stroke-linecap:butt;stroke-linejoin:miter;stroke-opacity:1"
       d="M 5000.3664,3386.7884 C 4966.8216,4002.726 5110.7179,4048.4028 5110.7179,4290.0787 C 5110.7175,4583.8096 4983.2696,4475.5203 5003.7792,4739.4467 L 5512.3066,4739.4467 C 5512.3066,4580.8317 5408.7885,4540.1823 5405.3681,4007.9427 C 5403.8241,3767.7266 5446.4605,3583.865 5516.8572,3430.019 C 5290.7665,3426.0837 5152.3597,3411.1795 5000.3664,3386.7884 z"
       id="path2697" />
    <path
       style="fill:none;fill-opacity:0.75;fill-rule:evenodd;stroke:#000000;stroke-width:36.40464401px;stroke-linecap:round;stroke-linejoin:miter;stroke-opacity:1"
       d="M 6180.7563,4627.9101 C 6233.4881,4620.5782 6259.7376,4646.3528 6282.0133,4677.0928"
       id="path5607"
       sodipodi:nodetypes="cc" />
    <path
       style="fill:none;fill-opacity:0.75;fill-rule:evenodd;stroke:#000000;stroke-width:36.40464401px;stroke-linecap:round;stroke-linejoin:miter;stroke-opacity:1"
       d="M 6345.6607,4665.5197 C 6384.9438,4619.8792 6498.9926,4624.4808 6498.9926,4708.9178"
       id="path5609"
       sodipodi:nodetypes="cc" />
    <path
       style="fill:#edd1b7;fill-opacity:1;fill-rule:evenodd;stroke:none;stroke-width:1px;stroke-linecap:butt;stroke-linejoin:miter;stroke-opacity:1"
       d="M 2450.7878,2591.802 C 2532.5104,2536.0957 2611.7266,2494.3578 2673.1792,2436.1286 C 2734.2551,2578.2851 2616.0322,2823.9581 2439.6685,2702.9964 C 2422.0388,2671.2661 2400.7814,2625.8876 2450.7878,2591.802 z"
       id="path5895"
       sodipodi:nodetypes="cccs" />
    <path
       style="fill:#edd1b7;fill-opacity:1;fill-rule:evenodd;stroke:none;stroke-width:1px;stroke-linecap:butt;stroke-linejoin:miter;stroke-opacity:1"
       d="M 2863.8688,1847.5529 C 2863.8545,1847.7057 2863.8651,1848.5867 2863.8688,1848.6922 C 2863.8873,1848.7723 2863.8531,1849.7262 2863.8688,1849.8281 C 2863.8575,1850.0465 2863.9041,1850.6617 2863.8688,1850.9676 C 2863.0152,1858.4013 2861.4617,1867.7719 2855.9052,1878.271 L 2855.9052,1879.4069 C 2855.8838,1879.4687 2855.9486,1880.4554 2855.9052,1880.5464 C 2855.7557,1880.8193 2855.1011,1881.1506 2854.7676,1881.6821 L 2853.63,1882.8216 C 2852.1192,1885.1152 2851.0336,1886.2292 2849.0794,1888.508 L 2849.0794,1889.6474 C 2848.8096,1889.946 2848.079,1890.6414 2847.9418,1890.7833 L 2846.8042,1890.7833 C 2846.6439,1890.9435 2845.885,1891.6643 2845.6664,1891.9228 C 2841.8619,1896.8046 2832.8691,1910.6165 2825.1888,1922.6374 C 2816.9599,1935.5209 2810.7512,1947.1268 2803.5736,1955.6309 C 2803.3316,1955.9075 2802.6814,1956.4973 2802.436,1956.7668 L 2801.2984,1956.7668 C 2801.3081,1956.8286 2801.2962,1957.8407 2801.2984,1957.9061 C 2801.2404,1957.9061 2800.2572,1957.8733 2800.1607,1957.9061 C 2799.9459,1958.0554 2799.3175,1958.809 2799.023,1959.042 L 2795.6101,1962.4567 L 2789.9219,1963.5926 C 2789.9128,1963.5962 2787.8567,1963.5853 2787.6466,1963.5926 C 2787.4373,1963.5962 2786.7864,1963.5999 2786.5089,1963.5926 C 2786.3702,1963.5926 2785.6665,1963.6072 2785.3713,1963.5926 C 2785.0054,1963.5672 2781.9624,1963.5962 2781.9583,1963.5926 L 2781.9583,1962.4567 C 2760.852,1956.643 2743.7629,1942.8674 2727.3515,1929.4632 C 2712.9912,1917.7373 2698.3202,1906.2407 2690.9468,1902.1598 C 2690.7011,1902.036 2690.0363,1901.1295 2689.809,1901.024 C 2689.6009,1900.9366 2688.86,1901.0894 2688.6714,1901.024 C 2688.3569,1901.5846 2687.7253,1902.8915 2687.5338,1903.2992 C 2687.4002,1903.2811 2686.5006,1903.3028 2686.3962,1903.2992 C 2686.283,1903.4157 2685.3532,1904.3477 2685.2584,1904.435 C 2676.0648,1922.6265 2664.6673,1946.4788 2648.8538,1968.1432 C 2692.8598,2002.0286 2754.2911,2058.1973 2789.9219,2129.6888 C 2867.3637,2285.0784 3022.6043,2252.4744 3032.2403,2250.2792 C 3025.4385,2194.9587 3014.2396,2178.8641 3001.5238,2172.9193 C 2969.6811,2159.5078 2925.6816,2203.0514 2896.8605,1858.9293 C 2879.1882,1850.3304 2869.0401,1848.8853 2863.8688,1847.5529 z"
       id="path5932" />
    <path
       style="fill:none;fill-opacity:0.75;fill-rule:evenodd;stroke:#000000;stroke-width:36.40464401px;stroke-linecap:round;stroke-linejoin:miter;stroke-opacity:1"
       d="M 3347.3485,2660.2429 C 3437.47,2593.3642 3396.9566,2336.1541 3355.7586,2275.8972"
       id="path5597"
       sodipodi:nodetypes="cc" />
    <path
       style="fill:#edd1b7;fill-opacity:1;fill-rule:evenodd;stroke:none;stroke-width:1px;stroke-linecap:butt;stroke-linejoin:miter;stroke-opacity:1"
       d="M 6674.98,3946.5099 C 6671.8339,3953.2629 6667.9437,3962.4733 6665.8788,3971.5381 C 6664.2487,3978.6952 6663.4088,3985.6739 6663.6034,3990.8763 C 6663.6822,3992.2195 6664.5635,3994.2874 6664.7412,3995.4269 C 6664.8417,3995.9728 6664.6188,3997.2142 6664.7412,3997.7021 C 6664.8737,3998.1643 6665.7266,3999.5806 6665.8788,3999.9773 C 6665.9596,4000.1631 6665.7935,4000.9493 6665.8788,4001.1168 C 6665.9723,4001.2516 6666.9189,4002.1362 6667.0164,4002.2527 C 6683.9329,4019.1699 6701.0936,4042.5198 6720.4857,4055.7238 C 6722.9223,4057.3293 6725.9192,4059.0074 6728.4493,4060.2744 C 6746.4757,4069.2882 6774.0844,4076.3288 6794.4327,4096.6791 C 6815.8838,4118.1286 6836.6238,4150.2448 6855.8655,4169.4883 C 6862.8592,4176.4816 6873.3459,4188.1747 6884.3067,4199.067 C 6895.2673,4209.9557 6908.0123,4220.0216 6911.6101,4221.82 C 6919.1549,4225.5915 6925.4264,4226.2759 6935.5007,4226.3706 C 6945.5749,4226.4652 6959.1681,4225.2311 6976.456,4225.2311 C 6997.0304,4225.2311 7010.5354,4223.3781 7024.237,4220.6805 C 6925.7734,4132.8361 6823.3118,4043.7067 6674.98,3946.5099 z"
       id="path6039" />
    <path
       style="fill:none;fill-opacity:0.75;fill-rule:evenodd;stroke:#000000;stroke-width:36.40464401px;stroke-linecap:round;stroke-linejoin:miter;stroke-opacity:1"
       d="M 3480.7604,2754.6366 C 3542.1866,2490.211 3698.1759,2385.5775 3689.4994,2099.8466"
       id="path3716"
       sodipodi:nodetypes="cc" />
    <path
       style="fill:none;fill-opacity:0.75;fill-rule:evenodd;stroke:#000000;stroke-width:36.40464401px;stroke-linecap:round;stroke-linejoin:miter;stroke-opacity:1"
       d="M 3414.584,2455.617 C 3484.1392,2565.7304 3443.299,2701.1566 3473.8131,2756.7093"
       id="path3718"
       sodipodi:nodetypes="cc" />
    <path
       style="fill:#edd1b7;fill-opacity:1;fill-rule:evenodd;stroke:none;stroke-width:1px;stroke-linecap:butt;stroke-linejoin:miter;stroke-opacity:1"
       d="M 3427.4007,1399.8297 C 3390.0921,1361.6775 3328.6548,1331.3075 3290.2122,1315.8445 C 3188.4084,1273.7088 3052.0437,1264.0512 2981.2791,1303.7786 C 3036.9647,1295.6101 3105.7931,1295.5307 3166.6908,1313.5307 C 3318.4038,1381.1143 3392.6124,1437.1395 3470.6264,1541.639 C 3479.3635,1528.879 3498.7692,1515.9177 3512.0384,1506.876 C 3498.6023,1480.2711 3440.9033,1407.9288 3427.4007,1399.8297 z"
       id="path3720"
       sodipodi:nodetypes="ccccccc" />
    <path
       style="fill:none;fill-opacity:0.75;fill-rule:nonzero;stroke:#000000;stroke-width:36.40464401;stroke-linecap:butt;stroke-linejoin:miter;stroke-miterlimit:4;stroke-opacity:1"
       d="M 5850.915,2276.5836 C 6031.764,2661.9135 6264.8848,2905.6123 6349.295,3070.2947"
       id="path3722"
       sodipodi:nodetypes="cc" />
  </g>
</svg>
