<?xml version="1.0" encoding="UTF-8" standalone="no"?>
<!-- Generator: Adobe Illustrator 16.0.0, SVG Export Plug-In . SVG Version: 6.00 Build 0)  -->

<svg
   xmlns:dc="http://purl.org/dc/elements/1.1/"
   xmlns:cc="http://creativecommons.org/ns#"
   xmlns:rdf="http://www.w3.org/1999/02/22-rdf-syntax-ns#"
   xmlns:svg="http://www.w3.org/2000/svg"
   xmlns="http://www.w3.org/2000/svg"
   xmlns:sodipodi="http://sodipodi.sourceforge.net/DTD/sodipodi-0.dtd"
   xmlns:inkscape="http://www.inkscape.org/namespaces/inkscape"
   version="1.1"
   id="Layer_1"
   x="0px"
   y="0px"
   width="900px"
   height="450px"
   viewBox="0 0 900 450"
   enable-background="new 0 0 900 450"
   xml:space="preserve"
   inkscape:version="0.48.4 r9939"
   sodipodi:docname="Flag_of_the_Philippines_(light_blue).svg"><metadata
   id="metadata29"><rdf:RDF><cc:Work
       rdf:about=""><dc:format>image/svg+xml</dc:format><dc:type
         rdf:resource="http://purl.org/dc/dcmitype/StillImage" /></cc:Work></rdf:RDF></metadata><defs
   id="defs27" /><sodipodi:namedview
   pagecolor="#ffffff"
   bordercolor="#666666"
   borderopacity="1"
   objecttolerance="10"
   gridtolerance="10"
   guidetolerance="10"
   inkscape:pageopacity="0"
   inkscape:pageshadow="2"
   inkscape:window-width="1280"
   inkscape:window-height="740"
   id="namedview25"
   showgrid="false"
   inkscape:zoom="0.35333333"
   inkscape:cx="450"
   inkscape:cy="225"
   inkscape:window-x="-4"
   inkscape:window-y="-4"
   inkscape:window-maximized="1"
   inkscape:current-layer="Layer_1" />
<title
   id="title3">Flag of the Philippines</title>
<desc
   id="desc5">
	Coding according to the official &quot;description and specification of the FILIPINO flag&quot; in Executive Order No. 23 from 1936
	</desc>
<g
   id="g7">
	<rect
   x="0"
   y="0"
   fill="#0099FF"
   width="900"
   height="225"
   id="rect9"
   style="fill:#8eb9e3;fill-opacity:1" />
	<rect
   x="0"
   y="225"
   fill="#FF0000"
   width="900"
   height="225"
   id="rect11"
   style="fill:#c83e34;fill-opacity:1" />
</g>
<path
   fill="#FFFFFF"
   d="M389.712,225L0,450V0"
   id="path13" />
<g
   id="g15"
   style="fill:#f7e670;fill-opacity:1">
	<path
   fill="#FCD116"
   d="M184.893,222.058c-0.063-0.986-0.161-1.962-0.288-2.93L225,213.81l-4.769-4.769l-36.094,7.18   c-1.168-5.904-3.488-11.393-6.721-16.222l30.601-20.446v-6.744l-32.323,24.802c-0.599-0.779-1.223-1.536-1.87-2.273l33.351-29.248   v-8.265h-8.265l-29.248,33.351c-0.737-0.647-1.495-1.271-2.273-1.87l24.802-32.323h-6.744l-20.446,30.601   c-4.829-3.232-10.317-5.553-16.222-6.721l7.18-36.094L151.19,140l-5.318,40.394c-0.968-0.126-1.944-0.224-2.93-0.288l2.901-44.263   L140,130l-5.844,5.844l2.901,44.263c-0.986,0.063-1.962,0.161-2.93,0.288L128.809,140l-4.769,4.769l7.18,36.094   c-5.904,1.168-11.393,3.488-16.222,6.721l-20.446-30.601h-6.744l24.802,32.323c-0.779,0.599-1.537,1.223-2.274,1.871   l-29.248-33.352h-8.264v8.265l33.351,29.248c-0.647,0.737-1.271,1.495-1.87,2.273l-32.322-24.802v6.744l30.6,20.446   c-3.233,4.828-5.553,10.317-6.721,16.222l-36.094-7.18L55,213.81l40.394,5.318c-0.126,0.968-0.224,1.944-0.288,2.93l-44.263-2.901   L45,225l5.844,5.844l44.263-2.901c0.063,0.986,0.161,1.962,0.288,2.93L55,236.191l4.769,4.769l36.094-7.18   c1.168,5.904,3.488,11.394,6.721,16.222l-30.6,20.446v6.744l32.322-24.802c0.599,0.778,1.223,1.536,1.87,2.273l-33.351,29.248   v8.264h8.264l29.248-33.351c0.737,0.647,1.495,1.271,2.273,1.87l-24.802,32.322h6.744l20.446-30.601   c4.829,3.233,10.317,5.554,16.222,6.722l-7.18,36.093l4.769,4.77l5.318-40.394c0.968,0.126,1.944,0.224,2.93,0.287l-2.901,44.263   L140,320l5.844-5.844l-2.901-44.263c0.986-0.063,1.962-0.161,2.93-0.287L151.19,310l4.769-4.77l-7.179-36.093   c5.904-1.168,11.393-3.488,16.221-6.721l20.446,30.6h6.744l-24.802-32.322c0.779-0.599,1.536-1.223,2.273-1.87l29.248,33.351h8.265   v-8.264l-33.352-29.248c0.647-0.737,1.272-1.495,1.871-2.273l32.323,24.802v-6.744l-30.601-20.446   c3.232-4.829,5.553-10.317,6.721-16.222l36.094,7.18l4.769-4.769l-40.394-5.318c0.126-0.968,0.224-1.943,0.288-2.93l44.263,2.901   L235,225l-5.844-5.844L184.893,222.058z"
   id="path17"
   style="fill:#f7e670;fill-opacity:1" />
	<polygon
   fill="#FCD116"
   points="327.802,219.122 327.437,201.224 316.621,215.49 299.486,210.305 309.712,225 299.486,239.695    316.621,234.511 327.437,248.777 327.802,230.878 344.712,225  "
   id="polygon19"
   style="fill:#f7e670;fill-opacity:1" />
	<polygon
   fill="#FCD116"
   points="40,380.718 32.386,364.515 28.308,381.947 10.547,384.18 25.865,393.446 22.5,411.029    36.046,399.323 51.728,407.956 44.781,391.457 57.839,379.209  "
   id="polygon21"
   style="fill:#f7e670;fill-opacity:1" />
	<polygon
   fill="#FCD116"
   points="28.308,68.053 32.386,85.485 40,69.282 57.839,70.79 44.781,58.542 51.728,42.043 36.046,50.677    22.5,38.971 25.865,56.554 10.547,65.82  "
   id="polygon23"
   style="fill:#f7e670;fill-opacity:1" />
</g>
</svg>