<?xml version="1.0" encoding="UTF-8" standalone="no"?>
<!-- Created with Inkscape (http://www.inkscape.org/) -->
<svg
   xmlns:dc="http://purl.org/dc/elements/1.1/"
   xmlns:cc="http://creativecommons.org/ns#"
   xmlns:rdf="http://www.w3.org/1999/02/22-rdf-syntax-ns#"
   xmlns:svg="http://www.w3.org/2000/svg"
   xmlns="http://www.w3.org/2000/svg"
   xmlns:xlink="http://www.w3.org/1999/xlink"
   xmlns:sodipodi="http://sodipodi.sourceforge.net/DTD/sodipodi-0.dtd"
   xmlns:inkscape="http://www.inkscape.org/namespaces/inkscape"
   version="1.0"
   width="1000"
   height="500"
   id="svg1"
   sodipodi:version="0.32"
   inkscape:version="0.46"
   sodipodi:docname="Flag_of_Tuvalu_(1995).svg"
   inkscape:output_extension="org.inkscape.output.svg.inkscape">
  <metadata
     id="metadata34">
    <rdf:RDF>
      <cc:Work
         rdf:about="">
        <dc:format>image/svg+xml</dc:format>
        <dc:type
           rdf:resource="http://purl.org/dc/dcmitype/StillImage" />
      </cc:Work>
    </rdf:RDF>
  </metadata>
  <sodipodi:namedview
     inkscape:window-height="968"
     inkscape:window-width="1280"
     inkscape:pageshadow="2"
     inkscape:pageopacity="0.0"
     guidetolerance="10.0"
     gridtolerance="10.0"
     objecttolerance="10.0"
     borderopacity="1.0"
     bordercolor="#666666"
     pagecolor="#ffffff"
     id="base"
     showgrid="false"
     inkscape:zoom="1.206"
     inkscape:cx="500"
     inkscape:cy="250"
     inkscape:window-x="-4"
     inkscape:window-y="-4"
     inkscape:current-layer="svg1" />
  <defs
     id="defs3">
    <inkscape:perspective
       sodipodi:type="inkscape:persp3d"
       inkscape:vp_x="0 : 250 : 1"
       inkscape:vp_y="0 : 1000 : 0"
       inkscape:vp_z="1000 : 250 : 1"
       inkscape:persp3d-origin="500 : 166.66667 : 1"
       id="perspective36" />
  </defs>
  <g
     id="g2484"
     transform="matrix(1,0,0,0.9999981,0,9.3999797e-4)">
    <g
       transform="translate(0,-9.1e-4)"
       id="g3363">
      <g
         transform="matrix(1.66667,0,0,1.6666666,0,9.1666637e-4)"
         id="g2296">
        <g
           id="g1333" />
        <path
           d="M 300.00002,-1e-05 L 600.00005,-1e-05 L 600.00005,300.00001 L 0,300.00001 L 0,150 L 300.00002,150 L 300.00002,-1e-05 z"
           id="path4861"
           style="fill:#75aadb;fill-opacity:1;fill-rule:evenodd;stroke:none;stroke-width:1px;stroke-linecap:butt;stroke-linejoin:miter;stroke-opacity:1" />
      </g>
      <g
         transform="matrix(0.833333,0,0,0.833333,0,-1.66667e-5)"
         id="g3845">
        <g
           id="g3847">
          <g
             id="g3849">
            <rect
               width="600"
               height="300"
               x="0"
               y="-7.8124995e-06"
               id="rect1764"
               style="fill:#00267f;fill-opacity:1;fill-rule:evenodd;stroke:none;stroke-width:1pt;stroke-linecap:butt;stroke-linejoin:miter;stroke-opacity:1" />
            <path
               d="M 1.110223e-14,299.99999 L 67.08,299.99999 L 600,33.539988 L 600,-1.2e-05 L 532.92,-1.2e-05 L 1.110223e-14,266.45999 L 1.110223e-14,299.99999 z"
               id="path4640"
               style="fill:#ffffff;fill-opacity:1;fill-rule:evenodd;stroke:none;stroke-width:1pt;stroke-linecap:butt;stroke-linejoin:miter;stroke-opacity:1" />
            <path
               d="M 600,299.99999 L 532.92,299.99999 L 1.110223e-14,33.539988 L 1.110223e-14,-1.2e-05 L 67.08,-1.2e-05 L 600,266.45999 L 600,299.99999 z"
               id="path6505"
               style="fill:#ffffff;fill-opacity:1;fill-rule:evenodd;stroke:none;stroke-width:1pt;stroke-linecap:butt;stroke-linejoin:miter;stroke-opacity:1" />
            <path
               d="M 250,0 L 250,100 L 0,100 L 0,200 L 250,200 L 250,300 L 350,300 L 350,200 L 600,200 L 600,100 L 350,100 L 350,0 L 250,0 z"
               id="rect1530"
               style="fill:#ffffff;fill-opacity:1;fill-rule:evenodd;stroke:none;stroke-width:1pt;stroke-linecap:butt;stroke-linejoin:miter;stroke-opacity:1" />
            <path
               d="M 270,0 L 270,120 L 0,120 L 0,180 L 270,180 L 270,300 L 330,300 L 330,180 L 600,180 L 600,120 L 330,120 L 330,0 L 270,0 z"
               id="rect3395"
               style="fill:#d21034;fill-opacity:1;fill-rule:evenodd;stroke:none;stroke-width:1pt;stroke-linecap:butt;stroke-linejoin:miter;stroke-opacity:1" />
            <path
               d="M 355.28,99.999988 L 400,99.999988 L 600,-1.2e-05 L 555.28,-1.2e-05 L 355.28,99.999988 z"
               id="path8371"
               style="fill:#d21034;fill-opacity:1;fill-rule:evenodd;stroke:none;stroke-width:1pt;stroke-linecap:butt;stroke-linejoin:miter;stroke-opacity:1" />
            <path
               d="M 1.110223e-14,-1.2e-05 L 1.110223e-14,22.359988 L 155.28,99.999988 L 200,99.999988 L 1.110223e-14,-1.2e-05 z"
               id="path9616"
               style="fill:#d21034;fill-opacity:1;fill-rule:evenodd;stroke:none;stroke-width:1pt;stroke-linecap:butt;stroke-linejoin:miter;stroke-opacity:1" />
            <use
               transform="matrix(-1,0,0,-1,600,300)"
               id="use3668"
               x="0"
               y="0"
               width="600"
               height="300"
               xlink:href="#path9616" />
            <use
               transform="translate(-355.28,200)"
               id="use3711"
               x="0"
               y="0"
               width="600"
               height="300"
               xlink:href="#path8371" />
          </g>
        </g>
        <g
           transform="matrix(0.604757,0,0,0.604757,-7.3153e-3,3.32962e-3)"
           id="g3862" />
      </g>
    </g>
    <g
       id="g2474">
      <polygon
         points="591.041,433.161 533.774,391.476 476.501,433.151 498.449,365.806 441.115,324.214 511.946,324.278 533.785,256.897 555.613,324.281 626.445,324.23 569.104,365.812 591.041,433.161 "
         transform="matrix(0.5027163,0,0,0.4731064,630.34211,-116.18715)"
         id="polygon136"
         style="font-size:12px;fill:#fcd116;fill-opacity:1;fill-rule:evenodd;stroke-width:1pt" />
      <polygon
         points="591.041,433.161 533.774,391.476 476.501,433.151 498.449,365.806 441.115,324.214 511.946,324.278 533.785,256.897 555.613,324.281 626.445,324.23 569.104,365.812 591.041,433.161 "
         transform="matrix(0.5027163,0,0,0.4731064,537.95522,122.58528)"
         id="polygon3314"
         style="font-size:12px;fill:#fcd116;fill-opacity:1;fill-rule:evenodd;stroke-width:1pt" />
      <polygon
         points="591.041,433.161 533.774,391.476 476.501,433.151 498.449,365.806 441.115,324.214 511.946,324.278 533.785,256.897 555.613,324.281 626.445,324.23 569.104,365.812 591.041,433.161 "
         transform="matrix(0.5027163,0,0,0.4731064,633.0763,63.11507)"
         id="polygon3315"
         style="font-size:12px;fill:#fcd116;fill-opacity:1;fill-rule:evenodd;stroke-width:1pt" />
      <polygon
         points="591.041,433.161 533.774,391.476 476.501,433.151 498.449,365.806 441.115,324.214 511.946,324.278 533.785,256.897 555.613,324.281 626.445,324.23 569.104,365.812 591.041,433.161 "
         transform="matrix(-0.5027163,0,0,-0.4731064,874.97962,463.61881)"
         id="polygon3319"
         style="font-size:12px;fill:#fcd116;fill-opacity:1;fill-rule:evenodd;stroke-width:1pt" />
      <polygon
         points="591.041,433.161 533.774,391.476 476.501,433.151 498.449,365.806 441.115,324.214 511.946,324.278 533.785,256.897 555.613,324.281 626.445,324.23 569.104,365.812 591.041,433.161 "
         transform="matrix(-0.5027163,0,0,-0.4731064,1037.0298,290.56296)"
         id="polygon3320"
         style="font-size:12px;fill:#fcd116;fill-opacity:1;fill-rule:evenodd;stroke-width:1pt" />
      <polygon
         points="591.041,433.161 533.774,391.476 476.501,433.151 498.449,365.806 441.115,324.214 511.946,324.278 533.785,256.897 555.613,324.281 626.445,324.23 569.104,365.812 591.041,433.161 "
         transform="matrix(-0.5027163,0,0,-0.4731064,997.68747,544.65478)"
         id="polygon3322"
         style="font-size:12px;fill:#fcd116;fill-opacity:1;fill-rule:evenodd;stroke-width:1pt" />
      <polygon
         points="591.041,433.161 533.774,391.476 476.501,433.151 498.449,365.806 441.115,324.214 511.946,324.278 533.785,256.897 555.613,324.281 626.445,324.23 569.104,365.812 591.041,433.161 "
         transform="matrix(-0.5027163,0,0,-0.4731064,875.01134,597.80991)"
         id="polygon3323"
         style="font-size:12px;fill:#fcd116;fill-opacity:1;fill-rule:evenodd;stroke-width:1pt" />
      <polygon
         points="591.041,433.161 533.774,391.476 476.501,433.151 498.449,365.806 441.115,324.214 511.946,324.278 533.785,256.897 555.613,324.281 626.445,324.23 569.104,365.812 591.041,433.161 "
         transform="matrix(0.5027163,0,0,0.4731064,227.00802,291.05521)"
         id="polygon3317"
         style="font-size:12px;fill:#fcd116;fill-opacity:1;fill-rule:evenodd;stroke-width:1pt" />
    </g>
  </g>
</svg>
