<?xml version="1.0" encoding="UTF-8" standalone="no"?>
<!-- Created with Inkscape (http://www.inkscape.org/) -->

<svg
   xmlns:dc="http://purl.org/dc/elements/1.1/"
   xmlns:cc="http://creativecommons.org/ns#"
   xmlns:rdf="http://www.w3.org/1999/02/22-rdf-syntax-ns#"
   xmlns:svg="http://www.w3.org/2000/svg"
   xmlns="http://www.w3.org/2000/svg"
   xmlns:sodipodi="http://sodipodi.sourceforge.net/DTD/sodipodi-0.dtd"
   xmlns:inkscape="http://www.inkscape.org/namespaces/inkscape"
   version="1.0"
   width="725"
   height="500"
   id="svg2211"
   inkscape:version="0.47 r22583"
   sodipodi:docname="ZZ.svg">
  <metadata
     id="metadata10">
    <rdf:RDF>
      <cc:Work
         rdf:about="">
        <dc:format>image/svg+xml</dc:format>
        <dc:type
           rdf:resource="http://purl.org/dc/dcmitype/StillImage" />
      </cc:Work>
    </rdf:RDF>
  </metadata>
  <sodipodi:namedview
     pagecolor="#ffffff"
     bordercolor="#666666"
     borderopacity="1"
     objecttolerance="10"
     gridtolerance="10"
     guidetolerance="10"
     inkscape:pageopacity="0"
     inkscape:pageshadow="2"
     inkscape:window-width="1280"
     inkscape:window-height="1004"
     id="namedview8"
     showgrid="false"
     inkscape:zoom="1.3350176"
     inkscape:cx="281.24408"
     inkscape:cy="253.76132"
     inkscape:window-x="-8"
     inkscape:window-y="-8"
     inkscape:window-maximized="1"
     inkscape:current-layer="g2292" />
  <defs
     id="defs2214">
    <inkscape:perspective
       sodipodi:type="inkscape:persp3d"
       inkscape:vp_x="0 : 250 : 1"
       inkscape:vp_y="0 : 1000 : 0"
       inkscape:vp_z="725 : 250 : 1"
       inkscape:persp3d-origin="362.5 : 166.66667 : 1"
       id="perspective12" />
  </defs>
  <g
     id="g2292">
    <rect
       width="600"
       height="500"
       x="125"
       y="4.3554689e-07"
       style="fill:#006c35;fill-opacity:1;stroke:none;stroke-width:1;stroke-miterlimit:4;stroke-dasharray:none;stroke-opacity:1"
       id="rect2220" />
    <path
       d="M 270.13969,316.30676 C 275.56256,313.02398 280.47256,308.46927 281.05079,306.18517 C 281.62904,303.90107 283.66947,301.92607 285.58507,301.79629 C 287.50067,301.66651 294.70655,301.27484 301.5981,300.9259 C 314.13638,300.29103 318.5119,297.55361 316.33878,291.7038 C 315.02753,288.17413 307.35547,289.86777 303.81364,294.46878 C 302.11925,296.66986 300.86756,296.81991 299.13449,295.02971 C 297.4014,293.23949 295.01099,293.3377 290.19837,295.39687 C 284.56964,297.80521 283.07734,297.69297 279.78317,294.61352 C 274.89925,290.04794 269.64283,290.00713 267.96567,294.52178 C 266.19213,299.29594 268.19471,302.03226 273.46228,302.03226 C 277.06474,302.03226 277.397,302.61131 275.29542,305.22704 C 272.37725,308.85911 252.69613,320.69394 246.35743,322.62825 C 244.04677,323.33339 246.23407,323.54244 251.21809,323.09286 C 256.20212,322.64328 264.71684,319.58951 270.13969,316.30676 z M 336.27157,304.19222 C 343.70019,297.11902 346.64216,295.61698 350.90341,296.72176 C 354.93753,297.76761 356.2371,297.24134 356.2371,294.5618 C 356.2371,291.97709 354.20599,291.01905 348.72624,291.01905 C 342.88318,291.01905 339.08548,293.047 331.62378,300.15167 C 321.14549,310.12863 317.76984,309.94667 321.54752,299.60854 C 323.40977,294.51228 323.38714,293.15147 321.45122,293.81532 C 318.02031,294.99182 314.7644,305.08698 316.39776,309.48378 C 318.64978,315.54585 326.55915,313.43993 336.27157,304.19222 z M 376.62981,290.17689 C 374.90175,266.022 373.99776,262.38468 369.72252,262.38468 C 367.3863,262.38468 366.77804,263.81713 367.61808,267.34063 C 368.26794,270.0664 369.40858,280.22609 370.15283,289.91772 C 371.76308,310.88627 372.50077,313.8131 375.66618,311.79228 C 377.33609,310.7262 377.62933,304.14834 376.62981,290.17689 z M 399.09688,308.48374 C 404.39183,304.58911 405.48046,304.41098 406.54097,307.2657 C 408.97014,313.80468 473.51651,308.25872 473.51651,301.51101 C 473.51651,300.58625 470.39794,299.73081 466.58636,299.61006 C 462.77478,299.48931 457.25732,298.65739 454.32533,297.76136 C 449.30675,296.22766 449.51884,295.96405 457.94551,293.26147 C 468.71765,289.80667 471.16026,285.21488 464.01487,281.85191 C 457.69245,278.87627 451.29104,281.0088 452.97099,285.53101 C 453.64225,287.33797 453.39145,288.8164 452.41361,288.8164 C 451.4358,288.8164 448.02658,290.93645 444.83756,293.52761 C 438.42227,298.74021 440.24722,301.7694 450.06063,302.1972 C 454.70538,302.39966 454.47362,302.70255 448.25983,304.55048 C 442.7603,306.18601 439.9714,305.88847 436.07382,303.2505 C 429.82978,299.0244 424.64899,298.99836 419.31645,303.16631 C 414.97093,306.56281 409.54592,304.17087 409.54592,298.85839 C 409.54592,291.4042 402.67252,273.3979 399.8271,273.3979 C 396.59392,273.3979 397.05202,278.63068 401.33568,290.63065 C 402.81387,294.77149 401.97118,296.97968 396.92278,302.19453 C 387.36201,312.07046 380.63079,310.36658 386.2628,299.49616 C 387.53061,297.04913 387.93194,294.3901 387.15464,293.58717 C 384.80438,291.15944 379.69298,300.25061 379.69298,306.85854 C 379.69298,312.30695 380.48093,313.04548 386.29396,313.04548 C 389.9245,313.04548 395.6858,310.9927 399.09688,308.48374 z M 241.69163,307.84288 C 254.80304,302.11048 256.45762,298.20761 254.78792,276.95116 C 253.85975,265.13484 252.18882,257.06539 250.34241,255.4825 C 248.7153,254.08764 246.9164,253.42942 246.34485,254.01982 C 245.53846,254.85277 248.14212,279.55874 250.33542,291.88609 C 250.52803,292.96869 246.72709,296.78662 241.88885,300.37039 C 234.29155,305.99786 232.44336,306.5277 228.33444,304.25618 C 224.53084,302.15347 223.82547,300.34167 224.81687,295.22123 C 225.73762,290.46576 225.24701,288.8164 222.91174,288.8164 C 218.98925,288.8164 218.52172,304.27065 222.32534,308.19966 C 225.7003,311.68587 233.21855,311.54735 241.69163,307.84288 z M 206.04159,281.36631 C 204.3201,257.30319 203.40504,253.57411 199.22178,253.57411 C 197.1945,253.57411 196.41027,254.98561 197.08014,257.42874 C 197.66144,259.54878 198.83548,268.71728 199.68913,277.80319 C 201.14889,293.34037 202.12224,302.25233 202.53,303.81424 C 202.62773,304.18861 203.78109,303.80964 205.09301,302.97209 C 206.74455,301.91775 207.03635,295.27125 206.04159,281.36631 z M 175.91366,300.33942 C 177.0558,299.61028 180.91291,298.94949 184.48502,298.87101 C 190.77009,298.7329 190.96614,298.42008 190.55815,289.18085 C 190.09344,278.65735 186.29874,271.84557 182.87258,275.38464 C 181.4887,276.81416 181.67693,279.82354 183.4225,284.17665 C 184.8822,287.81684 185.61664,292.08455 185.05459,293.66041 C 184.49253,295.23629 182.84306,291.8175 181.3891,286.0631 C 177.90331,272.26726 172.27084,271.50568 173.24395,284.96178 C 173.76199,292.12524 173.17,294.32301 170.7224,294.32301 C 168.45852,294.32301 167.61945,292.19596 167.85097,287.04389 C 168.29348,277.19662 162.47117,278.33841 158.81237,288.8164 C 156.71834,294.81325 156.08435,295.42482 155.95816,291.56971 C 155.72009,284.29673 151.53122,285.51253 151.53122,292.85457 C 151.53122,296.28704 152.09097,299.67361 152.7751,300.38028 C 154.41453,302.07376 173.24909,302.0405 175.91366,300.33942 z M 185.64887,268.02129 C 185.64887,263.85127 182.59565,262.04272 178.37806,263.71451 C 172.97083,265.85786 174.35493,271.19526 180.31799,271.19526 C 183.53795,271.19526 185.64887,269.93843 185.64887,268.02129 z M 189.66807,253.85669 C 186.73228,252.84583 168.59005,262.49565 168.59005,265.06805 C 168.59005,265.98878 173.91617,264.04383 180.42588,260.74592 C 186.93559,257.44801 191.09458,254.34786 189.66807,253.85669 z M 374.81187,238.98733 C 372.72978,236.83658 362.63416,240.95704 362.63416,243.95757 C 362.63416,246.56499 363.72076,246.49889 369.22937,243.55636 C 372.85674,241.61874 375.36887,239.56268 374.81187,238.98733 z M 332.81027,227.06999 C 335.25676,220.96894 335.80224,220.68244 339.10084,223.76603 C 344.22599,228.55713 355.57686,228.12711 358.21146,223.04204 C 360.57145,218.487 358.8343,183.02515 356.02083,178.32279 C 354.86199,176.38593 353.57144,176.15142 352.15027,177.61945 C 350.75274,179.06307 350.70736,184.74792 352.0186,194.12086 C 355.97237,222.38293 353.64025,229.1307 343.72015,218.1317 C 338.23676,212.05195 333.04762,213.41709 328.53064,222.12772 C 324.5571,229.79032 322.11946,229.46369 322.11946,221.26868 C 322.11946,218.44195 321.1599,216.12918 319.98711,216.12918 C 317.63339,216.12918 317.11926,224.80224 319.14907,230.2662 C 321.43741,236.42609 329.84753,234.45845 332.81027,227.06999 z M 237.87401,204.52551 C 236.31825,183.0905 234.26279,175.85686 230.84927,179.80398 C 229.74753,181.07797 230.04209,191.62624 231.55613,205.11596 C 234.66535,232.81843 234.16943,230.76691 237.0402,227.80151 C 238.63902,226.14999 238.90488,218.72843 237.87401,204.52551 z M 304.12982,206.47646 C 302.42848,182.69492 301.48061,178.68424 297.56145,178.68424 C 295.94054,178.68424 290.16364,185.12698 284.72385,193.00142 C 279.28407,200.87587 274.03164,207.31861 273.05178,207.31861 C 269.82711,207.31861 258.11179,195.94668 259.29655,193.96655 C 260.7222,191.58374 250.0077,188.55094 247.92089,190.74661 C 247.09591,191.61462 251.32014,196.99011 257.30806,202.69214 C 266.91248,211.83798 268.07734,213.88909 267.19474,220.10093 C 266.35521,226.00946 266.87734,227.14239 270.43988,227.14239 C 276.01153,227.14239 279.58009,222.47466 279.05156,215.87817 C 278.79263,212.64638 281.91352,206.01259 287.04592,198.8853 L 295.46505,187.19379 L 297.23827,205.51611 C 299.36546,227.49601 300.04511,230.08435 303.16619,228.09184 C 304.8361,227.02576 305.12934,220.44789 304.12982,206.47646 z M 372.21224,204.52551 C 370.65647,183.0905 368.60101,175.85686 365.1875,179.80398 C 364.08576,181.07797 364.38032,191.62624 365.89435,205.11596 C 369.00358,232.81843 368.50766,230.76691 371.37842,227.80151 C 372.97724,226.14999 373.2431,218.72843 372.21224,204.52551 z M 207.89895,225.44955 C 209.04109,224.72041 212.8982,224.05962 216.47031,223.98114 C 222.10565,223.85731 223.0384,222.96405 223.51942,217.2305 C 224.14684,209.75164 220.1819,200.4626 215.71123,198.93764 C 212.69178,197.90768 212.94468,201.67147 216.85255,215.92295 C 217.81757,219.44227 217.53891,220.73364 216.02326,219.76603 C 214.76775,218.96452 213.09293,214.34917 212.3014,209.50971 C 211.35101,203.699 209.74706,200.71068 207.57862,200.71068 C 204.95842,200.71068 204.56251,202.43883 205.61908,209.26407 C 206.54164,215.2236 206.05315,218.58048 204.00828,220.33351 C 200.1907,223.60625 197.88725,218.08201 199.79521,210.22951 C 202.02684,201.0449 193.8324,204.5936 191.25048,213.9299 C 189.45043,220.4389 188.99248,220.86602 188.30202,216.67984 C 187.85245,213.95407 186.59179,211.72389 185.50056,211.72389 C 183.3505,211.72389 182.72345,223.38634 184.76039,225.49041 C 186.39982,227.18389 205.23439,227.15063 207.89895,225.44955 z M 411.43713,225.1403 C 413.29485,223.92506 413.98371,220.98585 413.28969,217.23574 C 412.41765,212.52355 414.37777,208.27311 422.59334,197.06101 C 428.318,189.24839 433.0018,181.91754 433.0018,180.77024 C 433.0018,175.64344 428.37562,179.74941 419.22094,193.00142 C 413.78116,200.87587 408.01436,207.31861 406.40582,207.31861 C 404.79726,207.31861 400.19579,203.35385 396.18033,198.50803 C 389.50434,190.45156 381.82533,186.80755 381.82533,191.69599 C 381.82533,192.79518 386.4884,198.02522 392.18774,203.31831 C 401.33721,211.81565 402.43203,213.77317 401.5413,220.04225 C 400.71169,225.88109 401.23836,227.1364 404.5061,227.10867 C 406.69162,227.09013 409.81057,226.20435 411.43713,225.1403 z M 217.25742,192.63329 C 216.41695,188.15679 213.3007,186.91456 209.36466,189.487 C 205.50195,192.01152 208.20168,196.30539 213.65166,196.30539 C 216.51513,196.30539 217.71705,195.08136 217.25742,192.63329 z M 220.43444,179.28133 C 219.19654,178.8551 213.74665,180.94334 208.32356,183.92187 C 202.90048,186.9004 199.61153,189.7327 201.01478,190.21588 C 202.41804,190.69905 207.86793,188.6108 213.12566,185.57534 C 218.38339,182.53987 221.67233,179.70757 220.43444,179.28133 z "
       style="fill:#ffffff;fill-opacity:1"
       id="path2288" />
    <rect
       width="125"
       height="500"
       x="4.2968747e-07"
       y="4.3554689e-07"
       style="opacity:1;fill:#ffffff;fill-opacity:1;stroke:none;stroke-width:1;stroke-miterlimit:4;stroke-dasharray:none;stroke-opacity:1"
       id="rect2282" />
  </g>
</svg>
