<?xml version="1.0" encoding="UTF-8"?>
<!DOCTYPE svg PUBLIC "-//W3C//DTD SVG 1.1//EN" "http://www.w3.org/Graphics/SVG/1.1/DTD/svg11.dtd">
<svg xmlns="http://www.w3.org/2000/svg" version="1.1" width="750" height="500">
<rect width="750" height="500" x="0" y ="0" style="fill:#007fff" />
<path d="m 265,224 84,0 26,-84 26,84 84,0 -68,52 26,84 -68,-52 -68,52 26,-84 -68,-52 z M 28,43.2 53.2,43.2 61,18 68.8,43.2 94,43.2 73.6,58.8 81.4,84 61,68.4 40.6,84 48.4,58.8 28,43.2 z m 0,80 25.2,0 L 61,98 68.8,123.2 94,123.2 73.6,138.8 81.4,164 61,148.4 40.6,164 48.4,138.8 28,123.2 z m 0,80 25.2,0 7.8,-25.2 7.8,25.2 25.2,0 L 73.6,218.8 81.4,244 61,228.4 40.6,244 48.4,218.8 28,203.2 z m 0,80 25.2,0 7.8,-25.2 7.8,25.2 25.2,0 L 73.6,298.8 81.4,324 61,308.4 40.6,324 48.4,298.8 28,283.2 z m 0,80 25.2,0 7.8,-25.2 7.8,25.2 25.2,0 L 73.6,378.8 81.4,404 61,388.4 40.6,404 48.4,378.8 28,363.2 z m 0,80 25.2,0 7.8,-25.2 7.8,25.2 25.2,0 L 73.6,458.8 81.4,484 61,468.4 40.6,484 48.4,458.8 28,443.2" style="fill:#ffc61e" />
</svg>