<?xml version="1.0" encoding="UTF-8" standalone="no"?>
<!-- Created with Inkscape (http://www.inkscape.org/) -->
<svg
   xmlns:svg="http://www.w3.org/2000/svg"
   xmlns="http://www.w3.org/2000/svg"
   version="1.0"
   x="0.0000000"
   y="0.0000000"
   width="744.09448"
   height="496.06299"
   id="svg548">
  <defs
     id="defs550" />
  <rect
     width="744.09448"
     height="496.06302"
     x="-0.0017277366"
     y="0.0053541120"
     style="font-size:12.000000px;fill:#ce1021;fill-opacity:1.0000000;fill-rule:evenodd;stroke-width:1.0000000pt"
     id="rect551" />
  <path
     d="M 743.93750,0.0000000 L -0.0000000,0.0000000 L -0.0000000,369.21875 L 743.93750,0.0000000 z "
     style="font-size:12.000000px;fill:#0039a5;fill-opacity:1.0000000;fill-rule:evenodd;stroke-width:1.0000000pt"
     id="path10978" />
  <path
     d="M 744.09375,126.87500 L 0.21875000,496.06250 L 744.09375,496.06250 L 744.09375,126.87500 z "
     style="font-size:12.000000px;fill:#0039a5;fill-opacity:1.0000000;fill-rule:evenodd;stroke-width:1.0000000pt"
     id="path10971" />
  <path
     d="M 164.62698,193.35088 L 112.39345,153.36102 L 60.048440,193.18915 L 80.050980,128.55822 L 27.878061,88.480857 L 92.473857,88.526608 L 112.57421,23.929294 L 132.49406,88.588492 L 197.08969,88.742534 L 144.80506,128.65838 L 164.62698,193.35088 z "
     style="font-size:12.000000px;opacity:1.0000000;fill:#f7d618;fill-opacity:1.0000000;fill-rule:evenodd;stroke-width:1.0000000pt"
     id="polygon555" />
  <path
     d="M 0.0000000,438.03156 L 0.0000000,-0.00014500000 L 0.0000000,-0.00014500000 L 658.53190,-0.00014500000"
     style="font-size:12.000000px;opacity:0.37912086;fill:none;fill-opacity:1.0000000;fill-rule:evenodd;stroke-width:1.0000000pt"
     id="path2078" />
  <path
     d="M 743.93750,0.0000000 L -0.0000000,369.21875 L -0.0000000,387.28125 L 744.09375,17.250000 L 744.09375,0.0000000 L 743.93750,0.0000000 z "
     style="font-size:12.000000px;fill:#0039a5;fill-opacity:1.0000000;fill-rule:evenodd;stroke-width:1.0000000pt"
     id="rect10973" />
  <path
     d="M 658.53190,-0.00014500000 L 744.09448,-0.00014500000 L 744.09448,496.06287 L 0.0000000,496.06287 L 0.0000000,438.03156"
     style="font-size:12.000000px;opacity:0.37912086;fill:none;fill-opacity:1.0000000;fill-rule:evenodd;stroke-width:1.0000000pt"
     id="rect2060" />
  <path
     d="M -0.0052917930,369.23082 L 744.12977,-0.086562647 L 744.10536,17.237199 L -0.016640318,387.28757 L -0.0052917930,369.23082 z "
     style="opacity:1.0000000;fill:#f7d618;fill-opacity:1.0000000;fill-rule:evenodd;stroke:none;stroke-width:0.25000000pt;stroke-linecap:butt;stroke-linejoin:miter;stroke-opacity:1.0000000"
     id="path8693" />
  <path
     d="M 744.09375,108.81250 L 0.062500000,478.84375 L 0.031250000,496.06250 L 0.21875000,496.06250 L 744.09375,126.87500 L 744.09375,108.81250 z "
     style="font-size:12.000000px;fill:#0039a5;fill-opacity:1.0000000;fill-rule:evenodd;stroke-width:1.0000000pt"
     id="path10969" />
  <path
     d="M 744.16096,126.84058 L 0.025904418,496.15796 L 0.050314418,478.83420 L 744.17231,108.78383 L 744.16096,126.84058 z "
     style="opacity:1.0000000;fill:#f7d618;fill-opacity:1.0000000;fill-rule:evenodd;stroke:none;stroke-width:0.25000000pt;stroke-linecap:butt;stroke-linejoin:miter;stroke-opacity:1.0000000"
     id="path10962" />
</svg>
