<?xml version="1.0" encoding="UTF-8" standalone="no"?>
<!-- Created with Inkscape (http://www.inkscape.org/) -->
<svg
   xmlns:dc="http://purl.org/dc/elements/1.1/"
   xmlns:cc="http://creativecommons.org/ns#"
   xmlns:rdf="http://www.w3.org/1999/02/22-rdf-syntax-ns#"
   xmlns:svg="http://www.w3.org/2000/svg"
   xmlns="http://www.w3.org/2000/svg"
   xmlns:sodipodi="http://sodipodi.sourceforge.net/DTD/sodipodi-0.dtd"
   xmlns:inkscape="http://www.inkscape.org/namespaces/inkscape"
   width="864"
   height="432"
   id="svg2"
   sodipodi:version="0.32"
   inkscape:version="0.46"
   version="1.0"
   sodipodi:docname="Flag of Kelantan (1912 - 1923).svg"
   inkscape:output_extension="org.inkscape.output.svg.inkscape">
  <defs
     id="defs4">
    <inkscape:perspective
       sodipodi:type="inkscape:persp3d"
       inkscape:vp_x="0 : 526.18109 : 1"
       inkscape:vp_y="0 : 1000 : 0"
       inkscape:vp_z="744.09448 : 526.18109 : 1"
       inkscape:persp3d-origin="372.04724 : 350.78739 : 1"
       id="perspective10" />
    <inkscape:perspective
       id="perspective2390"
       inkscape:persp3d-origin="372.04724 : 350.78739 : 1"
       inkscape:vp_z="744.09448 : 526.18109 : 1"
       inkscape:vp_y="0 : 1000 : 0"
       inkscape:vp_x="0 : 526.18109 : 1"
       sodipodi:type="inkscape:persp3d" />
    <inkscape:perspective
       id="perspective2444"
       inkscape:persp3d-origin="372.04724 : 350.78739 : 1"
       inkscape:vp_z="744.09448 : 526.18109 : 1"
       inkscape:vp_y="0 : 1000 : 0"
       inkscape:vp_x="0 : 526.18109 : 1"
       sodipodi:type="inkscape:persp3d" />
    <inkscape:perspective
       id="perspective2457"
       inkscape:persp3d-origin="372.04724 : 350.78739 : 1"
       inkscape:vp_z="744.09448 : 526.18109 : 1"
       inkscape:vp_y="0 : 1000 : 0"
       inkscape:vp_x="0 : 526.18109 : 1"
       sodipodi:type="inkscape:persp3d" />
  </defs>
  <sodipodi:namedview
     id="base"
     pagecolor="#ffffff"
     bordercolor="#666666"
     borderopacity="1.0"
     gridtolerance="10000"
     guidetolerance="10"
     objecttolerance="10"
     inkscape:pageopacity="0.0"
     inkscape:pageshadow="2"
     inkscape:zoom="0.5"
     inkscape:cx="555.38591"
     inkscape:cy="-63.515006"
     inkscape:document-units="px"
     inkscape:current-layer="layer1"
     showgrid="false"
     inkscape:window-width="752"
     inkscape:window-height="750"
     inkscape:window-x="0"
     inkscape:window-y="14">
    <inkscape:grid
       type="xygrid"
       id="grid2400"
       visible="true"
       enabled="true" />
  </sodipodi:namedview>
  <metadata
     id="metadata7">
    <rdf:RDF>
      <cc:Work
         rdf:about="">
        <dc:format>image/svg+xml</dc:format>
        <dc:type
           rdf:resource="http://purl.org/dc/dcmitype/StillImage" />
      </cc:Work>
    </rdf:RDF>
  </metadata>
  <g
     inkscape:label="Layer 1"
     inkscape:groupmode="layer"
     id="layer1"
     transform="translate(1.7142862,217.35211)">
    <rect
       style="fill:#ffffff;fill-opacity:1;stroke:none;stroke-width:0.40000001;stroke-linecap:square;stroke-linejoin:round;stroke-miterlimit:4;stroke-dasharray:none;stroke-opacity:1"
       id="rect2463"
       width="864"
       height="432"
       x="-1.7142862"
       y="-217.35211" />
    <path
       style="fill:#00396b;fill-opacity:1"
       d="M 0,0 L 0,34 L 0,432 L 34,432 L 34,403.375 C 34,383.79722 34.7321,374.0179 36.375,372.375 C 37.69498,371.055 42.18962,370 46.3125,370 C 52.4555,370 56.01446,371.89546 66.125,380.5 C 84.99414,396.5585 96.790547,401.81672 108,404 C 112.47895,404.87237 116,405 130.53125,405 L 161,405 L 703,405 L 733.46875,405 C 748,405 751.52105,404.87237 756,404 C 767.20946,401.81672 779.00586,396.5585 797.875,380.5 C 807.98554,371.89546 811.5445,370 817.6875,370 C 821.81038,370 826.30502,371.055 827.625,372.375 C 829.2679,374.0179 830,383.79722 830,403.375 L 830,432 L 864,432 L 864,34 L 864,0 L 830,0 L 34,0 L 0,0 z M 34,34 L 830,34 L 830,335 L 816.3125,335 C 803.31832,335 802.27932,334.68804 797.125,328.5625 C 791.5927,321.98773 778.26052,316.71242 772.625,318.875 C 771.01136,319.49421 766.56742,317.59922 762.75,314.6875 C 753.08146,307.31295 739.41784,306.28352 730,312.1875 L 723,316.5625 L 732.3125,318.9375 C 745.71962,322.34425 751.50248,326.82975 754.25,336 C 758.79166,351.15872 751.17949,367.06984 735.75,370.9375 C 732.6762,371.708 723.99826,371.97979 723.875,372 L 140.125,372 C 140.00174,371.97979 131.3238,371.708 128.25,370.9375 C 112.82051,367.06984 105.20834,351.15872 109.75,336 C 112.49752,326.82975 118.28038,322.34425 131.6875,318.9375 L 141,316.5625 L 134,312.1875 C 124.58216,306.28352 110.91854,307.31295 101.25,314.6875 C 97.43258,317.59922 92.98864,319.49421 91.375,318.875 C 85.73948,316.71242 72.4073,321.98773 66.875,328.5625 C 61.72068,334.68804 60.68168,335 47.6875,335 L 34,335 L 34,34 z"
       transform="translate(-1.7142862,-217.35211)"
       id="path2396"
       sodipodi:nodetypes="cccccssssccccssssccccccccccccssscccssccsscccsssccc" />
    <path
       style="fill:#00396b;fill-opacity:1"
       d="M 262.89567,153.28611 C 265.21031,149.52963 255.12315,139.86025 250.83909,141.72887 C 248.88473,142.58131 246.08179,143.07925 244.61033,142.83537 C 242.69357,142.51771 242.33855,143.70429 243.35833,147.01995 C 244.70501,151.39853 244.55283,151.36147 240.53371,146.33243 C 235.34269,139.83699 235.32909,139.22137 240.13929,128.47747 C 243.55265,120.85345 243.86925,116.65901 242.91069,91.759052 L 241.82851,63.647892 L 248.05711,51.944792 C 251.48283,45.508092 254.28571,38.260492 254.28571,35.839012 C 254.28571,33.417512 250.68571,23.991952 246.28571,14.893312 C 239.37345,0.59967182 238.29169,-3.4650082 238.32963,-15.000888 C 238.40943,-39.253668 249.22657,-53.328328 267.79893,-53.344628 C 274.23599,-53.350288 277.30385,-52.211588 280.37849,-48.675428 C 284.02287,-44.484028 285.16291,-44.223508 291.36527,-46.164808 C 297.06065,-47.947428 298.28571,-49.306368 298.28571,-53.841488 C 298.28571,-61.884128 304.71529,-67.352108 314.17231,-67.352108 C 323.60667,-67.352108 328.88915,-61.624828 326.96291,-53.484448 C 324.76703,-44.204448 320.34575,-41.043008 310.52305,-41.729088 L 301.60303,-42.352108 L 299.07469,-32.550688 C 295.25377,-17.738328 289.68521,-15.644908 279.96383,-25.366308 C 272.98943,-32.340688 270.92307,-31.783348 269.17321,-22.455828 C 265.47611,-2.7486082 280.83649,-0.27834818 294.94857,-18.310648 C 302.26877,-27.664348 320.78793,-36.294428 326.72329,-33.117928 C 329.61765,-31.568908 332.14093,-31.555348 335.46727,-33.070928 C 338.41969,-34.416148 340.58123,-34.491988 341.33233,-33.276688 C 343.69605,-29.452108 353.91017,-31.243768 357.77847,-36.161528 C 361.42521,-40.797608 361.64731,-40.833648 363.94059,-37.161528 C 368.56193,-29.761568 376.40703,-35.496908 373.17705,-43.914068 C 372.51741,-45.633088 372.97867,-48.909868 374.20207,-51.195828 C 376.32811,-55.168348 376.65307,-55.203628 381.55227,-51.993548 C 385.69937,-49.276248 387.41319,-49.094048 390.52797,-51.039268 C 395.38319,-54.071388 399.38923,-52.046108 408.49265,-41.957028 C 427.38853,-21.015188 430.39977,-3.7518882 417.42067,9.2272118 C 412.91115,13.736732 408.76089,13.665852 412.77695,9.1478918 C 416.63661,4.8058918 420.26477,-8.0443482 418.97479,-12.803708 C 417.90351,-16.756168 398.94391,-31.352108 394.88107,-31.352108 C 393.18649,-31.352108 392.28571,-28.575568 392.28571,-23.352108 C 392.28571,-15.613188 392.50403,-15.352108 398.97573,-15.352108 C 410.71785,-15.352108 416.18095,-3.8033882 409.17231,6.2028718 C 404.20393,13.296212 395.82509,12.083152 388.73397,3.2438518 L 382.79425,-4.1601682 L 374.75471,-1.5068882 C 362.37393,2.5791318 361.04345,3.7412118 364.28051,7.6416318 C 369.87269,14.379772 381.74139,18.647892 394.88659,18.647892 C 412.70303,18.647892 430.30669,9.9074118 438.49511,-3.0044082 C 443.85267,-11.452408 445.95259,-21.018568 443.08007,-23.891088 C 442.41695,-24.554188 439.67119,-24.259068 436.97833,-23.235248 C 432.98079,-21.715388 431.18329,-22.272708 427.18397,-26.272028 C 421.34667,-32.109328 420.97371,-37.288728 425.94827,-43.432048 C 430.43265,-48.970028 438.08359,-47.736048 445.54887,-40.270788 C 448.25413,-37.565508 451.80487,-35.352108 453.43939,-35.352108 C 455.07391,-35.352108 456.74667,-34.227108 457.15661,-32.852108 C 460.33323,-22.197508 460.40141,-22.178788 464.30111,-30.889028 C 469.41593,-42.313348 475.07163,-44.707908 489.37791,-41.506308 C 501.13093,-38.876088 506.28571,-40.481728 506.28571,-46.772808 C 506.28571,-49.088308 504.59145,-49.417468 498.21653,-48.340428 C 488.52225,-46.702588 484.28571,-49.474188 484.28571,-57.454148 C 484.28571,-69.385768 498.21725,-73.602388 507.37661,-64.443028 C 511.06857,-60.751068 512.28385,-57.403948 512.27823,-50.943028 C 512.26443,-35.071048 502.06137,-24.966908 489.28571,-28.173408 C 484.84975,-29.286748 484.28917,-28.803568 484.31633,-23.890208 C 484.37725,-12.873688 486.62567,-12.792208 502.39641,-23.235128 C 510.58553,-28.657728 519.90261,-35.570368 523.10103,-38.596568 L 528.91633,-44.098728 L 527.51749,-35.225428 C 526.74811,-30.345108 524.31433,-22.869008 522.10905,-18.611888 C 516.76551,-8.2965082 518.69307,-7.0263282 525.05811,-16.668588 C 538.94603,-37.707088 540.49405,-70.500288 527.12163,-60.381828 C 520.91567,-55.685988 516.48149,-56.805828 513.08589,-63.926508 C 509.38665,-71.683908 511.34561,-82.745208 517.02831,-86.187408 C 520.00275,-87.989128 521.74923,-87.038628 527.44385,-80.518888 C 531.20687,-76.210628 534.28571,-71.485628 534.28571,-70.018888 C 534.28571,-66.648348 537.62041,-66.529408 538.96115,-69.852108 C 539.59817,-71.430808 540.02811,-71.141148 540.12781,-69.066088 C 540.36559,-64.117468 546.71865,-62.503228 549.73295,-66.625528 C 552.78265,-70.796248 553.07123,-75.352108 550.28571,-75.352108 C 549.18571,-75.352108 548.28571,-73.498988 548.28571,-71.234088 C 548.28571,-68.969168 547.38571,-67.672268 546.28571,-68.352108 C 545.18571,-69.031948 544.28571,-71.274408 544.28571,-73.335368 C 544.28571,-75.481688 542.36323,-77.668428 539.78571,-78.453908 C 528.17409,-81.992428 524.50437,-92.782268 533.01575,-98.359148 C 541.26907,-103.76693 550.28571,-97.934768 550.28571,-87.188548 C 550.28571,-81.497968 555.27447,-82.541848 558.14051,-88.832128 C 560.55007,-94.120528 560.73613,-94.177108 563.46155,-90.449868 C 565.01483,-88.325628 566.28571,-85.575348 566.28571,-84.338128 C 566.28571,-81.973428 580.23259,-73.352108 584.05801,-73.352108 C 585.36053,-73.352108 586.28571,-77.040888 586.28571,-82.234088 C 586.28571,-87.119168 587.19261,-91.676548 588.30105,-92.361588 C 589.56369,-93.141948 589.25691,-94.666628 587.47963,-96.443908 C 585.91939,-98.004128 584.32343,-100.23897 583.93301,-101.41019 C 583.46489,-102.81461 580.70193,-102.48627 575.81869,-100.44591 C 565.80635,-96.262488 558.74491,-96.551788 546.48261,-101.64777 C 532.10331,-107.62354 524.99879,-105.13045 502.83967,-86.332768 C 481.51157,-68.240028 462.33253,-58.201488 442.92867,-54.974568 C 423.89793,-51.809688 377.07109,-56.820328 352.28571,-64.673688 C 337.97019,-69.209608 331.65377,-70.065808 312.28571,-70.095788 C 289.63179,-70.130848 288.99617,-70.005148 270.04275,-61.741748 C 248.38263,-52.298268 240.27899,-51.358848 234.06667,-57.571148 C 230.44523,-61.192588 229.96253,-63.594728 230.65883,-74.530008 C 231.78081,-92.150408 238.80807,-101.98057 256.87491,-111.20279 C 269.14549,-117.46629 272.13811,-118.12759 291.79075,-118.91838 C 316.69775,-119.92059 335.48579,-116.24821 367.75073,-104.07097 C 392.02125,-94.910928 406.28773,-91.423628 419.65551,-91.383348 C 432.97037,-91.343248 440.79931,-94.235588 439.88749,-98.857948 C 439.12247,-102.73623 431.66799,-103.14981 412.84847,-100.35809 C 404.63295,-99.139388 401.34855,-99.506128 397.41885,-102.08097 C 394.67303,-103.88009 388.70865,-105.35211 384.16467,-105.35211 C 373.99475,-105.35211 365.21245,-110.28635 362.12783,-117.73326 C 360.35423,-122.01512 358.45703,-123.35211 354.15459,-123.35211 C 351.02749,-123.35211 346.00533,-125.53518 342.89723,-128.24553 L 337.28571,-133.13896 L 345.28571,-130.33332 C 349.68571,-128.79022 354.25461,-127.48818 355.43883,-127.4399 C 357.71727,-127.347 370.24109,-161.78488 370.34931,-168.44063 C 370.41117,-172.24463 370.49085,-172.24921 373.24879,-168.60733 C 375.89201,-165.11695 377.20789,-165.02679 392.61869,-167.28015 C 401.71241,-168.60982 411.58743,-170.95678 414.56317,-172.49559 L 419.97361,-175.29345 L 421.37547,-162.20313 C 422.42123,-152.43795 423.46067,-149.37503 425.46747,-150.14511 C 429.98333,-151.87801 430.71031,-147.65117 426.36331,-144.93643 C 424.12063,-143.53586 422.28571,-140.64954 422.28571,-138.52239 C 422.28571,-134.92027 422.62885,-134.97721 427.28571,-139.35211 C 432.63115,-144.37388 433.65045,-151.06503 430.08493,-157.72727 C 428.29861,-161.06505 428.65023,-162.60551 431.95207,-165.90736 L 436.01997,-169.97526 L 438.82787,-163.16369 C 441.15333,-157.52241 441.17615,-156.24101 438.96073,-155.70547 C 436.43881,-155.09583 435.02043,-149.35211 437.39181,-149.35211 C 438.00017,-149.35211 441.80909,-151.60211 445.85609,-154.35211 C 453.57449,-159.59691 459.21495,-160.70267 461.27203,-157.37426 C 462.98659,-154.60003 457.01937,-142.73862 451.12193,-137.19825 L 446.18351,-132.55885 L 450.70677,-140.81666 C 453.19455,-145.35846 454.58585,-149.71865 453.79851,-150.50597 C 453.01119,-151.2933 448.74873,-149.54299 444.32637,-146.61641 C 435.88015,-141.02697 433.32315,-132.91691 439.28571,-130.62886 C 443.37661,-129.05904 443.07255,-120.67561 438.78571,-116.8426 C 434.26603,-112.8014 430.81953,-112.23574 422.56971,-114.18112 C 417.71221,-115.32657 413.69969,-114.79348 408.06971,-112.25472 C 392.25781,-105.12454 401.09715,-101.25907 421.56101,-106.35493 C 433.19725,-109.25256 437.28903,-109.53703 441.26623,-107.7249 C 446.25893,-105.45007 447.93787,-98.918188 444.75509,-94.151528 C 437.23519,-82.889428 405.10617,-85.636608 359.19563,-101.46723 C 324.45541,-113.44616 288.06445,-116.16932 268.78649,-108.2326 C 252.48571,-101.52157 239.21369,-84.400768 240.64529,-71.930608 C 241.21599,-66.959388 242.04771,-66.376208 248.28571,-66.573508 C 252.13571,-66.695268 261.76989,-69.187188 269.69501,-72.111088 C 300.47763,-83.468108 322.29907,-82.970628 370.24449,-69.818768 C 395.20429,-62.972068 399.36733,-62.399228 424.32967,-62.376608 C 450.86337,-62.352568 451.61809,-62.474628 464.32967,-68.845228 C 471.45549,-72.416428 482.36047,-80.177248 488.56297,-86.091468 C 499.23051,-96.263228 499.64411,-97.012508 496.21297,-99.950348 C 493.98665,-101.85657 490.78977,-102.58737 487.93571,-101.84249 C 483.50639,-100.68647 483.45181,-100.79517 486.78571,-104.13335 C 490.16111,-107.51307 490.57333,-109.92917 491.06159,-129.19552 C 491.26113,-137.06876 491.88909,-138.20169 496.78571,-139.52256 C 501.69053,-140.84563 502.28571,-140.47704 502.28571,-136.11638 C 502.28571,-133.42699 503.67453,-130.69364 505.37197,-130.04227 C 510.10411,-128.22637 511.31159,-130.90358 507.60679,-134.99733 C 505.78019,-137.01569 504.31307,-140.39621 504.34653,-142.5096 C 504.40301,-146.07807 504.55273,-146.1025 506.44591,-142.85211 C 507.64663,-140.79059 510.87089,-139.35211 514.29099,-139.35211 C 524.99661,-139.35211 534.47559,-132.51344 531.17417,-127.17163 C 530.55567,-126.1709 528.69965,-125.35211 527.04965,-125.35211 C 525.39965,-125.35211 524.52201,-124.58781 525.09935,-123.65367 C 525.67667,-122.71952 531.94799,-124.87382 539.03559,-128.44099 C 553.82165,-135.88277 567.72545,-138.39689 579.48389,-135.75494 C 586.17303,-134.25199 588.04933,-134.5033 589.78557,-137.1347 C 591.70537,-140.04434 592.18199,-139.99143 594.76803,-136.58163 C 596.34079,-134.50787 597.24005,-130.78372 596.76635,-128.30575 C 595.20433,-120.13459 599.47175,-115.98895 613.98169,-111.58169 C 621.55899,-109.28016 628.67545,-106.26196 629.79603,-104.8746 C 632.89189,-101.04169 635.06467,-85.352108 632.49961,-85.352108 C 631.32387,-85.352108 629.79721,-83.102108 629.10699,-80.352108 C 627.66851,-74.620708 625.82989,-74.081628 622.28571,-78.352108 C 619.19693,-82.073848 616.28571,-82.229628 616.28571,-78.673148 C 616.28571,-71.722828 635.70523,-69.207808 650.11509,-74.291908 C 659.47637,-77.594768 659.30123,-75.014208 649.83175,-70.117368 C 643.60495,-66.897348 627.62503,-67.002368 619.75973,-70.314968 C 617.00505,-71.475168 615.75595,-70.429308 614.04937,-65.533848 C 610.31139,-54.811048 597.29879,-51.576508 591.19169,-59.852108 C 588.92963,-62.917388 587.56123,-63.543648 586.89971,-61.816408 C 583.35759,-52.567708 568.80523,-50.078828 563.39911,-57.797128 C 561.68675,-60.241888 560.28571,-64.794988 560.28571,-67.915168 C 560.28571,-71.187888 559.43949,-73.065188 558.28571,-72.352108 C 557.18571,-71.672268 556.28571,-68.961508 556.28571,-66.328188 C 556.28571,-58.468408 552.06691,-51.352108 547.40733,-51.352108 C 543.71409,-51.352108 542.89421,-49.594128 541.01165,-37.638388 C 539.82399,-30.095828 536.72361,-19.662428 534.12191,-14.453028 C 529.70889,-5.6168082 519.73863,5.1635918 514.30407,6.9751118 C 512.97711,7.4174318 512.23195,10.322072 512.61027,13.577712 C 513.24413,19.032712 514.20355,18.167252 528.19533,-0.48076818 C 545.38999,-23.397548 558.87475,-37.485528 568.26229,-42.340008 C 571.88335,-44.212528 582.54717,-46.446528 591.95965,-47.304428 C 607.07339,-48.681968 609.56187,-49.477048 613.25461,-54.108188 C 615.55435,-56.992348 618.52717,-59.352108 619.86083,-59.352108 C 621.19451,-59.352108 622.28571,-60.702108 622.28571,-62.352108 C 622.28571,-64.002108 623.18571,-65.352108 624.28571,-65.352108 C 629.11087,-65.352108 623.57727,-46.245008 617.68649,-42.565428 C 615.26605,-41.053568 607.27005,-39.243088 599.91759,-38.542148 C 584.79223,-37.100208 571.34169,-32.890948 565.58983,-27.799448 C 559.16321,-22.110688 516.28571,32.110032 516.28571,34.548032 C 516.28571,44.333232 536.30065,68.410192 555.00817,81.129152 C 565.02387,87.938672 567.78925,88.927272 574.00161,87.919152 C 578.00065,87.270192 582.33445,85.287052 583.63227,83.512172 C 586.01895,80.248192 594.28571,81.107132 594.28571,84.619092 C 594.28571,85.554992 594.88865,87.891992 595.62559,89.812412 C 596.53909,92.192972 596.22089,92.843892 594.62559,91.857952 C 591.51281,89.934152 591.62771,93.180772 594.78571,96.382532 C 596.78779,98.412352 596.66353,99.388272 594.16177,101.28253 C 592.44359,102.58347 590.44685,105.22289 589.72453,107.14789 C 589.00223,109.07289 587.51125,110.64789 586.41125,110.64789 C 585.31125,110.64789 584.85281,109.49721 585.39249,108.09085 C 586.11647,106.20415 584.26163,105.73521 578.31717,106.30211 C 569.66187,107.12753 566.10061,110.06135 570.47343,112.76391 C 572.63055,114.09707 572.48095,114.69851 569.72965,115.75427 C 564.38853,117.80387 560.66957,115.43813 557.56963,108.01891 C 555.15545,102.24099 551.34919,99.488012 532.31001,89.749232 C 507.81443,77.219432 496.47941,68.310332 491.39129,57.587892 C 488.49635,51.487272 487.41485,50.782672 482.68571,51.916232 C 479.71571,52.628132 477.07459,53.370112 476.81653,53.565092 C 476.55849,53.760052 476.18735,60.158432 475.99177,67.783732 C 475.67533,80.121232 476.45899,83.330572 483.10841,96.929052 C 493.65507,118.49759 496.37643,120.98787 508.98989,120.61293 C 523.57677,120.17933 523.40717,120.12889 525.92181,125.64789 C 527.81413,129.80107 527.67913,130.64789 525.12479,130.64789 C 523.43347,130.64789 522.58029,131.50651 523.22887,132.55591 C 523.87743,133.60533 523.78475,136.94751 523.02289,139.98301 C 521.77495,144.95517 521.48553,145.11293 520.10227,141.57499 C 518.78159,138.19711 518.54719,138.13739 518.42629,141.14789 C 518.34897,143.07289 517.70993,144.64789 517.00619,144.64789 C 516.30247,144.64789 514.42899,143.07289 512.84293,141.14789 C 510.32179,138.08799 510.08833,138.06397 510.98635,140.95683 C 511.99607,144.20949 508.96857,144.62129 500.37661,142.39999 C 498.77661,141.98633 497.42661,142.89981 497.37661,144.42991 C 497.32661,145.96003 495.73491,148.19015 493.83951,149.38575 C 489.46049,152.14797 485.45115,147.19463 482.42207,135.28011 C 480.98437,129.62509 475.74299,121.62779 466.25439,110.61153 C 448.18039,89.627612 445.78571,84.802392 445.78571,69.367772 C 445.78571,55.474052 447.20597,56.691872 427.28571,53.504732 C 419.22107,52.214412 360.06037,39.290952 354.04949,37.506512 C 351.87045,36.859632 350.01293,38.478012 348.36323,42.460772 C 347.01569,45.713992 343.74699,51.311832 341.09943,54.900372 C 334.68555,63.593892 334.91263,72.312212 341.78571,81.250452 C 344.81071,85.184372 350.75389,93.915832 354.99279,100.65369 C 363.61597,114.36051 369.14887,117.54753 381.46757,115.90353 C 386.42623,115.24177 390.56267,115.72485 391.96757,117.12975 C 395.02031,120.18249 395.04453,127.35293 391.99573,125.46867 C 390.41421,124.49123 390.02007,125.69759 390.72173,129.36813 C 391.50009,133.43985 391.15729,134.20115 389.25599,132.62323 C 387.45193,131.12599 386.50547,131.59153 385.78983,134.32811 C 384.93095,137.61251 383.60515,137.91047 375.39429,136.66437 C 369.15293,135.71717 365.19211,136.01677 363.63445,137.55391 C 355.93021,145.15663 348.28791,140.90105 348.28213,129.00503 C 348.27929,123.13731 345.87389,118.43827 336.40039,105.79357 C 329.86739,97.073692 323.09281,89.139312 321.34575,88.161612 C 319.59869,87.183912 315.77779,82.618352 312.85485,78.015932 C 308.46879,71.109712 307.51815,67.224852 307.41305,55.777452 L 307.28571,41.907032 L 314.78571,37.925472 C 322.28985,33.941712 325.38371,29.025492 318.78571,31.569372 C 316.86071,32.311572 311.45583,33.945832 306.77485,35.201072 C 295.75295,38.156672 293.14805,35.559932 291.67435,20.147892 L 290.57473,8.6478918 L 296.56517,8.6478918 C 302.37279,8.6478918 302.53625,8.9054318 301.92067,17.085032 C 301.40253,23.969912 301.96247,25.659032 304.96413,26.266032 C 306.98727,26.675172 310.75881,25.021792 313.34537,22.591852 C 317.39531,18.787112 318.89589,18.469292 324.15457,20.302492 C 329.38265,22.125012 330.55041,21.890352 332.27333,18.671012 C 335.35339,12.915872 334.99799,12.647892 324.28571,12.647892 C 311.99031,12.647892 306.28571,7.9400718 306.28571,-2.2069482 C 306.28571,-7.2302082 307.69375,-10.169348 311.55543,-13.206948 C 319.19397,-19.215428 324.64939,-18.361628 336.01305,-9.3791682 C 345.31419,-2.0270282 352.28571,-0.44400818 352.28571,-5.6841282 C 352.28571,-6.7313482 353.02343,-7.1322482 353.92507,-6.5749882 C 357.19315,-4.5552082 379.26971,-12.811188 379.96955,-16.314828 C 380.49921,-18.966508 379.71921,-19.441868 376.50991,-18.423268 C 374.23099,-17.699968 370.87229,-17.944348 369.04613,-18.966308 C 366.85297,-20.193668 364.00249,-19.930348 360.64917,-18.190628 C 357.85701,-16.742028 354.66447,-16.118008 353.55465,-16.803928 C 351.75291,-17.917468 344.42043,-18.567188 319.84533,-19.790888 C 311.35121,-20.213848 304.65821,-15.118008 297.88919,-3.0741682 C 291.72217,7.8985718 280.76407,11.513872 269.38595,6.3296518 C 259.62933,1.8842318 259.09055,-18.438688 268.38335,-31.489228 C 271.97819,-36.537728 272.04697,-37.305148 269.16299,-40.189128 C 267.42335,-41.928768 264.77961,-43.352108 263.28801,-43.352108 C 258.78593,-43.352108 252.82865,-33.944048 251.43159,-24.627788 C 249.48351,-11.637028 254.18253,-2.2379682 270.64817,13.809552 C 295.04335,37.585292 295.92529,46.171012 276.39257,69.732052 C 267.93833,79.929852 260.28571,99.564712 260.28571,111.05857 C 260.28571,118.08369 271.55475,130.64789 277.85569,130.64789 C 280.03917,130.64789 283.27917,132.86623 285.05569,135.57753 C 289.00491,141.60479 289.07041,142.64789 285.49969,142.64789 C 283.96737,142.64789 282.19563,143.99789 281.56245,145.64789 C 280.92929,147.29789 279.10801,148.64789 277.51515,148.64789 C 275.92229,148.64789 274.16509,149.77289 273.61027,151.14789 C 272.81573,153.11695 272.56797,153.10717 272.44361,151.10179 C 272.32951,149.26195 270.78149,149.53935 266.86307,152.10179 C 263.88061,154.05215 262.09527,154.58509 262.89567,153.28611 z M 455.70737,43.103412 C 460.32983,39.490972 467.55313,24.647892 464.68867,24.647892 C 463.78077,24.647892 461.00193,27.401732 458.51349,30.767552 C 453.07181,38.127812 447.41991,37.977812 441.72585,30.321992 C 436.83879,23.751212 438.23355,16.358792 445.65865,9.4774318 C 451.77075,3.8129118 462.44203,3.0165318 466.51249,7.9211518 C 468.00661,9.7214318 473.06681,12.839452 477.75739,14.850072 C 486.83777,18.742372 489.27451,21.830072 481.78571,19.954512 C 477.51001,18.883672 477.28243,19.408412 477.21993,30.482272 L 477.15415,42.137072 L 482.71993,40.196832 C 486.87999,38.746632 488.30789,36.916912 488.37349,32.952232 C 488.42177,30.034852 489.73739,24.064432 491.29709,19.684632 C 493.80953,12.629372 493.77739,11.522432 491.01523,9.9766518 C 489.30051,9.0170518 486.02261,6.0755118 483.73097,3.4399118 C 481.43933,0.80429182 477.88577,-1.3521082 475.83413,-1.3521082 C 470.64533,-1.3521082 462.28891,-10.229148 462.27011,-15.761208 C 462.26013,-18.693388 460.45361,-21.187388 457.27011,-22.663948 C 452.44623,-24.901328 452.28509,-24.740288 452.26617,-17.663948 C 452.23879,-7.4155082 444.14559,8.8236118 435.52333,15.930792 C 420.16171,28.593152 389.59305,33.033892 374.91387,24.735612 C 370.71839,22.363872 364.74385,16.862072 361.63715,12.509392 C 358.53045,8.1567318 355.20083,5.0823318 354.23799,5.6773918 C 352.75671,6.5928718 353.76415,26.340972 355.39245,28.307752 C 356.53059,29.682472 388.22607,37.283692 411.28571,41.712092 C 440.65539,47.352272 449.90007,47.641832 455.70737,43.103412 z M 415.53571,37.052392 C 413.77815,34.208612 417.24553,30.768952 420.09473,32.529852 C 421.58163,33.448812 422.17975,35.201292 421.42391,36.424292 C 419.81785,39.022932 416.94309,39.329592 415.53571,37.052392 z M 428.76217,34.324352 C 425.85639,31.418572 427.89191,26.622312 431.45123,27.988152 C 434.55705,29.179972 435.27229,33.802092 432.60587,35.450012 C 431.68197,36.021032 429.95229,35.514472 428.76217,34.324352 z M 457.10603,20.846452 C 461.27025,16.245012 458.42235,13.677992 451.17203,15.497712 C 448.04743,16.281932 446.28571,18.152532 446.28571,20.685992 C 446.28571,25.823772 452.51797,25.916192 457.10603,20.846452 z M 330.28571,2.6478918 C 330.28571,1.5478918 329.03921,0.64789182 327.51573,0.64789182 C 325.99225,0.64789182 323.25271,-1.6307882 321.42787,-4.4158482 C 319.60303,-7.2008882 317.24953,-8.9477682 316.19785,-8.2978082 C 314.01969,-6.9516282 313.60821,1.3037318 315.61905,3.3145518 C 317.73555,5.4310718 330.28571,4.8606118 330.28571,2.6478918 z M 404.28571,-0.28174818 C 404.28571,-3.5973882 396.64761,-8.3835882 394.61441,-6.3419882 C 393.88363,-5.6081882 395.41041,-3.2852682 398.00727,-1.1799482 C 403.67921,3.4183718 404.28571,3.5051318 404.28571,-0.28174818 z M 505.42063,-4.8521082 C 506.57405,-6.7771082 509.69251,-11.935108 512.35053,-16.314348 L 517.18331,-24.276588 L 504.54347,-14.550448 C 495.23955,-7.3912482 492.61385,-4.3742082 494.59467,-3.1188282 C 498.89477,-0.39358818 503.15819,-1.0761682 505.42063,-4.8521082 z M 478.61253,-20.525668 C 479.46173,-31.202848 477.82497,-33.225888 473.42255,-26.940568 C 469.67239,-21.586448 469.41729,-17.020528 472.68571,-13.752108 C 476.73199,-9.7058282 477.85399,-10.988108 478.61253,-20.525668 z M 440.28571,-33.138128 C 440.28571,-35.486868 434.43711,-37.681748 432.07261,-36.220408 C 431.05393,-35.590828 430.73825,-34.237908 431.37113,-33.213908 C 432.84175,-30.834408 440.28571,-30.771128 440.28571,-33.138128 z M 294.53025,-38.955108 C 296.34901,-43.871668 294.31347,-44.578068 288.02509,-41.212628 C 284.78765,-39.480008 284.48941,-38.516528 286.45675,-36.146028 C 289.57287,-32.391308 292.47579,-33.401348 294.53025,-38.955108 z M 318.28571,-53.352108 C 318.28571,-55.897568 316.95237,-57.352108 314.61905,-57.352108 C 309.90069,-57.352108 308.28887,-55.671048 309.63749,-52.156588 C 311.33523,-47.732328 318.28571,-48.693168 318.28571,-53.352108 z M 503.00897,-58.352108 C 502.35275,-60.062168 499.36989,-61.352108 496.07173,-61.352108 C 492.26193,-61.352108 490.28571,-60.327468 490.28571,-58.352108 C 490.28571,-56.262048 492.38985,-55.352108 497.22295,-55.352108 C 502.56769,-55.352108 503.89591,-56.040788 503.00897,-58.352108 z M 578.74767,-66.352108 C 578.17059,-68.497288 568.07427,-71.807348 566.60125,-70.334308 C 566.11419,-69.847268 566.89021,-68.033588 568.32569,-66.303928 C 571.10727,-62.952348 579.65165,-62.991848 578.74767,-66.352108 z M 605.14285,-66.494968 C 608.25319,-69.605308 609.46793,-75.352108 607.01505,-75.352108 C 604.83215,-75.352108 596.64553,-65.658968 597.82893,-64.475548 C 599.70143,-62.603068 601.84197,-63.194088 605.14285,-66.494968 z M 528.56415,-71.418648 C 524.36167,-74.919668 518.28571,-76.750428 518.28571,-74.515688 C 518.28571,-74.055648 517.73943,-72.255648 517.07173,-70.515688 C 516.07713,-67.923808 517.43249,-67.364128 524.57173,-67.418648 L 533.28571,-67.485188 L 528.56415,-71.418648 z M 600.28571,-77.352108 C 600.28571,-78.216728 598.93571,-79.442208 597.28571,-80.075368 C 595.25527,-80.854508 594.28571,-79.974388 594.28571,-77.352108 C 594.28571,-74.729828 595.25527,-73.849708 597.28571,-74.628868 C 598.93571,-75.262028 600.28571,-76.487488 600.28571,-77.352108 z M 622.69947,-90.049328 C 621.57139,-92.415868 620.17877,-95.839268 619.60475,-97.656908 C 618.52555,-101.07413 599.13579,-109.35211 592.21069,-109.35211 C 589.59099,-109.35211 588.28571,-107.99274 588.28571,-105.26444 C 588.28571,-100.99795 593.85043,-100.39853 596.75509,-104.35211 C 597.65805,-105.58116 598.23627,-105.36358 598.25509,-103.78767 C 598.27193,-102.37721 596.26071,-100.40927 593.78571,-99.414428 C 591.31071,-98.419608 590.41071,-97.548608 591.78571,-97.478888 C 593.16071,-97.409168 594.28571,-95.318608 594.28571,-92.833208 C 594.28571,-90.347808 595.94565,-87.277648 597.97445,-86.010648 C 601.27151,-83.951588 601.55917,-84.272148 600.68351,-89.029548 C 599.73313,-94.192888 599.82193,-94.247408 603.65225,-90.852108 C 608.77997,-86.306748 609.87307,-86.438548 610.64661,-91.695448 C 611.40237,-96.831668 616.28571,-99.169408 616.28571,-94.394988 C 616.28571,-90.283008 623.02149,-80.996488 624.01811,-83.734448 C 624.42095,-84.841108 623.82755,-87.682808 622.69947,-90.049328 z M 601.67341,-96.631068 C 600.07555,-98.228928 601.88179,-101.35211 604.40375,-101.35211 C 605.43883,-101.35211 606.28571,-100.00211 606.28571,-98.352108 C 606.28571,-95.259288 603.92579,-94.378708 601.67341,-96.631068 z M 541.53213,-90.962828 C 539.20723,-93.287748 537.70855,-93.574968 536.13145,-91.997848 C 534.55435,-90.420748 535.24123,-88.909648 538.60677,-86.552348 C 544.18587,-82.644588 546.44475,-86.050208 541.53213,-90.962828 z M 574.51341,-107.7204 C 578.78817,-110.12295 582.28571,-112.98995 582.28571,-114.09149 C 582.28571,-118.79578 573.39287,-125.35211 567.01211,-125.35211 C 558.32491,-125.35211 537.88241,-117.61653 538.78005,-114.66891 C 539.78177,-111.37947 556.20787,-103.35211 561.93719,-103.35211 C 564.57933,-103.35211 570.23863,-105.31784 574.51341,-107.7204 z M 556.68571,-109.75211 C 551.24805,-115.18978 555.07749,-121.35211 563.89429,-121.35211 C 566.43569,-121.35211 566.17169,-120.64885 562.72369,-118.23378 C 559.12979,-115.71651 558.67207,-114.36723 560.34905,-111.23378 C 562.65463,-106.92575 560.41707,-106.02075 556.68571,-109.75211 z M 564.33481,-112.29294 C 562.71413,-114.24575 562.70013,-115.37217 564.28437,-116.35128 C 566.95103,-117.99937 572.28571,-116.18427 572.28571,-113.62886 C 572.28571,-110.41741 566.67391,-109.47451 564.33481,-112.29294 z M 509.97149,-110.54631 C 510.99503,-109.91373 512.85441,-110.62751 514.10345,-112.1325 C 515.90383,-114.30184 515.35049,-115.06458 511.43303,-115.81345 C 506.11065,-116.83089 502.28571,-114.27759 502.28571,-109.70722 C 502.28571,-107.44323 502.88039,-107.35588 505.19811,-109.2794 C 506.79991,-110.60879 508.94793,-111.1789 509.97149,-110.54631 z M 392.73485,-110.46792 C 393.34855,-111.08162 393.41877,-113.23528 392.89091,-115.25383 C 392.11075,-118.23716 390.52695,-118.73559 384.42711,-117.91743 C 378.07761,-117.06578 376.29127,-117.71414 372.81655,-122.13152 C 367.87069,-128.41915 366.28571,-128.69332 366.28571,-123.2612 C 366.28571,-116.31225 375.08065,-109.35211 383.86147,-109.35211 C 388.12813,-109.35211 392.12115,-109.85423 392.73485,-110.46792 z M 411.47151,-118.57746 C 417.63923,-120.12546 417.72315,-123.35211 411.59569,-123.35211 C 409.01617,-123.35211 405.19117,-121.39951 403.09569,-119.01298 C 399.47331,-114.8875 399.46719,-114.74021 402.97151,-116.02151 C 404.99871,-116.76273 408.82371,-117.9129 411.47151,-118.57746 z M 435.95391,-123.0741 C 436.37929,-126.08018 435.83421,-127.30914 434.45391,-126.45606 C 432.23749,-125.08624 431.59483,-127.26353 432.12329,-134.35211 C 432.38447,-137.85553 431.79235,-137.65547 427.35361,-132.74059 C 419.39165,-123.92456 420.77723,-116.66016 430.21087,-117.76029 C 433.80285,-118.17919 435.48095,-119.73187 435.95391,-123.0741 z M 425.39129,-123.18129 C 424.74733,-124.22323 425.07295,-125.60259 426.11489,-126.24654 C 427.15683,-126.89049 428.53619,-126.56487 429.18013,-125.52293 C 429.82409,-124.481 429.49847,-123.10164 428.45653,-122.45769 C 427.41459,-121.81374 426.03523,-122.13936 425.39129,-123.18129 z M 393.47233,-128.34981 C 390.79017,-132.41551 382.33373,-134.56597 377.03051,-132.53093 C 374.80657,-131.67753 374.60641,-130.48991 376.18833,-127.53408 C 377.81681,-124.49122 380.18425,-123.73104 387.18807,-124.0021 C 395.63379,-124.32896 395.97101,-124.56226 393.47233,-128.34981 z M 416.28571,-143.75801 C 416.28571,-147.35579 410.87917,-144.89107 404.60461,-138.43287 C 395.00329,-128.55054 398.65615,-124.9491 408.51577,-134.57676 C 412.78923,-138.74969 416.28571,-142.88125 416.28571,-143.75801 z M 416.28571,-132.71504 C 416.28571,-135.25742 415.72907,-135.37992 413.30773,-133.37039 C 411.66985,-132.01106 410.83203,-130.08618 411.44593,-129.09288 C 413.02373,-126.53993 416.28571,-128.98123 416.28571,-132.71504 z M 370.28571,-141.597 C 370.28571,-143.66231 369.48199,-145.35211 368.49969,-145.35211 C 366.46023,-145.35211 364.28571,-140.49713 364.28571,-135.94365 C 364.28571,-133.43147 364.83983,-133.32221 367.28571,-135.35211 C 368.93571,-136.72149 370.28571,-139.53169 370.28571,-141.597 z M 392.60653,-143.21462 C 394.82161,-147.10823 397.81833,-149.26832 401.60653,-149.70198 C 406.38335,-150.24881 407.29795,-151.28305 407.36273,-156.21112 C 407.40509,-159.43358 408.53009,-162.43358 409.86273,-162.87779 C 412.37687,-163.71583 412.98515,-161.52086 412.36397,-153.85211 C 412.16347,-151.37711 412.91075,-149.35211 414.02455,-149.35211 C 417.38347,-149.35211 418.19761,-152.34533 416.94243,-160.08001 C 415.77231,-167.29072 415.60959,-167.40756 408.51749,-166.12974 C 404.54001,-165.4131 400.43163,-164.33117 399.38773,-163.72544 C 398.34385,-163.11972 393.19455,-162.40692 387.94485,-162.14145 C 382.69515,-161.87598 377.47423,-161.08666 376.34283,-160.38741 C 375.21141,-159.68816 374.29949,-154.89416 374.31633,-149.73408 C 374.33851,-142.93938 374.88161,-141.17943 376.28571,-143.35211 C 377.35203,-145.00211 378.23825,-148.34545 378.25509,-150.78175 C 378.28779,-155.51093 385.21095,-160.70916 387.19695,-157.49572 C 387.83165,-156.46875 387.43627,-155.0632 386.31833,-154.37228 C 383.14269,-152.40963 383.93515,-149.34313 387.28571,-150.62886 C 392.15725,-152.49825 390.71035,-148.09039 385.28571,-144.53603 C 379.07345,-140.46559 378.85609,-137.3481 384.78571,-137.36476 C 387.65807,-137.37283 390.48685,-139.48872 392.60653,-143.21462 z M 394.28571,-153.35211 C 394.28571,-154.45211 395.18571,-155.35211 396.28571,-155.35211 C 397.38571,-155.35211 398.28571,-154.45211 398.28571,-153.35211 C 398.28571,-152.25211 397.38571,-151.35211 396.28571,-151.35211 C 395.18571,-151.35211 394.28571,-152.25211 394.28571,-153.35211 z M 390.28571,-158.23408 C 390.28571,-161.74713 391.48583,-162.2644 393.20029,-159.49031 C 393.83317,-158.46632 393.43627,-157.0632 392.31833,-156.37228 C 391.20039,-155.68135 390.28571,-156.51916 390.28571,-158.23408 z M 399.39129,-157.18129 C 398.74733,-158.22323 399.07295,-159.60259 400.11489,-160.24654 C 401.15683,-160.89049 402.53619,-160.56487 403.18013,-159.52293 C 403.82409,-158.481 403.49847,-157.10164 402.45653,-156.45769 C 401.41459,-155.81374 400.03523,-156.13936 399.39129,-157.18129 z M 401.28571,-141.35211 C 404.48077,-144.88262 404.52541,-145.35211 401.66605,-145.35211 C 399.88427,-145.35211 397.46311,-143.55211 396.28571,-141.35211 C 395.10831,-139.15211 394.93715,-137.35211 395.90537,-137.35211 C 396.87359,-137.35211 399.29473,-139.15211 401.28571,-141.35211 z M 292.28571,45.647892 C 292.28571,43.997892 293.18571,42.647892 294.28571,42.647892 C 295.38571,42.647892 296.28571,43.997892 296.28571,45.647892 C 296.28571,47.297892 295.38571,48.647892 294.28571,48.647892 C 293.18571,48.647892 292.28571,47.297892 292.28571,45.647892 z M 300.28571,45.765932 C 300.28571,45.280852 301.18571,44.327732 302.28571,43.647892 C 303.38571,42.968052 304.28571,43.364932 304.28571,44.529852 C 304.28571,45.694772 303.38571,46.647892 302.28571,46.647892 C 301.18571,46.647892 300.28571,46.251012 300.28571,45.765932 z M 282.76217,20.324352 C 279.85639,17.418572 281.89191,12.622312 285.45123,13.988152 C 288.55705,15.179972 289.27229,19.802092 286.60587,21.450012 C 285.68197,22.021032 283.95229,21.514472 282.76217,20.324352 z M 373.53341,7.5721918 C 372.22721,4.1682918 376.81515,1.5029718 380.28705,3.6487118 C 381.85979,4.6207318 381.81761,5.8020518 380.13793,7.8259518 C 377.10455,11.480952 375.00235,11.400172 373.53341,7.5721918 z M 542.28571,-29.449028 C 542.28571,-32.861608 545.50911,-37.677408 552.21295,-44.280448 C 560.66575,-52.606148 562.34221,-53.532028 563.50023,-50.514288 C 564.50251,-47.902348 561.89135,-44.001228 553.57297,-35.682868 C 543.14617,-25.256048 542.28571,-24.780828 542.28571,-29.449028 z M 347.61905,-34.685448 C 346.88571,-35.418788 346.31307,-38.343788 346.34653,-41.185448 C 346.40381,-46.051088 346.53751,-46.119048 348.64149,-42.352108 C 351.87817,-36.557168 351.90377,-36.545348 355.23737,-39.312008 C 359.24161,-42.635228 359.17073,-40.522848 355.14285,-36.494968 C 351.73899,-33.091108 349.70305,-32.601448 347.61905,-34.685448 z M 330.71343,-48.303468 C 330.59381,-61.615748 333.63645,-66.450668 340.97453,-64.608928 C 343.89567,-63.875768 346.28571,-62.243048 346.28571,-60.980668 C 346.28571,-59.718308 345.71737,-59.253788 345.02275,-59.948408 C 343.04667,-61.924488 336.01931,-57.401188 337.45541,-55.077528 C 338.16037,-53.936888 340.43557,-53.447788 342.51143,-53.990628 C 348.67823,-55.603288 346.76797,-50.812268 338.51177,-43.959228 L 330.80991,-37.566348 L 330.71343,-48.303468 z M 448.30243,-43.299448 C 446.04741,-44.725128 445.88281,-45.749208 447.62817,-47.494568 C 450.36603,-50.232428 454.28571,-48.312788 454.28571,-44.234088 C 454.28571,-40.906668 452.52273,-40.631288 448.30243,-43.299448 z M 353.39341,-45.177848 C 351.31283,-48.544308 354.25581,-52.182028 356.91145,-49.526368 C 358.47713,-47.960688 358.47713,-46.743528 356.91145,-45.177848 C 355.34575,-43.612168 354.36105,-43.612168 353.39341,-45.177848 z M 363.67341,-44.631068 C 362.07555,-46.228928 363.88179,-49.352108 366.40375,-49.352108 C 367.43883,-49.352108 368.28571,-48.002108 368.28571,-46.352108 C 368.28571,-43.259288 365.92579,-42.378708 363.67341,-44.631068 z M 459.28571,-47.352108 C 457.46245,-50.302228 459.98419,-53.342288 463.22347,-52.099248 C 464.76879,-51.506248 465.54367,-49.745568 464.94545,-48.186588 C 463.67761,-44.882648 461.05125,-44.495428 459.28571,-47.352108 z M 474.28571,-49.352108 C 471.92311,-50.812288 471.82471,-51.691128 473.80243,-53.668828 C 475.73387,-55.600268 476.81905,-55.618788 478.68571,-53.752108 C 481.93041,-50.507408 478.29639,-46.873388 474.28571,-49.352108 z M 360.28571,-53.107228 C 360.28571,-55.441908 361.13259,-57.352108 362.16767,-57.352108 C 365.63259,-57.352108 366.27367,-53.831908 363.26369,-51.333828 C 360.78547,-49.277088 360.28571,-49.574708 360.28571,-53.107228 z M 282.66547,-53.894528 C 281.32485,-55.509868 281.19763,-57.591188 282.32779,-59.419188 C 283.90651,-61.972728 284.55145,-61.941828 287.31375,-59.180308 C 290.03711,-56.457728 290.08495,-55.675268 287.65145,-53.655648 C 285.46307,-51.839468 284.32581,-51.893948 282.66547,-53.894528 z M 574.39811,-83.142108 C 571.60205,-88.366568 576.56649,-92.833488 580.24411,-88.402248 C 582.90299,-85.198468 581.72389,-79.352108 578.41885,-79.352108 C 577.32303,-79.352108 575.51369,-81.057608 574.39811,-83.142108 z"
       id="path2398"
       sodipodi:nodetypes="cssssscccssssssssscccsssssssssssssssssssscccsssssssssssssssssssscccsssssssssssssssssssssssssssssssssssssssssssscccsssscccssssscccsssscccsssssssssssssssssssssssssssssssssssssssssssssssssssssssssssssssssssssssssssssssssssssssssssssssssssssssssssssssssssssssssssscccsscccssssssssssssssssssssssssssssssssssccssssssscccssssssssssssssccssccssccssccssssccsscccccsccssccssccssccssccsssccssccssccssccccsssccssssssssssssssccssccssccssssccsssccssccssssccsssssccsssccssssccsssccsssccssccssccsssccssssssssssssssssssccsssccssccsssccsssccsssccsssccssccssccsssccssssccsssssccccssccssccssccssccssccssccsssccssc" />
  </g>
</svg>
