<?xml version="1.0" encoding="UTF-8" standalone="no"?>
<!-- Created with Inkscape (http://www.inkscape.org/) -->

<svg
   xmlns:dc="http://purl.org/dc/elements/1.1/"
   xmlns:cc="http://creativecommons.org/ns#"
   xmlns:rdf="http://www.w3.org/1999/02/22-rdf-syntax-ns#"
   xmlns:svg="http://www.w3.org/2000/svg"
   xmlns="http://www.w3.org/2000/svg"
   xmlns:sodipodi="http://sodipodi.sourceforge.net/DTD/sodipodi-0.dtd"
   xmlns:inkscape="http://www.inkscape.org/namespaces/inkscape"
   version="1.0"
   width="700"
   height="500"
   id="svg2"
   sodipodi:version="0.32"
   inkscape:version="0.47 r22583"
   sodipodi:docname="Flag of Albania (1926–1928).svg"
   inkscape:output_extension="org.inkscape.output.svg.inkscape"
   sodipodi:modified="true">
  <metadata
     id="metadata16">
    <rdf:RDF>
      <cc:Work
         rdf:about="">
        <dc:format>image/svg+xml</dc:format>
        <dc:type
           rdf:resource="http://purl.org/dc/dcmitype/StillImage" />
      </cc:Work>
    </rdf:RDF>
  </metadata>
  <sodipodi:namedview
     inkscape:window-height="746"
     inkscape:window-width="889"
     inkscape:pageshadow="2"
     inkscape:pageopacity="0.0"
     guidetolerance="10.0"
     gridtolerance="10.0"
     objecttolerance="10.0"
     borderopacity="1.0"
     bordercolor="#666666"
     pagecolor="#ffffff"
     id="base"
     inkscape:zoom="0.75"
     inkscape:cx="346.1556"
     inkscape:cy="251.7414"
     inkscape:window-x="196"
     inkscape:window-y="117"
     inkscape:current-layer="svg2"
     showgrid="false"
     inkscape:window-maximized="0">
    <inkscape:grid
       type="xygrid"
       id="grid2829" />
  </sodipodi:namedview>
  <defs
     id="defs12">
    <inkscape:perspective
       sodipodi:type="inkscape:persp3d"
       inkscape:vp_x="0 : 250 : 1"
       inkscape:vp_y="0 : 1000 : 0"
       inkscape:vp_z="700 : 250 : 1"
       inkscape:persp3d-origin="350 : 166.66667 : 1"
       id="perspective13" />
    <inkscape:perspective
       id="perspective2824"
       inkscape:persp3d-origin="0.5 : 0.33333333 : 1"
       inkscape:vp_z="1 : 0.5 : 1"
       inkscape:vp_y="0 : 1000 : 0"
       inkscape:vp_x="0 : 0.5 : 1"
       sodipodi:type="inkscape:persp3d" />
  </defs>
  <desc
     id="desc4">flag of Albania</desc>
  <rect
     width="700"
     height="500"
     x="-731.44501"
     y="-345.40457"
     style="fill:none"
     id="rect6" />
  <rect
     style="fill:#990000;fill-opacity:1;stroke:none"
     id="rect2398"
     width="700"
     height="500"
     x="0"
     y="0" />
  <path
     style="fill:#000000"
     d="m 344.76534,401.44217 c -2.26619,-5.35688 -5.68124,-13.56063 -7.58893,-18.2306 -3.33771,-8.17059 -8.33066,-10.96221 -11.13667,-6.22665 -2.76902,4.67317 -5.42705,1.99934 -5.42705,-5.4593 0,-5.9282 1.63995,-9.16948 7.05516,-13.94412 4.29142,-3.78376 6.00357,-6.59351 4.3707,-7.17257 -12.47857,-4.42505 -15.45602,-17.46956 -6.27016,-27.47011 3.56618,-3.88245 5.67655,-8.69911 5.64002,-12.87258 l -0.0583,-6.66878 -6.4705,7.92481 c -6.36082,7.79045 -6.52967,7.84804 -9.95942,3.39633 -2.2097,-2.8681 -3.83861,-3.56349 -4.44271,-1.89656 -0.5246,1.44755 -3.27999,5.24991 -6.12312,8.44972 -4.51836,5.08515 -4.88733,6.74972 -2.92999,13.21769 3.95545,13.07061 4.0934,16.37172 0.86478,20.69545 -2.94117,3.93876 -3.41841,3.97433 -6.74664,0.50293 -2.7541,-2.87264 -3.00587,-4.45919 -1.08975,-6.86731 1.82374,-2.29206 1.84282,-3.55 0.0711,-4.69208 -1.33136,-0.85824 -3.57675,0.0147 -4.98973,1.93872 -1.41302,1.92454 -5.49972,4.23339 -9.08158,5.13077 -5.69298,1.42631 -6.16631,1.19309 -3.7615,-1.85332 1.51306,-1.91671 2.1412,-5.14242 1.39586,-7.16826 -0.97961,-2.66271 -0.1233,-3.68333 3.09068,-3.68333 5.69556,0 6.8199,-2.13536 4.49844,-8.54347 -1.66585,-4.59833 -2.39089,-4.83974 -6.8003,-2.26423 -2.71461,1.5856 -5.5462,3.75584 -6.29242,4.8228 -1.9557,2.7963 -3.58565,-0.94853 -3.55448,-8.16655 0.0266,-6.13992 0.21997,-6.22663 13.89412,-6.22663 l 13.86718,0 4.68265,-10.053 4.68263,-10.05297 -6.88169,-6.70506 c -8.45588,-8.23888 -8.72399,-11.67697 -0.91188,-11.69352 7.95583,-0.0169 20.19276,-3.83351 25.28556,-7.88656 3.98655,-3.17263 3.99634,-3.6168 0.30185,-13.70691 -2.1,-5.73541 -5.22765,-10.99217 -6.9503,-11.68166 -5.21042,-2.08546 -20.17817,6.42316 -27.94243,15.88427 -4.01994,4.89845 -10.79863,17.60134 -15.06375,28.22859 -4.26515,10.62725 -9.44087,20.7547 -11.50163,22.5054 -6.35002,5.39469 -30.49988,16.48257 -35.89969,16.48257 -7.26606,0 -8.7916,-2.57091 -3.23892,-5.45847 8.68314,-4.51548 14.92195,-21.43322 17.51277,-47.48932 1.31097,-13.18419 1.70631,-24.67764 0.8786,-25.54099 -0.82774,-0.86333 -4.42356,0.68097 -7.99074,3.43175 -8.48196,6.54084 -8.38134,2.22493 0.2561,-10.98371 5.94233,-9.08721 6.49043,-11.29085 5.06848,-20.37806 -5.55763,-35.51702 6.42648,-69.06416 26.29547,-73.60887 12.61562,-2.88564 15.3251,-5.34487 14.46496,-13.129 -0.63314,-5.72973 0.585,-8.60594 5.87762,-13.87791 3.67195,-3.65764 6.67628,-7.97353 6.67628,-9.59085 0,-4.96943 17.08793,-15.231736 24.97432,-14.998566 5.46878,0.16165 7.46942,-0.874104 8.33177,-4.313602 1.81846,-7.252949 6.31766,-2.204518 5.18716,5.820362 -0.81658,5.796486 0.53202,8.905076 7.38921,17.032366 4.61347,5.46795 8.38811,11.77598 8.38811,14.0178 0,7.0477 3.30174,6.57229 6.35119,-0.9145 1.61195,-3.9575 5.94413,-10.53465 9.62711,-14.6159 5.2151,-5.77908 6.5568,-9.10914 6.06567,-15.054886 -0.69942,-8.467535 2.94229,-12.889871 5.01241,-6.086839 0.96999,3.187669 3.33925,4.334909 8.95236,4.334909 7.6737,0 24.77429,10.086926 24.77429,14.613306 0,1.22289 3.02133,5.8126 6.71408,10.19937 4.8984,5.81903 6.47815,9.65255 5.84166,14.17578 -0.91439,6.49819 3.53323,11.27746 10.49493,11.27746 13.93846,0 30.78964,26.68626 31.45469,49.81303 0.19698,6.8493 -0.33999,17.54779 -1.19326,23.77441 -1.40052,10.22042 -0.90168,12.3745 5.13062,22.15489 8.41274,13.63989 8.4712,16.72023 0.1962,10.33901 -3.56719,-2.75078 -7.16572,-4.29224 -7.99675,-3.42546 -0.83106,0.86679 -0.38015,12.85666 1.00196,26.64413 2.71099,27.04365 8.12528,41.55946 17.27626,46.31803 2.67402,1.39052 4.21638,3.20143 3.4275,4.02427 -3.2357,3.37495 -13.65657,1.05427 -28.43305,-6.33187 -16.83139,-8.4133 -15.50618,-6.61894 -29.33505,-39.72089 -6.55586,-15.69271 -14.96359,-26.12785 -25.62047,-31.7985 -13.32673,-7.09134 -16.30981,-6.06613 -20.48322,7.03952 -3.49295,10.9687 -3.47687,11.60832 0.36823,14.67155 4.6883,3.73499 17.14156,7.79242 23.97237,7.81055 7.78879,0.0206 7.95931,4.23241 0.46688,11.53251 l -7.04691,6.86607 4.68263,10.05297 4.68264,10.053 13.88455,0 13.88452,0 -0.59342,7.35875 c -0.78588,9.74568 -0.8768,9.99074 -2.73072,7.35876 -1.92918,-2.73886 -11.52012,-8.52945 -12.44812,-7.51564 -0.36395,0.39763 -1.00149,3.2702 -1.41671,6.38351 -0.59859,4.48798 0.2912,5.81517 4.29533,6.4068 3.53156,0.52182 4.66276,1.79972 3.76149,4.24941 -0.70885,1.92673 -0.051,5.07907 1.46216,7.00515 2.38522,3.03644 2.02947,3.30343 -2.67608,2.00817 -2.98489,-0.82162 -6.64814,-1.50777 -8.14059,-1.52477 -1.49243,-0.017 -2.71352,-1.55927 -2.71352,-3.42725 0,-1.868 -1.46531,-3.39636 -3.25623,-3.39636 -3.87131,0 -4.20718,2.63093 -0.79082,6.19428 1.84004,1.91922 1.60404,3.47001 -0.93034,6.11342 -1.86767,1.94806 -4.36482,3.54191 -5.54919,3.54191 -3.95656,0 -4.84784,-12.48787 -1.58063,-22.14658 3.11408,-9.20599 3.04448,-9.74636 -1.98398,-15.40561 -2.86617,-3.22573 -5.6354,-7.0493 -6.15383,-8.49685 -0.63319,-1.76785 -2.27397,-1.30588 -4.99783,1.40714 -3.90877,3.89323 -4.2687,3.77066 -9.97057,-3.39634 l -5.91542,-7.43538 -0.0583,6.96405 c -0.0382,4.55588 1.81831,8.803 5.36867,12.2819 8.84692,8.66887 6.75587,19.98628 -4.99152,27.0157 -3.35929,2.01014 -3.25341,2.5349 1.17577,5.82665 6.81476,5.06473 9.58405,11.36781 7.95995,18.11722 -1.10128,4.5766 -2.00313,5.23536 -4.36654,3.18948 -5.20179,-4.50286 -8.88012,-0.59007 -14.90489,15.85501 -3.22539,8.80391 -6.74647,16.57577 -7.82461,17.27077 -1.07816,0.69502 -3.81445,-3.11923 -6.08066,-8.47607 z M 324.47581,182.24109 c 3.43234,-6.70654 2.30935,-34.09202 -1.7814,-43.4418 -3.84939,-8.79809 -7.6877,-9.3604 -18.5543,-2.71815 -5.29697,3.23782 -11.16993,5.27093 -13.05097,4.51805 -2.0838,-0.83405 -4.9781,0.62368 -7.40756,3.73086 -3.81204,4.87548 -3.81912,5.29895 -0.16065,9.62824 2.10471,2.49064 4.99239,7.61865 6.41703,11.39555 4.44349,11.78021 19.87565,24.25498 28.44936,22.99738 1.76095,-0.25827 4.50077,-3.00785 6.08849,-6.11013 z m 74.64862,-2.84388 c 4.37801,-3.6565 8.52942,-9.01449 9.22538,-11.90664 0.69594,-2.89215 3.67628,-8.24699 6.62297,-11.89962 l 5.35764,-6.64116 -4.8727,-4.77462 c -2.93945,-2.88031 -6.57205,-4.31483 -9.15595,-3.61573 -2.57615,0.69703 -7.26314,-1.13963 -11.76016,-4.60834 -4.11229,-3.17198 -8.80738,-5.76722 -10.43347,-5.76722 -1.6261,0 -4.95829,4.71997 -7.40487,10.48883 -3.44907,8.13271 -4.26245,13.91944 -3.62096,25.76091 0.45505,8.39964 2.13505,16.91556 3.73337,18.92425 3.84872,4.83698 11.98265,2.66369 22.30875,-5.96066 z M 306.7108,117.12987 c 1.30859,-0.91492 3.03674,-4.46548 3.84029,-7.89013 1.76403,-7.51801 -2.13717,-8.35164 -9.59731,-2.05084 -7.55205,6.3784 -2.24775,15.53761 5.75702,9.94097 z m -6.30012,-1.97931 c -1.73433,-1.80896 0.22617,-5.34477 2.96354,-5.34477 1.1235,0 2.0427,1.52836 2.0427,3.39635 0,3.50144 -2.56148,4.49836 -5.00624,1.94842 z m 102.01483,0.026 c 1.41194,-3.83774 -6.58642,-12.01708 -11.84515,-12.11319 -2.52242,-0.046 -1.89484,8.69618 1.01232,14.10109 1.69573,3.15273 9.46618,1.72681 10.83283,-1.9879 z m -8.00486,-1.97451 c 0,-2.07554 1.2211,-3.34918 2.71353,-2.83028 3.07317,1.06847 2.73533,4.70957 -0.54271,5.84926 -1.19395,0.41511 -2.17082,-0.94342 -2.17082,-3.01898 z"
     id="path2444" />
</svg>
