<?xml version="1.0" encoding="UTF-8" standalone="no"?>
<svg
   xmlns:dc="http://purl.org/dc/elements/1.1/"
   xmlns:cc="http://creativecommons.org/ns#"
   xmlns:rdf="http://www.w3.org/1999/02/22-rdf-syntax-ns#"
   xmlns:svg="http://www.w3.org/2000/svg"
   xmlns="http://www.w3.org/2000/svg"
   xmlns:sodipodi="http://sodipodi.sourceforge.net/DTD/sodipodi-0.dtd"
   xmlns:inkscape="http://www.inkscape.org/namespaces/inkscape"
   width="294"
   height="435"
   viewBox="-18 -5 72 88"
   id="svg2"
   sodipodi:version="0.32"
   inkscape:version="0.46"
   sodipodi:docname="Flag_of_Nepal.svg"
   inkscape:output_extension="org.inkscape.output.svg.inkscape"
   version="1.0">
  <metadata
     id="metadata53">
    <rdf:RDF>
      <cc:Work
         rdf:about="">
        <dc:format>image/svg+xml</dc:format>
        <dc:type
           rdf:resource="http://purl.org/dc/dcmitype/StillImage" />
      </cc:Work>
    </rdf:RDF>
  </metadata>
  <sodipodi:namedview
     inkscape:window-height="750"
     inkscape:window-width="1280"
     inkscape:pageshadow="2"
     inkscape:pageopacity="0.0"
     guidetolerance="10.0"
     gridtolerance="10.0"
     objecttolerance="10.0"
     borderopacity="1.0"
     bordercolor="#666666"
     pagecolor="#ffffff"
     id="base"
     showgrid="false"
     showguides="true"
     inkscape:guide-bbox="true"
     inkscape:zoom="1"
     inkscape:cx="305.71257"
     inkscape:cy="227.39071"
     inkscape:window-x="-8"
     inkscape:window-y="-8"
     inkscape:current-layer="svg2">
    <inkscape:grid
       type="xygrid"
       id="grid3235"
       visible="true"
       enabled="true" />
  </sodipodi:namedview>
  <defs
     id="defs4" />
<!--E 2TN--><!--E-->  <path
     style="fill:#003893;fill-opacity:1;fill-rule:evenodd;stroke:none;stroke-width:4.89795923;stroke-linecap:butt;stroke-linejoin:miter;marker:none;stroke-miterlimit:4;stroke-dasharray:none;stroke-opacity:1;visibility:visible;display:inline;overflow:visible;enable-background:accumulate"
     d="M -18,-14.265306 L -18,92.265306 L 53.471951,92.265306 L -1.6530585,44.4949 L 53.747461,44.4949 L -18,-14.265306 z"
     id="path3470"
     sodipodi:nodetypes="cccccc" />
  <path
     style="fill:#ce1126;fill-opacity:1;fill-rule:evenodd;stroke:none;stroke-width:2;stroke-linecap:butt;stroke-linejoin:miter;marker:none;marker-start:none;marker-mid:none;marker-end:none;stroke-miterlimit:4;stroke-opacity:1;visibility:visible;display:inline;overflow:visible;enable-background:accumulate"
     d="M -18,-11.081633 L 46.897959,42.061224 L -8.2040816,42.061224 L 46.897959,89.816326 L -18,89.816326 L -18,-11.081633 z"
     id="rect3465"
     sodipodi:nodetypes="cccccc" />
  <g
     id="g3318">
    <path
       transform="matrix(2.2184819,0,0,-2.2184819,51.414291,157.73947)"
       d="M -22.156055,45.051069 L -23.076557,43.780822 L -24.413093,44.602116 L -24.777424,43.0763 L -26.326517,43.323607 L -26.079211,41.774514 L -27.605027,41.410183 L -26.783733,40.073647 L -28.053979,39.153145 L -26.783733,38.232643 L -27.605027,36.896107 L -26.079211,36.531776 L -26.326518,34.982683 L -24.777424,35.22999 L -24.413093,33.704174 L -23.076558,34.525467 L -22.156056,33.255221 L -21.235553,34.525467 L -19.899018,33.704174 L -19.534687,35.229989 L -17.985594,34.982683 L -18.2329,36.531776 L -16.707084,36.896107 L -17.528378,38.232642 L -16.258132,39.153145 L -17.528378,40.073647 L -16.707084,41.410182 L -18.2329,41.774513 L -17.985593,43.323607 L -19.534687,43.0763 L -19.899018,44.602116 L -21.235553,43.780822 L -22.156055,45.051069 z"
       inkscape:randomized="0"
       inkscape:rounded="0"
       inkscape:flatsided="false"
       sodipodi:arg2="1.7671458"
       sodipodi:arg1="1.5707963"
       sodipodi:r2="4.718339"
       sodipodi:r1="5.8979239"
       sodipodi:cy="39.153145"
       sodipodi:cx="-22.156055"
       sodipodi:sides="16"
       id="path3417"
       style="fill:#ffffff;fill-opacity:1;fill-rule:evenodd;stroke:none;stroke-width:1.39999998000000000;stroke-linecap:butt;stroke-linejoin:miter;marker:none;marker-start:none;marker-mid:none;marker-end:none;stroke-miterlimit:4;stroke-dasharray:none;stroke-opacity:1;visibility:visible;display:inline;overflow:visible;enable-background:accumulate"
       sodipodi:type="star" />
    <g
       id="g3303">
      <path
         sodipodi:type="arc"
         style="fill:none;fill-opacity:1;fill-rule:evenodd;stroke:#ce1126;stroke-width:0.41946921;stroke-linecap:butt;stroke-linejoin:miter;marker:none;marker-start:none;marker-mid:none;marker-end:none;stroke-miterlimit:4;stroke-dasharray:none;stroke-opacity:1;visibility:visible;display:inline;overflow:visible;enable-background:accumulate"
         id="path3438"
         sodipodi:cx="2.2040815"
         sodipodi:cy="70.714287"
         sodipodi:rx="5.1428571"
         sodipodi:ry="5.1428571"
         d="M 7.3469386,70.714287 A 5.1428571,5.1428571 0 1 1 -2.9387755,70.714287 A 5.1428571,5.1428571 0 1 1 7.3469386,70.714287 z"
         transform="matrix(1.0303969,0,0,1.0303969,-9.595766e-3,-1.9848551)" />
      <g
         id="g3290">
        <path
           sodipodi:nodetypes="ccccccc"
           id="rect3269"
           d="M 1.0714787,74.088521 L 1.4219866,73.972937 L 3.2835534,73.972937 L 3.5326604,74.075184 C 3.5326604,74.175774 3.1186259,74.174118 2.8737279,74.274709 L 1.6492381,74.274709 C 1.3668464,74.178908 1.0714787,74.189111 1.0714787,74.088521 z"
           style="fill:#ce1126;fill-opacity:1;fill-rule:evenodd;stroke:none;stroke-width:1.39999998;stroke-linecap:butt;stroke-linejoin:miter;marker:none;marker-start:none;marker-mid:none;marker-end:none;stroke-miterlimit:4;stroke-opacity:1;visibility:visible;display:inline;overflow:visible;enable-background:accumulate" />
        <path
           sodipodi:nodetypes="ccsssccssccssscssssc"
           id="path3255"
           d="M 1.5574014,71.574712 C 1.4799543,71.647422 1.3497108,71.6199 1.2449014,71.637212 C 1.2509246,71.622742 1.2273294,71.654669 1.2136514,71.668462 C 1.1862954,71.696047 1.1261669,71.727415 1.0574014,71.793462 C 0.98863592,71.859509 0.91329415,71.954994 0.8699014,72.074712 C 0.82650865,72.19443 0.81332989,72.358737 0.8699014,72.512212 C 1.0048413,72.699278 1.206362,72.821026 1.4324014,72.918462 C 1.6578975,72.983444 1.900572,72.993302 2.1511514,72.980962 C 2.4017308,72.968622 2.6369917,72.919532 2.8386514,72.855962 C 3.0403111,72.792392 3.2178883,72.72249 3.3074014,72.543462 L 2.9949014,72.418462 C 3.00278,72.402705 2.9110595,72.491084 2.7449014,72.543462 C 2.5787433,72.59584 2.3738077,72.626248 2.1511514,72.637212 C 1.9284951,72.648176 1.6985433,72.624391 1.5261514,72.574712 C 1.3537595,72.525033 1.2546723,72.44217 1.2136514,72.355962 C 1.195836,72.290526 1.1681537,72.239021 1.1824014,72.199712 C 1.1994067,72.152795 1.2575287,72.091363 1.3074014,72.043462 C 1.3572741,71.995561 1.4061066,71.945239 1.4636514,71.887212 C 1.4924238,71.858199 1.5346079,71.84822 1.5574014,71.793462 C 1.5801949,71.738704 1.5885939,71.637097 1.5574014,71.574712 z"
           style="fill:#ce1126;fill-opacity:1;fill-rule:evenodd;stroke:none;stroke-width:0.34285712;stroke-linecap:butt;stroke-linejoin:miter;stroke-miterlimit:4;stroke-dasharray:none;stroke-opacity:1" />
        <g
           transform="translate(0.10374,-8.026239e-2)"
           id="g3448">
          <path
             sodipodi:type="arc"
             style="opacity:1;fill:#ce1126;fill-opacity:1;fill-rule:evenodd;stroke:none;stroke-width:2;stroke-linecap:butt;stroke-linejoin:miter;marker:none;marker-start:none;marker-mid:none;marker-end:none;stroke-miterlimit:4;stroke-dasharray:none;stroke-opacity:1;visibility:visible;display:inline;overflow:visible;enable-background:accumulate"
             id="path3257"
             sodipodi:cx="-61.599998"
             sodipodi:cy="46.714287"
             sodipodi:rx="0.2857143"
             sodipodi:ry="0.2857143"
             d="M -61.314284,46.714287 A 0.2857143,0.2857143 0 1 1 -61.885713,46.714287 A 0.2857143,0.2857143 0 1 1 -61.314284,46.714287 z"
             transform="matrix(2.4255229,0,0,1.8214208,149.44753,-14.917956)" />
          <path
             sodipodi:type="arc"
             style="opacity:1;fill:#ce1126;fill-opacity:1;fill-rule:evenodd;stroke:none;stroke-width:2;stroke-linecap:butt;stroke-linejoin:miter;marker:none;marker-start:none;marker-mid:none;marker-end:none;stroke-miterlimit:4;stroke-dasharray:none;stroke-opacity:1;visibility:visible;display:inline;overflow:visible;enable-background:accumulate"
             id="path3259"
             sodipodi:cx="-61.599998"
             sodipodi:cy="46.714287"
             sodipodi:rx="0.2857143"
             sodipodi:ry="0.2857143"
             d="M -61.314284,46.714287 A 0.2857143,0.2857143 0 1 1 -61.885713,46.714287 A 0.2857143,0.2857143 0 1 1 -61.314284,46.714287 z"
             transform="matrix(2.4255229,0,0,1.8214208,153.69237,-14.917956)" />
        </g>
        <path
           id="path3261"
           d="M 1.136483,66.730962 L 0.91773303,66.949712 C 1.1589841,67.190965 1.410739,67.191796 1.636483,67.199712 C 1.6397033,67.199825 1.633281,67.230863 1.636483,67.230962 C 1.6362011,67.240455 1.6805307,67.281573 1.698983,67.387212 C 1.7206916,67.511493 1.7172444,67.682004 1.730233,67.855962 C 1.7562102,68.203878 1.7662192,68.604351 1.823983,68.855962 L 1.855233,68.980962 L 2.011483,68.980962 C 2.011483,68.980962 2.2220232,68.980962 2.261483,68.980962 C 2.3100168,68.980964 2.480233,68.980962 2.480233,68.980962 L 2.636483,68.980962 L 2.667733,68.824712 C 2.721601,68.57046 2.7337947,68.203217 2.761483,67.855962 C 2.7753271,67.682334 2.8023064,67.510289 2.823983,67.387212 C 2.8421445,67.284093 2.8568468,67.239472 2.855233,67.230962 C 2.8549207,67.229315 2.8590105,67.195935 2.855233,67.199712 C 3.081794,67.192183 3.3625306,67.192412 3.605233,66.949712 L 3.355233,66.730962 C 3.1507404,66.935453 2.9751269,66.918465 2.730233,66.918462 L 2.667733,66.918462 L 2.605233,66.980962 C 2.4965222,67.089674 2.5056562,67.180362 2.480233,67.324712 C 2.4548098,67.469062 2.431892,67.647136 2.417733,67.824712 C 2.3931534,68.13298 2.3555304,68.427451 2.323983,68.637212 C 2.2940106,68.637212 2.2753374,68.637213 2.261483,68.637212 C 2.2466816,68.637212 2.2096269,68.637212 2.167733,68.637212 C 2.1361113,68.435843 2.0970509,68.133663 2.073983,67.824712 C 2.0606948,67.646742 2.0683033,67.502351 2.042733,67.355962 C 2.0171627,67.209573 1.9952035,67.089685 1.886483,66.980962 L 1.823983,66.918462 L 1.761483,66.918462 C 1.5165844,66.918462 1.3409731,66.935454 1.136483,66.730962 z"
           style="fill:#ce1126;fill-opacity:1;fill-rule:evenodd;stroke:none;stroke-width:0.34285712;stroke-linecap:butt;stroke-linejoin:miter;stroke-miterlimit:4;stroke-dasharray:none;stroke-opacity:1" />
        <g
           transform="translate(3.495328e-2,-1.90379e-2)"
           id="g3440">
          <path
             style="fill:#ce1126;fill-opacity:1;fill-rule:evenodd;stroke:none;stroke-width:1px;stroke-linecap:butt;stroke-linejoin:miter;stroke-opacity:1"
             d="M -1.9273814,69.18019 C -0.85048257,68.969538 0.067338262,68.819158 1.2343301,69.158664 L 1.2050156,68.420806 C -0.002076458,68.073973 -0.99884482,68.351358 -1.8041533,68.755943 C -2.0239024,68.866343 -1.9514502,68.977429 -1.9273814,69.18019 z"
             id="path3253"
             sodipodi:nodetypes="cccsc" />
          <path
             style="fill:#ce1126;fill-opacity:1;fill-rule:evenodd;stroke:none;stroke-width:1px;stroke-linecap:butt;stroke-linejoin:miter;stroke-opacity:1"
             d="M 6.3804409,69.18019 C 5.303542,68.969538 4.3857212,68.819158 3.2187294,69.158664 L 3.2480439,68.420806 C 4.4551359,68.073973 5.4519043,68.351358 6.2572128,68.755943 C 6.4769619,68.866343 6.4045097,68.977429 6.3804409,69.18019 z"
             id="path3267"
             sodipodi:nodetypes="cccsc" />
        </g>
        <path
           id="path2407"
           d="M -0.625,69.53125 C -0.98898002,69.582796 -1.3294897,69.694191 -1.65625,69.75 L -1.625,70.0625 C -0.90824134,69.940082 -0.30779224,69.665141 0.40625,69.96875 L 0.53125,69.65625 C 0.10780064,69.4762 -0.26101998,69.479704 -0.625,69.53125 z"
           style="fill:#ce1126;fill-opacity:1;fill-rule:evenodd;stroke:none;stroke-width:0.34285715;stroke-linecap:butt;stroke-linejoin:miter;stroke-miterlimit:4;stroke-dasharray:none;stroke-opacity:1" />
        <path
           id="path3205"
           d="M 5.15625,69.53125 C 4.79227,69.479704 4.4234494,69.4762 4,69.65625 L 4.125,69.96875 C 4.8390424,69.665141 5.4082413,69.940082 6.125,70.0625 L 6.1875,69.75 C 5.8607397,69.694191 5.52023,69.582796 5.15625,69.53125 z"
           style="fill:#ce1126;fill-opacity:1;fill-rule:evenodd;stroke:none;stroke-width:0.34285715;stroke-linecap:butt;stroke-linejoin:miter;stroke-miterlimit:4;stroke-dasharray:none;stroke-opacity:1" />
      </g>
    </g>
  </g>
  <g
     id="g3373">
    <g
       id="g3369">
      <path
         style="fill:#ffffff;fill-opacity:1;fill-rule:evenodd;stroke:none;stroke-width:1.39999998;stroke-linecap:butt;stroke-linejoin:miter;marker:none;marker-start:none;marker-mid:none;marker-end:none;stroke-miterlimit:4;stroke-dasharray:none;stroke-opacity:1;visibility:visible;display:inline;overflow:visible;enable-background:accumulate"
         d="M -6.3826511,16.086732 L -5.8698959,19.301018 L -9.0306107,20.051018 L -7.3239778,22.821427 L -9.9566313,24.727039 L -7.3239778,26.632652 L -9.0306107,29.403061 L -5.8698959,30.160714 L -6.3826511,33.367347 L -3.1683649,32.854592 L -2.4183647,36.015307 L 0.35204388,34.316327 L 2.2576564,36.94898 L 4.1709221,34.316327 L 6.9336776,36.015307 L 7.6913308,32.854592 L 10.897964,33.367347 L 10.385209,30.160714 L 13.545924,29.403061 L 11.846944,26.632652 L 14.479597,24.727039 L 11.846944,22.821427 L 13.545924,20.051018 L 10.385209,19.301018 L 10.897964,16.086732 L 8.3418411,16.492344 C 9.0397,17.599986 9.4438821,18.90626 9.4438821,20.311222 C 9.4438821,24.278178 6.2246127,27.497448 2.2576564,27.497448 C -1.7093001,27.497451 -4.9285692,24.278178 -4.9285692,20.311222 C -4.9285692,18.90674 -4.5239475,17.599746 -3.8265282,16.492344 L -6.3826511,16.086732 z"
         id="path3419"
         sodipodi:nodetypes="ccccccccccccccccccccccccccssscc" />
      <path
         sodipodi:type="arc"
         style="fill:#ffffff;fill-opacity:1;fill-rule:evenodd;stroke:none;stroke-width:1.39999998;stroke-linecap:butt;stroke-linejoin:miter;marker:none;marker-start:none;marker-mid:none;marker-end:none;stroke-miterlimit:4;stroke-dasharray:none;stroke-opacity:1;visibility:visible;display:inline;overflow:visible;enable-background:accumulate"
         id="path3313"
         sodipodi:cx="2.433943"
         sodipodi:cy="23.524641"
         sodipodi:rx="5.0651937"
         sodipodi:ry="5.0651937"
         d="M 7.4991367,23.524641 A 5.0651937,5.0651937 0 1 1 -2.6312506,23.524641 A 5.0651937,5.0651937 0 1 1 7.4991367,23.524641 z"
         transform="translate(-0.1731681,-0.6568157)" />
    </g>
    <g
       id="g3356">
      <path
         style="fill:#ce1126;fill-opacity:1;fill-rule:evenodd;stroke:none;stroke-width:0.34285712;stroke-linecap:butt;stroke-linejoin:miter;stroke-miterlimit:4;stroke-dasharray:none;stroke-opacity:1"
         d="M 1.68265,24.375033 L 1.37015,24.500033 C 1.5334873,24.826708 1.8933132,24.968783 2.24515,24.968783 C 2.5969868,24.968783 2.9880639,24.826708 3.1514,24.500033 L 2.8389,24.375033 C 2.7573397,24.538155 2.505558,24.625033 2.24515,24.625033 C 1.984742,24.625033 1.7642113,24.538156 1.68265,24.375033 z"
         id="path3233" />
      <g
         id="g3292"
         transform="translate(0.250579,0.4687829)">
        <path
           transform="matrix(2.1428571,0,0,1.8214208,132.35713,-63.198591)"
           d="M -61.314284,46.714287 A 0.2857143,0.2857143 0 1 1 -61.885713,46.714287 A 0.2857143,0.2857143 0 1 1 -61.314284,46.714287 z"
           sodipodi:ry="0.2857143"
           sodipodi:rx="0.2857143"
           sodipodi:cy="46.714287"
           sodipodi:cx="-61.599998"
           id="path3241"
           style="opacity:1;fill:#ce1126;fill-opacity:1;fill-rule:evenodd;stroke:none;stroke-width:2;stroke-linecap:butt;stroke-linejoin:miter;marker:none;marker-start:none;marker-mid:none;marker-end:none;stroke-miterlimit:4;stroke-dasharray:none;stroke-opacity:1;visibility:visible;display:inline;overflow:visible;enable-background:accumulate"
           sodipodi:type="arc" />
        <path
           transform="matrix(2.1428571,0,0,1.8214208,135.66325,-63.198591)"
           d="M -61.314284,46.714287 A 0.2857143,0.2857143 0 1 1 -61.885713,46.714287 A 0.2857143,0.2857143 0 1 1 -61.314284,46.714287 z"
           sodipodi:ry="0.2857143"
           sodipodi:rx="0.2857143"
           sodipodi:cy="46.714287"
           sodipodi:cx="-61.599998"
           id="path3243"
           style="opacity:1;fill:#ce1126;fill-opacity:1;fill-rule:evenodd;stroke:none;stroke-width:2;stroke-linecap:butt;stroke-linejoin:miter;marker:none;marker-start:none;marker-mid:none;marker-end:none;stroke-miterlimit:4;stroke-dasharray:none;stroke-opacity:1;visibility:visible;display:inline;overflow:visible;enable-background:accumulate"
           sodipodi:type="arc" />
      </g>
      <path
         style="fill:#ce1126;fill-opacity:1;fill-rule:evenodd;stroke:none;stroke-width:0.34285712;stroke-linecap:butt;stroke-linejoin:miter;stroke-miterlimit:4;stroke-dasharray:none;stroke-opacity:1"
         d="M 1.167025,18.937533 L 0.91702496,19.156283 C 1.1597261,19.398983 1.4404641,19.398753 1.667025,19.406283 C 1.6700378,19.406383 1.6640284,19.437445 1.667025,19.437533 C 1.6678307,19.448805 1.6800867,19.489656 1.698275,19.593783 C 1.7199836,19.718064 1.7477864,19.888575 1.760775,20.062533 C 1.7867522,20.410449 1.7967612,20.810922 1.854525,21.062533 L 1.885775,21.187533 L 2.042025,21.187533 C 2.042025,21.187533 2.2213121,21.187533 2.260775,21.187533 C 2.3092961,21.187534 2.510775,21.187533 2.510775,21.187533 L 2.667025,21.187533 L 2.698275,21.031283 C 2.7521429,20.77703 2.7643367,20.409788 2.792025,20.062533 C 2.8058691,19.888905 2.8015984,19.71686 2.823275,19.593783 C 2.8417001,19.489167 2.8886137,19.444145 2.885775,19.437533 C 2.885274,19.436366 2.8892691,19.402789 2.885775,19.406283 C 3.1115172,19.398367 3.363272,19.397534 3.604525,19.156283 L 3.385775,18.937533 C 3.1812829,19.142023 3.0056716,19.125033 2.760775,19.125033 L 2.698275,19.125033 L 2.635775,19.187533 C 2.5270643,19.296244 2.5361982,19.386933 2.510775,19.531283 C 2.4853518,19.675633 2.462434,19.853707 2.448275,20.031283 C 2.4236954,20.339551 2.3860724,20.634022 2.354525,20.843783 C 2.312898,20.843783 2.2789637,20.843783 2.260775,20.843783 C 2.2494986,20.843783 2.2279857,20.843783 2.198275,20.843783 C 2.1666533,20.642414 2.1275929,20.340234 2.104525,20.031283 C 2.0912368,19.853313 2.0675953,19.708922 2.042025,19.562533 C 2.0164547,19.416144 2.0257472,19.296256 1.917025,19.187533 L 1.854525,19.125033 L 1.792025,19.125033 C 1.5471264,19.125033 1.3715149,19.142022 1.167025,18.937533 z"
         id="path3245" />
      <g
         id="g3296"
         transform="translate(0.2901009,0.4687829)">
        <path
           sodipodi:nodetypes="cccsc"
           id="path2446"
           d="M -1.0994278,21.8089 C -0.44083262,21.297229 0.23888164,20.83186 1.1400859,20.852054 L 0.84147233,20.308874 C -0.089631202,20.291458 -0.79804475,20.763675 -1.1175242,21.44283 C -1.1996877,21.617491 -1.1662034,21.651823 -1.0994278,21.8089 z"
           style="fill:#ce1126;fill-opacity:1;fill-rule:evenodd;stroke:none;stroke-width:1px;stroke-linecap:butt;stroke-linejoin:miter;stroke-opacity:1" />
        <path
           sodipodi:nodetypes="cccsc"
           id="path3249"
           d="M 5.0407757,21.8089 C 4.3821815,21.297228 3.7024672,20.83186 2.801263,20.852054 L 3.0998766,20.308874 C 4.03098,20.291457 4.7393936,20.763674 5.0588722,21.442829 C 5.1410358,21.617491 5.1075515,21.651822 5.0407757,21.8089 z"
           style="fill:#ce1126;fill-opacity:1;fill-rule:evenodd;stroke:none;stroke-width:1px;stroke-linecap:butt;stroke-linejoin:miter;stroke-opacity:1" />
      </g>
      <path
         style="fill:#ce1126;fill-opacity:1;fill-rule:evenodd;stroke:none;stroke-width:1px;stroke-linecap:butt;stroke-linejoin:miter;stroke-opacity:1"
         d="M 1.3860179,26.346869 C 1.5804093,26.346869 1.6942807,26.490754 1.9691878,26.490754 L 2.5523621,26.490754 C 2.8272692,26.490754 2.9411407,26.346869 3.1355321,26.346869 C 3.1355321,26.202986 2.9411407,26.059104 2.7467514,26.059104 L 1.7747986,26.059104 C 1.5804093,26.059104 1.3860179,26.202986 1.3860179,26.346869 z"
         id="path3251"
         sodipodi:nodetypes="csscccc" />
      <path
         style="fill:#ce1126;fill-opacity:1;fill-rule:evenodd;stroke:none;stroke-width:0.30917788;stroke-linecap:butt;stroke-linejoin:miter;stroke-miterlimit:4;stroke-dasharray:none;stroke-opacity:1"
         d="M 0.15625,21.90625 C -0.11514276,21.969287 -0.33922002,22.064175 -0.5625,22.125 L -0.46875,22.4375 C -0.20282186,22.365056 0.029647971,22.238681 0.25,22.1875 C 0.47035203,22.136319 0.66235987,22.147095 0.90625,22.3125 L 1.0625,22.0625 C 0.74911319,21.849962 0.42764276,21.843213 0.15625,21.90625 z"
         id="path3237" />
      <path
         style="fill:#ce1126;fill-opacity:1;fill-rule:evenodd;stroke:none;stroke-width:0.30917788;stroke-linecap:butt;stroke-linejoin:miter;stroke-miterlimit:4;stroke-dasharray:none;stroke-opacity:1"
         d="M 4.34375,21.90625 C 4.0723572,21.843213 3.7821369,21.849962 3.46875,22.0625 L 3.625,22.3125 C 3.8688902,22.147095 4.060898,22.136319 4.28125,22.1875 C 4.501602,22.238681 4.7340718,22.365056 5,22.4375 L 5.09375,22.125 C 4.87047,22.064175 4.6151428,21.969287 4.34375,21.90625 z"
         id="path3239" />
    </g>
  </g>
</svg>
