<?xml version="1.0" encoding="UTF-8" standalone="no"?>
<!-- Creator: CorelDRAW -->

<svg
   xmlns:dc="http://purl.org/dc/elements/1.1/"
   xmlns:cc="http://creativecommons.org/ns#"
   xmlns:rdf="http://www.w3.org/1999/02/22-rdf-syntax-ns#"
   xmlns:svg="http://www.w3.org/2000/svg"
   xmlns="http://www.w3.org/2000/svg"
   xmlns:sodipodi="http://sodipodi.sourceforge.net/DTD/sodipodi-0.dtd"
   xmlns:inkscape="http://www.inkscape.org/namespaces/inkscape"
   xml:space="preserve"
   width="1024px"
   height="768px"
   style="shape-rendering:geometricPrecision; text-rendering:geometricPrecision; image-rendering:optimizeQuality; fill-rule:evenodd"
   viewBox="0 0 1024 768"
   id="svg3106"
   version="1.1"
   inkscape:version="0.48.4 r9939"
   sodipodi:docname="Flag_of_the_Comoros_(1996-2001).svg"><metadata
   id="metadata3153"><rdf:RDF><cc:Work
       rdf:about=""><dc:format>image/svg+xml</dc:format><dc:type
         rdf:resource="http://purl.org/dc/dcmitype/StillImage" /></cc:Work></rdf:RDF></metadata><sodipodi:namedview
   pagecolor="#ffffff"
   bordercolor="#666666"
   borderopacity="1"
   objecttolerance="10"
   gridtolerance="10"
   guidetolerance="10"
   inkscape:pageopacity="0"
   inkscape:pageshadow="2"
   inkscape:window-width="1440"
   inkscape:window-height="838"
   id="namedview3151"
   showgrid="false"
   inkscape:zoom="0.80859375"
   inkscape:cx="512"
   inkscape:cy="384"
   inkscape:window-x="-8"
   inkscape:window-y="-8"
   inkscape:window-maximized="1"
   inkscape:current-layer="svg3106" />
 <defs
   id="defs3108">
  <style
   type="text/css"
   id="style3110">
   
    .str0 {stroke:#FFFFFF;stroke-width:4;stroke-linecap:round}
    .fil1 {fill:#FFFFFF}
    .fil0 {fill:#3D8E33}
   
  </style>
 </defs>
 <path
   class="fil0"
   d="M0 0l1024 0 0 768 -1024 0 0 -768z"
   id="path3112" />
 <g
   id="Layer 1">
  <path
   class="fil1"
   d="M653 685c-136,-32 -238,-155 -238,-301 0,-146 102,-269 238,-301 -23,-6 -47,-9 -72,-9 -171,0 -310,139 -310,310 0,171 139,310 310,310 25,0 49,-3 72,-9z"
   id="path3115" />
  <path
   class="fil1"
   d="M677 119l14 45 46 0 -37 27 14 44 -37 -27 -38 27 15 -44 -38 -27 46 0 15 -45zm7 23m30 22m5 13m-12 36m-11 8m-38 0m-12 -8m-11 -36m4 -13m31 -22"
   id="path3117" />
  <path
   class="fil1"
   d="M677 254l14 44 46 0 -37 27 14 44 -37 -27 -38 27 15 -44 -38 -27 46 0 15 -44zm7 22m30 22m5 14m-12 35m-11 9m-38 0m-12 -9m-11 -35m4 -14m31 -22"
   id="path3119" />
  <path
   class="fil1"
   d="M677 390l14 44 46 0 -37 27 14 44 -37 -27 -38 27 15 -44 -38 -27 46 0 15 -44zm7 22m30 22m5 14m-12 35m-11 9m-38 0m-12 -9m-11 -35m4 -14m31 -22"
   id="path3121" />
  <path
   class="fil1"
   d="M677 526l14 44 46 0 -37 27 14 44 -37 -27 -38 27 15 -44 -38 -27 46 0 15 -44zm7 22m30 22m5 13m-12 36m-11 8m-38 0m-12 -8m-11 -36m4 -13m31 -22"
   id="path3123" />
  <path
   class="fil1 str0"
   d="M870 167c0,2 -3,2 -4,2 -3,0 -5,-1 -6,-2 -1,-1 2,-3 5,-3 2,0 5,1 5,3z"
   id="path3125" />
  <path
   class="fil1"
   d="M848 171c0,0 9,1 13,-2 4,-2 3,-7 5,-7 1,0 2,13 -16,12 0,0 -2,-3 -2,-3z"
   id="path3127" />
  <path
   class="fil1"
   d="M938 85c8,-6 28,-19 31,-22 1,4 0,5 0,5 -3,5 -28,20 -32,22 1,-2 1,-3 1,-5z"
   id="path3129" />
  <path
   class="fil1"
   d="M961 80c0,1 7,-6 7,-6 1,8 3,20 6,24 3,4 13,7 4,23 3,-14 -6,-18 -6,-19 6,63 2,73 -4,83 3,-39 0,-64 -7,-105z"
   id="path3131" />
  <path
   class="fil1"
   d="M842 123c3,1 -6,22 6,26 12,3 24,-42 35,-38 15,5 -20,66 14,67 23,0 15,-16 15,-69 0,0 5,-6 6,-6 4,55 0,76 19,76 31,0 5,-49 6,-61 0,0 7,-17 7,-14 1,19 10,9 12,39 -6,-6 0,-8 -10,-19 5,25 15,64 -8,69 -12,4 -18,0 -26,-15 -6,17 -18,16 -26,15 -36,-8 -2,-66 -13,-68 -11,-2 -15,41 -32,36 -17,-5 -8,-38 -5,-38z"
   id="path3133" />
  <path
   class="fil1"
   d="M907 74c0,8 -2,13 3,13 5,1 3,-8 3,-13 0,0 3,-3 3,-3 1,13 1,17 4,17 5,0 3,-5 2,-13 0,0 3,-4 3,-4 1,4 4,7 4,7 0,0 -2,0 -3,0 0,5 3,16 -6,15 -3,0 -4,0 -6,-2 -2,2 -4,3 -6,3 -7,-1 -5,-19 -1,-20z"
   id="path3135" />
  <path
   class="fil1"
   d="M878 74c-5,5 -1,7 2,7 4,-4 5,-7 4,-8 -1,-1 -3,-1 -6,1zm-3 -1c-6,6 -2,11 1,12 -3,2 -8,5 -19,11 1,0 3,1 5,0 7,-3 15,-8 19,-11 1,0 3,1 5,2 0,-3 2,-4 -2,-5 4,-4 6,-13 1,-13 -4,0 -8,1 -10,4z"
   id="path3137" />
  <path
   class="fil1"
   d="M912 48c0,-1 3,-6 4,-7 6,15 1,24 -2,27 2,-13 -1,-18 -2,-20z"
   id="path3139" />
  <path
   class="fil1"
   d="M936 151c-2,-4 -5,-6 -7,-6 0,1 -1,2 0,5 -7,-6 -4,-9 4,-8 2,-8 6,-6 8,0 -4,-2 -4,-1 -4,0 -1,1 -1,2 2,9 1,2 2,5 0,7 -1,-3 -2,-4 -3,-7zm-10 -15c0,-2 1,-2 2,-2 1,0 2,1 2,1 0,-1 0,-1 -2,-5 -2,-3 -3,-6 -3,-8 2,-6 -1,-1 3,5 2,2 6,7 3,10 -1,2 -4,2 -5,-1z"
   id="path3141" />
  <path
   class="fil1"
   d="M895 151c2,-4 5,-5 7,-5 0,0 1,1 0,4 7,-6 4,-9 -4,-7 -2,-8 -6,-6 -8,-1 4,-1 4,0 4,0 1,2 1,3 -2,9 -1,2 -2,5 0,7 1,-3 2,-3 3,-7zm10 -14c0,-2 -1,-3 -2,-3 -1,0 -2,2 -2,1 0,0 0,-1 2,-4 2,-3 3,-7 3,-8 -2,-7 1,-1 -3,4 -2,3 -6,7 -3,11 1,1 4,1 5,-1z"
   id="path3143" />
  <path
   d="M 84 586 C 84 590 83 595 83 599 C 94 615 108 646 106 651 C 99 667 77 687 61 690 C 44 692 46 675 52 653 C 38 684 41 700 56 704 C 67 707 100 688 111 659 C 116 677 125 690 139 696 C 166 705 180 701 188 698 C 183 699 171 700 166 696 C 165 694 165 691 164 689 C 153 687 145 683 141 679 C 142 673 171 659 209 644 C 217 640 215 637 217 630 C 185 636 161 639 132 640 C 141.31947 632.01189 151.54297 625.36062 161.75 620.03125 C 167.00585 623.78723 172.79404 626.19851 176 627 C 169 623 167 621 167 621 L 167 617.40625 C 170.3626 615.79711 173.70219 614.31912 177 613 C 183 608 182 604 182 600 C 177 591 155 585 152 595 C 149.07249 601.58691 150.42809 607.3723 153.71875 612.15625 C 143.23061 618.79234 133.1114 626.61085 123 636 C 120 636 119 639 118 642 C 118 646 117 650 117 654 C 131 653 148 652 163 651 C 148 660 134 670 136 681 C 110 671 118 618 84 586 z M 157.84375 601.1875 C 160.5625 601.04688 163 602.75 166 605 C 163.69717 606.22818 161.41556 607.51768 159.15625 608.84375 C 155.08142 604.32808 153.65602 602 155 602 C 156 601.5 156.9375 601.23438 157.84375 601.1875 z "
   id="path3145"
   style="fill:#ffffff" />
  <path
   class="fil1"
   d="M204 610c-1,4 0,8 -1,12 -3,-3 -3,-8 -7,-8 -6,1 -5,-2 -5,-5 1,-2 5,0 11,7 -1,-7 0,-11 5,-12 2,1 3,2 2,5 -3,-1 -5,-2 -5,1z"
   id="path3147" />
  <path
   class="fil1"
   d="M123 595c-2,-5 0,-7 2,-1 4,10 10,8 5,0 -4,-5 -2,-8 3,-1 2,4 4,8 0,12 -3,2 -6,1 -8,-2 -1,5 -9,5 -10,1 -2,-11 0,-17 2,-5 2,5 9,5 6,-4z"
   id="path3149" />
 </g>
</svg>