<?xml version="1.0" encoding="UTF-8" standalone="no"?>
<svg
   xmlns:dc="http://purl.org/dc/elements/1.1/"
   xmlns:cc="http://creativecommons.org/ns#"
   xmlns:rdf="http://www.w3.org/1999/02/22-rdf-syntax-ns#"
   xmlns:svg="http://www.w3.org/2000/svg"
   xmlns="http://www.w3.org/2000/svg"
   xmlns:sodipodi="http://sodipodi.sourceforge.net/DTD/sodipodi-0.dtd"
   xmlns:inkscape="http://www.inkscape.org/namespaces/inkscape"
   width="1200"
   height="600"
   id="svg2"
   version="1.1"
   inkscape:version="0.48.2 r9819"
   sodipodi:docname="Flag of Ethiopia (1996–2009).svg">
  <metadata
     id="metadata18">
    <rdf:RDF>
      <cc:Work
         rdf:about="">
        <dc:format>image/svg+xml</dc:format>
        <dc:type
           rdf:resource="http://purl.org/dc/dcmitype/StillImage" />
      </cc:Work>
    </rdf:RDF>
  </metadata>
  <defs
     id="defs16" />
  <sodipodi:namedview
     pagecolor="#ffffff"
     bordercolor="#666666"
     borderopacity="1"
     objecttolerance="10"
     gridtolerance="10"
     guidetolerance="10"
     inkscape:pageopacity="0"
     inkscape:pageshadow="2"
     inkscape:window-width="935"
     inkscape:window-height="748"
     id="namedview14"
     showgrid="false"
     inkscape:zoom="0.55"
     inkscape:cx="600"
     inkscape:cy="300"
     inkscape:window-x="164"
     inkscape:window-y="89"
     inkscape:window-maximized="0"
     inkscape:current-layer="svg2">
    <inkscape:grid
       type="xygrid"
       id="grid2995" />
  </sodipodi:namedview>
  <rect
     height="200"
     width="1200"
     id="rect4"
     x="0"
     y="400"
     style="fill:#da121a" />
  <rect
     height="200"
     width="1200"
     id="rect6"
     x="0"
     y="200.00002"
     style="fill:#fcdd09" />
  <rect
     style="fill:#078930"
     y="7.6293945e-006"
     x="0"
     height="200"
     width="1200"
     id="rect8" />
  <circle
     style="fill:#00a5db;fill-opacity:1"
     sodipodi:ry="200"
     sodipodi:rx="200"
     sodipodi:cy="300"
     sodipodi:cx="600"
     cx="600"
     cy="300"
     r="200"
     id="circle10"
     transform="matrix(0.75000022,0,0,0.74999989,149.99991,75.000055)" />
  <path
     d="m 485,264.03252 87.85219,0 19.86368,-61.48552 5.29756,16.39783 -28.86609,89.35124 -8.57161,-6.26343 9.00238,-27.86571 -70.70895,0 L 485,264.03252 M 528.92611,400 l 27.1478,-84.03252 -52.00386,-38.00015 17.14319,0 75.57243,55.22211 -8.57159,6.2634 L 564.64551,322.2309 542.79522,389.86559 528.92611,400 m 142.14778,0 -71.0739,-51.93497 -52.00384,38.00016 5.29754,-16.39786 75.5724,-55.22207 3.27406,10.13441 -23.56855,17.22194 57.2048,41.80057 L 671.07389,400 M 715,264.03252 l -71.0739,51.93496 19.86367,61.48551 -13.86911,-10.13443 -28.86611,-89.35123 10.5951,0 9.0024,27.86571 57.20475,-41.80052 17.1432,0 M 600,180 l 27.14782,84.03252 64.2803,0 -13.86912,10.13441 -93.41265,0 3.27404,-10.13441 29.13236,0 -21.8503,-67.63469 L 600,180 z"
     id="path12"
     style="fill:#fcdd09"
     inkscape:connector-curvature="0" />
  <path
     d="m 599.99998,358.12344 0,64.37658 M 548.4375,320.48387 487.49998,340.37731 m 80.63266,-80.7956 -37.66146,-52.08172 m 101.39614,52.08172 37.66148,-52.08172 M 651.56248,320.48387 712.5,340.37731 651.56248,320.48387 z"
     id="path14"
     style="stroke:#fcdd09;stroke-width:4.99996805;stroke-miterlimit:4;stroke-dasharray:none"
     inkscape:connector-curvature="0" />
</svg>
