<?xml version="1.0" encoding="UTF-8" standalone="no"?>
<!-- Created with Inkscape (http://www.inkscape.org/) -->
<svg
   xmlns:dc="http://purl.org/dc/elements/1.1/"
   xmlns:cc="http://creativecommons.org/ns#"
   xmlns:rdf="http://www.w3.org/1999/02/22-rdf-syntax-ns#"
   xmlns:svg="http://www.w3.org/2000/svg"
   xmlns="http://www.w3.org/2000/svg"
   xmlns:sodipodi="http://sodipodi.sourceforge.net/DTD/sodipodi-0.dtd"
   xmlns:inkscape="http://www.inkscape.org/namespaces/inkscape"
   version="1.0"
   width="420"
   height="300"
   id="svg2"
   sodipodi:version="0.32"
   inkscape:version="0.46"
   sodipodi:docname="Flag_of_Comoros_(1975-1978).svg"
   inkscape:output_extension="org.inkscape.output.svg.inkscape">
  <metadata
     id="metadata12">
    <rdf:RDF>
      <cc:Work
         rdf:about="">
        <dc:format>image/svg+xml</dc:format>
        <dc:type
           rdf:resource="http://purl.org/dc/dcmitype/StillImage" />
      </cc:Work>
    </rdf:RDF>
  </metadata>
  <sodipodi:namedview
     inkscape:window-height="750"
     inkscape:window-width="1280"
     inkscape:pageshadow="2"
     inkscape:pageopacity="0.0"
     guidetolerance="10.0"
     gridtolerance="10.0"
     objecttolerance="10.0"
     borderopacity="1.0"
     bordercolor="#666666"
     pagecolor="#ffffff"
     id="base"
     showgrid="false"
     inkscape:zoom="0.63686438"
     inkscape:cx="507.97417"
     inkscape:cy="158.69928"
     inkscape:window-x="-8"
     inkscape:window-y="-8"
     inkscape:current-layer="svg2" />
  <defs
     id="defs5" />
  <rect
     width="420"
     height="300"
     x="0"
     y="0"
     style="opacity:1;fill:#ce1126;fill-opacity:1;fill-rule:evenodd;stroke:none;stroke-width:0.80000000999999998;stroke-linecap:butt;stroke-miterlimit:4;stroke-dasharray:none;stroke-opacity:1"
     id="rect3655" />
  <path
     sodipodi:type="arc"
     style="opacity:1;fill:#ffffff;fill-opacity:1;stroke:none;stroke-width:5;stroke-linecap:square;stroke-linejoin:bevel;stroke-miterlimit:4;stroke-dasharray:none;stroke-opacity:1"
     id="path2387"
     sodipodi:cx="65.784927"
     sodipodi:cy="64.167282"
     sodipodi:rx="46.909927"
     sodipodi:ry="46.909927"
     d="M 112.69485,64.167282 A 46.909927,46.909927 0 1 1 18.875,64.167282 A 46.909927,46.909927 0 1 1 112.69485,64.167282 z"
     transform="matrix(1.4211633,0,0,1.4211633,-1.8244573,-2.8588464)" />
  <rect
     width="420"
     height="100"
     x="0"
     y="199.99997"
     style="opacity:1;fill:#3d8e33;fill-opacity:1;fill-rule:evenodd;stroke:none;stroke-width:0.80000000999999998;stroke-linecap:butt;stroke-miterlimit:4;stroke-dasharray:none;stroke-opacity:1"
     id="rect2768" />
  <path
     sodipodi:type="arc"
     style="opacity:1;fill:#ce1126;fill-opacity:1;stroke:none;stroke-width:5;stroke-linecap:square;stroke-linejoin:bevel;stroke-miterlimit:4;stroke-dasharray:none;stroke-opacity:1"
     id="path2389"
     sodipodi:cx="65.784927"
     sodipodi:cy="64.167282"
     sodipodi:rx="46.909927"
     sodipodi:ry="46.909927"
     d="M 112.69485,64.167282 A 46.909927,46.909927 0 1 1 18.875,64.167282 A 46.909927,46.909927 0 1 1 112.69485,64.167282 z"
     transform="matrix(1.3323406,0,0,1.3323406,24.852071,17.007332)" />
  <path
     d="M 136.0874,105.37045 L 148.54696,113.30749 L 160.23435,104.27189 L 156.53599,118.57433 L 168.74096,126.89755 L 153.99568,127.79989 L 149.85136,141.97953 L 144.43665,128.23478 L 129.67036,128.67504 L 141.06914,119.27797 L 136.0874,105.37045 z"
     style="opacity:1;fill:#ffffff;fill-opacity:1;fill-rule:evenodd;stroke:none;stroke-width:0.80000001;stroke-linecap:butt;stroke-miterlimit:4;stroke-dasharray:none;stroke-opacity:1"
     id="path1875" />
  <path
     d="M 86.902395,110.9124 L 99.361955,118.84944 L 111.04935,109.81384 L 107.35099,124.11627 L 119.55596,132.4395 L 104.81068,133.34183 L 100.66636,147.52147 L 95.251653,133.77673 L 80.485355,134.21699 L 91.884145,124.81992 L 86.902395,110.9124 z"
     style="opacity:1;fill:#ffffff;fill-opacity:1;fill-rule:evenodd;stroke:none;stroke-width:0.80000001;stroke-linecap:butt;stroke-miterlimit:4;stroke-dasharray:none;stroke-opacity:1"
     id="path2762" />
  <path
     d="M 72.202256,63.662119 L 84.661816,71.599158 L 96.349214,62.563562 L 92.65085,76.865997 L 104.85582,85.189221 L 90.110545,86.091557 L 85.966222,100.2712 L 80.551514,86.52645 L 65.785216,86.966708 L 77.184006,77.569639 L 72.202256,63.662119 z"
     style="opacity:1;fill:#ffffff;fill-opacity:1;fill-rule:evenodd;stroke:none;stroke-width:0.80000001;stroke-linecap:butt;stroke-miterlimit:4;stroke-dasharray:none;stroke-opacity:1"
     id="path2764" />
  <path
     d="M 123.65253,58.412119 L 136.11209,66.349158 L 147.79949,57.313562 L 144.10113,71.615998 L 156.3061,79.939221 L 141.56082,80.841557 L 137.4165,95.021196 L 132.00179,81.27645 L 117.23549,81.716708 L 128.63428,72.31964 L 123.65253,58.412119 z"
     style="opacity:1;fill:#ffffff;fill-opacity:1;fill-rule:evenodd;stroke:none;stroke-width:0.80000001;stroke-linecap:butt;stroke-miterlimit:4;stroke-dasharray:none;stroke-opacity:1"
     id="path2766" />
</svg>
