<?xml version="1.0" encoding="UTF-8" standalone="no"?>
<!-- Created with Inkscape (http://www.inkscape.org/) -->
<svg
   xmlns:dc="http://purl.org/dc/elements/1.1/"
   xmlns:cc="http://creativecommons.org/ns#"
   xmlns:rdf="http://www.w3.org/1999/02/22-rdf-syntax-ns#"
   xmlns:svg="http://www.w3.org/2000/svg"
   xmlns="http://www.w3.org/2000/svg"
   xmlns:xlink="http://www.w3.org/1999/xlink"
   xmlns:sodipodi="http://sodipodi.sourceforge.net/DTD/sodipodi-0.dtd"
   xmlns:inkscape="http://www.inkscape.org/namespaces/inkscape"
   version="1.0"
   width="1200"
   height="600"
   viewBox="-15 -7.5 30 15"
   id="Government_Ensign_of_the_United_Kingdom"
   sodipodi:version="0.32"
   inkscape:version="0.46"
   sodipodi:docname="Flag_of_the_Territory_of_Papua.svg"
   inkscape:output_extension="org.inkscape.output.svg.inkscape">
  <metadata
     id="metadata140">
    <rdf:RDF>
      <cc:Work
         rdf:about="">
        <dc:format>image/svg+xml</dc:format>
        <dc:type
           rdf:resource="http://purl.org/dc/dcmitype/StillImage" />
      </cc:Work>
    </rdf:RDF>
  </metadata>
  <sodipodi:namedview
     inkscape:window-height="968"
     inkscape:window-width="1280"
     inkscape:pageshadow="2"
     inkscape:pageopacity="0.0"
     guidetolerance="10.0"
     gridtolerance="10.0"
     objecttolerance="10.0"
     borderopacity="1.0"
     bordercolor="#666666"
     pagecolor="#ffffff"
     id="base"
     showgrid="false"
     inkscape:zoom="1.005"
     inkscape:cx="600"
     inkscape:cy="300"
     inkscape:window-x="-4"
     inkscape:window-y="-4"
     inkscape:current-layer="Government_Ensign_of_the_United_Kingdom" />
  <defs
     id="defs3">
    <linearGradient
       id="linearGradient3377">
      <stop
         id="stop3379"
         style="stop-color:#ffffff;stop-opacity:1"
         offset="0" />
      <stop
         id="stop3381"
         style="stop-color:#323232;stop-opacity:1"
         offset="1" />
    </linearGradient>
    <clipPath
       id="border">
      <rect
         width="30"
         height="15"
         x="-15"
         y="-7.5"
         id="rect6" />
    </clipPath>
    <radialGradient
       cx="251.02292"
       cy="211.25867"
       r="6.7182918"
       fx="251.02292"
       fy="211.25867"
       id="radialGradient4383"
       xlink:href="#linearGradient3377"
       gradientUnits="userSpaceOnUse"
       gradientTransform="matrix(1.63105,-3.02871e-2,3.22593e-2,1.73725,-165.222,-148.149)" />
    <radialGradient
       cx="251.02292"
       cy="211.25867"
       r="6.7182918"
       fx="251.02292"
       fy="211.25867"
       id="radialGradient4385"
       xlink:href="#linearGradient3377"
       gradientUnits="userSpaceOnUse"
       gradientTransform="matrix(1.63105,-3.02871e-2,3.22593e-2,1.73725,-165.222,-148.149)" />
    <radialGradient
       cx="251.02292"
       cy="211.25867"
       r="6.7182918"
       fx="251.02292"
       fy="211.25867"
       id="radialGradient4387"
       xlink:href="#linearGradient3377"
       gradientUnits="userSpaceOnUse"
       gradientTransform="matrix(1.63105,-3.02871e-2,3.22593e-2,1.73725,-165.222,-148.149)" />
    <radialGradient
       cx="251.02292"
       cy="211.25867"
       r="6.7182918"
       fx="251.02292"
       fy="211.25867"
       id="radialGradient4389"
       xlink:href="#linearGradient3377"
       gradientUnits="userSpaceOnUse"
       gradientTransform="matrix(1.63105,-3.02871e-2,3.22593e-2,1.73725,-165.222,-148.149)" />
    <radialGradient
       cx="251.02292"
       cy="211.25867"
       r="6.7182918"
       fx="251.02292"
       fy="211.25867"
       id="radialGradient4391"
       xlink:href="#linearGradient3377"
       gradientUnits="userSpaceOnUse"
       gradientTransform="matrix(1.63105,-3.02871e-2,3.22593e-2,1.73725,-165.222,-148.149)" />
    <radialGradient
       cx="251.02292"
       cy="211.25867"
       r="6.7182918"
       fx="251.02292"
       fy="211.25867"
       id="radialGradient4393"
       xlink:href="#linearGradient3377"
       gradientUnits="userSpaceOnUse"
       gradientTransform="matrix(1.63105,-3.02871e-2,3.22593e-2,1.73725,-165.222,-148.149)" />
    <radialGradient
       cx="251.02292"
       cy="211.25867"
       r="6.7182918"
       fx="251.02292"
       fy="211.25867"
       id="radialGradient4395"
       xlink:href="#linearGradient3377"
       gradientUnits="userSpaceOnUse"
       gradientTransform="matrix(1.63105,-3.02871e-2,3.22593e-2,1.73725,-165.222,-148.149)" />
    <radialGradient
       cx="251.02292"
       cy="211.25867"
       r="6.7182918"
       fx="251.02292"
       fy="211.25867"
       id="radialGradient4397"
       xlink:href="#linearGradient3377"
       gradientUnits="userSpaceOnUse"
       gradientTransform="matrix(1.63105,-3.02871e-2,3.22593e-2,1.73725,-165.222,-148.149)" />
  </defs>
  <g
     id="g4399">
    <rect
       width="30"
       height="15"
       x="-15"
       y="-7.5"
       id="rect8"
       style="fill:#00247d" />
    <g
       transform="matrix(0.5,0,0,0.5,-7.5,-3.75)"
       id="canton">
      <g
         clip-path="url(#border)"
         id="g11">
        <circle
           cx="0"
           cy="0"
           r="20"
           id="circle13"
           style="fill:#00247d" />
        <path
           d="M -20,-10 L 20,10 M -20,10 L 20,-10"
           id="diags_white"
           style="stroke:#ffffff;stroke-width:3" />
        <path
           d="M -20,-10 L 20,10 M -20,10 L 20,-10"
           id="diags_red"
           style="stroke:#cf142b;stroke-width:2" />
        <path
           d="M 0,0 L 20,10 L 17,10 L -3,0 M 0,0 L 20,-10 L 23,-10 L 3,0 M 0,0 L -20,10 L -23,10 L -3,0 M 0,0 L -20,-10 L -17,-10 L 3,0"
           id="eraser_white"
           style="fill:#ffffff;stroke:none" />
        <path
           d="M -20,0 L 20,0 M 0,-10 L 0,10"
           id="cross_white"
           style="stroke:#ffffff;stroke-width:5" />
        <path
           d="M -20,0 L 20,0 M 0,-10 L 0,10"
           id="cross_red"
           style="stroke:#cf142b;stroke-width:3" />
      </g>
    </g>
    <g
       transform="translate(-30.875,-1.6250001)"
       id="g4270">
      <path
         d="M 36.453179,-19.213781 C 36.453179,-17.735492 35.33488,-16.537103 33.955388,-16.537103 C 32.575895,-16.537103 31.457596,-17.735492 31.457596,-19.213781 C 31.457596,-20.69207 32.575895,-21.890459 33.955388,-21.890459 C 35.33488,-21.890459 36.453179,-20.69207 36.453179,-19.213781 z"
         transform="matrix(1.3511936,0,0,1.2608911,-7.5053018,25.851486)"
         id="path3563"
         style="fill:#ffffff;fill-opacity:1;stroke:none;stroke-width:0.70899999;stroke-linecap:round;stroke-miterlimit:4;stroke-dasharray:none;stroke-opacity:1" />
      <g
         transform="matrix(0.6669318,0,0,0.6669318,5.6610593,18.149863)"
         id="g3800">
        <path
           d="M 48.801979,-26.990423 C 48.708397,-26.987839 48.626915,-27.033956 48.477663,-27.042069 C 48.323717,-27.068595 48.093147,-27.055209 47.891109,-26.895782 C 47.890194,-26.89506 47.888881,-26.89511 47.887843,-26.894577 C 47.788664,-26.842759 47.658173,-26.790362 47.590647,-26.801265 C 47.590454,-26.801323 47.590189,-26.801208 47.589994,-26.801265 C 47.316994,-26.881617 46.692924,-26.850439 46.622124,-26.001038 C 46.621693,-25.995818 46.623945,-25.987193 46.628657,-25.976355 C 46.628724,-25.976199 46.628587,-25.97591 46.628657,-25.975753 C 46.60263,-25.842263 46.501147,-25.792301 46.501147,-25.792301 C 46.533564,-25.770872 46.535469,-25.71912 46.541714,-25.703936 C 46.541787,-25.703684 46.550571,-25.700183 46.5506,-25.699899 C 46.551077,-25.682941 46.497301,-25.622952 46.508985,-25.594843 C 46.509039,-25.59472 46.50958,-25.594363 46.509638,-25.594242 C 46.509882,-25.593762 46.509996,-25.592889 46.510291,-25.592435 C 46.510368,-25.592323 46.510863,-25.591943 46.510943,-25.591834 C 46.511111,-25.591617 46.511417,-25.590839 46.511597,-25.59063 C 46.511691,-25.590526 46.512153,-25.590129 46.51225,-25.590027 C 46.51235,-25.589927 46.5128,-25.589523 46.512904,-25.589425 C 46.513011,-25.589329 46.513446,-25.588918 46.513556,-25.588824 C 46.5139,-25.588545 46.514488,-25.588483 46.514863,-25.588222 C 46.538324,-25.571824 46.558847,-25.502281 46.574955,-25.441332 C 46.575055,-25.440954 46.574856,-25.440505 46.574955,-25.440128 C 46.574903,-25.439891 46.575006,-25.439762 46.574955,-25.439526 C 46.569924,-25.416189 46.571707,-25.395781 46.586059,-25.381733 C 46.588228,-25.379605 46.547387,-25.364834 46.5494,-25.362404 C 46.567719,-25.287223 46.794469,-24.580862 46.783972,-24.542534 C 46.773609,-24.504085 46.846484,-24.455807 46.912649,-24.436581 C 46.920386,-24.434329 46.938894,-24.432015 46.967515,-24.42996 C 46.968439,-24.429657 46.969205,-24.429658 46.970128,-24.429357 C 47.360908,-24.302169 47.696662,-24.386365 48.42149,-24.415512 C 48.610718,-24.417004 48.813283,-24.4193 49.026985,-24.422736 C 49.029534,-24.422777 49.032282,-24.422696 49.034823,-24.422736 C 49.039376,-24.422806 49.04401,-24.422671 49.048541,-24.422736 C 49.262242,-24.4193 49.464808,-24.417004 49.654036,-24.415512 C 50.378864,-24.386365 50.714617,-24.302169 51.105397,-24.429357 C 51.106276,-24.429419 51.107149,-24.429897 51.10801,-24.42996 C 51.136631,-24.432015 51.155139,-24.434329 51.162877,-24.436581 C 51.229041,-24.455807 51.301916,-24.504085 51.291553,-24.542534 C 51.281057,-24.580862 51.30527,-24.731255 51.30527,-24.785746 C 51.30527,-24.840237 51.346928,-24.904033 51.371241,-24.929626 C 51.378394,-24.93719 51.386939,-24.953389 51.394755,-24.973572 C 51.428871,-24.96197 51.47278,-24.940291 51.486853,-24.939258 C 51.486976,-24.939251 51.487389,-24.93926 51.487507,-24.939258 C 51.48762,-24.939258 51.488052,-24.939253 51.48816,-24.939258 C 51.488262,-24.939266 51.488715,-24.939246 51.488813,-24.939258 C 51.488905,-24.939273 51.489379,-24.939238 51.489466,-24.939258 C 51.489542,-24.939285 51.490048,-24.939226 51.490119,-24.939258 C 51.49025,-24.939327 51.490664,-24.939775 51.490772,-24.939859 C 51.490815,-24.939911 51.490735,-24.940407 51.490772,-24.940462 C 51.490823,-24.940588 51.4914,-24.94092 51.491426,-24.941064 C 51.491433,-24.94114 51.491425,-24.941585 51.491426,-24.941666 C 51.491391,-24.941935 51.490865,-24.942558 51.490772,-24.94287 C 51.490697,-24.943086 51.490874,-24.943838 51.490772,-24.944074 C 51.490715,-24.944196 51.490183,-24.944548 51.490119,-24.944675 C 51.486578,-24.951314 51.476982,-24.964298 51.452717,-24.986215 C 51.452592,-24.986327 51.452854,-24.986501 51.452732,-24.986622 C 51.423332,-25.018362 51.495448,-25.295039 51.513766,-25.37022 C 51.515779,-25.37265 51.487297,-25.379605 51.489466,-25.381733 C 51.503818,-25.395781 51.505601,-25.416189 51.50057,-25.439526 C 51.50062,-25.439715 51.500521,-25.439939 51.50057,-25.440128 C 51.500465,-25.4406 51.50068,-25.440857 51.50057,-25.441332 C 51.516678,-25.502281 51.537202,-25.571824 51.560663,-25.588222 C 51.561038,-25.588483 51.561625,-25.588545 51.561969,-25.588824 C 51.562079,-25.588918 51.562514,-25.589329 51.562622,-25.589425 C 51.562725,-25.589523 51.563175,-25.589927 51.563276,-25.590027 C 51.563373,-25.590129 51.563835,-25.590526 51.563928,-25.59063 C 51.564109,-25.590839 51.564415,-25.591617 51.564582,-25.591834 C 51.564662,-25.591943 51.565158,-25.592323 51.565235,-25.592435 C 51.565677,-25.593115 51.650725,-25.573905 51.651053,-25.574642 C 51.662737,-25.602751 51.596363,-25.67026 51.59684,-25.687218 C 51.596885,-25.687645 51.59735,-25.688069 51.597493,-25.688422 C 51.603738,-25.703606 51.541961,-25.770872 51.574378,-25.792301 C 51.574378,-25.792301 51.629146,-26.026638 51.603119,-26.160128 C 51.603084,-26.160306 51.603154,-26.160552 51.603119,-26.16073 C 51.607831,-26.171568 51.463939,-26.068253 51.463507,-26.073473 C 51.392707,-26.922874 50.758531,-26.881617 50.485532,-26.801265 C 50.485347,-26.801327 50.485072,-26.801279 50.484878,-26.801265 C 50.42124,-26.796581 50.325729,-26.813219 50.187683,-26.894577 C 50.18675,-26.895056 50.185899,-26.895143 50.18507,-26.895782 C 50.012566,-27.028846 49.720605,-27.040525 49.598516,-27.042069 C 49.347252,-27.012731 49.202123,-27.03609 49.09165,-27.000699 C 49.073793,-26.994978 49.055509,-27.050809 49.037436,-27.046885 C 49.019553,-27.050785 49.001546,-27.055672 48.983876,-27.061333 C 48.934776,-27.077062 48.876846,-26.992491 48.801979,-26.990423 z"
           id="path3582"
           style="font-size:12px;fill:#cc0000;fill-opacity:1;stroke:#000000;stroke-width:0.03268133;stroke-miterlimit:4;stroke-dasharray:none;stroke-opacity:1" />
        <path
           d="M 49.034047,-24.118657 L 51.212847,-23.906521 L 51.630509,-25.276569 C 51.630509,-25.276569 51.303341,-24.854505 50.999376,-24.869974 C 50.695411,-24.885442 50.41465,-25.338442 50.41465,-25.338442 C 50.41465,-25.338442 50.093283,-25.071061 49.746391,-25.073271 C 49.3995,-25.075481 49.041008,-25.347281 49.034047,-25.347281 C 49.027086,-25.347281 48.668593,-25.075481 48.321702,-25.073271 C 47.974811,-25.071061 47.653444,-25.338442 47.653444,-25.338442 C 47.653444,-25.338442 47.372682,-24.885442 47.068718,-24.869974 C 46.764753,-24.854505 46.437584,-25.276569 46.437584,-25.276569 L 46.855246,-23.906521 L 49.034047,-24.118657 z"
           id="path7496"
           style="opacity:1;fill:#eac102;fill-opacity:1;fill-rule:evenodd;stroke:#563200;stroke-width:0.025px;stroke-linecap:butt;stroke-linejoin:miter;stroke-opacity:1" />
        <g
           transform="matrix(2.50005e-2,0,0,2.50005e-2,39.843675,-32.461556)"
           id="g3343"
           style="opacity:1">
          <path
             d="M 321.25,323.86218 C 321.25,327.17589 316.54899,329.86218 310.75,329.86218 C 304.95101,329.86218 300.25,327.17589 300.25,323.86218 C 300.25,320.54847 304.95101,317.86218 310.75,317.86218 C 316.54899,317.86218 321.25,320.54847 321.25,323.86218 z"
             transform="matrix(0.994336,-0.106275,0.106275,0.994336,-25.6712,31.8539)"
             id="path7526"
             style="fill:#3e8225;fill-opacity:1;fill-rule:nonzero;stroke:#084308;stroke-width:0.70864701;stroke-linecap:square;stroke-linejoin:miter;stroke-miterlimit:4;stroke-dasharray:none;stroke-dashoffset:0;stroke-opacity:1" />
        </g>
        <g
           transform="matrix(2.50005e-2,0,0,2.50005e-2,39.843675,-32.496931)"
           id="g3339"
           style="opacity:1">
          <path
             d="M 321.25,323.86218 C 321.25,327.17589 316.54899,329.86218 310.75,329.86218 C 304.95101,329.86218 300.25,327.17589 300.25,323.86218 C 300.25,320.54847 304.95101,317.86218 310.75,317.86218 C 316.54899,317.86218 321.25,320.54847 321.25,323.86218 z"
             transform="matrix(0.993642,0.112584,-0.112584,0.993642,144.066,-34.6939)"
             id="path7554"
             style="fill:#3e8225;fill-opacity:1;fill-rule:nonzero;stroke:#084308;stroke-width:0.70864701;stroke-linecap:square;stroke-linejoin:miter;stroke-miterlimit:4;stroke-dasharray:none;stroke-dashoffset:0;stroke-opacity:1" />
        </g>
        <g
           transform="matrix(2.50005e-2,0,0,2.50005e-2,39.848128,-32.518306)"
           id="g3240"
           style="opacity:1">
          <rect
             width="30"
             height="13"
             rx="1.4999688"
             ry="1.4999688"
             x="352.5"
             y="314.86218"
             id="rect7562"
             style="opacity:1;fill:#cc0000;fill-opacity:1;fill-rule:nonzero;stroke:#7e1717;stroke-width:0.70864701;stroke-linecap:square;stroke-linejoin:miter;stroke-miterlimit:4;stroke-dasharray:none;stroke-dashoffset:0;stroke-opacity:1" />
        </g>
        <path
           d="M 49.039587,-25.289039 C 49.135161,-25.205255 49.541019,-25.026222 49.757345,-25.026222 C 49.970547,-25.026222 50.331856,-25.182783 50.405907,-25.272094 C 50.474332,-25.194052 50.70435,-24.831459 51.005919,-24.831459 C 51.307488,-24.831459 51.640099,-25.214077 51.646558,-25.250218 C 51.65309,-25.286773 51.64854,-25.296791 51.609057,-25.290844 C 51.570153,-25.284985 51.307488,-24.906461 51.005919,-24.906461 C 50.70435,-24.906461 50.504188,-25.334595 50.405907,-25.378346 C 50.286978,-25.284594 49.894634,-25.114896 49.754415,-25.114896 C 49.596696,-25.114896 49.177081,-25.314816 49.039587,-25.403999 C 48.902094,-25.314816 48.462425,-25.114896 48.304706,-25.114896 C 48.164487,-25.114896 47.772143,-25.284594 47.653214,-25.378346 C 47.554932,-25.334595 47.354771,-24.906461 47.053202,-24.906461 C 46.751633,-24.906461 46.488968,-25.284985 46.450064,-25.290844 C 46.410581,-25.296791 46.406031,-25.286773 46.412563,-25.250218 C 46.419021,-25.214077 46.751633,-24.831459 47.053202,-24.831459 C 47.354771,-24.831459 47.584789,-25.194052 47.653214,-25.272094 C 47.727265,-25.182783 48.088574,-25.026222 48.301776,-25.026222 C 48.518102,-25.026222 48.92396,-25.205255 49.039587,-25.289039 z"
           id="rect7600"
           style="opacity:1;fill:#eac102;fill-opacity:1;fill-rule:nonzero;stroke:#563200;stroke-width:0.01771655;stroke-linecap:square;stroke-linejoin:miter;stroke-miterlimit:4;stroke-dashoffset:0;stroke-opacity:1" />
        <g
           transform="matrix(2.50005e-2,0,0,2.50005e-2,39.884064,-32.546931)"
           id="BasCouronne"
           style="opacity:1">
          <path
             d="M 363.72045,349.48315 C 375.58005,349.48315 406.23584,349.34746 413.23077,348.94038 C 420.21582,348.53388 425.0807,347.09124 429.15285,345.87833 C 434.80676,344.19427 437.51538,342.78238 441.21048,343.91972 C 444.95776,345.07311 452.53558,353.68966 450.53704,356.81061 C 448.60493,359.82782 443.94021,363.09058 432.36928,364.13807 C 421.12744,365.15577 376.0394,365.54156 365.99193,365.54156 C 355.94445,365.54156 314.03839,365.15577 302.79655,364.13807 C 291.22562,363.09058 283.37894,359.82782 281.44683,356.81061 C 279.44827,353.68966 287.02611,345.07311 290.77339,343.91972 C 294.46849,342.78238 297.17711,344.19427 302.83102,345.87833 C 306.90315,347.09124 311.76804,348.53388 318.75308,348.94038 C 325.74802,349.34746 356.40381,349.48315 363.72045,349.48315 z"
             id="path6541"
             style="fill:#9d9d9d;fill-opacity:1;fill-rule:evenodd;stroke:#000000;stroke-width:1.41728997;stroke-linecap:butt;stroke-linejoin:miter;stroke-miterlimit:4;stroke-opacity:1" />
          <path
             d="M 363.58061,354.09424 C 376.16874,354.09424 408.70771,354.27101 416.13234,354.80134 C 423.54648,355.33092 428.71021,357.21033 433.0325,358.79047 C 439.03373,360.9844 441.90874,362.82376 445.83083,361.34208 C 449.80831,359.83948 457.85164,348.61416 455.73032,344.54829 C 453.67952,340.61758 433.71737,336.36698 421.43564,335.00235 C 409.50321,333.67653 376.65631,333.17393 365.99162,333.17393 C 355.32693,333.17393 322.48003,333.67653 310.5476,335.00235 C 298.26587,336.36698 278.30372,340.61758 276.25292,344.54829 C 274.1316,348.61416 282.17493,359.83948 286.15241,361.34208 C 290.0745,362.82376 292.94951,360.9844 298.95074,358.79047 C 303.27303,357.21033 308.43676,355.33092 315.8509,354.80134 C 323.27553,354.27101 355.8145,354.09424 363.58061,354.09424 z"
             id="path5661"
             style="fill:#ffffff;fill-opacity:1;fill-rule:evenodd;stroke:#000000;stroke-width:1.41728997;stroke-linecap:butt;stroke-linejoin:miter;stroke-miterlimit:4;stroke-opacity:1" />
          <path
             d="M 395.59608,339.51137 C 397.64963,338.98999 417.45772,342.35676 417.17377,344.18324 C 416.86631,346.16093 395.06419,350.32707 393.83856,349.08071 C 392.69589,347.91869 400.97971,346.18237 401.41909,343.79004 C 401.85848,341.39771 393.24228,340.10901 395.59608,339.51137 z"
             id="path7426"
             style="fill:#212121;fill-opacity:1;fill-rule:evenodd;stroke:none;stroke-width:1px;stroke-linecap:butt;stroke-linejoin:miter;stroke-opacity:1" />
        </g>
        <path
           d="M 46.326227,-25.488705 L 46.454818,-25.488705 C 46.684633,-26.142793 46.88551,-26.371626 47.012582,-26.540549 C 47.136388,-26.705132 47.575827,-27.08968 47.794359,-27.258963 C 48.026869,-27.439074 48.768646,-27.786851 48.98292,-27.786851 L 48.98292,-27.919436 C 48.383765,-27.919436 47.970888,-27.636035 47.657925,-27.423622 C 47.340422,-27.208129 47.05236,-26.919522 46.861697,-26.681973 C 46.675317,-26.449761 46.326227,-25.930656 46.326227,-25.488705 z"
           id="path3353"
           style="opacity:1;fill:#eac102;fill-opacity:1;fill-rule:evenodd;stroke:#562300;stroke-width:0.025px;stroke-linecap:butt;stroke-linejoin:miter;stroke-opacity:1" />
        <path
           d="M 51.777541,-25.488705 L 51.648949,-25.488705 C 51.419134,-26.142793 51.218257,-26.371626 51.091186,-26.540549 C 50.967379,-26.705132 50.52794,-27.08968 50.309408,-27.258963 C 50.076898,-27.439074 49.335121,-27.786851 49.120847,-27.786851 L 49.120847,-27.919436 C 49.720002,-27.919436 50.132879,-27.636035 50.445843,-27.423622 C 50.763345,-27.208129 51.051408,-26.919522 51.24207,-26.681973 C 51.42845,-26.449761 51.777541,-25.930656 51.777541,-25.488705 z"
           id="path3492"
           style="opacity:1;fill:#eac102;fill-opacity:1;fill-rule:evenodd;stroke:#562300;stroke-width:0.025px;stroke-linecap:butt;stroke-linejoin:miter;stroke-opacity:1" />
        <g
           transform="matrix(2.50005e-2,0,0,2.50005e-2,39.855061,-32.546931)"
           id="BandeVerticaleCouronne"
           style="opacity:1">
          <path
             d="M 366.84639,303.18255 L 377.47003,303.18255 C 377.47003,303.18255 380.96787,234.15935 382.45598,222.21882 C 383.91328,210.52554 387.70621,202.65942 390.35041,196.40942 C 383.53825,193.80583 375.55327,193.22744 367.22267,193.22744 C 358.89205,193.22744 350.90707,193.80583 344.09491,196.40942 C 346.73911,202.65942 350.53204,210.52554 351.98933,222.21882 C 353.47744,234.15935 356.97529,303.18255 356.97529,303.18255 L 366.84639,303.18255 z"
             id="path7640"
             style="fill:#eac102;fill-opacity:1;fill-rule:evenodd;stroke:#562300;stroke-width:0.99997902px;stroke-linecap:butt;stroke-linejoin:miter;stroke-opacity:1" />
          <path
             d="M 366.54908,297.87925 L 374.17472,297.87925 C 374.17472,297.87925 376.62623,227.19033 378.41736,216.91552 C 380.2565,206.3653 384.29908,197.35612 386.54908,191.10612 C 380.75249,188.50253 373.95792,187.92414 366.86926,187.92414 C 359.78059,187.92414 352.98602,188.50253 347.18943,191.10612 C 349.43943,197.35612 353.54718,206.35617 355.32115,216.91552 C 357.02833,227.07728 359.91735,297.87925 359.91735,297.87925 L 366.54908,297.87925 z"
             id="path7625"
             style="fill:#eac102;fill-opacity:1;fill-rule:evenodd;stroke:#562300;stroke-width:0.99997902px;stroke-linecap:butt;stroke-linejoin:miter;stroke-opacity:1" />
        </g>
        <rect
           width="0.67176557"
           height="0.11490726"
           rx="0.037500005"
           ry="0.037500005"
           x="47.984413"
           y="-25.00256"
           id="rect3285"
           style="opacity:1;fill:#eac102;fill-opacity:1;fill-rule:nonzero;stroke:#562300;stroke-width:0.01771655;stroke-linecap:square;stroke-linejoin:miter;stroke-miterlimit:4;stroke-dasharray:none;stroke-dashoffset:0;stroke-opacity:1" />
        <rect
           width="0.620094"
           height="0.11490726"
           rx="0.037499994"
           ry="0.037500005"
           x="48.717068"
           y="-25.0114"
           id="rect3287"
           style="opacity:1;fill:#eac102;fill-opacity:1;fill-rule:nonzero;stroke:#562300;stroke-width:0.01771653;stroke-linecap:square;stroke-linejoin:miter;stroke-miterlimit:4;stroke-dasharray:none;stroke-dashoffset:0;stroke-opacity:1" />
        <rect
           width="0.67176557"
           height="0.11490726"
           rx="0.037500005"
           ry="0.037500005"
           x="-50.062572"
           y="-25.00256"
           transform="scale(-1,1)"
           id="rect3298"
           style="opacity:1;fill:#eac102;fill-opacity:1;fill-rule:nonzero;stroke:#562300;stroke-width:0.01771655;stroke-linecap:square;stroke-linejoin:miter;stroke-miterlimit:4;stroke-dasharray:none;stroke-dashoffset:0;stroke-opacity:1" />
        <g
           transform="matrix(2.50005e-2,0,0,2.50005e-2,39.843675,-32.546931)"
           id="g3411"
           style="opacity:1">
          <path
             d="M 259.15464,213.73354 C 259.1568,217.24978 256.30693,220.10141 252.79068,220.10141 C 249.27443,220.10141 246.42456,217.24978 246.42672,213.73354 C 246.42456,210.2173 249.27443,207.36567 252.79068,207.36567 C 256.30693,207.36567 259.1568,210.2173 259.15464,213.73354 L 259.15464,213.73354 z"
             transform="matrix(1.15788,0,0,1.15788,36.8114,-59.1993)"
             id="path3367"
             style="opacity:1;fill:url(#radialGradient4383);fill-opacity:1;fill-rule:nonzero;stroke:#000000;stroke-width:0.612023;stroke-linecap:square;stroke-linejoin:miter;stroke-miterlimit:4;stroke-dasharray:none;stroke-dashoffset:0;stroke-opacity:1" />
          <path
             d="M 259.15464,213.73354 C 259.1568,217.24978 256.30693,220.10141 252.79068,220.10141 C 249.27443,220.10141 246.42456,217.24978 246.42672,213.73354 C 246.42456,210.2173 249.27443,207.36567 252.79068,207.36567 C 256.30693,207.36567 259.1568,210.2173 259.15464,213.73354 L 259.15464,213.73354 z"
             transform="matrix(1.15788,0,0,1.15788,24.7906,-52.4818)"
             id="path3383"
             style="opacity:1;fill:url(#radialGradient4385);fill-opacity:1;fill-rule:nonzero;stroke:#000000;stroke-width:0.612023;stroke-linecap:square;stroke-linejoin:miter;stroke-miterlimit:4;stroke-dasharray:none;stroke-dashoffset:0;stroke-opacity:1" />
          <path
             d="M 259.15464,213.73354 C 259.1568,217.24978 256.30693,220.10141 252.79068,220.10141 C 249.27443,220.10141 246.42456,217.24978 246.42672,213.73354 C 246.42456,210.2173 249.27443,207.36567 252.79068,207.36567 C 256.30693,207.36567 259.1568,210.2173 259.15464,213.73354 L 259.15464,213.73354 z"
             transform="matrix(1.15788,0,0,1.15788,12.7698,-44.3501)"
             id="path3387"
             style="opacity:1;fill:url(#radialGradient4387);fill-opacity:1;fill-rule:nonzero;stroke:#000000;stroke-width:0.612023;stroke-linecap:square;stroke-linejoin:miter;stroke-miterlimit:4;stroke-dasharray:none;stroke-dashoffset:0;stroke-opacity:1" />
          <path
             d="M 259.15464,213.73354 C 259.1568,217.24978 256.30693,220.10141 252.79068,220.10141 C 249.27443,220.10141 246.42456,217.24978 246.42672,213.73354 C 246.42456,210.2173 249.27443,207.36567 252.79068,207.36567 C 256.30693,207.36567 259.1568,210.2173 259.15464,213.73354 L 259.15464,213.73354 z"
             transform="matrix(1.15788,0,0,1.15788,1.80963,-35.1577)"
             id="path3391"
             style="opacity:1;fill:url(#radialGradient4389);fill-opacity:1;fill-rule:nonzero;stroke:#000000;stroke-width:0.612023;stroke-linecap:square;stroke-linejoin:miter;stroke-miterlimit:4;stroke-dasharray:none;stroke-dashoffset:0;stroke-opacity:1" />
          <path
             d="M 259.15464,213.73354 C 259.1568,217.24978 256.30693,220.10141 252.79068,220.10141 C 249.27443,220.10141 246.42456,217.24978 246.42672,213.73354 C 246.42456,210.2173 249.27443,207.36567 252.79068,207.36567 C 256.30693,207.36567 259.1568,210.2173 259.15464,213.73354 L 259.15464,213.73354 z"
             transform="matrix(1.15788,0,0,1.15788,-8.44342,-25.2582)"
             id="path3395"
             style="opacity:1;fill:url(#radialGradient4391);fill-opacity:1;fill-rule:nonzero;stroke:#000000;stroke-width:0.612023;stroke-linecap:square;stroke-linejoin:miter;stroke-miterlimit:4;stroke-dasharray:none;stroke-dashoffset:0;stroke-opacity:1" />
          <path
             d="M 259.15464,213.73354 C 259.1568,217.24978 256.30693,220.10141 252.79068,220.10141 C 249.27443,220.10141 246.42456,217.24978 246.42672,213.73354 C 246.42456,210.2173 249.27443,207.36567 252.79068,207.36567 C 256.30693,207.36567 259.1568,210.2173 259.15464,213.73354 L 259.15464,213.73354 z"
             transform="matrix(1.15788,0,0,1.15788,-17.9894,-14.6516)"
             id="path3399"
             style="opacity:1;fill:url(#radialGradient4393);fill-opacity:1;fill-rule:nonzero;stroke:#000000;stroke-width:0.612023;stroke-linecap:square;stroke-linejoin:miter;stroke-miterlimit:4;stroke-dasharray:none;stroke-dashoffset:0;stroke-opacity:1" />
          <path
             d="M 259.15464,213.73354 C 259.1568,217.24978 256.30693,220.10141 252.79068,220.10141 C 249.27443,220.10141 246.42456,217.24978 246.42672,213.73354 C 246.42456,210.2173 249.27443,207.36567 252.79068,207.36567 C 256.30693,207.36567 259.1568,210.2173 259.15464,213.73354 L 259.15464,213.73354 z"
             transform="matrix(1.15788,0,0,1.15788,-25.7675,-3.69143)"
             id="path3403"
             style="opacity:1;fill:url(#radialGradient4395);fill-opacity:1;fill-rule:nonzero;stroke:#000000;stroke-width:0.612023;stroke-linecap:square;stroke-linejoin:miter;stroke-miterlimit:4;stroke-dasharray:none;stroke-dashoffset:0;stroke-opacity:1" />
          <path
             d="M 259.15464,213.73354 C 259.1568,217.24978 256.30693,220.10141 252.79068,220.10141 C 249.27443,220.10141 246.42456,217.24978 246.42672,213.73354 C 246.42456,210.2173 249.27443,207.36567 252.79068,207.36567 C 256.30693,207.36567 259.1568,210.2173 259.15464,213.73354 L 259.15464,213.73354 z"
             transform="matrix(1.15788,0,0,1.15788,-32.8386,8.32939)"
             id="path3407"
             style="opacity:1;fill:url(#radialGradient4397);fill-opacity:1;fill-rule:nonzero;stroke:#000000;stroke-width:0.612023;stroke-linecap:square;stroke-linejoin:miter;stroke-miterlimit:4;stroke-dasharray:none;stroke-dashoffset:0;stroke-opacity:1" />
        </g>
        <rect
           width="0.67176664"
           height="0.11490742"
           rx="0.037500057"
           ry="0.037500057"
           x="-46.469925"
           y="-32.233337"
           transform="matrix(-0.9886607,-0.1501669,-0.1501669,0.9886607,0,0)"
           id="rect3300"
           style="opacity:1;fill:#eac102;fill-opacity:1;fill-rule:nonzero;stroke:#562300;stroke-width:0.01771655;stroke-linecap:square;stroke-linejoin:miter;stroke-miterlimit:4;stroke-dasharray:none;stroke-dashoffset:0;stroke-opacity:1" />
        <g
           transform="matrix(2.50005e-2,0,0,2.50005e-2,39.843675,-32.546931)"
           id="g7750"
           style="opacity:1">
          <path
             d="M 419.41887,304.93596 C 419.53944,304.95614 421.53581,304.03247 422.45457,302.56909 C 423.37332,301.10569 423.9425,299.58377 423.9425,299.58377 C 423.9425,299.58377 425.64596,300.947 427.90378,301.1452 C 430.1616,301.34342 431.44493,299.31214 431.44493,299.31214 C 431.44493,299.31214 428.84933,297.77713 427.56502,295.92254 C 426.28072,294.06795 425.8561,291.90804 426.30771,291.89377 L 437.23205,293.7222 L 437.99268,289.17768 L 431.0011,288.00748 C 431.0011,288.00748 432.25636,282.72962 433.42481,279.96791 C 434.614,277.1572 436.2755,275.55335 437.56495,275.62964 C 438.81042,275.70334 439.26822,277.26236 438.96105,279.09766 C 438.64655,280.97665 436.80137,284.48614 436.80137,284.48614 C 436.80137,284.48614 440.45,285.23158 443.56187,282.74267 C 446.67373,280.25378 448.09639,276.85325 448.52059,274.31881 C 448.94478,271.78436 448.40234,267.16378 445.43075,265.94039 C 442.48894,264.72927 439.34913,265.50647 435.63939,268.88359 C 431.92966,272.26069 431.14764,276.12782 430.45413,278.39258 C 429.78634,280.57337 428.90362,287.65642 428.90362,287.65642 L 425.58262,287.10058 L 426.54804,281.33252 C 427.33333,277.7793 429.02173,272.78596 430.63484,269.7979 C 432.21975,266.86207 434.87037,263.81615 435.44858,260.36148 C 436.06817,256.65963 435.92589,254.97505 434.53766,250.65484 C 433.14944,246.33463 429.89567,243.08066 429.83538,243.07057 C 429.7751,243.06048 425.63909,245.07761 422.91976,248.71033 C 420.20044,252.34304 419.51738,253.88949 418.89779,257.59134 C 418.31958,261.04601 419.83392,264.78903 420.37647,268.08094 C 420.92869,271.43141 420.89913,276.7024 420.48462,280.31768 L 419.51921,286.08573 L 416.19821,285.52989 C 416.19821,285.52989 417.67,278.54543 417.74872,276.26605 C 417.83046,273.89889 418.35029,269.98789 415.94239,265.58686 C 413.5345,261.18582 410.81887,259.42859 407.64304,259.61579 C 404.43503,259.80488 402.41759,263.99701 401.9934,266.53145 C 401.5692,269.0659 401.80704,272.74435 403.93887,276.11089 C 406.07069,279.47745 409.76321,279.96071 409.76321,279.96071 C 409.76321,279.96071 409.16135,276.04165 409.47584,274.16266 C 409.78302,272.32736 410.72352,271.00237 411.92511,271.33825 C 413.16913,271.68599 414.21783,273.74345 414.42698,276.7882 C 414.63247,279.77987 414.10073,285.17883 414.10073,285.17883 L 407.10916,284.00864 L 406.34853,288.55316 L 417.27287,290.38159 C 417.69522,290.54213 416.59043,292.44607 414.77222,293.78138 C 412.95401,295.1167 410.00004,295.72286 410.00004,295.72286 C 410.00004,295.72286 410.552,298.06132 412.75131,298.6091 C 414.95062,299.1569 417.00514,298.42265 417.00514,298.42265 C 417.00514,298.42265 417.04772,300.04696 417.43989,301.72977 C 417.83206,303.41257 419.41887,304.93596 419.41887,304.93596 z"
             id="path7692"
             style="fill:#eac102;fill-opacity:1;fill-rule:evenodd;stroke:#562300;stroke-width:0.99997801px;stroke-linecap:butt;stroke-linejoin:miter;stroke-opacity:1" />
        </g>
        <g
           transform="matrix(2.50005e-2,0,0,2.50005e-2,39.843675,-32.546931)"
           id="g7740"
           style="opacity:1">
          <path
             d="M 316.49591,304.93596 C 316.37534,304.95614 314.37897,304.03247 313.46021,302.56909 C 312.54146,301.10569 311.97228,299.58377 311.97228,299.58377 C 311.97228,299.58377 310.26882,300.947 308.011,301.1452 C 305.75318,301.34342 304.46985,299.31214 304.46985,299.31214 C 304.46985,299.31214 307.06545,297.77713 308.34976,295.92254 C 309.63406,294.06795 310.05868,291.90804 309.60707,291.89377 L 298.68273,293.7222 L 297.9221,289.17768 L 304.91368,288.00748 C 304.91368,288.00748 303.65842,282.72962 302.48997,279.96791 C 301.30078,277.1572 299.63928,275.55335 298.34983,275.62964 C 297.10436,275.70334 296.64656,277.26236 296.95373,279.09766 C 297.26823,280.97665 299.11341,284.48614 299.11341,284.48614 C 299.11341,284.48614 295.46478,285.23158 292.35291,282.74267 C 289.24105,280.25378 287.81839,276.85325 287.39419,274.31881 C 286.97,271.78436 287.51244,267.16378 290.48403,265.94039 C 293.42584,264.72927 296.56565,265.50647 300.27539,268.88359 C 303.98512,272.26069 304.76714,276.12782 305.46065,278.39258 C 306.12844,280.57337 307.01116,287.65642 307.01116,287.65642 L 310.33216,287.10058 L 309.36674,281.33252 C 308.58145,277.7793 306.89305,272.78596 305.27994,269.7979 C 303.69503,266.86207 301.04441,263.81615 300.4662,260.36148 C 299.84661,256.65963 299.98889,254.97505 301.37712,250.65484 C 302.76534,246.33463 306.01911,243.08066 306.0794,243.07057 C 306.13968,243.06048 310.27569,245.07761 312.99502,248.71033 C 315.71434,252.34304 316.3974,253.88949 317.01699,257.59134 C 317.5952,261.04601 316.08086,264.78903 315.53831,268.08094 C 314.98609,271.43141 315.01565,276.7024 315.43016,280.31768 L 316.39557,286.08573 L 319.71657,285.52989 C 319.71657,285.52989 318.24478,278.54543 318.16606,276.26605 C 318.08432,273.89889 317.56449,269.98789 319.97239,265.58686 C 322.38028,261.18582 325.09591,259.42859 328.27174,259.61579 C 331.47975,259.80488 333.49719,263.99701 333.92138,266.53145 C 334.34558,269.0659 334.10774,272.74435 331.97591,276.11089 C 329.84409,279.47745 326.15157,279.96071 326.15157,279.96071 C 326.15157,279.96071 326.75343,276.04165 326.43894,274.16266 C 326.13176,272.32736 325.19126,271.00237 323.98967,271.33825 C 322.74565,271.68599 321.69695,273.74345 321.4878,276.7882 C 321.28231,279.77987 321.81405,285.17883 321.81405,285.17883 L 328.80562,284.00864 L 329.56625,288.55316 L 318.64191,290.38159 C 318.21956,290.54213 319.32435,292.44607 321.14256,293.78138 C 322.96077,295.1167 325.91474,295.72286 325.91474,295.72286 C 325.91474,295.72286 325.36278,298.06132 323.16347,298.6091 C 320.96416,299.1569 318.90964,298.42265 318.90964,298.42265 C 318.90964,298.42265 318.86706,300.04696 318.47489,301.72977 C 318.08272,303.41257 316.49591,304.93596 316.49591,304.93596 z"
             id="path7720"
             style="fill:#eac102;fill-opacity:1;fill-rule:evenodd;stroke:#562300;stroke-width:0.99997801px;stroke-linecap:butt;stroke-linejoin:miter;stroke-opacity:1" />
        </g>
        <g
           transform="matrix(2.50005e-2,0,0,2.50005e-2,39.843675,-32.436556)"
           id="g2337"
           style="opacity:1">
          <path
             d="M 289.45694,326.21263 C 290.1653,329.44799 286.2556,333.79725 280.48318,334.31951 C 277.77724,334.56433 276.63175,334.09431 275.85546,333.37742 C 275.10956,332.68858 274.05465,331.90537 273.50538,330.07907 C 272.97338,328.31016 273.36249,326.41919 273.97842,325.46473 C 274.60267,324.49739 275.89821,323.40451 277.91664,322.59719 C 283.29814,320.44474 288.74858,322.97727 289.45694,326.21263 z"
             id="path1439"
             style="fill:#002b7f;fill-opacity:1;fill-rule:nonzero;stroke:#102651;stroke-width:0.708646;stroke-linecap:square;stroke-linejoin:miter;stroke-miterlimit:4;stroke-dashoffset:0;stroke-opacity:1" />
        </g>
        <g
           transform="matrix(-2.50005e-2,0,0,2.50005e-2,58.24937,-32.424056)"
           id="g2349"
           style="opacity:1">
          <path
             d="M 289.45694,326.21263 C 290.1653,329.44799 286.2556,333.79725 280.48318,334.31951 C 277.77724,334.56433 276.63175,334.09431 275.85546,333.37742 C 275.10956,332.68858 274.05465,331.90537 273.50538,330.07907 C 272.97338,328.31016 273.36249,326.41919 273.97842,325.46473 C 274.60267,324.49739 275.89821,323.40451 277.91664,322.59719 C 283.29814,320.44474 288.74858,322.97727 289.45694,326.21263 z"
             id="path2351"
             style="fill:#002b7f;fill-opacity:1;fill-rule:nonzero;stroke:#102651;stroke-width:0.708646;stroke-linecap:square;stroke-linejoin:miter;stroke-miterlimit:4;stroke-dashoffset:0;stroke-opacity:1" />
        </g>
        <rect
           width="0.67176664"
           height="0.11490742"
           rx="0.037500057"
           ry="0.037500057"
           x="50.465298"
           y="-17.509916"
           transform="matrix(0.9886607,-0.1501669,0.1501669,0.9886607,0,0)"
           id="rect3283"
           style="opacity:1;fill:#eac102;fill-opacity:1;fill-rule:nonzero;stroke:#562300;stroke-width:0.01771655;stroke-linecap:square;stroke-linejoin:miter;stroke-miterlimit:4;stroke-dasharray:none;stroke-dashoffset:0;stroke-opacity:1" />
        <rect
           width="0.67176622"
           height="0.11490738"
           rx="0.037500046"
           ry="0.037500046"
           x="52.073475"
           y="-8.0723782"
           transform="matrix(0.9451257,-0.3267069,0.3267069,0.9451257,0,0)"
           id="rect3281"
           style="opacity:1;fill:#eac102;fill-opacity:1;fill-rule:nonzero;stroke:#562300;stroke-width:0.01771655;stroke-linecap:square;stroke-linejoin:miter;stroke-miterlimit:4;stroke-dasharray:none;stroke-dashoffset:0;stroke-opacity:1" />
        <rect
           width="0.67176622"
           height="0.11490738"
           rx="0.037500046"
           ry="0.037500046"
           x="-40.593273"
           y="-40.105011"
           transform="matrix(-0.9451257,-0.3267069,-0.3267069,0.9451257,0,0)"
           id="rect3302"
           style="opacity:1;fill:#eac102;fill-opacity:1;fill-rule:nonzero;stroke:#562300;stroke-width:0.01771655;stroke-linecap:square;stroke-linejoin:miter;stroke-miterlimit:4;stroke-dasharray:none;stroke-dashoffset:0;stroke-opacity:1" />
        <rect
           width="0.6717661"
           height="0.11490741"
           rx="0.037500046"
           ry="0.037500046"
           x="51.589062"
           y="-12.01208"
           transform="matrix(0.9677608,-0.251871,0.251871,0.9677608,0,0)"
           id="rect3310"
           style="opacity:1;fill:#eac102;fill-opacity:1;fill-rule:nonzero;stroke:#562300;stroke-width:0.01771655;stroke-linecap:square;stroke-linejoin:miter;stroke-miterlimit:4;stroke-dasharray:none;stroke-dashoffset:0;stroke-opacity:1" />
        <rect
           width="0.67176795"
           height="0.11490775"
           rx="0.037500158"
           ry="0.037500158"
           x="49.521568"
           y="-20.686415"
           transform="matrix(0.9964156,-8.4592469e-2,8.4592469e-2,0.9964156,0,0)"
           id="rect3312"
           style="opacity:1;fill:#eac102;fill-opacity:1;fill-rule:nonzero;stroke:#562300;stroke-width:0.01771661;stroke-linecap:square;stroke-linejoin:miter;stroke-miterlimit:4;stroke-dasharray:none;stroke-dashoffset:0;stroke-opacity:1" />
        <rect
           width="0.67176735"
           height="0.1149076"
           rx="0.037500121"
           ry="0.037500121"
           x="47.957317"
           y="-25.529829"
           transform="matrix(0.9999049,1.3792998e-2,-1.3792998e-2,0.9999049,0,0)"
           id="rect3314"
           style="opacity:1;fill:#eac102;fill-opacity:1;fill-rule:nonzero;stroke:#562300;stroke-width:0.0177166;stroke-linecap:square;stroke-linejoin:miter;stroke-miterlimit:4;stroke-dasharray:none;stroke-dashoffset:0;stroke-opacity:1" />
        <rect
           width="0.6717661"
           height="0.11490741"
           rx="0.037500046"
           ry="0.037500046"
           x="-43.297195"
           y="-36.707329"
           transform="matrix(-0.9677608,-0.251871,-0.251871,0.9677608,0,0)"
           id="rect3323"
           style="opacity:1;fill:#eac102;fill-opacity:1;fill-rule:nonzero;stroke:#562300;stroke-width:0.01771655;stroke-linecap:square;stroke-linejoin:miter;stroke-miterlimit:4;stroke-dasharray:none;stroke-dashoffset:0;stroke-opacity:1" />
        <rect
           width="0.67176795"
           height="0.11490775"
           rx="0.037500158"
           ry="0.037500158"
           x="-48.174236"
           y="-28.980474"
           transform="matrix(-0.9964156,-8.4592469e-2,-8.4592469e-2,0.9964156,0,0)"
           id="rect3325"
           style="opacity:1;fill:#eac102;fill-opacity:1;fill-rule:nonzero;stroke:#562300;stroke-width:0.01771661;stroke-linecap:square;stroke-linejoin:miter;stroke-miterlimit:4;stroke-dasharray:none;stroke-dashoffset:0;stroke-opacity:1" />
        <rect
           width="0.67176735"
           height="0.1149076"
           rx="0.037500121"
           ry="0.037500121"
           x="-50.080578"
           y="-24.177464"
           transform="matrix(-0.9999049,1.3792998e-2,1.3792998e-2,0.9999049,0,0)"
           id="rect3327"
           style="opacity:1;fill:#eac102;fill-opacity:1;fill-rule:nonzero;stroke:#562300;stroke-width:0.0177166;stroke-linecap:square;stroke-linejoin:miter;stroke-miterlimit:4;stroke-dasharray:none;stroke-dashoffset:0;stroke-opacity:1" />
        <path
           d="M 259.15464,213.73354 C 259.1568,217.24978 256.30693,220.10141 252.79068,220.10141 C 249.27443,220.10141 246.42456,217.24978 246.42672,213.73354 C 246.42456,210.2173 249.27443,207.36567 252.79068,207.36567 C 256.30693,207.36567 259.1568,210.2173 259.15464,213.73354 L 259.15464,213.73354 z"
           transform="matrix(2.89475e-2,0,0,2.89475e-2,40.76398,-34.026931)"
           id="path3423"
           style="opacity:1;fill:#e3e4e5;fill-opacity:1;fill-rule:nonzero;stroke:#000000;stroke-width:0.612023;stroke-linecap:square;stroke-linejoin:miter;stroke-miterlimit:4;stroke-dasharray:none;stroke-dashoffset:0;stroke-opacity:1" />
        <path
           d="M 259.15464,213.73354 C 259.1568,217.24978 256.30693,220.10141 252.79068,220.10141 C 249.27443,220.10141 246.42456,217.24978 246.42672,213.73354 C 246.42456,210.2173 249.27443,207.36567 252.79068,207.36567 C 256.30693,207.36567 259.1568,210.2173 259.15464,213.73354 L 259.15464,213.73354 z"
           transform="matrix(2.89475e-2,0,0,2.89475e-2,40.463453,-33.859006)"
           id="path3425"
           style="opacity:1;fill:#e3e4e5;fill-opacity:1;fill-rule:nonzero;stroke:#000000;stroke-width:0.612023;stroke-linecap:square;stroke-linejoin:miter;stroke-miterlimit:4;stroke-dasharray:none;stroke-dashoffset:0;stroke-opacity:1" />
        <path
           d="M 259.15464,213.73354 C 259.1568,217.24978 256.30693,220.10141 252.79068,220.10141 C 249.27443,220.10141 246.42456,217.24978 246.42672,213.73354 C 246.42456,210.2173 249.27443,207.36567 252.79068,207.36567 C 256.30693,207.36567 259.1568,210.2173 259.15464,213.73354 L 259.15464,213.73354 z"
           transform="matrix(2.89475e-2,0,0,2.89475e-2,40.162927,-33.655706)"
           id="path3427"
           style="opacity:1;fill:#e3e4e5;fill-opacity:1;fill-rule:nonzero;stroke:#000000;stroke-width:0.612023;stroke-linecap:square;stroke-linejoin:miter;stroke-miterlimit:4;stroke-dasharray:none;stroke-dashoffset:0;stroke-opacity:1" />
        <path
           d="M 259.15464,213.73354 C 259.1568,217.24978 256.30693,220.10141 252.79068,220.10141 C 249.27443,220.10141 246.42456,217.24978 246.42672,213.73354 C 246.42456,210.2173 249.27443,207.36567 252.79068,207.36567 C 256.30693,207.36567 259.1568,210.2173 259.15464,213.73354 L 259.15464,213.73354 z"
           transform="matrix(2.89475e-2,0,0,2.89475e-2,39.888917,-33.425881)"
           id="path3429"
           style="opacity:1;fill:#e3e4e5;fill-opacity:1;fill-rule:nonzero;stroke:#000000;stroke-width:0.612023;stroke-linecap:square;stroke-linejoin:miter;stroke-miterlimit:4;stroke-dasharray:none;stroke-dashoffset:0;stroke-opacity:1" />
        <path
           d="M 259.15464,213.73354 C 259.1568,217.24978 256.30693,220.10141 252.79068,220.10141 C 249.27443,220.10141 246.42456,217.24978 246.42672,213.73354 C 246.42456,210.2173 249.27443,207.36567 252.79068,207.36567 C 256.30693,207.36567 259.1568,210.2173 259.15464,213.73354 L 259.15464,213.73354 z"
           transform="matrix(2.89475e-2,0,0,2.89475e-2,39.632585,-33.178406)"
           id="path3431"
           style="opacity:1;fill:#e3e4e5;fill-opacity:1;fill-rule:nonzero;stroke:#000000;stroke-width:0.612023;stroke-linecap:square;stroke-linejoin:miter;stroke-miterlimit:4;stroke-dasharray:none;stroke-dashoffset:0;stroke-opacity:1" />
        <path
           d="M 259.15464,213.73354 C 259.1568,217.24978 256.30693,220.10141 252.79068,220.10141 C 249.27443,220.10141 246.42456,217.24978 246.42672,213.73354 C 246.42456,210.2173 249.27443,207.36567 252.79068,207.36567 C 256.30693,207.36567 259.1568,210.2173 259.15464,213.73354 L 259.15464,213.73354 z"
           transform="matrix(2.89475e-2,0,0,2.89475e-2,39.393933,-32.913231)"
           id="path3433"
           style="opacity:1;fill:#e3e4e5;fill-opacity:1;fill-rule:nonzero;stroke:#000000;stroke-width:0.612023;stroke-linecap:square;stroke-linejoin:miter;stroke-miterlimit:4;stroke-dasharray:none;stroke-dashoffset:0;stroke-opacity:1" />
        <path
           d="M 259.15464,213.73354 C 259.1568,217.24978 256.30693,220.10141 252.79068,220.10141 C 249.27443,220.10141 246.42456,217.24978 246.42672,213.73354 C 246.42456,210.2173 249.27443,207.36567 252.79068,207.36567 C 256.30693,207.36567 259.1568,210.2173 259.15464,213.73354 L 259.15464,213.73354 z"
           transform="matrix(2.89475e-2,0,0,2.89475e-2,39.199472,-32.639206)"
           id="path3435"
           style="opacity:1;fill:#e3e4e5;fill-opacity:1;fill-rule:nonzero;stroke:#000000;stroke-width:0.612023;stroke-linecap:square;stroke-linejoin:miter;stroke-miterlimit:4;stroke-dasharray:none;stroke-dashoffset:0;stroke-opacity:1" />
        <path
           d="M 259.15464,213.73354 C 259.1568,217.24978 256.30693,220.10141 252.79068,220.10141 C 249.27443,220.10141 246.42456,217.24978 246.42672,213.73354 C 246.42456,210.2173 249.27443,207.36567 252.79068,207.36567 C 256.30693,207.36567 259.1568,210.2173 259.15464,213.73354 L 259.15464,213.73354 z"
           transform="matrix(2.89475e-2,0,0,2.89475e-2,39.022693,-32.338681)"
           id="path3437"
           style="opacity:1;fill:#e3e4e5;fill-opacity:1;fill-rule:nonzero;stroke:#000000;stroke-width:0.612023;stroke-linecap:square;stroke-linejoin:miter;stroke-miterlimit:4;stroke-dasharray:none;stroke-dashoffset:0;stroke-opacity:1" />
        <g
           transform="matrix(2.433445e-2,-5.732375e-3,5.732375e-3,2.433445e-2,38.224923,-30.794663)"
           id="CroixLaterale"
           style="opacity:1">
          <path
             d="M 274.0331,292.27164 C 277.71623,292.57276 290.21023,299.75117 290.21023,299.75117 L 290.21023,267.29604 C 290.21023,267.29604 278.23063,275.64325 273.61799,276.23547 C 276.004,270.76222 283.18241,258.26822 283.18241,258.26822 L 266.95484,258.26822 C 266.95484,258.26822 264.45484,271.02091 264.45484,283.7736 C 264.45484,296.52629 266.95484,309.27899 266.95484,309.27899 L 283.18241,309.27899 C 283.18241,309.27899 276.004,296.78499 274.0331,292.27164 z"
             id="path7658"
             style="fill:#eac102;fill-opacity:1;fill-rule:nonzero;stroke:#562300;stroke-width:1.41728997;stroke-linecap:square;stroke-linejoin:miter;stroke-miterlimit:4;stroke-dashoffset:0;stroke-opacity:1" />
          <path
             d="M 271.41653,289.31733 C 276.67863,287.23132 284.63436,292.1107 284.63436,292.1107 L 284.63436,275.61468 C 284.63436,275.61468 276.91695,280.25665 271.41653,278.46408 C 270.46099,271.9573 274.76761,263.33385 274.76761,263.33385 L 265.99774,263.33385 C 265.99774,263.33385 264.61169,273.24437 264.60064,283.1549 C 264.58959,293.06543 265.95354,302.97595 265.95354,302.97595 L 275.29794,302.97595 C 275.29794,302.97595 270.72699,294.35249 271.41653,289.31733 z"
             id="path7660"
             style="fill:#eac102;fill-opacity:1;fill-rule:nonzero;stroke:#563200;stroke-width:0.70864701;stroke-linecap:square;stroke-linejoin:miter;stroke-miterlimit:4;stroke-dasharray:none;stroke-dashoffset:0;stroke-opacity:1" />
        </g>
        <path
           d="M 259.15464,213.73354 C 259.1568,217.24978 256.30693,220.10141 252.79068,220.10141 C 249.27443,220.10141 246.42456,217.24978 246.42672,213.73354 C 246.42456,210.2173 249.27443,207.36567 252.79068,207.36567 C 256.30693,207.36567 259.1568,210.2173 259.15464,213.73354 L 259.15464,213.73354 z"
           transform="matrix(-2.89475e-2,0,0,2.89475e-2,57.339795,-34.026931)"
           id="path3494"
           style="opacity:1;fill:#e3e4e5;fill-opacity:1;fill-rule:nonzero;stroke:#000000;stroke-width:0.612023;stroke-linecap:square;stroke-linejoin:miter;stroke-miterlimit:4;stroke-dasharray:none;stroke-dashoffset:0;stroke-opacity:1" />
        <path
           d="M 259.15464,213.73354 C 259.1568,217.24978 256.30693,220.10141 252.79068,220.10141 C 249.27443,220.10141 246.42456,217.24978 246.42672,213.73354 C 246.42456,210.2173 249.27443,207.36567 252.79068,207.36567 C 256.30693,207.36567 259.1568,210.2173 259.15464,213.73354 L 259.15464,213.73354 z"
           transform="matrix(-2.89475e-2,0,0,2.89475e-2,57.64032,-33.859006)"
           id="path3496"
           style="opacity:1;fill:#e3e4e5;fill-opacity:1;fill-rule:nonzero;stroke:#000000;stroke-width:0.612023;stroke-linecap:square;stroke-linejoin:miter;stroke-miterlimit:4;stroke-dasharray:none;stroke-dashoffset:0;stroke-opacity:1" />
        <path
           d="M 259.15464,213.73354 C 259.1568,217.24978 256.30693,220.10141 252.79068,220.10141 C 249.27443,220.10141 246.42456,217.24978 246.42672,213.73354 C 246.42456,210.2173 249.27443,207.36567 252.79068,207.36567 C 256.30693,207.36567 259.1568,210.2173 259.15464,213.73354 L 259.15464,213.73354 z"
           transform="matrix(-2.89475e-2,0,0,2.89475e-2,57.940845,-33.655706)"
           id="path3498"
           style="opacity:1;fill:#e3e4e5;fill-opacity:1;fill-rule:nonzero;stroke:#000000;stroke-width:0.612023;stroke-linecap:square;stroke-linejoin:miter;stroke-miterlimit:4;stroke-dasharray:none;stroke-dashoffset:0;stroke-opacity:1" />
        <path
           d="M 259.15464,213.73354 C 259.1568,217.24978 256.30693,220.10141 252.79068,220.10141 C 249.27443,220.10141 246.42456,217.24978 246.42672,213.73354 C 246.42456,210.2173 249.27443,207.36567 252.79068,207.36567 C 256.30693,207.36567 259.1568,210.2173 259.15464,213.73354 L 259.15464,213.73354 z"
           transform="matrix(-2.89475e-2,0,0,2.89475e-2,58.214845,-33.425881)"
           id="path3500"
           style="opacity:1;fill:#e3e4e5;fill-opacity:1;fill-rule:nonzero;stroke:#000000;stroke-width:0.612023;stroke-linecap:square;stroke-linejoin:miter;stroke-miterlimit:4;stroke-dasharray:none;stroke-dashoffset:0;stroke-opacity:1" />
        <path
           d="M 259.15464,213.73354 C 259.1568,217.24978 256.30693,220.10141 252.79068,220.10141 C 249.27443,220.10141 246.42456,217.24978 246.42672,213.73354 C 246.42456,210.2173 249.27443,207.36567 252.79068,207.36567 C 256.30693,207.36567 259.1568,210.2173 259.15464,213.73354 L 259.15464,213.73354 z"
           transform="matrix(-2.89475e-2,0,0,2.89475e-2,58.47117,-33.178406)"
           id="path3502"
           style="opacity:1;fill:#e3e4e5;fill-opacity:1;fill-rule:nonzero;stroke:#000000;stroke-width:0.612023;stroke-linecap:square;stroke-linejoin:miter;stroke-miterlimit:4;stroke-dasharray:none;stroke-dashoffset:0;stroke-opacity:1" />
        <path
           d="M 259.15464,213.73354 C 259.1568,217.24978 256.30693,220.10141 252.79068,220.10141 C 249.27443,220.10141 246.42456,217.24978 246.42672,213.73354 C 246.42456,210.2173 249.27443,207.36567 252.79068,207.36567 C 256.30693,207.36567 259.1568,210.2173 259.15464,213.73354 L 259.15464,213.73354 z"
           transform="matrix(-2.89475e-2,0,0,2.89475e-2,58.709845,-32.913231)"
           id="path3504"
           style="opacity:1;fill:#e3e4e5;fill-opacity:1;fill-rule:nonzero;stroke:#000000;stroke-width:0.612023;stroke-linecap:square;stroke-linejoin:miter;stroke-miterlimit:4;stroke-dasharray:none;stroke-dashoffset:0;stroke-opacity:1" />
        <path
           d="M 259.15464,213.73354 C 259.1568,217.24978 256.30693,220.10141 252.79068,220.10141 C 249.27443,220.10141 246.42456,217.24978 246.42672,213.73354 C 246.42456,210.2173 249.27443,207.36567 252.79068,207.36567 C 256.30693,207.36567 259.1568,210.2173 259.15464,213.73354 L 259.15464,213.73354 z"
           transform="matrix(-2.89475e-2,0,0,2.89475e-2,58.904295,-32.639206)"
           id="path3506"
           style="opacity:1;fill:#e3e4e5;fill-opacity:1;fill-rule:nonzero;stroke:#000000;stroke-width:0.612023;stroke-linecap:square;stroke-linejoin:miter;stroke-miterlimit:4;stroke-dasharray:none;stroke-dashoffset:0;stroke-opacity:1" />
        <path
           d="M 259.15464,213.73354 C 259.1568,217.24978 256.30693,220.10141 252.79068,220.10141 C 249.27443,220.10141 246.42456,217.24978 246.42672,213.73354 C 246.42456,210.2173 249.27443,207.36567 252.79068,207.36567 C 256.30693,207.36567 259.1568,210.2173 259.15464,213.73354 L 259.15464,213.73354 z"
           transform="matrix(-2.89475e-2,0,0,2.89475e-2,59.08107,-32.338681)"
           id="path3508"
           style="opacity:1;fill:#e3e4e5;fill-opacity:1;fill-rule:nonzero;stroke:#000000;stroke-width:0.612023;stroke-linecap:square;stroke-linejoin:miter;stroke-miterlimit:4;stroke-dasharray:none;stroke-dashoffset:0;stroke-opacity:1" />
        <g
           transform="matrix(-2.433445e-2,-5.732375e-3,-5.732375e-3,2.433445e-2,59.84347,-30.794663)"
           id="g7680"
           style="opacity:1">
          <path
             d="M 274.0331,292.27164 C 277.71623,292.57276 290.21023,299.75117 290.21023,299.75117 L 290.21023,267.29604 C 290.21023,267.29604 278.23063,275.64325 273.61799,276.23547 C 276.004,270.76222 283.18241,258.26822 283.18241,258.26822 L 266.95484,258.26822 C 266.95484,258.26822 264.45484,271.02091 264.45484,283.7736 C 264.45484,296.52629 266.95484,309.27899 266.95484,309.27899 L 283.18241,309.27899 C 283.18241,309.27899 276.004,296.78499 274.0331,292.27164 z"
             id="path7682"
             style="fill:#eac102;fill-opacity:1;fill-rule:nonzero;stroke:#562300;stroke-width:1.41728997;stroke-linecap:square;stroke-linejoin:miter;stroke-miterlimit:4;stroke-dashoffset:0;stroke-opacity:1" />
          <path
             d="M 271.41653,289.31733 C 276.67863,287.23132 284.63436,292.1107 284.63436,292.1107 L 284.63436,275.61468 C 284.63436,275.61468 276.91695,280.25665 271.41653,278.46408 C 270.46099,271.9573 274.76761,263.33385 274.76761,263.33385 L 265.99774,263.33385 C 265.99774,263.33385 264.61169,273.24437 264.60064,283.1549 C 264.58959,293.06543 265.95354,302.97595 265.95354,302.97595 L 275.29794,302.97595 C 275.29794,302.97595 270.72699,294.35249 271.41653,289.31733 z"
             id="path7684"
             style="fill:#eac102;fill-opacity:1;fill-rule:nonzero;stroke:#563200;stroke-width:0.70864701;stroke-linecap:square;stroke-linejoin:miter;stroke-miterlimit:4;stroke-dasharray:none;stroke-dashoffset:0;stroke-opacity:1" />
        </g>
        <g
           transform="matrix(2.50005e-2,0,0,2.50005e-2,39.934237,-32.546931)"
           id="g3619"
           style="opacity:1">
          <path
             d="M 259.15464,213.73354 C 259.1568,217.24978 256.30693,220.10141 252.79068,220.10141 C 249.27443,220.10141 246.42456,217.24978 246.42672,213.73354 C 246.42456,210.2173 249.27443,207.36567 252.79068,207.36567 C 256.30693,207.36567 259.1568,210.2173 259.15464,213.73354 L 259.15464,213.73354 z"
             transform="matrix(2.9071,0,0,2.9071,-370.831,-448.623)"
             id="path3578"
             style="fill:#eac102;fill-opacity:1;fill-rule:nonzero;stroke:#000000;stroke-width:0.243764;stroke-linecap:square;stroke-linejoin:miter;stroke-miterlimit:4;stroke-dasharray:none;stroke-dashoffset:0;stroke-opacity:1" />
          <path
             d="M 369.48377,166.47037 C 375.30728,166.47037 381.18496,168.41414 381.18496,168.41414 C 382.06484,168.41414 382.77319,169.12249 382.77319,170.00237 L 382.77319,176.93335 C 382.77319,177.81323 382.06484,178.52158 381.18496,178.52158 C 381.18496,178.52158 372.62033,176.93335 364.0557,176.93335 C 355.49108,176.93335 346.92644,178.52158 346.92644,178.52158 C 346.04656,178.52158 345.33821,177.81323 345.33821,176.93335 L 345.33821,170.00237 C 345.33821,169.12249 346.04656,168.41414 346.92644,168.41414 C 347.80632,168.41414 352.7906,166.47037 358.62763,166.47037 L 358.62763,155.02838 C 358.62763,154.1485 359.33598,153.44014 360.21586,153.44014 L 367.89554,153.44014 C 368.77542,153.44014 369.48377,154.1485 369.48377,155.02838 L 369.48377,166.47037 z"
             id="rect3596"
             style="fill:#eac102;fill-opacity:1;fill-rule:nonzero;stroke:#562300;stroke-width:0.70864701;stroke-linecap:square;stroke-linejoin:miter;stroke-miterlimit:4;stroke-dashoffset:0;stroke-opacity:1" />
          <g
             transform="matrix(0.730256,0,0,0.730256,95.0367,-59.1432)"
             id="g3568">
            <path
               d="M 375.5932,285.77164 C 379.27633,286.07276 391.77033,293.25117 391.77033,293.25117 L 391.77033,260.79604 C 391.77033,260.79604 379.79073,269.14325 375.17809,269.73547 C 377.5641,264.26222 384.74251,251.76822 384.74251,251.76822 L 352.28738,251.76822 C 352.28738,251.76822 360.63459,263.74782 362.10181,269.73547 C 356.98916,269.14325 345.00956,260.79604 345.00956,260.79604 L 345.00956,293.25117 C 345.00956,293.25117 357.50356,286.07276 362.10181,284.93675 C 360.63459,290.79939 352.28738,302.77899 352.28738,302.77899 L 384.74251,302.77899 C 384.74251,302.77899 377.5641,290.28499 375.5932,285.77164 z"
               id="path3570"
               style="fill:#eac102;fill-opacity:1;fill-rule:nonzero;stroke:#562300;stroke-width:1.94081998;stroke-linecap:square;stroke-linejoin:miter;stroke-miterlimit:4;stroke-dashoffset:0;stroke-opacity:1" />
            <path
               d="M 372.97663,282.81733 C 378.23873,280.73132 386.19446,285.6107 386.19446,285.6107 L 386.19446,269.11468 C 386.19446,269.11468 378.47705,273.75665 372.97663,271.96408 C 372.02109,265.4573 376.32771,256.83385 376.32771,256.83385 L 360.78797,256.83385 C 360.78797,256.83385 365.48446,265.44853 364.3858,271.96408 C 359.00893,273.4031 350.32009,268.49596 350.32009,268.49596 L 350.32009,285.96426 C 350.32009,285.96426 359.07132,281.88037 364.3858,282.6712 C 364.77735,287.86126 360.16925,296.47595 360.16925,296.47595 L 376.85804,296.47595 C 376.85804,296.47595 372.28709,287.85249 372.97663,282.81733 z"
               id="path3572"
               style="fill:#eac102;fill-opacity:1;fill-rule:nonzero;stroke:#563200;stroke-width:0.97040802;stroke-linecap:square;stroke-linejoin:miter;stroke-miterlimit:4;stroke-dasharray:none;stroke-dashoffset:0;stroke-opacity:1" />
          </g>
        </g>
        <path
           d="M 259.15464,213.73354 C 259.1568,217.24978 256.30693,220.10141 252.79068,220.10141 C 249.27443,220.10141 246.42456,217.24978 246.42672,213.73354 C 246.42456,210.2173 249.27443,207.36567 252.79068,207.36567 C 256.30693,207.36567 259.1568,210.2173 259.15464,213.73354 L 259.15464,213.73354 z"
           transform="matrix(2.89475e-2,0,0,2.89475e-2,41.700918,-34.067656)"
           id="path3634"
           style="opacity:1;fill:#e3e4e5;fill-opacity:1;fill-rule:nonzero;stroke:#000000;stroke-width:0.612023;stroke-linecap:square;stroke-linejoin:miter;stroke-miterlimit:4;stroke-dasharray:none;stroke-dashoffset:0;stroke-opacity:1" />
        <path
           d="M 259.15464,213.73354 C 259.1568,217.24978 256.30693,220.10141 252.79068,220.10141 C 249.27443,220.10141 246.42456,217.24978 246.42672,213.73354 C 246.42456,210.2173 249.27443,207.36567 252.79068,207.36567 C 256.30693,207.36567 259.1568,210.2173 259.15464,213.73354 L 259.15464,213.73354 z"
           transform="matrix(2.89475e-2,0,0,2.89475e-2,41.700918,-33.819406)"
           id="path3638"
           style="opacity:1;fill:#e3e4e5;fill-opacity:1;fill-rule:nonzero;stroke:#000000;stroke-width:0.612023;stroke-linecap:square;stroke-linejoin:miter;stroke-miterlimit:4;stroke-dasharray:none;stroke-dashoffset:0;stroke-opacity:1" />
        <path
           d="M 259.15464,213.73354 C 259.1568,217.24978 256.30693,220.10141 252.79068,220.10141 C 249.27443,220.10141 246.42456,217.24978 246.42672,213.73354 C 246.42456,210.2173 249.27443,207.36567 252.79068,207.36567 C 256.30693,207.36567 259.1568,210.2173 259.15464,213.73354 L 259.15464,213.73354 z"
           transform="matrix(2.89475e-2,0,0,2.89475e-2,41.700918,-33.571156)"
           id="path3642"
           style="opacity:1;fill:#e3e4e5;fill-opacity:1;fill-rule:nonzero;stroke:#000000;stroke-width:0.612023;stroke-linecap:square;stroke-linejoin:miter;stroke-miterlimit:4;stroke-dasharray:none;stroke-dashoffset:0;stroke-opacity:1" />
        <path
           d="M 259.15464,213.73354 C 259.1568,217.24978 256.30693,220.10141 252.79068,220.10141 C 249.27443,220.10141 246.42456,217.24978 246.42672,213.73354 C 246.42456,210.2173 249.27443,207.36567 252.79068,207.36567 C 256.30693,207.36567 259.1568,210.2173 259.15464,213.73354 L 259.15464,213.73354 z"
           transform="matrix(2.89475e-2,0,0,2.89475e-2,41.700918,-33.322881)"
           id="path3646"
           style="opacity:1;fill:#e3e4e5;fill-opacity:1;fill-rule:nonzero;stroke:#000000;stroke-width:0.612023;stroke-linecap:square;stroke-linejoin:miter;stroke-miterlimit:4;stroke-dasharray:none;stroke-dashoffset:0;stroke-opacity:1" />
        <path
           d="M 259.15464,213.73354 C 259.1568,217.24978 256.30693,220.10141 252.79068,220.10141 C 249.27443,220.10141 246.42456,217.24978 246.42672,213.73354 C 246.42456,210.2173 249.27443,207.36567 252.79068,207.36567 C 256.30693,207.36567 259.1568,210.2173 259.15464,213.73354 L 259.15464,213.73354 z"
           transform="matrix(2.89475e-2,0,0,2.89475e-2,41.700918,-33.074631)"
           id="path3650"
           style="opacity:1;fill:#e3e4e5;fill-opacity:1;fill-rule:nonzero;stroke:#000000;stroke-width:0.612023;stroke-linecap:square;stroke-linejoin:miter;stroke-miterlimit:4;stroke-dasharray:none;stroke-dashoffset:0;stroke-opacity:1" />
        <path
           d="M 259.15464,213.73354 C 259.1568,217.24978 256.30693,220.10141 252.79068,220.10141 C 249.27443,220.10141 246.42456,217.24978 246.42672,213.73354 C 246.42456,210.2173 249.27443,207.36567 252.79068,207.36567 C 256.30693,207.36567 259.1568,210.2173 259.15464,213.73354 L 259.15464,213.73354 z"
           transform="matrix(2.89475e-2,0,0,2.89475e-2,41.700918,-32.826356)"
           id="path3654"
           style="opacity:1;fill:#e3e4e5;fill-opacity:1;fill-rule:nonzero;stroke:#000000;stroke-width:0.612023;stroke-linecap:square;stroke-linejoin:miter;stroke-miterlimit:4;stroke-dasharray:none;stroke-dashoffset:0;stroke-opacity:1" />
        <path
           d="M 259.15464,213.73354 C 259.1568,217.24978 256.30693,220.10141 252.79068,220.10141 C 249.27443,220.10141 246.42456,217.24978 246.42672,213.73354 C 246.42456,210.2173 249.27443,207.36567 252.79068,207.36567 C 256.30693,207.36567 259.1568,210.2173 259.15464,213.73354 L 259.15464,213.73354 z"
           transform="matrix(2.89475e-2,0,0,2.89475e-2,41.700918,-32.578106)"
           id="path3658"
           style="opacity:1;fill:#e3e4e5;fill-opacity:1;fill-rule:nonzero;stroke:#000000;stroke-width:0.612023;stroke-linecap:square;stroke-linejoin:miter;stroke-miterlimit:4;stroke-dasharray:none;stroke-dashoffset:0;stroke-opacity:1" />
        <path
           d="M 259.15464,213.73354 C 259.1568,217.24978 256.30693,220.10141 252.79068,220.10141 C 249.27443,220.10141 246.42456,217.24978 246.42672,213.73354 C 246.42456,210.2173 249.27443,207.36567 252.79068,207.36567 C 256.30693,207.36567 259.1568,210.2173 259.15464,213.73354 L 259.15464,213.73354 z"
           transform="matrix(2.89475e-2,0,0,2.89475e-2,41.700918,-32.329856)"
           id="path3662"
           style="opacity:1;fill:#e3e4e5;fill-opacity:1;fill-rule:nonzero;stroke:#000000;stroke-width:0.612023;stroke-linecap:square;stroke-linejoin:miter;stroke-miterlimit:4;stroke-dasharray:none;stroke-dashoffset:0;stroke-opacity:1" />
        <g
           transform="matrix(2.50005e-2,0,0,2.50005e-2,39.825878,-32.546931)"
           id="CroixCentrale"
           style="opacity:1">
          <path
             d="M 375.5932,285.77164 C 379.27633,286.07276 391.77033,293.25117 391.77033,293.25117 L 391.77033,260.79604 C 391.77033,260.79604 379.79073,269.14325 375.17809,269.73547 C 377.5641,264.26222 384.74251,251.76822 384.74251,251.76822 L 352.28738,251.76822 C 352.28738,251.76822 360.63459,263.74782 362.10181,269.73547 C 356.98916,269.14325 345.00956,260.79604 345.00956,260.79604 L 345.00956,293.25117 C 345.00956,293.25117 357.50356,286.07276 362.10181,284.93675 C 360.63459,290.79939 352.28738,302.77899 352.28738,302.77899 L 384.74251,302.77899 C 384.74251,302.77899 377.5641,290.28499 375.5932,285.77164 z"
             id="path7434"
             style="fill:#eac102;fill-opacity:1;fill-rule:nonzero;stroke:#562300;stroke-width:1.41728997;stroke-linecap:square;stroke-linejoin:miter;stroke-miterlimit:4;stroke-dashoffset:0;stroke-opacity:1" />
          <path
             d="M 372.97663,282.81733 C 378.23873,280.73132 386.19446,285.6107 386.19446,285.6107 L 386.19446,269.11468 C 386.19446,269.11468 378.47705,273.75665 372.97663,271.96408 C 372.02109,265.4573 376.32771,256.83385 376.32771,256.83385 L 360.78797,256.83385 C 360.78797,256.83385 365.48446,265.44853 364.3858,271.96408 C 359.00893,273.4031 350.32009,268.49596 350.32009,268.49596 L 350.32009,285.96426 C 350.32009,285.96426 359.07132,281.88037 364.3858,282.6712 C 364.77735,287.86126 360.16925,296.47595 360.16925,296.47595 L 376.85804,296.47595 C 376.85804,296.47595 372.28709,287.85249 372.97663,282.81733 z"
             id="path7476"
             style="fill:#eac102;fill-opacity:1;fill-rule:nonzero;stroke:#563200;stroke-width:0.70864701;stroke-linecap:square;stroke-linejoin:miter;stroke-miterlimit:4;stroke-dasharray:none;stroke-dashoffset:0;stroke-opacity:1" />
        </g>
        <path
           d="M 46.664316,-24.521803 L 46.839932,-24.584957 C 46.859536,-24.591834 46.880855,-24.581588 46.887732,-24.561984 L 46.900941,-24.524327 C 46.907817,-24.504723 46.897571,-24.483404 46.877966,-24.476527 L 46.702351,-24.413373 C 46.682746,-24.406497 46.661428,-24.416743 46.654551,-24.436348 L 46.641342,-24.474004 C 46.634465,-24.493608 46.644711,-24.514926 46.664316,-24.521803 z"
           id="rect2993"
           style="opacity:1;fill:#eac102;fill-opacity:1;fill-rule:nonzero;stroke:#562300;stroke-width:0.01771655;stroke-linecap:square;stroke-linejoin:miter;stroke-miterlimit:4;stroke-dashoffset:0;stroke-opacity:1" />
        <path
           d="M 51.39119,-24.517384 L 51.215574,-24.580538 C 51.19597,-24.587415 51.174651,-24.577168 51.167774,-24.557564 L 51.154565,-24.519908 C 51.147688,-24.500303 51.157934,-24.478985 51.177539,-24.472108 L 51.353155,-24.408954 C 51.372759,-24.402077 51.394078,-24.412323 51.400955,-24.431928 L 51.414164,-24.469584 C 51.42104,-24.489188 51.410794,-24.510507 51.39119,-24.517384 z"
           id="path2996"
           style="opacity:1;fill:#eac102;fill-opacity:1;fill-rule:nonzero;stroke:#562300;stroke-width:0.01771655;stroke-linecap:square;stroke-linejoin:miter;stroke-miterlimit:4;stroke-dashoffset:0;stroke-opacity:1" />
        <g
           transform="matrix(2.50005e-2,0,0,2.50005e-2,39.843675,-32.546931)"
           id="g3897"
           style="opacity:1">
          <path
             d="M 395.62625,318.56213 C 395.6285,320.20569 394.75296,321.72536 393.32997,322.54779 C 391.90698,323.37022 390.15314,323.37022 388.73015,322.54779 C 387.30716,321.72536 386.43162,320.20569 386.43387,318.56213 C 386.43162,316.91857 387.30716,315.3989 388.73015,314.57647 C 390.15314,313.75404 391.90698,313.75404 393.32997,314.57647 C 394.75296,315.3989 395.6285,316.91857 395.62625,318.56213 z"
             transform="matrix(0.826923,0,0,0.826923,73.4235,54.517)"
             id="path2998"
             style="opacity:1;fill:#eac102;fill-opacity:1;fill-rule:nonzero;stroke:#562300;stroke-width:0.85696799;stroke-linecap:square;stroke-linejoin:miter;stroke-miterlimit:4;stroke-dasharray:none;stroke-dashoffset:0;stroke-opacity:1" />
          <path
             d="M 395.62625,318.56213 C 395.6285,320.20569 394.75296,321.72536 393.32997,322.54779 C 391.90698,323.37022 390.15314,323.37022 388.73015,322.54779 C 387.30716,321.72536 386.43162,320.20569 386.43387,318.56213 C 386.43162,316.91857 387.30716,315.3989 388.73015,314.57647 C 390.15314,313.75404 391.90698,313.75404 393.32997,314.57647 C 394.75296,315.3989 395.6285,316.91857 395.62625,318.56213 z"
             transform="matrix(0.826923,0,0,0.826923,72.5396,63.7094)"
             id="path3893"
             style="opacity:1;fill:#eac102;fill-opacity:1;fill-rule:nonzero;stroke:#562300;stroke-width:0.85696799;stroke-linecap:square;stroke-linejoin:miter;stroke-miterlimit:4;stroke-dasharray:none;stroke-dashoffset:0;stroke-opacity:1" />
        </g>
        <g
           transform="matrix(2.50005e-2,0,0,2.50005e-2,39.843675,-32.546931)"
           id="g3917"
           style="opacity:1">
          <path
             d="M 395.62625,318.56213 C 395.6285,320.20569 394.75296,321.72536 393.32997,322.54779 C 391.90698,323.37022 390.15314,323.37022 388.73015,322.54779 C 387.30716,321.72536 386.43162,320.20569 386.43387,318.56213 C 386.43162,316.91857 387.30716,315.3989 388.73015,314.57647 C 390.15314,313.75404 391.90698,313.75404 393.32997,314.57647 C 394.75296,315.3989 395.6285,316.91857 395.62625,318.56213 z"
             transform="matrix(0.826923,0,0,0.826923,114.789,59.8203)"
             id="path3903"
             style="fill:#eac102;fill-opacity:1;fill-rule:nonzero;stroke:#562300;stroke-width:0.85696799;stroke-linecap:square;stroke-linejoin:miter;stroke-miterlimit:4;stroke-dasharray:none;stroke-dashoffset:0;stroke-opacity:1" />
          <path
             d="M 395.62625,318.56213 C 395.6285,320.20569 394.75296,321.72536 393.32997,322.54779 C 391.90698,323.37022 390.15314,323.37022 388.73015,322.54779 C 387.30716,321.72536 386.43162,320.20569 386.43387,318.56213 C 386.43162,316.91857 387.30716,315.3989 388.73015,314.57647 C 390.15314,313.75404 391.90698,313.75404 393.32997,314.57647 C 394.75296,315.3989 395.6285,316.91857 395.62625,318.56213 z"
             transform="matrix(0.826923,0,0,0.826923,113.198,68.1288)"
             id="path3905"
             style="fill:#eac102;fill-opacity:1;fill-rule:nonzero;stroke:#562300;stroke-width:0.85696799;stroke-linecap:square;stroke-linejoin:miter;stroke-miterlimit:4;stroke-dasharray:none;stroke-dashoffset:0;stroke-opacity:1" />
        </g>
        <g
           transform="matrix(-2.50005e-2,0,0,2.50005e-2,58.27302,-32.546931)"
           id="g3921"
           style="opacity:1">
          <path
             d="M 395.62625,318.56213 C 395.6285,320.20569 394.75296,321.72536 393.32997,322.54779 C 391.90698,323.37022 390.15314,323.37022 388.73015,322.54779 C 387.30716,321.72536 386.43162,320.20569 386.43387,318.56213 C 386.43162,316.91857 387.30716,315.3989 388.73015,314.57647 C 390.15314,313.75404 391.90698,313.75404 393.32997,314.57647 C 394.75296,315.3989 395.6285,316.91857 395.62625,318.56213 z"
             transform="matrix(0.826923,0,0,0.826923,73.4235,54.517)"
             id="path3923"
             style="opacity:1;fill:#eac102;fill-opacity:1;fill-rule:nonzero;stroke:#562300;stroke-width:0.85696799;stroke-linecap:square;stroke-linejoin:miter;stroke-miterlimit:4;stroke-dasharray:none;stroke-dashoffset:0;stroke-opacity:1" />
          <path
             d="M 395.62625,318.56213 C 395.6285,320.20569 394.75296,321.72536 393.32997,322.54779 C 391.90698,323.37022 390.15314,323.37022 388.73015,322.54779 C 387.30716,321.72536 386.43162,320.20569 386.43387,318.56213 C 386.43162,316.91857 387.30716,315.3989 388.73015,314.57647 C 390.15314,313.75404 391.90698,313.75404 393.32997,314.57647 C 394.75296,315.3989 395.6285,316.91857 395.62625,318.56213 z"
             transform="matrix(0.826923,0,0,0.826923,72.5396,63.7094)"
             id="path3925"
             style="opacity:1;fill:#eac102;fill-opacity:1;fill-rule:nonzero;stroke:#562300;stroke-width:0.85696799;stroke-linecap:square;stroke-linejoin:miter;stroke-miterlimit:4;stroke-dasharray:none;stroke-dashoffset:0;stroke-opacity:1" />
        </g>
        <g
           transform="matrix(-2.50005e-2,0,0,2.50005e-2,58.23767,-32.546931)"
           id="g3931"
           style="opacity:1">
          <path
             d="M 395.62625,318.56213 C 395.6285,320.20569 394.75296,321.72536 393.32997,322.54779 C 391.90698,323.37022 390.15314,323.37022 388.73015,322.54779 C 387.30716,321.72536 386.43162,320.20569 386.43387,318.56213 C 386.43162,316.91857 387.30716,315.3989 388.73015,314.57647 C 390.15314,313.75404 391.90698,313.75404 393.32997,314.57647 C 394.75296,315.3989 395.6285,316.91857 395.62625,318.56213 z"
             transform="matrix(0.826923,0,0,0.826923,114.789,59.8203)"
             id="path3933"
             style="fill:#eac102;fill-opacity:1;fill-rule:nonzero;stroke:#562300;stroke-width:0.85696799;stroke-linecap:square;stroke-linejoin:miter;stroke-miterlimit:4;stroke-dasharray:none;stroke-dashoffset:0;stroke-opacity:1" />
          <path
             d="M 395.62625,318.56213 C 395.6285,320.20569 394.75296,321.72536 393.32997,322.54779 C 391.90698,323.37022 390.15314,323.37022 388.73015,322.54779 C 387.30716,321.72536 386.43162,320.20569 386.43387,318.56213 C 386.43162,316.91857 387.30716,315.3989 388.73015,314.57647 C 390.15314,313.75404 391.90698,313.75404 393.32997,314.57647 C 394.75296,315.3989 395.6285,316.91857 395.62625,318.56213 z"
             transform="matrix(0.826923,0,0,0.826923,113.198,68.1288)"
             id="path3935"
             style="fill:#eac102;fill-opacity:1;fill-rule:nonzero;stroke:#562300;stroke-width:0.85696799;stroke-linecap:square;stroke-linejoin:miter;stroke-miterlimit:4;stroke-dasharray:none;stroke-dashoffset:0;stroke-opacity:1" />
        </g>
        <path
           d="M 47.071923,-23.882764 C 47.115456,-23.912939 47.608813,-24.007377 47.618142,-23.962117 C 47.628242,-23.913109 47.154085,-23.624808 47.114478,-23.643275 C 47.07755,-23.660493 47.256367,-23.773626 47.245729,-23.833499 C 47.23509,-23.893371 47.022025,-23.848175 47.071923,-23.882764 z"
           id="path3557"
           style="opacity:1;fill:#212121;fill-opacity:1;fill-rule:evenodd;stroke:none;stroke-width:1px;stroke-linecap:butt;stroke-linejoin:miter;stroke-opacity:1;display:inline" />
        <path
           d="M 46.612006,-25.418972 C 46.612029,-25.292922 46.509852,-25.190726 46.383801,-25.190726 C 46.257751,-25.190726 46.155574,-25.292922 46.155597,-25.418972 C 46.155574,-25.545022 46.257751,-25.647218 46.383801,-25.647218 C 46.509852,-25.647218 46.612029,-25.545022 46.612006,-25.418972 L 46.612006,-25.418972 z"
           id="path2775"
           style="fill:#e3e4e5;fill-opacity:1;fill-rule:evenodd;stroke:#000000;stroke-width:0.01859111;stroke-linecap:butt;stroke-linejoin:miter;stroke-miterlimit:4;stroke-dasharray:none;stroke-opacity:1" />
        <path
           d="M 49.264009,-25.614962 C 49.264032,-25.488912 49.161855,-25.386716 49.035804,-25.386716 C 48.909754,-25.386716 48.807577,-25.488912 48.8076,-25.614962 C 48.807577,-25.741012 48.909754,-25.843208 49.035804,-25.843208 C 49.161855,-25.843208 49.264032,-25.741012 49.264009,-25.614962 L 49.264009,-25.614962 z"
           id="path3549"
           style="fill:#e3e4e5;fill-opacity:1;fill-rule:evenodd;stroke:#000000;stroke-width:0.01859111;stroke-linecap:butt;stroke-linejoin:miter;stroke-miterlimit:4;stroke-dasharray:none;stroke-opacity:1" />
        <path
           d="M 51.928205,-25.418967 C 51.928228,-25.292917 51.826051,-25.190721 51.7,-25.190721 C 51.57395,-25.190721 51.471773,-25.292917 51.471796,-25.418967 C 51.471773,-25.545017 51.57395,-25.647213 51.7,-25.647213 C 51.826051,-25.647213 51.928228,-25.545017 51.928205,-25.418967 L 51.928205,-25.418967 z"
           id="path3551"
           style="fill:#e3e4e5;fill-opacity:1;fill-rule:evenodd;stroke:#000000;stroke-width:0.01859111;stroke-linecap:butt;stroke-linejoin:miter;stroke-miterlimit:4;stroke-dasharray:none;stroke-opacity:1" />
        <path
           d="M 47.869595,-24.058977 C 47.920934,-24.072011 48.416146,-23.98784 48.409048,-23.942178 C 48.401361,-23.892734 47.856297,-23.788579 47.825656,-23.819738 C 47.797088,-23.848789 48.004188,-23.892198 48.015173,-23.952008 C 48.026158,-24.011817 47.810748,-24.044035 47.869595,-24.058977 z"
           id="path3553"
           style="opacity:1;fill:#212121;fill-opacity:1;fill-rule:evenodd;stroke:none;stroke-width:1px;stroke-linecap:butt;stroke-linejoin:miter;stroke-opacity:1;display:inline" />
        <path
           d="M 48.818265,-24.058977 C 48.869604,-24.072012 49.364817,-23.987841 49.357718,-23.942178 C 49.350031,-23.892735 48.804967,-23.788579 48.774326,-23.819739 C 48.745758,-23.84879 48.952858,-23.892199 48.963843,-23.952008 C 48.974828,-24.011818 48.759418,-24.044036 48.818265,-24.058977 z"
           id="path3555"
           style="opacity:1;fill:#212121;fill-opacity:1;fill-rule:evenodd;stroke:none;stroke-width:1px;stroke-linecap:butt;stroke-linejoin:miter;stroke-opacity:1;display:inline" />
        <path
           d="M 50.538357,-23.760423 C 50.58189,-23.730248 51.075247,-23.63581 51.084576,-23.68107 C 51.094676,-23.730078 50.620519,-24.018379 50.580912,-23.999912 C 50.543984,-23.982694 50.722801,-23.869561 50.712163,-23.809688 C 50.701524,-23.749816 50.488459,-23.795012 50.538357,-23.760423 z"
           id="path3561"
           style="opacity:1;fill:#212121;fill-opacity:1;fill-rule:evenodd;stroke:none;stroke-width:1px;stroke-linecap:butt;stroke-linejoin:miter;stroke-opacity:1;display:inline" />
      </g>
      <path
         d="M 36.210326,2.9122071 L 36.633153,2.9122071 C 36.725242,2.9122079 36.794216,2.9341073 36.840074,2.9779053 C 36.885931,3.0217049 36.90886,3.0840339 36.908861,3.1648926 C 36.90886,3.2479986 36.883872,3.3129481 36.833897,3.3597413 C 36.783921,3.4065352 36.707648,3.429932 36.605077,3.4299317 L 36.465819,3.4299317 L 36.465819,3.7354004 L 36.210326,3.7354004 L 36.210326,2.9122071 z M 36.465819,3.2631592 L 36.528148,3.2631592 C 36.577187,3.2631597 36.611627,3.2546433 36.631468,3.2376099 C 36.651308,3.2205776 36.661228,3.1987718 36.661229,3.1721924 C 36.661228,3.146363 36.652618,3.1244636 36.635399,3.1064942 C 36.618178,3.0885261 36.585797,3.0795417 36.538255,3.0795411 L 36.465819,3.0795411 L 36.465819,3.2631592 z M 37.548997,3.5995118 L 37.259251,3.5995118 L 37.219383,3.7354004 L 36.959398,3.7354004 L 37.268797,2.9122071 L 37.54619,2.9122071 L 37.855589,3.7354004 L 37.589427,3.7354004 L 37.548997,3.5995118 z M 37.495653,3.4215088 L 37.404686,3.125586 L 37.314281,3.4215088 L 37.495653,3.4215088 z M 37.935326,2.9122071 L 38.358153,2.9122071 C 38.450242,2.9122079 38.519216,2.9341073 38.565074,2.9779053 C 38.610931,3.0217049 38.63386,3.0840339 38.633861,3.1648926 C 38.63386,3.2479986 38.608872,3.3129481 38.558897,3.3597413 C 38.508921,3.4065352 38.432648,3.429932 38.330076,3.4299317 L 38.190819,3.4299317 L 38.190819,3.7354004 L 37.935326,3.7354004 L 37.935326,2.9122071 z M 38.190819,3.2631592 L 38.253148,3.2631592 C 38.302187,3.2631597 38.336627,3.2546433 38.356468,3.2376099 C 38.376308,3.2205776 38.386228,3.1987718 38.386229,3.1721924 C 38.386228,3.146363 38.377618,3.1244636 38.360399,3.1064942 C 38.343178,3.0885261 38.310797,3.0795417 38.263255,3.0795411 L 38.190819,3.0795411 L 38.190819,3.2631592 z M 39.303197,2.9122071 L 39.557005,2.9122071 L 39.557005,3.4029786 C 39.557004,3.4516442 39.549424,3.4975955 39.534263,3.5408326 C 39.519102,3.58407 39.49533,3.6218792 39.46295,3.6542603 C 39.430568,3.6866415 39.396596,3.7093832 39.361034,3.7224854 C 39.311619,3.7408285 39.252285,3.75 39.183031,3.75 C 39.142975,3.75 39.09927,3.7471924 39.051915,3.7415772 C 39.004559,3.735962 38.964972,3.7248251 38.933153,3.7081666 C 38.901333,3.6915081 38.872227,3.6678305 38.845836,3.6371338 C 38.819444,3.6064374 38.801382,3.5748049 38.791649,3.5422364 C 38.775926,3.4898278 38.768065,3.4434085 38.768065,3.4029786 L 38.768065,2.9122071 L 39.021873,2.9122071 L 39.021873,3.4147706 C 39.021873,3.4596927 39.03432,3.4947879 39.059215,3.5200562 C 39.084108,3.5453249 39.118642,3.5579592 39.162816,3.557959 C 39.206614,3.5579592 39.240961,3.5455121 39.265855,3.5206177 C 39.290749,3.4957238 39.303196,3.4604414 39.303197,3.4147706 L 39.303197,2.9122071 z M 40.23308,3.5995118 L 39.943333,3.5995118 L 39.903465,3.7354004 L 39.64348,3.7354004 L 39.952879,2.9122071 L 40.230272,2.9122071 L 40.539671,3.7354004 L 40.273509,3.7354004 L 40.23308,3.5995118 z M 40.179735,3.4215088 L 40.088768,3.125586 L 39.998363,3.4215088 L 40.179735,3.4215088 z"
         id="text3910"
         style="font-size:1.14999998px;font-style:normal;font-variant:normal;font-weight:normal;font-stretch:normal;text-align:start;line-height:125%;writing-mode:lr-tb;text-anchor:start;fill:#000000;fill-opacity:1;stroke:none;stroke-width:1px;stroke-linecap:butt;stroke-linejoin:miter;stroke-opacity:1;font-family:Arial Black;-inkscape-font-specification:Arial Black" />
    </g>
  </g>
</svg>
