<?xml version="1.0" encoding="utf-8"?>
<!-- Generator: Adobe Illustrator 14.0.0, SVG Export Plug-In . SVG Version: 6.00 Build 43363)  -->
<!DOCTYPE svg PUBLIC "-//W3C//DTD SVG 1.1//EN" "http://www.w3.org/Graphics/SVG/1.1/DTD/svg11.dtd">
<svg version="1.1"
	 id="svg2" xmlns:dc="http://purl.org/dc/elements/1.1/" xmlns:cc="http://creativecommons.org/ns#" xmlns:sodipodi="http://sodipodi.sourceforge.net/DTD/sodipodi-0.dtd" xmlns:inkscape="http://www.inkscape.org/namespaces/inkscape" xmlns:svg="http://www.w3.org/2000/svg" xmlns:rdf="http://www.w3.org/1999/02/22-rdf-syntax-ns#" sodipodi:docname="Flag_of_Burma_1943.svg" inkscape:version="0.47 r22583"
	 xmlns="http://www.w3.org/2000/svg" xmlns:xlink="http://www.w3.org/1999/xlink" x="0px" y="0px" width="2000px"
	 height="1333.33px" viewBox="0 0 2000 1333.33" enable-background="new 0 0 2000 1333.33" xml:space="preserve">
<g id="g2959">
	<rect id="rect2964" x="-0.235" y="719.668" fill="#DA251D" width="2001.404" height="613.79"/>
	<rect id="rect2968" x="-0.235" y="0.642" fill="#F8C400" width="2001.404" height="562.879"/>
	<rect id="rect2966" x="-0.235" y="445.009" fill="#006E3B" width="2001.404" height="444.084"/>
</g>
<path id="path4096" sodipodi:type="arc" sodipodi:ry="494.89761" sodipodi:rx="433.22815" sodipodi:cy="730.67316" sodipodi:cx="1012.9213" fill="#FFFFFF" d="
	M1444.839,667.05c0,246.681-198.952,446.655-444.372,446.655S556.095,913.731,556.095,667.05
	c0-246.68,198.952-446.655,444.372-446.655S1444.839,420.37,1444.839,667.05L1444.839,667.05z"/>
<g>
	
		<path id="path3747" sodipodi:nodetypes="ccccc" fill="#7CC5A1" stroke="#000000" stroke-width="2.8294" stroke-linejoin="round" d="
		M799.486,318.008c31.648,5.482,59.092-10.29,100.151,42.756c-4.342-35.252,28.081-62.864,59.705-90.642
		c-24.792-3.178-56.55,1.454-79.576,29.84C831.225,281.306,817.121,306.614,799.486,318.008z"/>
	
		<path id="path3749" sodipodi:nodetypes="ccccc" fill="#7CC5A1" stroke="#000000" stroke-width="2.8294" stroke-linejoin="round" d="
		M1029.519,276.478c39.908-11.831,52.717,6.416,71.01,18.576c25.328-11.407,51.421-18.289,83.975,13.082
		c-84.538,3.405-73.861,25.935-96.055,41.862C1079.032,324.047,1073.516,297.544,1029.519,276.478L1029.519,276.478z"/>
	
		<path id="path3751" sodipodi:nodetypes="ccccc" fill="#7CC5A1" stroke="#000000" stroke-width="2.8294" stroke-linejoin="round" d="
		M1238.129,330.375c19.816,4.621,34.387,22.498,43.607,53.897c42.822,2.871,50.745,26.13,63.938,46.31
		c-30.371-7.649-48.83-32.018-102.242-7.326C1251.582,396.841,1255.013,368.263,1238.129,330.375L1238.129,330.375z"/>
	
		<path id="path3753" sodipodi:nodetypes="ccccc" fill="#7CC5A1" stroke="#000000" stroke-width="2.8294" stroke-linejoin="round" d="
		M1366.595,466.949c17.951,8.3,26.067,28.063,17.974,66.718c40.107,30.107,20.554,51.387,29.76,76.921
		c-23.752-22.311-36.016-61.314-75.725-60.438C1356.497,529.775,1373.45,508.592,1366.595,466.949z"/>
	
		<path id="path3755" sodipodi:nodetypes="ccccc" fill="#7CC5A1" stroke="#000000" stroke-width="2.8294" stroke-linejoin="round" d="
		M1401.068,630.211c13.32,19.049,17.971,39.808,2.063,64.625c22.521,41.635-6.997,46.788-12.08,69.072
		c-6.956-26.652-6.043-56.436-35.063-74.305C1377.997,677.893,1397.563,663.352,1401.068,630.211L1401.068,630.211z"/>
	
		<path id="path3757" sodipodi:nodetypes="ccccc" fill="#7CC5A1" stroke="#000000" stroke-width="2.8294" stroke-linejoin="round" d="
		M614.066,778.559c-18.225-15.812-34.814-32.462-17.089-66.717c-15.368-20.114-18.561-37.27-2.063-61.224
		c12.557,19.679,7.248,45.629,51.563,54.16C616.377,728.868,617.683,753.778,614.066,778.559z"/>
	
		<path id="path3759" sodipodi:nodetypes="ccccc" fill="#7CC5A1" stroke="#000000" stroke-width="2.8294" stroke-linejoin="round" d="
		M656.496,568.465c-11.334-24.655-33.119-23.681-29.17-85.817c-19.729,13.049-26.543,34.53-18.563,65.671
		c-33.663,45.42-24.177,58.805-26.223,80.061C604.267,606.196,614.82,575.56,656.496,568.465L656.496,568.465z"/>
	
		<path id="path3761" sodipodi:nodetypes="ccccc" fill="#7CC5A1" stroke="#000000" stroke-width="2.8294" stroke-linejoin="round" d="
		M747.542,342.41c-16.914,32.259-13.064,63.365-4.125,94.189c-49.909-21.283-69.405,4.174-100.18,12.297
		c4.601-11.506,16.626-45.508,61.875-51.804C707.886,358.169,729.2,352.994,747.542,342.41z"/>
	
		<path id="path3763" sodipodi:nodetypes="cccccccccccccccccccccc" fill="#7CC5A1" stroke="#000000" stroke-width="2.8294" stroke-linejoin="round" d="
		M636.754,792.427c-5.78-42.289,6.652-70.533,31.821-88.957c-44.889-21.266-49.622-44.361-64.822-66.979
		c21.612-25.214,37.799-54.327,75.43-68.025c-25.982-31.708-38.991-64.496-38.894-98.376
		c40.095-24.694,77.794-19.614,115.502-14.651c2.753-40.565-10.035-85.566,12.965-120.353
		c56.538-10.405,89.728,20.655,129.645,39.769c19.29-44.643,50.274-78.502,90.751-103.608c60.087,30.76,77.71,67.805,89.573,105.701
		c30.818-41.211,83.927-46.931,137.896-51.28c24.298,41.01,13.881,81.057,14.143,121.399c35.651-2.643,51.511-25.37,117.859,3.14
		c7.168,47.301-17.736,70.505-29.465,103.607c29.568,12.271,55.553,34.444,77.786,66.979
		c-16.908,27.292-36.259,50.898-61.286,65.933c41.011,30.572,26.799,60.079,34.179,90.003l-150.859,105.701l-141.431-96.282
		l-157.931,4.186L781.72,868.824L636.754,792.427L636.754,792.427z"/>
	
		<path id="path4004" sodipodi:nodetypes="ccccccccccccccccccccccccccccccccc" fill="#C0A264" stroke="#000000" stroke-width="2.8294" stroke-linejoin="round" d="
		M677.391,826.133l116.345-8.675c-0.218-5.083-8.225-13.309,0-14.984c5.123-1.555,8.96,0.316,13.321,0.789
		c-0.675-4.292-4.691-9.008,0-12.618c5.329-2.514,10.658-0.528,15.986-0.789c-0.149-4.339-2.694-10.805,2.665-10.252l10.657-0.788
		c1.553-4.47-1.536-8.938,5.328-13.407l13.322-5.521c2.119-5.533,5.038-6.805,7.993-7.886l25.756-11.829l248.675,2.365
		c5.618,1.212,5.383,4.503,7.104,7.098c3.274-1.144,5.173-3.266,12.434-1.577c4.933,3.681,1.391,7.36,1.776,11.041
		c7.697,2.365,19.075,0.646,23.092,7.098l4.44,13.406c4.145-0.197,8.289-3.836,12.434,0l4.44,18.139
		c3.639-0.8,7.782-4.734,10.657-0.789l-0.888,12.618l19.539,2.366l95.029-3.943l-58.617,90.691l-90.588,44.952l-33.749-79.651
		l-47.959-51.261l-188.283,9.464l-52.399,84.383l-45.294,49.684l-53.287-26.813L677.391,826.133L677.391,826.133z"/>
	
		<path id="path3769" sodipodi:type="arc" sodipodi:ry="49.929367" sodipodi:rx="55.426178" sodipodi:cy="846.9483" sodipodi:cx="714.12738" fill="#6D619E" stroke="#000000" stroke-width="3" stroke-linejoin="round" d="
		M764.639,755.197c0,24.507-24.836,44.373-55.474,44.373c-30.637,0-55.474-19.866-55.474-44.373s24.836-44.374,55.474-44.374
		S764.639,730.69,764.639,755.197z"/>
	
		<path id="path3771" sodipodi:type="arc" sodipodi:ry="54.204666" sodipodi:rx="55.731556" sodipodi:cy="718.38397" sodipodi:cx="696.72083" fill="#6D619E" stroke="#000000" stroke-width="3" stroke-linejoin="round" d="
		M747.524,640.937c0,26.605-24.974,48.174-55.779,48.174c-30.807,0-55.78-21.569-55.78-48.174c0-26.605,24.974-48.173,55.78-48.173
		C722.55,592.764,747.524,614.331,747.524,640.937z"/>
	
		<path id="path3773" sodipodi:type="arc" sodipodi:ry="62.907948" sodipodi:rx="57.41114" sodipodi:cy="592.11005" sodipodi:cx="729.24359" fill="#6D619E" stroke="#000000" stroke-width="3" stroke-linejoin="round" d="
		M766.228,490.275c23.773,22.533,24.272,56.418,1.114,75.684c-23.159,19.267-61.206,16.618-84.98-5.915
		c-23.773-22.533-24.272-56.419-1.114-75.685C704.407,465.093,742.454,467.741,766.228,490.275z"/>
	
		<path id="path3775" sodipodi:type="arc" sodipodi:ry="63.824085" sodipodi:rx="55.731556" sodipodi:cy="465.68338" sodipodi:cx="835.66797" fill="#6D619E" stroke="#000000" stroke-width="3" stroke-linejoin="round" d="
		M886.59,416.355c0,31.326-24.974,56.722-55.779,56.722c-30.807,0-55.779-25.396-55.779-56.722
		c0-31.327,24.973-56.723,55.779-56.723C861.617,359.632,886.59,385.028,886.59,416.355L886.59,416.355z"/>
	
		<path id="path3777" sodipodi:type="arc" sodipodi:ry="64.434845" sodipodi:rx="58.785343" sodipodi:cy="410.71524" sodipodi:cx="1001.1831" fill="#6D619E" stroke="#000000" stroke-width="3" stroke-linejoin="round" d="
		M1055.305,367.502c0,31.627-26.342,57.266-58.836,57.266c-32.494,0-58.836-25.639-58.836-57.266s26.342-57.265,58.836-57.265
		C1028.963,310.238,1055.305,335.875,1055.305,367.502z"/>
	
		<path id="path3783" sodipodi:type="arc" sodipodi:ry="64.892906" sodipodi:rx="54.968113" sodipodi:cy="458.2016" sodipodi:cx="1161.354" fill="#6D619E" stroke="#000000" stroke-width="3" stroke-linejoin="round" d="
		M1211.793,409.705c0,31.852-24.631,57.672-55.016,57.672c-30.384,0-55.015-25.82-55.015-57.672s24.631-57.673,55.015-57.673
		C1187.162,352.032,1211.793,377.854,1211.793,409.705L1211.793,409.705z"/>
	
		<path id="path3785" sodipodi:type="arc" sodipodi:ry="63.824085" sodipodi:rx="51.456261" sodipodi:cy="571.64966" sodipodi:cx="1265.9462" fill="#6D619E" stroke="#000000" stroke-width="3" stroke-linejoin="round" d="
		M1307.403,536.156c-18.398,26.729-52.987,37.72-77.256,24.549c-24.269-13.172-29.027-45.519-10.628-72.248
		s52.988-37.72,77.257-24.548S1325.803,509.428,1307.403,536.156z"/>
	
		<path id="path3787" sodipodi:type="arc" sodipodi:ry="58.785343" sodipodi:rx="54.815422" sodipodi:cy="701.28278" sodipodi:cx="1310.2261" fill="#6D619E" stroke="#000000" stroke-width="3" stroke-linejoin="round" d="
		M1360.641,625.739c0,28.854-24.563,52.245-54.862,52.245c-30.3,0-54.863-23.391-54.863-52.245s24.563-52.244,54.863-52.244
		C1336.077,573.494,1360.641,596.885,1360.641,625.739z"/>
	
		<path id="path3789" sodipodi:type="arc" sodipodi:ry="50.692814" sodipodi:rx="56.189625" sodipodi:cy="831.83209" sodipodi:cx="1299.0797" fill="#6D619E" stroke="#000000" stroke-width="3" stroke-linejoin="round" d="
		M1350.86,741.762c0,24.882-25.179,45.053-56.238,45.053s-56.238-20.171-56.238-45.053s25.179-45.053,56.238-45.053
		S1350.86,716.881,1350.86,741.762z"/>
	
		<path id="path3791" sodipodi:type="arc" sodipodi:ry="28.814959" sodipodi:rx="28.069744" sodipodi:cy="853.15387" sodipodi:cx="713.17023" fill="#C0A264" stroke="#000000" stroke-width="3" stroke-linejoin="round" d="
		M736.301,760.712c0,14.144-12.578,25.608-28.094,25.608s-28.094-11.465-28.094-25.608s12.578-25.608,28.094-25.608
		S736.301,746.568,736.301,760.712z"/>
	
		<path id="path3793" sodipodi:type="arc" sodipodi:ry="26.33091" sodipodi:rx="30.305387" sodipodi:cy="717.02802" sodipodi:cx="695.53351" fill="#C0A264" stroke="#000000" stroke-width="3" stroke-linejoin="round" d="
		M720.887,639.732c0,12.925-13.58,23.401-30.331,23.401c-16.752,0-30.332-10.477-30.332-23.401c0-12.924,13.58-23.4,30.332-23.4
		C707.307,616.331,720.887,626.808,720.887,639.732L720.887,639.732z"/>
	
		<path id="path3797" sodipodi:type="arc" sodipodi:ry="34.03146" sodipodi:rx="32.04422" sodipodi:cy="587.60913" sodipodi:cx="735.52667" fill="#C0A264" stroke="#000000" stroke-width="3" stroke-linejoin="round" d="
		M741.883,498.061c17.604,5.885,26.817,22.589,20.577,37.309c-6.241,14.72-25.571,21.882-43.177,15.997
		c-17.604-5.886-26.817-22.589-20.577-37.309S724.278,492.176,741.883,498.061L741.883,498.061z"/>
	
		<path id="path3799" sodipodi:type="arc" sodipodi:ry="34.03146" sodipodi:rx="28.566553" sodipodi:cy="466.88437" sodipodi:cx="833.89496" fill="#C0A264" stroke="#000000" stroke-width="3" stroke-linejoin="round" d="
		M857.177,412.936c3.324,16.44-6.58,31.777-22.122,34.255s-30.836-8.842-34.16-25.283c-3.324-16.44,6.581-31.777,22.123-34.255
		S853.854,396.494,857.177,412.936z"/>
	
		<path id="path3801" sodipodi:type="arc" sodipodi:ry="30.553793" sodipodi:rx="26.827721" sodipodi:cy="411.2417" sodipodi:cx="1001.0714" fill="#C0A264" stroke="#000000" stroke-width="3" stroke-linejoin="round" d="
		M1023.208,367.97c0,14.997-12.021,27.154-26.851,27.154c-14.829,0-26.851-12.157-26.851-27.154
		c0-14.996,12.021-27.153,26.851-27.153C1011.187,340.817,1023.208,352.974,1023.208,367.97z"/>
	
		<path id="path3805" sodipodi:type="arc" sodipodi:ry="34.03146" sodipodi:rx="27.821339" sodipodi:cy="456.94818" sodipodi:cx="1161.5409" fill="#C0A264" stroke="#000000" stroke-width="3" stroke-linejoin="round" d="
		M1184.414,412.744c-3.16,16.467-18.012,27.956-33.171,25.661c-15.16-2.294-24.888-17.502-21.728-33.968
		c3.16-16.467,18.011-27.956,33.171-25.662C1177.847,381.071,1187.574,396.279,1184.414,412.744z"/>
	
		<path id="path3807" sodipodi:type="arc" sodipodi:ry="34.776672" sodipodi:rx="32.541031" sodipodi:cy="571.95959" sodipodi:cx="1265.1257" fill="#C0A264" stroke="#000000" stroke-width="3.065" stroke-linejoin="round" d="
		M1285.732,529.63c-11.988,12.958-32.312,15.034-45.394,4.638c-13.083-10.397-13.969-29.33-1.98-42.288s32.312-15.034,45.394-4.637
		C1296.834,497.74,1297.721,516.672,1285.732,529.63z"/>
	
		<path id="path3809" sodipodi:type="arc" sodipodi:ry="23.350052" sodipodi:rx="29.063364" sodipodi:cy="701.13013" sodipodi:cx="1310.8322" fill="#C0A264" stroke="#000000" stroke-width="3" stroke-linejoin="round" d="
		M1335.473,625.603c0,11.461-13.023,20.752-29.088,20.752c-16.065,0-29.089-9.291-29.089-20.752s13.023-20.752,29.089-20.752
		C1322.449,604.851,1335.473,614.142,1335.473,625.603z"/>
	
		<path id="path3813" sodipodi:type="arc" sodipodi:ry="30.553793" sodipodi:rx="29.063364" sodipodi:cy="839.49158" sodipodi:cx="1299.9023" fill="#C0A264" stroke="#000000" stroke-width="3.1889" stroke-linejoin="round" d="
		M1325.94,746.696c0,13.272-13.023,24.032-29.089,24.032c-16.064,0-29.088-10.76-29.088-24.032s13.022-24.031,29.088-24.031
		S1325.94,733.424,1325.94,746.696z"/>
	
		<path id="path3815" sodipodi:nodetypes="cccccc" fill="#C0A264" stroke="#000000" stroke-width="2.8294" stroke-linejoin="round" d="
		M878.142,726.127c-21.826,8.437-32.495,13.482-61.837,20.966c-12.354,2.213-26.216,4.115-49.355,4.034
		c-5.134-1.31-4.5-7.012-2.741-8.641c17.49-4.982,44.132-12.759,62.931-14.351L878.142,726.127z"/>
	
		<path id="path3883" sodipodi:nodetypes="ccccccccccccccccccc" fill="#006E3B" stroke="#000000" stroke-width="2.8294" stroke-linejoin="round" d="
		M907.418,721.584l-54.154-0.968c-33.019-5.067-57.928-11.074-68.693-18.719c22.164-30.729,75.097-22.183,112.671-33.241
		c-31.257-19.795-79.074-23.046-93.771-59.384c29.821-9.716,70.51,7.101,105.765,10.65c-22.894-17.581-63.346-39.378-60.333-84.233
		c24.521-8.508,65.842,36.97,101.039,61.643c-9.102-40.145-25.173-84.335-10.54-110.698c37.732,21.956,46.194,61.589,61.061,90.043
		c15.287-63.496,29.496-76.019,47.612-92.625c9.052,5.499,11.098,50.167,9.813,94.884c30.153-26.646,60.216-52.822,84.685-50.023
		c11.137,28.305-23.618,58.065-36.709,87.138c31.288-7.074,66.446-27.212,93.407-19.687c5.11,18.352-52.527,43.456-78.869,65.192
		c52.655,3.356,79.464,13.118,90.5,26.788c-6.808,21.054-54.803,25.041-87.956,35.178L907.418,721.584L907.418,721.584z"/>
	
		<path id="path3817" sodipodi:nodetypes="ccccc" fill="#C0A264" stroke="#000000" stroke-width="2.8294" stroke-linejoin="round" d="
		M876.882,704.067c-10.241,2.797-24.251,4.368-49.126,2.4c-13.022-4.93-14.107-8.397-13.07-11.605
		c5.517-9.779,15.669-6.622,24.338-7.604C864.975,690.709,865.283,698.3,876.882,704.067z"/>
	
		<path id="path3819" sodipodi:nodetypes="ccccc" fill="#C0A264" stroke="#000000" stroke-width="2.8294" stroke-linejoin="round" d="
		M891.755,658.444c-45.104-10.725-92.797-14.85-140.654-15.012c-14.956,3.625-8.693,11.675-3.008,13.354
		c10.33,6.087,23.376,5.543,35.495,7.261C823.239,665.37,856.685,661.186,891.755,658.444L891.755,658.444z"/>
	
		<path id="path3823" sodipodi:nodetypes="ccccc" fill="#C0A264" stroke="#000000" stroke-width="2.8294" stroke-linejoin="round" d="
		M827.113,617.174c10.399-2.644,17.21-1.011,28.587,2.85l52.73,33.217l-50.928-8.805
		C848.674,643.064,817.394,620.908,827.113,617.174L827.113,617.174z"/>
	
		<path id="path3825" sodipodi:nodetypes="ccccc" fill="#C0A264" stroke="#000000" stroke-width="2.8294" stroke-linejoin="round" d="
		M798.938,550.772l116.253,75.655l-13.521,6.003l-113.456-70.452C781.101,556.979,791.053,546.632,798.938,550.772z"/>
	
		<path id="path3827" sodipodi:nodetypes="cccccc" fill="#C0A264" stroke="#000000" stroke-width="2.8294" stroke-linejoin="round" d="
		M928.261,599.614c-14.723-13.208-29.445-26.344-44.168-40.82c-2.229-1.558-5.125-2.656-11.718-1.2
		c-3.654,2.924-5.579,6.736,0,14.407c5.794,8.099,28.824,32.313,36.569,39.545L928.261,599.614L928.261,599.614z"/>
	
		<path id="path3829" sodipodi:nodetypes="cccccc" fill="#C0A264" stroke="#000000" stroke-width="2.8294" stroke-linejoin="round" d="
		M948.993,569.198l-66.73-93.386c-3.668-4.923-6.668-2.124-9.887-1.862c-3.663,3.202-1.542,6.403,0,9.605l69.857,99.249
		L948.993,569.198z"/>
	
		<path id="path3831" sodipodi:nodetypes="ccccc" fill="#C0A264" stroke="#000000" stroke-width="2.8294" stroke-linejoin="round" d="
		M976.495,560.957c-6.448-15.528-9.089-31.14-19.389-45.386c-1.691-2.041-3.177-4.583-6.761-2.001
		c-3.967,11.634-6.168,30.394,4.7,52.222L976.495,560.957z"/>
	
		<path id="path3833" sodipodi:nodetypes="cccccc" fill="#C0A264" stroke="#000000" stroke-width="2.8294" stroke-linejoin="round" d="
		M1002.626,552.79c-0.146-35.903,4.083-88.637-0.45-107.654c-3.359-4.094-6.595-9.008-11.857-0.433
		c-4.268,10.079-4.616,25.959-6.172,40.053c0.42,31.031,5.976,48.38,9.465,71.235L1002.626,552.79z"/>
	<path id="path3835" sodipodi:nodetypes="cccc" fill="#C0A264" stroke="#000000" stroke-width="2.8294" stroke-linejoin="round" d="
		M1045.893,563.196c-0.45-18.543,4.909-58.896-6.318-54.975c-8.82,8.533-13.954,27.816-20.843,50.932L1045.893,563.196z"/>
	
		<path id="path3837" sodipodi:nodetypes="ccccc" fill="#C0A264" stroke="#000000" stroke-width="2.8294" stroke-linejoin="round" d="
		M1060.766,573.2l59.942-98.85c2.48-9.743-11.504,0.173-13.309,0.579c-20.549,28.565-40.065,57.523-57.192,87.392L1060.766,573.2z"
		/>
	
		<path id="path3839" sodipodi:nodetypes="ccccc" fill="#C0A264" stroke="#000000" stroke-width="2.8294" stroke-linejoin="round" d="
		M1103.131,603.615c12.114-41.705,30.573-59.922,18.855-55.733c-4.315,1.64-7.635,2.902-14.266,7.841
		c-14.026,9.341-20.701,22.385-26.187,31.134L1103.131,603.615z"/>
	
		<path id="path3841" sodipodi:nodetypes="ccccc" fill="#7CC5A1" stroke="#000000" stroke-width="2.8294" stroke-linejoin="round" d="
		M1111.243,617.223l89.661-66.426c7.271-4.098,11.056-17.966-11.424-4.558l-87.251,62.979L1111.243,617.223z"/>
	
		<path id="path3843" sodipodi:nodetypes="ccccc" fill="#C0A264" stroke="#000000" stroke-width="2.8294" stroke-linejoin="round" d="
		M1123.862,647.638l43.865-34.164c3.461-2.354,6.142-9.11-10.265-4.501l-43.966,18.255L1123.862,647.638L1123.862,647.638z"/>
	
		<path id="path3845" sodipodi:nodetypes="ccccc" fill="#C0A264" stroke="#000000" stroke-width="2.8294" stroke-linejoin="round" d="
		M1124.047,663.915c44.188-6.224,106.685-9.009,128.264-19.479c5.572-4.138,4.968-7.146-1.674-9.114
		c-18.017-0.959-32.078-4.454-117.76,13.917L1124.047,663.915L1124.047,663.915z"/>
	
		<path id="path3847" sodipodi:nodetypes="cccccc" fill="#C0A264" stroke="#000000" stroke-width="2.8294" stroke-linejoin="round" d="
		M1126.116,684.056c18.592-1.249,36.858-8.862,55.886-1.601l4.507,4.803c-4.771,8.955-20.306,10.447-30.592,11.1l-34.759,0.506
		L1126.116,684.056L1126.116,684.056z"/>
	
		<path id="path3849" sodipodi:nodetypes="ccccccc" fill="#C0A264" stroke="#000000" stroke-width="2.8294" stroke-linejoin="round" d="
		M1126.116,718.874l84.279,5.203c13.601,1.522,18.621,2.871,25.689,6.804c6.135,3.288,4.99,7.046,4.057,8.804
		c-2.649,4.089-6.712,5.646-11.268,4.402l-103.659-16.008L1126.116,718.874L1126.116,718.874z"/>
	
		<path id="path3851" sodipodi:nodetypes="ccccc" fill="#006E3B" stroke="#000000" stroke-width="2.8294" stroke-linejoin="round" d="
		M812.916,724.742c-13.688-3.7-24.193-13.051-35.957-20.166c-13.247-2.639-26.495,5.042-39.742,7.563
		c22.261,0.147,26.782,6.781,31.226,13.443C772.49,732.001,798.083,725.026,812.916,724.742z"/>
	
		<path id="path3853" sodipodi:nodetypes="ccccc" fill="#006E3B" stroke="#000000" stroke-width="2.8294" stroke-linejoin="round" d="
		M735.324,693.653c14.237,2.873,28.447,5.521,41.635,0l24.602-19.325c-11.121-1.194-25.816-8.103-32.172-1.68
		C760.367,681.307,749.694,688.794,735.324,693.653z"/>
	
		<path id="path3855" sodipodi:nodetypes="ccccc" fill="#006E3B" stroke="#000000" stroke-width="2.8294" stroke-linejoin="round" d="
		M771.281,606.27c11.775,8.31,17.632,8.692,31.551,9.387c5.49,1.703,8.78,13.811,7.245,20.861
		c-9.699-6.16-20.483-8.47-31.226-10.923C766.5,619.154,770.358,612.711,771.281,606.27z"/>
	
		<path id="path3857" sodipodi:nodetypes="ccccc" fill="#006E3B" stroke="#000000" stroke-width="2.8294" stroke-linejoin="round" d="
		M760.873,596.187c8.001-8.565,16.179-16.737,28.387-15.964c7.774,5.798,16.745,9.473,25.548,13.443
		c-9.13,2.3-20.238,8.696-26.494,5.042C780.874,594.835,771.53,594.345,760.873,596.187L760.873,596.187z"/>
	
		<path id="path3859" sodipodi:nodetypes="ccccc" fill="#006E3B" stroke="#000000" stroke-width="2.8294" stroke-linejoin="round" d="
		M841.302,563.418c-0.725-12.635-3.339-28.812-7.146-33.232c-13.427-7.164-15.093-15.502-23.677-24.386
		c-0.975,13.126-5.074,36.611,5.677,40.331C829.779,549.745,833.446,557.243,841.302,563.418L841.302,563.418z"/>
	
		<path id="path3861" sodipodi:nodetypes="ccccc" fill="#006E3B" stroke="#000000" stroke-width="2.8294" stroke-linejoin="round" d="
		M879.151,518.046c-7.415-8.193-16.627-17.185-17.978-22.686c-3.564-5.294-26.581-4.829-41.635-6.722
		c11.356,7.352,15.075,13.009,17.979,18.484C843.275,514.885,865.273,514.406,879.151,518.046z"/>
	
		<path id="path3863" sodipodi:nodetypes="ccccc" fill="#006E3B" stroke="#000000" stroke-width="2.8294" stroke-linejoin="round" d="
		M920.786,507.964c0.852-17.813,1.685-35.714,5.678-38.65c7.043-16.932-6.081-25.081-9.463-37.811
		c-2.322,13.801-3.972,28.796-10.408,35.29C901.973,474.704,915.776,494.067,920.786,507.964z"/>
	
		<path id="path3865" sodipodi:nodetypes="ccccc" fill="#006E3B" stroke="#000000" stroke-width="2.8294" stroke-linejoin="round" d="
		M935.261,429.234c4.803,12.496,19.944,22.951,34.064,33.608c7.088,8.341,1.076,20.558,1.61,30.838l-29.333-31.929
		C927.016,446.334,934.099,438.532,935.261,429.234L935.261,429.234z"/>
	
		<path id="path3867" sodipodi:nodetypes="ccccc" fill="#006E3B" stroke="#000000" stroke-width="2.8294" stroke-linejoin="round" d="
		M1019.194,498.721c0.269-12.913-4.384-32.726,2.959-41.151l34.064-30.248c2.992,8.98,0.303,34.499-8.453,37.02
		C1027.926,471.536,1029.215,483.679,1019.194,498.721L1019.194,498.721z"/>
	
		<path id="path3869" sodipodi:nodetypes="ccccc" fill="#006E3B" stroke="#000000" stroke-width="2.8294" stroke-linejoin="round" d="
		M1075.968,499.562l8.114-30.499c1.285-14.776-12.525-27.877-13.128-46.89c-7.739,13.446-10.367,29.771-6.341,44.62
		L1075.968,499.562z"/>
	
		<path id="path3871" sodipodi:nodetypes="ccccc" fill="#006E3B" stroke="#000000" stroke-width="2.8294" stroke-linejoin="round" d="
		M1111.12,510.842c8.287-7.818,9.708-17.172,25.689-23.884c10.477,1.998,23.437-4.821,35.957-10.083
		c-5.439,10.939-11.087,22.843-23.797,26.404C1136.353,499.091,1123.736,505.962,1111.12,510.842L1111.12,510.842z"/>
	
		<path id="path3873" sodipodi:nodetypes="ccccc" fill="#006E3B" stroke="#000000" stroke-width="2.8294" stroke-linejoin="round" d="
		M1154.505,559.217c0.316-10.923-3.895-27.873,0.947-32.769c12.845-9.921,15.576-22.837,22.709-34.449
		c0.637,13.451,8.797,37.401,1.893,40.331C1170.782,534.581,1162.756,547.898,1154.505,559.217z"/>
	
		<path id="path3875" sodipodi:nodetypes="ccccc" fill="#006E3B" stroke="#000000" stroke-width="2.8294" stroke-linejoin="round" d="
		M1168.699,585.264c8.23,1.104,23.812,0.153,32.172,5.882c23.836,3.372,24.535-4.995,35.011-8.402
		c-11.425-3.678-12.202-8.931-23.656-12.604C1198.247,570.467,1183.847,579.939,1168.699,585.264z"/>
	
		<path id="path3877" sodipodi:nodetypes="ccccc" fill="#006E3B" stroke="#000000" stroke-width="2.8294" stroke-linejoin="round" d="
		M1186.678,626.435c7.876-6.667,15.374-13.401,17.978-21.005c1.969-9.638,21.445-13.445,32.172-20.166l-15.14,27.728
		C1217.105,619.855,1199.421,624.338,1186.678,626.435L1186.678,626.435z"/>
	
		<path id="path3879" sodipodi:nodetypes="ccccc" fill="#006E3B" stroke="#000000" stroke-width="2.8294" stroke-linejoin="round" d="
		M1196.183,660.295c9.93-0.35,28.05-3.532,35.914,2.27c9.103,8.429,17.5,17.275,35.957,20.166
		c-14.193,0.28-34.432,7.001-42.581,0.841C1217.25,676.116,1213.264,669.498,1196.183,660.295L1196.183,660.295z"/>
	
		<path id="path3881" sodipodi:nodetypes="ccccc" fill="#006E3B" stroke="#000000" stroke-width="2.8294" stroke-linejoin="round" d="
		M1183.839,720.541c2.475-8.923,20.354-15.566,35.01-22.687c28.194-6.216,27.126,0.561,40.688,0.841
		c-10.412,6.161-26.197,11.367-31.226,18.484C1221.71,722.392,1199.427,714.672,1183.839,720.541L1183.839,720.541z"/>
	
		<path id="path3893" sodipodi:nodetypes="cccccccccccccccccccccccccccccccccccccccccccccccccccccccccccccccccccccccccc" fill="#006E3B" stroke="#000000" stroke-width="2.8294" stroke-linejoin="round" d="
		M953.28,741.458l-47.831,36.547c-6.001-1.257-10.467-3.876-10.567-10.371l51.725-31.608l-51.725,27.163
		c-12.083-0.167-13.375-5.657-12.236-12.347l54.506-20.249l-69.523,19.262c-10.776-2.066-10.647-8.006-6.674-15.311l68.41-17.779
		l-68.41,11.359c-16.481-8.132-9.471-14.872-4.449-21.73l77.31-7.408l-71.748-1.976c-11.713-9.989-13.427-18.646,4.45-24.693
		l71.19,12.841l-71.747-16.298c-5.441-2.028-17.075-21.675,6.674-24.694l69.523,35.559l-69.523-40.004
		c-7.991-9.239-4.692-25.572,11.68-22.718l69.523,56.301l-69.523-61.24c-5.201-17.51,9.744-20.929,17.798-15.804l63.405,70.129
		l-63.961-72.599c3.049-15.748,12.35-14.841,21.135-15.31l61.736,74.574l-60.624-79.514c6.095-10.885,13.587-10.603,21.135-9.877
		l55.619,81.488l-54.506-86.427c10.172-7.7,19.677-10.076,28.365-5.927l33.372,94.823l-31.147-99.269
		c6.029-1.06,11.506-3.591,18.91-0.987l14.461,95.317l-11.68-96.799c8.529-2.727,17.057-3.168,25.584,1.976l-8.898,94.329
		l11.68-92.848c9.631,0.107,21.877-3.434,21.691,10.371l-30.59,84.452l35.039-85.934c19.103-2.063,15.207,10.171,21.135,16.298
		l-47.275,71.117l52.281-70.13c11.146-0.83,17.941,3.652,17.241,17.286l-48.943,56.301l51.169-56.795
		c12.698,1.781,18.622,7.938,15.017,20.248l-51.169,48.894l53.394-48.399c10.106,3.675,18.019,8.649,10.567,22.718l-58.399,31.609
		l60.624-33.09c6.21,6.339,20.316,5.665,11.68,25.188l-67.854,19.755l72.304-13.829c6.087,14.929,2.311,20.005-3.337,23.212
		l-72.304,4.444l72.304,2.47c5.017,6.749,13.606,13.499,1.669,20.249l-71.748-0.988l66.186,12.841
		c7.59,8.787,4.386,13.74-2.78,17.285l-71.191-17.779l56.73,18.273c5.463,12.588-0.909,14.667-11.68,12.841l-40.602-17.286
		l39.489,22.225c3.101,5.574,9.938,12.808-3.894,10.865l-42.27-23.212L953.28,741.458L953.28,741.458z"/>
	
		<path id="path2956" sodipodi:nodetypes="ccccc" fill="#006E3B" stroke="#000000" stroke-width="2.2417" stroke-linejoin="round" d="
		M959.64,734.84c-13.369,4.98-3.323,12.781-1.131,21.939c7.544,4.313,21.676,0.606,22.633-1.219
		c10.336-5.906,9.931-17.788,4.526-19.502C977.93,734.768,970.431,733.253,959.64,734.84L959.64,734.84z"/>
	
		<path id="path3895" sodipodi:nodetypes="ccccc" fill="#006E3B" stroke="#000000" stroke-width="2.2417" stroke-linejoin="round" d="
		M959.948,723.095c-13.369,4.981-3.323,12.782-1.132,21.94c7.545,4.313,21.676,0.606,22.634-1.219
		c10.336-5.907,9.931-17.788,4.526-19.503C978.238,723.025,970.739,721.509,959.948,723.095z"/>
	
		<path id="path3897" sodipodi:nodetypes="ccccc" fill="#006E3B" stroke="#000000" stroke-width="2.8294" stroke-linejoin="round" d="
		M953.28,739.976c-5.382-2.373-9.806,7.158-14.461,13.828c-1.735,5.83,7.025,11.051,14.221,11.765
		c8.017-1.004,10.87-18.031,7.786-20.742L953.28,739.976L953.28,739.976z"/>
	
		<path id="path3899" sodipodi:nodetypes="ccccc" fill="#006E3B" stroke="#000000" stroke-width="2.8294" stroke-linejoin="round" d="
		M956.617,728.124c-8.57-2.716-27.659,11.406-23.359,14.815c1.644,5.559,6.783,7.391,12.236,8.89
		c11.802-0.709,11.228-5.997,14.46-9.877C961.857,728.641,957.736,732.714,956.617,728.124L956.617,728.124z"/>
	
		<path id="path3901" sodipodi:nodetypes="ccccc" fill="#006E3B" stroke="#000000" stroke-width="2.8294" stroke-linejoin="round" d="
		M945.394,709.703c-7.003,6.135-8.97,2.12-18.811,16.445c2.173,5.307-4.95,7.216,8.898,16.791
		c8.474,2.159,13.965-3.627,17.798-13.828C952.445,721.302,956.136,703.134,945.394,709.703z"/>
	
		<path id="path3903" sodipodi:nodetypes="ccccc" fill="#006E3B" stroke="#000000" stroke-width="2.8294" stroke-linejoin="round" d="
		M968.853,699.479c-6.053,0.389-11.385-0.373-21.135,5.926c0.371,6.585-6.168,7.035,1.112,19.755
		c6.457,2.402,15.514,6.042,18.188-3.648C971.871,715.124,977.804,707.01,968.853,699.479z"/>
	
		<path id="path3905" sodipodi:nodetypes="ccccc" fill="#006E3B" stroke="#000000" stroke-width="2.8294" stroke-linejoin="round" d="
		M987.266,698.113c-8.328-1.139-12.021,1.837-16.686,3.951c-6.89,5.598-5.231,11.194-5.562,16.792
		c-1.209,9.372,15.889,9.331,22.247,4.938C1005.13,712.061,995.003,697.512,987.266,698.113L987.266,698.113z"/>
	<path id="path3907" sodipodi:nodetypes="cccc" fill="#006E3B" stroke="#000000" stroke-width="2.8294" stroke-linejoin="round" d="
		M935.482,703.43c-8.284,3.463-10.343,8.901-7.786,15.804c5.119,0.934,10.108,1.175,14.46-1.976
		C952.939,707.376,959.823,699.074,935.482,703.43L935.482,703.43z"/>
	
		<path id="path3909" sodipodi:nodetypes="ccccc" fill="#006E3B" stroke="#000000" stroke-width="2.8294" stroke-linejoin="round" d="
		M934.37,695.528c-4.32,1.164-6.968,0.348-13.348,3.951c-1.117,4.515-7.622,8.688,1.112,13.828
		c9.272,5.823,10.486-5.051,15.572-7.902C937.271,702.233,938.382,699.336,934.37,695.528L934.37,695.528z"/>
	
		<path id="path3911" sodipodi:nodetypes="cccccc" fill="#006E3B" stroke="#000000" stroke-width="2.8294" stroke-linejoin="round" d="
		M944.381,666.883c-4.5-0.458-9.527,1.194-15.573,6.915c-4.207,6.568-6.531,13.732,0,23.706c12.345,7.389,11.308-3.048,16.686-4.938
		c12.851-9.026,3.708-13.17,5.562-19.755L944.381,666.883z"/>
	
		<path id="path3913" sodipodi:nodetypes="ccccc" fill="#006E3B" stroke="#000000" stroke-width="2.8294" stroke-linejoin="round" d="
		M952.167,686.638c-15.061-0.287-13.752,4.271-15.573,7.901v11.854c3.438,8.158,10.269,2.757,16.686-0.988
		C959.753,700.255,953.289,693.015,952.167,686.638L952.167,686.638z"/>
	
		<path id="path3915" sodipodi:nodetypes="ccccc" fill="#006E3B" stroke="#000000" stroke-width="2.8294" stroke-linejoin="round" d="
		M974.415,680.712c-7.275-0.611-12.573-6.14-23.359,1.976c0,4.938-1.656,3.261,0,14.816c3.876,6.286,12.781,3.641,21.135,1.976
		C976.973,693.423,983.099,687.432,974.415,680.712L974.415,680.712z"/>
	
		<path id="path3917" sodipodi:nodetypes="ccccc" fill="#006E3B" stroke="#000000" stroke-width="2.8497" stroke-linejoin="round" d="
		M994.237,688.005c-9.854-0.996-16.789,1.23-18.799,8.893v10.672c6.007,3.195,12.317,4.562,20.052-2.668
		C1005.681,694.43,994.992,693.483,994.237,688.005L994.237,688.005z"/>
	
		<path id="path3921" sodipodi:nodetypes="ccccc" fill="#006E3B" stroke="#000000" stroke-width="2.8294" stroke-linejoin="round" d="
		M966.628,665.896c-4.407,0.67-8.601,3.044-12.236,9.877c1.107,3.55-6.322,5.477,4.449,10.865c5.448,4.688,9.702-0.171,14.461-0.987
		C973.917,678.015,975.037,670.193,966.628,665.896L966.628,665.896z"/>
	
		<path id="path3919" sodipodi:nodetypes="ccccc" fill="#006E3B" stroke="#000000" stroke-width="2.8294" stroke-linejoin="round" d="
		M995.104,679.92c-6.579-0.025-12.744-4.463-20.023,2.964c-3.163,2.396-6.313,4.795,1.113,9.877
		c5.15,2.741,11.435,2.463,18.91-0.987C1005.944,687.822,996.873,683.871,995.104,679.92L995.104,679.92z"/>
	
		<path id="path3923" sodipodi:nodetypes="ccccc" fill="#006E3B" stroke="#000000" stroke-width="2.8294" stroke-linejoin="round" d="
		M961.067,655.031c-5.191,4.279-9.577-0.74-15.573,12.839c-5.829,5.954-0.497,6.57,3.337,7.903l13.349-5.927
		C969.793,664.907,966.479,659.969,961.067,655.031z"/>
	
		<path id="path3925" sodipodi:nodetypes="cccccc" fill="#006E3B" stroke="#000000" stroke-width="2.8294" stroke-linejoin="round" d="
		M949.943,652.067c-8.65,0.723-14.379,3.298-12.236,10.865l6.675,2.964c7.829,1.252,8.543-4.868,12.235-7.902l-2.225-7.902
		L949.943,652.067L949.943,652.067z"/>
	
		<path id="path3927" sodipodi:nodetypes="ccccc" fill="#006E3B" stroke="#000000" stroke-width="2.8294" stroke-linejoin="round" d="
		M968.853,647.128c-5.286-0.091-12.006-6.549-14.461,5.927c2.369,8.047,7.7,5.574,12.236,5.926c4.448-0.242,3.521-2.606,1.048-5.58
		L968.853,647.128L968.853,647.128z"/>
	<path id="path3929" sodipodi:nodetypes="cccc" fill="#7CC5A1" stroke="#000000" stroke-width="2.8294" stroke-linejoin="round" d="
		M987.763,644.165c-6.91,3.569-5.454,8.995-6.674,13.828c5.562-0.987,9.115,7.831,16.685-2.963
		C1001.651,647.713,1003.71,641.327,987.763,644.165z"/>
	
		<path id="path3931" sodipodi:nodetypes="ccccc" fill="#006E3B" stroke="#000000" stroke-width="2.8294" stroke-linejoin="round" d="
		M977.751,641.201c-6.53,1.568-13.57,2.635-13.348,10.865l2.225,7.902c9.919,3.299,16.465,4.244,15.573,0L977.751,641.201z"/>
	
		<path id="path3933" sodipodi:nodetypes="ccccc" fill="#006E3B" stroke="#000000" stroke-width="2.8294" stroke-linejoin="round" d="
		M976.639,658.981c-1.338-5-8.449-3.165-16.686,0c-6.419,4.029-4.667,9.732-1.112,15.805c5.76,2.282,11.665,6.252,16.686,0
		C977.633,670.134,978.399,665.006,976.639,658.981z"/>
	
		<path id="path3935" sodipodi:nodetypes="ccccc" fill="#006E3B" stroke="#000000" stroke-width="2.8294" stroke-linejoin="round" d="
		M997.774,657.993c-6.674,0.173-13.348-5.719-20.022,2.963l-4.449,14.817c3.349,5.007,7.239,9.353,16.686,6.914
		C1000.281,678.136,996.672,666.939,997.774,657.993L997.774,657.993z"/>
	
		<path id="path3937" sodipodi:nodetypes="ccccc" fill="#006E3B" stroke="#000000" stroke-width="2.8294" stroke-linejoin="round" d="
		M1001.112,641.201l-18.911,0.988c-8.915,2.374-6.247,9.495-5.563,15.804l13.349,2.963
		C1005.139,657.023,1003.407,649.177,1001.112,641.201z"/>
	
		<path id="path3939" sodipodi:nodetypes="ccccc" fill="#006E3B" stroke="#000000" stroke-width="2.8294" stroke-linejoin="round" d="
		M1022.247,641.201c7.045-5.693,14.09-1.045,21.135,0.988c0.563,4.919,7.313,14.063-1.112,12.841l-16.686-0.988
		C1018.011,650.203,1019.956,645.714,1022.247,641.201L1022.247,641.201z"/>
	
		<path id="path3941" sodipodi:nodetypes="ccccc" fill="#006E3B" stroke="#000000" stroke-width="2.8294" stroke-linejoin="round" d="
		M1032.258,653.055c7.978-4.504,14.997,0.365,22.247,2.963c2.677,4.63,2.747,8.599,0,11.852l-20.022-5.925
		C1029.105,658.067,1030.868,655.597,1032.258,653.055L1032.258,653.055z"/>
	
		<path id="path3943" sodipodi:nodetypes="cccccc" fill="#006E3B" stroke="#000000" stroke-width="2.8294" stroke-linejoin="round" d="
		M1016.685,658.981c12.472-6.736,15.736,1.707,23.36,2.964l1.112,13.829l-20.022-3.951c-2.082-1.334-12.48-0.432-7.499-10.547
		L1016.685,658.981L1016.685,658.981z"/>
	
		<path id="path3945" sodipodi:nodetypes="ccccc" fill="#006E3B" stroke="#000000" stroke-width="2.8294" stroke-linejoin="round" d="
		M1020.022,648.116c7.263-6.486,12.848-1.058,17.797,8.89l4.45,9.877c-4.517,1.081-9.513,0.454-15.573-3.951
		C1012.976,652.323,1021.379,652.626,1020.022,648.116L1020.022,648.116z"/>
	
		<path id="path3949" sodipodi:nodetypes="ccccc" fill="#006E3B" stroke="#000000" stroke-width="2.8294" stroke-linejoin="round" d="
		M1050.056,656.018c7.27-2.081,14.654-4.731,18.91,7.902v6.915c-5.933,3.26-11.865-2.332-17.798-3.952
		C1049.064,663.903,1043.532,662.191,1050.056,656.018L1050.056,656.018z"/>
	
		<path id="path3947" sodipodi:nodetypes="ccccc" fill="#006E3B" stroke="#000000" stroke-width="2.8294" stroke-linejoin="round" d="
		M1041.157,660.956c7.689-1.163,15.681-3.487,21.135,3.951l1.112,14.817c-3.19,8.882-10.308,0.328-15.573,0
		C1042.104,672.486,1032.929,664.281,1041.157,660.956z"/>
	
		<path id="path3951" sodipodi:nodetypes="ccccc" fill="#006E3B" stroke="#000000" stroke-width="3.2107" stroke-linejoin="round" d="
		M1056.02,675.013c8.727-3.13,16.553-3.409,20.754,7.771v12.953c-9.535,14.923-10.999,1.136-16.385,1.295
		C1057.917,689.693,1052.243,682.353,1056.02,675.013L1056.02,675.013z"/>
	
		<path id="path3955" sodipodi:nodetypes="cccccc" fill="#006E3B" stroke="#000000" stroke-width="2.8294" stroke-linejoin="round" d="
		M1048.277,683.081c6.78,2.376,21.063-4.471,18.91,8.89l3.337,15.804c-4.618,5.955-10.536,3.258-16.686-0.987l-10.643-17.478
		L1048.277,683.081L1048.277,683.081z"/>
	
		<path id="path3957" sodipodi:nodetypes="cccccc" fill="#006E3B" stroke="#000000" stroke-width="2.8294" stroke-linejoin="round" d="
		M1062.292,699.875c8.042-6.058,11.408-0.694,16.686,0l-1.112,14.816c-3.575,0.039-5.489,0.57-11.124,0
		c-7.182,1.633-13.407,2.206-14.461-2.963L1062.292,699.875z"/>
	
		<path id="path3959" sodipodi:nodetypes="ccccc" fill="#006E3B" stroke="#000000" stroke-width="2.8294" stroke-linejoin="round" d="
		M1054.505,714.691c6.96-0.432,12.803-10.776,21.136,0.987l1.112,16.792c-4.125,9.755-13.448,5.662-21.135,5.927
		C1047.888,729.678,1049.942,722.046,1054.505,714.691z"/>
	
		<path id="path3961" sodipodi:nodetypes="ccccc" fill="#006E3B" stroke="#000000" stroke-width="2.8294" stroke-linejoin="round" d="
		M1032.927,684.663c7.083-0.529,15.087-5.97,20.022,4.938v13.829c3.681,6.741-2.193,5.771-6.674,5.926
		C1034.73,703.948,1027.501,691.641,1032.927,684.663L1032.927,684.663z"/>
	<path id="path3971" sodipodi:nodetypes="cccc" fill="#006E3B" stroke="#000000" stroke-width="2.8294" stroke-linejoin="round" d="
		M1048.721,719.036c6.251,0.663,15.338-4.068,16.685,5.927c0.578,4.31,6.304,11.819,0,11.853
		C1042.215,729.212,1052.64,724.806,1048.721,719.036z"/>
	
		<path id="path3965" sodipodi:nodetypes="ccccc" fill="#006E3B" stroke="#000000" stroke-width="2.8294" stroke-linejoin="round" d="
		M1043.382,700.467c7.825,4.477,17.738,7.718,14.461,18.768l-1.113,4.938c-5.932,1.338-11.864-0.188-17.797-2.963
		C1036.878,712.972,1031.468,703.481,1043.382,700.467L1043.382,700.467z"/>
	
		<path id="path3979" sodipodi:nodetypes="ccccc" fill="#006E3B" stroke="#000000" stroke-width="2.8294" stroke-linejoin="round" d="
		M1062.292,736.025c5.192-1.761,10.421-3.674,13.349,3.951v10.865c-5.813,5.342-12.338,2.45-18.911-0.987
		C1057.926,745.196,1052.845,740.073,1062.292,736.025z"/>
	
		<path id="path3969" sodipodi:nodetypes="ccccc" fill="#006E3B" stroke="#000000" stroke-width="2.8294" stroke-linejoin="round" d="
		M1042.27,721.21c14.774,2.468,11.866,9.219,17.798,13.828v14.815c-5.191-0.968-10.382-0.718-15.573-6.914
		C1041.406,735.488,1037.844,727.994,1042.27,721.21z"/>
	
		<path id="path3975" sodipodi:nodetypes="ccccc" fill="#006E3B" stroke="#000000" stroke-width="2.8294" stroke-linejoin="round" d="
		M1020.022,729.111c10.405,0.566,19.727,5.307,27.809,14.816l-13.349,7.901c-6.928,4.329-14.557,2.436-22.247,0
		C1011.834,732.47,1015.014,727.195,1020.022,729.111z"/>
	
		<path id="path3953" sodipodi:nodetypes="cccccc" fill="#006E3B" stroke="#000000" stroke-width="2.8294" stroke-linejoin="round" d="
		M1024.472,670.835l16.686,1.976l8.898,10.865l-11.123,8.89l-16.686-9.878C1019.283,674.213,1021.294,671.811,1024.472,670.835
		L1024.472,670.835z"/>
	<path id="path3981" sodipodi:nodetypes="cccc" fill="#006E3B" stroke="#000000" stroke-width="2.8294" stroke-linejoin="round" d="
		M1050.056,748.866c4.631,1.156,15.846-3.535,12.236,4.938c1.193,3.637,0.455,6.93-2.225,9.878
		C1054.221,758.743,1043.658,753.804,1050.056,748.866L1050.056,748.866z"/>
	<path id="path3977" sodipodi:nodetypes="cccc" fill="#006E3B" stroke="#000000" stroke-width="2.8294" stroke-linejoin="round" d="
		M1040.045,735.038c10.535,2.656,14.945,9.665,17.798,17.779c-3.382,4.873-12.23,1.655-20.023,0
		C1035.931,745.074,1035.044,738.023,1040.045,735.038z"/>
	
		<path id="path3973" sodipodi:nodetypes="cccccc" fill="#006E3B" stroke="#000000" stroke-width="2.8294" stroke-linejoin="round" d="
		M1018.91,717.259c6.063,0.555,13.825-1.655,15.572,5.926l7.787,15.805l-7.627,2.601l-12.396-4.576
		C1017.457,729.122,1015.955,722.399,1018.91,717.259z"/>
	
		<path id="path3967" sodipodi:nodetypes="ccccc" fill="#006E3B" stroke="#000000" stroke-width="2.8294" stroke-linejoin="round" d="
		M1021.135,704.418c1.128-4.382,10.708-12.878,22.247,10.865v15.804c-0.81,7.133-4.862,3.703-7.787,3.951
		C1030.31,725.203,1019.553,719.741,1021.135,704.418L1021.135,704.418z"/>
	
		<path id="path3963" sodipodi:nodetypes="ccccc" fill="#006E3B" stroke="#000000" stroke-width="2.8294" stroke-linejoin="round" d="
		M1017.131,682.687l17.798,9.878v13.828c-4.449,9.053-8.898-1.531-13.349-1.12C1014.038,698.82,1017.689,690.38,1017.131,682.687
		L1017.131,682.687z"/>
	
		<path id="path4012" sodipodi:nodetypes="ccccc" fill="#798457" stroke="#000000" stroke-width="2.8294" stroke-linejoin="round" d="
		M615.136,790.729c25.265,4.138,45.266-0.64,71.493,28.305c14.479,23.566,23.51,31.006,43.437,70.699
		c9.409,6.052-22.932,9.628-28.686,0.108C687.152,848.833,654.66,822.754,615.136,790.729z"/>
	
		<path id="path4014" sodipodi:nodetypes="ccccc" fill="#798457" stroke="#000000" stroke-width="2.8294" stroke-linejoin="round" d="
		M678.275,790.729c44.429,5.559,52.328,19.704,63.138,33.165c16.349,30.262,16.612,51.597,24.9,77.385
		c-8.597-0.579-17.193-2.955-25.789-13.424C726.257,856.302,719.555,825.709,678.275,790.729z"/>
	
		<path id="path4016" sodipodi:nodetypes="ccccc" fill="#798457" stroke="#000000" stroke-width="2.8294" stroke-linejoin="round" d="
		M739.634,793.098c16.99,10.354,27.8,12.293,51.194,36.46c8.017,26.574,7.998,38.228,16.391,75.669
		c-6.225,7.259-12.45,3.051-18.675,0.79C775.719,857.258,757.384,826.112,739.634,793.098L739.634,793.098z"/>
	
		<path id="path4018" sodipodi:nodetypes="ccccc" fill="#798457" stroke="#000000" stroke-width="2.8294" stroke-linejoin="round" d="
		M800.105,831.791c7.689,7.756,14.503,8.513,23.121,23.689l-0.89,45.01c-5.469,1.094-9.728-5.338-14.229-10.266
		C805.206,870.597,796.625,847.37,800.105,831.791z"/>
	
		<path id="path4020" sodipodi:nodetypes="ccccc" fill="#798457" stroke="#000000" stroke-width="2.8294" stroke-linejoin="round" d="
		M810.776,808.891c10.968,11.844,15.203,11.731,32.903,35.533c-0.712,10.725-3.466,16.615-7.236,20.096l-25.667-38.257
		C806.436,817.903,809.292,813.803,810.776,808.891L810.776,808.891z"/>
	
		<path id="path4022" sodipodi:nodetypes="ccccc" fill="#798457" stroke="#000000" stroke-width="2.8294" stroke-linejoin="round" d="
		M817.89,797.047c8.634,3.639,21.942,1.465,25.789,11.055c8.184,14.11,6.164,19.16,8.893,28.427
		c-9.323-1.956-9.515-19.077-18.169-24.833L817.89,797.047L817.89,797.047z"/>
	<path id="path4024" sodipodi:nodetypes="cccc" fill="#798457" stroke="#000000" stroke-width="2.8294" stroke-linejoin="round" d="
		M841.901,789.939c5.272-0.039,0.971-6.029,24.899,5.527c0.297,8.949,6.691,16.816,0.89,26.849
		C863.346,809.006,850.649,808.89,841.901,789.939z"/>
	<path id="path4026" sodipodi:nodetypes="cccc" fill="#798457" stroke="#000000" stroke-width="2.8294" stroke-linejoin="round" d="
		M858.797,775.725c5.063-2.566,12.189,0.359,21.342,8.687c3.974,8.313,1.732,20.475-4.446,19.741
		C869.635,794.803,859.412,786.686,858.797,775.725z"/>
	<path id="path4028" sodipodi:nodetypes="cccc" fill="#798457" stroke="#000000" stroke-width="2.8294" stroke-linejoin="round" d="
		M875.693,763.882c8.598-1.187,11.663,4.996,14.229,11.844l0.89,11.056C880.294,777.931,870.204,769.177,875.693,763.882z"/>
	<path id="path4030" sodipodi:nodetypes="cccc" fill="#798457" stroke="#000000" stroke-width="2.8294" stroke-linejoin="round" d="
		M1115.797,774.936c1.896-7.726-0.313-20.137,8.004-20.531l16.896-1.579C1133.677,760.954,1128.563,770.211,1115.797,774.936z"/>
	<path id="path4032" sodipodi:nodetypes="cccc" fill="#798457" stroke="#000000" stroke-width="2.8294" stroke-linejoin="round" d="
		M1126.469,789.15c12.611-2.681,19.576-12.882,28.456-20.531c-6.691,1.312-14.691-1.44-19.563,5.527L1126.469,789.15z"/>
	<path id="path4034" sodipodi:nodetypes="cccc" fill="#798457" stroke="#000000" stroke-width="2.8294" stroke-linejoin="round" d="
		M1140.697,812.05c8.351-16.601,15.774-23.324,23.121-29.217c-6.859-0.032-11.663-5.08-22.232,3.948
		C1137.046,793.947,1139.361,803.143,1140.697,812.05z"/>
	
		<path id="path4036" sodipodi:nodetypes="ccccc" fill="#798457" stroke="#000000" stroke-width="2.8294" stroke-linejoin="round" d="
		M1155.814,827.843c16.473-29.857,22.218-27.564,31.124-34.744l-16.896,0.789c-8.343,3.385-16.55,6.889-16.896,17.372
		L1155.814,827.843z"/>
	
		<path id="path4038" sodipodi:nodetypes="cccsc" fill="#798457" stroke="#000000" stroke-width="2.8294" stroke-linejoin="round" d="
		M1173.339,856.501c8.004-29.853,17.157-40.055,25.161-47.609l-18.675,1.579c-1.883-1.672-12.97,11.383-9.782,18.951
		C1171.436,832.729,1173.339,857.291,1173.339,856.501z"/>
	
		<path id="path4040" sodipodi:nodetypes="ccccc" fill="#798457" stroke="#000000" stroke-width="2.8294" stroke-linejoin="round" d="
		M1193.18,894.962c6.255-12.853,17.197-19.879,18.659-38.692c-1.715-19.492-1.863-26.471-2.668-38.692
		c-7.764,9.435-20.073,14.833-21.465,29.926C1189.404,863.342,1185.941,879.943,1193.18,894.962z"/>
	
		<path id="path4042" sodipodi:nodetypes="cccccc" fill="#798457" stroke="#000000" stroke-width="2.8294" stroke-linejoin="round" d="
		M1204.448,897.78c3.424,5.877,12.213,7.47,20.729-2.028c5.435-58.147,22.12-75.456,48.021-116.078
		c-15.86,8.667-43.162,10.076-46.242,26.849c-0.912,16.056,1.157,32.112-5.335,48.168L1204.448,897.78z"/>
	
		<path id="path4044" sodipodi:nodetypes="ccccc" fill="#798457" stroke="#000000" stroke-width="2.8294" stroke-linejoin="round" d="
		M1246.521,889.434c9.781-4.104,16.497-8.492,26.278-22.545c15.354-54.172,39.819-62.771,58.202-92.743
		c-22.231,12.52-44.464,5.941-66.695,43.431C1257.049,835.868,1248.891,850.318,1246.521,889.434L1246.521,889.434z"/>
	
		<path id="path4046" sodipodi:nodetypes="ccccc" fill="#798457" stroke="#000000" stroke-width="2.8294" stroke-linejoin="round" d="
		M1280.206,876.078c2.188,11.187,27.414,3.026,29.713-2.029c8.926-35.712,38.708-65.563,71.771-103.061
		c-18.3,9.153-24.296,9.063-55.135,27.638C1304.124,819.654,1289.679,852.044,1280.206,876.078L1280.206,876.078z"/>
	
		<path id="path4074" sodipodi:nodetypes="ccccccccccccccccccccccccc" fill="#798457" stroke="#000000" stroke-width="2.8294" stroke-linejoin="round" d="
		M729.605,905.187c-7.395,22.196,63.765,79.094,104.096,89.546c44.448,6.734,47.337-25.391,45.543-34.926
		c-2.565-48.859-8.154-92.423,7.59-101.8l42.289-25.034l157.23,1.926c22.51,6.566,42.634,15.003,42.289,39.477
		c2.295,30.195,0.527,65.532,10.149,93.559c22.455,26.592,41.353,22.54,55.995,12.355c36.619-29.535,80.752-57.217,94.337-92.434
		c-20.669,6.295-47.825,2.223-56.056,28.4c-11.139-6.855-26.869-10.253-39.365-1.44c-6.97-30.781-17.636-25.452-27.109-31.774
		c8.652-11.916,9.54-23.231-13.012-32.737c6.769-24.252-11.937-24.269-22.771-31.774c2.04-20.182-15.232-28.573-34.699-35.625
		c5.705-21.078-14.383-22.523-36.867-22.146l-112.772,1.926c-30.569-6.609-37.507,12.703-45.542,30.812
		c-24.839,9.226-21.854,23.651-21.687,37.552c-24.95,1.492-21.16,18.58-22.771,32.736c-22.981,0.87-12.738,16.49-16.265,25.998
		c-15.063,5.036-21.157,14.318-15.754,29.047c-11.932,9.301-33.286,7.969-53.401,1.525
		C758.049,906.685,748.023,900.826,729.605,905.187L729.605,905.187z"/>
	
		<path id="path4076" sodipodi:nodetypes="ccccccccccccccccccccccccccccccccc" fill="#798457" stroke="#000000" stroke-width="2.8294" stroke-linejoin="round" d="
		M1075.907,846.106l-147.406,1.818c-17.439,19.73-55.394,29.95-34.804,89.078c8.025-25.376,30.152-52.847,55.789-64.99l3.582,10.907
		c-31.974,16.708-47.935,51.264-54.765,80.897c-25.071,52.411-53.796,36.699-81.38,42.267c3.248,16.36,28.151,26.31,51.183,36.813
		c32.248,5.156,63.739,1.707,80.868-12.726c-16.335-20.576-20.771-39.643-28.15-59.083c2.358-22.851,2.296-46.128,33.78-68.172
		l6.142,10.907c-19.66,5.751-35.9,17.367-27.127,53.175c3.7,22.097,14.998,32.345,24.056,41.357
		c-3.094-17.919-9.679-36.613-2.559-52.266l13.308-23.633l26.103-44.539l53.23,41.357c15.747,26.244,12.602,51.291,9.725,76.354
		c8.651-4.833,21.004-19.853,17.914-40.903c1.741-37.481-12.838-52.796-24.567-66.354l5.118-12.726
		c11.447,23.592,31.452,36.033,32.757,69.99c3.116,37.716-8.972,53.841-18.938,71.809c-3.563,13.61,49.053,15.522,78.309,8.635
		c27.59-8.613,34.152-24.229,51.183-36.358l-40.434-4.091c-31.77-6.329-35.098-24.544-45.041-39.994
		c-8.734-29.072-36.406-58.825-55.789-83.17l9.213-7.727c26.986,21.004,35.701,43.812,51.694,65.9
		c4.63-10.876,5.732-29.482-0.512-46.812C1114.123,867.922,1098.539,847.362,1075.907,846.106L1075.907,846.106z"/>
	<path id="path4078" sodipodi:nodetypes="cccc" fill="#C0A264" stroke="#000000" stroke-width="2.8294" stroke-linejoin="round" d="
		M878.855,1012.901c7.623,6.989,27.243,8.824,39.922,6.363c-6.571-13.332-8.776-23.937-7.165-37.268
		C910.109,995.99,887.48,1001.431,878.855,1012.901L878.855,1012.901z"/>
	<path id="path4080" sodipodi:nodetypes="cccc" fill="#C0A264" stroke="#000000" stroke-width="2.8294" stroke-linejoin="round" d="
		M1095.868,1018.355c14.673-2.594,29.345,0.229,44.018-12.271c-29.108-7.973-27.243-19.874-39.41-29.995
		C1104.768,991.589,1106.439,1006.454,1095.868,1018.355L1095.868,1018.355z"/>
	
		<path id="path4082" sodipodi:nodetypes="ccccccccccccccccccccccccccccccccccccc" fill="#6D619E" stroke="#000000" stroke-width="2.8294" stroke-linejoin="round" d="
		M1002.205,600.686c13.038-0.28,14.878,24.781,23.032,33.177c-8.888,46.489-15.026,90.782,7.677,139.527l-9.213-24.088
		c46.287-0.418,55.769,39.699,59.884,53.629c0.941,36.54-5.665,58.875-29.686,105.895c-4.77,9.553-1.594,20.414-3.583,39.54
		c-3.941,12.76-24.871,18.588-14.331,39.54c0.094,17.04,5.03,32.647,13.307,47.266c10.152,16.131,22.417,11.621,33.781,15.907
		c6.904,4.402,14.599,7.402,18.938,16.361c-13.035-5.252-22.196-4.772-31.222-4.091l-1.535,22.725
		c-12.908-12.227-24.526-28.819-39.923-29.996c6.854-12.834,2.501-25.012-8.188-35.449l3.07-9.544
		c-0.972-13.424-4.112-17.542-7.677-26.36c-8.94-28.69,2.344-44.809,5.63-65.899c-12.713-3.205-26.215-7.011-29.686-3.182
		c3.977,32.023,7.467,53.782-2.048,74.989l-7.677,26.36c2.388-1.571,2.218,0.282,4.606,2.272
		c-5.631,12.263-8.701,18.651-14.332,24.996l10.749,10.453c-12.383-1.735-22.004,2.663-31.733,6.817l-25.591,15.452
		c1.942-4.394,4.539-8.786,2.559-13.18l-16.89-1.363c4.826-3.958,7.814-4.896,16.378-13.181l37.363-9.089
		c8.62-26.273,11.61-48.227,11.26-63.174c-14.041-15.301-16.398-48.78-20.984-73.171c-12.351-23.415-27.714-25.813-36.34-61.355
		c-8.858-57.672,20.845-80.425,60.907-88.624l-2.559,29.541c-2.272-46.051,29.563-85.949,16.89-134.073L1002.205,600.686
		L1002.205,600.686z"/>
	
		<path id="path4084" sodipodi:nodetypes="ccccc" fill="#3BB3C3" stroke="#000000" stroke-width="2.8294" stroke-linejoin="round" d="
		M996.062,654.769c7.497-11.078,15.886-20.57,26.104-26.814c-6.329-11.412-10.618-25.994-22.009-29.541
		c-9.858-0.881-21.803,4.03-42.482,33.177C970.485,639.258,987.187,630.798,996.062,654.769L996.062,654.769z"/>
	<path id="path4086" sodipodi:nodetypes="cccc" fill="#D6251D" stroke="#000000" stroke-width="2.8294" stroke-linejoin="round" d="
		M986.64,627.086c-25.32-9.664-30.42,4.513-43.808,11.775c27.353-1.545,33.194-2.732,49.048,2.649
		C990.583,636.535,997.07,632.201,986.64,627.086z"/>
	<path id="path4088" sodipodi:nodetypes="cc" stroke="#000000" stroke-width="0.9431" d="M944.402,637.936
		c9.601-2.087,27.141-6.482,40.947-4.754"/>
	<path id="path4090" sodipodi:nodetypes="ccccc" stroke="#000000" stroke-width="0.9431" d="M992.618,614.991
		c1.128-2.715,3.203-3.416,6.94-3.814c2.394-0.147,5.742,1.302,5.617,2.641c0.373,0.726-2.187,5.046-6.155,2.698
		C995.337,613.063,994.84,615.759,992.618,614.991L992.618,614.991z"/>
	<path id="path4092" sodipodi:nodetypes="cc" fill="none" stroke="#000000" stroke-width="2.8294" d="M1070.486,1063.755
		c2.181-5.412-2.064-11.538-9.25-17.991"/>
	<path id="path4094" sodipodi:nodetypes="cc" fill="none" stroke="#000000" stroke-width="2.8294" d="M929.634,1065.871
		c2.046-7.824,9.197-16.71,22.953-22.454"/>
</g>
</svg>
