<?xml version="1.0" encoding="UTF-8" standalone="no"?>
<!-- Created with Inkscape (http://www.inkscape.org/) -->

<svg
   xmlns:dc="http://purl.org/dc/elements/1.1/"
   xmlns:cc="http://creativecommons.org/ns#"
   xmlns:rdf="http://www.w3.org/1999/02/22-rdf-syntax-ns#"
   xmlns:svg="http://www.w3.org/2000/svg"
   xmlns="http://www.w3.org/2000/svg"
   xmlns:sodipodi="http://sodipodi.sourceforge.net/DTD/sodipodi-0.dtd"
   xmlns:inkscape="http://www.inkscape.org/namespaces/inkscape"
   version="1.0"
   width="700"
   height="500"
   id="svg2"
   sodipodi:version="0.32"
   inkscape:version="0.47 r22583"
   sodipodi:docname="Flag of Albania (1912–1914).svg"
   inkscape:output_extension="org.inkscape.output.svg.inkscape"
   sodipodi:modified="true">
  <metadata
     id="metadata16">
    <rdf:RDF>
      <cc:Work
         rdf:about="">
        <dc:format>image/svg+xml</dc:format>
        <dc:type
           rdf:resource="http://purl.org/dc/dcmitype/StillImage" />
      </cc:Work>
    </rdf:RDF>
  </metadata>
  <sodipodi:namedview
     inkscape:window-height="746"
     inkscape:window-width="889"
     inkscape:pageshadow="2"
     inkscape:pageopacity="0.0"
     guidetolerance="10.0"
     gridtolerance="10.0"
     objecttolerance="10.0"
     borderopacity="1.0"
     bordercolor="#666666"
     pagecolor="#ffffff"
     id="base"
     inkscape:zoom="0.75"
     inkscape:cx="346.1556"
     inkscape:cy="251.7414"
     inkscape:window-x="196"
     inkscape:window-y="117"
     inkscape:current-layer="svg2"
     showgrid="false"
     inkscape:window-maximized="0">
    <inkscape:grid
       type="xygrid"
       id="grid2829" />
  </sodipodi:namedview>
  <defs
     id="defs12">
    <inkscape:perspective
       sodipodi:type="inkscape:persp3d"
       inkscape:vp_x="0 : 250 : 1"
       inkscape:vp_y="0 : 1000 : 0"
       inkscape:vp_z="700 : 250 : 1"
       inkscape:persp3d-origin="350 : 166.66667 : 1"
       id="perspective13" />
    <inkscape:perspective
       id="perspective2824"
       inkscape:persp3d-origin="0.5 : 0.33333333 : 1"
       inkscape:vp_z="1 : 0.5 : 1"
       inkscape:vp_y="0 : 1000 : 0"
       inkscape:vp_x="0 : 0.5 : 1"
       sodipodi:type="inkscape:persp3d" />
    <inkscape:perspective
       id="perspective2876"
       inkscape:persp3d-origin="0.5 : 0.33333333 : 1"
       inkscape:vp_z="1 : 0.5 : 1"
       inkscape:vp_y="0 : 1000 : 0"
       inkscape:vp_x="0 : 0.5 : 1"
       sodipodi:type="inkscape:persp3d" />
    <inkscape:perspective
       id="perspective2825"
       inkscape:persp3d-origin="0.5 : 0.33333333 : 1"
       inkscape:vp_z="1 : 0.5 : 1"
       inkscape:vp_y="0 : 1000 : 0"
       inkscape:vp_x="0 : 0.5 : 1"
       sodipodi:type="inkscape:persp3d" />
  </defs>
  <desc
     id="desc4">flag of Albania</desc>
  <rect
     width="700"
     height="500"
     x="-731.44501"
     y="-345.40457"
     style="fill:none"
     id="rect6" />
  <rect
     style="fill:#990000;fill-opacity:1;fill-rule:evenodd;stroke:none"
     id="rect3839"
     width="700"
     height="500"
     x="0"
     y="0" />
  <path
     id="path3060"
     style="fill:#000000;stroke:none"
     d="m 331.69266,439.50249 c 0,0 -10.28117,4.4179 -16.79257,1.10447 20.21963,-16.199 15.42175,-39.39304 16.44987,-52.2786 -18.65004,10.30845 -19.24479,23.59521 -12.3374,36.44776 -9.59576,0 -17.48864,-6.08477 -20.56234,-18.40796 -7.53952,0 -20.90504,2.20895 -21.93316,16.199 -16.44987,-27.24378 11.82334,-40.68159 11.82334,-40.68159 0,0 -0.51405,-14.35821 7.36818,-23.74627 -1.54218,6.07463 4.45516,14.72637 12.85145,14.72637 14.56499,0 22.96128,-26.87563 22.96128,-29.8209 0,-2.94527 -1.19947,-7.73134 -4.62653,-7.73134 -3.42705,0 -4.45517,6.81094 -4.45517,6.81094 0,0 -1.02812,-4.97014 -3.76976,-4.97014 -2.74164,0 -5.99735,7.73134 -9.76711,9.75622 0.51406,-2.94528 -3.08435,-9.01991 -5.31194,-9.01991 -2.22758,0 -4.45517,7.91543 -8.22494,11.41294 0.17136,-2.76119 -3.07975,-5.55645 -3.07975,-5.55645 0,0 -9.45085,20.04525 -18.90169,23.16918 0.96932,-5.20654 1.45397,-8.59082 1.45397,-15.88 -5.8159,1.56197 -35.3801,1.30163 -35.3801,1.30163 0,0 7.75454,7.28919 7.75454,13.53706 0,6.24787 -0.96932,20.30557 -9.93551,27.59476 1.21166,-6.24788 -0.24232,-14.05771 -0.24232,-14.05771 0,0 -2.4233,-1.30161 -7.75456,-7.28918 -5.33123,-5.98752 -9.45084,-19.26426 -9.45084,-19.26426 0,0 -8.96619,13.79738 -11.63181,20.04524 -2.66562,6.24787 -6.5429,6.24787 -6.5429,6.24787 0,0 -2.4233,7.54951 -1.21164,10.93377 -2.42329,-1.56195 -5.33125,-1.56195 -5.33125,-7.02884 0,-5.46688 -1.91806,-2.55815 -3.87728,-10.41311 -1.95922,-7.85499 3.54705,-16.52901 3.54705,-16.52901 0,0 -6.51141,0.36816 -12.16605,-0.18409 -5.65464,-0.55223 -3.76976,-1.10447 -7.53952,2.20896 -1.37083,-14.72637 16.10716,-15.46268 23.98939,-15.83084 0.68541,-2.57712 -8.91035,-8.0995 -11.65199,-14.72637 27.41645,0 32.21433,4.78607 38.04032,11.41293 21.24775,-15.09452 39.5825,-3.12934 47.29338,-11.41293 0,-19.14428 17.82069,-28.71642 29.12997,-28.71642 11.30929,0 25.75499,6.16183 29.47269,8.46766 0,-9.94029 -5.82599,-33.50249 -5.82599,-33.50249 0,0 -3.42707,9.20398 -6.51141,9.20398 -3.08435,0 -4.79788,-12.5174 -4.79788,-12.5174 0,0 -9.59576,16.93532 -13.02281,16.93532 -3.42706,0 -0.68542,-14.35821 -2.74165,-31.66169 -3.42706,11.78108 -17.8207,47.86069 -27.07374,47.86069 -9.25306,0 7.88223,-25.03482 8.56764,-48.96517 -9.59576,20.98507 -33.92786,55.22388 -41.12468,48.96517 -7.19682,-6.2587 11.65199,-22.08955 14.05093,-55.59203 -13.02281,26.13929 -30.1581,43.07462 -40.43927,43.07462 -10.28116,0 3.08436,-18.40796 12.68012,-42.33831 -21.59046,19.14428 -40.09656,30.18906 -45.57986,24.29851 -11.99469,-12.88556 26.38834,-25.77114 36.66951,-68.10944 0,0 -6.85412,0.73632 -18.50611,0.73632 -11.65199,0 6.85412,-7.54727 20.56234,-18.59205 13.70823,-11.04477 16.83926,-29.77707 30.7732,-29.77707 13.93394,0 23.717,17.44374 33.31275,17.44374 9.59576,0 12.33741,15.46269 22.10452,15.46269 9.76711,0 14.73634,-7.36319 14.73634,-15.46269 0,-8.09951 -2.913,-11.59702 -2.913,-11.59702 0,0 -2.74165,4.04976 -10.45252,6.44279 1.02811,-2.76119 0.17135,-10.30846 0.17135,-18.59204 -22.10451,4.23383 -29.30133,2.02488 -35.98409,-5.89055 3.42706,0.18408 6.16871,-3.49751 12.50876,-10.49254 -6.34005,-2.20896 -20.21964,-2.20896 -25.70292,5.89054 -0.85676,-18.22387 8.73899,-22.08954 13.87957,-24.11442 5.14059,-2.02488 3.76977,-6.44279 15.07906,-6.44279 11.30927,0 25.19537,12.09917 33.07109,3.86568 0,7.54726 1.37081,9.20398 8.22492,14.91044 6.85412,5.70647 14.9077,4.97015 18.84882,5.43035 -5.91167,4.32587 -11.70584,6.48483 -11.70584,6.48483 0,0 7.63339,10.02263 15.79088,16.40066 8.15751,-6.37803 15.79089,-16.40066 15.79089,-16.40066 0,0 -5.79416,-2.15896 -11.70583,-6.48483 3.94111,-0.4602 11.99469,0.27612 18.84881,-5.43035 6.85411,-5.70646 8.22493,-7.36318 8.22493,-14.91044 7.8757,8.23349 21.7618,-3.86568 33.07109,-3.86568 11.30929,0 9.93846,4.41791 15.07905,6.44279 5.14058,2.02488 14.73634,5.89055 13.87957,24.11442 -5.48329,-8.0995 -19.36286,-8.0995 -25.70291,-5.89054 6.34005,6.99503 9.08169,10.67662 12.50875,10.49254 -6.68276,7.91543 -13.87958,10.12438 -35.98409,5.89055 0,8.28358 -0.85677,15.83085 0.17135,18.59204 -7.71088,-2.39303 -10.45251,-6.44279 -10.45251,-6.44279 0,0 -2.913,3.49751 -2.913,11.59702 0,8.0995 4.96923,15.46269 14.73634,15.46269 9.76711,0 12.50875,-15.46269 22.10451,-15.46269 9.59576,0 19.37881,-17.44374 33.31275,-17.44374 13.93394,0 17.06496,18.7323 30.7732,29.77707 13.70822,11.04478 32.21432,18.59205 20.56233,18.59205 -11.65199,0 -18.5061,-0.73632 -18.5061,-0.73632 10.28116,42.3383 48.66419,55.22388 36.6695,68.10945 -5.48329,5.89055 -23.98939,-5.15422 -45.57985,-24.29852 9.59575,23.93036 22.96127,42.33832 12.68011,42.33832 -10.28117,0 -27.41645,-16.93532 -40.43926,-43.07463 2.39894,33.50249 21.24775,49.33334 14.05092,55.59204 -7.19681,6.2587 -31.52891,-27.9801 -41.12466,-48.96518 0.68541,23.93036 17.82069,48.96518 8.56764,48.96518 -9.25306,0 -23.64669,-36.0796 -27.07375,-47.8607 -2.05623,17.30349 0.68542,31.6617 -2.74164,31.6617 -3.42705,0 -13.02281,-16.93532 -13.02281,-16.93532 0,0 -1.71353,12.51741 -4.79788,12.51741 -3.08435,0 -6.51141,-9.20398 -6.51141,-9.20398 0,0 -5.826,23.56219 -5.826,33.50247 3.71771,-2.30583 18.1634,-8.46764 29.47269,-8.46764 11.30928,0 29.12998,9.57212 29.12998,28.7164 7.71088,8.28359 26.04563,-3.68159 47.29336,11.41293 5.826,-6.62686 10.62388,-11.41293 38.04032,-11.41293 -2.74163,6.62687 -12.33739,12.14925 -11.65199,14.72637 7.88224,0.36816 25.36023,1.10447 23.98941,15.83084 -3.76976,-3.31343 -1.88488,-2.76119 -7.53954,-2.20896 -5.65463,0.55225 -12.16604,0.18409 -12.16604,0.18409 0,0 5.50627,8.67402 3.54704,16.52901 -1.95922,7.85496 -3.87727,4.94623 -3.87727,10.41311 0,5.46689 -2.90796,5.46689 -5.33125,7.02884 1.21165,-3.38426 -1.21165,-10.93377 -1.21165,-10.93377 0,0 -3.87728,0 -6.5429,-6.24787 -2.66562,-6.24786 -11.6318,-20.04523 -11.6318,-20.04523 0,0 -4.11962,13.27673 -9.45085,19.26425 -5.33126,5.98757 -7.75455,7.28918 -7.75455,7.28918 0,0 -1.45398,7.80983 -0.24233,14.05771 -8.96619,-7.28919 -9.93551,-21.34689 -9.93551,-27.59476 0,-6.24787 7.75456,-13.53706 7.75456,-13.53706 0,0 -29.5642,0.26034 -35.3801,-1.30163 0,7.28918 0.48465,10.67346 1.45397,15.88 -9.45085,-3.12393 -18.9017,-23.16918 -18.9017,-23.16918 0,0 -3.25111,2.79526 -3.07976,5.55645 -3.76976,-3.49751 -5.99734,-11.41294 -8.22493,-11.41294 -2.22759,0 -5.82599,6.07463 -5.31194,9.01991 -3.76976,-2.02488 -7.02546,-9.75622 -9.76711,-9.75622 -2.74165,0 -3.76976,4.97014 -3.76976,4.97014 0,0 -1.02812,-6.81094 -4.45517,-6.81094 -3.42706,0 -4.62653,4.78607 -4.62653,7.73134 0,2.94527 8.39629,29.8209 22.96128,29.8209 8.39628,0 14.39363,-8.65174 12.85146,-14.72637 7.88223,9.38806 7.36817,23.74627 7.36817,23.74627 0,0 28.27322,13.43781 11.82335,40.68159 -1.02812,-13.99005 -14.39364,-16.199 -21.93317,-16.199 -3.07369,12.32319 -10.96657,18.40796 -20.56233,18.40796 6.90738,-12.85255 6.31264,-26.13931 -12.33741,-36.44776 1.02812,12.88556 -3.76976,36.0796 16.44987,52.2786 -6.51141,3.31343 -16.79257,-1.10447 -16.79257,-1.10447 0,0 -0.63058,40.49751 -18.30734,40.49751 -17.67674,0 -18.30733,-40.49751 -18.30733,-40.49751 z"
     inkscape:connector-curvature="0"
     sodipodi:nodetypes="ccccccccssscscscccccsccscsccsscscccccsccscscscscscscssssssccccccsscscccccscssccccccsssssscscscscscscsccscccccscssccscsccscccccscscsssccccccccsc" />
  <path
     style="fill:#999999;fill-opacity:1"
     d="m 279.89543,115.02748 c -1.39075,0.12768 -2.63521,0.61455 -3.46329,1.51761 -2.1346,2.32789 -1.83205,3.61207 1.49649,6.25444 6.02818,4.78547 14.5422,4.35228 13.63942,-0.68983 -0.67726,-3.78248 -5.90245,-6.81727 -10.26164,-7.08222 -0.49536,-0.0302 -0.94739,-0.0426 -1.41098,0 z m 140.79817,0 c -4.35919,0.26495 -9.58438,3.29974 -10.26164,7.08222 -0.90278,5.04211 7.61124,5.4753 13.63942,0.68983 3.32853,-2.64237 3.63109,-3.92655 1.49649,-6.25444 -1.10409,-1.20408 -2.89283,-1.63806 -4.87427,-1.51761 z m -137.2921,4.13895 c 1.17988,0 2.13784,1.03036 2.13784,2.29943 0,1.26907 -0.95796,2.29942 -2.13784,2.29942 -1.17991,0 -2.13784,-1.03035 -2.13784,-2.29942 0,-1.26907 0.95793,-2.29943 2.13784,-2.29943 z m 135.19701,0 c 1.1799,0 2.13784,1.03036 2.13784,2.29943 0,1.26907 -0.95794,2.29942 -2.13784,2.29942 -1.17988,0 -2.13784,-1.03035 -2.13784,-2.29942 0,-1.26907 0.95796,-2.29943 2.13784,-2.29943 z m -119.59077,3.81706 c -0.38954,0.0242 -0.5986,0.54433 -0.5986,1.47163 0,1.96899 1.21882,4.09314 2.69367,4.73682 2.01801,0.8807 1.9085,1.74508 -0.51307,3.5871 -2.66487,2.02705 -2.41528,2.45412 1.582,2.48337 5.92436,0.0434 6.01545,-1.08848 0.55584,-8.55386 -1.85224,-2.53271 -3.07063,-3.76542 -3.71984,-3.72506 z m 103.98453,0 c -0.64921,-0.0404 -1.8676,1.19235 -3.71983,3.72506 -5.45961,7.46538 -5.36853,8.59723 0.55584,8.55386 3.99727,-0.0293 4.24686,-0.45632 1.58199,-2.48337 -2.42158,-1.84202 -2.53107,-2.7064 -0.51307,-3.5871 1.47485,-0.64368 2.69367,-2.76783 2.69367,-4.73682 0,-0.9273 -0.20906,-1.44743 -0.5986,-1.47163 z m -79.95522,14.3944 c -1.19215,0.0542 -2.60719,0.24004 -4.23292,0.50587 l -8.59412,1.37965 7.5252,0.36791 c 5.69815,0.2753 6.71776,0.92388 4.27568,2.62135 -2.35123,1.63433 -0.88256,2.14726 5.38736,1.97751 4.71956,-0.12779 6.95207,-0.67635 4.95979,-1.24169 -1.99226,-0.56535 -3.95091,-2.26275 -4.31844,-3.77107 -0.28132,-1.15458 -1.5557,-1.77988 -3.89086,-1.83953 -0.35029,-0.009 -0.7143,-0.018 -1.11169,0 z m 54.81422,0 c -2.33517,0.0597 -3.60955,0.68495 -3.89086,1.83953 -0.36753,1.50832 -2.32618,3.20572 -4.31844,3.77107 -1.99228,0.56534 0.24023,1.11391 4.95979,1.24169 6.26991,0.16975 7.73859,-0.34318 5.38735,-1.97751 -2.44207,-1.69747 -1.42246,-2.34605 4.27569,-2.62135 l 7.5252,-0.36791 -8.59412,-1.37965 c -2.16764,-0.35444 -3.94349,-0.54168 -5.34461,-0.50587 z m -59.94503,12.69282 c -1.05231,-0.0322 -1.84287,0.0966 -2.13784,0.41389 -0.58996,0.63455 1.08912,1.78944 3.71984,2.52938 4.49226,1.26354 4.55625,1.49913 0.98341,4.41489 -2.09231,1.70751 -2.84741,3.09509 -1.66752,3.03525 8.22358,-0.41701 10.28446,-7.68454 2.77919,-9.79555 -1.30161,-0.36612 -2.62478,-0.56568 -3.67708,-0.59786 z m 66.18754,0 c -1.05231,0.0322 -2.37548,0.23174 -3.67709,0.59786 -7.50527,2.11101 -5.44439,9.37854 2.77919,9.79555 1.1799,0.0599 0.42479,-1.32774 -1.66752,-3.03525 -3.57285,-2.91576 -3.50885,-3.15135 0.98341,-4.41489 2.63072,-0.73994 4.3098,-1.89483 3.71984,-2.52938 -0.29497,-0.31726 -1.08554,-0.44607 -2.13783,-0.41389 z m -70.46322,3.72507 c -1.06942,0 -1.42949,2.06071 -0.81238,4.59885 0.6171,2.53814 1.51448,4.59885 1.9668,4.59885 0.45234,0 0.8124,-2.06071 0.8124,-4.59885 0,-2.53814 -0.89739,-4.59885 -1.96682,-4.59885 z m 74.73889,0 c -1.06942,0 -1.96682,2.06071 -1.96682,4.59885 0,2.53814 0.36006,4.59885 0.81239,4.59885 0.45233,0 1.34971,-2.06071 1.9668,-4.59885 0.61712,-2.53814 0.25705,-4.59885 -0.81237,-4.59885 z m -51.47919,3.35717 c -0.6398,-0.0161 0.38842,1.03344 2.82195,2.75931 6.72558,4.76976 7.20094,7.00642 2.77919,13.79655 -1.72823,2.65381 -2.57128,5.4663 -1.8813,6.20845 0.69001,0.74213 0.57127,4.22454 -0.25654,7.77205 -1.37191,5.87933 -1.74029,6.10391 -4.23292,2.43739 -2.43166,-3.57691 -2.72517,-3.24222 -2.52265,2.89727 0.28946,8.77181 2.67334,8.76692 7.31141,0 2.00993,-3.79918 5.07126,-7.01896 6.84109,-7.1742 2.31305,-0.20288 2.1855,-0.62115 -0.51308,-1.37966 -4.0348,-1.13409 -5.15501,-8.73649 -1.62476,-11.08322 1.17989,-0.78434 2.13784,-3.42329 2.13784,-5.88653 0,-2.46324 1.47969,-4.50688 3.24951,-4.50688 1.76983,0 3.24952,2.04364 3.24952,4.50688 0,2.46324 0.95795,5.10219 2.13784,5.88653 3.53024,2.34673 2.41004,9.94913 -1.62476,11.08322 -2.69858,0.75851 -2.82613,1.17678 -0.51308,1.37966 1.76983,0.15524 4.83115,3.37502 6.84109,7.1742 4.63806,8.76692 7.02195,8.77181 7.31141,0 0.20252,-6.13949 -0.091,-6.47418 -2.52265,-2.89727 -2.49263,3.66652 -2.86101,3.44194 -4.23292,-2.43739 -0.82781,-3.54751 -0.94655,-7.02992 -0.25654,-7.77205 0.68998,-0.74215 -0.15307,-3.55464 -1.8813,-6.20845 -4.42176,-6.79013 -3.94638,-9.02679 2.77919,-13.79655 2.43353,-1.72587 3.46176,-2.77542 2.82195,-2.75931 -0.21326,0.005 -0.65,0.11732 -1.23995,0.36791 -2.28186,0.9692 -7.96073,1.78312 -12.8698,1.88552 -4.90906,-0.1024 -10.58793,-0.91632 -12.86979,-1.88552 -0.58995,-0.25059 -1.02668,-0.36247 -1.23995,-0.36791 z m -7.69623,3.5411 c -1.58696,0 -2.8647,1.46538 -2.8647,3.26519 0,1.79981 -0.66327,5.09658 -1.45373,7.31217 -0.97985,2.74647 -0.64224,3.48289 1.06891,2.34542 1.38041,-0.91762 2.52267,-3.65323 2.52267,-6.11647 0,-2.46324 0.91394,-4.50688 2.05232,-4.50688 2.80725,0 6.14917,7.42341 4.95979,10.99125 -1.39617,4.18809 1.44745,3.52229 2.95021,-0.68982 1.4331,-4.01686 -4.85746,-12.60086 -9.23547,-12.60086 z m 43.61195,0 c -4.37801,0 -10.66857,8.584 -9.23548,12.60086 1.50277,4.21211 4.3464,4.87791 2.95022,0.68982 -1.18938,-3.56784 2.15255,-10.99125 4.95979,-10.99125 1.13838,0 2.05232,2.04364 2.05232,4.50688 0,2.46324 1.14225,5.19885 2.52266,6.11647 1.71116,1.13747 2.04877,0.40105 1.06893,-2.34542 -0.79047,-2.21559 -1.45375,-5.51236 -1.45375,-7.31217 0,-1.79981 -1.27774,-3.26519 -2.86469,-3.26519 z m -110.05602,11.54312 c -9.30469,0 -10.67208,0.84787 -21.977,13.52063 -6.63381,7.43648 -14.31629,14.29385 -17.05996,15.22219 -2.74368,0.92836 -4.51143,2.18381 -3.93363,2.80531 0.57783,0.62147 3.05481,-0.009 5.51563,-1.42566 5.76055,-3.31595 5.78107,-0.43898 0,10.76132 -9.64202,18.68042 -13.76136,25.29253 -22.8749,36.97475 -5.19762,6.66262 -8.41755,12.14097 -7.14038,12.14097 3.68675,0 23.09381,-29.53678 31.85382,-48.47189 9.29847,-20.09902 25.16443,-39.22819 32.53793,-39.22819 4.66836,0 4.49676,0.61867 -3.33504,10.11748 -7.01094,8.50321 -18.984,27.32172 -21.97699,34.58335 -0.45714,1.10911 2.68821,1.59532 6.96935,1.05774 7.01161,-0.88044 7.64241,-0.53502 6.49904,3.72506 -3.15896,11.76989 -14.3228,34.68354 -21.46391,44.057 -9.76678,12.81996 -8.34616,13.4934 2.13784,1.01174 7.79463,-9.27985 18.7407,-31.00638 21.42115,-42.49338 0.78108,-3.34726 2.37472,-5.4713 3.54883,-4.69083 1.17407,0.7805 4.87428,0.78786 8.2093,0 4.61091,-1.08927 7.24019,-4.09139 10.94574,-12.60085 4.69006,-10.77035 9.13103,-14.91408 18.29991,-17.06174 3.21169,-0.75228 2.83913,-1.08732 -1.45373,-1.28767 -6.13056,-0.28613 -18.94126,9.60344 -18.94126,14.62434 0,4.46228 -8.46301,15.13021 -12.01467,15.13021 -6.01482,0 -5.5447,-7.02325 1.23995,-18.3954 5.56221,-9.32306 8.7007,-12.11272 16.84618,-14.94626 9.80131,-3.40955 9.84217,-3.43409 1.71027,-2.20745 -10.87605,1.64061 -15.13055,4.6711 -20.35223,14.62435 -6.25186,11.91692 -12.69912,18.57935 -17.95786,18.57935 -4.49116,0 -4.4473,-0.16236 0.94065,-6.34641 3.04066,-3.48994 7.5777,-10.74983 10.09061,-16.14196 2.59016,-5.55794 8.28569,-12.42052 13.12634,-15.86603 4.69627,-3.34275 8.5086,-6.47839 8.5086,-6.94427 0,-0.46589 -4.45951,-0.8278 -9.91958,-0.8278 z m 176.50009,0 c -5.46007,0 -9.91959,0.36191 -9.91959,0.8278 0,0.46588 3.81234,3.60152 8.50861,6.94427 4.84065,3.44551 10.53618,10.30809 13.12634,15.86603 2.51291,5.39213 7.04995,12.65202 10.0906,16.14196 5.38795,6.18405 5.43181,6.34641 0.94065,6.34641 -5.25872,0 -11.706,-6.66243 -17.95785,-18.57935 -5.22168,-9.95325 -9.47618,-12.98374 -20.35223,-14.62435 -8.1319,-1.22664 -8.09104,-1.2021 1.71026,2.20745 8.14549,2.83354 11.28398,5.6232 16.84619,14.94626 6.78464,11.37215 7.25477,18.3954 1.23995,18.3954 -3.55167,0 -12.01467,-10.66793 -12.01467,-15.13021 0,-5.0209 -12.8107,-14.91047 -18.94126,-14.62434 -4.29286,0.20035 -4.66542,0.53539 -1.45373,1.28767 9.16888,2.14766 13.60985,6.29139 18.29991,17.06174 3.70555,8.50946 6.33483,11.51158 10.94573,12.60085 3.33502,0.78786 7.03524,0.7805 8.20931,0 1.1741,-0.78047 2.76777,1.34357 3.54882,4.69083 2.68046,11.487 13.62652,33.21353 21.42115,42.49338 10.484,12.48166 11.90464,11.80822 2.13785,-1.01174 -7.14112,-9.37346 -18.30496,-32.28711 -21.46391,-44.057 -1.14338,-4.26008 -0.51256,-4.6055 6.49903,-3.72506 4.28115,0.53758 7.42649,0.0514 6.96936,-1.05774 -2.993,-7.26163 -14.96604,-26.08014 -21.977,-34.58335 -7.83179,-9.49881 -8.00339,-10.11748 -3.33503,-10.11748 7.37351,0 23.23946,19.12917 32.53792,39.22819 8.76001,18.93511 28.16708,48.47189 31.85382,48.47189 1.27717,0 -1.94276,-5.47835 -7.14038,-12.14097 -9.11354,-11.68222 -13.23288,-18.29433 -22.8749,-36.97475 -5.78107,-11.2003 -5.76054,-14.07727 0,-10.76132 2.46083,1.41654 4.9378,2.04713 5.51563,1.42566 0.5778,-0.6215 -1.18995,-1.87695 -3.93363,-2.80531 -2.74366,-0.92834 -10.42614,-7.78571 -17.05996,-15.22219 -11.30491,-12.67276 -12.67231,-13.52063 -21.97699,-13.52063 z m -106.89201,6.48438 c -0.77661,0.1046 -2.60042,1.55525 -4.70326,3.81705 -3.56559,3.83512 -4.78604,7.23873 -4.06188,11.31318 0.66342,3.73293 -0.6755,8.41618 -3.71985,13.01474 -4.09874,6.19121 -4.52903,8.89813 -3.24952,19.91303 1.34589,11.58643 1.08899,12.69473 -2.4799,11.957 -3.11728,-0.64436 -4.27406,-3.90879 -5.55837,-15.77405 -0.89113,-8.23252 -1.10082,-17.18993 -0.51309,-19.91302 0.68401,-3.16914 -0.1466,-5.45397 -2.30886,-6.34642 -4.81392,-1.98687 -6.75414,-1.64718 -3.4633,0.59785 4.36077,2.97493 5.60707,35.88077 1.49649,39.55011 -2.56917,2.29334 -3.91871,2.2799 -6.62731,-0.13796 -2.54256,-2.2696 -3.18112,-6.35383 -2.65092,-16.27993 0.89395,-16.7367 -0.80703,-15.17443 -3.59158,3.31117 -1.5207,10.09544 -3.1063,14.25643 -5.38735,14.25643 -4.76405,0 -5.3663,-16.31115 -0.98341,-26.7653 2.3863,-5.69181 5.55299,-9.18667 9.27823,-10.25544 3.10702,-0.89159 4.5307,-2.06097 3.12124,-2.62135 -5.21832,-2.0747 -11.70956,4.49908 -16.93169,17.19971 -6.28313,15.28112 -9.96635,18.76906 -11.9719,11.40514 -1.0706,-3.9309 -1.41789,-3.15046 -1.58201,3.40316 -0.27654,11.04463 -5.57245,32.74952 -10.6892,43.87304 -2.21102,4.80667 -3.10163,8.73782 -2.00957,8.73782 2.6835,0 7.18872,-12.11856 11.67261,-31.31818 2.24701,-9.62157 5.47777,-17.42098 8.16655,-19.77506 4.27502,-3.74285 4.50555,-3.63876 6.11422,2.85129 0.97045,3.91518 3.12248,6.71432 5.13081,6.71432 2.89169,0 3.26667,2.00715 2.26612,12.14096 -0.65784,6.66262 -1.77496,14.15569 -2.47989,16.69384 -0.70491,2.53815 0.10412,1.50778 1.83854,-2.29943 1.7344,-3.80721 3.19629,-12.17425 3.24951,-18.62535 0.11113,-13.47241 1.45215,-16.00571 5.9432,-11.17521 1.80703,1.94353 4.96524,2.80983 7.26866,2.0235 3.62878,-1.23881 4.06189,-0.0892 4.06189,10.48537 0,6.5143 -1.00194,13.82521 -2.22335,16.27994 -1.27774,2.56793 -1.35946,4.4609 -0.21379,4.4609 3.15484,0 4.57499,-6.26312 4.57499,-20.05101 0,-10.57796 0.5127,-12.33931 2.95021,-10.16345 1.62029,1.4463 4.5008,2.01351 6.37076,1.24168 4.6945,-1.93759 7.10098,9.27795 3.93363,18.30343 -1.33935,3.817 -1.99016,7.37905 -1.45373,7.95602 0.53643,0.57693 1.97431,-1.80204 3.20677,-5.28869 1.76221,-4.98533 2.84201,-5.76815 5.13081,-3.72507 1.60075,1.42892 4.57112,1.93476 6.58454,1.10373 3.01138,-1.24289 3.53205,-0.33018 2.95022,5.15072 -0.40441,3.80974 -1.84449,6.40033 -3.37778,6.07048 -1.47485,-0.31726 -2.69368,0.57265 -2.69368,1.97751 0,1.40492 1.43693,1.97217 3.20676,1.24169 2.48303,-1.02484 3.24952,0.52189 3.24952,6.76031 0,7.5897 -0.3002,7.92145 -4.83152,5.56461 -3.80362,-1.97838 -3.55798,-1.34812 1.23994,3.03524 6.90122,6.30493 7.47956,16.8381 0.8979,16.27991 -2.05154,-0.17397 -3.13373,0.67322 -2.43714,1.88553 0.69661,1.21235 2.75827,1.62364 4.57497,0.87378 1.81672,-0.74944 5.0751,-0.74878 7.26867,0 3.70612,1.26522 4.01914,4.50009 4.01914,45.89653 0,43.21672 -0.18929,44.86097 -5.38737,54.86429 -2.94704,5.67134 -7.30057,12.1868 -9.66303,14.48638 -2.3625,2.29964 -4.27568,5.16463 -4.27568,6.3924 0,3.8214 6.8868,-3.63874 13.16909,-14.25645 l 6.02871,-10.11746 0.64135,32.05399 L 351,465 l 0.55585,-26.0295 0.64135,-32.05399 6.0287,10.11746 c 6.2823,10.61771 13.1691,18.07785 13.1691,14.25645 0,-1.22777 -1.91318,-4.09276 -4.27568,-6.3924 -2.36246,-2.29958 -6.716,-8.81504 -9.66303,-14.48638 -5.19807,-10.00332 -5.38736,-11.64757 -5.38736,-54.86429 0,-41.39645 0.31301,-44.63131 4.01913,-45.89653 2.19357,-0.7488 5.45196,-0.74946 7.26867,0 1.8167,0.74986 3.87835,0.33855 4.57497,-0.87378 0.69659,-1.21231 -0.3856,-2.0595 -2.43713,-1.88553 -6.58167,0.55819 -6.00332,-9.97498 0.89788,-16.27991 4.79793,-4.38336 5.04357,-5.01362 1.23995,-3.03524 -4.53132,2.35684 -4.83152,2.02509 -4.83152,-5.56461 0,-6.23842 0.7665,-7.78515 3.24952,-6.76031 1.76983,0.73048 3.20676,0.16323 3.20676,-1.24169 0,-1.40486 -1.21883,-2.29477 -2.69368,-1.97751 -1.53329,0.32985 -2.97337,-2.26074 -3.37778,-6.07048 -0.58182,-5.48089 -0.0613,-6.39361 2.95022,-5.15072 2.01342,0.83103 4.98379,0.32519 6.58454,-1.10373 2.28879,-2.04308 3.36859,-1.26026 5.13081,3.72507 1.23246,3.48663 2.67034,5.86562 3.20677,5.28869 0.53643,-0.57697 -0.11434,-4.13902 -1.45372,-7.95602 -3.16735,-9.02548 -0.76088,-20.24102 3.93362,-18.30343 1.86997,0.77183 4.75046,0.20462 6.37076,-1.24168 2.43751,-2.17586 2.95021,-0.41451 2.95021,10.16345 0,13.78788 1.42015,20.05101 4.57498,20.05101 1.14568,0 1.06396,-1.89297 -0.21378,-4.4609 -1.2214,-2.45472 -2.22336,-9.76564 -2.22336,-16.27994 0,-10.57456 0.43312,-11.72418 4.0619,-10.48537 2.30343,0.78633 5.46163,-0.08 7.26866,-2.0235 4.49105,-4.8305 5.83206,-2.2972 5.94319,11.17521 0.0532,6.4511 1.51513,14.81814 3.24952,18.62535 1.73442,3.80721 2.54345,4.83758 1.83854,2.29943 -0.70494,-2.53815 -1.82205,-10.03122 -2.47989,-16.69384 -1.00055,-10.13381 -0.62557,-12.14096 2.26611,-12.14096 2.00834,0 4.16037,-2.79914 5.13082,-6.71432 1.60867,-6.49005 1.8392,-6.59414 6.11422,-2.85129 2.68878,2.35408 5.91954,10.15349 8.16655,19.77506 4.48389,19.19961 8.98911,31.31818 11.6726,31.31818 1.09208,0 0.20145,-3.93115 -2.00957,-8.73782 -5.11674,-11.1235 -10.41265,-32.82841 -10.6892,-43.87304 -0.16411,-6.55362 -0.51141,-7.33406 -1.582,-3.40316 -2.00555,7.36392 -5.68877,3.87598 -11.9719,-11.40514 -5.22213,-12.70063 -11.71337,-19.27441 -16.9317,-17.19971 -1.40945,0.56038 0.0143,1.72976 3.12125,2.62135 3.72523,1.06877 6.89194,4.56363 9.27823,10.25544 4.38289,10.45415 3.78064,26.7653 -0.98341,26.7653 -2.28105,0 -3.86665,-4.16099 -5.38735,-14.25643 -2.78454,-18.4856 -4.48553,-20.04787 -3.59158,-3.31117 0.5302,9.9261 -0.10836,14.01033 -2.65092,16.27993 -2.7086,2.41786 -4.05814,2.4313 -6.6273,0.13796 -4.1106,-3.66934 -2.86429,-36.57518 1.49648,-39.55011 3.29084,-2.24503 1.35062,-2.58472 -3.4633,-0.59785 -2.16226,0.89245 -2.99287,3.17728 -2.30886,6.34642 0.58772,2.72309 0.37804,11.6805 -0.51309,19.91302 -1.28431,11.86526 -2.44109,15.12969 -5.55837,15.77405 -3.56889,0.73773 -3.82579,-0.37057 -2.4799,-11.957 1.27951,-11.0149 0.84922,-13.72182 -3.24952,-19.91303 -3.04435,-4.59856 -4.38327,-9.28181 -3.71985,-13.01474 0.72416,-4.07445 -0.49629,-7.47806 -4.06188,-11.31318 -2.10284,-2.2618 -3.92665,-3.71245 -4.70326,-3.81705 -0.25887,-0.0349 -0.38481,0.0877 -0.38481,0.3679 0,1.12075 1.43693,3.61503 3.20677,5.51864 1.76983,1.90359 3.20674,6.67409 3.20674,10.62334 0,3.94924 2.06555,10.19182 4.57499,13.84254 3.56368,5.18446 4.24748,8.4432 3.12124,14.90027 -1.73272,9.93436 -3.17516,10.19589 -10.90297,1.93153 -9.67448,-10.34623 -12.41126,-16.1386 -10.94575,-23.08624 1.26982,-6.01988 1.17363,-6.09268 -1.8813,-1.88553 -3.47211,4.78169 -3.48583,4.75587 -7.39693,-2.16146 -0.54328,-0.96086 -0.92278,-1.60786 -1.23995,-2.11547 -0.31716,0.50761 -0.69666,1.15461 -1.23994,2.11547 -3.9111,6.91733 -3.92482,6.94315 -7.39694,2.16146 -3.05492,-4.20715 -3.15111,-4.13435 -1.88129,1.88553 1.46551,6.94764 -1.27126,12.74001 -10.94574,23.08624 -7.72782,8.26436 -9.17026,8.00283 -10.90299,-1.93153 -1.12623,-6.45707 -0.44243,-9.71581 3.12125,-14.90027 2.50943,-3.65072 4.57498,-9.8933 4.57498,-13.84254 0,-3.94925 1.43692,-8.71975 3.20676,-10.62334 1.76983,-1.90361 3.20676,-4.39789 3.20676,-5.51864 0,-0.28017 -0.12595,-0.40276 -0.38481,-0.3679 z m -40.53346,7.63409 c -0.74525,-0.0331 -1.62007,0.12662 -2.39437,0.45989 -1.71135,0.73659 -1.17365,1.26894 1.32546,1.37966 2.26144,0.10018 3.49203,-0.42897 2.77919,-1.1957 -0.35642,-0.38338 -0.96503,-0.61082 -1.71028,-0.64385 z m 118.35085,0 c -0.74526,0.0331 -1.35386,0.26047 -1.71028,0.64385 -0.71284,0.76673 0.51775,1.29588 2.77919,1.1957 2.49912,-0.11072 3.0368,-0.64307 1.32546,-1.37966 -0.77431,-0.33327 -1.64912,-0.4929 -2.39437,-0.45989 z m -99.83714,4.32292 c -0.52032,0 -1.5369,1.07634 -2.26612,2.34541 -0.72922,1.26909 -0.30888,2.29943 0.94065,2.29943 1.24952,0 2.26612,-1.03034 2.26612,-2.29943 0,-1.26907 -0.42035,-2.34541 -0.94065,-2.34541 z m 81.32343,0 c -0.5203,0 -0.94065,1.07634 -0.94065,2.34541 0,1.26909 1.01659,2.29943 2.26612,2.29943 1.24952,0 1.66987,-1.03034 0.94065,-2.29943 -0.72922,-1.26907 -1.74581,-2.34541 -2.26612,-2.34541 z M 351,199.37039 c 0.0552,0.21991 0.0672,0.31052 0.12828,0.55186 0.8041,3.17268 2.15495,10.94633 3.03573,17.29169 1.55791,11.22353 3.36781,7.03824 2.47989,-5.74857 -0.33531,-4.8285 0.47147,-4.18092 4.87428,3.95501 2.89296,5.3459 5.87843,11.81057 6.62731,14.34842 1.83813,6.22923 -2.38258,13.9805 -7.56796,13.9805 -5.90928,0 -5.24527,-4.17588 1.15443,-7.31217 2.94972,-1.44559 5.38736,-3.55021 5.38736,-4.64484 0,-1.09462 -2.43764,-0.28528 -5.38736,1.79355 -4.87028,3.43234 -6.31598,2.938 -5.60114,-1.93152 0.13966,-0.95181 -0.83003,-1.74756 -2.13784,-1.74756 -1.44919,0 -1.86916,2.22712 -1.06892,5.65658 0.7222,3.09492 0.46198,6.19326 -0.59859,6.89828 -0.50977,0.33887 -0.94527,0.43845 -1.32547,0.32192 -0.38019,0.11653 -0.81569,0.0169 -1.32545,-0.32192 -1.06058,-0.70502 -1.3208,-3.80336 -0.5986,-6.89828 0.80024,-3.42946 0.38027,-5.65658 -1.06892,-5.65658 -1.30781,0 -2.27749,0.79575 -2.13784,1.74756 0.71484,4.86952 -0.73086,5.36386 -5.60114,1.93152 -2.94973,-2.07883 -5.38736,-2.88817 -5.38736,-1.79355 0,1.09463 2.43763,3.19925 5.38736,4.64484 6.39971,3.13629 7.06371,7.31217 1.15443,7.31217 -5.18539,0 -9.4061,-7.75127 -7.56796,-13.9805 0.74888,-2.53785 3.73435,-9.00252 6.62731,-14.34842 4.40281,-8.13593 5.20959,-8.78351 4.87428,-3.95501 -0.88792,12.78681 0.92198,16.9721 2.47989,5.74857 0.88079,-6.34536 2.23163,-14.11901 3.03573,-17.29169 0.0611,-0.24134 0.0731,-0.33195 0.12827,-0.55186 z m -22.57559,31.5941 c 0.21137,-0.0551 0.39265,-0.0405 0.55584,0 0.65276,0.16168 0.96383,1.11843 1.2827,2.89729 0.40952,2.28447 1.62833,5.14079 2.69369,6.34641 2.23731,2.53183 2.61319,15.90662 0.51307,18.16546 -1.8449,1.98436 -5.81784,-4.45533 -9.02168,-14.57836 -2.21961,-7.01321 -2.08864,-8.45116 1.23995,-11.08323 1.2277,-0.97081 2.10234,-1.58218 2.73643,-1.74757 z m 44.59535,0 c 0.65275,-0.16167 1.65534,0.45315 3.29227,1.74757 3.32859,2.63207 3.45956,4.07002 1.23994,11.08323 -3.20384,10.12303 -7.17675,16.56272 -9.02167,14.57836 -2.10012,-2.25884 -1.72424,-15.63363 0.51307,-18.16546 1.06535,-1.20562 2.28417,-4.06194 2.69368,-6.34641 0.31888,-1.77886 0.62995,-2.73561 1.28271,-2.89729 z m -31.68279,15.13022 c 2.35977,0 4.30229,1.26496 4.31843,2.85129 0.0162,1.58633 0.61403,5.23857 1.32546,8.09397 1.87601,7.52948 -5.17909,6.86897 -7.86725,-0.73581 -3.0046,-8.5 -2.60729,-10.20945 2.22336,-10.20945 z m 8.33758,0 c 0.44525,0 0.90605,0.55492 1.32545,1.47163 0.41942,-0.91671 0.88021,-1.47163 1.32547,-1.47163 1.04596,0 1.83596,1.78014 1.75303,4.001 -0.15637,4.18731 -1.70742,9.13186 -3.0785,10.76132 -1.37107,-1.62946 -2.92212,-6.57401 -3.07849,-10.76132 -0.0829,-2.22086 0.70707,-4.001 1.75304,-4.001 z m 10.98848,0 c 4.83066,0 5.22797,1.70945 2.22337,10.20945 -2.68815,7.60478 -9.74326,8.26529 -7.86725,0.73581 0.71143,-2.8554 1.30936,-6.50764 1.32546,-8.09397 0.0162,-1.58633 1.95866,-2.85129 4.31842,-2.85129 z m -15.17866,18.4414 c 3.68942,0 4.14742,1.69174 4.14742,15.13022 0,12.65627 -0.54284,15.04085 -3.42055,14.44039 -4.73677,-0.98835 -5.67332,-5.30301 -2.00957,-9.24369 2.59988,-2.79649 2.60391,-3.92968 0.0854,-7.63409 -4.32867,-6.36726 -3.73342,-12.69283 1.19718,-12.69283 z m 11.03127,0 c 4.9306,0 5.52585,6.32557 1.19718,12.69283 -2.51839,3.70441 -2.51436,4.8376 0.0854,7.63409 3.66375,3.94068 2.7272,8.25534 -2.00958,9.24369 -2.8777,0.60046 -3.42053,-1.78412 -3.42053,-14.44039 0,-13.43848 0.45799,-15.13022 4.14741,-15.13022 z m -74.05479,11.54312 c -0.5203,0 -1.53689,1.03036 -2.26612,2.29943 -0.72921,1.26907 -0.30887,2.29942 0.94065,2.29942 1.24953,0 2.26612,-1.03035 2.26612,-2.29942 0,-1.26907 -0.42035,-2.29943 -0.94065,-2.29943 z m 137.07831,0 c -0.52031,0 -0.94065,1.03036 -0.94065,2.29943 0,1.26907 1.01659,2.29942 2.26612,2.29942 1.24952,0 1.66987,-1.03035 0.94065,-2.29942 -0.72922,-1.26907 -1.74582,-2.29943 -2.26612,-2.29943 z m -72.98586,20.74081 c 2.19035,0 3.37779,2.1009 3.37779,5.97851 0,7.22842 -5.06089,6.42135 -6.07147,-0.96575 -0.45525,-3.32776 0.4576,-5.01276 2.69368,-5.01276 z m 8.89342,0 c 2.23607,0 3.14892,1.685 2.69367,5.01276 -1.01058,7.38711 -6.07146,8.19417 -6.07146,0.96575 0,-3.87761 1.18743,-5.97851 3.37779,-5.97851 z m -35.01783,18.48738 c -0.21755,0 -0.17972,1.14175 -0.12827,3.44913 0.0567,2.53813 0.80958,7.7359 1.71027,11.54311 l 1.66752,6.89828 0.0854,-6.89828 c 0.0567,-3.80721 -0.73898,-9.00498 -1.75303,-11.54311 -0.92181,-2.30738 -1.36442,-3.44913 -1.582,-3.44913 z m 61.14223,0 c -0.21759,0 -0.66019,1.14175 -1.58201,3.44913 -1.01404,2.53813 -1.8097,7.7359 -1.75302,11.54311 l 0.0854,6.89828 1.66751,-6.89828 c 0.90069,-3.80721 1.6536,-9.00498 1.71028,-11.54311 0.0515,-2.30738 0.0893,-3.44913 -0.12827,-3.44913 z m -73.66997,2.62134 c -0.5561,0.1192 -0.47698,3.33034 0.25654,7.77205 0.83827,5.07633 2.22554,10.07538 3.12125,11.12921 0.89618,1.05388 0.93168,-2.35943 0.0428,-7.58809 -0.88895,-5.22865 -2.31894,-10.27369 -3.164,-11.17522 -0.1057,-0.11257 -0.17705,-0.15501 -0.25655,-0.13788 z m 86.06944,0 c -0.041,0.0225 -0.0754,0.0817 -0.12827,0.13788 -0.84506,0.90153 -2.27506,5.94656 -3.16401,11.17521 -0.88892,5.22867 -0.85349,8.64199 0.0428,7.5881 0.89571,-1.05385 2.28298,-6.0529 3.12125,-11.12921 0.73352,-4.44173 0.81264,-7.6528 0.25654,-7.77205 -0.0397,-0.009 -0.0873,-0.0226 -0.12826,0 z m -96.63038,7.12821 c -0.1317,-0.0661 -0.26777,0.30341 -0.42756,1.1957 -0.51135,2.85545 -0.51135,7.538 0,10.39341 0.51131,2.85543 0.94065,0.51412 0.94065,-5.1967 0,-3.92618 -0.22334,-6.24671 -0.51309,-6.39241 z m 107.31958,0 c -0.28974,0.1457 -0.51308,2.46623 -0.51308,6.39241 0,5.71082 0.42933,8.05212 0.94065,5.1967 0.51135,-2.85541 0.51135,-7.53797 0,-10.39341 -0.15979,-0.89229 -0.29586,-1.26191 -0.42757,-1.1957 z m -119.97559,2.66734 c -0.44243,0.1164 -0.52445,0.82101 -0.12827,1.93151 0.60031,1.68257 -0.2886,7.98274 -1.9668,13.98051 -3.13773,11.21389 -2.94312,13.96309 0.47032,6.85229 3.31507,-6.90592 4.90264,-20.88871 2.5654,-22.4424 -0.30236,-0.20094 -0.52034,-0.30262 -0.72686,-0.32191 -0.0774,-0.007 -0.15058,-0.0166 -0.21379,0 z m 132.41783,0 c -0.20653,0.0192 -0.42451,0.12097 -0.72687,0.32191 -2.33724,1.55369 -0.74968,15.53648 2.5654,22.4424 3.41345,7.1108 3.60805,4.3616 0.47033,-6.85229 -1.67822,-5.99777 -2.56712,-12.29794 -1.96681,-13.98051 0.45279,-1.26915 0.27751,-1.98955 -0.34205,-1.93151 z m -69.47982,28.60484 c -0.71594,-0.0677 -3.80339,2.88615 -7.48243,7.26618 -14.2005,16.90629 -37.53167,24.43591 -41.64513,13.42865 -1.40571,-3.76152 -1.99656,-4.11463 -2.09509,-1.28767 -0.0747,2.14599 0.82967,4.55034 2.00958,5.33466 3.70954,2.4659 2.36877,5.62326 -3.03574,7.08223 -2.86291,0.77288 -6.89663,3.37055 -8.93616,5.79455 -5.06247,6.01673 -2.6005,5.55783 6.84109,-1.33367 4.34664,-3.17268 8.61073,-5.79455 9.492,-5.79455 0.88127,0 2.23953,4.68259 3.03573,10.3934 0.79621,5.71084 2.3098,10.39341 3.33504,10.39341 1.02825,0 0.97246,-3.36802 -0.12828,-7.49612 -3.1124,-11.6726 -2.54308,-15.59011 2.35163,-15.59011 9.92883,0 36.38604,-20.37002 36.38604,-28.007 0,-0.13922 -0.026,-0.17363 -0.12828,-0.18396 z m 6.75558,0 c -0.10227,0.0103 -0.12827,0.0448 -0.12827,0.18396 0,7.63698 26.4572,28.007 36.38605,28.007 4.89469,0 5.46403,3.91751 2.35162,15.59011 -1.10074,4.1281 -1.15646,7.49612 -0.12828,7.49612 1.02523,0 2.53883,-4.68257 3.33504,-10.39341 0.7962,-5.71081 2.15446,-10.3934 3.03572,-10.3934 0.88128,0 5.14537,2.62187 9.49201,5.79455 9.44159,6.8915 11.90356,7.3504 6.8411,1.33367 -2.03953,-2.424 -6.07326,-5.02167 -8.93618,-5.79455 -5.4045,-1.45897 -6.74526,-4.61633 -3.03573,-7.08223 1.1799,-0.78432 2.08437,-3.18867 2.00957,-5.33466 -0.0985,-2.82696 -0.68937,-2.47386 -2.09507,1.28767 -4.11347,11.00726 -27.44464,3.47764 -41.64513,-13.42865 -3.67904,-4.38004 -6.7665,-7.33392 -7.48245,-7.26618 z"
     id="path3000" />
  <path
     sodipodi:type="star"
     style="fill:#ffffff;fill-opacity:1;fill-rule:evenodd;stroke:none"
     id="path2998"
     sodipodi:sides="6"
     sodipodi:cx="256.35501"
     sodipodi:cy="34.591713"
     sodipodi:r1="24.748737"
     sodipodi:r2="14.305627"
     sodipodi:arg1="-1.5707963"
     sodipodi:arg2="-1.0471975"
     inkscape:flatsided="false"
     inkscape:rounded="0"
     inkscape:randomized="0"
     d="m 256.35501,9.8429756 7.15282,12.3597014 14.28022,0.01467 -7.12741,12.374369 7.12741,12.374368 -14.28023,0.01467 -7.15281,12.3597 -7.15281,-12.359701 -14.28022,-0.01467 7.1274,-12.374369 -7.1274,-12.374368 14.28022,-0.01467 7.15281,-12.3597004 z"
     transform="matrix(1.3997084,0,0,1.4142136,-8.8222623,11.079928)"
     inkscape:transform-center-y="-3.1837405" />
</svg>
