<?xml version="1.0" encoding="UTF-8" standalone="no"?>
<svg
   xmlns:dc="http://purl.org/dc/elements/1.1/"
   xmlns:cc="http://creativecommons.org/ns#"
   xmlns:rdf="http://www.w3.org/1999/02/22-rdf-syntax-ns#"
   xmlns:svg="http://www.w3.org/2000/svg"
   xmlns="http://www.w3.org/2000/svg"
   xmlns:sodipodi="http://sodipodi.sourceforge.net/DTD/sodipodi-0.dtd"
   xmlns:inkscape="http://www.inkscape.org/namespaces/inkscape"
   version="1.0"
   width="900"
   height="600"
   id="Flag_of_the_Holy_Roman_Empire_between_1200_and_1350"
   inkscape:version="0.48.2 r9819"
   sodipodi:docname="Flag of Libya (1972–1977).svg">
  <metadata
     id="metadata10">
    <rdf:RDF>
      <cc:Work
         rdf:about="">
        <dc:format>image/svg+xml</dc:format>
        <dc:type
           rdf:resource="http://purl.org/dc/dcmitype/StillImage" />
      </cc:Work>
    </rdf:RDF>
  </metadata>
  <defs
     id="defs8">
    <clipPath
       id="id0-4">
      <path
         d="m 6270380,1184790 c -66510,-76010 -101350,-126680 -148860,-212190 -69670,-133020 -240700,-41180 -380050,-50680 22170,-6330 41170,6340 41170,22170 0,91850 50680,202700 158360,218530 98180,12670 190030,-22170 285040,-15830 15830,0 28500,22170 44340,38000 z"
         id="path7-8" />
    </clipPath>
    <inkscape:path-effect
       effect="bend_path"
       id="path-effect3044-8"
       is_visible="true"
       bendpath="m 47.862947,190.38951 c 30.142007,8.59515 57.401783,11.32025 99.822163,0"
       prop_scale="1"
       scale_y_rel="false"
       vertical="false"
       bendpath-nodetypes="cc" />
  </defs>
  <sodipodi:namedview
     pagecolor="#ffffff"
     bordercolor="#666666"
     borderopacity="1"
     objecttolerance="10"
     gridtolerance="10"
     guidetolerance="10"
     inkscape:pageopacity="0"
     inkscape:pageshadow="2"
     inkscape:window-width="917"
     inkscape:window-height="761"
     id="namedview6"
     showgrid="false"
     inkscape:zoom="0.65"
     inkscape:cx="450"
     inkscape:cy="300"
     inkscape:window-x="172"
     inkscape:window-y="103"
     inkscape:window-maximized="0"
     inkscape:current-layer="Flag_of_the_Holy_Roman_Empire_between_1200_and_1350">
    <inkscape:grid
       type="xygrid"
       id="grid2904" />
  </sodipodi:namedview>
  <rect
     id="rect2836"
     width="900"
     height="200"
     x="0"
     y="200"
     style="fill:#ffffff" />
  <rect
     id="rect2838"
     width="900"
     height="200"
     x="0"
     y="0"
     style="fill:#ce1126" />
  <rect
     id="rect2840"
     y="400"
     width="900"
     height="200"
     x="0"
     style="fill:#000000" />
  <g
     style="fill-rule:evenodd"
     transform="matrix(-1.4428845e-5,0,0,1.5821469e-5,543.7875,196.75375)"
     id="g4314">
    <g
       id="g3842">
      <path
         inkscape:connector-curvature="0"
         style="fill:#009e60"
         id="path11"
         d="M 6479466.7,11553887 C 4350898.8,11533397 2904485,10312767 2904485,10312767 c -22107,81962 -461084.7,386386 -461084.7,386386 0,0 -44214,172703 -284229.2,81961 -322121,-120012 -438977.7,-649831 -438977.7,-649831 0,61472 -527405.5,263446 -527405.5,263446 22107,-181484 22107,-304426 0,-506400 -22106.9,-204902 -41052.8,-184412 416870.9,-632270 461084.7,-447856.2 527405.4,-20490 571619.2,-81961 0,0 44213.9,-58540 195801.5,-181482.4 154748.6,-122941.9 593726.3,-509328.1 900062.4,-201973.2 1367459,1355281.6 2829667.8,1402112.6 3202324.8,1402112.6 372656.8,0 1831704.7,-46831 3199163.7,-1402112.6 306336.2,-307354.9 745314.6,79031.3 900063.6,201973.2 151587,122942.4 195800,181482.4 195800,181482.4 44214,61471 110535,-365895.2 571620,81961 461085,447858 438978,427368 416871,632270 -22107,201974 -22107,324916 0,506400 0,0 -527405,-201974 -527405,-263446 0,0 -113696,538600 -438978,649831 -208436,70252 -284230,-81961 -284230,-81961 0,0 -438977,-304424 -461084,-386386 0,0 -1446414.4,1261610 -3571821.3,1241120 z" />
      <polygon
         transform="matrix(0.99715543,0,0,0.92423614,18487.82,44003.924)"
         style="fill:#ffffff;stroke:#efbb22;stroke-width:61066.58984375;stroke-opacity:1"
         id="polygon13"
         points="8394190,10692800 6457060,11343700 4363310,10752600 3122390,9616710 5255590,7687090 7795880,7666990 9835390,9583710 " />
      <g
         transform="matrix(0.99715543,0,0,0.92423614,18487.82,44003.924)"
         id="_47212472">
        <path
           inkscape:connector-curvature="0"
           style="fill:#ffffff;stroke:#efbb22;stroke-width:61066.58984375;stroke-opacity:1"
           d="m 8258600,6851340 c 0,0 84840,0 188530,84840 103690,84840 131970,216810 131970,216810 0,0 -122550,28270 -245090,-9430 -122540,-37710 -179100,-94260 -179100,-94260 l 103690,-197960 z"
           id="_46568480" />
        <path
           inkscape:connector-curvature="0"
           style="fill:#ffffff;stroke:#efbb22;stroke-width:61066.58984375;stroke-opacity:1"
           d="m 8146060,7076430 c 0,0 84830,0 188520,84840 103690,84830 131970,216800 131970,216800 0,0 -122540,28280 -245080,-9420 -122540,-37710 -179100,-94270 -179100,-94270 l 103690,-197950 z"
           id="_105117120" />
        <path
           inkscape:connector-curvature="0"
           style="fill:#ffffff;stroke:#efbb22;stroke-width:61066.58984375;stroke-opacity:1"
           d="m 8033510,7311510 c 0,0 84840,0 188530,84840 103690,84840 131970,216810 131970,216810 0,0 -122540,28280 -245090,-9430 -122540,-37700 -179100,-94260 -179100,-94260 l 103690,-197960 z"
           id="_99531504" />
        <path
           inkscape:connector-curvature="0"
           style="fill:#ffffff;stroke:#efbb22;stroke-width:61066.58984375;stroke-opacity:1"
           d="m 7911540,7557170 c 0,0 84840,0 188530,84840 103690,84840 131970,216810 131970,216810 0,0 -122540,28280 -245080,-9430 -122550,-37710 -179110,-94260 -179110,-94260 l 103690,-197960 z"
           id="_100008936" />
        <path
           inkscape:connector-curvature="0"
           style="fill:#ffffff;stroke:#efbb22;stroke-width:61066.58984375;stroke-opacity:1"
           d="m 7770720,7800830 c 0,0 84840,0 188530,84830 103690,84840 131970,216810 131970,216810 0,0 -122540,28280 -245090,-9430 -122540,-37700 -179100,-94260 -179100,-94260 l 103690,-197950 z"
           id="_99531464" />
      </g>
      <g
         transform="matrix(0.99715543,0,0,0.92423614,18487.82,44003.924)"
         id="_46848968">
        <path
           inkscape:connector-curvature="0"
           style="fill:#ffffff;stroke:#efbb22;stroke-width:61066.58984375;stroke-opacity:1"
           d="m 4753500,6851340 c 0,0 -84840,0 -188530,84840 -103690,84840 -131970,216810 -131970,216810 0,0 122540,28270 245090,-9430 122540,-37710 179100,-94260 179100,-94260 l -103690,-197960 z"
           id="_103554712" />
        <path
           inkscape:connector-curvature="0"
           style="fill:#ffffff;fill-opacity:1;stroke:#efbb22;stroke-width:61066.58984375;stroke-opacity:1"
           d="m 4866040,7076430 c 0,0 -84840,0 -188530,84840 -103690,84830 -131960,216800 -131960,216800 0,0 122540,28280 245080,-9420 122540,-37710 179100,-94270 179100,-94270 l -103690,-197950 z"
           id="_103622104" />
        <path
           inkscape:connector-curvature="0"
           style="fill:#ffffff;fill-opacity:1;stroke:#efbb22;stroke-width:61066.58984375;stroke-opacity:1"
           d="m 4978590,7311510 c 0,0 -84840,0 -188530,84840 -103690,84840 -131970,216810 -131970,216810 0,0 122540,28280 245080,-9430 122550,-37700 179110,-94260 179110,-94260 l -103690,-197960 z"
           id="_100564448" />
        <path
           inkscape:connector-curvature="0"
           style="fill:#ffffff;fill-opacity:1;stroke:#efbb22;stroke-width:61066.58984375;stroke-opacity:1"
           d="m 5100550,7557170 c 0,0 -84830,0 -188520,84840 -103690,84840 -131970,216810 -131970,216810 0,0 122540,28280 245080,-9430 122550,-37710 179100,-94260 179100,-94260 l -103690,-197960 z"
           id="_47610432" />
        <path
           inkscape:connector-curvature="0"
           style="fill:#ffffff;fill-opacity:1;stroke:#efbb22;stroke-width:61066.58984375;stroke-opacity:1"
           d="m 5241380,7800830 c 0,0 -84840,0 -188530,84830 -103690,84840 -131970,216810 -131970,216810 0,0 122540,28280 245090,-9430 122540,-37700 179100,-94260 179100,-94260 l -103690,-197950 z"
           id="_46849008" />
      </g>
      <path
         inkscape:connector-curvature="0"
         style="fill:#efbb22;fill-opacity:1"
         id="path27"
         d="m 6501573.6,8295954.2 75793.7,-49760.8 c 0,0 44213.9,679100.9 296863.2,1056706.6 138953.6,204893 252649.3,427367 274756.2,468348 22107,38051 142114.5,175624 -132641.6,193193 -186328.4,8780 -505298.5,8780 -505298.5,8780 0,0 -315809.2,0 -502137.5,-8780 -274756.3,-17569 -154748.7,-155142 -132641.6,-193193 22106.9,-40981 135802.4,-263455 274756.1,-468348 252649.3,-377605.7 296863.1,-1056706.6 296863.1,-1056706.6 l 53686.9,49760.8 z" />
      <path
         inkscape:connector-curvature="0"
         style="fill:#ffffff;stroke:#efbb22;stroke-width:87936.21875;stroke-opacity:1"
         id="path29"
         d="m 4941464.1,3779332.1 c 0,0 230542.4,-336616 0,-673241.3 0,0 170543.4,-354185.8 126329.6,-579579.3 -41062.8,-222463.5 -334764.9,-1085977.4 -1408522,-1047926.6 -1076917.9,38050.8 -1834855.5,749352.2 -2024345,860584.1 -189489.5,114161.5 -397924.9,281013.9 -524244.5,58550.3 0,0 -85266.8,187333.3 18946,298565.2 107373.6,108302 233703.2,184412.8 423182.7,108302 0,0 -442128.7,600069.5 -486342.5,787412.3 -41053,187333.3 -63159.9,187333.3 -230542.48,131722.2 0,0 22106.93,169772.8 126319.65,187342.5 104222.83,20481.1 252649.33,93662.2 356871.93,-55620.5 0,0 -189489.3,412726.9 -126329.6,655680.9 85276.8,319064.8 -18945.9,617639.3 -104212.7,676180.4 0,0 337916.2,73181 505298.6,-131722.3 0,0 -22106.9,1012796.6 -315809.1,1328931.6 0,0 337916,131722.2 483181.7,-73181 0,0 -252649.4,1422602.8 -1452725.95,3486256.4 0,0 401075.85,128791 716894.95,-450787 0,0 356862,111231 631618.2,-450778.3 0,0 672681,20490.4 884267.3,-954255.4 0,0 442138.8,93662.1 631628.2,-523967.9 0,0 442128.8,0 568458.5,-582499.9 0,0 380275.2,133413.6 568458.3,-523967.9 120925,-422440.6 195851.3,-700450.8 259001.2,-1449812.3 166146,435000.9 302467.1,70436 332351.8,-36322.5 117086.1,-418337 40265.2,-1045865.7 40265.2,-1045865.7 z" />
      <path
         inkscape:connector-curvature="0"
         style="fill:#ffffff;fill-opacity:1"
         id="path31"
         d="M 6479466.7,11553887 C 4350898.8,11533397 2904485,10312767 2904485,10312767 c -22107,81962 -461084.7,386386 -461084.7,386386 0,0 -44214,172703 -284229.2,81961 -322121,-120012 -438977.7,-649831 -438977.7,-649831 0,61472 -527405.5,263446 -527405.5,263446 22107,-181484 22107,-304426 0,-506400 -22106.9,-204902 -41052.8,-184412 416870.9,-632270 461084.7,-447856.2 527405.4,-20490 571619.2,-81961 0,0 44213.9,-58540 195801.5,-181482.4 154748.6,-122941.9 593726.3,-509328.1 900062.4,-201973.2 1367459,1355281.6 2829667.8,1402112.6 3202324.8,1402112.6 372656.8,0 1831704.7,-46831 3199163.7,-1402112.6 306336.2,-307354.9 745314.6,79031.3 900063.6,201973.2 151587,122942.4 195800,181482.4 195800,181482.4 44214,61471 110535,-365895.2 571620,81961 461085,447858 438978,427368 416871,632270 -22107,201974 -22107,324916 0,506400 0,0 -527405,-201974 -527405,-263446 0,0 -113696,538600 -438978,649831 -208436,70252 -284230,-81961 -284230,-81961 0,0 -438977,-304424 -461084,-386386 0,0 -1446414.4,1261610 -3571821.3,1241120 z" />
      <path
         inkscape:connector-curvature="0"
         style="fill:#ffffff"
         id="path33"
         d="m 2938148.9,10339902 c -22097,-17422 -33663.9,-27145 -33663.9,-27145 -22107,81963 -461084.7,386387 -461084.7,386387 0,0 -688.1,2680 -2343.4,7190 -16522.8,-60971 -44532.9,-158839 -69780.9,-221243 -38889.1,-96120 -226852.9,-264332 -362964.5,-450565 -136111.7,-186234 -116667.1,-384483 -116667.1,-384483 0,0 84259.5,-90113 149074.7,-84105 64815.1,6008 207408.3,108135 408335.1,282354 200926.7,174218 492594.7,486610 492594.7,486610 l -3500,5000 z m -1217247.5,-205597 -708,-3031 c 0,61472 -527405.5,263446 -527405.5,263446 22107,-181484 22107,-304426 0,-506400 -9592.6,-88883 -18537,-135354 11726.6,-196030 27441.8,-9113 68843.7,-20731 110275.4,-24225 71296.7,-6007 149074.8,12016 265741.9,102129 98100.1,75769 132053.4,295940 140369.6,364111 z M 11760960,9712401 c 19016,51628 10580,97083 2075,175919 -22108,201974 -22108,324916 0,506400 0,0 -445181,-170458 -517494,-245830 5025,-52145 29905,-262428 109159,-330635 90741,-78098 149075,-150190 285186,-132167 42788,5666 84269,15509 121074,26313 z m -1269817,971853 c -87989,-62034 -420630,-300413 -439806,-371497 0,0 -21488,18716 -62731.4,51332 l -1505,-11165 c 0,0 213890.4,-180225 557410.4,-516647 343520,-336423 369446,-258324 434261,-270339 64815,-12016 84259,78097 84259,78097 0,0 0,126159 -32407,216272 -32407,90114 -168519,300377 -362964,510641 -194446,210263 -175001,312391 -175001,312391 l -1516,915 z" />
      <g
         transform="matrix(0.99715543,0,0,0.92423614,18487.82,44003.924)"
         id="_103757528">
        <path
           inkscape:connector-curvature="0"
           style="fill:#efbb22;fill-opacity:1"
           d="m 5119610,8200970 c -222100,338530 -641230,853230 -1291080,1177160 -129850,66510 -186860,88680 -98180,167860 88680,76010 177360,174190 342050,107680 138800,-56050 902960,-539570 1244080,-1217270 -68350,-76220 -134000,-154690 -196870,-235430 z"
           id="_104419856" />
        <path
           inkscape:connector-curvature="0"
           style="fill:#efbb22;fill-opacity:1"
           d="m 5384270,8510300 c -190330,344590 -552050,863070 -1144010,1222550 -123520,72840 -174200,98180 -82350,167850 91850,66510 183690,155190 338880,79180 126980,-66140 817310,-585320 1098540,-1258430 -72690,-68250 -143070,-138630 -211060,-211150 z"
           id="_104431664" />
        <path
           inkscape:connector-curvature="0"
           style="fill:#efbb22;fill-opacity:1"
           d="m 5701900,8818540 c -177920,352920 -515700,877160 -1081590,1256350 -120350,79180 -171020,107690 -76010,171030 95010,63340 190030,148850 342050,63340 124180,-68700 788350,-618030 1041870,-1302110 -77430,-60810 -152910,-123680 -226320,-188610 z"
           id="_100122360" />
        <path
           inkscape:connector-curvature="0"
           style="fill:#efbb22;fill-opacity:1"
           d="m 6036160,9089590 c -131040,293890 -382720,726660 -858440,1222840 -98180,104510 -158350,120350 -60170,177360 98180,57010 288210,142520 430730,50670 117880,-76880 553000,-674300 723170,-1285440 -80070,-53210 -158550,-108350 -235290,-165430 z"
           id="_100122256" />
        <path
           inkscape:connector-curvature="0"
           style="fill:#efbb22;fill-opacity:1"
           d="m 7891130,8188780 c 221370,338500 640240,855050 1289830,1179850 133020,66510 186860,88680 98180,164690 -85510,76010 -174190,177360 -338880,110850 -138850,-56070 -901250,-542150 -1243390,-1220940 67450,-75920 132230,-154070 194260,-234450 z"
           id="_104323120" />
        <path
           inkscape:connector-curvature="0"
           style="fill:#efbb22;fill-opacity:1"
           d="m 7628950,8497920 c 190880,345220 553120,864540 1143450,1222260 120350,76010 171030,101350 82350,167850 -91850,66510 -183700,155190 -338880,79180 -129550,-63450 -815190,-583840 -1097180,-1257040 72440,-68600 142550,-139370 210260,-212250 z"
           id="_102633280" />
        <path
           inkscape:connector-curvature="0"
           style="fill:#efbb22;fill-opacity:1"
           d="m 7313050,8807180 c 177060,353540 513630,877930 1079300,1255050 117180,79170 167860,107680 76010,171020 -95010,63340 -193200,148860 -342050,66510 -126670,-71250 -787510,-619710 -1039270,-1302630 77360,-61250 152730,-124570 226010,-189950 z"
           id="_104350776" />
        <path
           inkscape:connector-curvature="0"
           style="fill:#efbb22;fill-opacity:1"
           d="m 6979480,9079970 c 130540,294200 381220,726620 855460,1222960 95010,101340 158350,117180 60170,174190 -95010,57010 -285040,145690 -430730,50670 -115170,-74210 -550820,-669610 -722180,-1279790 80790,-54040 159930,-110020 237280,-168030 z"
           id="_105174832" />
      </g>
      <path
         inkscape:connector-curvature="0"
         style="fill:#ffffff;stroke:#efbb22;stroke-width:58624.15234375;stroke-opacity:1"
         id="path44"
         d="m 7944826.4,4519913.3 309497.2,-608849.8 c -274756.2,-81961.2 -176855.4,-447857.1 -176855.4,-447857.1 -176855.6,-81961.3 -524244.6,-728871.1 -524244.6,-728871.1 l 221069.3,-40980.7 c -176855.5,-81961.3 -394763.8,-406876.4 -394763.8,-406876.4 l 262122.3,-40980.7 c -132641.7,-38050.7 -350550.2,-485907.9 -350550.2,-485907.9 l 262122.4,0 c -262122.4,-81961.3 -587404.4,-749352.2 -963222.2,-1015726.25 -483191.7,-348326.2 -1095863.9,-122942 -1095863.9,-122942 0,0 -438977.7,-40980.6 -483191.6,201982.6 0,0 483191.6,40980.6 568458.3,245874.55 0,0 -360022.9,-286855.25 -558985.3,-73171.75 0,0 296863.1,-8789.6 341077,193193.15 0,0 -44213.9,163913.2 132641.6,570789.7 0,0 -176855.5,242954 -176855.5,447857.2 0,201973.3 88427.7,848883.2 -262122.2,889863.8 l -176855.5,283934.5 c 0,0 132641.6,447857.2 -173694.6,570789.8 l 306336.2,567878.4 2933880.5,0 z" />
      <path
         inkscape:connector-curvature="0"
         style="fill:none;stroke:#efbb22;stroke-width:58624.15234375;stroke-opacity:1"
         id="path46"
         d="m 7028979.1,1493224.8 c -88427.8,-60491.3 -176855.6,-120991.8 -265283.3,-181492.4 109487.7,142461.9 218965.4,284905.1 328443.1,427366.8 -160003.5,-94650.9 -320017.2,-189292.7 -480030.6,-283934.4 35797.9,94641.7 71585.7,189283.5 107373.7,283934.4 -116846.7,-121971.4 -233693.4,-243933.5 -350550,-365895.7 m -678993.1,140511.7 c 0,0 66320.8,143422.8 22107,245874.4 m 328443,-245874.4 c 0,0 -66320.8,204893.8 -44213.9,266364.7 0,0 -107373.6,-266364.7 -173694.5,-304424.8 m 546351.5,38060.1 c 0,0 22107,122932.5 22107,204893.8 0,0 -173694.6,-163913.3 -240015.4,-225384.2" />
      <path
         inkscape:connector-curvature="0"
         style="fill:none;stroke:#efbb22;stroke-width:58624.15234375;stroke-opacity:1"
         id="path48"
         d="m 7291101.2,2166466.2 c 0,0 -93313.7,-81443.9 -110534.6,-163922.6 -43166.7,94651.1 -86323.8,189302.1 -129480.6,283934.6 0,0 -271665,-186409.2 -309497.1,-304424.9 -14917.5,119679.3 -63159.8,204903.1 -129480.6,242963.2 -66320.8,-94641.9 -132641.6,-189292.9 -198962.4,-283943.9 0,0 -150939.4,175577.1 -217908.5,266374.2 0,0 -139133,-147027.6 -198962.4,-245883.8 -43156.8,94651 -86313.7,189302 -129480.6,283934.5 -58951.8,-101462.6 -117893.6,-202934.5 -176855.5,-304424.9 0,0 -22106.9,184412.9 -110534.7,245883.8" />
      <path
         inkscape:connector-curvature="0"
         style="fill:none;stroke:#efbb22;stroke-width:58624.15234375;stroke-opacity:1"
         id="path50"
         d="m 7486902.8,2631883.7 c -35797.9,-46831.1 -71595.8,-93662.1 -107373.7,-140502.4 0,0 -22107,242954 -66320.9,301504.4 0,0 -240015.2,-181492.4 -262122.2,-321994.7 0,0 -198962.5,181483 -243176.3,242954 0,0 -172637.4,-117045.3 -195801.4,-304424.9 -45280.9,97183.3 -110534.7,324915.2 -132641.6,383465.6 0,0 -204925.4,-178793.6 -217908.5,-362975.3 -69122.7,110436.9 -132641.6,324915.3 -221069.3,362975.3 0,0 -175010.8,-168968.9 -195801.4,-383465.6 -75165.6,166399.5 -95208.4,258665.9 -176855.5,324915.2 -44213.8,-115122.8 -88427.8,-230264.3 -132641.6,-345405.5 0,0 0,163922.5 -85266.9,242953.9" />
      <path
         inkscape:connector-curvature="0"
         style="fill:none;stroke:#efbb22;stroke-width:58624.15234375;stroke-opacity:1"
         id="path52"
         d="m 7619544.4,3056330 c 0,0 -22107,143432.1 -110534.7,245874.4 0,0 -240015.3,-245874.4 -262122.3,-327835.7 0,0 -132641.6,286855.2 -195801.4,365895.8 -143719.9,-164939.2 -168429.4,-222907.2 -243176.3,-345405.5 0,0 -66320.8,225393.4 -129480.6,307345.4 0,0 -126808.2,-200106.3 -154748.5,-348326.1 -45300.8,112645.9 -110534.7,307345.6 -221069.4,365895.9 -87380.7,-127821.8 -174751.6,-255634.5 -262122.3,-383465.7 0,0 -110534.6,242963.3 -173694.5,304434.3 0,0 -84578.7,-118764.3 -176855.5,-324924.5 -38131.1,77312.3 -110534.7,222472.9 -154748.5,283943.8 0,0 -129480.7,-204903.1 -107373.7,-283943.8" />
      <path
         inkscape:connector-curvature="0"
         style="fill:#ffffff"
         id="path54"
         d="m 6271031.2,1139029.7 c -66320.7,-70251.2 -101061.7,-117082.2 -148436.4,-196113.75 -69471.9,-122941.8 -240015.4,-38060 -378969.1,-46840.3 22107,-5850.3 41053,5859.7 41053,20490.4 0,84891.15 50535.7,187342.75 157909.6,201973.45 97900.6,11710.1 189489.3,-20490.4 284229.1,-14630.7 15784.9,0 28418.9,20490.3 44213.8,35120.9 z" />
      <g
         transform="matrix(0.99715543,0,0,0.92423614,18487.82,44003.924)"
         style="fill:#efbb22;fill-opacity:1"
         id="g56"
         clip-path="url(#id0-4)">
        <g
           style="fill:#efbb22;fill-opacity:1"
           id="_45709960">
          <path
             inkscape:connector-curvature="0"
             style="fill:#efbb22;fill-opacity:1"
             d="m 5918830,1096110 c -60180,0 -107680,-50670 -107680,-110840 0,-60180 47500,-107690 107680,-107690 60170,0 107680,47510 107680,107690 0,60170 -47510,110840 -107680,110840 z"
             id="_466408241" />
        </g>
      </g>
      <path
         inkscape:connector-curvature="0"
         style="fill:none;stroke:#efbb22;stroke-width:58624.15234375;stroke-opacity:1"
         id="path60"
         d="m 6271031.2,1139029.7 c -66320.7,-70251.2 -101061.7,-117082.2 -148436.4,-196113.75 -69471.9,-122941.8 -240015.4,-38060 -378969.1,-46840.3 22107,-5850.3 41053,5859.7 41053,20490.4 0,84891.15 50535.7,187342.75 157909.6,201973.45 97900.6,11710.1 189489.3,-20490.4 284229.1,-14630.7 15784.9,0 28418.9,20490.3 44213.8,35120.9 z" />
      <path
         inkscape:connector-curvature="0"
         style="fill:#ffffff;stroke:#efbb22;stroke-width:58624.15234375;stroke-opacity:1"
         id="path62"
         d="m 5592038.2,1139029.7 c -6321.9,-49760.8 28419,-38050.8 -12634,-70251.2 0,0 -360022.9,-286855.25 -558985.3,-73171.75 0,0 266070.9,-7856.1 331923.1,162702.55 86513.1,-18041.1 171141.8,-32422.2 239696.2,-19279.6 z m -12634,-70251.2 c 97900.7,-99521.75 82115.8,-351255.95 -22106.8,-459557.95 l -5913.3,-6081.5 c -36575.5,10222.1 -57246.6,17782.3 -57246.6,17782.3 0,0 -438977.7,-40980.6 -483191.6,201982.6 0,0 483191.6,40980.6 568458.3,245874.55 z" />
      <path
         inkscape:connector-curvature="0"
         style="fill:#ffffff;stroke:#efbb22;stroke-width:87936.21875;stroke-opacity:1"
         id="path64"
         d="m 8058522.1,3779332.1 c 0,0 -230542.3,-336616 0,-673241.3 0,0 -170543.5,-354185.8 -126329.6,-579579.3 41062.9,-222463.5 334765,-1085977.4 1408521.9,-1047926.6 1076918.6,38050.8 1834856.6,749352.2 2024345.6,860584.1 189489,114161.5 397925,281013.9 524245,58550.3 0,0 85267,187333.3 -18947,298565.2 -107373,108302 -233702,184412.8 -423182,108302 0,0 442129,600069.5 486343,787412.3 41053,187333.3 63160,187333.3 230542,131722.2 0,0 -22107,169772.8 -126320,187342.5 -104222,20481.1 -252649,93662.2 -356871,-55620.5 0,0 189488,412726.9 126329,655680.9 -85277,319064.8 18946,617639.3 104212,676180.4 0,0 -337916,73181 -505299,-131722.3 0,0 22108,1012796.6 315810,1328931.6 0,0 -337916,131722.2 -483182,-73181 0,0 252650,1422602.8 1452725,3486256.4 0,0 -401075,128791 -716893,-450787 0,0 -356863,111231 -631618,-450778.3 0,0 -672682,20490.4 -884268,-954255.4 0,0 -442139,93662.1 -631628.9,-523967.9 0,0 -442128.8,0 -568458.5,-582499.9 0,0 -380275.1,133413.6 -568458.3,-523967.9 -120925.1,-422440.6 -195851.2,-700450.8 -259001.1,-1449812.3 -166146.1,435000.9 -302467.2,70436 -332352,-36322.5 -117085.9,-418337 -40265.1,-1045865.7 -40265.1,-1045865.7 z" />
      <g
         transform="matrix(0.99715543,0,0,0.92423614,18487.82,44003.924)"
         id="_140533680">
        <path
           inkscape:connector-curvature="0"
           style="fill:none;stroke:#efbb22;stroke-width:91599.8828125;stroke-opacity:1"
           d="M 11461300,2986880 C 11356780,2869700 10447820,1938570 9412170,1938570"
           id="_103631224" />
        <path
           inkscape:connector-curvature="0"
           style="fill:none;stroke:#efbb22;stroke-width:91599.8828125;stroke-opacity:1"
           d="m 9456500,2280620 c 0,0 861460,76010 1456870,687260 528910,547910 782280,1156000 782280,1156000"
           id="_105021888" />
        <path
           inkscape:connector-curvature="0"
           style="fill:none;stroke:#efbb22;stroke-width:91599.8828125;stroke-opacity:1"
           d="m 9497670,2606830 c 0,0 617590,139350 1076820,503570 253370,202700 677770,709440 741110,1095820 63340,383230 104510,1013480 104510,1216180"
           id="_46525000" />
        <path
           inkscape:connector-curvature="0"
           style="fill:none;stroke:#efbb22;stroke-width:91599.8828125;stroke-opacity:1"
           d="m 9538840,2986880 c 107690,41180 497240,129860 867800,427570 253360,202690 547910,608080 592250,1317520 41170,709430 -22170,1276350 253370,2049120"
           id="_104656736" />
        <path
           inkscape:connector-curvature="0"
           style="fill:none;stroke:#efbb22;stroke-width:91599.8828125;stroke-opacity:1"
           d="m 9412160,3271930 c 171020,82340 1121160,304040 1225670,1542380 107690,1235180 126690,2068130 465570,2980260 253370,680930 886790,2270820 886790,2270820"
           id="_139206144" />
        <path
           inkscape:connector-curvature="0"
           style="fill:none;stroke:#efbb22;stroke-width:91599.8828125;stroke-opacity:1"
           d="m 11356800,9577660 c 0,0 -630260,-1374530 -845620,-2248660 -253370,-1035640 -262870,-2090290 -275540,-2372170 -19000,-570080 -41170,-953300 -801280,-1238340"
           id="_104642216" />
        <path
           inkscape:connector-curvature="0"
           style="fill:none;stroke:#efbb22;stroke-width:91599.8828125;stroke-opacity:1"
           d="m 9348820,4063700 c 126680,19010 500400,142520 487730,1013480 -22170,1441040 566920,3306470 633430,3468000"
           id="_103540272" />
        <path
           inkscape:connector-curvature="0"
           style="fill:none;stroke:#efbb22;stroke-width:91599.8828125;stroke-opacity:1"
           d="m 9158790,4446930 c 85510,22170 288210,-60180 275540,649260 -22170,1136990 275540,2394340 402220,2882070"
           id="_103540104" />
        <path
           inkscape:connector-curvature="0"
           style="fill:none;stroke:#efbb22;stroke-width:91599.8828125;stroke-opacity:1"
           d="m 8886420,4956830 c 0,0 0,1133830 380050,2391180"
           id="_103508624" />
      </g>
      <path
         inkscape:connector-curvature="0"
         style="fill:#efbb22;fill-opacity:1"
         id="path76"
         d="m 7764819.9,4247679.5 c 0,0 208435.5,-655680.7 587404.4,-728861.8 0,0 -63159.9,-319055.6 230542.3,-488837.7 0,0 -271595.2,-333695.5 -208435.4,-597139.7 63159.9,-260514.6 183167.5,-649830.6 735840.9,-749352.3 185131.9,-33291 181861.2,-82922.4 167352.6,-200947.4 15196.7,-3410.4 9931.6,-4732.1 63189.7,-3955.7 22765.2,172009.5 44213.9,412726.9 85266.7,544449 41053,128801.5 189489.5,913274.6 -22106.9,1045006.1 0,0 85266.8,506398.3 -18945.9,676171.2 -107373.7,166852.3 -211596.3,447857 -378978.9,485907.9 0,0 -44213.9,676180.5 -757947.8,676180.5 l -12624,-105381.6 -470557.7,-553238.5 z" />
      <g
         transform="matrix(0.99715543,0,0,0.92423614,18487.82,44003.924)"
         id="_105015632">
        <path
           inkscape:connector-curvature="0"
           style="fill:none;stroke:#efbb22;stroke-width:91599.8828125;stroke-opacity:1"
           d="M 1538700,2986880 C 1643220,2869700 2552180,1938570 3587830,1938570"
           id="_46103624" />
        <path
           inkscape:connector-curvature="0"
           style="fill:none;stroke:#efbb22;stroke-width:91599.8828125;stroke-opacity:1"
           d="m 3543490,2280620 c 0,0 -861460,76010 -1456870,687260 -528910,547910 -782280,1156000 -782280,1156000"
           id="_104746024" />
        <path
           inkscape:connector-curvature="0"
           style="fill:none;stroke:#efbb22;stroke-width:91599.8828125;stroke-opacity:1"
           d="m 3502320,2606830 c 0,0 -617590,139350 -1076820,503570 -253370,202700 -677770,709440 -741110,1095820 -63340,383230 -104510,1013480 -104510,1216180"
           id="_139342672" />
        <path
           inkscape:connector-curvature="0"
           style="fill:none;stroke:#efbb22;stroke-width:91599.8828125;stroke-opacity:1"
           d="m 3461150,2986880 c -107690,41180 -497240,129860 -867790,427570 -253370,202690 -547920,608080 -592260,1317520 -41170,709430 22170,1276350 -253370,2049120"
           id="_139342608" />
        <path
           inkscape:connector-curvature="0"
           style="fill:none;stroke:#efbb22;stroke-width:91599.8828125;stroke-opacity:1"
           d="m 3587830,3271930 c -171020,82340 -1121160,304040 -1225670,1542380 -107690,1235180 -126690,2068130 -465570,2980260 -253370,680930 -886790,2270820 -886790,2270820"
           id="_105551120" />
        <path
           inkscape:connector-curvature="0"
           style="fill:none;stroke:#efbb22;stroke-width:91599.8828125;stroke-opacity:1"
           d="m 1643220,9577660 c 0,0 630260,-1374530 845620,-2248660 253370,-1035640 262870,-2090290 275540,-2372170 19000,-570080 41170,-953300 801280,-1238340"
           id="_105551040" />
        <path
           inkscape:connector-curvature="0"
           style="fill:none;stroke:#efbb22;stroke-width:91599.8828125;stroke-opacity:1"
           d="m 3651170,4063700 c -126680,19010 -500400,142520 -487730,1013480 22170,1441040 -566920,3306470 -633430,3468000"
           id="_102259512" />
        <path
           inkscape:connector-curvature="0"
           style="fill:none;stroke:#efbb22;stroke-width:91599.8828125;stroke-opacity:1"
           d="m 3841200,4446930 c -85510,22170 -288210,-60180 -275540,649260 22170,1136990 -275540,2394340 -402220,2882070"
           id="_99299256" />
        <path
           inkscape:connector-curvature="0"
           style="fill:none;stroke:#efbb22;stroke-width:91599.8828125;stroke-opacity:1"
           d="m 4113570,4956830 c 0,0 0,1133830 -380050,2391180"
           id="_105015672" />
      </g>
      <path
         inkscape:connector-curvature="0"
         style="fill:#1f1a17;stroke:#1f1a17;stroke-width:7315.22802734"
         id="path88"
         d="m 10404958,10233708 c -31579,0 -56847,-23420 -56847,-55620 0,-29271 25268,-52683 56847,-52683 31580,0 56838,23412 56838,52683 0,32200 -25258,55620 -56838,55620 z" />
      <g
         transform="matrix(0.99715543,0,0,0.92423614,18487.82,44003.924)"
         id="_47344672">
        <path
           inkscape:connector-curvature="0"
           style="fill:none;stroke:#efbb22;stroke-width:61066.58984375;stroke-opacity:1"
           d="m 10786700,9878530 c 88680,88680 221700,288210 266040,395890 41170,110850 63340,310380 -155190,639760 -221700,329380 -373720,395890 -373720,614420"
           id="_47639088" />
        <path
           inkscape:connector-curvature="0"
           style="fill:none;stroke:#efbb22;stroke-width:53340;stroke-opacity:1"
           d="m 11755800,10451800 c -110850,-44340 -395890,-88680 -506740,462400"
           id="_99394064" />
        <path
           inkscape:connector-curvature="0"
           style="fill:none;stroke:#efbb22;stroke-width:61066.58984375;stroke-opacity:1"
           d="m 11071700,10385300 c -107680,-129850 -174190,-110850 -525740,266040 -351550,373720 -351550,351550 -484570,459230"
           id="_100301656" />
      </g>
      <g
         transform="matrix(0.99715543,0,0,0.92423614,18487.82,44003.924)"
         id="_100125792">
        <path
           inkscape:connector-curvature="0"
           style="fill:none;stroke:#efbb22;stroke-width:61066.58984375;stroke-opacity:1"
           d="m 2156290,9900700 c -85510,88680 -209030,253370 -250200,364220 -44340,110850 -66510,307210 152020,636590 221700,332550 373720,395890 373720,617590"
           id="_47344584" />
        <path
           inkscape:connector-curvature="0"
           style="fill:none;stroke:#efbb22;stroke-width:61066.58984375;stroke-opacity:1"
           d="m 1199820,10442300 c 110850,-44340 395890,-88680 506740,459230"
           id="_46467312" />
        <path
           inkscape:connector-curvature="0"
           style="fill:none;stroke:#efbb22;stroke-width:61066.58984375;stroke-opacity:1"
           d="m 1883920,10375800 c 107680,-133020 174190,-110850 525740,262870 351550,373720 351550,351550 484570,462400"
           id="_102379224" />
      </g>
      <path
         inkscape:connector-curvature="0"
         style="fill:#efbb22;fill-opacity:1"
         id="path98"
         d="m 5238327.2,4247679.5 c 0,0 -208435.4,-655680.7 -587404.3,-728861.8 0,0 63159.8,-319055.6 -230542.4,-488837.7 0,0 271595.2,-333695.5 208435.5,-597139.7 -63159.8,-260514.6 -183167.5,-649830.6 -735840.9,-749352.3 -185131.9,-33291 -181861.2,-82922.4 -167352.7,-200947.4 -15196.6,-3410.4 -9931.6,-4732.1 -63189.7,-3955.7 -22765,172009.5 -44213.8,412726.9 -85266.7,544449 -41052.8,128801.5 -189489.5,913274.6 22107,1045006.1 0,0 -85266.8,506398.3 18945.9,676171.2 107373.6,166852.3 211596.4,447857 378978.8,485907.9 0,0 44214,676180.5 757947.8,676180.5 l 12624.1,-105381.6 470557.6,-553238.5 z" />
      <g
         transform="matrix(0.99715543,0,0,0.92423614,18487.82,44003.924)"
         id="_104435904">
        <g
           id="g101">
          <path
             inkscape:connector-curvature="0"
             style="fill:#ffffff;stroke:#efbb22;stroke-width:61066.58984375;stroke-opacity:1"
             d="m 10875400,10584800 c 41170,-57010 66510,-186860 -66510,-297710 -107680,-88680 -152020,-98180 -174190,-142520 0,0 -66510,152020 -12670,285040 25340,60180 120350,329380 253370,155190 z"
             id="_103560856" />
          <path
             inkscape:connector-curvature="0"
             style="fill:#ffffff;stroke:#efbb22;stroke-width:61066.58984375;stroke-opacity:1"
             d="m 10698000,10825500 c 47510,-50670 60180,-158350 -38010,-259700 -104510,-101350 -253360,-72850 -281870,-114020 -28500,-41170 3170,199530 38010,288210 0,0 161520,218530 281870,85510 z"
             id="_102668768" />
          <path
             inkscape:connector-curvature="0"
             style="fill:#ffffff;stroke:#efbb22;stroke-width:61066.58984375;stroke-opacity:1"
             d="m 10466800,11047200 c 53840,-47510 28500,-199530 -82340,-285040 -114020,-91850 -190030,-85510 -228040,-117180 -50670,-38010 -72840,215360 15840,310370 91840,98180 218530,155190 294540,91850 z"
             id="_102631856" />
        </g>
        <g
           id="g106">
          <path
             inkscape:connector-curvature="0"
             style="fill:#ffffff;fill-opacity:1;stroke:#efbb22;stroke-width:61066.58984375;stroke-opacity:1"
             d="m 2520510,11025000 c -104510,-72840 57010,-250200 60180,-253370 117180,-91850 266030,-79180 297710,-114020 31670,-38000 -15840,212200 -72850,297710 0,0 -142520,167860 -285040,69680 z"
             id="_103653024" />
          <path
             inkscape:connector-curvature="0"
             style="fill:#ffffff;fill-opacity:1;stroke:#efbb22;stroke-width:61066.58984375;stroke-opacity:1"
             d="m 2102450,10607000 c -88680,-66510 -44340,-313540 88680,-351550 76010,-22170 133020,-44340 152020,-88680 22170,-44340 -9500,186860 -9500,253370 0,63340 -110850,275540 -231200,186860 z"
             id="_102928352" />
          <path
             inkscape:connector-curvature="0"
             style="fill:#ffffff;fill-opacity:1;stroke:#efbb22;stroke-width:61066.58984375;stroke-opacity:1"
             d="m 2289310,10803300 c -6330,-6330 -85510,-133020 28510,-247030 104510,-104520 240700,-142520 269200,-183700 28500,-38000 34840,240700 6340,300880 69670,-145690 -95020,338880 -304050,129850 z"
             id="_105874096" />
        </g>
      </g>
      <g
         id="_24580424">
        <g
           transform="matrix(0.99715543,0,0,0.92423614,18487.82,44003.924)"
           id="g112">
          <path
             inkscape:connector-curvature="0"
             style="fill:#ffffff;stroke:#efbb22;stroke-width:61066.58984375;stroke-opacity:1"
             d="m 8686890,8009930 c 0,0 519410,-291370 297710,-440230 -199530,-129850 -319880,231200 -297710,440230 z"
             id="_103806952" />
          <path
             inkscape:connector-curvature="0"
             style="fill:#ffffff;stroke:#efbb22;stroke-width:61066.58984375;stroke-opacity:1"
             d="m 8544370,8275970 c 0,0 380050,-452900 34840,-734770 0,0 -278710,250200 -34840,734770 z"
             id="_104449368" />
          <path
             inkscape:connector-curvature="0"
             style="fill:#ffffff;stroke:#efbb22;stroke-width:61066.58984375;stroke-opacity:1"
             d="m 8544370,8275970 c 0,0 95010,-456060 608090,-389550 0,0 -164690,475060 -608090,389550 z"
             id="_104645832" />
          <path
             inkscape:connector-curvature="0"
             style="fill:#ffffff;stroke:#efbb22;stroke-width:61066.58984375;stroke-opacity:1"
             d="m 8446190,8538840 c 0,0 47510,-433890 554240,-367380 0,0 -60170,332540 -554240,367380 z"
             id="_103805496" />
          <path
             inkscape:connector-curvature="0"
             style="fill:#ffffff;stroke:#efbb22;stroke-width:61066.58984375;stroke-opacity:1"
             d="m 8411350,8526170 c 0,0 357890,-418060 12670,-699930 0,0 -300880,310380 -12670,699930 z"
             id="_101932816" />
          <path
             inkscape:connector-curvature="0"
             style="fill:#ffffff;stroke:#efbb22;stroke-width:61066.58984375;stroke-opacity:1"
             d="m 8300500,8757370 c 0,0 60180,-389550 566920,-323040 0,0 -120350,411720 -566920,323040 z"
             id="_103627632" />
          <path
             inkscape:connector-curvature="0"
             style="fill:#ffffff;stroke:#efbb22;stroke-width:61066.58984375;stroke-opacity:1"
             d="m 8281500,8792210 c 0,0 357880,-421220 12670,-703100 0,0 -278710,250200 -12670,703100 z"
             id="_99049696" />
          <path
             inkscape:connector-curvature="0"
             style="fill:#ffffff;stroke:#efbb22;stroke-width:61066.58984375;stroke-opacity:1"
             d="m 8113640,9032910 c 0,0 370550,-399050 25340,-677760 0,0 -285040,215360 -25340,677760 z"
             id="_104486544" />
          <path
             inkscape:connector-curvature="0"
             style="fill:#ffffff;stroke:#efbb22;stroke-width:61066.58984375;stroke-opacity:1"
             d="m 8113640,9032910 c 0,0 91850,-399050 598590,-332540 0,0 -152020,421220 -598590,332540 z"
             id="_101206832" />
          <path
             inkscape:connector-curvature="0"
             style="fill:#ffffff;stroke:#efbb22;stroke-width:61066.58984375;stroke-opacity:1"
             d="m 7971120,9286280 c 0,0 79180,-386390 633430,-367380 0,0 -186860,452890 -633430,367380 z"
             id="_101206728" />
          <path
             inkscape:connector-curvature="0"
             style="fill:#ffffff;stroke:#efbb22;stroke-width:61066.58984375;stroke-opacity:1"
             d="m 7939450,9264110 c 0,0 361050,-218530 57010,-690430 0,0 -218530,205860 -57010,690430 z"
             id="_101024624" />
          <path
             inkscape:connector-curvature="0"
             style="fill:#ffffff;stroke:#efbb22;stroke-width:61066.58984375;stroke-opacity:1"
             d="m 7743090,9517480 c 0,0 126680,-357880 630260,-291370 0,0 -104520,357880 -630260,291370 z"
             id="_101024416" />
          <path
             inkscape:connector-curvature="0"
             style="fill:#ffffff;stroke:#efbb22;stroke-width:61066.58984375;stroke-opacity:1"
             d="m 7743090,9517480 c 0,0 433890,-376890 91850,-655590 0,0 -310380,193190 -91850,655590 z"
             id="_46828048" />
          <path
             inkscape:connector-curvature="0"
             style="fill:#ffffff;stroke:#efbb22;stroke-width:61066.58984375;stroke-opacity:1"
             d="m 7448550,9748680 c 0,0 262870,-351550 753770,-259700 0,0 -348380,361050 -753770,259700 z"
             id="_104761152" />
          <path
             inkscape:connector-curvature="0"
             style="fill:#ffffff;stroke:#efbb22;stroke-width:61066.58984375;stroke-opacity:1"
             d="m 7448550,9748680 c 0,0 468730,-155190 199530,-668260 0,0 -212200,50670 -199530,668260 z"
             id="_46069120" />
          <path
             inkscape:connector-curvature="0"
             style="fill:#ffffff;stroke:#efbb22;stroke-width:61066.58984375;stroke-opacity:1"
             d="m 7249020,9945040 c 0,0 224860,-370550 690430,-240700 0,0 -262870,389560 -690430,240700 z"
             id="_46255968" />
          <path
             inkscape:connector-curvature="0"
             style="fill:#ffffff;stroke:#efbb22;stroke-width:61066.58984375;stroke-opacity:1"
             d="m 7249020,9945040 c 0,0 475070,-335710 171020,-661920 0,0 -304040,136180 -171020,661920 z"
             id="_103542464" />
          <path
             inkscape:connector-curvature="0"
             style="fill:#ffffff;stroke:#efbb22;stroke-width:61066.58984375;stroke-opacity:1"
             d="m 6986150,10211100 c 0,0 525740,-345220 250200,-696770 0,0 -338880,145690 -250200,696770 z"
             id="_105750120" />
          <path
             inkscape:connector-curvature="0"
             style="fill:#ffffff;stroke:#efbb22;stroke-width:61066.58984375;stroke-opacity:1"
             d="m 6986150,10211100 c 0,0 209030,-427560 731600,-231200 0,0 -300870,424390 -731600,231200 z"
             id="_105351176" />
          <path
             inkscape:connector-curvature="0"
             style="fill:#ffffff;stroke:#efbb22;stroke-width:61066.58984375;stroke-opacity:1"
             d="m 6678940,10474000 c 0,0 525740,-307210 285040,-680930 0,0 -307210,129850 -285040,680930 z"
             id="_101931704" />
          <path
             inkscape:connector-curvature="0"
             style="fill:#ffffff;stroke:#efbb22;stroke-width:61066.58984375;stroke-opacity:1"
             d="m 6720110,10451800 c 0,0 266040,-395890 728440,-177360 0,0 -332550,395890 -728440,177360 z"
             id="_47332864" />
          <path
             inkscape:connector-curvature="0"
             style="fill:#ffffff;stroke:#efbb22;stroke-width:61066.58984375;stroke-opacity:1"
             d="m 6523750,10651300 c 0,0 440230,-266040 196360,-639760 0,0 -351550,177360 -196360,639760 z"
             id="_105891832" />
          <path
             inkscape:connector-curvature="0"
             style="fill:#ffffff;stroke:#efbb22;stroke-width:61066.58984375;stroke-opacity:1"
             d="m 6523750,10651300 c 0,0 174190,-354720 636590,-133020 0,0 -240700,351550 -636590,133020 z"
             id="_47370536" />
        </g>
        <g
           id="g137">
          <path
             inkscape:connector-curvature="0"
             style="fill:#ffffff;stroke:#efbb22;stroke-width:58624.15234375;stroke-opacity:1"
             d="m 4297212,7447071 c 0,0 -517932.5,-269294.8 -296863.2,-406876.5 198962.4,-120012.2 318970.1,213683.3 296863.2,406876.5 z"
             id="_102614544" />
          <path
             inkscape:connector-curvature="0"
             style="fill:#ffffff;stroke:#efbb22;stroke-width:58624.15234375;stroke-opacity:1"
             d="m 4439326.6,7692954.8 c 0,0 -378969.1,-418586.6 -34741,-679101 0,0 277917.3,231243.8 34741,679101 z"
             id="_102614440" />
          <path
             inkscape:connector-curvature="0"
             style="fill:#ffffff;stroke:#efbb22;stroke-width:58624.15234375;stroke-opacity:1"
             d="m 4439326.6,7692954.8 c 0,0 -94739.8,-421507.2 -606360.3,-360036.3 0,0 164221.4,439067.7 606360.3,360036.3 z"
             id="_46829752" />
          <path
             inkscape:connector-curvature="0"
             style="fill:#ffffff;stroke:#efbb22;stroke-width:58624.15234375;stroke-opacity:1"
             d="m 4537227.2,7935908.8 c 0,0 -47374.8,-401016.9 -552663.4,-339546 0,0 59998.8,307345.6 552663.4,339546 z"
             id="_46177608" />
          <path
             inkscape:connector-curvature="0"
             style="fill:#ffffff;stroke:#efbb22;stroke-width:58624.15234375;stroke-opacity:1"
             d="m 4571968.2,7924198.7 c 0,0 -356862.1,-386386.3 -12634.1,-646900.7 0,0 300024.2,286864.4 12634.1,646900.7 z"
             id="_104377952" />
          <path
             inkscape:connector-curvature="0"
             style="fill:#ffffff;stroke:#efbb22;stroke-width:58624.15234375;stroke-opacity:1"
             d="m 4682502.9,8137882.1 c 0,0 -60008.9,-360036.2 -565307.4,-298565.3 0,0 120017.5,380526.4 565307.4,298565.3 z"
             id="_105639712" />
          <path
             inkscape:connector-curvature="0"
             style="fill:#ffffff;stroke:#efbb22;stroke-width:58624.15234375;stroke-opacity:1"
             d="m 4704609.7,8170082.4 c 0,0 -360022.9,-389306.8 -15794.9,-649830.3 0,0 277917.2,231243.8 15794.9,649830.3 z"
             id="_106411920" />
          <path
             inkscape:connector-curvature="0"
             style="fill:#ffffff;stroke:#efbb22;stroke-width:58624.15234375;stroke-opacity:1"
             d="m 4868831.2,8392546 c 0,0 -369495.8,-368816.5 -25267.8,-626410.3 0,0 287390.2,199043.5 25267.8,626410.3 z"
             id="_105260896" />
          <path
             inkscape:connector-curvature="0"
             style="fill:#ffffff;stroke:#efbb22;stroke-width:58624.15234375;stroke-opacity:1"
             d="m 4868831.2,8392546 c 0,0 -91588.6,-368816.5 -596887.2,-307345.4 0,0 151587.6,389306.7 596887.2,307345.4 z"
             id="_105260640" />
          <path
             inkscape:connector-curvature="0"
             style="fill:#ffffff;stroke:#efbb22;stroke-width:58624.15234375;stroke-opacity:1"
             d="m 5010945.9,8626719.8 c 0,0 -78954.8,-357115.5 -631618.2,-339545.9 0,0 186328.5,418577.4 631618.2,339545.9 z"
             id="_104931024" />
          <path
             inkscape:connector-curvature="0"
             style="fill:#ffffff;stroke:#efbb22;stroke-width:58624.15234375;stroke-opacity:1"
             d="m 5042525.9,8606229.5 c 0,0 -360023,-201973.4 -56848,-638120.5 0,0 221069.3,190263.3 56848,638120.5 z"
             id="_104930944" />
          <path
             inkscape:connector-curvature="0"
             style="fill:#ffffff;stroke:#efbb22;stroke-width:58624.15234375;stroke-opacity:1"
             d="m 5241488.2,8840403.1 c 0,0 -126329.6,-330765.6 -631628.2,-269294.6 0,0 104222.7,330765.7 631628.2,269294.6 z"
             id="_103620080" />
          <path
             inkscape:connector-curvature="0"
             style="fill:#ffffff;stroke:#efbb22;stroke-width:58624.15234375;stroke-opacity:1"
             d="m 5241488.2,8840403.1 c 0,0 -435816.8,-348335.3 -91588.7,-605919.9 0,0 309497.1,178553.1 91588.7,605919.9 z"
             id="_103619976" />
          <path
             inkscape:connector-curvature="0"
             style="fill:#ffffff;stroke:#efbb22;stroke-width:58624.15234375;stroke-opacity:1"
             d="m 5535190.4,9054086.6 c 0,0 -262122.3,-324915.2 -754786.9,-240024.2 0,0 350550.1,333695.6 754786.9,240024.2 z"
             id="_103606272" />
          <path
             inkscape:connector-curvature="0"
             style="fill:#ffffff;stroke:#efbb22;stroke-width:58624.15234375;stroke-opacity:1"
             d="m 5535190.4,9054086.6 c 0,0 -470557.7,-143432.3 -198962.4,-617630.2 0,0 211596.3,46831.1 198962.4,617630.2 z"
             id="_104403680" />
          <path
             inkscape:connector-curvature="0"
             style="fill:#ffffff;stroke:#efbb22;stroke-width:58624.15234375;stroke-opacity:1"
             d="m 5734152.8,9235569 c 0,0 -224230.3,-342475.2 -691626.9,-222463.1 0,0 265283.1,360045.1 691626.9,222463.1 z"
             id="_100012624" />
          <path
             inkscape:connector-curvature="0"
             style="fill:#ffffff;stroke:#efbb22;stroke-width:58624.15234375;stroke-opacity:1"
             d="m 5734152.8,9235569 c 0,0 -473718.6,-310274.7 -170543.5,-611769.8 0,0 303185.1,125862.5 170543.5,611769.8 z"
             id="_100127104" />
          <path
             inkscape:connector-curvature="0"
             style="fill:#ffffff;stroke:#efbb22;stroke-width:58624.15234375;stroke-opacity:1"
             d="m 5996275,9481472 c 0,0 -524244.5,-319065 -249488.3,-643980.2 0,0 337916.1,134652 249488.3,643980.2 z"
             id="_100126896" />
          <path
             inkscape:connector-curvature="0"
             style="fill:#ffffff;stroke:#efbb22;stroke-width:58624.15234375;stroke-opacity:1"
             d="m 5996275,9481472 c 0,0 -208435.4,-395166.5 -729518.8,-213684 0,0 300014,392236 729518.8,213684 z"
             id="_46386328" />
          <path
             inkscape:connector-curvature="0"
             style="fill:#ffffff;stroke:#efbb22;stroke-width:58624.15234375;stroke-opacity:1"
             d="m 6302611.2,9724453 c 0,0 -524244.5,-283935 -284229.2,-629339.6 0,0 306336.1,120011.6 284229.2,629339.6 z"
             id="_46386224" />
          <path
             inkscape:connector-curvature="0"
             style="fill:#ffffff;stroke:#efbb22;stroke-width:58624.15234375;stroke-opacity:1"
             d="m 6261558.2,9703935 c 0,0 -265283.2,-365895 -726367.8,-163922 0,0 331604,365895 726367.8,163922 z"
             id="_47111216" />
          <path
             inkscape:connector-curvature="0"
             style="fill:#ffffff;stroke:#efbb22;stroke-width:58624.15234375;stroke-opacity:1"
             d="m 6457359.8,9888320 c 0,0 -438977.8,-245884 -195801.6,-591289 0,0 350550.1,163923 195801.6,591289 z"
             id="_47502104" />
          <path
             inkscape:connector-curvature="0"
             style="fill:#ffffff;stroke:#efbb22;stroke-width:58624.15234375;stroke-opacity:1"
             d="m 6457359.8,9888320 c 0,0 -173694.6,-327845 -634779.3,-122941 0,0 240015.3,324915 634779.3,122941 z"
             id="_45802712" />
        </g>
      </g>
      <path
         inkscape:connector-curvature="0"
         style="fill:#ffffff;fill-opacity:1;stroke:#efbb22;stroke-width:117248.3046875;stroke-opacity:1"
         id="path166"
         d="m 5500170.3,3520305.7 -929458.5,1137531.4 c -257665,1552356.3 444751.2,2914745 1930921.6,3791771.3 1484305.8,-877506.9 2185106.7,-2240561 1927641,-3791771.3 l -926187.7,-1137531.4 -2002916.4,0 z" />
      <path
         inkscape:connector-curvature="0"
         style="fill:#efbb22;fill-opacity:1;stroke:#efbb22;stroke-width:51206.59765625;stroke-opacity:1"
         id="path168"
         d="M 5644169.6,3820608.5 4842346.9,4797369 C 4624009.7,6131541 5223619.2,7297307.7 6501633.4,8052233.1 7777782.9,7296817.9 8375797,6130394.9 8157639.4,4797369 l -798552,-976760.5 -1714917.8,0 z" />
      <path
         inkscape:connector-curvature="0"
         style="fill:none;stroke:#efbb22;stroke-width:58624.15234375;stroke-opacity:1"
         id="path170"
         d="M 6479466.7,11553887 C 4350898.8,11533397 2904485,10312767 2904485,10312767 c -22107,81962 -461084.7,386386 -461084.7,386386 0,0 -44214,172703 -284229.2,81961 -322121,-120012 -438977.7,-649831 -438977.7,-649831 0,61472 -527405.5,263446 -527405.5,263446 22107,-181484 22107,-304426 0,-506400 -22106.9,-204902 -41052.8,-184412 416870.9,-632270 461084.7,-447856.2 527405.4,-20490 571619.2,-81961 0,0 44213.9,-58540 195801.5,-181482.4 154748.6,-122941.9 593726.3,-509328.1 900062.4,-201973.2 1367459,1355281.6 2829667.8,1402112.6 3202324.8,1402112.6 372656.8,0 1831704.7,-46831 3199163.7,-1402112.6 306336.2,-307354.9 745314.6,79031.3 900063.6,201973.2 151587,122942.4 195800,181482.4 195800,181482.4 44214,61471 110535,-365895.2 571620,81961 461085,447858 438978,427368 416871,632270 -22107,201974 -22107,324916 0,506400 0,0 -527405,-201974 -527405,-263446 0,0 -113696,538600 -438978,649831 -208436,70252 -284230,-81961 -284230,-81961 0,0 -438977,-304424 -461084,-386386 0,0 -1446414.4,1261610 -3571821.3,1241120 z" />
    </g>
    <g
       id="g4284"
       transform="matrix(1,0,0,0.98765398,0,109780.67)">
      <path
         inkscape:connector-curvature="0"
         d="m 4981097.9,11012110 c 30056.7,-22664 35784.2,-43975 19190.4,-71398 -17240.8,-28490 -48000.6,-35046 -77592.7,-16534 -31250,19549 -35478.3,38532 -15818.3,71020 20575.4,34003 44366.3,39425 74220.6,16912 z"
         style="fill:#efbb22;fill-opacity:1"
         id="path2310" />
      <path
         inkscape:connector-curvature="0"
         d="m 6436870.5,11265646 c -1174,-9792 -14965,-37675 -74394.7,-54473 l -87899.5,-4194 8874.3,-34216 8873.6,-34217 171530.9,14309 c 59778.4,-171558 31769.1,-216278 -83895.6,-316456 -43775.5,-27959 -124998.8,-51868 -129774.7,-53130 l -44308.2,229075 -111045.8,-24758 c -19493.9,-111373 -36820.9,-151566 -92397.5,-190795 -21946.8,-22746 -25648.6,-33868 -21851.8,-65656 3609.4,-30197 -924.2,-45863 -21489.1,-74255 -14335.2,-19791 -30784.1,-37224 -36554.2,-38742 -7086.4,-1864 -16871.1,18453 -30150.9,62605 l -19660.7,65364 -34321.7,-612 c -51193.5,-892 -105581.1,38295 -134592.5,96988 -12897.6,26091 -26115.6,51896 -29374.1,57345 l -215014,-72067 -44776.5,-70401 c -24627.6,-38721 -45435.9,-70565 -46239.6,-70765 -805.6,-183 -34589.1,17995 -75077.4,40437 l -73616.7,40804 -120676.3,-30167 c -66371.1,-16592 -121968.9,-34212 -123549.5,-39154 -2797.6,-8744 69818.2,-67910 101002.6,-82295 8552.7,-3949 26864.4,-3466 40693.8,1064 21856.8,7161 26350.5,5117 34371.1,-15605 14901.6,-38505 10881.9,-65503 -12834.6,-86198 -48237.3,-42092 -88263.5,-28732 -175472.3,58570 -31477.4,31512 -74862,66114 -96409.7,76892 -38158.4,19088 -41011.6,19071 -109723.8,-673 l -70545.6,-20269 52213.2,-219221 c 28717.2,-120570 50683.3,-225750 48814.9,-233733 -4789.6,-20463 -52590.4,-69527 -64237.3,-65936 -5882.4,1815 -38824.7,115333 -83875.4,289047 -71228.8,274654 -73669.2,286916 -61198.6,307524 12487.4,20635 24606.3,24368 313501.8,96589 295194.4,73795 300624.8,75489 306856.3,95685 3490.7,11309 18976.2,31576 34416.7,45039 48390.3,42193 106545.9,46716 166865.3,12973 l 33193.4,-18568 c 0,0 209358.2,72878 399962.5,110576 195265.3,38620 354689.6,62423 354689.6,62423 l -9901.5,56732 c -15125.8,178187 243137.9,167659 258999.8,96503 z"
         style="fill:#efbb22;fill-opacity:1"
         id="path2300" />
      <path
         inkscape:connector-curvature="0"
         d="m 5292477.2,10871920 c -18704.6,-30910 4046.5,-57546 41212.7,-48254 16425.2,4108 32301,30533 28092.1,46763 -2316.8,8937 -36012.8,24126 -47275,21311 -6503.2,-1626 -16417.1,-10545 -22029.8,-19820 z"
         style="fill:#ffffff;fill-opacity:1"
         id="path2298" />
      <path
         inkscape:connector-curvature="0"
         d="m 6318828.3,10977982 c 5045.6,-27656 10650.2,-37553 22022.3,-38866 27449.5,-3173 61158.1,70976 40968.5,90117 -4059,3851 -21416.5,2243 -38569.3,-3577 -30128.5,-10213 -30957.2,-11830 -24421.5,-47676 z"
         style="fill:#ffffff;fill-opacity:1"
         id="path2296" />
      <path
         inkscape:connector-curvature="0"
         d="m 5936372,10925693 c 2160.6,-18791 8668.1,-37284 14455.7,-41097 14984.6,-9873 47321.2,44583 42060.1,70830 -3690.6,18403 -7599.8,19937 -32322.3,12682 -25870.9,-7591 -27811.1,-10993 -24193.5,-42415 z"
         style="fill:#ffffff;fill-opacity:1"
         id="path2294" />
      <path
         inkscape:connector-curvature="0"
         d="m 5785140,10903943 c 2860.1,-28921 37016.4,-57590 52169,-43789 9171.5,8354 -630.7,70086 -12352.5,77811 -4115.3,2708 -15357.5,2225 -24981.7,-1082 -12534.9,-4304 -16743.7,-13650 -14834.8,-32944 z"
         style="fill:#ffffff;fill-opacity:1"
         id="path2292" />
      <path
         inkscape:connector-curvature="0"
         d="m 9486774.9,10139684 c 16104.1,-29596 13513.3,-88787 -4340,-99159 -7234.3,-4200 -27580.3,5398 -59556.7,28094 l -48568.8,34477 -65780.7,-74401 c -73310.3,-82917.5 -86519.4,-89326.5 -155911.9,-75645.9 -42462.9,8371.3 -42728.3,11054.9 -6188.4,62663.9 l 23138.5,32680 -60911.1,50661 -60911.3,50660 -10615.7,-23172 c -57072.6,-124587 -111240.9,-136492.1 -219991.5,-48348 -43357.8,35143 -69726,51218 -90561.6,55213 -16165.8,3099 -30964.2,9896 -32883.1,15105 -3821.8,10372 48452.6,79035 69465.6,91243 10658.1,6191 25405.9,-1950 78882.3,-43554 69645.4,-54181 80713.3,-56900 96032.4,-23593 17458.5,37957 -4883.3,66226 -121070.5,153180 l -105469.7,78934 -145903.8,-173680 c -80246.8,-95525 -152120.9,-176447 -159719.3,-179828 -19480.5,-8665 -88200.4,-1094 -92354.2,10178 -2098.2,5692 69491.7,99762 182197.6,239415 151469.6,187683 189488.8,231080 206487.2,235693 19794.6,5373 33925.3,-4249 283165.7,-192798 l 262331.5,-198450 34205.1,33174 c 19031.5,18458 45146.1,35053 58867.9,37408 53965.4,9266 117532.3,-23897 145963.7,-76150 z"
         style="fill:#efbb22;fill-opacity:1"
         id="path2290" />
      <path
         inkscape:connector-curvature="0"
         d="m 8599680.5,10659272 c 374.7,-4878 -80539,-102483 -179857.2,-216900 l -180577.3,-208032 -57468.5,-4499 c -37489.1,-2934 -57812.6,-244 -58458.3,7681 -624.5,7610 76161.6,99718 204551.3,245391 l 205541.1,233209 32773.8,-23989 c 18026.2,-13195 33098,-27981 33495.1,-32859 z"
         style="fill:#efbb22;fill-opacity:1"
         id="path2282" />
      <path
         inkscape:connector-curvature="0"
         d="m 4440782.2,10680863 c 4496.2,-2115 49759.1,-119871 100588.6,-261678 l 92418.1,-257830 -24921.1,-51040 c -16257.3,-33297 -28824,-49205 -36145.8,-45758 -7011.5,3301 -49525,114764 -113264.6,296956 l -102039.2,291674 37594.6,15761 c 20678.5,8668 41274.5,14029 45769.4,11915 z"
         style="fill:#efbb22;fill-opacity:1"
         id="path2276" />
      <path
         inkscape:connector-curvature="0"
         d="m 4096676.1,10431485 c 6244.6,-3705 22457.5,-22774 36034.6,-42377 l 24685.7,-35641 -110822.3,-90153 -110821.6,-90154 16031.8,-24830 c 27260.4,-42222 38969.7,-39406 132323.8,31829 94073.6,71784 91397.1,71474 135275,15666 36543.6,-46476 36118.4,-60200 -1960.8,-63246 -24000,-1919 -44634.1,-13182 -98402.3,-53710 -102320.8,-77127 -107187.3,-79596.2 -147182.3,-74673 -36800.2,4530 -37018.8,4719 -105410,91115 -59388.3,75023 -68020.9,89439 -64683.8,108018 3309.7,18424 23531.7,36458 143715.9,128166 112226,85635 142106.6,105394 151213.2,99990 z"
         style="fill:#efbb22;fill-opacity:1"
         id="path2274" />
      <path
         inkscape:connector-curvature="0"
         d="m 2823104.3,9473297.9 c 4983.2,-183.4 94738,-90021.2 199457.3,-199697.2 l 190399.5,-199410.4 -1860.9,-56573.3 c -1211.4,-36904.2 -6182.1,-56435.6 -14300.8,-56178.3 -7770.8,244.6 -92427.4,85441.8 -225536.2,226972.1 l -213096.2,226577.7 27939.7,29298.3 c 15367.4,16114.8 32015.6,29169.4 36997.6,29011.1 z"
         style="fill:#efbb22;fill-opacity:1"
         id="path2270" />
      <path
         inkscape:connector-curvature="0"
         d="m 6841474.6,11241670 c 28131.7,-19673 53238.5,-73465 42281.9,-90588 -4471.2,-6988 -27034.6,-7601 -66048,-1791 l -59257,8821 -23789.2,-95714 c -19855.8,-79886 -27341.1,-98309 -45266,-111408 -25613.3,-18719 -90049.5,-38062 -96302.2,-28910 -8651.2,12663 51087.2,284181 66821,303709 37109.5,46058 127148.9,53935 181559.5,15882 z"
         style="fill:#efbb22;fill-opacity:1"
         id="path2288" />
      <path
         inkscape:connector-curvature="0"
         d="m 7223390.4,11197972 c 24530.4,-28034 20319.1,-51654 -13135.4,-73688 -32426.7,-21357 -54616.7,-17442 -74085.9,13071 -19542.3,30628 -14260.1,54844 16029.1,73473 30209.2,18581 46212.7,15691 71192.2,-12856 z"
         style="fill:#efbb22;fill-opacity:1"
         id="path2304" />
      <path
         inkscape:connector-curvature="0"
         d="m 7070337.1,11228232 c 7792,-11404 12211.3,-30477 9821.5,-42385 -5220.5,-26006 -39773.4,-50786 -64223.9,-46056 -24449.9,4731 -46847.8,40526 -41628.7,66532 5220.6,26007 39772.8,50786 64222.7,46055 9702.8,-1876 24017.1,-12742 31808.4,-24146 z"
         style="fill:#efbb22;fill-opacity:1"
         id="path2302" />
      <path
         inkscape:connector-curvature="0"
         d="m 7452791.2,10963012 c 4383.7,-24787 -122113.9,-606831 -132156.4,-608089 -5482.8,-685 -22941.9,15042 -38803,34954 l -28837.3,36204 40545.2,224869 40543.9,224869 -167600.5,32422 -167600.4,32421 -13885.3,-42298 c -7637.1,-23264 -17872.6,-47600 -22745.8,-54081 -12647.1,-16816 -80284.2,-47965 -88296.6,-40663 -3696.8,3374 3790.5,58509 16635.5,122533 32985.5,164369 5395.3,155870 312864.2,96393 190321.8,-36817 247743.5,-50528 249336.5,-59534 z"
         style="fill:#efbb22;fill-opacity:1"
         id="path2278" />
      <path
         inkscape:connector-curvature="0"
         d="m 8115239.4,10766830 c 6244.6,-14330 3284.6,-35522 -10402.8,-74576 -21192.8,-60463 -40992.3,-78751 -97062.7,-89657 -36593.7,-7117 -38000,-3350 -21142.8,56724 l 10768.1,38371 -143085.6,50911 c -158376.7,56353 -156473.4,56331 -175749,2042 -9317.5,-26246 -19690.3,-36188 -55808.7,-53491 -75582.2,-36210 -77870.8,-29088 -32371.7,100719 55402.2,158063 30711.9,152990 300669.8,61778 197943.9,-66880 216176.1,-74429 224185.4,-92818 z"
         style="fill:#efbb22;fill-opacity:1"
         id="path2280" />
      <path
         inkscape:connector-curvature="0"
         d="m 7869878.1,10446042 c 9386.2,-14287 13405.2,-33230 9446.7,-44522 -7162.5,-20434 -54417.4,-42292 -75807.5,-35065 -16280.1,5502 -40471.5,55965 -34709,72405 5763.8,16440 56461.3,41603 72742,36102 6596.1,-2225 19342.5,-15242 28327.8,-28920 z"
         style="fill:#efbb22;fill-opacity:1"
         id="path2268" />
      <path
         inkscape:connector-curvature="0"
         d="m 7725770.9,10491167 c 7527.1,-15146 11591.7,-33514 9031.5,-40817 -6026.1,-17185 -56772.9,-41496 -74274.5,-35583 -17502.3,5917 -42266.3,55740 -36242.8,72924 6026.1,17184 56773.6,41497 74275.2,35584 7439.1,-2513 19682.8,-16963 27210.6,-32108 z"
         style="fill:#efbb22;fill-opacity:1"
         id="path2266" />
      <path
         inkscape:connector-curvature="0"
         d="m 3630624.7,10117810 c 22955.9,-11174 426496,-455275.7 421596.5,-463974.1 -2672.8,-4743.8 -25916.5,-9284.6 -51650,-10083 l -46788.6,-1454.9 -160824.3,164980.8 -160823.6,164980.7 -120501.5,-105641.3 c -66275.5,-58102.7 -123054.9,-110698.8 -126175.3,-116879.1 -7393.6,-14644 11865.4,-21154.5 84835.8,-28683.4 47546.1,-4902.7 59599.5,-2573.6 76002.2,14708.8 17320.8,18248.9 21683.9,18679.2 39145.8,3857.4 31737.7,-26938.1 41258.9,-52572.8 30396.3,-81842.4 -22093.5,-59533.2 -63778.9,-66437.4 -182754.8,-30266.1 -42943.1,13056.4 -97822.2,23281.2 -121953.3,22721.3 l -43874.8,-1014.8 -68898.3,-65678.7 -68898.3,-65678.7 29091.9,-38038.9 c 24797.4,-32422.1 28528.6,-44548.7 25272,-82143.8 -6561.8,-75749.4 -12504.8,-74324.4 -106067.6,25448.9 -74091.9,79007.8 -82108.2,90130.6 -81162.7,112612.2 1017.9,24238.5 9867.1,32918.5 312121.1,306144.8 243569.5,220177.3 313425.7,280053.3 321911.5,275923.3 z"
         style="fill:#efbb22;fill-opacity:1"
         id="path2272" />
      <path
         inkscape:connector-curvature="0"
         d="m 3423040.6,9387838.3 c 17150.3,-690.7 36788.4,-7239.7 43639.4,-14546.1 16688.1,-17794.7 13991.7,-59889.6 -4933.3,-76993.5 -19234.7,-17388.1 -65181.5,-17658.9 -81290.7,-489 -14571.3,15537.7 -13997.4,70326.5 874.2,83772.3 5788.8,5232.8 24554.5,8944.7 41704.2,8247.8 z"
         style="fill:#efbb22;fill-opacity:1"
         id="path2264" />
      <path
         inkscape:connector-curvature="0"
         d="m 3310600.4,9286196.8 c 17150.8,-690.8 36787.1,-7241 43638.7,-14547.4 25520.6,-27214.4 5414.1,-86033.5 -31343.7,-91687 -41141.5,-6329.5 -78443.8,37097.5 -64827.4,75470.7 9722.9,27399.6 17867.8,32168.5 52532.4,30763.7 z"
         style="fill:#efbb22;fill-opacity:1"
         id="path2262" />
      <path
         inkscape:connector-curvature="0"
         d="m 9716062.8,10017563 c 3615.6,-37773.3 -29268.8,-66725.6 -66535,-58580.5 -24804.6,5422.3 -28573.8,8714.2 -36942.1,32272.3 -12447.9,35041.2 9739.6,66389.2 49466.2,69890.2 36198.3,3192 50650.7,-8471 54010.9,-43582 z"
         style="fill:#efbb22;fill-opacity:1"
         id="path2312" />
      <path
         inkscape:connector-curvature="0"
         d="m 10022527,9738281.3 c 6635,-36379.8 -9207,-54630.5 -49423.1,-56936.4 -38980.3,-2231.3 -56072.9,12200 -57067,48192.2 -999.2,36127.9 16076.5,54357.8 51804.7,55309 35635.4,947.5 47928.4,-9518.7 54685.4,-46564.8 z"
         style="fill:#efbb22;fill-opacity:1"
         id="path2308" />
      <path
         inkscape:connector-curvature="0"
         d="m 9906317.2,9840646 c 818.1,-13708.7 -5239.2,-32343.9 -13458.2,-41411.5 -17944.4,-19803.4 -60527.8,-23926.7 -79145.9,-7663.4 -18618.7,16263.4 -19403.7,58267.2 -1461.2,78070.6 17945,19802.9 60527.7,23926.2 79146.4,7663.4 7389.3,-6454.2 14101.5,-22951.1 14917,-36659.1 z"
         style="fill:#efbb22;fill-opacity:1"
         id="path2306" />
      <path
         inkscape:connector-curvature="0"
         d="m 10241815,9303420.5 c 249,-4566.5 -21274,-32271.8 -47878,-61559.7 -38341,-42209.2 -57859,-57213.3 -94129,-72357.3 -75220,-31407.3 -108919.7,-27636.8 -188344.7,21076.8 -37770.1,23165.1 -79195.8,43741.2 -92057,45724.3 -12861.3,1986.8 -26423.3,6261 -30137.4,9505.3 -4071.5,3557.8 22725.1,39902.7 67561.5,91625.2 l 74313.8,85727.3 -117549.1,102677.7 -117549.3,102677.7 -33836.6,-29519 c -18609.3,-16235.2 -39983.2,-32124.4 -47496.6,-35308.7 -15145.6,-6419.4 -85387.9,-2213 -94393.9,5654.6 -3153.5,2750.9 16962.8,33033.4 44696.7,67291.3 l 50425.3,62288.4 -70529.7,61606.2 -70529,61606.7 -35659.5,-32203.3 c -30394.6,-27449.7 -42313.6,-32299.8 -80738.8,-32856.1 -77423.6,-1118.7 -76569.3,4823.2 15247.4,106153.6 72707.7,80237.1 83182.9,89174.5 106062.3,90485.7 24768.3,1424.4 34341.8,-6367.4 393706.6,-320266.7 202576,-176947.2 368543,-325461.7 368815,-330030.6 z"
         style="fill:#efbb22;fill-opacity:1"
         id="path2286" />
      <path
         inkscape:connector-curvature="0"
         d="m 9984939.1,9323168.3 c -21223.9,-23421.2 -24688.4,-32306.6 -16628.5,-42641.4 19029.5,-24401.8 50391.4,-33735.3 81701.4,-24315.6 47534,14300.5 47823,28965.2 1293,65492.3 l -39556,31051.6 -26809.9,-29586.9 z"
         style="fill:#ffffff;fill-opacity:1"
         id="path2284" />
      <path
         inkscape:connector-curvature="0"
         d="m 9877007.2,8951134.5 c 2204.4,-37086.5 -14055.8,-57077.6 -48013.7,-59023.4 -50320.4,-2879.3 -75249.2,49758.3 -41302.7,87220.1 17516,19330.3 60751.3,25755.2 77117,11459.7 5707.6,-4982.2 11199,-22833.1 12199.4,-39656.4 z"
         style="fill:#efbb22;fill-opacity:1"
         id="path2260" />
      <path
         inkscape:connector-curvature="0"
         d="m 9762817,9050878.5 c 2273,-38271.8 -12426,-55052.9 -49084.7,-56029.8 -35709.4,-947.5 -54639.8,15062.1 -57883.8,48961.8 -3147.3,32901.4 10951,48905.6 48977.9,55591.5 37053.9,6514.7 55642.6,-9039.5 57990.6,-48523.5 z"
         style="fill:#efbb22;fill-opacity:1"
         id="path2256" />
    </g>
  </g>
  <g
     style="fill-rule:evenodd"
     inkscape:path-effect="#path-effect3044-8"
     transform="matrix(0.99895853,0,0,0.97678493,352.24867,192.8153)"
     id="g2951">
    <path
       inkscape:connector-curvature="0"
       inkscape:original-d="m 51.388279,182.4908 c 0.09373,-0.5184 0.464846,-0.79879 0.8134,-0.71721 0.376761,0.0882 0.584565,0.54848 0.49854,1.02429 -0.08349,0.46176 -0.422183,0.80878 -0.8134,0.71721 -0.354204,-0.0829 -0.594744,-0.49219 -0.49854,-1.02429 z m -1.795019,-0.42014 c 0.09053,-0.50072 0.447491,-0.80286 0.8134,-0.71721 0.382334,0.0895 0.576686,0.56274 0.493455,1.02309 -0.08372,0.46305 -0.41663,0.81008 -0.808315,0.7184 -0.354204,-0.0829 -0.594744,-0.49218 -0.49854,-1.02428 z m -1.730313,8.54433 0.330726,-1.82925 c 0.09641,-0.53325 0.265313,-0.99254 0.504025,-1.38062 0.415476,-0.67544 0.848995,-1.06066 1.311529,-1.15643 0.03295,-0.006 0.426533,0.0154 1.187051,0.0597 0.492816,0.0287 0.930562,-0.13398 1.32516,-0.49893 l -0.699284,3.86774 3.1273,0.73198 c 0.170854,-0.945 0.309273,-1.50333 0.424494,-1.67362 0.09439,-0.13951 0.504638,-0.4166 1.227526,-0.83839 l -0.502801,2.781 2.293353,0.53678 c 0.128141,-0.70875 0.217636,-1.14512 0.273571,-1.30791 0.07444,-0.23586 0.210113,-0.42925 0.407005,-0.58016 l 0.971444,-0.62394 -0.502801,2.781 3.18832,0.74626 c 0.170855,-0.945 0.309273,-1.50333 0.424494,-1.67362 0.09439,-0.13951 0.504638,-0.41659 1.227526,-0.83839 l -0.502801,2.781 1.723829,0.40348 1.203304,-6.65549 c 0.07444,-0.41175 0.258725,-0.72743 0.552843,-0.94705 l 0.905135,-0.49171 -1.512063,8.36324 1.622127,0.37967 1.203305,-6.65549 c 0.07444,-0.41175 0.258725,-0.72743 0.552842,-0.94705 l 0.905136,-0.49171 -1.698783,9.39599 c -0.07614,0.42114 -0.391343,0.69639 -0.711293,0.6215 l -20.762219,-4.85962 z m 1.485843,-1.6222 -0.01322,0.10244 1.337365,0.31302 0.258723,-1.431 -0.32585,-0.13255 c -0.269507,-0.0631 -0.539217,0.0215 -0.79896,0.25624 -0.264828,0.23351 -0.414937,0.53609 -0.458058,0.89185 z m 4.693504,5.31995 c 0.09348,-0.51701 0.452617,-0.80166 0.813401,-0.71722 0.382344,0.0895 0.576685,0.56275 0.493454,1.0231 -0.08379,0.46347 -0.417937,0.80274 -0.807095,0.71165 -0.357478,-0.0837 -0.593486,-0.49914 -0.49976,-1.01753 z M 52.24219,193.8914 c 0.09502,-0.52555 0.460905,-0.79972 0.818485,-0.71602 0.382345,0.0895 0.576686,0.56275 0.493455,1.0231 -0.08591,0.47517 -0.436395,0.79841 -0.807095,0.71165 -0.366885,-0.0859 -0.598076,-0.50307 -0.504845,-1.01873 z m 4.805973,1.20932 c 0.09052,-0.50068 0.447481,-0.80286 0.813401,-0.71721 0.382344,0.0895 0.576685,0.56274 0.493454,1.02309 -0.08372,0.46306 -0.416614,0.81009 -0.808315,0.71841 -0.354224,-0.0829 -0.594746,-0.49217 -0.49854,-1.02429 z m 4.774242,1.03304 c 0.09347,-0.51701 0.452617,-0.80166 0.813401,-0.71721 0.382344,0.0895 0.576685,0.56274 0.493455,1.02309 -0.0838,0.46347 -0.417937,0.80274 -0.807095,0.71165 -0.357479,-0.0837 -0.593487,-0.49913 -0.499761,-1.01753 z m -1.800104,-0.42134 c 0.09502,-0.52554 0.460906,-0.79971 0.818486,-0.71602 0.382344,0.0895 0.576685,0.56275 0.493454,1.0231 -0.08591,0.47518 -0.436395,0.79841 -0.807095,0.71165 -0.366885,-0.0859 -0.598075,-0.50307 -0.504845,-1.01873 z m 10.896218,0.29898 1.519385,-8.40374 c 0.07078,-0.3915 0.261369,-0.71274 0.570539,-0.95698 l 0.894761,-0.52228 -1.835466,10.15199 -1.149219,-0.26899 z"
       style="fill:#efbb22;fill-opacity:1"
       d="m 53.384327,183.72051 c 0.22445,-0.47675 0.649572,-0.65318 0.959813,-0.48641 0.335342,0.18028 0.415891,0.6775 0.212239,1.11625 -0.197644,0.42578 -0.611177,0.67591 -0.961959,0.48746 -0.317596,-0.17061 -0.440472,-0.62794 -0.210093,-1.1173 z m -1.596905,-0.87106 c 0.220069,-0.45883 0.638645,-0.6569 0.962796,-0.47963 0.3387,0.18523 0.399207,0.6919 0.199062,1.11485 -0.201319,0.42543 -0.61088,0.67408 -0.96034,0.48306 -0.316021,-0.17273 -0.435379,-0.63069 -0.201518,-1.11828 z m -3.986308,7.7569 c 0.275323,-0.55554 0.549926,-1.1114 0.823801,-1.66759 0.239513,-0.4864 0.528844,-0.88187 0.865543,-1.19042 0.586018,-0.53702 1.107871,-0.79174 1.580424,-0.76101 0.03345,0.003 0.407891,0.12911 1.132372,0.37079 0.469466,0.1566 0.93607,0.11258 1.4111,-0.13959 -0.555599,1.18755 -1.114812,2.3737 -1.677559,3.55846 0.960425,0.50999 1.92579,1.01424 2.896301,1.51222 0.401341,-0.87394 0.673643,-1.38157 0.828345,-1.51841 0.126735,-0.1121 0.597493,-0.27904 1.406155,-0.51511 -0.385477,0.86069 -0.772979,1.72068 -1.162475,2.57996 0.714503,0.36177 1.431815,0.72007 2.152017,1.0747 0.29116,-0.66001 0.479908,-1.06423 0.57266,-1.20977 0.127846,-0.2124 0.306319,-0.36923 0.535222,-0.47087 0.367309,-0.12798 0.733836,-0.2569 1.099554,-0.38679 -0.372035,0.86661 -0.746229,1.73254 -1.122552,2.59779 1.005311,0.48785 2.016286,0.96844 3.033144,1.44121 0.37039,-0.88765 0.624764,-1.40465 0.775183,-1.54689 0.123226,-0.11653 0.590705,-0.29994 1.395159,-0.56511 -0.353837,0.87405 -0.710004,1.74745 -1.06847,2.62017 0.552093,0.25254 1.105928,0.50273 1.661541,0.75051 0.839965,-2.09571 1.666372,-4.1952 2.478809,-6.29839 0.150784,-0.39035 0.390262,-0.66564 0.717699,-0.82698 0.324455,-0.10518 0.648185,-0.21122 0.971172,-0.31814 -0.995664,2.6511 -2.013961,5.29641 -3.054075,7.93581 0.525078,0.23008 1.051749,0.45796 1.580044,0.68358 0.810048,-2.10711 1.605915,-4.21792 2.38719,-6.33237 0.144999,-0.39244 0.380664,-0.67116 0.706223,-0.83732 0.323456,-0.10998 0.646153,-0.22084 0.968073,-0.3326 -1.073367,2.99428 -2.176543,5.98142 -3.308369,8.96122 -0.152188,0.40068 -0.526026,0.61364 -0.842172,0.48002 -6.838458,-2.89012 -13.399027,-6.1556 -19.742048,-9.64912 -4e-6,2e-5 -8e-6,3e-5 -1.1e-5,4e-5 z m 1.894409,-1.15162 c -0.01348,0.0317 -0.02696,0.0634 -0.04043,0.0951 0.407414,0.22187 0.815702,0.44277 1.224879,0.66264 0.210179,-0.43731 0.419887,-0.87481 0.629119,-1.31251 -0.09422,-0.0714 -0.188357,-0.14284 -0.282424,-0.21434 -0.245679,-0.13251 -0.530214,-0.12291 -0.845729,0.0335 -0.320137,0.15384 -0.547732,0.40457 -0.685411,0.73562 z m 3.266065,6.38822 c 0.223009,-0.47681 0.653075,-0.66024 0.993814,-0.48646 0.361097,0.18419 0.441046,0.69242 0.244775,1.11812 -0.197596,0.42858 -0.618603,0.67265 -0.988712,0.48392 -0.339973,-0.1734 -0.473478,-0.63749 -0.249877,-1.11558 z m -1.696391,-0.88072 c 0.230179,-0.4829 0.664864,-0.65125 1.0004,-0.47656 0.358773,0.18679 0.434257,0.69551 0.234852,1.11965 -0.205825,0.43779 -0.64023,0.65881 -0.990439,0.47651 -0.346597,-0.18046 -0.470659,-0.64578 -0.244813,-1.1196 z m 4.534254,2.40555 c 0.21015,-0.46458 0.64121,-0.67106 0.99077,-0.4992 0.365249,0.17958 0.453067,0.68682 0.262282,1.1151 -0.191908,0.43082 -0.611689,0.68823 -0.988645,0.50299 -0.340891,-0.16752 -0.487755,-0.62514 -0.264407,-1.11889 z m 4.626241,2.13175 c 0.206611,-0.48438 0.633542,-0.68262 0.984332,-0.52082 0.371751,0.17147 0.472685,0.67659 0.291384,1.10901 -0.182536,0.43535 -0.598242,0.69416 -0.979617,0.51837 -0.350325,-0.1615 -0.503271,-0.62088 -0.296099,-1.10656 z m -1.746651,-0.82301 c 0.214111,-0.49059 0.646371,-0.67349 0.991671,-0.5102 0.36921,0.1746 0.465065,0.6806 0.28011,1.11147 -0.190911,0.44475 -0.621216,0.68056 -0.981948,0.51008 -0.357012,-0.16876 -0.499914,-0.62998 -0.289833,-1.11135 z m 11.140464,2.52273 c 0.991937,-2.673 1.960413,-5.35181 2.9046,-8.0363 0.131956,-0.37518 0.370738,-0.66199 0.712924,-0.85532 0.320579,-0.12575 0.64032,-0.25241 0.959202,-0.37998 -1.106931,3.25285 -2.250161,6.49754 -3.428229,9.73383 -0.383711,-0.15286 -0.76654,-0.30694 -1.148497,-0.46223 z"
       id="path174" />
    <path
       inkscape:connector-curvature="0"
       inkscape:original-d="m 79.776793,187.90934 c 0.02449,-0.5264 0.356689,-0.88418 0.714474,-0.88418 0.386738,0 0.654687,0.40103 0.632211,0.88418 -0.02181,0.46889 -0.312895,0.88418 -0.714473,0.88418 -0.363584,0 -0.657346,-0.34387 -0.632212,-0.88418 z m -1.842558,0 c 0.02365,-0.50844 0.338874,-0.88418 0.714474,-0.88418 0.392459,0 0.648737,0.41673 0.626992,0.88418 -0.02187,0.47019 -0.307195,0.88418 -0.709254,0.88418 -0.363584,0 -0.657346,-0.34387 -0.632212,-0.88418 z m -0.588259,8.71844 0.08641,-1.85747 c 0.02519,-0.54147 0.132353,-1.02742 0.31846,-1.45992 0.323917,-0.75276 0.704317,-1.22689 1.152019,-1.42566 0.03196,-0.0137 0.426622,-0.0822 1.189538,-0.21248 0.49437,-0.0844 0.908513,-0.3427 1.25286,-0.78822 l -0.182698,3.92741 2.792545,0 c 0.04464,-0.95958 0.108313,-1.53507 0.200402,-1.72724 0.07544,-0.15743 0.447029,-0.52091 1.110616,-1.09666 l -0.131363,2.8239 2.354089,0 c 0.03348,-0.71968 0.06464,-1.1652 0.09871,-1.33656 0.0428,-0.24674 0.152175,-0.46608 0.328133,-0.65799 l 0.884173,-0.82935 -0.180147,3.87258 c -0.01974,0.42444 -0.327962,0.76766 -0.682954,0.76766 l -10.590792,0 z m 1.263711,-1.91915 4.37e-4,0.10281 1.372784,0 0.0676,-1.45308 -0.34195,-0.0548 c -0.276645,0 -0.533887,0.14394 -0.761286,0.43181 -0.23262,0.28787 -0.341879,0.61687 -0.33758,0.97329 z m 5.117139,4.11247 c 0.02442,-0.52499 0.344135,-0.88418 0.714473,-0.88418 0.39247,0 0.648737,0.41673 0.626992,0.88418 -0.02189,0.47062 -0.30947,0.87733 -0.708935,0.87733 -0.366945,0 -0.657017,-0.35094 -0.63253,-0.87733 z m -1.847778,0 c 0.02483,-0.53366 0.352644,-0.88418 0.719694,-0.88418 0.39247,0 0.648737,0.41673 0.626992,0.88418 -0.02245,0.48251 -0.328418,0.87733 -0.708935,0.87733 -0.376602,0 -0.662108,-0.35372 -0.637751,-0.87733 z m 4.944459,0.0822 c 0.02365,-0.50841 0.338863,-0.88418 0.714474,-0.88418 0.39247,0 0.648737,0.41673 0.626992,0.88418 -0.02187,0.4702 -0.30718,0.88418 -0.709254,0.88418 -0.363605,0 -0.657347,-0.34386 -0.632212,-0.88418 z m 2.69546,-1.39139 1.60767,0 c 0.0494,-1.06205 0.02873,-1.96403 0.05023,-2.42636 0.02296,-0.49349 0.12369,-0.86362 0.307419,-1.11036 0.167432,-0.23304 0.573896,-0.55519 1.21481,-0.98014 l -0.08598,1.84826 0.0057,-0.0114 2.025248,0 c -0.27126,-0.45237 -0.395412,-0.92531 -0.372455,-1.4188 0.06654,-1.43035 0.679518,-1.78893 1.617813,-1.78893 0.21098,0 0.820446,0.048 1.151324,0.048 0.386258,0 0.706975,-0.27416 0.962469,-0.82935 l -0.119248,2.56344 -2.082664,0 c -0.07499,0.0411 -0.131013,0.12338 -0.178828,0.25361 -0.03731,0.80193 0.393097,1.19947 1.296107,1.19947 0.898051,0 0.899865,-0.048 0.900022,-0.048 l 1.665087,0 0.314381,-6.75816 c 0.01945,-0.41811 0.160983,-0.76767 0.424608,-1.04868 l 0.83572,-0.68542 -0.44383,9.54094 c -0.0199,0.42764 -0.29712,0.76766 -0.625545,0.76766 l -7.458966,0 -0.04113,0.88418 c -0.02296,0.4935 -0.19836,0.89789 -0.52099,1.21318 -0.295575,0.29473 -0.636332,0.43866 -1.02259,0.43866 -0.412357,0 -0.750481,-0.13708 -1.014372,-0.41124 -0.299154,-0.30158 -0.436296,-0.71969 -0.412063,-1.2406 z m 12.563213,-0.88418 0.39696,-8.53338 c 0.0185,-0.39754 0.16557,-0.75395 0.4409,-1.06239 l 0.82134,-0.71283 -0.47954,10.3086 -1.17966,0 z"
       style="fill:#efbb22;fill-opacity:1"
       d="m 79.967798,194.46597 c 0.08417,-0.51964 0.453478,-0.83704 0.807715,-0.79809 0.382903,0.0421 0.606332,0.46824 0.533255,0.94581 -0.07092,0.46348 -0.406241,0.84539 -0.808391,0.80099 -0.364103,-0.0402 -0.618968,-0.41534 -0.532579,-0.94871 z m -1.833333,-0.22104 c 0.08717,-0.50099 0.445843,-0.83389 0.817438,-0.78856 0.388275,0.0474 0.59337,0.49042 0.517147,0.95164 -0.07667,0.46392 -0.410704,0.84121 -0.812925,0.79199 -0.36373,-0.0445 -0.614298,-0.42267 -0.52166,-0.95507 z m -1.708208,8.56296 c 0.109958,-0.60954 0.219586,-1.21912 0.328886,-1.82875 0.09559,-0.53314 0.268679,-1.00028 0.514629,-1.40458 0.428072,-0.70367 0.874334,-1.1253 1.354705,-1.26765 0.03423,-0.01 0.445238,-0.0279 1.237712,-0.0699 0.513521,-0.0272 0.963908,-0.23857 1.359702,-0.64478 -0.197305,1.29419 -0.396164,2.58818 -0.596571,3.88199 0.968933,0.10192 1.939205,0.19515 2.91075,0.27935 0.129303,-0.95085 0.244365,-1.51787 0.35573,-1.70102 0.09123,-0.15004 0.506598,-0.47814 1.231723,-0.99864 -0.117672,0.93393 -0.236189,1.86777 -0.355547,2.80152 0.8199,0.0645 1.640683,0.12252 2.462309,0.17384 0.07959,-0.71541 0.139303,-1.15764 0.185145,-1.32634 0.05951,-0.2433 0.186176,-0.45501 0.379303,-0.63562 0.320833,-0.25766 0.640036,-0.51639 0.957578,-0.77619 -0.129632,1.28473 -0.260921,2.5693 -0.393861,3.85372 -0.04371,0.42232 -0.389349,0.7469 -0.765748,0.7245 -3.743154,-0.22275 -7.466538,-0.58223 -11.166444,-1.06145 0,0 0,0 -10e-7,0 z m 1.557589,-1.73677 c -0.004,0.034 -0.008,0.068 -0.01198,0.10201 0.475084,0.0578 0.950506,0.11358 1.42626,0.16727 0.0778,-0.47813 0.155399,-0.95629 0.232786,-1.43448 -0.115412,-0.0314 -0.230766,-0.0628 -0.346061,-0.0944 -0.284885,-0.0327 -0.566167,0.079 -0.835007,0.33649 -0.274227,0.25683 -0.427339,0.56916 -0.465994,0.92315 0,-10e-6 -10e-7,-2e-5 -10e-7,-3e-5 z m 4.962223,4.65114 c 0.0722,-0.52005 0.443879,-0.84735 0.838421,-0.81443 0.418121,0.0349 0.658751,0.47117 0.598672,0.9348 -0.06048,0.46676 -0.402701,0.84738 -0.832994,0.81122 -0.395263,-0.0332 -0.67649,-0.41016 -0.604099,-0.93159 z m -1.975597,-0.18636 c 0.07988,-0.52771 0.462955,-0.84108 0.853149,-0.80374 0.417216,0.0399 0.65208,0.47907 0.586242,0.9419 -0.06796,0.47774 -0.433178,0.84044 -0.842079,0.8011 -0.404693,-0.0389 -0.675678,-0.42149 -0.597312,-0.93926 0,0 0,0 0,0 z m 5.291075,0.5268 c 0.05925,-0.50504 0.421002,-0.85683 0.82278,-0.83176 0.419812,0.0262 0.670515,0.45744 0.620405,0.92234 -0.0504,0.46764 -0.383199,0.86281 -0.81824,0.83535 -0.393417,-0.0248 -0.687919,-0.38919 -0.624945,-0.92593 z m 2.968132,-1.22025 c 0.572501,0.0278 1.145478,0.0523 1.718916,0.0736 0.09084,-1.05893 0.100636,-1.96077 0.139623,-2.42179 0.04163,-0.49208 0.160268,-0.85792 0.36033,-1.09793 0.182587,-0.2269 0.617433,-0.53407 1.292954,-0.94238 -0.04461,0.61512 -0.08962,1.2302 -0.135015,1.84525 0.0021,-0.004 0.0042,-0.007 0.0063,-0.0112 0.153852,0.004 0.307731,0.008 0.461635,0.0112 0.555225,0.0112 1.110264,0.0195 1.665106,0.0247 -0.279943,-0.45484 -0.402732,-0.9294 -0.372482,-1.4224 0.08768,-1.42893 0.721155,-1.77793 1.684512,-1.77645 0.216616,3.4e-4 0.842468,0.0473 1.182184,0.0452 0.396576,-0.002 0.723775,-0.27996 0.977634,-0.83784 -0.02986,0.85407 -0.0604,1.70813 -0.09163,2.56221 -0.720663,0.009 -1.441639,0.0125 -2.162897,0.0112 -0.07801,0.0409 -0.13648,0.123 -0.186713,0.253 -0.04172,0.80132 0.408206,1.20217 1.354869,1.19655 0.941464,-0.006 0.942612,-0.0564 0.942777,-0.0564 0.581419,-0.007 1.162595,-0.017 1.743513,-0.0303 0.05925,-2.25199 0.113814,-4.50393 0.163724,-6.75579 0.0093,-0.41795 0.142209,-0.77027 0.396899,-1.05792 0.27099,-0.23559 0.54073,-0.4719 0.80923,-0.70892 -0.0426,3.17922 -0.0944,6.35861 -0.15533,9.53815 -0.008,0.42754 -0.29142,0.77592 -0.63899,0.78505 -2.445081,0.0642 -4.895727,0.074 -7.35091,0.0254 -0.187397,-0.004 -0.37475,-0.009 -0.562057,-0.014 -0.02208,0.2942 -0.04425,0.5884 -0.06651,0.88258 -0.03728,0.49259 -0.236222,0.89187 -0.593965,1.19601 -0.327917,0.28452 -0.702086,0.4157 -1.120003,0.39952 -0.446155,-0.0173 -0.806381,-0.17022 -1.078597,-0.45695 -0.309001,-0.31585 -0.435741,-0.74059 -0.385139,-1.25928 1.8e-5,2e-5 3.6e-5,3e-5 5.5e-5,5e-5 z m 13.370721,-0.84618 c 0.0281,-2.84393 0.0489,-5.68771 0.0625,-8.53132 0.002,-0.39743 0.13411,-0.75903 0.39434,-1.07898 0.26184,-0.24921 0.52244,-0.49909 0.78181,-0.74962 0.0129,3.43503 0.0155,6.87035 0.008,10.30593 -0.41521,0.0195 -0.83058,0.0375 -1.24613,0.054 0,0 0,0 0,0 z"
       id="path176" />
    <path
       inkscape:connector-curvature="0"
       inkscape:original-d="m 110.40127,187.58527 c -0.0175,-0.52352 0.28636,-0.92266 0.64447,-0.97176 0.38709,-0.0531 0.68733,0.30641 0.70343,0.78691 0.0156,0.46632 -0.24253,0.91664 -0.64447,0.97176 -0.36391,0.0499 -0.68542,-0.24956 -0.70343,-0.78691 z m -1.84423,0.2529 c -0.0169,-0.50565 0.26854,-0.9202 0.64448,-0.97176 0.39281,-0.0539 0.68262,0.32274 0.6982,0.78763 0.0157,0.46762 -0.23683,0.91586 -0.63925,0.97105 -0.36391,0.0499 -0.68542,-0.24957 -0.70343,-0.78692 z m 0.10781,8.69575 -0.0619,-1.84729 c -0.0181,-0.5385 0.0504,-1.0334 0.2021,-1.48631 0.26406,-0.78829 0.60692,-1.30901 1.03915,-1.56687 0.0309,-0.0179 0.42044,-0.13983 1.17364,-0.37323 0.48807,-0.15125 0.88195,-0.46335 1.19101,-0.95084 l 0.13094,3.90589 3.00405,-0.41196 c -0.032,-0.95432 -0.0142,-1.53172 0.0626,-1.73425 0.0629,-0.16592 0.40581,-0.57609 1.024,-1.23609 l 0.12911,3.85136 c 0.0134,0.4011 -0.24143,0.80007 -0.60656,0.85015 l -7.2881,0.99944 z m 1.11152,-2.06984 0.009,0.10154 1.37403,-0.18843 -0.0484,-1.44511 -0.34664,-0.007 c -0.27689,0.038 -0.52287,0.21551 -0.72747,0.53118 -0.20983,0.31639 -0.2929,0.65648 -0.26012,1.00807 z m 5.24138,3.38997 c -0.0175,-0.5221 0.2738,-0.92092 0.64448,-0.97176 0.39282,-0.0539 0.68262,0.32275 0.6982,0.78764 0.0157,0.46804 -0.23965,0.90939 -0.63948,0.96422 -0.36727,0.0504 -0.68565,-0.25658 -0.7032,-0.7801 z m -1.84945,0.25363 c -0.0178,-0.53073 0.28232,-0.9221 0.6497,-0.97248 0.39283,-0.0539 0.68262,0.32274 0.69821,0.78763 0.0161,0.47987 -0.25862,0.912 -0.63948,0.96423 -0.37695,0.0517 -0.69097,-0.25864 -0.70843,-0.77938 z m 4.0053,-1.85722 1.60912,-0.22066 c -0.0354,-1.05624 -0.12817,-1.94468 -0.14358,-2.40447 -0.0165,-0.4908 0.0548,-0.87035 0.21898,-1.13939 0.14896,-0.25326 0.53005,-0.62737 1.13759,-1.13526 l 0.15059,4.49212 c 0.0165,0.4908 -0.1268,0.91447 -0.42453,1.2703 -0.27229,0.3318 -0.60186,0.5208 -0.98846,0.57382 -0.41274,0.0566 -0.76212,-0.0324 -1.04815,-0.26714 -0.32353,-0.25694 -0.4942,-0.65126 -0.51156,-1.16932 z m 4.55758,-1.50838 -0.0535,-1.59508 c -0.0368,-1.09746 0.10551,-1.91605 0.42702,-2.44847 0.21993,-0.36424 0.63249,-0.70305 1.23076,-1.01792 0.75191,-0.39574 1.2826,-0.72373 1.58807,-1.00529 l 0.12767,3.80826 0.005,-0.0121 1.51509,-0.20777 c 0.0564,-1.37431 1.05992,-3.10626 1.89241,-3.51227 -0.0164,-0.49079 0.003,-0.86319 0.0677,-1.1118 0.0506,-0.21238 0.16369,-0.44017 0.33969,-0.66974 l 0.69607,-0.84188 0.0809,2.41307 c 1.144,-0.15688 1.94941,0.85393 2.02229,3.02336 l 1.72438,-0.23647 c 0.12732,-0.59026 0.2982,-1.00395 1.03566,-1.75402 0.34066,-0.35898 0.43486,-0.93069 0.63403,-1.37709 0.22715,0.38794 0.35864,0.9287 0.72014,1.19139 0.22014,0.20416 0.86547,0.44934 1.16718,1.45193 l 2.968,-0.40701 -0.66692,-1.10693 c -0.32199,-0.52422 -0.57191,-0.77756 -0.74954,-0.7532 -0.14628,0.0201 -0.31866,0.2012 -0.5278,0.53804 l -0.0542,-1.61553 c 0.23615,-0.47065 0.5055,-0.73357 0.81897,-0.77655 0.32392,-0.0444 0.62494,0.16767 0.91306,0.62121 l 0.77468,1.50302 c 0.35133,0.65444 0.73257,1.11452 1.13837,1.37418 l 0.004,-0.0106 1.6666,-0.22855 -0.22531,-6.72114 c -0.0139,-0.41581 0.0998,-0.78065 0.34119,-1.09451 l 0.78172,-0.792 0.31808,9.48867 c 0.0145,0.43354 -0.24236,0.8002 -0.56476,0.84441 l -6.94788,0.9528 c -0.36752,1.22539 -1.22625,1.50761 -1.67378,1.56898 -0.59559,0.0817 -1.45703,-0.25215 -1.71234,-1.10463 l -8.44264,1.15778 0.0423,1.26106 c 0.0187,0.55896 -0.14485,1.03819 -0.48173,1.4425 -0.31388,0.3767 -0.68862,0.59433 -1.12225,0.65379 -0.46498,0.0638 -0.86729,-0.0386 -1.19672,-0.31524 -0.36669,-0.29211 -0.55986,-0.73128 -0.57951,-1.3175 l 2.19949,-0.30163 -0.0423,-1.26106 -2.19949,0.30162 z m 1.13061,-1.96974 0.99787,-0.13684 -0.0507,-1.51328 c -0.10449,0.0143 -0.22328,0.0717 -0.36205,0.15922 -0.41564,0.28298 -0.60885,0.78198 -0.58509,1.4909 z m 6.89626,-0.94571 0.7471,-0.10246 c -0.0317,-0.94634 -0.17068,-1.37601 -0.79737,-1.39719 l 0.0503,1.49965 z m -1.99573,0.27368 0.81501,-0.11177 -0.0507,-1.51328 c -0.46697,0.31741 -0.72173,0.8591 -0.76428,1.62505 z m 6.86084,-0.15335 c 0.014,0.41718 0.28227,0.7173 0.602,0.67346 0.31974,-0.0438 0.56554,-0.41448 0.55155,-0.83165 -0.014,-0.41717 -0.28227,-0.7173 -0.602,-0.67345 -0.31974,0.0438 -0.56554,0.41447 -0.55155,0.83164 z m 4.18421,2.72689 c -0.0177,-0.52675 0.28702,-0.92274 0.6497,-0.97247 0.39282,-0.0539 0.68262,0.32274 0.6982,0.78763 0.0159,0.47264 -0.2494,0.91758 -0.63925,0.97104 -0.37908,0.052 -0.69096,-0.25859 -0.70865,-0.7862 z m 7.17566,-3.25753 -0.2845,-8.48663 c -0.0132,-0.39536 0.10548,-0.76774 0.35641,-1.1103 l 0.8435,-0.82786 0.34368,10.25212 -1.25909,0.17267 z"
       style="fill:#efbb22;fill-opacity:1"
       d="m 110.5487,194.42925 c -0.0647,-0.51922 0.20088,-0.9436 0.55133,-1.02612 0.3788,-0.0892 0.7114,0.23862 0.77454,0.71475 0.0613,0.46208 -0.15278,0.9356 -0.55019,1.02868 -0.3598,0.0843 -0.70923,-0.18439 -0.77568,-0.71731 z m -1.81957,0.40897 c -0.057,-0.50207 0.19395,-0.93728 0.56309,-1.01991 0.3857,-0.0864 0.70613,0.26291 0.76226,0.72412 0.0565,0.46392 -0.15748,0.93249 -0.55678,1.02138 -0.36109,0.0804 -0.70793,-0.19204 -0.76857,-0.72559 z m 0.80344,8.64842 c -0.071,-0.61129 -0.14167,-1.2226 -0.21217,-1.83393 -0.0617,-0.53461 -0.0298,-1.03295 0.09,-1.49649 0.20854,-0.80679 0.51583,-1.35408 0.9348,-1.64921 0.03,-0.0206 0.41797,-0.17552 1.16313,-0.47996 0.48287,-0.19727 0.85304,-0.54738 1.11683,-1.06362 0.17526,1.28965 0.3515,2.57919 0.5287,3.86864 1.02201,-0.24179 2.04053,-0.49223 3.05562,-0.75096 -0.14579,-0.94315 -0.19551,-1.51834 -0.14116,-1.72867 0.0445,-0.17231 0.34676,-0.62058 0.89104,-1.35353 0.20298,1.26781 0.40686,2.53552 0.61162,3.80312 0.0639,0.39605 -0.15059,0.82505 -0.52383,0.92098 -2.48332,0.63821 -4.98795,1.22777 -7.51455,1.76363 -2e-5,0 -3e-5,0 -5e-5,0 z m 0.98846,-2.15689 c 0.006,0.0334 0.0121,0.0668 0.0181,0.10023 0.47019,-0.10375 0.93964,-0.20938 1.40835,-0.31685 -0.0623,-0.47745 -0.12449,-0.95492 -0.18653,-1.4324 -0.119,0.009 -0.23802,0.0177 -0.35704,0.0264 -0.28119,0.0642 -0.51807,0.26349 -0.70135,0.59622 -0.18863,0.33392 -0.24559,0.6797 -0.18113,1.02661 -1.4e-4,-7e-5 -2.9e-4,-1.4e-4 -4.4e-4,-2.2e-4 z m 5.82422,2.81157 c -0.0792,-0.51607 0.17969,-0.94733 0.56152,-1.04439 0.40462,-0.10287 0.75401,0.23297 0.82791,0.69205 0.0744,0.46218 -0.14009,0.93356 -0.55573,1.03875 -0.38178,0.0967 -0.75428,-0.16893 -0.8337,-0.68641 z m -1.92144,0.46877 c -0.0751,-0.5253 0.1989,-0.94745 0.57902,-1.03982 0.40646,-0.0988 0.75296,0.2404 0.82223,0.70009 0.0715,0.4745 -0.16994,0.93676 -0.5677,1.033 -0.39368,0.0953 -0.75986,-0.17787 -0.83355,-0.69327 z m 3.9825,-2.33604 c 0.54925,-0.14474 1.09745,-0.29182 1.64459,-0.44118 -0.18115,-1.04111 -0.3977,-1.90803 -0.47602,-2.3613 -0.0836,-0.48384 -0.0621,-0.86975 0.0685,-1.15935 0.11724,-0.27183 0.45461,-0.69582 0.99768,-1.28738 0.26501,1.47464 0.53118,2.94912 0.7985,4.42344 0.0877,0.48324 6e-5,0.92419 -0.26024,1.32061 -0.23715,0.36885 -0.55593,0.60444 -0.95369,0.71238 -0.42466,0.11523 -0.80331,0.0758 -1.13359,-0.11753 -0.37247,-0.2102 -0.60129,-0.57842 -0.68576,-1.08969 z m 4.50753,-2.1582 c -0.0991,-0.52283 -0.19806,-1.04569 -0.29688,-1.56857 -0.20395,-1.07926 -0.18284,-1.91055 0.0596,-2.48721 0.16583,-0.39451 0.52855,-0.79405 1.07814,-1.20217 0.69072,-0.51294 1.16582,-0.92633 1.42314,-1.25588 0.2552,1.24501 0.51117,2.4899 0.76793,3.73467 0.001,-0.004 0.002,-0.009 0.003,-0.0128 0.50098,-0.15564 1.00113,-0.3131 1.50045,-0.47232 -0.18402,-1.36424 0.51432,-3.25037 1.26783,-3.80506 -0.10674,-0.4798 -0.15599,-0.8498 -0.13783,-1.10642 0.0109,-0.21834 0.0806,-0.46343 0.21158,-0.72213 0.17669,-0.31939 0.35245,-0.63899 0.52729,-0.9588 0.17871,0.78556 0.35772,1.57107 0.53702,2.35652 1.10652,-0.37355 2.10351,0.45582 2.6075,2.56983 0.562,-0.19419 1.12295,-0.39048 1.68287,-0.5888 0.006,-0.60518 0.0934,-1.04578 0.66873,-1.93754 0.26315,-0.42417 0.23519,-1.00399 0.3369,-1.48355 0.30699,0.33071 0.55301,0.8313 0.96839,1.00895 0.26248,0.15139 0.95577,0.24833 1.47768,1.15959 0.95639,-0.35525 1.90975,-0.7161 2.86012,-1.0822 -0.30625,-0.30675 -0.61165,-0.61402 -0.91618,-0.92182 -0.43873,-0.43586 -0.74243,-0.62555 -0.91216,-0.56108 -0.13977,0.0531 -0.2688,0.26913 -0.40002,0.6454 -0.13882,-0.52131 -0.27752,-1.04266 -0.41612,-1.56403 0.12651,-0.51258 0.33081,-0.82995 0.628,-0.94344 0.30711,-0.11726 0.64995,0.0202 1.03738,0.39501 0.36907,0.428 0.73954,0.85524 1.11137,1.28172 0.49953,0.55376 0.98556,0.90986 1.44914,1.06388 4.8e-4,-0.004 9.6e-4,-0.008 0.001,-0.0113 0.5318,-0.2088 1.06266,-0.41919 1.59259,-0.63113 -0.62126,-2.15561 -1.24075,-4.31178 -1.85845,-6.4685 -0.1146,-0.40029 -0.0938,-0.78172 0.061,-1.14438 0.18549,-0.3189 0.37019,-0.63793 0.55413,-0.95709 0.88378,3.04087 1.77105,6.08063 2.66178,9.11926 0.12207,0.41651 -0.0415,0.83731 -0.35069,0.96161 -2.22093,0.89289 -4.45893,1.75923 -6.71457,2.59463 -0.0988,1.28014 -0.90698,1.7495 -1.34696,1.90854 -0.58554,0.21167 -1.52965,0.0711 -1.96359,-0.70968 -2.76196,0.97721 -5.55038,1.90558 -8.36627,2.77722 0.0853,0.41214 0.17063,0.82428 0.25607,1.2364 0.11356,0.54801 0.026,1.04964 -0.25615,1.50722 -0.26288,0.42634 -0.61738,0.70588 -1.05955,0.83783 -0.47412,0.14154 -0.91038,0.10676 -1.29639,-0.11309 -0.42721,-0.22908 -0.69467,-0.63277 -0.80417,-1.20918 0.74399,-0.21568 1.48601,-0.43544 2.22608,-0.65914 -0.0831,-0.41255 -0.16604,-0.82511 -0.24893,-1.23769 -0.73561,0.22291 -1.47309,0.44189 -2.21247,0.65681 5e-5,-4e-5 9e-5,-8e-5 1.4e-4,-1.2e-4 z m 0.85283,-2.12733 c 0.33157,-0.099 0.66277,-0.19877 0.9936,-0.29937 -0.0991,-0.49515 -0.19813,-0.99032 -0.29701,-1.4855 -0.10316,0.0314 -0.21381,0.10772 -0.34,0.21691 -0.37464,0.34763 -0.49243,0.87148 -0.35656,1.56796 -1e-5,0 -2e-5,0 -3e-5,0 z m 6.82232,-2.16481 c 0.24451,-0.0821 0.48882,-0.16459 0.73293,-0.24749 -0.21497,-0.92325 -0.43688,-1.31709 -1.06835,-1.21669 0.11171,0.48808 0.22352,0.97614 0.33545,1.46417 -1e-5,1e-5 -2e-5,1e-5 -3e-5,1e-5 z m -1.96372,0.64902 c 0.2679,-0.0871 0.53555,-0.17477 0.80297,-0.2629 -0.11026,-0.49304 -0.22041,-0.98609 -0.33044,-1.47917 -0.40971,0.4001 -0.56814,0.98017 -0.4725,1.74207 -1e-5,0 -2e-5,0 -3e-5,0 z m 6.88152,-1.53221 c 0.10211,0.40529 0.43565,0.64082 0.74791,0.52772 0.31227,-0.11307 0.4792,-0.53011 0.37514,-0.9349 -0.10406,-0.40478 -0.43673,-0.63904 -0.74704,-0.52642 -0.31032,0.11257 -0.47812,0.52832 -0.37601,0.9336 z m 4.8121,1.7164 c -0.13788,-0.50936 0.0787,-0.96707 0.43188,-1.10179 0.3825,-0.14596 0.76112,0.15093 0.88511,0.59979 0.12612,0.45633 -0.0382,0.95394 -0.42041,1.09952 -0.37163,0.14157 -0.75851,-0.0873 -0.89658,-0.59752 z m 6.38625,-4.94577 c -0.81143,-2.71252 -1.62017,-5.42597 -2.42621,-8.14033 -0.1126,-0.37937 -0.0926,-0.76931 0.0606,-1.16332 0.19905,-0.3371 0.39725,-0.67433 0.59464,-1.01169 0.98656,3.27435 1.97698,6.54734 2.9712,9.81897 -0.39952,0.16627 -0.79958,0.33173 -1.2002,0.49637 z"
       id="path178" />
  </g>
</svg>
