<?xml version="1.0" encoding="UTF-8" standalone="no"?>
<!-- Created with Inkscape (http://www.inkscape.org/) -->
<svg
   xmlns:svg="http://www.w3.org/2000/svg"
   xmlns="http://www.w3.org/2000/svg"
   version="1.0"
   width="900"
   height="600"
   viewBox="0 0 900 600"
   id="svg6503"
   xml:space="preserve"><defs
   id="defs6572">
		 
		
		
	</defs>
	<rect
   width="900"
   height="600"
   x="0"
   y="0"
   style="fill:#5b92e5"
   id="rect6507" />
<path
   d="M 404.66291,456.64015 C 401.92222,455.94539 398.44029,453.68178 396.92529,451.6099 C 395.34364,449.44689 389.40817,447.5942 382.98592,447.2589 C 376.83426,446.93771 369.81422,445.8055 367.38584,444.74289 C 364.67633,443.55723 362.97061,443.88982 362.97061,445.60375 C 362.97061,447.13989 360.06523,448.39669 356.51422,448.39669 C 352.85243,448.39669 350.73278,449.48875 351.61713,450.91968 C 354.4825,455.55594 346.96986,453.51171 341.19086,448.08262 C 336.34878,443.53371 336.01055,442.19742 338.95579,439.25215 C 340.86454,437.34343 344.15888,435.78172 346.27661,435.78172 C 351.46197,435.78172 354.55667,419.3982 350.33269,414.30862 C 348.1683,411.7007 348.08086,410.55177 350.04672,410.55177 C 351.60426,410.55177 352.87862,409.2272 352.87862,407.60828 C 352.87862,405.98936 352.11774,405.42568 351.1878,406.35563 C 350.25782,407.2856 346.81971,406.29228 343.54753,404.14829 C 335.98843,399.19535 333.55063,400.80192 329.84187,413.18069 C 326.85309,423.15638 324.28536,425.40749 321.33699,420.63693 C 320.30535,418.96768 318.01691,419.0472 314.60972,420.87067 C 307.53884,424.65488 305.69642,421.77168 304.38827,404.87504 C 303.53616,393.86911 304.08151,390.36781 306.64778,390.36781 C 309.4111,390.36781 309.44912,389.38353 306.85536,384.99221 C 304.31882,380.69769 304.3145,379.38687 306.83399,378.47445 C 308.56855,377.8463 309.98773,376.22462 309.98773,374.8707 C 309.98773,373.51679 308.84436,373.11572 307.44692,373.97936 C 306.04946,374.84304 304.22748,373.78124 303.39805,371.61979 C 302.56863,369.45831 300.84221,368.33744 299.56155,369.12891 C 298.2279,369.95317 297.81825,367.24678 298.60267,362.7942 C 299.96138,355.08189 296.1182,352.86385 291.73465,358.8304 C 290.7011,360.2372 289.86396,359.29319 289.8424,356.69668 C 289.82116,354.13549 288.24549,349.02643 286.34091,345.3432 C 279.02026,331.18585 276.82855,320.16972 279.44631,310.68897 C 281.61081,302.84985 281.19711,300.45518 276.60557,294.24477 C 273.64979,290.24686 269.0548,286.28501 266.39448,285.44063 C 262.87914,284.32492 261.87716,282.23346 262.72733,277.78607 C 263.37072,274.4204 263.01455,271.1212 261.93584,270.45453 C 260.85713,269.78785 260.31011,266.18567 260.72022,262.44967 C 261.15896,258.4528 258.96765,251.88191 255.39616,246.48506 C 250.76179,239.48201 249.48855,234.53101 250.01192,225.54814 C 250.67252,214.20953 250.98237,213.78271 258.56139,213.7707 C 265.46165,213.75975 267.9353,211.56615 278.74535,195.8717 C 285.52132,186.0341 293.01853,174.20327 295.40586,169.581 C 299.02239,162.5787 302.17878,160.51322 314.32832,157.19851 C 322.34833,155.01042 332.39683,152.08173 336.6583,150.69028 C 346.23877,147.56208 354.65719,147.43772 356.48635,150.39737 C 357.24674,151.62772 362.13897,153.39126 367.35799,154.31636 C 372.57697,155.24149 378.83392,156.58207 381.26231,157.2954 C 384.19567,158.1571 385.67755,157.20809 385.67755,154.46788 C 385.67755,151.51796 387.08745,150.79084 390.62825,151.91463 C 393.35112,152.77883 397.82359,152.28461 400.5671,150.81632 C 404.0784,148.93715 406.04521,148.93949 407.21007,150.82427 C 408.85241,153.48162 422.99601,151.80019 426.54806,148.52534 C 427.51833,147.63079 434.04657,147.2923 441.05527,147.77314 C 452.77369,148.57709 453.7984,149.16036 453.7984,155.02675 C 453.7984,160.70153 454.59619,161.24655 461.02195,159.96139 C 466.82032,158.80173 469.68258,160.01975 475.52916,166.1349 C 481.14121,172.00472 484.34463,173.44856 489.48732,172.42604 C 499.16371,170.50214 514.35025,173.50051 514.35025,177.3349 C 514.35025,180.66541 517.14013,181.90339 530.7497,184.61198 C 536.39882,185.73628 539.02903,184.97625 541.11923,181.61562 C 544.2007,176.66124 541.46865,165.82135 537.13849,165.82135 C 531.555,165.82135 534.61234,155.80589 540.65912,154.28824 C 544.02784,153.44276 547.42965,151.06863 548.21869,149.0124 C 549.03655,146.88106 552.09785,145.58966 555.33949,146.00851 C 561.83128,146.8473 568.04242,143.78022 566.12728,140.68145 C 565.41878,139.53508 566.53561,137.94615 568.6091,137.15047 C 570.95803,136.24911 572.37911,137.18309 572.37911,139.62826 C 572.37911,141.7867 575.78797,144.83943 579.95438,146.41206 C 584.12079,147.98471 588.11951,151.1299 588.84046,153.40139 C 590.4172,158.36929 601.55807,157.12497 608.33178,151.22442 C 610.76016,149.10907 612.74701,148.25672 612.74701,149.33031 C 612.74701,150.40389 616.64499,148.30917 621.40916,144.67535 C 626.17333,141.04154 632.33666,138.06841 635.10541,138.06841 C 637.87418,138.06841 642.1213,136.08662 644.5435,133.66443 C 648.73346,129.47446 648.86587,129.66854 647.26796,137.65805 C 646.34421,142.27672 643.36577,147.9484 640.64916,150.26176 C 633.95006,155.96646 632.74917,176.09195 638.74981,182.09259 C 641.10002,184.44282 643.02294,188.48833 643.02294,191.0826 C 643.02294,193.6769 644.1755,196.51178 645.58417,197.38239 C 646.99283,198.253 649.92614,203.14524 652.10262,208.25402 C 656.78951,219.25539 655.49323,236.99819 649.00338,250.67449 C 644.96003,259.19524 644.93662,260.89617 648.67071,274.83277 C 655.86562,301.68569 650.36869,315.5528 633.60754,312.83284 C 626.50281,311.67989 624.09542,312.79213 616.68227,320.65235 C 610.88129,326.80318 605.7945,329.81596 601.21034,329.81596 C 597.45411,329.81596 593.05934,331.62324 591.44414,333.83215 C 589.51751,336.46698 584.14726,337.98558 575.83047,338.24739 L 563.15346,338.64645 L 564.29448,350.54423 L 565.4355,362.44201 L 556.92309,359.73073 C 540.34884,354.45166 533.97955,354.14125 531.54374,358.49383 C 530.27528,360.76041 527.09021,362.61489 524.46576,362.61489 C 518.42183,362.61489 515.43872,367.23556 519.11147,370.90829 C 520.65574,372.45257 521.93661,377.74654 521.95786,382.67269 C 522.00466,393.5229 522.83324,394.74216 536.42645,403.96376 C 546.73834,410.95935 549.98838,415.59776 544.57812,415.59776 C 543.09548,415.59776 542.67723,418.26798 543.59014,421.90525 C 545.42564,429.21853 539.77922,430.74812 534.48691,424.37127 C 532.64644,422.15364 529.31639,421.15902 526.60902,422.0183 C 524.02964,422.83696 521.91922,422.51193 521.91922,421.296 C 521.91922,420.08007 520.48322,417.12133 518.7281,414.72104 C 515.78031,410.68971 514.70162,410.65164 504.58298,414.22169 C 498.55829,416.34735 492.53901,417.41284 491.2068,416.58947 C 489.87458,415.76613 487.3307,417.08076 485.55373,419.5109 C 482.95638,423.063 480.88687,423.46391 474.99888,421.55549 C 470.97067,420.24987 465.16337,419.58395 462.09379,420.07565 C 457.40619,420.82652 456.74573,422.13474 457.96827,428.24747 C 460.04164,438.61423 448.88946,448.20696 434.63623,448.31696 C 427.58223,448.37138 422.85581,449.9975 419.73797,453.44267 C 415.10314,458.56411 413.55123,458.89328 404.66291,456.64015 z "
   style="fill:white;fill-opacity:1"
   id="path1914" /><path
   d="M 443.40552,331.2275 C 443.28921,330.99175 442.44141,330.33232 441.5216,329.76213 C 438.04954,327.61007 437.2581,325.75069 438.9191,323.64824 C 439.41154,323.02492 441.19685,321.5811 441.47515,321.5811 C 441.53624,321.5811 441.58623,321.87925 441.58623,322.24379 C 441.58623,322.81952 441.67633,322.94062 442.27288,323.16686 C 443.12945,323.49167 443.88931,323.21152 444.19265,322.45898 C 444.31286,322.16082 444.41236,321.1328 444.41377,320.17452 C 444.41746,317.69543 443.73255,315.84171 443.42365,317.49499 C 443.08279,319.31976 441.06436,320.12007 439.32436,319.12047 C 437.9439,318.32741 437.69036,316.32301 438.77313,314.76207 C 439.58377,313.59345 440.63288,313.18504 442.82446,313.18504 C 444.57832,313.18504 444.72343,313.22087 445.43122,313.82867 C 445.94338,314.2684 446.33556,314.87117 446.66942,315.73173 L 447.15803,316.99126 L 447.15552,322.14078 C 447.15314,327.0285 447.13244,327.34732 446.74807,328.40984 C 446.22789,329.84784 445.58224,330.70586 444.62282,331.23421 C 443.6781,331.75453 443.66548,331.75444 443.40552,331.2275 z M 427.34491,310.87923 C 424.17248,309.49066 423.13412,307.36464 423.11306,302.21424 C 423.10289,299.72015 423.13593,299.44617 423.57476,298.3938 C 424.15924,296.99199 424.97809,296.04324 427.27189,294.11007 L 429.05821,292.60466 L 430.41956,292.96096 C 431.95817,293.36367 433.90716,294.29157 434.94155,295.11383 C 435.3861,295.46723 435.7155,295.59592 435.85363,295.47022 C 438.7163,292.86607 439.40762,292.53043 441.21101,292.86912 C 441.95247,293.00837 443.81673,293.63151 445.35374,294.25388 C 446.89081,294.87624 448.39827,295.38548 448.70361,295.38548 L 449.25888,295.38548 L 448.8718,295.84199 C 448.49492,296.2864 448.48466,296.4368 448.48466,301.52004 C 448.48466,308.31021 448.44436,308.65805 447.5216,309.82597 C 447.04772,310.4259 446.50298,310.85142 445.96471,311.04216 C 445.17829,311.3209 445.11157,311.30854 444.63027,310.79599 C 444.35163,310.49925 443.45328,309.92694 442.63388,309.52427 C 440.45534,308.45363 439.50079,307.15279 439.22549,304.87955 L 439.11448,303.96257 L 439.87426,303.98393 C 440.47569,304.00088 441.15717,303.68144 443.1443,302.45104 C 444.52498,301.59621 445.65456,300.83404 445.65456,300.75735 C 445.65456,300.54939 443.64923,299.70646 441.94005,299.19604 C 439.29501,298.40606 437.08976,298.66292 434.99644,300.00462 L 434.1552,300.54382 L 432.06599,299.64389 C 429.07828,298.35681 427.11737,298.42443 426.11415,299.84883 C 425.64423,300.51603 425.51997,303.01505 425.89952,304.16496 C 426.41901,305.73862 427.78622,306.17544 428.04878,304.85166 C 428.14319,304.37521 428.08413,304.15039 427.78338,303.84218 C 427.57063,303.62408 427.2461,303.44561 427.06235,303.44561 C 426.51524,303.44561 426.68309,303.04603 427.303,302.87259 C 427.61923,302.78415 428.52119,302.71504 429.30741,302.71911 C 430.90684,302.72731 431.74802,303.12874 432.63053,304.30476 C 433.85842,305.94111 432.87856,308.48541 430.41161,310.06632 C 429.76221,310.48248 429.18045,310.92627 429.11879,311.05249 C 428.95771,311.38243 428.36152,311.32417 427.34491,310.87923 z M 445.83147,304.33549 L 445.83147,302.98637 L 445.34502,303.31091 C 445.07746,303.48939 444.69938,303.78808 444.50482,303.97466 C 444.19034,304.27617 444.18051,304.3512 444.4164,304.65059 C 444.63557,304.92889 445.63057,305.67834 445.7872,305.6832 C 445.81152,305.68398 445.83147,305.07744 445.83147,304.33549 z M 381.44628,289.95451 C 381.44628,289.28201 380.67435,288.42388 378.97152,287.20348 C 377.11242,285.8711 375.50826,284.11563 374.98959,282.84607 C 374.26822,281.08041 374.77148,278.6511 376.21017,276.95361 C 376.92066,276.11534 378.85123,274.33941 379.05205,274.33941 C 379.10791,274.33941 379.10365,274.59129 379.04258,274.89915 C 378.76979,276.27506 379.392,277.02614 380.80468,277.02614 C 381.83077,277.02614 382.24352,276.43074 382.51191,274.56331 C 382.87062,272.06753 382.43932,267.60782 381.79709,267.17277 C 381.5271,266.9899 381.4695,267.09395 381.36846,267.94733 C 381.1154,270.08301 379.98477,271.20489 378.08551,271.20489 C 376.66426,271.20489 375.88898,270.7329 375.20005,269.44804 C 374.58146,268.29451 374.46884,266.19776 374.95703,264.92521 C 375.40058,263.76902 376.39195,262.56846 377.40752,261.95746 L 378.29534,261.42335 L 377.45751,260.72088 C 376.99666,260.33452 376.33261,259.96038 375.98173,259.88945 C 374.38356,259.56636 374.54791,260.09576 374.54791,255.27146 L 374.54791,250.98903 L 374.98165,251.58146 C 375.30492,252.02295 375.58656,252.17333 376.08716,252.17171 C 376.9413,252.16893 377.7904,251.66239 381.70428,248.82082 L 384.87962,246.51544 L 385.77198,246.79909 C 387.39581,247.31526 390.59443,249.05437 392.59824,250.51054 L 394.57288,251.94553 L 395.05898,251.44402 C 395.32633,251.16816 396.09399,250.37737 396.76494,249.68669 C 398.08621,248.32649 400.29021,246.57654 400.6821,246.57654 C 400.81584,246.57654 402.02365,247.41771 403.36612,248.4458 C 406.69891,250.99818 408.22805,251.78802 409.88012,251.81042 C 410.58545,251.81999 411.16255,251.86831 411.16255,251.9178 C 411.16255,251.9673 410.79603,252.95515 410.34809,254.11306 C 409.37519,256.62777 408.1869,258.73655 407.40097,259.34311 C 406.2069,260.26467 404.25693,259.84584 400.94115,257.9557 C 397.37161,255.92086 395.8742,255.9155 393.05651,257.92746 C 392.45941,258.35386 391.7204,258.94365 391.41433,259.23811 L 390.85796,259.77349 L 389.1727,258.68746 C 386.65157,257.0627 385.22843,256.5509 383.21501,256.54487 C 381.8342,256.54073 381.33743,256.63896 380.42917,257.09569 C 379.82119,257.40141 379.32575,257.70367 379.32827,257.76736 C 379.33078,257.83107 379.64093,258.06284 380.01755,258.28239 C 380.81479,258.74724 381.4992,259.55771 382.09101,260.73784 C 382.32259,261.19962 382.61734,261.57744 382.74614,261.57744 C 383.16598,261.57744 384.60907,263.17174 385.04837,264.12087 C 385.28434,264.63069 385.56955,265.48127 385.68216,266.01105 L 385.88696,266.9743 L 386.89472,265.80625 C 389.60655,262.66313 392.41651,261.35356 396.44899,261.35356 C 399.48321,261.35356 401.89792,262.00823 406.69877,264.13249 C 407.85283,264.64313 408.83847,264.93586 409.40372,264.93586 L 410.293,264.93586 L 409.79916,265.99936 L 409.30525,267.06286 L 409.18839,275.01108 C 409.06949,283.10209 408.98387,284.1479 408.26709,286.26278 C 407.63973,288.11412 406.25432,289.71953 404.9274,290.1329 C 404.52462,290.25839 404.44103,290.21083 404.44103,289.8563 C 404.44103,289.23511 403.46081,288.15037 402.15301,287.3243 C 399.1893,285.4522 398.07394,283.32339 397.7391,278.89947 C 397.61832,277.30383 397.61859,277.30271 397.99773,277.61716 C 398.4682,278.00738 398.40042,278.04103 401.94673,275.65508 L 404.84902,273.70245 L 404.15861,273.33075 C 401.70959,272.0124 399.1289,271.42828 395.77379,271.43297 C 391.11896,271.43949 389.30944,272.3632 389.92655,274.41778 L 390.11301,275.03842 L 389.27311,274.88339 C 388.4166,274.7253 387.40355,274.17687 386.5317,273.39935 L 386.04526,272.96556 L 386.04218,277.73856 C 386.03885,282.94532 385.85161,284.70892 385.10451,286.57098 C 384.86394,287.17055 384.47232,287.92624 384.23434,288.2503 C 383.27763,289.5526 381.44628,290.67205 381.44628,289.95451 z M 405.67917,278.03827 L 405.67917,276.58757 L 404.88319,277.29773 C 404.44541,277.68833 404.08721,278.07366 404.08721,278.15401 C 404.08721,278.48219 405.0186,279.27697 405.63495,279.47478 C 405.65929,279.48258 405.67917,278.83616 405.67917,278.03827 z M 427.07066,289.79594 C 423.62001,289.00209 421.35605,287.68042 419.41905,285.32893 C 417.57753,283.09333 416.45493,279.88121 416.23548,276.21955 L 416.14016,274.62933 L 416.65665,275.28312 L 417.17315,275.9369 L 419.07632,275.7923 C 421.44678,275.61219 422.79174,275.34175 424.19801,274.76244 C 426.22272,273.92838 426.77653,272.84797 425.5342,272.15591 C 424.99316,271.85452 424.06406,271.76992 420.49305,271.6969 L 416.1152,271.60738 L 416.1152,261.3061 C 416.1152,251.43281 416.12816,251.02507 416.42697,251.4921 C 416.86445,252.17595 417.18459,251.9781 420.10835,249.21722 C 421.46302,247.93799 422.67446,246.81183 422.80033,246.71465 C 422.94815,246.6005 423.38452,246.90822 424.03282,247.58373 C 426.26024,249.90486 429.43377,251.71715 431.28144,251.72311 L 432.20865,251.72611 L 431.92471,252.67765 C 431.22928,255.00848 429.89839,258.16077 429.3049,258.88265 C 428.71811,259.59644 428.58961,259.6541 427.69148,259.60653 C 427.07757,259.57401 426.11101,259.25882 425.08569,258.75678 C 424.01323,258.23167 423.03162,257.91778 422.21541,257.83896 L 420.97504,257.71919 L 420.04127,258.78186 C 419.5277,259.36632 418.98937,260.13368 418.84504,260.48709 C 418.60356,261.07803 418.60774,261.12982 418.89656,261.13157 C 419.06935,261.13263 420.08624,261.23243 421.15634,261.35334 C 425.41265,261.83427 428.13844,263.61499 429.33356,266.69532 C 429.76675,267.8119 429.82287,268.20517 429.81722,270.08541 C 429.81171,271.93388 429.74784,272.37704 429.32931,273.46955 C 429.0644,274.16097 428.37428,275.3806 427.79572,276.17982 L 426.74376,277.63297 L 427.22239,278.2005 C 427.9305,279.04012 429.01385,279.65992 430.7512,280.21933 C 432.14072,280.66674 432.73644,280.71798 436.5451,280.71766 C 440.11184,280.71737 440.97204,280.65231 441.92743,280.31054 C 444.07416,279.5426 445.81968,278.08967 446.46511,276.53349 C 446.79048,275.74894 446.78664,274.11919 446.458,273.52529 C 445.81145,272.35685 443.74476,271.77049 439.41947,271.52831 L 436.81041,271.38223 L 436.81578,261.05041 C 436.81991,253.23105 436.86997,250.82748 437.02184,251.16637 C 437.52781,252.29589 437.77186,252.13197 440.30507,248.96116 C 441.80086,247.08891 442.35509,246.52401 442.53276,246.69061 C 442.66288,246.81258 443.43621,247.55222 444.25129,248.33424 C 446.25947,250.26106 448.27122,251.52017 449.58189,251.67061 C 450.14586,251.73533 450.60728,251.83106 450.60728,251.88334 C 450.60728,251.93562 450.27494,253.00424 449.86875,254.25809 C 448.98847,256.97517 448.08002,259.00144 447.54614,259.43819 C 447.03885,259.85324 446.08731,259.62441 443.93659,258.57007 C 441.88587,257.56472 440.95489,257.51767 440.31433,258.38695 C 439.80203,259.0823 439.5627,259.63251 439.40233,260.48373 L 439.29208,261.06919 L 441.36777,261.22537 C 444.53454,261.46364 446.13082,262.02794 447.70298,263.465 C 449.96805,265.53544 451.01765,269.95376 450.52563,275.34693 C 449.99469,281.1662 446.80247,286.06512 442.0374,288.3734 C 439.40804,289.64709 437.30112,290.05256 432.8306,290.14517 C 429.56472,290.21284 428.63884,290.15669 427.07066,289.79594 z M 469.66765,289.90696 C 467.17093,289.45497 465.22703,288.77497 463.55021,287.76698 C 460.08633,285.68468 457.95709,281.46153 457.62689,276.01862 C 457.52545,274.34644 457.53577,274.26817 457.78178,274.84032 C 458.13043,275.65128 458.61708,275.77434 460.80533,275.60487 C 463.92125,275.36354 466.31791,274.47083 467.06125,273.27469 C 467.80912,272.07121 467.33731,271.16954 465.61265,270.50646 C 464.53697,270.09289 464.08491,270.04288 462.39274,270.15015 C 461.21262,270.22495 459.9115,270.46117 459.14405,270.73991 C 458.43997,270.99564 457.7833,271.20489 457.68478,271.20489 C 457.56673,271.20489 457.50564,268.00507 457.50564,261.81856 L 457.50564,252.43223 L 458.0227,253.0867 C 458.30705,253.44665 458.72495,253.74017 458.95138,253.73897 C 459.62484,253.73538 460.95078,252.84188 464.87852,249.74482 C 466.92562,248.13069 468.71798,246.753 468.86156,246.68325 C 469.00548,246.61334 471.75366,248.2099 474.98654,250.24157 C 481.30081,254.20977 483.0326,255.08452 484.57414,255.08452 C 485.78328,255.08452 486.33745,254.65484 486.33745,253.71734 C 486.33745,252.80157 485.97568,252.00533 485.06924,250.92614 C 483.63884,249.22309 482.37866,248.61055 479.86499,248.39651 L 478.21195,248.25575 L 479.08546,246.01681 C 480.04677,243.55264 481.21903,241.68378 482.15657,241.12067 C 482.91309,240.66628 484.54772,240.65022 485.68238,241.08599 C 488.3031,242.0925 490.9961,244.88858 491.74933,247.38529 C 491.97778,248.14245 492.12156,248.35423 492.33452,248.24718 C 494.93493,246.93958 496.45202,246.50071 497.74636,246.6816 C 500.69487,247.09368 503.62162,248.26625 507.5633,250.61465 C 510.15201,252.15692 510.37669,252.24915 511.58841,252.26696 C 512.65404,252.28265 512.85402,252.3428 512.76707,252.62169 C 512.24799,254.28771 511.97876,255.39659 511.81934,256.52497 C 511.70207,257.35497 511.63066,262.52185 511.62899,270.29447 C 511.62626,283.47582 511.57835,284.36754 510.76474,286.38627 C 510.34182,287.43563 508.91248,289.14535 507.92508,289.78295 C 507.51269,290.04924 507.16312,290.2349 507.1482,290.19552 C 506.50194,288.48695 506.33576,288.27186 504.37945,286.61173 C 502.17386,284.74001 501.0544,283.36343 500.39167,281.70802 C 499.74025,280.081 499.25847,277.58581 499.13421,275.19595 L 499.02159,273.02993 L 499.7468,273.15304 C 500.29322,273.24582 500.628,273.15967 501.10489,272.8035 C 501.93322,272.18487 506.8356,266.97617 507.4274,266.08592 C 508.9661,263.7713 508.2441,262.26111 504.46788,259.89543 C 500.49599,257.40714 495.19699,255.30842 492.88624,255.30842 C 491.77054,255.30842 491.57626,255.37369 491.17308,255.88405 C 490.7844,256.37601 490.73461,256.58829 490.83008,257.34449 C 490.94067,258.21984 490.93662,258.22772 490.45276,258.08125 C 490.18367,257.99982 489.8203,257.84016 489.64528,257.72645 C 489.39027,257.56084 489.10946,257.77451 488.23414,258.80036 C 485.89738,261.53872 484.16719,262.47321 481.43457,262.47272 C 478.35999,262.47217 476.34434,261.85337 472.23599,259.64877 C 468.93297,257.87629 467.12666,257.24335 465.91871,257.4352 C 464.74003,257.62239 463.48299,258.41624 462.12394,259.83165 L 460.99353,261.00891 L 462.86656,261.27167 C 466.42216,261.77042 468.47531,262.93678 470.00836,265.32878 C 471.03034,266.92331 471.3827,268.50124 471.24372,270.86115 C 471.07434,273.73753 470.36191,275.54179 468.88897,276.82458 L 468.09084,277.51962 L 468.50273,278.07867 C 469.10075,278.89043 470.38602,279.65298 472.05309,280.18513 C 474.20429,280.87179 480.10432,281.05548 481.94751,280.49316 C 484.64939,279.6689 486.94312,277.82475 488.77056,275.00742 C 489.55476,273.79849 490.4766,271.68813 491.801,268.07037 C 492.14415,267.13296 491.88706,272.09189 491.45271,274.78719 C 490.18171,282.67521 486.80491,287.49379 481.15753,289.47806 C 479.67394,289.99934 479.16204,290.05834 475.45925,290.13487 C 472.59929,290.19396 470.87909,290.12627 469.66765,289.90696 z M 508.27087,273.83772 L 508.27087,270.6493 L 507.10023,272.13105 C 505.93949,273.6003 505.93133,273.61928 506.13075,274.38406 C 506.36547,275.28435 507.67816,276.93489 508.22666,277.01933 C 508.251,277.02308 508.27087,275.59134 508.27087,273.83772 z M 433.20782,278.0219 C 431.88385,277.68888 430.26113,277.06752 430.03472,276.80688 C 429.95627,276.71658 430.08422,276.35115 430.31908,275.99482 C 431.11541,274.78639 431.52438,273.24487 431.63141,271.04813 L 431.73176,268.98826 L 432.99501,270.31087 C 433.68982,271.03831 434.71954,271.90079 435.28331,272.22749 C 436.51413,272.94074 439.02654,273.43336 441.46463,273.43949 L 443.20016,273.44384 L 442.63792,274.43488 C 440.79486,277.68344 437.23926,279.03592 433.20782,278.0219 z "
   style="fill:#5b92e5;fill-opacity:1"
   id="path3714" /></svg>