<?xml version="1.0" encoding="UTF-8" standalone="no"?>
<svg
   xmlns:dc="http://purl.org/dc/elements/1.1/"
   xmlns:cc="http://creativecommons.org/ns#"
   xmlns:rdf="http://www.w3.org/1999/02/22-rdf-syntax-ns#"
   xmlns:svg="http://www.w3.org/2000/svg"
   xmlns="http://www.w3.org/2000/svg"
   xmlns:sodipodi="http://sodipodi.sourceforge.net/DTD/sodipodi-0.dtd"
   xmlns:inkscape="http://www.inkscape.org/namespaces/inkscape"
   width="750"
   height="500"
   viewBox="-350 -250 700 500"
   id="svg2556"
   sodipodi:version="0.32"
   inkscape:version="0.48.1 "
   sodipodi:docname="Flag_of_Albania_(1944-1946).svg"
   inkscape:output_extension="org.inkscape.output.svg.inkscape"
   version="1.0">
  <metadata
     id="metadata2568">
    <rdf:RDF>
      <cc:Work
         rdf:about="">
        <dc:format>image/svg+xml</dc:format>
        <dc:type
           rdf:resource="http://purl.org/dc/dcmitype/StillImage" />
      </cc:Work>
    </rdf:RDF>
  </metadata>
  <defs
     id="defs2566" />
  <sodipodi:namedview
     inkscape:window-height="706"
     inkscape:window-width="1366"
     inkscape:pageshadow="2"
     inkscape:pageopacity="0.0"
     guidetolerance="10.0"
     gridtolerance="10.0"
     objecttolerance="10.0"
     borderopacity="1.0"
     bordercolor="#666666"
     pagecolor="#ffffff"
     id="base"
     showgrid="false"
     inkscape:zoom="0.79116022"
     inkscape:cx="444.47364"
     inkscape:cy="333.55256"
     inkscape:window-x="-8"
     inkscape:window-y="-8"
     inkscape:current-layer="svg2556"
     inkscape:window-maximized="1" />
  <title
     id="title2558">Flag of Albania</title>
  <path
     style="fill:#cc1100"
     d="m -375,-250 750,0 0,500 -750,0 z"
     id="field" />
  <g
     transform="matrix(0.1710257,0,0,0.1710257,-339.37587,-260.21626)"
     id="layer1">
    <g
       id="g1317"
       transform="translate(8.766485e-5,3.514516e-4)">
      <g
         id="g1310"
         transform="matrix(10.67959,0,0,10.67959,-133.9797,118.5025)">
        <path
           id="path6570"
           style="fill:#fcd116"
           d="M 49.91986,12.55663 C 69.57983,18.06622 89.46737,32.60072 87.29079,57.43523 C 85.11561,82.2538 57.84504,92.65454 31.01609,69.45723 L 30.05545,70.52194 C 30.51146,71.11972 31.18024,72.86913 30.06298,74.0838 C 29.00851,75.23021 27.36566,73.94721 26.47336,74.86715 C 25.41573,75.95754 25.7285,75.52711 24.34341,78.73767 C 21.06913,86.32726 15.32523,88.59095 13.37158,86.7393 C 11.36958,84.84182 12.83924,79.40901 19.61898,75.37749 C 23.02874,73.3499 23.19955,73.37401 23.73416,72.47541 C 24.33522,71.46513 22.69984,69.90205 23.85772,68.53792 C 25.05535,67.12697 26.60762,67.68431 27.23531,68.13422 L 30.20421,64.45603 C 56.34146,79.08048 71.88179,72.25177 75.57442,59.38153 C 79.20147,46.73985 78.1858,31.16303 49.91986,12.55663 z" />
        <path
           id="rect7857"
           style="fill:#fcd116"
           d="M 32.908587,33.482171 C 31.2743,35.116458 30.874276,35.020319 31.651676,35.79772 L 81.168393,87.123965 C 81.945793,87.901366 83.887339,87.211526 85.521626,85.577239 C 87.155913,83.942952 87.845752,82.001406 87.068352,81.224006 L 35.285499,32.273612 C 34.508099,31.496211 34.542874,31.847884 32.908587,33.482171 z" />
        <path
           id="path7858"
           style="fill:#fcd116"
           d="M 29.720348,49.454608 L 50.97795,28.197005 L 39.001283,26.031533 L 22.649278,42.383538 L 29.720348,49.454608 z" />
      </g>
    </g>
  </g>
  <path
     style="fill:#000000;fill-opacity:1;stroke:none"
     d="m -110.79719,-133.73775 c -0.23365,-0.0152 -0.47243,0 -0.72526,0.0277 -5.71918,0.59601 -10.03558,6.04855 -8.2568,14.00312 2.19363,9.80973 12.19996,15.02206 22.176168,18.52205 6.63846,2.328965 20.31305,4.131717 21.95302,5.634725 1.10653,1.014025 0.78072,2.909789 -2.62208,3.821612 -3.88359,0.937268 -8.15202,1.164442 -12.18993,0.66948 -5.71816,-0.701079 -14.638838,-4.290072 -16.513578,-5.272142 -2.56541,-1.343762 -3.75437,-4.423965 -4.37944,-5.048975 -0.80336,-0.7141 -1.25503,-0.84237 -2.5942,-0.75311 -2.00562,0.13372 -2.61449,0.35607 -3.93313,2.733676 -1.20202,2.167578 -2.71537,4.783594 -1.08788,10.181507 1.54758,3.315578 3.70049,6.83147 10.37677,9.288955 7.51601,2.766621 19.120828,0.929592 25.579308,-0.195217 0,0 5.99466,-0.987952 6.75047,-0.920559 2.17255,0.19379 2.33958,2.66628 0.61369,3.626302 -0.66323,0.368834 -3.08826,0.920568 -3.79366,1.143635 -5.60837,1.774456 -11.96186,2.83347 -18.18725,2.733764 -6.002678,-0.09629 -11.404518,-0.808722 -13.835688,-2.510607 -1.33917,-0.937259 -2.21484,-1.924684 -2.70578,-2.147842 -0.49094,-0.223157 -2.79024,-0.27966 -3.15209,-0.08391 -2.82761,1.532286 -3.75784,5.977146 -3.0405,9.205336 3.02075,10.637004 14.05027,9.265043 26.332468,6.583133 2.34838,-0.615378 5.31703,-0.66724 7.50363,-1.255303 1.73548,-0.466746 8.92001,-2.838647 11.10202,-1.980474 1.89795,0.746237 1.16711,2.970934 -0.0836,3.737791 -5.27251,2.949155 -13.13286,6.493335 -21.00459,7.280553 -9.103008,0.910302 -15.365658,-0.537452 -16.569368,-1.199425 -1.20382,-0.662152 -1.85576,-1.004207 -2.51051,-1.004207 -2.06476,0 -2.64497,0.573692 -3.96102,3.458935 -2.00619,4.39772 1.18852,7.846925 2.34314,9.846769 0.65061,1.126854 4.60863,4.835635 13.64033,3.70995 12.976318,-1.63325 21.626868,-10.711556 30.656218,-10.711556 2.39303,0 -0.0201,3.275151 -0.75326,3.849548 -1.81081,1.416967 -7.29365,4.757361 -14.47717,8.479977 -8.91019,4.61695 -22.044068,6.807906 -28.424548,3.82152 -1.37442,-0.687225 -2.59474,1.480969 -2.76156,2.23158 -0.18165,1.994756 -0.29702,4.049408 -0.36263,4.574737 -1.71674,7.794608 6.30026,13.076655 15.09095,11.40886 8.187168,-1.553173 11.455738,-3.519544 20.753558,-10.125725 6.37335,-4.528285 9.78329,-9.503009 12.85928,-9.149439 0.65105,0.129074 1.11968,0.961262 0.41853,2.175781 -1.08064,1.871931 -7.05208,8.072305 -11.38098,11.213642 0,0 -11.82015,7.546128 -15.00728,9.316834 -3.187228,1.770706 -10.860578,6.742833 -17.183038,4.1562553 -1.94793,-0.7966706 -2.99565,-1.4661413 -4.32366,-0.6694711 -1.328,0.7968492 -1.25057,2.5202554 -1.33894,4.3795018 -0.0881,1.8592639 0.0836,5.66261884 0.0836,5.66261884 0.8634,5.46267016 7.63731,8.90598316 11.96676,8.87050116 10.509558,-0.08703 22.677488,-13.2293386 29.902978,-21.172042 1.4746,-1.621022 6.87901,-7.563069 7.58731,-8.005813 0.55789,-0.348661 1.71786,0.143802 1.67368,1.338951 -0.0446,1.195131 -2.74327,4.34111 -5.60681,8.7868536 -4.79808,8.3102523 -13.18977,17.6389134 -24.18458,25.1051864 -2.524798,1.714534 -7.653928,2.320852 -14.337798,0.529998 -2.20902,-0.591919 -2.73612,-0.756725 -3.70998,0.836839 -0.95578,1.539909 -1.74442,3.286006 -2.03631,4.658422 -1.73414,8.152159 5.27944,11.02452 11.3252,12.803645 10.261618,0.195039 18.798918,-6.283219 23.375638,-12.329437 6.96839,-7.795884 11.92537,-18.3411893 16.82041,-26.3604626 1.39997,-2.3333212 3.21658,-4.290239 3.90524,-4.8536659 2.32563,-1.9027265 4.37934,-0.2699308 4.90944,2.4826758 0.53759,2.7907125 -0.51594,5.77481324 -1.84105,8.8983514 -1.88454,4.4422803 -6.1263,8.9724753 -8.25678,11.0741683 -4.70692,4.706848 -8.15593,4.665787 -8.50784,5.746313 -1.20493,3.699275 0.57619,6.365662 3.15209,7.587349 2.57589,1.22166 6.04117,0.522857 8.53574,-0.585796 3.68397,-2.122001 6.9136,-5.223661 9.48414,-8.954177 2.57054,-3.730642 4.49202,-8.105083 5.55102,-12.8036634 0.64649,-2.867229 2.13884,-5.19598886 4.01682,-5.3836729 1.8782,-0.1878982 2.56004,1.00733994 2.87313,2.2594741 0.31298,1.2521432 0.19649,2.5471146 0.0558,3.5426182 -0.47387,3.365887 -2.03652,6.782421 -3.96102,8.842607 -2.41802,2.5884 -5.35598,3.612262 -5.52312,3.988951 -0.16882,0.379813 -0.47633,1.272888 -0.22316,2.45471 0.88916,3.964287 5.78667,2.596227 8.53574,1.087908 5.47736,-3.005149 7.98487,-8.891711 9.87466,-14.5610163 1.82197,-6.15534956 9.11584,-2.1719962 5.57892,3.4868293 -3.75249,6.728971 -10.31385,11.874652 -17.65726,16.123125 -6.93369,4.011355 -13.57941,6.652534 -20.08408,11.046274 2.12456,2.384781 4.77455,4.455116 7.02942,6.387879 -8.77596,3.995636 -17.22109,7.943401 -25.77456,11.938912 -6.00425,-2.360002 -10.35323,-4.767858 -17.266728,-6.304196 -1.55149,-3.027456 -8.87046,-3.015405 -8.87046,1.199478 -3.89085,-0.0848 -3.96103,3.767007 -3.96103,7.029447 1.20916,-0.774114 2.418,-2.315254 4.12839,-2.315254 2.32919,2.728657 5.93362,2.886206 8.14521,0.223157 2.79994,-0.321123 6.006698,0.381268 8.033638,1.394731 -2.69875,1.253697 -5.116658,2.150681 -8.117318,2.817376 -4.15206,-1.71855 -6.83273,-0.662348 -7.6989,3.235777 -2.04858,0.694911 -2.05293,4.542023 -1.5621,6.750501 0.98937,-0.868857 1.97651,-1.825094 2.90103,-2.28736 1.90699,0.119943 4.54001,0.847105 6.13681,-0.111578 3.859598,-2.31704 7.164988,-5.064005 11.548338,-5.55105 -1.46089,2.746635 -4.3049,4.827235 -6.02521,6.834212 -3.417648,0.437495 -6.657768,2.453826 -5.467338,6.02524 -1.30982,3.536816 -0.31778,6.304865 2.25945,7.754708 -0.16513,-1.488449 -0.12363,-2.626005 0.5579,-3.988932 4.657828,0.08587 7.472608,-2.064096 6.917858,-7.057351 2.91664,-2.896918 7.54045,-7.505665 11.04623,-8.284706 1.81415,0.25049 3.85102,1.032548 5.69048,1.645783 -0.0803,4.194693 4.21387,5.030291 7.08523,3.235778 1.09771,1.105636 1.48365,2.690042 1.00421,4.128414 2.0393,-1.08199 2.5047,-3.710887 1.67367,-5.021042 0.65886,-4.217785 -0.82602,-5.920152 -5.91365,-5.606839 -2.48798,-0.912588 -5.11039,-1.757683 -6.33206,-2.203676 9.63344,-3.397897 19.96703,-6.209461 28.61981,-9.093659 3.27415,2.892115 6.6118,5.615426 9.79099,8.340504 7.39105,-5.087758 12.02847,-12.822613 15.98358,-19.972565 1.46938,-2.656685 7.05698,-11.719548 8.36837,-12.971022 1.31328,-1.25325 4.06167,-1.120249 4.6305,0.697366 1.00086,3.197626 0.74445,11.871294 -2.0921,17.908371 -4.31562,9.18526 -12.81666,16.530386 -25.77457,19.442585 -6.92409,1.014579 -11.27688,0.740989 -13.72412,0.502104 -1.22357,-0.119166 -4.10864,-0.723699 -4.6305,1.673677 -0.86886,3.991388 3.16715,8.184509 4.90945,9.4005 3.83817,2.678662 9.87612,3.678298 14.812,1.868941 7.10375,-2.603922 9.80908,-6.853832 13.72413,-10.209445 0.81664,-0.698481 1.97827,-0.05802 2.45471,0.41842 1.46001,1.460125 -1.34841,8.444602 -5.96942,11.520492 -4.70091,3.128992 -14.99623,2.298419 -16.06726,2.594209 -1.07462,0.296915 -1.96825,1.361357 -1.72947,3.152094 1.06479,6.726845 9.29625,10.930901 15.81621,7.671023 3.36899,-1.664636 5.55704,-3.353381 7.69889,-5.495243 1.74911,-1.748881 3.63925,-3.981692 4.29577,-4.518938 0.65663,-0.53713 1.80968,-0.480895 2.28736,0.474209 0.47755,0.954898 -0.21334,3.92958 -0.39053,4.407359 -1.63139,4.400434 -5.8785,8.30803 -8.67521,9.121554 -6.584,1.915033 -10.52227,-1.351671 -11.10203,2.092103 -0.63421,3.765452 4.82676,9.419252 11.15782,8.535772 8.25679,-1.15227 11.68525,-8.055422 15.2025301,-13.528917 1.62849,-2.53418 4.69097,-1.80568 4.23997,1.952616 -0.90611,7.555781 -5.9445401,14.334851 -9.8467701,19.414701 4.86973,6.37593 10.7496701,13.52856 15.36990011426,19.21941 C 4.6202281,128.05292 10.500158,120.90029 15.369888,114.52436 11.467768,109.44451 6.4294581,102.66544 5.5231181,95.109659 c -0.45078,-3.758296 2.61159,-4.486796 4.23997,-1.952616 3.5173899,5.473495 6.9459599,12.376647 15.2025299,13.528917 6.33117,0.88348 11.81981,-4.77032 11.18572,-8.535772 -0.57999,-3.443774 -4.51803,-0.17707 -11.10204,-2.092103 -2.79693,-0.813524 -7.0716,-4.72112 -8.7031,-9.121554 -0.17719,-0.477779 -0.8682,-3.452461 -0.39052,-4.407359 0.47766,-0.955104 1.63083,-1.011339 2.28736,-0.474209 0.65651,0.537246 2.54676,2.770057 4.29576,4.518938 2.14184,2.141862 4.3299,3.830607 7.69889,5.495243 6.51996,3.259878 14.75142,-0.944178 15.81621,-7.671023 0.2389,-1.790737 -0.65474,-2.855179 -1.72946,-3.152094 -1.07093,-0.29579 -11.36625,0.534783 -16.06727,-2.594209 -4.62101,-3.07589 -7.40142,-10.060367 -5.94153,-11.520492 0.47655,-0.47644 1.61029,-1.116901 2.42682,-0.41842 3.91506,3.355613 6.6206,7.605523 13.72413,10.209445 4.93599,1.809357 10.97382,0.809721 14.81201,-1.868941 1.74218,-1.215991 5.7783,-5.409112 4.90943,-9.4005 -0.52196,-2.397376 -3.40681,-1.792843 -4.63049,-1.673677 -2.44725,0.238885 -6.80013,0.512475 -13.72413,-0.502104 -12.95802,-2.912199 -21.45893,-10.257325 -25.77456,-19.442585 -2.83666,-6.037077 -3.09284,-14.710745 -2.0921,-17.908371 0.56872,-1.817615 3.31733,-1.950616 4.6305,-0.697366 1.3115,1.251474 6.89899,10.314337 8.36837,12.971022 3.95534,7.149952 8.59242,14.884807 15.98357,19.972565 3.17921,-2.725078 6.51685,-5.448389 9.791,-8.340504 8.65289,2.884198 18.98648,5.695762 28.61981,9.093659 -1.22166,0.445993 -3.84409,1.291088 -6.33207,2.203676 -5.08751,-0.313313 -6.57251,1.389054 -5.91363,5.606839 -0.83104,1.310155 -0.36576,3.939052 1.67367,5.021042 -0.47956,-1.438372 -0.0926,-3.022778 1.0042,-4.128414 2.87136,1.794513 7.16523,0.958915 7.08522,-3.235778 1.83948,-0.613235 3.87657,-1.395293 5.69049,-1.645783 3.50579,0.779041 8.1297,5.387788 11.04625,8.284706 -0.55477,4.993255 2.26012,7.143489 6.917852,7.057351 0.6814,1.362927 0.72291,2.500483 0.55789,3.988932 2.57723,-1.449843 3.56905,-4.217892 2.25946,-7.754708 1.19042,-3.571414 -2.04959,-5.587745 -5.467342,-6.02524 -1.72031,-2.006977 -4.56432,-4.087577 -6.02523,-6.834212 4.38325,0.487045 7.68875,3.23401 11.548352,5.55105 1.5968,0.958683 4.22982,0.231521 6.13681,0.111578 0.92464,0.462266 1.93922,1.418503 2.92892,2.28736 0.49073,-2.208478 0.48649,-6.05559 -1.5621,-6.750501 -0.86628,-3.898125 -3.57485,-4.954327 -7.72678,-3.235777 -3.00056,-0.666695 -5.418572,-1.563679 -8.117322,-2.817376 2.02683,-1.013463 5.233692,-1.715854 8.033632,-1.394731 2.21149,2.663049 5.81602,2.5055 8.14521,-0.223157 1.71027,0 2.91912,1.54114 4.1284,2.315254 0,-3.26244 -0.0703,-7.114131 -3.96103,-7.029447 0,-4.214883 -7.31908,-4.226934 -8.87047,-1.199478 -6.913612,1.536338 -11.262492,3.944194 -17.266722,6.304196 -8.55348,-3.995511 -16.99884,-7.943276 -25.77458,-11.938912 2.25477,-1.932763 4.90488,-4.003098 7.02943,-6.387879 -6.50467,-4.39374 -13.15039,-7.034919 -20.08408,-11.046274 -7.3434,-4.248473 -13.87688,-9.394154 -17.62936,-16.123125 -3.5367,-5.6588255 3.72894,-9.64217886 5.55102,-3.4868293 1.88968,5.6693053 4.39741,11.5558673 9.87466,14.5610163 2.74907,1.508319 7.6468,2.876379 8.53574,-1.087908 0.25328,-1.181822 -0.0547,-2.074897 -0.22316,-2.45471 -0.16726,-0.376689 -3.10511,-1.400551 -5.52311,-3.988951 -1.92473,-2.060186 -3.48705,-5.47672 -3.96103,-8.842607 -0.14025,-0.9955036 -0.25686,-2.290475 0.0558,-3.5426182 0.31298,-1.25213416 0.99504,-2.4473723 2.87313,-2.2594741 1.87809,0.18768404 3.37044,2.5164439 4.01682,5.3836729 1.05911,4.6985804 2.98059,9.0730214 5.55102,12.8036634 2.57053,3.730516 5.80028,6.832176 9.48414,8.954177 2.49456,1.108653 5.95985,1.807456 8.53573,0.585796 2.57602,-1.221687 4.35703,-3.888074 3.1521,-7.587349 -0.35192,-1.080526 -3.80081,-1.039465 -8.50784,-5.746313 -2.13048,-2.101693 -6.37235,-6.631888 -8.25679,-11.0741683 -1.32511,-3.12353816 -2.37863,-6.1076389 -1.84105,-8.8983514 0.53012,-2.7526066 2.58382,-4.3854023 4.90945,-2.4826758 0.68855,0.5634269 2.50526,2.5203447 3.90524,4.8536659 4.89505,8.0192733 9.85191,18.5645786 16.82042,26.3604626 4.5766,6.046218 13.11401,12.524476 23.375632,12.329437 6.04565,-1.779125 13.08737,-4.651486 11.35309,-12.803645 -0.29188,-1.372416 -1.08041,-3.118513 -2.0363,-4.658422 -0.97375,-1.593564 -1.52885,-1.428758 -3.73788,-0.836839 -6.68397,1.790854 -11.813,1.184536 -14.337802,-0.529998 C 87.389288,8.1715 79.025278,-1.1571611 74.227408,-9.4674134 c -2.86353,-4.4457436 -5.59028,-7.5917226 -5.63469,-8.7868536 -0.0446,-1.195149 1.11556,-1.687612 1.67367,-1.338951 0.70819,0.442744 6.1127,6.384791 7.58731,8.005813 7.2256,7.9427034 19.42121,21.085573 29.930862,21.172042 4.32946,0.03571 11.07548,-3.407831 11.9389,-8.87050116 0,0 0.17261,-3.80335494 0.0836,-5.66261884 -0.0881,-1.8592464 0.0168,-3.5826526 -1.31106,-4.3795018 -1.32812,-0.7966702 -2.40374,-0.1271995 -4.35155,0.6694711 -6.32259,2.5865777 -13.99571,-2.3855493 -17.183052,-4.1562553 -3.18724,-1.770706 -15.00728,-9.316834 -15.00728,-9.316834 -4.32879,-3.141337 -10.27222,-9.341711 -11.35308,-11.213642 -0.70093,-1.214519 -0.26042,-2.046707 0.39063,-2.175781 3.07599,-0.35357 6.48593,4.621154 12.85929,9.149439 9.29781,6.606181 12.56627,8.572552 20.753552,10.125725 8.79069,1.667795 16.80794,-3.614252 15.09097,-11.40886 -0.0647,-0.525329 -0.18098,-2.579981 -0.36263,-4.574737 -0.16681,-0.750611 -1.35926,-2.918805 -2.73369,-2.23158 -6.38059,2.986386 -19.514582,0.79543 -28.424442,-3.82152 -7.18374,-3.722616 -12.66658,-7.06301 -14.47739,-8.479977 -0.73385,-0.574397 -3.17384,-3.849548 -0.78105,-3.849548 9.02936,0 17.67979,9.078306 30.656232,10.711556 9.03171,1.125685 12.98994,-2.583096 13.64034,-3.70995 1.15472,-1.999844 4.34934,-5.449049 2.34315,-9.846769 -1.31618,-2.885243 -1.89629,-3.458935 -3.96104,-3.458935 -0.65508,0 -1.30668,0.342055 -2.51051,1.004207 -1.20371,0.661973 -7.46625,2.109727 -16.569372,1.199425 -7.87195,-0.787218 -15.73196,-4.331398 -21.0046,-7.280553 -1.25035,-0.766857 -1.98097,-2.991554 -0.0836,-3.737791 2.18202,-0.858173 9.36644,1.513728 11.10204,1.980474 2.1866,0.588063 5.15525,0.639925 7.50363,1.255303 12.282192,2.68191 23.311702,4.053871 26.332482,-6.583133 0.71735,-3.22819 -0.21289,-7.67305 -3.04052,-9.205336 -0.36174,-0.195931 -2.66126,-0.139428 -3.15208,0.08391 -0.49106,0.223158 -1.36662,1.210583 -2.70578,2.147842 -2.43117,1.701885 -7.83291,2.414292 -13.835702,2.510607 -6.22528,0.09975 -12.57877,-0.959308 -18.18725,-2.733764 -0.7054,-0.223067 -3.13066,-0.774801 -3.79366,-1.143635 -1.72601,-0.960022 -1.55886,-3.432512 0.61368,-3.626302 0.75595,-0.06784 6.75048,0.920559 6.75048,0.920559 6.45838,1.124809 18.063182,2.961838 25.579312,0.195217 6.67617,-2.457485 8.82919,-5.973377 10.37679,-9.288955 1.6276,-5.397913 0.11437,-8.013929 -1.0879,-10.181507 -1.31853,-2.377606 -1.9274,-2.599956 -3.93313,-2.733676 -1.33917,-0.0893 -1.79072,0.0393 -2.5942,0.75311 -0.62495,0.62501 -1.81404,3.705213 -4.37945,5.048975 -1.87462,0.98207 -10.795412,4.571063 -16.513582,5.272142 -4.0379,0.494962 -8.30632,0.267788 -12.18992,-0.66948 -3.40269,-0.911823 -3.7286,-2.807587 -2.62208,-3.821612 1.64019,-1.503008 15.31467,-3.30576 21.95302,-5.634725 9.976322,-3.49999 19.982542,-8.71232 22.176192,-18.52205 1.77878,-7.95457 -2.53787,-13.40711 -8.25681,-14.00312 -2.02291,-0.21084 -3.46138,0.96083 -3.82156,2.87311 -1.99802,7.45658 -6.46897,11.83161 -12.022552,15.17469 -5.55359,3.34326 -12.20454,5.6624 -18.60568,7.97797 l 0.0558,-2.14793 c -12.16414,4.03656 -32.59601,9.16943 -36.09566,12.357289 -5.7224,5.21294 -1.30881,12.724517 -1.33894,18.96836 -3.37323,4.095646 -7.17258,6.804415 -14.72832,2.092142 -0.0702,-4.501613 -1.15563,-7.200484 -0.44632,-11.436806 0.50869,-3.036989 1.69767,-5.732908 3.31946,-8.284762 4.83244,-7.603503 7.83513,-8.430433 11.7995,-10.432513 7.00734,-3.53936 27.21171,-1.04027 27.30866,-9.76323 4.19747,0 8.7079,-0.0348 10.48836,-3.82152 0.44475,-0.84273 0.46159,-1.83614 0.25116,-2.53845 -0.21066,-0.70214 -0.66567,-1.02402 -1.22736,-0.83675 -0.56191,0.18718 -2.57958,2.06822 -4.68628,2.81731 -2.10694,0.7491 -3.45892,1.03206 -3.45892,1.03206 0,0 0.31007,-4.16447 -0.47433,-5.52306 -0.89764,-1.55459 -3.01786,-3.3096 -4.93733,-3.40323 -1.91949,-0.0935 -8.61942,0.36267 -8.61942,0.36267 0.0836,-2.23532 -1.60751,-3.73538 -3.57051,-4.65836 -0.9936,-0.4672 -4.72912,-0.0732 -9.45625,0.0554 -6.7641,0.1845 -12.71713,2.70975 -16.56926,4.29586 -2.17286,0.89451 -5.75833,0.67831 -7.28059,0.33473 -1.52226,-0.34375 -3.54249,-1.2553 -3.54249,-1.2553 1.28314,3.51357 4.17124,6.65188 7.22457,9.37261 -1.56756,0.56771 -6.80905,4.2814 -7.22457,5.83004 0.47365,0.0875 1.06522,0.20611 1.50618,0.41835 -2.46698,2.39111 -5.8761399,6.07159 -8.0336199,8.2289 0.67292,0.4206 1.25481,0.94779 1.78525,1.47845 -2.84524,2.30531 -6.54831,6.641263 -9.12151998574,11.241503 C -2.5734319,-97.500757 -6.2762619,-101.83671 -9.1215219,-104.14202 c 0.53045,-0.53066 1.11222,-1.05785 1.78526,-1.47845 -2.15748,-2.15731 -5.5667501,-5.83779 -8.0336301,-8.2289 0.44096,-0.21224 1.03243,-0.33123 1.50619,-0.41835 -0.4154,-1.54864 -5.65701,-5.26233 -7.22468,-5.83004 3.05344,-2.72073 5.94143,-5.85904 7.22468,-9.37261 0,0 -2.02034,0.91155 -3.54261,1.2553 -1.52203,0.34358 -5.0796,0.55978 -7.25258,-0.33473 -3.85223,-1.58611 -9.83306,-4.11136 -16.59715,-4.29586 -4.7269,-0.12872 -8.46288,-0.52299 -9.45637,-0.0554 -1.96321,0.92298 -3.65452,2.42304 -3.5705,4.65836 0,0 -6.69971,-0.45622 -8.6193,-0.36267 -1.91959,0.0936 -4.04003,1.84864 -4.93746,3.40323 -0.7845,1.35859 -0.47421,5.52306 -0.47421,5.52306 0,0 -1.35198,-0.28296 -3.45892,-1.03206 -2.10671,-0.74909 -4.1246,-2.63013 -4.68629,-2.81731 -0.56178,-0.18727 -1.01669,0.13461 -1.22735,0.83675 -0.21054,0.70231 -0.19358,1.69572 0.25105,2.53845 1.78045,3.7868 6.29089,3.82152 10.48835,3.82152 0.096,8.72296 20.3011,6.22387 27.30878,9.76323 3.96426,2.00208 6.96705,2.82901 11.79939,10.432513 1.62168,2.551854 2.81088,5.247773 3.31956,8.284762 0.70931,4.236322 -0.37702,6.935193 -0.44631,11.436806 -7.55585,4.712273 -11.35531,2.003504 -14.72832,-2.092142 -0.0301,-6.243843 4.38324,-13.75542 -1.33894,-18.96836 -3.49976,-3.187859 -23.93164,-8.320729 -36.09567,-12.357289 l 0.0558,2.14793 c -6.40125,-2.31557 -13.0522,-4.63471 -18.60578,-7.97797 -5.553478,-3.34308 -10.024638,-7.71811 -12.022558,-15.17469 -0.3152,-1.67323 -1.46089,-2.79188 -3.09629,-2.90105 z m 68.313748,8.17319 c 2.47526,-0.13327 4.84061,0.66259 6.80629,2.53837 -4.01157,2.94309 -9.62854,1.34197 -11.3252,-1.311 1.51078,-0.72438 3.03371,-1.1474 4.51891,-1.22737 z m 84.24157,0 c 1.71429,-0.0384 3.48158,0.38231 5.24418,1.22737 -1.69666,2.65297 -7.31362,4.25409 -11.32519,1.311 1.76919,-1.68824 3.8769,-2.48857 6.08101,-2.53837 z m -103.09827,4.37951 c 2.80094,0.017 5.80785,1.02161 6.44363,2.92891 -4.09202,-0.25253 -7.99134,-0.33635 -11.38098,-1.11581 0.71121,-1.23388 2.75877,-1.82623 4.93735,-1.8131 z m 122.68025,0 c 2.17857,-0.0134 4.22614,0.57922 4.93734,1.8131 -3.38963,0.77946 -7.28896,0.86328 -11.38098,1.11581 0.63578,-1.9073 3.64258,-2.91213 6.44364,-2.92891 z m -115.8182,3.70994 c -0.6273,3.3014 -11.04445,4.25078 -11.21361,0.89263 3.86954,0.37053 7.90364,-0.15702 11.21361,-0.89263 z m 108.98404,0 c 3.31007,0.73561 7.31607,1.26316 11.18571,0.89263 -0.16927,3.35815 -10.55831,2.40877 -11.18571,-0.89263 z"
     id="path3019"
     inkscape:connector-curvature="0"
     sodipodi:nodetypes="cccccccccccccccccccccccccccccccccccccccccccccccccccccccccccccccccccccccccccccccccccccccccccccccccccccccccccccccccccccccccccccccccccccccccccccccccccccccccccccccccccccccccccccccccccccccccccccccccccccccccccccccccccccccccccccccccccccccccccccccccccccccccccccccccccccccccccccccccccccccccccccccccccccccccccccccccccccccccccccccccccccccccscccsccccccccccccccc" />
</svg>
