<?xml version="1.0" encoding="UTF-8" standalone="no"?>
<!-- Created with Inkscape (http://www.inkscape.org/) -->

<svg
   xmlns:dc="http://purl.org/dc/elements/1.1/"
   xmlns:cc="http://creativecommons.org/ns#"
   xmlns:rdf="http://www.w3.org/1999/02/22-rdf-syntax-ns#"
   xmlns:svg="http://www.w3.org/2000/svg"
   xmlns="http://www.w3.org/2000/svg"
   xmlns:sodipodi="http://sodipodi.sourceforge.net/DTD/sodipodi-0.dtd"
   xmlns:inkscape="http://www.inkscape.org/namespaces/inkscape"
   version="1.2"
   width="500"
   height="250.00002"
   id="svg19402"
   inkscape:version="0.48.4 r9939"
   sodipodi:docname="Flag_of_British_Honduras_(1919-1981).svg">
  <metadata
     id="metadata203">
    <rdf:RDF>
      <cc:Work
         rdf:about="">
        <dc:format>image/svg+xml</dc:format>
        <dc:type
           rdf:resource="http://purl.org/dc/dcmitype/StillImage" />
      </cc:Work>
    </rdf:RDF>
  </metadata>
  <sodipodi:namedview
     pagecolor="#ffffff"
     bordercolor="#666666"
     borderopacity="1"
     objecttolerance="10"
     gridtolerance="10"
     guidetolerance="10"
     inkscape:pageopacity="0"
     inkscape:pageshadow="2"
     inkscape:window-width="1366"
     inkscape:window-height="712"
     id="namedview201"
     showgrid="false"
     showguides="true"
     inkscape:guide-bbox="true"
     inkscape:zoom="1.4384939"
     inkscape:cx="218.0203"
     inkscape:cy="145.52727"
     inkscape:window-x="-4"
     inkscape:window-y="-4"
     inkscape:window-maximized="1"
     inkscape:current-layer="svg19402"
     fit-margin-top="0"
     fit-margin-left="0"
     fit-margin-right="0"
     fit-margin-bottom="0" />
  <defs
     id="defs19404">
    <clipPath
       id="border">
      <rect
         id="rect3592"
         height="390"
         width="840"
         y="-195"
         x="-420" />
    </clipPath>
  </defs>
  <g
     id="g5393"
     transform="translate(51.356108,-440.45951)">
    <g
       transform="matrix(1.05,0,0,1.05,-313.6787,-39.544263)"
       style="fill:#000000;stroke:#000000;stroke-width:1.42857146;stroke-linejoin:round;stroke-miterlimit:4;stroke-opacity:1;stroke-dasharray:none"
       id="g4834">
      <path
         style="fill:#00247d;fill-opacity:1;stroke:none"
         d="m 249.83104,457.14645 476.19049,0 0,238.09525 -476.19049,0 z"
         id="rect6"
         inkscape:connector-curvature="0" />
      <g
         transform="matrix(0.47619048,0,0,0.47619048,249.83103,457.14647)"
         id="g11985"
         style="stroke:none">
        <g
           id="g11972"
           style="stroke:none">
          <g
             id="g11960"
             style="stroke:none">
            <g
               id="g11949"
               style="stroke:none">
              <g
                 id="g11939"
                 style="stroke:none">
                <g
                   id="g11930"
                   style="stroke:none">
                  <g
                     id="g2411"
                     style="stroke:none">
                    <polygon
                       points="110.765,166.666 0,222.049 0,250 55.902,250 208.333,173.783 208.333,250 291.667,250 291.667,173.783 444.098,250 499.999,250 499.999,222.049 389.234,166.666 499.999,166.666 499.999,83.332 389.234,83.332 499.999,27.949 499.999,0 499.999,0 444.098,0 291.667,76.215 291.667,0 208.333,0 208.333,76.215 55.902,0 0,0 0,27.949 110.765,83.332 0,83.332 0,166.666 "
                       id="polygon8"
                       style="fill:#ffffff;stroke:none" />
                    <polygon
                       points="296.065,83.332 333.333,83.332 499.999,0 499.999,0 462.731,0 "
                       id="polygon10"
                       style="fill:#cf142b;fill-opacity:1;stroke:none" />
                    <polygon
                       points="0,18.633 129.399,83.332 166.667,83.332 166.667,83.332 0,0 "
                       id="polygon12"
                       style="fill:#cf142b;fill-opacity:1;stroke:none" />
                    <polygon
                       points="203.934,166.666 166.667,166.666 0,250 0,250 37.268,250 "
                       id="polygon14"
                       style="fill:#cf142b;fill-opacity:1;stroke:none" />
                    <polygon
                       points="499.999,231.365 370.601,166.666 333.333,166.666 333.333,166.666 499.999,250 "
                       id="polygon16"
                       style="fill:#cf142b;fill-opacity:1;stroke:none" />
                    <path
                       inkscape:connector-curvature="0"
                       id="path2938_1_"
                       d="m 225,0 50,0 0,100 225,0 0,50 -225,0 0,100 -50,0 0,-100 -225,0 0,-50 225,0 0,-100 z"
                       style="fill:#cf142b;fill-opacity:1;stroke:none" />
                  </g>
                </g>
              </g>
            </g>
          </g>
        </g>
      </g>
      <g
         transform="matrix(0.47619048,0,0,0.47619118,237.96567,447.62561)"
         id="g16217">
        <path
           inkscape:connector-curvature="0"
           sodipodi:nodetypes="cczzczzc"
           id="path15272"
           d="m 874.37267,149.89218 c -65.69466,0.003 -133.42471,0.3508 -199.11933,-0.0406 -0.19594,58.81534 -0.0905,140.99603 -0.13975,172.81911 -0.0492,31.82308 31.58137,51.60808 49.98634,51.60765 18.2057,-4.5e-4 43.32033,-2.49908 49.98639,15.85688 5.46727,-18.3359 28.56778,-15.71315 49.9863,-15.85688 20.82074,-0.14374 49.03527,-25.39974 49.08961,-51.60765 0.054,-26.10684 0.61696,-121.96084 0.21044,-172.77854 z"
           style="fill:#ffffff;fill-opacity:1;fill-rule:evenodd;stroke:none;stroke-width:3;marker:none;visibility:visible;display:inline;overflow:visible;enable-background:accumulate" />
        <path
           inkscape:connector-curvature="0"
           style="fill:#00247d;fill-opacity:1;fill-rule:evenodd;stroke:none;display:inline"
           d="m 675,260 c -0.19585,59.25861 -0.29413,66.36702 -0.007,66.59209 3.16899,27.37956 31.5668,45.26106 49.9668,45.26067 17.60699,-3.8e-4 41.97294,-0.20993 49.56504,14.27594 l 0,1.01266 c 0.0809,-0.16795 0.16593,-0.3298 0.25109,-0.49397 0.007,0.0134 0.0186,0.0236 0.0251,0.037 l 0,-0.0864 c 7.57157,-14.49582 31.33889,-14.30101 48.94986,-14.30064 18.39999,3.8e-4 46.81037,-17.88111 49.97936,-45.26068 C 874.01721,326.8116 875.19584,319.25861 875,260 L 775,230 675,260 z"
           id="path6451"
           sodipodi:nodetypes="ccscccccscccc" />
        <g
           style="stroke:#000000;stroke-width:1.11006463;stroke-miterlimit:3.99990177;stroke-opacity:1;stroke-dasharray:none"
           transform="matrix(0.4833887,0,0,0.3685412,778.0255,84.881776)"
           id="g4031">
          <path
             inkscape:connector-curvature="0"
             class="filGold strschiff"
             d="m 89.170104,701.67397 -17.28133,0 0,-47.19851 12.09693,0 0,5.24427 3.45626,0 c 1.72814,0 3.32355,0.92192 3.32355,2.57006 0,1.64809 -1.59541,2.67421 -3.32355,2.67421 l -3.45626,0 0,3.49617 5.1844,5.24427 0,27.96953 z"
             id="path5229"
             style="fill:#ffcc00;fill-rule:evenodd;stroke:#000000;stroke-width:1.11006463;stroke-miterlimit:3.99990177;stroke-opacity:1;stroke-dasharray:none;display:inline" />
          <polyline
             transform="matrix(3.4562656,0,0,3.4961852,-146.00838,402.75011)"
             points="63.0441,79.5 66.0441,79.5 66.0441,78.5 66.0441,80 "
             class="fil2 str1"
             id="polyline5231"
             style="fill:none;stroke:#000000;stroke-width:0.3193357;stroke-miterlimit:3.99990177;stroke-opacity:1;stroke-dasharray:none;display:inline" />
          <polyline
             transform="matrix(3.4562656,0,0,3.4961852,-146.00838,402.75011)"
             points="63.0441,82.5 66.0441,82.5 66.0441,81.5 66.0441,83 "
             class="fil2 str1"
             id="polyline5233"
             style="fill:none;stroke:#000000;stroke-width:0.3193357;stroke-miterlimit:3.99990177;stroke-opacity:1;stroke-dasharray:none;display:inline" />
          <path
             inkscape:connector-curvature="0"
             id="path5235"
             sodipodi:nodetypes="cc"
             class="fil2 str1"
             style="fill:none;stroke:#000000;stroke-width:1.11006463;stroke-miterlimit:3.99990177;stroke-opacity:1;stroke-dasharray:none;display:inline"
             d="M -43.882236,530.13517 1.282294,505.59233" />
          <path
             inkscape:connector-curvature="0"
             id="path5237"
             sodipodi:nodetypes="cc"
             class="fil2 str1"
             style="fill:none;stroke:#000000;stroke-width:1.11006463;stroke-miterlimit:3.99990177;stroke-opacity:1;stroke-dasharray:none;display:inline"
             d="m 27.844704,542.65286 41.29945,-12.29199" />
          <path
             inkscape:connector-curvature="0"
             id="path5239"
             sodipodi:nodetypes="ccc"
             class="fil2 str1"
             style="fill:none;stroke:#000000;stroke-width:1.11006463;stroke-miterlimit:3.99990177;stroke-opacity:1;stroke-dasharray:none;display:inline"
             d="m 93.765304,537.73754 -24.62115,-7.37667 -31.81804,94.39703" />
          <path
             inkscape:connector-curvature="0"
             id="path5241"
             sodipodi:nodetypes="cc"
             class="fil2 str1"
             style="fill:none;stroke:#000000;stroke-width:1.11006463;stroke-miterlimit:3.99990177;stroke-opacity:1;stroke-dasharray:none;display:inline"
             d="m 0.882914,505.88758 43.20331,16.46526" />
          <path
             inkscape:connector-curvature="0"
             id="path5243"
             sodipodi:nodetypes="cc"
             class="fil2 str1"
             style="fill:none;stroke:#000000;stroke-width:1.11006463;stroke-miterlimit:3.99990177;stroke-opacity:1;stroke-dasharray:none;display:inline"
             d="m -105.88579,555.56661 29.002724,-36.56834" />
          <path
             inkscape:connector-curvature="0"
             id="path5245"
             d="m -119.22832,610.66388 27.650124,38.45804"
             class="fil2 str1"
             style="fill:none;stroke:#000000;stroke-width:1.11006463;stroke-miterlimit:3.99990177;stroke-opacity:1;stroke-dasharray:none;display:inline" />
          <path
             inkscape:connector-curvature="0"
             id="path5247"
             d="m -44.048546,630.00216 c 6.91253,13.98472 13.82506,24.4733 29.37826,29.71757"
             class="fil2 str1"
             style="fill:none;stroke:#000000;stroke-width:1.11006463;stroke-miterlimit:3.99990177;stroke-opacity:1;stroke-dasharray:none;display:inline" />
          <path
             inkscape:connector-curvature="0"
             d="m -2.420936,661.46782 6.91253,0 -1.72813,-201.03065 c -0.03664,-1.02613 -0.96361,-1.51105 -1.63758,-1.54461 -0.67397,-0.0336 -1.80348,0.55344 -1.81869,1.54461 l -1.72813,201.03065 z"
             class="filGold str1"
             id="Hauptmast"
             style="fill:#ffcc00;fill-rule:evenodd;stroke:#000000;stroke-width:1.11006463;stroke-miterlimit:3.99990177;stroke-opacity:1;stroke-dasharray:none;display:inline" />
          <path
             inkscape:connector-curvature="0"
             d="m 57.724304,636.68756 4.79695,0.42443 10.8665,-139.61351 c 0.03629,-0.71427 -0.57789,-1.10794 -1.04345,-1.17262 -0.4659,-0.0647 -1.28504,0.2734 -1.35485,0.9604 l -13.26515,139.4013 0,0 z"
             class="filGold str1"
             id="Achternmast"
             style="fill:#ffcc00;fill-rule:evenodd;stroke:#000000;stroke-width:1.11006463;stroke-miterlimit:3.99990177;stroke-opacity:1;stroke-dasharray:none;display:inline" />
          <path
             inkscape:connector-curvature="0"
             d="m -69.042186,638.80832 4.87783,-0.43178 -13.48842,-141.74721 c -0.08848,-0.72161 -0.77213,-1.00585 -1.24979,-0.98767 -0.47765,0.0185 -1.23872,0.5031 -1.18895,1.20374 l 11.04933,141.96292 z"
             class="filGold str1"
             id="Bugmast"
             style="fill:#ffcc00;fill-rule:evenodd;stroke:#000000;stroke-width:1.11006463;stroke-miterlimit:3.99990177;stroke-opacity:1;stroke-dasharray:none;display:inline" />
          <path
             inkscape:connector-curvature="0"
             d="m -145.51114,622.07451 56.172934,27.04898 -1.48539,3.15691 -56.172924,-27.04894 c -0.81039,-0.42142 -0.87832,-1.42711 -0.57621,-2.21065 0.30211,-0.78349 1.37237,-1.15385 2.06159,-0.9463 l 0,0 z"
             class="filGold str1"
             id="Bugspitze"
             style="fill:#ffcc00;fill-rule:evenodd;stroke:#000000;stroke-width:1.11006463;stroke-miterlimit:3.99990177;stroke-opacity:1;stroke-dasharray:none;display:inline" />
          <path
             inkscape:connector-curvature="0"
             class="filGold strschiff"
             d="m 70.160634,701.67397 14.8101,-56.5662 c -51.10088,19.85623 -116.76993,18.10814 -178.02843,3.23885 l 2.50199,9.62502 6.91253,3.49618 c 5.1844,13.98476 10.3688,40.20615 41.47518,40.20615 l 112.32863,0 z"
             id="path5253"
             style="fill:#ffcc00;fill-rule:evenodd;stroke:#000000;stroke-width:1.11006463;stroke-miterlimit:3.99990177;stroke-opacity:1;stroke-dasharray:none;display:inline" />
          <path
             inkscape:connector-curvature="0"
             class="filGold str2"
             d="m -79.715476,653.19235 c 4.71296,34.49685 27.17869,43.2373 47.91628,43.2373 l 63.94091,0 c 20.7376,0 31.10639,-8.74045 44.71993,-20.17439 l 6.13315,-23.26464 c -42.21241,17.21764 -132.07531,27.70623 -162.71027,0.20173 l 0,0 z"
             id="path5255"
             style="fill:#ffcc00;fill-rule:evenodd;stroke:#000000;stroke-width:1.11006463;stroke-linejoin:round;stroke-miterlimit:3.99990177;stroke-opacity:1;stroke-dasharray:none;display:inline" />
          <path
             inkscape:connector-curvature="0"
             class="filGold str2"
             d="m -78.407626,660.33923 c 46.60843,32.59424 122.64627,15.11335 160.10321,-2.41969 l -3.41791,12.96595 c -25.39836,29.04039 -135.99886,30.78848 -152.15275,2.24489 -2.68898,-5.65054 -3.26583,-7.87935 -4.53255,-12.79115 z"
             id="path5257"
             style="fill:#ffcc00;fill-rule:evenodd;stroke:#000000;stroke-width:1.11006463;stroke-linejoin:round;stroke-miterlimit:3.99990177;stroke-opacity:1;stroke-dasharray:none;display:inline" />
          <path
             inkscape:connector-curvature="0"
             class="filGold str2"
             d="m -76.942516,665.64368 c 60.69652,37.77838 140.19062,8.06076 157.52829,-3.51231 l -1.1582,4.393 c -33.46079,24.66101 -119.86743,33.40151 -154.39864,4.23038 -0.81014,-1.70581 -1.39737,-3.42805 -1.97145,-5.11107 l 0,0 z"
             id="path5259"
             style="fill:#ffcc00;fill-rule:evenodd;stroke:#000000;stroke-width:1.11006463;stroke-linejoin:round;stroke-miterlimit:3.99990177;stroke-opacity:1;stroke-dasharray:none;display:inline" />
          <path
             inkscape:connector-curvature="0"
             class="filGold strschiff"
             d="m 87.441964,649.23119 12.09693,-26.22143 -57.02838,13.98476 c -1.72813,8.74045 -3.45626,12.23667 -12.09693,20.97712 l 57.02838,-8.74045 z"
             id="path5268"
             style="fill:#ffcc00;fill-rule:evenodd;stroke:#000000;stroke-width:1.11006463;stroke-miterlimit:3.99990177;stroke-opacity:1;stroke-dasharray:none;display:inline" />
          <path
             inkscape:connector-curvature="0"
             class="filGold str1"
             d="m 84.676604,649.75597 10.88724,-23.59928 -51.32554,12.58626 c -1.55532,7.86643 -3.11064,11.01302 -10.88724,18.8794 l 51.32554,-7.86638 z"
             id="path5270"
             style="fill:#ffcc00;fill-rule:evenodd;stroke:#000000;stroke-width:1.11006463;stroke-miterlimit:3.99990177;stroke-opacity:1;stroke-dasharray:none;display:inline" />
          <rect
             height="1.7480925"
             x="6.2197313"
             id="rect5273"
             y="670.20831"
             width="20.737595"
             class="filBlack str1"
             style="fill:#000000;fill-rule:evenodd;stroke:#000000;stroke-width:1.11006463;stroke-miterlimit:3.99990177;stroke-opacity:1;stroke-dasharray:none;display:inline" />
          <line
             x1="8.1500597"
             y1="676.62524"
             class="fil2 str1"
             x2="4.6937914"
             y2="615.44189"
             id="line5275"
             style="fill:none;stroke:#000000;stroke-width:1.11006463;stroke-miterlimit:3.99990177;stroke-opacity:1;stroke-dasharray:none;display:inline" />
          <line
             x1="11.980626"
             y1="675.71375"
             class="fil2 str1"
             x2="8.5243578"
             y2="614.53052"
             id="line5277"
             style="fill:none;stroke:#000000;stroke-width:1.11006463;stroke-miterlimit:3.99990177;stroke-opacity:1;stroke-dasharray:none;display:inline" />
          <line
             x1="15.811193"
             y1="674.80231"
             class="fil2 str1"
             x2="12.354924"
             y2="613.61902"
             id="line5279"
             style="fill:none;stroke:#000000;stroke-width:1.11006463;stroke-miterlimit:3.99990177;stroke-opacity:1;stroke-dasharray:none;display:inline" />
          <line
             x1="19.641788"
             y1="673.89081"
             class="fil2 str1"
             x2="16.18552"
             y2="612.70758"
             id="line5281"
             style="fill:none;stroke:#000000;stroke-width:1.11006463;stroke-miterlimit:3.99990177;stroke-opacity:1;stroke-dasharray:none;display:inline" />
          <line
             x1="23.472385"
             y1="672.97943"
             class="fil2 str1"
             x2="20.016117"
             y2="611.79614"
             id="line5283"
             style="fill:none;stroke:#000000;stroke-width:1.11006463;stroke-miterlimit:3.99990177;stroke-opacity:1;stroke-dasharray:none;display:inline" />
          <path
             inkscape:connector-curvature="0"
             id="path5286"
             sodipodi:nodetypes="cc"
             class="fil2 str1"
             style="fill:none;stroke:#000000;stroke-width:1.11006463;stroke-miterlimit:3.99990177;stroke-opacity:1;stroke-dasharray:none;display:inline"
             d="m -75.500566,520.04713 31.45202,29.73011" />
          <polygon
             transform="matrix(3.4562656,0,0,3.4961852,-146.00838,402.75011)"
             points="25.5441,74.5 25.5441,74.5 30.0441,75.5 30.0441,76 25.5441,75 "
             class="filBlack str1"
             id="polygon5289"
             style="fill:#000000;fill-rule:evenodd;stroke:#000000;stroke-width:0.3193357;stroke-miterlimit:3.99990177;stroke-opacity:1;stroke-dasharray:none;display:inline" />
          <line
             x1="-55.993053"
             y1="670.20831"
             class="fil2 str1"
             x2="-64.633705"
             y2="617.7655"
             id="line5291"
             style="fill:none;stroke:#000000;stroke-width:1.11006463;stroke-miterlimit:3.99990177;stroke-opacity:1;stroke-dasharray:none;display:inline" />
          <line
             x1="-52.403378"
             y1="671.0191"
             class="fil2 str1"
             x2="-61.044033"
             y2="618.57629"
             id="line5293"
             style="fill:none;stroke:#000000;stroke-width:1.11006463;stroke-miterlimit:3.99990177;stroke-opacity:1;stroke-dasharray:none;display:inline" />
          <line
             x1="-48.813702"
             y1="671.82983"
             class="fil2 str1"
             x2="-57.454357"
             y2="619.38708"
             id="line5295"
             style="fill:none;stroke:#000000;stroke-width:1.11006463;stroke-miterlimit:3.99990177;stroke-opacity:1;stroke-dasharray:none;display:inline" />
          <line
             x1="-45.224026"
             y1="672.64062"
             class="fil2 str1"
             x2="-53.864681"
             y2="620.19781"
             id="line5297"
             style="fill:none;stroke:#000000;stroke-width:1.11006463;stroke-miterlimit:3.99990177;stroke-opacity:1;stroke-dasharray:none;display:inline" />
          <line
             x1="-41.634335"
             y1="673.45129"
             class="fil2 str1"
             x2="-50.275005"
             y2="621.00861"
             id="line5299"
             style="fill:none;stroke:#000000;stroke-width:1.11006463;stroke-miterlimit:3.99990177;stroke-opacity:1;stroke-dasharray:none;display:inline" />
          <path
             inkscape:connector-curvature="0"
             d="m 37.952274,621.35629 c -13.82506,-17.4809 -13.82506,-52.44276 -3.45627,-78.66414 l 58.75652,-5.24429 c -8.64066,29.71758 -15.5532,59.43515 0,96.14516 -20.73759,-13.98482 -48.38772,-17.481 -55.30025,-12.23673 z"
             class="filGold strsegel"
             id="path6091"
             style="fill:#ffffff;fill-opacity:1;fill-rule:evenodd;stroke:#000000;stroke-width:1.11006463;stroke-miterlimit:3.99990177;stroke-opacity:1;stroke-dasharray:none;display:inline" />
          <path
             inkscape:connector-curvature="0"
             d="m 45.762764,520.74029 -89.8629,10.48856 c -20.7376,43.70232 -17.28133,69.9237 0,113.62603 29.37826,-20.97712 60.48464,-19.22903 82.95037,1.74809 -12.09693,-52.44279 -3.45626,-96.1451 6.91253,-125.86268 z"
             class="filGold strsegel"
             id="Hauptsegel"
             style="fill:#ffffff;fill-opacity:1;fill-rule:evenodd;stroke:#000000;stroke-width:1.11006463;stroke-miterlimit:3.99990177;stroke-opacity:1;stroke-dasharray:none;display:inline" />
          <path
             inkscape:connector-curvature="0"
             d="m -103.24961,642.09946 c -15.3982,-19.28566 -15.3982,-57.85711 -3.84955,-86.78568 l 65.442334,-5.78572 c -9.62387,32.78571 -17.32297,65.57141 0,106.07145 -23.0973,-15.4286 -53.89369,-19.28572 -61.592784,-13.50005 z"
             class="filGold strsegel"
             id="Vordersegel"
             style="fill:#ffffff;fill-opacity:1;fill-rule:evenodd;stroke:#000000;stroke-width:1.11006463;stroke-miterlimit:3.99990177;stroke-opacity:1;stroke-dasharray:none;display:inline" />
          <polygon
             transform="matrix(3.4562656,0,0,2.0620024,-146.00838,503.17159)"
             points="66.5441,68.713 66.5441,68.713 60.5441,69.713 60.5441,69 66.5441,68 "
             class="filBlack str1"
             id="polygon5303"
             style="fill:#000000;fill-rule:evenodd;stroke:#000000;stroke-width:0.41581497;stroke-miterlimit:3.99990177;stroke-opacity:1;stroke-dasharray:none;display:inline" />
          <line
             x1="64.976234"
             y1="647.51178"
             class="fil2 str1"
             x2="63.248112"
             y2="624.82971"
             id="line5305"
             style="fill:none;stroke:#000000;stroke-width:1.11006463;stroke-miterlimit:3.99990177;stroke-opacity:1;stroke-dasharray:none;display:inline" />
          <line
             x1="68.722481"
             y1="647.10724"
             class="fil2 str1"
             x2="66.994362"
             y2="624.42523"
             id="line5307"
             style="fill:none;stroke:#000000;stroke-width:1.11006463;stroke-miterlimit:3.99990177;stroke-opacity:1;stroke-dasharray:none;display:inline" />
          <line
             x1="72.468727"
             y1="646.70264"
             class="fil2 str1"
             x2="70.740608"
             y2="624.02063"
             id="line5309"
             style="fill:none;stroke:#000000;stroke-width:1.11006463;stroke-miterlimit:3.99990177;stroke-opacity:1;stroke-dasharray:none;display:inline" />
          <line
             x1="76.214973"
             y1="646.2981"
             class="fil2 str1"
             x2="74.486855"
             y2="623.61603"
             id="line5311"
             style="fill:none;stroke:#000000;stroke-width:1.11006463;stroke-miterlimit:3.99990177;stroke-opacity:1;stroke-dasharray:none;display:inline" />
          <line
             x1="79.96122"
             y1="645.89355"
             class="fil2 str1"
             x2="78.233101"
             y2="623.21149"
             id="line5313"
             style="fill:none;stroke:#000000;stroke-width:1.11006463;stroke-miterlimit:3.99990177;stroke-opacity:1;stroke-dasharray:none;display:inline" />
          <path
             inkscape:connector-curvature="0"
             class="filGold strsegel"
             d="m -141.63719,623.91703 38.9253,-59.44897 c -7.38499,34.20393 -7.31216,54.67407 -6.32016,74.96741 -8.99898,-11.00685 -22.09909,-14.60584 -32.60514,-15.51844 z"
             sodipodi:nodetypes="cccc"
             id="Achternsegel"
             style="fill:#ffffff;fill-opacity:1;fill-rule:evenodd;stroke:#000000;stroke-width:1.11006463;stroke-miterlimit:3.99990177;stroke-opacity:1;stroke-dasharray:none;display:inline" />
          <polygon
             transform="matrix(3.4562656,0,0,3.4961852,-146.00838,402.75011)"
             points="39.5441,23 39.5441,23 45.5441,23 44.0441,29 41.0441,29 "
             class="filGold strschiff"
             id="Kraehennest"
             style="fill:#ffcc00;fill-rule:evenodd;stroke:#000000;stroke-width:0.3193357;stroke-miterlimit:3.99990177;stroke-opacity:1;stroke-dasharray:none;display:inline" />
          <path
             inkscape:connector-curvature="0"
             class="filRot str1"
             d="m -8.944516,461.79983 c 2.60084,-1.36491 5.94512,-1.36491 8.54596,0 l 0,10.00958 c -2.41524,-1.36491 -5.94512,-1.36491 -8.54596,0 l 0,-10.00958 z"
             id="path5318"
             style="fill:#ffcc00;fill-opacity:1;fill-rule:evenodd;stroke:#000000;stroke-width:1.11006463;stroke-miterlimit:3.99990177;stroke-opacity:1;stroke-dasharray:none;display:inline" />
          <path
             inkscape:connector-curvature="0"
             class="filRot str1"
             d="m -19.289466,461.79983 0,10.00958 c -4.75859,-2.68926 -13.04394,-1.36491 -17.99159,0.45486 l 7.19664,-5.9145 -8.54596,-3.18503 c 5.84731,-1.81976 13.0436,-3.63987 19.34091,-1.36491 l 0,0 z"
             id="path5320"
             style="fill:#ffcc00;fill-opacity:1;fill-rule:evenodd;stroke:#000000;stroke-width:1.11006463;stroke-miterlimit:3.99990177;stroke-opacity:1;stroke-dasharray:none;display:inline" />
          <path
             inkscape:connector-curvature="0"
             class="filRot str1"
             d="m -8.944516,474.53923 c -3.14866,1.36491 -7.19663,1.36491 -10.34495,0 l 0,-10.00958 c 2.92331,1.36492 7.19629,1.36492 10.34495,0 l 0,10.00958 z"
             id="path5322"
             style="fill:#ffcc00;fill-opacity:1;fill-rule:evenodd;stroke:#000000;stroke-width:1.11006463;stroke-miterlimit:3.99990177;stroke-opacity:1;stroke-dasharray:none;display:inline" />
          <path
             inkscape:connector-curvature="0"
             class="filBlack str1"
             d="M -143.67746,622.1345 -78.201976,521.12465"
             sodipodi:nodetypes="cc"
             id="Bugseil"
             style="fill:#000000;fill-rule:evenodd;stroke:#000000;stroke-width:1.11006463;stroke-miterlimit:3.99990177;stroke-opacity:1;stroke-dasharray:none;display:inline" />
          <path
             inkscape:connector-curvature="0"
             class="filRot str1"
             d="m 61.993114,503.23994 c 2.60084,-1.3649 5.94512,-1.3649 8.54596,0 l 0,10.00958 c -2.41524,-1.3649 -5.94512,-1.3649 -8.54596,0 l 0,-10.00958 z"
             id="path6095"
             style="fill:#ffcc00;fill-opacity:1;fill-rule:evenodd;stroke:#000000;stroke-width:1.11006463;stroke-miterlimit:3.99990177;stroke-opacity:1;stroke-dasharray:none;display:inline" />
          <path
             inkscape:connector-curvature="0"
             class="filRot str1"
             d="m 51.648164,503.23994 0,10.00958 c -4.75859,-2.68926 -13.04394,-1.3649 -17.99158,0.45486 l 7.19663,-5.9145 -8.54596,-3.18502 c 5.84731,-1.81977 13.0436,-3.63988 19.34091,-1.36492 l 0,0 z"
             id="path6097"
             style="fill:#ffcc00;fill-opacity:1;fill-rule:evenodd;stroke:#000000;stroke-width:1.11006463;stroke-miterlimit:3.99990177;stroke-opacity:1;stroke-dasharray:none;display:inline" />
          <path
             inkscape:connector-curvature="0"
             class="filRot str1"
             d="m 61.993114,515.97935 c -3.14866,1.36491 -7.19663,1.36491 -10.34495,0 l 0,-10.00958 c 2.92331,1.36491 7.19629,1.36491 10.34495,0 l 0,10.00958 z"
             id="path6099"
             style="fill:#ffcc00;fill-opacity:1;fill-rule:evenodd;stroke:#000000;stroke-width:1.11006463;stroke-miterlimit:3.99990177;stroke-opacity:1;stroke-dasharray:none;display:inline" />
          <path
             inkscape:connector-curvature="0"
             class="filRot str1"
             d="m -87.370366,500.54193 c 2.60083,-1.36491 5.94512,-1.36491 8.54596,0 l 0,10.00958 c -2.41524,-1.3649 -5.94513,-1.3649 -8.54596,0 l 0,-10.00958 z"
             id="path6103"
             style="fill:#ffcc00;fill-opacity:1;fill-rule:evenodd;stroke:#000000;stroke-width:1.11006463;stroke-miterlimit:3.99990177;stroke-opacity:1;stroke-dasharray:none;display:inline" />
          <path
             inkscape:connector-curvature="0"
             class="filRot str1"
             d="m -97.715316,500.54193 0,10.00958 c -4.758594,-2.68926 -13.043954,-1.3649 -17.991594,0.45486 l 7.19663,-5.9145 -8.54596,-3.18502 c 5.84731,-1.81977 13.0436,-3.63988 19.340924,-1.36492 l 0,0 z"
             id="path6105"
             style="fill:#ffcc00;fill-opacity:1;fill-rule:evenodd;stroke:#000000;stroke-width:1.11006463;stroke-miterlimit:3.99990177;stroke-opacity:1;stroke-dasharray:none;display:inline" />
          <path
             inkscape:connector-curvature="0"
             class="filRot str1"
             d="m -87.370366,513.28134 c -3.14866,1.3649 -7.19664,1.3649 -10.34495,0 l 0,-10.00958 c 2.92331,1.36491 7.19629,1.36491 10.34495,0 l 0,10.00958 z"
             id="path6107"
             style="fill:#ffcc00;fill-opacity:1;fill-rule:evenodd;stroke:#000000;stroke-width:1.11006463;stroke-miterlimit:3.99990177;stroke-opacity:1;stroke-dasharray:none;display:inline" />
        </g>
        <path
           inkscape:connector-curvature="0"
           sodipodi:nodetypes="cscccccssss"
           id="path9548"
           d="m 686.9591,353.36606 c 10.67571,12.63977 26.5053,20.07791 38.24402,20.07765 17.51359,-3.8e-4 41.7503,-0.21228 49.30212,14.43598 l 0,1.02401 c 0.0805,-0.16984 0.16504,-0.3335 0.24976,-0.49952 0.006,0.0136 0.0186,0.0239 0.025,0.0375 l 0,-0.0874 c 7.5314,-14.65832 31.17264,-14.46133 48.69019,-14.46095 11.64053,2.5e-4 27.30884,-7.31399 37.9838,-19.7616 0.51122,-0.59612 -10.12953,-3.44885 -25.98689,-3.82636 -48.90411,-1.16426 -150.09435,1.18251 -148.50798,3.06074 z"
           style="fill:#00247d;fill-opacity:1;fill-rule:evenodd;stroke:none;display:inline" />
        <path
           inkscape:connector-curvature="0"
           sodipodi:nodetypes="csssssssssssssscssssssscsssssssssssssssssssssssscsssssssssssssssssssssscssssssssssssssssssssss"
           style="fill:#00247d;fill-opacity:1;fill-rule:evenodd;stroke:none;stroke-width:0.39894956;marker:none;visibility:visible;display:inline;overflow:visible;enable-background:accumulate"
           id="path13184"
           d="m 863.05215,351.08934 c -1.37167,-0.1171 -2.58247,-0.29233 -3.68277,-0.49305 -1.10033,-0.20074 -2.0907,-0.43109 -3.04342,-0.67916 -0.9527,-0.24807 -1.86774,-0.51384 -2.80044,-0.78148 -0.9327,-0.2676 -1.89191,-0.53984 -2.92832,-0.79075 -1.03644,-0.25091 -2.14912,-0.48774 -3.41423,-0.68844 -1.26516,-0.20072 -2.67766,-0.37599 -4.29657,-0.49309 -1.61888,-0.11709 -3.45208,-0.18606 -5.54974,-0.18606 -2.06768,0 -3.8297,0.0786 -5.3835,0.20465 -1.5538,0.12603 -2.89456,0.30655 -4.07918,0.52101 -1.1846,0.21447 -2.21119,0.46033 -3.17127,0.72565 -0.96008,0.26535 -1.85625,0.55865 -2.73651,0.83727 -0.88026,0.27863 -1.75304,0.55504 -2.69814,0.8094 -0.94511,0.25434 -1.95269,0.4774 -3.10734,0.66983 -1.15463,0.19249 -2.45523,0.34422 -3.96411,0.43728 -1.50884,0.093 -3.23508,0.12772 -5.24282,0.0837 -1.97779,-0.044 -3.70107,-0.13759 -5.23007,-0.26979 -1.52897,-0.1322 -2.86117,-0.30718 -4.06638,-0.50237 -1.20521,-0.19524 -2.27997,-0.4126 -3.28638,-0.64197 -1.00639,-0.22932 -1.94445,-0.47068 -2.87715,-0.71634 -0.9327,-0.24561 -1.85633,-0.49859 -2.8388,-0.73493 -0.98249,-0.23634 -2.02381,-0.45601 -3.18408,-0.65125 -1.16025,-0.19523 -2.45137,-0.35156 -3.91294,-0.48376 -1.46158,-0.1322 -3.0992,-0.24439 -4.98709,-0.2884 -1.85792,-0.044 -3.49199,-0.009 -4.96151,0.0837 -1.46953,0.093 -2.77201,0.24478 -3.96409,0.43722 -1.19211,0.19249 -2.27328,0.43177 -3.29917,0.68848 -1.02588,0.25664 -1.9965,0.53077 -2.96668,0.80934 -0.97015,0.27863 -1.94077,0.5629 -2.96667,0.82804 -1.0259,0.26513 -2.10705,0.51114 -3.29915,0.7256 -1.19211,0.21452 -2.49458,0.39499 -3.9641,0.52101 -1.46952,0.12602 -3.1036,0.19538 -4.96152,0.19538 -1.85791,0 -3.49821,-0.0694 -4.9615,-0.19538 -1.4633,-0.12602 -2.75601,-0.30649 -3.93853,-0.52101 -1.18252,-0.21446 -2.24657,-0.46047 -3.26079,-0.7256 -1.01422,-0.26514 -1.9786,-0.54937 -2.9411,-0.82804 -0.9625,-0.27862 -1.93064,-0.555 -2.95389,-0.80934 -1.02326,-0.25436 -2.1013,-0.49599 -3.29915,-0.68848 -1.19786,-0.19244 -2.51616,-0.34421 -4.00246,-0.43722 -1.11473,-0.0698 -2.32405,-0.1067 -3.6572,-0.10232 -0.44439,0.001 -0.8961,0.008 -1.36824,0.0186 -1.88789,0.044 -3.54931,0.1562 -5.03826,0.2884 -1.48893,0.1322 -2.81286,0.28853 -4.01524,0.48376 -1.20237,0.19524 -2.28447,0.41491 -3.31194,0.65125 -1.02746,0.23634 -2.00029,0.48932 -2.96668,0.73493 -0.96639,0.24566 -1.92401,0.48702 -2.9411,0.71634 -1.01709,0.22937 -2.09363,0.44673 -3.27358,0.64197 -1.17994,0.19519 -2.47043,0.37017 -3.92573,0.50237 -1.45529,0.1322 -3.08013,0.2258 -4.92315,0.26979 -1.873,0.044 7.66894,8.24254 8.84888,8.0473 1.17995,-0.19518 2.25649,-0.4172 3.27358,-0.65119 1.01709,-0.23404 1.97471,-0.48004 2.9411,-0.72567 0.96639,-0.24566 1.93922,-0.49863 2.96668,-0.73497 1.02747,-0.23635 2.10957,-0.45601 3.31194,-0.65125 1.20238,-0.19519 2.52631,-0.35152 4.01524,-0.48377 1.48895,-0.1322 3.15037,-0.22579 5.03826,-0.26975 1.88859,-0.0441 3.53913,-0.009 5.02544,0.0837 1.48629,0.0931 2.80461,0.24478 4.00246,0.43728 1.19784,0.19249 2.27589,0.41549 3.29915,0.66983 1.02325,0.25436 1.99139,0.53077 2.95389,0.8094 0.9625,0.27863 1.92688,0.56055 2.9411,0.82799 1.01422,0.26744 2.07827,0.52046 3.26079,0.73492 1.18252,0.21447 2.47523,0.37635 3.93853,0.50242 1.46329,0.12602 3.10359,0.20465 4.9615,0.20465 1.85792,0 3.492,-0.0786 4.96152,-0.20465 1.46953,-0.12602 2.77199,-0.28795 3.9641,-0.50242 1.1921,-0.21446 2.27325,-0.46748 3.29915,-0.73492 1.0259,-0.26744 1.99652,-0.54936 2.96667,-0.82799 0.97018,-0.27863 1.9408,-0.54803 2.96668,-0.80007 1.02589,-0.25205 2.10706,-0.48667 3.29917,-0.67916 1.19208,-0.19244 2.49456,-0.34421 3.96409,-0.43728 1.46952,-0.093 3.1036,-0.12768 4.96151,-0.0837 1.88789,0.044 3.52551,0.13755 4.98709,0.26975 1.46157,0.13225 2.75269,0.28858 3.91294,0.48377 1.16028,0.19524 2.20159,0.4149 3.18408,0.65125 0.98247,0.23634 1.9061,0.48931 2.8388,0.73497 0.9327,0.24563 1.87076,0.49163 2.87715,0.72567 1.00641,0.23399 2.08117,0.45601 3.28638,0.65119 1.20521,0.19524 2.5374,0.35158 4.06638,0.48378 1.529,0.1322 3.25228,0.22584 5.23007,0.26979 2.00774,0.044 3.73397,0.009 5.24282,-0.0837 1.50888,-0.093 2.80948,-0.24479 3.96411,-0.43722 1.15465,-0.19249 2.16223,-0.41555 3.10734,-0.66989 0.9451,-0.25429 1.81788,-0.53071 2.69814,-0.80934 0.88026,-0.27863 1.77642,-0.56266 2.73651,-0.82799 0.9601,-0.26533 1.98667,-0.52052 3.17127,-0.73498 1.18461,-0.21446 2.52538,-0.37635 4.07918,-0.50236 1.55381,-0.12602 3.31582,-0.20466 5.3835,-0.20466 2.09765,0 3.93086,0.069 5.54974,0.18607 1.61891,0.11709 3.0314,0.26445 4.29657,0.46513 1.26506,0.20073 2.37779,0.44683 3.41423,0.69775 1.03637,0.25091 1.99563,0.52315 2.92832,0.79079 0.9327,0.2676 1.84774,0.53338 2.80044,0.78144 0.95272,0.24807 8.09782,-7.51157 6.72619,-7.62866 z" />
        <path
           inkscape:connector-curvature="0"
           d="m 856.13241,358.70341 c -0.95806,-0.24805 -1.87823,-0.5138 -2.81617,-0.78143 -0.93794,-0.26756 -1.90254,-0.53979 -2.94477,-0.79069 -1.04227,-0.25088 -2.1612,-0.48769 -3.43341,-0.68836 -1.27227,-0.20072 -2.69271,-0.37597 -4.32072,-0.49305 -1.62798,-0.11709 -3.47148,-0.18605 -5.58091,-0.18605 -2.0793,0 -3.85122,0.0786 -5.41376,0.20464 -1.56252,0.12601 -2.91082,0.30651 -4.10209,0.52095 -1.19126,0.21445 -2.22362,0.46029 -3.18909,0.7256 -0.96548,0.26532 -1.86668,0.55859 -2.75188,0.8372 -0.88522,0.2786 -1.76289,0.55499 -2.71331,0.80932 -0.95043,0.25432 -1.96367,0.47736 -3.1248,0.66978 -1.16112,0.19247 -2.46902,0.34418 -3.98637,0.43723 -1.51732,0.093 -3.25326,0.12772 -5.27229,0.0837 -1.9889,-0.044 -3.72185,-0.13759 -5.25944,-0.26978 -1.53757,-0.13218 -2.87725,-0.30715 -4.08924,-0.50232 -1.21198,-0.19522 -2.29277,-0.41256 -3.30483,-0.64192 -1.01205,-0.2293 -1.95538,-0.47063 -2.89332,-0.71628 -0.93795,-0.24559 -1.86676,-0.49854 -2.85476,-0.73486 -0.988,-0.23633 -2.03517,-0.45597 -3.20196,-0.6512 -1.16677,-0.19521 -2.46515,-0.35153 -3.93493,-0.48373 -1.46978,-0.13218 -3.11661,-0.24436 -5.01511,-0.28836 -1.86835,-0.044 -3.51161,-0.009 -4.98939,0.0837 -1.47778,0.093 -2.78758,0.24476 -3.98636,0.43719 -1.19881,0.19246 -2.28605,0.43173 -3.3177,0.68841 -1.03164,0.25662 -2.00772,0.53073 -2.98335,0.80928 -0.9756,0.2786 -1.95167,0.56285 -2.98333,0.82796 -1.03167,0.26511 -2.1189,0.51111 -3.3177,0.72555 -1.1988,0.2145 -2.50858,0.39496 -3.98637,0.52096 -1.47778,0.12602 -3.12103,0.19537 -4.98939,0.19537 -1.86835,0 -3.51788,-0.0693 -4.98937,-0.19537 -1.47152,-0.126 -2.7715,-0.30646 -3.96067,-0.52096 -1.18917,-0.21444 -2.25919,-0.46044 -3.27911,-0.72555 -1.01991,-0.26511 -1.98972,-0.54932 -2.95762,-0.82796 -0.96791,-0.27861 -1.94149,-0.55496 -2.97049,-0.80928 -1.029,-0.25433 -2.1131,-0.49595 -3.31768,-0.68841 -1.20459,-0.19243 -2.5303,-0.34419 -4.02495,-0.43719 -1.12099,-0.0697 -2.33711,-0.10669 -3.67775,-0.10232 -0.44689,10e-4 -0.90113,0.008 -1.37593,0.0186 -1.8985,0.044 -3.56925,0.15618 -5.06656,0.28836 -1.4973,0.1322 -2.82867,0.28852 -4.0378,0.48373 -1.20913,0.19523 -2.29731,0.41487 -3.33056,0.6512 -1.03323,0.23632 -2.01151,0.48927 -2.98334,0.73486 -0.97183,0.24565 -1.93483,0.48698 -2.95762,0.71628 -1.0228,0.22936 -2.10541,0.4467 -3.29197,0.64192 -1.18658,0.19517 8.1997,6.94339 9.23293,6.70707 1.03325,-0.23632 2.12143,-0.45597 3.33056,-0.6512 1.20913,-0.19516 2.5405,-0.35148 4.0378,-0.48373 1.49731,-0.13218 3.16806,-0.22577 5.06656,-0.26972 1.89921,-0.0441 3.55903,-0.009 5.05368,0.0837 1.49464,0.0931 2.82037,0.24476 4.02495,0.43723 1.20457,0.19247 2.28868,0.41545 3.31768,0.66978 1.029,0.25433 2.00259,0.53072 2.97049,0.80933 0.9679,0.2786 1.93771,0.56049 2.95762,0.82792 1.01992,0.26742 2.08994,0.52042 3.27911,0.73486 1.18917,0.21444 2.48915,0.37632 3.96067,0.50237 1.4715,0.12602 3.12102,0.20464 4.98937,0.20464 1.86836,0 3.51161,-0.0786 4.98939,-0.20464 1.47779,-0.12601 2.78757,-0.28793 3.98637,-0.50237 1.1988,-0.21444 2.28603,-0.46744 3.3177,-0.73486 1.03166,-0.26743 2.00773,-0.54932 2.98333,-0.82792 0.97563,-0.27861 1.95171,-0.54799 2.98335,-0.80001 1.03165,-0.25201 2.11889,-0.48663 3.3177,-0.6791 1.19878,-0.19242 2.50858,-0.34418 3.98636,-0.43723 1.47778,-0.093 3.12105,-0.12768 4.98939,-0.0837 1.8985,0.0439 3.54533,0.13754 5.01511,0.26972 1.46978,0.13225 2.76816,0.28857 3.93493,0.48373 1.1668,0.19523 2.21396,0.41488 3.20196,0.6512 0.988,0.23632 1.91681,0.48926 2.85476,0.73492 0.93794,0.24559 1.88127,0.49158 2.89332,0.72559 1.01206,0.23398 2.09285,0.45597 3.30483,0.65114 1.21199,0.19523 2.55167,0.35155 4.08924,0.48374 1.53759,0.13218 3.27054,0.22583 5.25944,0.26977 2.01903,0.044 3.75496,0.009 5.27229,-0.0837 1.51735,-0.093 2.82525,-0.24476 3.98637,-0.43718 1.16113,-0.19248 2.17438,-0.41551 3.1248,-0.66984 0.95042,-0.25427 1.82809,-0.53066 2.71331,-0.80927 0.8852,-0.2786 1.78639,-0.5626 2.75188,-0.82791 0.96549,-0.26532 1.99783,-0.52047 3.18909,-0.73492 1.19126,-0.21444 2.53957,-0.37632 4.10209,-0.50232 1.56255,-0.12602 3.33446,-0.20464 5.41376,-0.20464 2.10942,0 3.95293,0.069 5.58091,0.18605 1.62801,0.11708 3.04844,0.26443 4.32072,0.46509 1.27217,0.20071 10.15242,-6.28229 9.19435,-6.53033 z"
           id="path13186"
           style="fill:#ffffff;fill-opacity:1;fill-rule:evenodd;stroke:none;stroke-width:0.40005195;marker:none;visibility:visible;display:inline;overflow:visible;enable-background:accumulate"
           sodipodi:nodetypes="csssssssssssscssssssscsssssssssssssssssssssssssssssssssssssssssscsssssssssssssssssss" />
        <path
           inkscape:connector-curvature="0"
           sodipodi:nodetypes="cssssssssssssssscssssssscsssssssssssssssssssssssscssssssssssssssssssssssssscssssssssssssssssssssssss"
           style="fill:#ffffff;fill-opacity:1;fill-rule:evenodd;stroke:none;stroke-width:0.39855018;marker:none;visibility:visible;display:inline;overflow:visible;enable-background:accumulate"
           id="path13188"
           d="m 867.8708,342.48009 c -1.76443,0 -3.30183,-0.0597 -4.67068,-0.1768 -1.36888,-0.11709 -2.57723,-0.29232 -3.6753,-0.49306 -1.0981,-0.20073 -2.08645,-0.4311 -3.03723,-0.67917 -0.95077,-0.24808 -1.86394,-0.51386 -2.79474,-0.78151 -0.93081,-0.2676 -1.88807,-0.53986 -2.92238,-0.79079 -1.03434,-0.25091 -2.14476,-0.48775 -3.40729,-0.68844 -1.26259,-0.20074 -2.67222,-0.376 -4.28785,-0.49311 -1.61558,-0.11709 -3.44507,-0.18606 -5.53845,-0.18606 -2.06348,0 -3.82193,0.0786 -5.37257,0.20466 -1.55064,0.12602 -2.88869,0.30655 -4.07089,0.52101 -1.18221,0.21447 -2.2067,0.46034 -3.16483,0.72569 -0.95813,0.26534 -1.85247,0.55864 -2.73095,0.83729 -0.87848,0.27863 -1.74947,0.55505 -2.69266,0.80942 -0.9432,0.25435 -1.94873,0.4774 -3.10103,0.66985 -1.15229,0.19249 -2.45024,0.34422 -3.95605,0.43729 -1.50577,0.093 -3.2285,0.12774 -5.23217,0.0837 -1.97378,-0.044 -3.69355,-0.1376 -5.21944,-0.26981 -1.52587,-0.1322 -2.85537,-0.30718 -4.05813,-0.50238 -1.20275,-0.19524 -2.27533,-0.41261 -3.2797,-0.64199 -1.00434,-0.22934 -1.9405,-0.47069 -2.8713,-0.71636 -0.93081,-0.24562 -1.85256,-0.4986 -2.83304,-0.73495 -0.98048,-0.23635 -2.01968,-0.45603 -3.1776,-0.65127 -1.1579,-0.19524 -2.4464,-0.35158 -3.905,-0.48378 -1.4586,-0.13222 -3.09291,-0.2444 -4.97696,-0.2884 -1.85413,-0.044 -3.48489,-0.009 -4.95143,0.0837 -1.46654,0.093 -2.76637,0.2448 -3.95603,0.43724 -1.18969,0.1925 -2.26866,0.43179 -3.29246,0.6885 -1.0238,0.25666 -1.99245,0.53078 -2.96066,0.80937 -0.96818,0.27863 -1.93682,0.56292 -2.96064,0.82805 -1.02382,0.26515 -2.10277,0.51117 -3.29245,0.72564 -1.18969,0.21452 -2.48951,0.39499 -3.95605,0.52101 -1.46653,0.12604 -3.09729,0.1954 -4.95143,0.1954 -1.85414,0 -3.49112,-0.0694 -4.95142,-0.1954 -1.46033,-0.12602 -2.75042,-0.30649 -3.93053,-0.52101 -1.18012,-0.21447 -2.24201,-0.46049 -3.25417,-0.72564 -1.01216,-0.26513 -1.97458,-0.54937 -2.93512,-0.82805 -0.96055,-0.27864 -1.92672,-0.55501 -2.94789,-0.80937 -1.02118,-0.25436 -2.09703,-0.496 -3.29245,-0.6885 -1.19543,-0.19244 -2.51105,-0.34423 -3.99432,-0.43724 -1.11247,-0.0698 -2.31934,-0.10669 -3.64978,-0.10232 -0.44348,10e-4 -0.89427,0.008 -1.36547,0.0186 -1.88405,0.044 -3.54209,0.15618 -5.02801,0.2884 -1.48591,0.1322 -2.80715,0.28854 -4.00708,0.48378 -1.19993,0.19524 -2.27983,0.41492 -3.30522,0.65127 -1.02537,0.23635 -1.99622,0.48933 -2.96065,0.73495 -0.96444,0.24567 -1.9201,0.48702 -2.93512,0.71636 -1.01502,0.22938 -2.08938,0.44675 -3.26693,0.64199 -1.17755,0.1952 -2.46541,0.37018 -3.91776,0.50238 -1.45233,0.13221 -3.07387,0.22581 -4.91315,0.26981 -1.86919,0.044 -3.73811,0.009 -5.58951,-0.0837 -1.46629,-0.0737 3.72032,8.92887 5.58951,8.88487 1.83928,-0.044 3.46082,-0.1376 4.91315,-0.26981 1.45235,-0.1322 2.74021,-0.28854 3.91776,-0.48379 1.17755,-0.19519 2.25191,-0.41721 3.26693,-0.65121 1.01502,-0.23405 1.97068,-0.48006 2.93512,-0.72568 0.96443,-0.24568 1.93528,-0.49865 2.96065,-0.735 1.02539,-0.23636 2.10529,-0.45603 3.30522,-0.65127 1.19993,-0.19519 2.52117,-0.35154 4.00708,-0.48379 1.48592,-0.1322 3.14396,-0.22581 5.02801,-0.26975 1.88477,-0.0441 3.53196,-0.009 5.01525,0.0837 1.48327,0.0931 2.7989,0.24479 3.99432,0.43729 1.19541,0.1925 2.27127,0.4155 3.29245,0.66986 1.02117,0.25435 1.98735,0.53077 2.94789,0.80942 0.96054,0.27863 1.92296,0.56056 2.93512,0.828 1.01217,0.26745 2.07405,0.52049 3.25417,0.73496 1.18011,0.21447 2.4702,0.37636 3.93053,0.50243 1.46031,0.12602 3.09728,0.20466 4.95142,0.20466 1.85414,0 3.4849,-0.0786 4.95143,-0.20466 1.46654,-0.12602 2.76636,-0.28796 3.95605,-0.50243 1.18968,-0.21447 2.26863,-0.46751 3.29245,-0.73496 1.02382,-0.26744 1.99246,-0.54937 2.96064,-0.828 0.96821,-0.27865 1.93686,-0.54805 2.96066,-0.80011 1.0238,-0.25204 2.10277,-0.48667 3.29246,-0.67917 1.18966,-0.19244 2.48949,-0.34422 3.95603,-0.43729 1.46654,-0.093 3.0973,-0.12769 4.95143,-0.0837 1.88405,0.0439 3.51836,0.13755 4.97696,0.26975 1.4586,0.13225 2.7471,0.2886 3.905,0.48379 1.15793,0.19524 2.19712,0.41491 3.1776,0.65127 0.98048,0.23635 1.90223,0.48932 2.83304,0.735 0.9308,0.24562 1.86696,0.49163 2.8713,0.72568 1.00437,0.234 2.07695,0.45602 3.2797,0.65121 1.20276,0.19525 2.53226,0.35159 4.05813,0.48379 1.52589,0.13221 3.24566,0.22585 5.21944,0.26981 2.00366,0.044 3.72638,0.009 5.23217,-0.0837 1.50581,-0.093 2.80376,-0.24479 3.95605,-0.43723 1.1523,-0.1925 2.15784,-0.41556 3.10103,-0.66991 0.94319,-0.25431 1.81418,-0.53073 2.69266,-0.80937 0.87848,-0.27864 1.77281,-0.56267 2.73095,-0.82801 0.95815,-0.26534 1.98262,-0.52053 3.16483,-0.735 1.18219,-0.21447 2.52025,-0.37636 4.07089,-0.50238 1.55065,-0.12603 3.30909,-0.20466 5.37257,-0.20466 2.09337,0 3.92287,0.069 5.53845,0.18607 1.61563,0.11709 3.02525,0.26445 4.28785,0.46514 1.26249,0.20074 2.37295,0.44685 3.40729,0.69777 1.03427,0.25091 1.99157,0.52318 2.92238,0.79083 0.9308,0.2676 1.84397,0.53339 2.79474,0.78145 0.95078,0.24809 1.93913,0.47844 3.03723,0.67919 1.09807,0.20073 2.30642,0.36668 3.6753,0.48378 1.36885,0.11709 6.43532,-8.61507 4.67068,-8.61507 z" />
        <g
           transform="matrix(0.08928461,0,0,0.08928461,722.88489,196.77245)"
           clip-path="url(#border)"
           id="g3596">
          <circle
             style="fill:#00247d;fill-opacity:1;stroke:none"
             sodipodi:ry="556"
             sodipodi:rx="556"
             sodipodi:cy="0"
             sodipodi:cx="0"
             cy="0"
             cx="0"
             r="556"
             id="circle3598"
             d="M 556,0 C 556,307.07032 307.07032,556 0,556 -307.07032,556 -556,307.07032 -556,0 c 0,-307.07032 248.92968,-556 556,-556 307.07032,0 556,248.92968 556,556 z" />
          <path
             inkscape:connector-curvature="0"
             style="stroke:#ffffff;stroke-width:78"
             d="M -504,-234 504,234 m -1008,0 1008,-468"
             id="diags_white" />
          <path
             inkscape:connector-curvature="0"
             style="stroke:#cf142b;stroke-width:52;stroke-opacity:1"
             d="M -504,-234 504,234 m -1008,0 1008,-468"
             id="diags_red" />
          <path
             inkscape:connector-curvature="0"
             style="fill:#ffffff;stroke:none"
             d="M 0,0 504,234 426,234 -78,0 m 78,0 504,-234 78,0 L 78,0 M 0,0 -504,234 -582,234 -78,0 m 78,0 -504,-234 78,0 L 78,0"
             id="eraser_white" />
          <!-- Comment: I think the above two lines give the simplest way to make the diagonals -->
          <path
             inkscape:connector-curvature="0"
             style="stroke:#ffffff;stroke-width:130"
             d="M -420,0 420,0 M 0,-195 0,195"
             id="cross_white" />
          <path
             inkscape:connector-curvature="0"
             style="fill:none;stroke:#cf142b;stroke-width:78"
             d="M -420,0 420,0 M 0,-195 0,195"
             id="cross_red" />
        </g>
        <path
           inkscape:connector-curvature="0"
           style="fill:none;stroke:#000000;stroke-width:3;stroke-linecap:butt;stroke-linejoin:miter;stroke-miterlimit:4;stroke-opacity:1;stroke-dasharray:none"
           d="M 775,230.09128 C 775,206.0639 775,174.02739 775,150"
           id="path13769"
           sodipodi:nodetypes="cc" />
        <g
           id="g15274">
          <g
             transform="matrix(-0.1818001,0.02392038,-0.01810246,-0.1750328,920.18416,265.03189)"
             id="g3788"
             style="fill:#784421;fill-opacity:1;stroke:#000000;stroke-width:1.33787239;stroke-miterlimit:4;stroke-opacity:1;stroke-dasharray:none;display:inline">
            <path
               inkscape:connector-curvature="0"
               style="fill:#784421;fill-opacity:1;fill-rule:evenodd;stroke:#000000;stroke-width:1.33787239;stroke-linecap:butt;stroke-linejoin:miter;stroke-miterlimit:4;stroke-opacity:1;stroke-dasharray:none"
               d="m 342.77088,463.95413 16.7313,-22.15583 c 63.43439,48.33696 237.98498,145.54955 237.98498,145.54955 l -10.33064,20.1561 -244.38564,-143.54982 z"
               id="path3641"
               sodipodi:nodetypes="ccccc" />
            <path
               inkscape:connector-curvature="0"
               style="fill:#784421;fill-opacity:1;fill-rule:evenodd;stroke:#000000;stroke-width:1.33787239;stroke-linecap:butt;stroke-linejoin:miter;stroke-miterlimit:4;stroke-opacity:1;stroke-dasharray:none"
               d="m 330.66736,542.54521 c -1.43768,-13.16902 -1.37609,-31.16568 0.16262,-47.48929 1.0873,-11.53512 0.89397,-13.86078 -1.27146,-15.29411 -3.2596,-2.15756 -7.16161,-7.85787 -2.63427,-12.6577 3.08099,-3.26638 7.0724,-3.82021 13.46224,-0.22257 3.1222,1.75787 6.01672,3.24418 6.18175,2.99483 l 18.48287,-27.92345 -46.12527,-30.53088 -4.95151,7.48059 -11.90856,17.99119 -4.01367,6.02241 c -12.03267,18.0401 -36.69007,40.63318 -52.08996,47.72901 -2.77405,1.27817 -5.06142,2.89201 -5.08304,3.58625 -0.0877,2.81812 19.63919,21.06874 36.66532,33.92134 9.26857,6.9966 35.64426,22.07168 44.47589,25.42029 9.6664,3.05905 9.29188,3.27181 8.64705,-11.02791 z"
               id="Axe" />
          </g>
          <g
             transform="matrix(-0.2038702,0.02475972,0.01826426,0.1957967,721.29103,108.32034)"
             id="g3656"
             style="fill:#784421;fill-opacity:1;stroke:#000000;stroke-width:1.6901623;stroke-miterlimit:4;stroke-opacity:1;stroke-dasharray:none;display:inline">
            <path
               inkscape:connector-curvature="0"
               sodipodi:nodetypes="ccccc"
               id="path3649"
               d="m -275.5378,414.91007 -12.45514,-25.21023 c -63.4344,48.33696 -280.43095,162.37627 -280.43095,162.37627 l 10.3306,20.1561 282.55549,-157.32214 z"
               style="fill:#784421;fill-opacity:1;fill-rule:evenodd;stroke:#000000;stroke-width:1.6901623;stroke-linecap:butt;stroke-linejoin:miter;stroke-miterlimit:4;stroke-opacity:1;stroke-dasharray:none" />
            <path
               inkscape:connector-curvature="0"
               style="fill:#784421;fill-opacity:1;fill-rule:evenodd;stroke:#000000;stroke-width:1.6901623;stroke-linecap:butt;stroke-linejoin:miter;stroke-miterlimit:4;stroke-opacity:1;stroke-dasharray:none"
               d="m -383.625,322.03125 c -3.40682,0.20313 -3.56808,2.05184 1.6875,5 14.05276,7.88303 28.12758,20.19289 39.4375,32.40625 9.53609,10.29783 23.04306,29.16968 27.0625,44.6875 l -28.5,17.53125 18.46875,27.90625 c 0.165,0.24935 20.12781,-12.02338 23.25,-13.78125 13.01116,10.02361 22.51797,37.36644 25.75,53.4375 3.2819,16.319 5.02206,34.92949 3.1875,50.9375 -1.82962,15.96486 9.4208,-12.98685 7.72685,-41.4757 -1.69566,-28.51769 -7.41965,-64.08072 -24.01776,-91.39443 -16.76505,-27.58842 -47.98802,-61.42609 -59.83409,-70.06737 -12.04453,-8.78606 -28.54071,-15.52605 -34.21875,-15.1875 z"
               id="path3651"
               sodipodi:nodetypes="cssccccssszzc" />
          </g>
          <g
             transform="matrix(-0.1638573,0.08887985,-0.07756035,-0.1618649,932.59478,276.25097)"
             style="fill:#784421;fill-opacity:1;stroke:#000000;stroke-width:1.31439888;stroke-miterlimit:4;stroke-opacity:1;stroke-dasharray:none"
             id="g1432">
            <rect
               transform="matrix(0.763754,-0.645507,0.645507,0.763754,0,0)"
               ry="8.4853201"
               rx="14.817741"
               y="469.28149"
               x="-133.46271"
               height="334.4082"
               width="26.89922"
               id="rect3157"
               style="fill:#784421;fill-opacity:1;stroke:#000000;stroke-width:1.31439924;stroke-miterlimit:4;stroke-opacity:1;stroke-dasharray:none;stroke-dashoffset:0" />
            <rect
               transform="matrix(0.746146,-0.665782,0.665782,0.746146,0,0)"
               ry="0"
               rx="0"
               y="491.65005"
               x="-214.24083"
               height="75.987793"
               width="158.0546"
               id="rect3159"
               style="fill:#784421;fill-opacity:1;stroke:#000000;stroke-width:1.31439924;stroke-miterlimit:4;stroke-opacity:1;stroke-dasharray:none;stroke-dashoffset:0" />
          </g>
        </g>
        <path
           inkscape:connector-curvature="0"
           sodipodi:nodetypes="cczzczzc"
           id="path5290"
           d="m 874.37306,150.47569 c -65.69492,0.003 -133.42523,0.34945 -199.12011,-0.0404 -0.19593,58.5911 -0.0905,140.45847 -0.13974,172.16022 -0.0492,31.70175 31.58149,51.41133 49.98653,51.41089 18.20577,-4.4e-4 43.32049,-2.48955 49.98658,15.79644 5.46729,-18.266 28.56789,-15.65326 49.9865,-15.79644 20.82081,-0.14318 49.03546,-25.3029 49.0898,-51.41089 0.054,-26.0073 0.61696,-121.49586 0.21044,-172.1198 z"
           style="fill:none;stroke:#000000;stroke-width:0.4004564;stroke-linecap:butt;stroke-linejoin:miter;stroke-miterlimit:4;stroke-opacity:1;stroke-dasharray:none;stroke-dashoffset:0;marker:none;visibility:visible;display:inline;overflow:visible;enable-background:accumulate" />
        <path
           inkscape:connector-curvature="0"
           sodipodi:nodetypes="cczzczzc"
           id="path5472"
           d="m 874.37267,149.89218 c -65.69466,0.003 -133.42471,0.3508 -199.11933,-0.0406 -0.19594,58.81534 -0.0905,140.99603 -0.13975,172.81911 -0.0492,31.82308 31.58137,51.60808 49.98634,51.60765 18.2057,-4.5e-4 43.32033,-2.49908 49.98639,15.85688 5.46727,-18.3359 28.56778,-15.71315 49.9863,-15.85688 20.82074,-0.14374 49.03527,-25.39974 49.08961,-51.60765 0.054,-26.10684 0.61696,-121.96084 0.21044,-172.77854 z"
           style="fill:none;stroke:#000000;stroke-width:3;stroke-linecap:butt;stroke-linejoin:miter;stroke-miterlimit:4;stroke-opacity:1;stroke-dasharray:none;stroke-dashoffset:0;marker:none;visibility:visible;display:inline;overflow:visible;enable-background:accumulate" />
        <path
           sodipodi:nodetypes="ccscccccscccc"
           id="path4137"
           d="m 675,260 c -0.19585,59.25861 -0.29413,66.36702 -0.007,66.59209 3.16899,27.37956 31.5668,45.26106 49.9668,45.26067 17.60699,-3.8e-4 41.97294,-0.20993 49.56504,14.27594 l 0,1.01266 c 0.0809,-0.16795 0.16593,-0.3298 0.25109,-0.49397 0.007,0.0134 0.0186,0.0236 0.0251,0.037 l 0,-0.0864 c 7.57157,-14.49582 31.33889,-14.30101 48.94986,-14.30064 18.39999,3.8e-4 46.81037,-17.88111 49.97936,-45.26068 C 874.01721,326.8116 875.19584,319.25861 875,260 L 775,230 675,260 z"
           style="fill:none;stroke:#000000;stroke-width:3;stroke-linecap:butt;stroke-linejoin:miter;stroke-miterlimit:4;stroke-opacity:1;stroke-dasharray:none;display:inline"
           inkscape:connector-curvature="0" />
      </g>
    </g>
  </g>
</svg>
