<?xml version="1.0" encoding="UTF-8" standalone="no"?>
<!-- Created with Inkscape (http://www.inkscape.org/) -->
<svg
   xmlns:dc="http://purl.org/dc/elements/1.1/"
   xmlns:cc="http://creativecommons.org/ns#"
   xmlns:rdf="http://www.w3.org/1999/02/22-rdf-syntax-ns#"
   xmlns:svg="http://www.w3.org/2000/svg"
   xmlns="http://www.w3.org/2000/svg"
   xmlns:sodipodi="http://sodipodi.sourceforge.net/DTD/sodipodi-0.dtd"
   xmlns:inkscape="http://www.inkscape.org/namespaces/inkscape"
   width="450"
   height="300"
   id="svg2"
   sodipodi:version="0.32"
   inkscape:version="0.46"
   version="1.0"
   sodipodi:docname="Flag of Albania 1920.svg"
   inkscape:output_extension="org.inkscape.output.svg.inkscape">
  <defs
     id="defs4">
    <inkscape:perspective
       sodipodi:type="inkscape:persp3d"
       inkscape:vp_x="0 : 526.18109 : 1"
       inkscape:vp_y="0 : 1000 : 0"
       inkscape:vp_z="744.09448 : 526.18109 : 1"
       inkscape:persp3d-origin="372.04724 : 350.78739 : 1"
       id="perspective10" />
    <inkscape:perspective
       id="perspective2390"
       inkscape:persp3d-origin="372.04724 : 350.78739 : 1"
       inkscape:vp_z="744.09448 : 526.18109 : 1"
       inkscape:vp_y="0 : 1000 : 0"
       inkscape:vp_x="0 : 526.18109 : 1"
       sodipodi:type="inkscape:persp3d" />
    <inkscape:perspective
       id="perspective2437"
       inkscape:persp3d-origin="372.04724 : 350.78739 : 1"
       inkscape:vp_z="744.09448 : 526.18109 : 1"
       inkscape:vp_y="0 : 1000 : 0"
       inkscape:vp_x="0 : 526.18109 : 1"
       sodipodi:type="inkscape:persp3d" />
    <inkscape:perspective
       id="perspective2614"
       inkscape:persp3d-origin="372.04724 : 350.78739 : 1"
       inkscape:vp_z="744.09448 : 526.18109 : 1"
       inkscape:vp_y="0 : 1000 : 0"
       inkscape:vp_x="0 : 526.18109 : 1"
       sodipodi:type="inkscape:persp3d" />
    <inkscape:perspective
       id="perspective3401"
       inkscape:persp3d-origin="372.04724 : 350.78739 : 1"
       inkscape:vp_z="744.09448 : 526.18109 : 1"
       inkscape:vp_y="0 : 1000 : 0"
       inkscape:vp_x="0 : 526.18109 : 1"
       sodipodi:type="inkscape:persp3d" />
  </defs>
  <sodipodi:namedview
     id="base"
     pagecolor="#ffffff"
     bordercolor="#666666"
     borderopacity="1.0"
     gridtolerance="10000"
     guidetolerance="10"
     objecttolerance="10"
     inkscape:pageopacity="0.0"
     inkscape:pageshadow="2"
     inkscape:zoom="1"
     inkscape:cx="318.60713"
     inkscape:cy="159.38961"
     inkscape:document-units="px"
     inkscape:current-layer="layer1"
     showgrid="false"
     inkscape:window-width="1024"
     inkscape:window-height="712"
     inkscape:window-x="-4"
     inkscape:window-y="-4" />
  <metadata
     id="metadata7">
    <rdf:RDF>
      <cc:Work
         rdf:about="">
        <dc:format>image/svg+xml</dc:format>
        <dc:type
           rdf:resource="http://purl.org/dc/dcmitype/StillImage" />
      </cc:Work>
    </rdf:RDF>
  </metadata>
  <g
     inkscape:label="Layer 1"
     inkscape:groupmode="layer"
     id="layer1"
     transform="translate(-262.71426,-298.00507)">
    <rect
       style="fill:#990000;fill-opacity:1;stroke:none;stroke-width:8;stroke-miterlimit:4;stroke-dasharray:none;stroke-opacity:1"
       id="rect2398"
       width="450"
       height="300"
       x="262.71426"
       y="298.00507" />
    <g
       id="g2593"
       transform="translate(2.7708527,0)">
      <path
         sodipodi:nodetypes="csssssssssscccssssssscccsscccsscccssssssssssssssssssssssssssscccsssssssssssssssssssssccssscccsssssccsssssssssssssssssssscccsssssssssssssssssssssssssssssssccccscccsssssscccssssssssssc"
         id="path2396"
         d="M 481.82858,550.65484 C 478.16632,547.86956 476.61287,541.69849 477.45496,533.28072 C 478.19116,525.92165 478.10132,525.59775 476.03569,528.16285 C 474.82285,529.669 473.13202,533.23616 472.27833,536.08989 C 470.25171,542.86458 466.43316,546.47801 463.7007,544.20678 C 461.05474,542.00745 462.8172,535.95528 468.07456,529.18735 C 472.68585,523.25111 474.27147,519.58978 472.66233,518.59377 C 472.04213,518.20987 468.70401,521.54644 465.24431,526.00837 C 457.70212,535.73549 450.67537,539.06466 446.21667,535.0234 C 444.74588,533.69029 443.54249,531.85923 443.54249,530.95438 C 443.54249,528.51913 447.69506,525.31314 453.51358,523.25622 C 456.34047,522.25689 460.37804,519.9456 462.48597,518.12006 L 466.31855,514.80087 L 460.79708,517.86757 C 454.82055,521.187 440.0283,523.01389 436.8327,520.82725 C 435.79954,520.12027 434.85774,517.62033 434.7398,515.2718 C 434.62187,512.92328 433.75898,510.2342 432.82228,509.29605 C 430.99905,507.47002 430.50183,503.99585 432.06373,503.99585 C 432.58323,503.99585 435.53377,505.20108 438.62048,506.67414 C 443.01625,508.77193 445.49617,509.11328 450.06212,508.24906 C 456.73366,506.9863 464.73086,501.39333 468.32238,495.47847 C 471.22966,490.69049 472.98811,476.01057 471.3594,470.12488 L 470.21169,465.97742 L 467.26941,470.7711 C 465.65117,473.40762 463.92708,478.23669 463.4381,481.50237 C 462.94915,484.76806 461.97672,487.79428 461.27715,488.22728 C 460.57761,488.6603 457.53439,487.72473 454.51444,486.14823 L 449.02365,483.28186 C 445.27765,479.03814 442.72903,484.09513 441.45872,474.3776 C 438.72629,465.66215 438.81466,465.28617 443.5953,465.28617 C 447.05567,465.28617 449.31878,464.01463 453.27871,459.84547 C 460.16734,452.5929 468.41444,435.93406 468.30083,429.50134 L 468.21254,424.50276 L 466.35316,428.65022 C 465.3305,430.93133 463.46912,435.71665 462.21678,439.28426 C 457.9061,451.56419 448.6106,461.08674 443.02837,458.94134 C 439.42901,457.55801 440.38442,454.40712 446.48976,447.52596 C 452.39052,440.87539 458.68943,429.14711 458.71304,424.76679 C 458.7353,420.64105 456.68371,423.12438 449.59446,435.80431 C 438.37056,455.87954 422.71869,469.8872 416.14872,465.73661 C 411.90819,463.05764 413.06875,460.74615 423.54258,451.00993 C 434.25737,441.04974 440.98906,432.61155 443.50277,425.98985 C 445.55006,420.5968 443.13973,421.71832 438.36155,428.38201 C 431.03245,438.60329 421.01819,449.0296 414.62959,453.09045 C 407.37432,457.70218 396.15305,458.63052 394.66328,454.74227 C 393.47851,451.65008 395.96262,449.05545 401.19154,447.9236 C 409.7485,446.07133 418.13191,440.54689 428.19903,430.12635 C 433.80536,424.32321 438.02355,419.20575 437.57276,418.75427 C 437.12194,418.30278 432.70127,421.65188 427.74899,426.19671 C 419.04475,434.18481 406.57921,441.96885 396.6398,445.62265 C 385.9604,449.54849 379.26287,440.59469 388.61711,434.8973 C 391.05386,433.41315 394.92348,431.78618 397.21628,431.28183 C 404.51206,429.67694 420.70434,421.62358 426.00205,416.96496 C 430.47068,413.03543 432.74696,408.60414 430.29687,408.60414 C 428.91123,408.60414 421.03405,413.24243 415.93512,417.06073 C 409.49428,421.88388 400.09691,426.57649 396.87891,426.57649 C 393.19961,426.57649 389.278,421.81676 390.30005,418.59162 C 390.81479,416.96733 393.40555,415.28464 396.98122,414.25219 C 414.34195,409.23944 425.5977,405.29637 425.5977,404.22739 C 425.5977,402.95728 422.38363,403.50348 411.19839,406.67436 C 400.87988,409.59954 389.31969,409.22836 386.2892,405.87459 C 383.95736,403.29396 383.95101,402.94906 386.17284,399.55291 L 388.52287,395.96079 L 405.67992,396.93975 C 426.7491,398.1419 428.76317,395.98381 408.76515,393.63391 C 393.20638,391.80564 388.32775,389.59633 388.32775,384.37873 C 388.32775,379.97141 390.11333,380.04207 404.88323,385.03389 C 411.33154,387.21323 417.13145,388.67197 417.77192,388.27553 C 419.52106,387.19285 417.25667,385.63553 411.10384,383.68961 C 408.06702,382.72918 402.32124,380.51084 398.33543,378.75998 C 391.91296,375.93873 391.08849,375.10535 391.08849,371.43463 C 391.08849,369.15654 391.63767,366.95273 392.30886,366.53727 C 393.67551,365.69134 404.74189,371.18009 415.32977,377.95531 C 422.6098,382.61381 432.49953,385.2782 432.49953,382.58101 C 432.49953,381.75595 424.26909,377.07224 414.20966,372.17276 C 404.15023,367.2733 393.92777,361.28709 391.49308,358.87009 C 383.6707,351.10448 384.0741,345.85025 392.47433,346.08947 C 397.82422,346.2418 406.47587,351.36982 414.55474,359.17702 C 422.31041,366.67187 426.68714,369.71074 438.02101,375.47021 C 449.45973,381.28298 451.82469,383.35202 451.82469,387.54675 C 451.82469,390.54163 451.32935,390.8728 447.65739,390.33305 C 441.98215,389.49882 439.9437,392.20793 443.68957,395.60627 C 446.00618,397.70796 448.70551,398.23548 457.14328,398.23548 C 467.43542,398.23548 467.70917,398.14732 468.10968,394.7037 C 468.34749,392.65899 468.32887,389.40071 466.60709,387.20847 C 463.68684,383.49025 443.21371,372.33389 436.2049,370.64147 C 447.4817,361.00946 437.16342,363.66173 448.06423,352.09387 C 450.80057,349.35334 457.8263,350.47082 465.62837,354.88751 C 469.80399,357.25129 475.08389,360.13529 477.36151,361.29642 C 482.98694,364.16425 482.91477,364.03661 480.45931,366.7754 C 478.46255,369.00252 478.55245,369.54053 481.54685,373.28391 L 484.81105,377.36461 L 488.4089,373.47652 C 491.86818,369.73816 491.91289,369.48461 489.57029,366.89207 C 487.47468,364.5729 487.41582,364.01708 489.14952,362.91879 C 490.25813,362.21649 491.56218,361.63234 492.04739,361.62071 C 492.5326,361.60905 497.18149,359.11105 502.37825,356.06957 C 511.88764,350.50407 520.02918,348.89496 523.10298,351.97349 C 524.09161,352.96364 525.19987,353.21364 528.5502,353.09849 C 542.73464,355.19555 521.38484,365.2076 533.08964,368.66069 C 531.95083,368.68582 524.72149,374.12837 517.88866,377.7304 C 508.23896,382.81736 505.75754,385.55797 503.69896,389.39087 C 499.52494,397.16257 501.1281,398.92672 512.36465,398.92672 C 519.59199,398.92672 522.68298,398.30603 525.06146,396.37708 C 529.40565,392.85398 527.90613,389.50158 522.35133,390.31811 C 518.56732,390.87432 518.08235,390.5595 518.08235,387.54675 C 518.08235,383.35202 520.44732,381.28298 531.88604,375.47021 C 543.57304,369.53129 547.55309,366.75238 556.77278,358.09401 C 567.27325,348.23282 572.33807,345.77696 581.2342,346.23297 C 586.07387,346.48104 585.18872,352.00524 579.34343,358.0332 C 576.11875,361.35864 568.05306,366.21396 556.59932,371.72454 C 538.20286,380.57535 532.99834,384.79773 542.36087,383.27607 C 545.1157,382.82833 553.04804,379.05169 559.98828,374.88351 C 575.74357,365.42116 577.98281,364.93341 578.55407,370.83948 C 579.04647,375.93007 578.05444,376.64805 562.86498,382.19432 C 557.44428,384.17364 552.94385,386.4152 552.86404,387.17558 C 552.66188,389.101 558.53391,388.13245 565.42797,385.10322 C 568.61718,383.70191 573.5559,382.12591 576.40291,381.60101 C 581.29664,380.69877 581.5793,380.84204 581.5793,384.22487 C 581.5793,389.61311 576.85671,391.78731 561.14191,393.63391 C 541.14388,395.98381 543.15796,398.1419 564.22714,396.93975 L 581.38419,395.96079 L 583.73423,399.55291 C 585.95603,402.94906 585.94969,403.29396 583.61783,405.87459 C 580.58736,409.22836 569.02719,409.59954 558.70866,406.67436 C 547.0208,403.36099 544.01311,402.85814 544.94844,404.37389 C 545.42718,405.14968 553.08851,408.03884 561.97362,410.79425 C 570.85873,413.54968 578.673,416.31599 579.33865,416.94161 C 581.60435,419.07106 578.92976,425.11338 575.31982,426.0208 C 570.99672,427.1075 565.71336,424.94889 555.97663,418.11781 C 541.83631,408.19726 536.09874,406.36148 540.56367,413.18632 C 543.77445,418.09412 554.94926,424.73772 567.94916,429.46743 C 582.48977,434.75769 585.72039,436.84633 585.72039,440.95677 C 585.72039,443.28514 584.5179,444.71225 581.50167,445.96353 C 577.58311,447.58915 576.38003,447.26202 564.59216,441.36563 C 556.52865,437.33222 548.48105,431.90556 542.52072,426.48244 C 537.36136,421.78811 532.80838,418.27946 532.403,418.68547 C 531.99762,419.09147 536.03297,424.02806 541.37044,429.65567 C 551.10141,439.91557 560.51484,446.21186 568.71551,447.9457 C 573.93805,449.0499 576.43054,451.64483 575.24377,454.74227 C 574.61429,456.38521 572.60407,456.99125 567.78394,456.99125 C 557.20423,456.99125 547.98958,449.53917 530.22749,426.61865 C 525.38912,420.37514 524.51722,421.53189 528.1752,429.34147 C 530.84508,435.04154 543.54182,449.03972 553.02486,456.73826 C 557.15141,460.08829 557.45401,463.40842 553.8405,465.68719 C 547.30882,469.80619 532.91443,457.05218 520.90792,436.50765 C 512.48178,422.0895 510.40258,419.83971 511.88936,426.74915 C 513.3009,433.30908 515.81299,437.81817 522.93466,446.57509 C 529.35099,454.46472 530.5142,457.92671 527.17934,459.2084 C 520.91549,461.61574 510.2172,449.07231 506.14891,434.55078 C 503.50872,425.12673 501.51795,423.06956 501.51795,429.76538 C 501.51795,436.13873 510.26464,453.30899 516.89306,459.94758 C 520.79957,463.8601 523.37265,465.28617 526.52549,465.28617 C 531.07073,465.28617 531.1602,465.71364 528.43728,474.41988 C 527.69748,476.78537 524.7747,481.04767 530.56965,480.98458 C 529.20739,482.63794 531.26126,482.85361 524.19716,482.23613 L 520.90566,483.27025 L 515.21865,486.23904 C 508.78379,489.59823 507.88575,489.02158 506.51222,480.64853 C 506.06166,477.902 504.28776,473.47742 502.57021,470.81613 L 499.44739,465.97742 L 499.04459,477.50027 C 498.57169,491.02779 500.70137,496.6753 508.67543,503.03943 C 515.86626,508.77847 524.10274,510.10247 531.28657,506.67414 C 538.27477,503.3392 538.78788,503.34511 538.78788,506.76083 C 538.78788,508.28157 538.16671,509.5258 537.40752,509.5258 C 536.6483,509.5258 536.02714,511.34773 536.02714,513.57452 C 536.02714,515.80132 535.05104,518.60086 533.85799,519.79571 C 530.54324,523.11557 520.03769,522.51481 511.18052,518.49893 L 503.5885,515.05666 L 507.5392,518.34228 C 509.71209,520.14937 513.89599,522.42321 516.83675,523.39524 C 523.77196,525.68758 527.4494,529.61411 525.5241,532.67103 C 521.04664,539.78015 512.78884,536.9619 504.27458,525.41888 C 500.34235,520.08784 498.02017,518.00591 497.06886,518.95868 C 496.11755,519.91145 497.47111,522.96197 501.26887,528.42441 C 508.01137,538.12237 509.63838,543.32386 506.32735,544.59638 C 502.86627,545.92655 501.54153,544.52256 497.1915,534.91405 C 495.00072,530.07493 492.81832,526.11567 492.34174,526.11567 C 491.86518,526.11567 491.86727,529.45625 492.34642,533.53916 C 493.33391,541.95415 491.4459,549.00029 487.65983,551.02964 C 484.49318,552.72698 484.55869,552.73118 481.82858,550.65484 z"
         style="fill:#000000" />
      <path
         sodipodi:nodetypes="cssssssccsssssc"
         id="path2408"
         d="M 458.02798,361.45092 C 458.02798,359.99355 457.2511,358.54179 456.30159,358.22479 C 455.20561,357.85892 454.88149,358.44791 455.41399,359.8377 C 455.87534,361.04179 455.56517,362.02696 454.72475,362.02696 C 453.88431,362.02696 453.1967,360.78272 453.1967,359.26198 C 453.1967,356.02252 451.08472,355.57468 449.93677,358.57074 C 448.52116,362.26542 450.55277,364.9689 454.40832,364.52111 C 456.90927,364.23064 458.02798,363.28175 458.02798,361.45092 z M 519.95355,362.71821 C 520.89655,360.25697 519.67132,356.497 517.9263,356.497 C 517.24834,356.497 516.62158,357.89678 516.5335,359.6076 C 516.41301,361.94839 514.78532,361.97605 514.31027,360.15544 C 513.96308,358.8248 514.57187,357.87949 513.91314,357.87949 C 512.02168,357.87949 511.08564,360.19257 512.00553,362.59344 C 513.073,365.37945 518.89885,365.4709 519.95355,362.71821 z"
         style="fill:#ffffff" />
    </g>
    <path
       style="fill:#ffcc00;fill-opacity:1;stroke:#000000;stroke-opacity:1;stroke-width:1;stroke-miterlimit:4;stroke-dasharray:none"
       d="M 449.2856,374.54731 C 446.16761,372.86817 441.5443,370.90222 439.01156,370.17853 C 436.47883,369.45483 433.07739,367.68885 431.4528,366.25412 C 428.87693,363.97929 428.82137,363.76211 431.0186,364.55673 C 432.40437,365.05788 436.80282,365.58883 440.79293,365.73662 C 448.58094,366.02507 450.89717,367.37534 454.71095,373.85026 C 457.42799,378.4632 456.72475,378.55356 449.2856,374.54731 z M 521.20181,373.40478 C 524.95601,367.04186 526.73345,366.03012 534.6756,365.73534 C 538.63825,365.58826 543.01422,365.05788 544.39999,364.55673 C 546.57154,363.77139 546.50603,364.01034 543.92575,366.28655 C 542.27913,367.73911 539.44459,369.28542 537.62677,369.72281 C 535.80895,370.1602 531.0781,372.13718 527.11376,374.1161 C 523.14942,376.09503 519.62538,377.71416 519.28253,377.71416 C 518.93971,377.71416 519.80337,375.77493 521.20181,373.40478 z M 439.82756,362.69824 C 437.06129,361.66122 434.23107,360.11204 433.53819,359.25562 C 432.8453,358.3992 430.29422,357.52503 427.86911,357.31303 L 423.45984,356.92757 L 426.29437,354.09304 C 429.49746,350.88995 436.06943,350.33929 443.1136,352.68377 C 450.42212,355.11622 451.39682,356.8118 447.88544,360.98483 C 444.89142,364.54301 444.8002,364.56241 439.82756,362.69824 z M 527.53303,361.01143 C 524.04597,356.78828 525.00589,355.11309 532.30499,352.68377 C 539.34917,350.33929 545.92113,350.88995 549.12421,354.09304 L 551.95875,356.92757 L 547.54947,357.31303 C 545.12437,357.52503 542.57329,358.39157 541.88041,359.23868 C 541.18752,360.08577 538.35298,361.65119 535.58143,362.71738 C 530.56854,364.6458 530.52659,364.63691 527.53303,361.01143 z"
       id="path2620"
       sodipodi:nodetypes="csssssccssssssccscccssccscccssc" />
    <path
       style="fill:#ffcc00;fill-opacity:1;stroke:#000000;stroke-opacity:1"
       d="M 416.91718,502.41948 C 416.37654,501.01061 417.49361,499.23012 420.41309,496.84734 C 425.80855,492.44379 424.9237,491.3676 416.21603,491.74276 C 414.0016,491.83816 412.75159,492.59176 412.75159,493.83139 C 412.75159,495.42986 412.43632,495.48521 410.95792,494.14633 C 408.02606,491.49115 411.64987,488.92371 418.04468,489.1254 C 423.00761,489.28193 423.26023,489.14492 421.06961,487.48497 C 419.75497,486.4888 418.19198,485.97499 417.59628,486.34316 C 417.00058,486.71132 416.17308,486.12624 415.7574,485.043 C 415.34172,483.95976 413.78673,483.02474 412.30186,482.96519 C 410.22037,482.8817 410.46761,482.59777 413.38149,481.72535 C 418.14681,480.29861 420.67113,481.1013 425.92455,485.71386 L 430.1134,489.39172 L 437.90866,483.5319 L 445.70394,477.6721 L 448.43961,480.54799 C 450.65788,482.87995 450.75831,483.27909 448.97065,482.65832 C 447.7581,482.23725 446.76602,482.47531 446.76602,483.18735 C 446.76602,483.89938 446.19911,484.1316 445.50622,483.70336 C 444.81334,483.27513 444.24643,483.53728 444.24643,484.28591 C 444.24643,485.03455 442.68743,486.33693 440.782,487.18012 C 436.5231,489.0647 434.02788,491.33188 435.06794,492.37194 C 435.49687,492.80088 438.16268,493.15555 440.99197,493.16011 L 446.13612,493.16842 L 442.51118,495.55822 C 439.62029,497.46409 438.16104,497.6952 435.30501,496.69958 C 431.89006,495.50912 421.71635,497.49732 423.27046,499.05142 C 423.89876,499.67974 419.57431,504.48995 418.38113,504.48995 C 418.01293,504.48995 417.35416,503.55825 416.91718,502.41948 z M 553.53349,501.86539 C 552.32094,500.53735 551.72569,499.45078 552.21071,499.45078 C 552.69573,499.45078 552.4713,498.82952 551.71199,498.07019 C 549.72501,496.08322 541.83685,495.26895 539.04576,496.76269 C 537.25078,497.72334 535.75989,497.43837 532.9745,495.60222 L 529.28247,493.16842 L 534.42662,493.16011 C 537.25592,493.15555 539.93841,492.78418 540.38774,492.33486 C 541.41767,491.30493 536.38554,486.85284 534.19148,486.85284 C 533.2926,486.85284 532.00195,485.86076 531.32337,484.64821 C 530.6448,483.43565 529.76628,482.58529 529.37109,482.75852 C 528.97591,482.93174 527.67623,483.07347 526.48293,483.07347 C 524.60141,483.07347 524.67533,482.71143 527.03956,480.34719 L 529.76581,477.62093 L 536.45301,482.6315 C 546.25899,489.97892 546.11526,489.93396 548.81715,486.49909 C 552.3249,482.03969 557.92653,479.99746 562.28802,481.58789 C 565.27652,482.67765 565.40334,482.88977 563.11672,482.974 C 561.63186,483.02871 560.07687,483.95976 559.66119,485.043 C 559.2455,486.12624 558.41801,486.71132 557.82231,486.34316 C 557.22661,485.97499 555.66362,486.48423 554.34898,487.47479 C 552.17691,489.11142 552.51127,489.25494 558.01217,489.04712 C 561.98235,488.89712 564.43223,489.41166 565.13096,490.54223 C 566.49161,492.74382 563.76481,496.11822 562.37134,493.95725 C 561.86228,493.16781 561.43709,492.97925 561.42648,493.53819 C 561.41588,494.09715 560.23671,493.73463 558.80611,492.7326 C 556.4399,491.07525 551.32885,491.18422 551.32885,492.89206 C 551.32885,493.28044 553.12795,495.10017 555.32686,496.93591 C 558.05219,499.21112 559.06735,500.94468 558.51589,502.38177 C 557.49686,505.03728 556.31802,504.91509 553.53349,501.86539 z"
       id="path2622"
       sodipodi:nodetypes="csssssssssscccccsssssscccsssccssscccssssscccssssssssssssssc" />
  </g>
</svg>
