<?xml version="1.0" encoding="UTF-8" standalone="no"?>
<!-- Created with Inkscape (http://www.inkscape.org/) -->

<svg
   xmlns:dc="http://purl.org/dc/elements/1.1/"
   xmlns:cc="http://creativecommons.org/ns#"
   xmlns:rdf="http://www.w3.org/1999/02/22-rdf-syntax-ns#"
   xmlns:svg="http://www.w3.org/2000/svg"
   xmlns="http://www.w3.org/2000/svg"
   xmlns:sodipodi="http://sodipodi.sourceforge.net/DTD/sodipodi-0.dtd"
   xmlns:inkscape="http://www.inkscape.org/namespaces/inkscape"
   version="1.0"
   width="800"
   height="400"
   id="svg1879"
   sodipodi:version="0.32"
   inkscape:version="0.48.1 "
   sodipodi:docname="AJAX.svg"
   inkscape:output_extension="org.inkscape.output.svg.inkscape">
  <metadata
     id="metadata8">
    <rdf:RDF>
      <cc:Work
         rdf:about="">
        <dc:format>image/svg+xml</dc:format>
        <dc:type
           rdf:resource="http://purl.org/dc/dcmitype/StillImage" />
      </cc:Work>
    </rdf:RDF>
  </metadata>
  <sodipodi:namedview
     inkscape:window-height="977"
     inkscape:window-width="1280"
     inkscape:pageshadow="2"
     inkscape:pageopacity="0.0"
     guidetolerance="10.0"
     gridtolerance="10.0"
     objecttolerance="10.0"
     borderopacity="1.0"
     bordercolor="#666666"
     pagecolor="#ffffff"
     id="base"
     inkscape:zoom="0.5"
     inkscape:cx="213.39312"
     inkscape:cy="-88.439159"
     inkscape:window-x="-4"
     inkscape:window-y="-4"
     inkscape:current-layer="svg1879"
     showgrid="false"
     fit-margin-top="0"
     fit-margin-left="0"
     fit-margin-right="0"
     fit-margin-bottom="0"
     inkscape:window-maximized="0" />
  <defs
     id="defs1881" />
  <path
     id="path1949"
     style="fill:#ce1126;fill-opacity:1;stroke:none"
     d="M 0,200 0,0 l 400,0 400,0 0,200 0,200 -400,0 -400,0 0,-200 z"
     inkscape:connector-curvature="0" />
  <path
     id="path1933"
     style="fill:#ffffff;fill-opacity:1;stroke:none"
     d="m 616.55519,321.87308 c 2.77956,-3.72887 2.67363,-3.55714 7.43416,-12.05294 2.07187,-3.69758 5.12451,-10.43825 6.78364,-14.97927 3.21407,-8.79701 8.72898,-29.73052 8.74952,-33.21145 0.0189,-3.19745 -8.33154,-20.91646 -10.02352,-21.26929 -1.1958,-0.24937 -1.49282,0.69642 -1.50807,4.80204 -0.0194,5.22386 -2.09987,23.94849 -3.71594,33.44465 -1.60846,9.45165 -1.82146,10.19684 -6.03846,21.12901 -0.7725,2.0027 -1.06593,2.15128 -1.76867,0.89566 -0.46334,-0.82795 -1.15034,-21.52749 -1.52664,-45.99896 -0.67957,-44.19053 -0.69945,-44.52044 -2.91742,-48.43594 -1.22829,-2.16828 -3.1901,-5.77911 -4.35963,-8.02407 -1.16953,-2.24496 -2.61934,-4.08174 -3.22176,-4.08174 -0.80359,0 -1.07234,10.42216 -1.00914,39.13669 0.0876,39.78029 -0.24774,44.69949 -4.14103,60.7459 -2.66562,10.98651 -9.29247,20.68622 -16.15063,23.63973 -3.60073,1.55065 -15.51863,1.75337 -20.57139,0.3499 -7.70874,-2.1412 -15.23471,-15.15664 -15.23471,-26.34691 0,-8.93232 -1.25464,-18.77173 -2.39363,-18.77173 -0.66423,0 -2.09121,3.96169 -3.37286,9.364 -4.16593,17.56001 -8.89022,30.36836 -12.7527,34.57474 -4.60889,5.01928 -12.05466,0.8747 -14.81512,-8.24662 -1.31697,-4.35163 -1.63477,-9.08793 -1.58928,-23.68699 0.0584,-18.76128 1.90302,-43.47282 3.36583,-45.09123 0.46211,-0.51128 0.84016,8.14441 0.85996,19.68839 0.0368,21.48689 1.17592,31.35473 4.14204,35.8816 2.00582,3.06127 4.28822,3.21461 4.84991,0.32584 5.29624,-27.23879 9.32562,-40.09586 16.62978,-53.06263 2.97547,-5.28224 6.04245,-10.35196 6.81548,-11.26601 1.8442,-2.18065 7.12506,-3.12334 9.7192,-1.73499 2.04489,1.09438 2.053,1.23788 1.40091,24.81845 -0.56825,20.54817 -0.44344,24.44716 0.93383,29.17619 3.57777,12.28471 9.96278,14.57888 20.67195,7.42758 l 5.87189,-3.9211 -0.10859,-29.45314 c -0.0597,-16.19921 -0.38387,-44.16747 -0.7203,-62.15166 -0.57004,-30.47039 -0.74182,-32.89183 -2.52089,-35.53515 -1.05003,-1.56014 -2.34659,-3.55083 -2.88122,-4.42376 -6.36044,-10.38507 -7.8567,-12.24052 -10.09595,-12.51968 -2.39717,-0.29883 -2.40146,-0.31826 -2.6707,-12.06433 -0.1483,-6.47077 0.0335,-11.76502 0.40402,-11.76502 0.37054,0 3.7812,3.24139 7.57926,7.20307 3.79808,3.96169 7.39787,7.20307 7.99958,7.20307 0.7781,0 1.09398,-5.02218 1.09398,-17.39304 l 0,-17.39304 2.9145,-5.41668 c 1.60299,-2.97919 4.19065,-6.92933 5.75038,-8.77813 2.36075,-2.79826 2.99633,-3.12008 3.79366,-1.92083 0.52677,0.79235 0.96613,3.38546 0.97635,5.76247 0.0253,5.89084 2.54365,20.98881 4.43856,26.61009 0.85346,2.53177 2.76245,6.40686 4.24224,8.61131 l 2.69054,4.00808 -3.75945,2.60531 -3.75941,2.60528 0,15.41831 0,15.4183 3.95183,6.5405 c 5.1713,8.55883 7.09473,8.72354 6.28171,0.53794 -0.32787,-3.30141 -0.63825,-19.07239 -0.68964,-35.04663 l -0.0935,-29.04407 6.42112,-12.10393 c 3.68861,-6.95307 6.78017,-11.74489 7.26485,-11.26023 0.96271,0.96274 3.74339,81.87627 3.75046,109.13315 0.005,17.91958 0.0273,18.11539 2.6079,22.5188 1.43174,2.44313 3.91682,7.02227 5.52234,10.17591 1.60554,3.15362 3.3954,5.89235 3.9776,6.08607 2.88597,0.96032 3.87708,-43.92779 1.83845,-83.2688 -0.88955,-17.16732 -1.83506,-35.96733 -2.10103,-41.77781 l -0.48364,-10.56451 4.01837,-8.50291 c 2.2101,-4.67662 4.37682,-8.134083 4.81501,-7.68329 1.21946,1.25467 2.80437,17.96048 5.81804,61.32545 1.6102,23.16975 1.32639,82.54028 -0.47287,98.92218 -3.13518,28.54525 -6.85069,44.1459 -13.98065,58.70216 -6.18511,12.62739 -16.93663,24.01021 -24.45018,25.88587 L 614.22438,325 l 2.33081,-3.12692 z M 371.7731,316.37814 c -3.65115,-1.79941 -9.1413,-7.8429 -11.78757,-12.97561 -1.00279,-1.945 -2.21575,-3.77895 -2.69548,-4.07544 -0.47973,-0.29648 -6.64453,1.77927 -13.69955,4.6128 -20.81647,8.36056 -33.52121,12.462 -34.76132,11.22189 -0.76363,-0.76364 -0.77946,-1.54928 -0.0549,-2.72696 2.11301,-3.43458 20.1147,-15.44891 41.40979,-27.63694 3.78612,-2.16695 5.04048,-5.51273 5.1653,-13.77755 0.12968,-8.58779 0.9256,-11.06985 3.67665,-11.46563 2.98553,-0.42951 3.87846,1.22759 3.89618,7.23041 0.008,2.74202 0.37524,5.20831 0.8159,5.48064 2.12973,1.31626 10.25087,-4.56992 21.18707,-15.3563 l 11.90397,-11.7409 -2.1114,-2.72916 c -1.16127,-1.50104 -5.77226,-6.07858 -10.24664,-10.17233 -6.16875,-5.64398 -8.79762,-7.44316 -10.87548,-7.44316 -4.73469,0 -5.2432,-1.62851 -3.9682,-12.7083 0.62413,-5.42373 1.4795,-10.21639 1.9008,-10.65034 0.78929,-0.81299 25.3693,11.02345 26.41908,12.72203 0.32314,0.52288 -0.72312,1.62848 -2.32506,2.45687 -3.50647,1.81325 -3.61762,2.66982 -0.64602,4.97829 2.87062,2.23004 7.65486,9.41178 9.10597,13.66916 0.612,1.79556 1.11274,5.9135 1.11274,9.15099 0,12.08051 -8.66851,24.08023 -29.05239,40.2169 -4.09375,3.24077 -7.44319,6.37073 -7.44319,6.95547 0,1.29509 3.50278,4.57654 6.5839,6.16793 7.77659,4.01659 20.25836,-7.76748 32.5187,-30.701 2.11793,-3.96168 4.65079,-8.56608 5.62854,-10.23199 l 1.77778,-3.02894 -7.05689,-27.9996 c -6.01006,-23.84612 -7.03188,-29.07842 -6.88826,-35.27208 0.37441,-16.14816 6.31455,-18.52195 10.13063,-4.04836 5.17777,19.63824 12.25689,43.71443 13.09606,44.53987 0.68995,0.67865 1.64907,0.0877 3.0758,-1.89506 6.10527,-8.48476 13.47982,-13.54113 24.44927,-16.76375 3.82964,-1.12507 6.96298,-2.42488 6.96298,-2.88846 0,-0.46356 -1.10866,-5.44334 -2.46369,-11.06617 -2.9846,-12.3849 -2.62722,-15.00751 2.5081,-18.40592 3.38978,-2.24325 4.42501,-2.42837 11.84253,-2.11778 6.82793,0.28591 8.49589,0.68601 10.42766,2.50128 1.26479,1.18852 2.81201,2.16093 3.43825,2.16093 0.62622,0 1.13861,0.61511 1.13861,1.36692 0,0.75182 1.08912,2.66127 2.42026,4.24325 3.89218,4.6256 6.4908,11.39148 5.79655,15.09218 -0.76311,4.0677 -6.48387,9.10929 -13.29961,11.7207 l -5.00149,1.9163 0.31395,6.21442 c 0.34132,6.75556 -1.74506,13.70714 -3.90183,13.00055 -0.66781,-0.21879 -2.29464,-3.09954 -3.6152,-6.40169 l -2.40103,-6.00391 -4.11013,0.54017 c -8.95482,1.17688 -18.4595,7.37725 -18.4595,12.04207 0,1.98321 4.01129,2.91646 12.48533,2.90478 9.92596,-0.0137 44.65735,2.2515 45.47586,2.96594 0.90585,0.79068 -3.24631,8.4119 -5.86753,10.76976 -1.07932,0.97085 -5.24737,1.8889 -11.75645,2.58942 -5.54636,0.59694 -12.24522,1.55577 -14.88634,2.13075 -5.96264,1.2981 -14.77586,5.67498 -17.15464,8.51945 -3.06517,3.66522 -6.35621,11.78118 -6.36602,15.69903 -0.0138,5.52097 5.41565,14.66435 11.07228,18.64604 4.49437,3.16358 4.52352,3.21933 3.93358,7.52335 -0.7091,5.1735 -3.51802,7.93934 -8.10988,7.98549 -8.43025,0.0847 -23.71989,-18.8274 -28.65139,-35.43963 -1.14712,-3.86418 -2.22867,-5.82602 -3.21181,-5.82602 -0.82501,0 -3.79968,3.72635 -6.70838,8.40358 -9.82905,15.80521 -22.45842,29.57423 -30.11971,32.83768 -5.55956,2.3682 -7.782,2.43718 -11.97306,0.37169 z m 68.21553,-53.18268 c 3.08514,-3.51587 2.61258,-5.31133 -1.89339,-7.19405 -4.32441,-1.80685 -5.04848,-1.76873 -5.04848,0.26579 0,1.92377 3.11041,9.84532 3.86788,9.8507 0.27854,0.002 1.66184,-1.31313 3.07399,-2.92244 z M 474.72342,202.447 c 1.13536,-0.83021 1.59861,-2.19639 1.38406,-4.08173 -0.26554,-2.33351 -0.82286,-2.89082 -3.15636,-3.15637 -4.49315,-0.51133 -6.90465,3.89251 -3.82039,6.97676 1.836,1.83601 3.34289,1.90643 5.59269,0.26134 z m -324.9669,112.30212 c 1.33738,-0.77513 10.19214,-4.50931 19.67727,-8.29818 31.52903,-12.59441 40.92603,-18.62689 49.3724,-31.69508 7.33475,-11.34829 7.47435,-14.39682 0.65923,-14.39682 -6.79361,0 -12.35263,-2.886 -14.4292,-7.49098 -1.53447,-3.40288 -1.61043,-4.52827 -0.60756,-9.00361 1.60474,-7.16124 2.85311,-10.26228 6.02144,-14.95758 2.6708,-3.958 6.8698,-6.96421 9.72741,-6.96421 3.01561,0 12.61717,9.72709 17.42593,17.65376 3.38649,5.58222 25.71653,7.66703 38.33345,3.57893 8.46959,-2.74426 14.21921,-5.65753 25.3309,-12.83487 4.90654,-3.16926 9.17031,-5.51299 9.47503,-5.20827 0.30472,0.30472 0.0719,1.93714 -0.51742,3.62761 -0.5893,1.69047 -1.07145,4.73781 -1.07145,6.77189 0,3.2087 0.28609,3.69222 2.16092,3.65219 3.49834,-0.0747 16.16313,-7.78858 22.55523,-13.73798 1.70882,-1.59047 3.39609,-2.60261 3.7495,-2.2492 0.35341,0.35339 0.54667,3.92672 0.42947,7.94069 -0.19032,6.51768 -0.032,7.26325 1.48074,6.97194 3.34609,-0.6444 7.9144,-12.43962 8.0063,-20.67195 0.0188,-1.68555 0.44304,-3.31731 0.94269,-3.62612 2.50856,-1.55039 4.96152,20.90124 3.04985,27.91482 -1.40803,5.16581 -4.671,9.90238 -8.68516,12.60752 -4.33799,2.92339 -7.04527,2.75132 -10.97319,-0.69744 -3.37533,-2.96358 -5.32446,-3.5303 -6.91762,-2.01133 -2.68096,2.5561 -8.94532,5.07865 -12.75512,5.13625 -3.92778,0.0594 -4.57611,-0.2976 -8.26653,-4.55156 l -4.00449,-4.61599 -7.58347,3.55138 c -15.55978,7.28669 -29.52754,9.54691 -42.61283,6.89549 -7.79135,-1.57872 -9.72577,-1.45525 -9.72577,0.6208 0,0.58852 -1.99793,5.20898 -4.43983,10.26771 -3.76243,7.79437 -5.70398,10.45166 -12.72542,17.41659 -8.29991,8.23309 -17.59022,14.07238 -27.49379,17.28083 -4.1624,1.34849 -41.69127,11.2615 -45.61946,12.0501 l -2.40103,0.482 2.43158,-1.40933 z m 75.64972,-67.06748 c 2.72771,-2.72773 -0.0399,-8.4516 -4.08653,-8.4516 -2.7589,0 -4.36508,1.76695 -4.36508,4.80203 0,3.17393 1.62814,4.80205 4.80205,4.80205 1.37338,0 3.01569,-0.51861 3.64956,-1.15248 z m -71.98556,37.81082 c -1.9665,-1.72723 -3.71164,-4.50989 -4.49498,-7.16732 -1.13395,-3.84686 -1.09383,-4.62872 0.35057,-6.83315 0.89706,-1.3691 2.09951,-2.48927 2.67213,-2.48927 1.45409,0 10.03684,9.29971 10.79902,11.70111 0.70705,2.22774 -2.2106,6.84373 -4.62647,7.31947 -0.81716,0.16091 -2.93228,-0.97796 -4.70027,-2.53084 z m 30.59165,-16.29157 c 0.49059,-11.47114 0.33789,-13.72949 -1.13886,-16.84151 -0.938,-1.97666 -1.4782,-3.82118 -1.20047,-4.0989 0.27773,-0.27775 3.02318,-0.1533 6.10097,0.27654 4.59225,0.64135 5.81371,1.21182 6.80967,3.18044 1.4875,2.94018 1.64165,18.02096 0.22267,21.78469 -1.46336,3.88144 -6.67223,8.94631 -9.20066,8.94631 l -2.1599,0 0.56658,-13.24757 z m 386.45608,-8.07065 c -1.63037,-2.21695 -2.9619,-4.91811 -2.95896,-6.00255 0.008,-3.06676 1.95248,-9.32804 2.79272,-8.99419 1.41008,0.56023 11.60807,12.07613 11.60807,13.1082 0,0.56483 -0.50156,2.12776 -1.11457,3.47318 -0.86186,1.89159 -1.8229,2.4462 -4.23876,2.4462 -2.5582,0 -3.66122,-0.73024 -6.0885,-4.03084 z M 143.0031,251.21671 c 0,-1.87212 12.94061,-15.80103 14.69752,-15.82 0.42436,-0.005 3.69277,-2.3391 7.26314,-5.18783 9.72567,-7.75996 20.10974,-14.45522 26.28813,-16.94963 6.07156,-2.45126 7.22611,-2.2082 5.49979,1.15798 -1.34769,2.62792 -8.6577,10.40667 -9.77956,10.40667 -1.00887,0 -9.68163,6.05997 -15.15674,10.59056 -6.4633,5.34833 -12.89672,10.16777 -17.19452,12.88086 -3.79119,2.39327 -11.61776,4.36133 -11.61776,2.92139 z m 392.80749,-43.19999 c 0,-36.48545 -0.069,-37.93619 -1.80513,-37.93619 -2.66,0 -9.0839,8.21477 -8.48604,10.85179 0.26358,1.16256 1.43164,5.78731 2.59569,10.27723 3.58693,13.8352 1.1789,23.83708 -6.97605,28.97547 -5.81409,3.66344 -8.83648,4.22844 -11.89595,2.22382 -11.66284,-7.64181 -11.73699,-21.34215 -0.21581,-39.8809 l 2.11259,-3.39937 -3.51604,-4.76411 c -1.93382,-2.62027 -4.84758,-6.81699 -6.47502,-9.32607 -1.62744,-2.50907 -3.48104,-4.56195 -4.1191,-4.56195 -0.64508,0 -1.73337,2.66486 -2.45135,6.00256 -1.99202,9.26036 -4.9643,15.12646 -7.66444,15.12646 -0.40643,0 -1.02705,-9.58031 -1.37914,-21.28957 l -0.64017,-21.28955 -3.46399,-6.32222 c -1.90519,-3.47722 -6.05247,-10.30117 -9.21618,-15.16434 -4.62781,-7.11372 -6.39986,-9.05585 -9.06545,-9.93558 l -3.31325,-1.09348 0.65644,-9.2726 c 0.67594,-9.54815 0.92229,-10.71321 2.26524,-10.71321 2.14518,0 13.54121,13.17887 17.00534,19.66573 2.18235,4.08662 4.77773,5.46154 5.7123,3.02611 0.30822,-0.80319 0.0948,-4.40065 -0.47438,-7.99435 -0.99242,-6.26645 -0.91082,-6.84862 1.99229,-14.21729 2.98619,-7.57954 4.55853,-10.484648 5.28268,-9.760499 0.20362,0.20361 0.76928,3.869139 1.25702,8.145599 0.48773,4.27648 2.20439,11.70815 3.81477,16.51482 1.61039,4.80668 2.92798,9.14699 2.92798,9.64517 0,0.49816 -1.08047,0.90578 -2.40103,0.90578 l -2.40103,0 0,10.73431 c 0,10.56767 0.05,10.80997 3.21874,15.60666 12.5897,19.05758 17.27823,25.52113 18.5125,25.52113 0.70087,0 2.03062,-1.18851 2.95499,-2.64113 0.92437,-1.45262 1.90675,-2.85722 2.18305,-3.12132 0.27633,-0.26412 2.22113,-2.64113 4.32181,-5.28227 2.10067,-2.64111 5.01792,-6.02379 6.48276,-7.51704 l 2.66336,-2.715 0,-26.63791 0,-26.6379 2.88755,-2.76646 c 1.79739,-1.722 3.22349,-2.42438 3.77733,-1.8604 0.68835,0.70095 5.82044,23.49319 5.82044,25.84927 0,0.2792 0.62454,0.50764 1.38785,0.50764 1.30439,0 10.13705,-9.95021 10.13705,-11.41967 0,-1.15614 13.8032,-15.23265 16.02858,-16.34592 2.85097,-1.42626 3.27394,-0.32409 2.26189,5.89413 -1.27896,7.8583 -2.76319,12.83768 -6.07399,20.37763 -3.57883,8.15034 -6.6367,12.75084 -15.8297,23.8155 l -6.97555,8.39573 -0.962,40.9835 c -0.538,22.91963 -1.36443,41.46837 -1.87501,42.08359 -1.33463,1.60814 -6.73566,15.1351 -6.73951,16.87923 -0.004,1.58275 -1.79651,3.79362 -3.07662,3.79362 -0.42257,0 -0.76831,-17.07128 -0.76831,-37.93618 z m -19.14506,2.36724 c 1.4755,-0.78967 1.85466,-2.02458 1.84298,-6.00256 -0.008,-2.7546 -0.39665,-5.61158 -0.86348,-6.34883 -1.29403,-2.04363 -3.66554,-0.58141 -4.38739,2.70517 -0.35457,1.61431 -1.0436,3.18166 -1.53119,3.48301 -1.62224,1.0026 -1.00823,6.02434 0.7942,6.49537 0.9244,0.24157 1.81718,0.48936 1.98396,0.55062 0.16678,0.0613 1.1392,-0.33598 2.16092,-0.88278 z m -258.89349,25.5884 c -0.52823,-0.19293 -2.90524,-0.92166 -5.28225,-1.61942 -5.94667,-1.74559 -10.86611,-4.95124 -14.08949,-9.18111 -2.50132,-3.2823 -2.71563,-4.22185 -2.69199,-11.80128 0.0204,-6.54836 0.58292,-9.80874 2.74625,-15.91833 5.63297,-15.90851 7.27322,-16.32473 7.29765,-1.85181 0.0202,11.94934 1.81085,16.98168 7.15763,20.1151 5.99679,3.51437 12.97689,2.89456 27.1588,-2.41157 6.03401,-2.25761 21.25741,-10.14757 23.22846,-12.0388 1.09788,-1.05344 1.5055,-10.44732 2.20967,-50.92351 0.77759,-44.69704 0.71233,-49.79879 -0.65647,-51.3113 -1.40009,-1.54707 -1.1884,-2.34508 2.68477,-10.12096 2.31259,-4.64281 4.48929,-7.98098 4.83712,-7.41819 0.83905,1.35761 8.27905,31.93196 8.29456,34.08612 0.007,0.92439 -0.5663,1.68072 -1.27323,1.68072 -1.05204,0 -1.20214,4.47136 -0.82694,24.63265 0.48143,25.8686 -0.19381,34.47572 -3.79381,48.35847 -6.77116,26.11182 -26.18735,44.1301 -49.16618,45.62638 -3.78078,0.24619 -7.30632,0.28976 -7.83455,0.0968 z m -48.70194,-29.6144 -0.27895,-7.90143 -5.76246,-1.52685 c -10.5345,-2.79128 -15.12532,-6.26325 -18.99265,-14.36381 -1.71029,-3.58243 -2.04864,-5.965 -1.97759,-13.92594 0.0471,-5.28226 0.78702,-13.21736 1.64419,-17.63358 3.03767,-15.6505 1.13993,-16.98248 -4.93823,-3.46601 -5.33117,11.85531 -6.94903,18.33021 -6.94903,27.81122 0,6.82763 -0.38603,8.55422 -3.24762,14.52533 -2.86842,5.9854 -7.07585,10.93675 -9.29353,10.93675 -0.41647,0 -2.0486,-1.08664 -3.62699,-2.41476 -5.78595,-4.86855 -9.73851,-25.90553 -9.75457,-51.91739 -0.009,-15.314 1.20622,-20.54447 5.79725,-24.94296 1.56096,-1.49548 2.85468,-2.53016 2.87495,-2.29927 0.0203,0.23088 0.1969,9.71174 0.39253,21.06859 0.36916,21.43316 1.66224,30.25289 4.43542,30.25289 1.97469,0 6.33782,-9.69112 14.26897,-31.69352 9.27344,-25.72605 10.74956,-29.40071 11.98605,-29.83806 0.57964,-0.20503 3.43091,0.17167 6.33614,0.83709 l 5.28226,1.20989 -0.0833,3.81124 c -0.0459,2.09619 -0.59933,6.83654 -1.23,10.53412 -3.54157,20.7644 -3.58124,35.96789 -0.11158,42.76896 2.31514,4.53808 4.68425,5.93779 9.38896,5.54716 l 3.56087,-0.29564 0.25151,-36.09631 c 0.24464,-35.11293 0.19885,-36.14392 -1.68072,-37.84492 -1.06272,-0.96175 -1.93222,-2.30455 -1.93222,-2.984 0,-0.67944 2.45072,-4.53281 5.44602,-8.56301 4.31948,-5.81186 5.6201,-7.01659 6.28754,-5.82394 0.71483,1.27733 10.35586,33.56735 10.35586,34.68415 0,0.21265 -1.62069,0.2915 -3.60154,0.17524 l -3.60153,-0.21137 -0.25561,26.82794 c -0.1458,15.30312 0.12148,27.20502 0.6222,27.70574 0.53013,0.53013 2.72351,-0.0424 5.53786,-1.44547 3.32955,-1.65994 5.48268,-3.65419 7.54128,-6.98476 2.85914,-4.62576 2.88053,-4.76521 2.79018,-18.17942 -0.0647,-9.59622 -0.57777,-15.32895 -1.76875,-19.76056 -2.82736,-10.52054 -2.81898,-10.89274 0.44661,-19.83878 3.3412,-9.15318 4.63853,-11.41458 5.85213,-10.20098 0.42612,0.42612 2.0897,8.5479 3.69683,18.04839 4.63953,27.42615 8.11969,41.67385 12.09573,49.51952 0.68935,1.36026 3.01132,4.06141 5.15994,6.00256 7.72778,6.98159 14.46556,3.30888 14.46556,-7.88508 0,-9.16727 -5.78502,-30.06077 -13.36408,-48.26648 l -3.04141,-7.30581 3.16059,-10.70296 c 1.73833,-5.88661 3.58583,-10.80312 4.10556,-10.92556 1.4393,-0.33909 9.91055,29.3883 14.03119,49.23845 4.65315,22.41528 5.74823,38.20712 3.35494,48.38008 -1.51017,6.41911 -3.63576,9.71293 -8.33512,12.91622 -2.71515,1.85076 -4.00984,2.12435 -7.59495,1.6049 -5.86244,-0.8494 -12.06097,-4.05954 -15.58189,-8.06962 -3.41122,-3.88519 -7.44509,-12.11384 -7.45856,-15.21468 -0.007,-1.51752 -0.58129,-2.16093 -1.9302,-2.16093 -1.12397,0 -1.92082,0.64028 -1.92082,1.54342 0,2.89142 -5.99755,14.12117 -9.64531,18.05975 -3.14691,3.39782 -6.02656,5.28186 -12.4441,8.14171 -0.79235,0.3531 -3.16936,4.19369 -5.28226,8.53467 -2.1129,4.34098 -4.14829,7.89417 -4.52309,7.89599 -0.37482,0.002 -0.807,-3.55233 -0.96042,-7.89811 z m 356.13362,1.34142 c -0.41446,-0.67063 0.88444,-6.33787 2.9306,-12.78657 0.93246,-2.93877 -1.47798,-18.31388 -3.1631,-20.17592 -1.52024,-1.67984 -1.48249,-1.77483 0.7033,-1.76977 4.30075,0.01 9.52467,2.00041 10.82362,4.12403 0.71094,1.16232 1.8184,4.59874 2.46102,7.63653 1.12436,5.31494 1.06058,5.74959 -1.69086,11.52491 -4.06668,8.53607 -10.24224,14.39537 -12.06458,11.44679 z M 336.19515,187.71557 c -5.83092,-11.8245 -7.83309,-20.33355 -7.83285,-33.28896 1.5e-4,-7.92658 2.01721,-22.50853 3.42963,-24.79388 1.50803,-2.44004 2.33612,1.22895 2.36797,10.4917 0.0573,16.6671 3.11327,28.03529 7.53638,28.03529 1.35403,0 2.26292,-1.62114 3.90378,-6.96297 7.45413,-24.26714 11.24146,-32.123 19.39835,-40.23708 2.57767,-2.56413 5.09796,-4.66206 5.60063,-4.66206 2.19595,0 3.15828,4.98986 3.59458,18.63858 0.67751,21.19526 3.06039,27.55097 10.97995,29.2861 4.478,0.9811 7.50345,0.0242 9.85044,-3.11565 3.04997,-4.08029 3.34703,-19.55613 0.61986,-32.29361 l -2.04342,-9.54408 3.39798,-6.74749 3.39798,-6.7475 -3.72261,-1.89913 c -7.57493,-3.86444 -10.13751,-9.2881 -7.6967,-16.28984 1.59102,-4.56407 3.09089,-3.57869 6.0612,3.98207 2.32422,5.91618 4.25815,4.70229 4.59035,-2.88123 0.27155,-6.19895 0.3891,-6.48276 2.68502,-6.48276 2.24887,0 2.41926,0.34941 2.6888,5.51408 0.2184,4.18467 0.71507,5.74276 2.06007,6.46258 2.96983,1.58941 4.23584,-1.07353 3.63911,-7.65451 l -0.5194,-5.72782 5.0664,-2.898706 C 418.03517,76.304413 420.80268,75 421.39867,75 c 2.06592,0 0.70564,12.66608 -2.39504,22.30117 -1.64259,5.10424 -6.00752,9.39234 -9.56058,9.39234 -2.72081,0 -2.6652,-0.87593 -0.91489,14.40615 2.78881,24.34941 5.61516,33.07668 12.81999,39.58579 4.30192,3.88653 11.26283,5.78359 12.8317,3.49702 0.49247,-0.71775 0.70325,-5.19465 0.46841,-9.94868 -0.4274,-8.65202 -3.34606,-21.35416 -7.92776,-34.50208 -1.27457,-3.6576 -2.31742,-8.13303 -2.31742,-9.9454 0,-3.38779 4.415,-19.26671 5.75679,-20.70478 0.71685,-0.76829 5.39081,12.38537 9.50018,26.73588 6.83204,23.8584 8.44617,51.31969 3.93739,66.98701 -1.3009,4.52045 -4.98893,6.57361 -12.90829,7.18615 -5.2735,0.4079 -6.16063,0.18972 -9.67487,-2.37933 -4.56845,-3.33972 -9.31574,-11.72697 -11.1457,-19.69162 -0.71453,-3.10992 -1.79457,-5.52236 -2.47233,-5.52236 -0.66193,0 -2.50294,2.77932 -4.09112,6.17626 -7.4441,15.92189 -16.68129,24.11323 -23.26465,20.63054 -3.9794,-2.10515 -10.72167,-8.58027 -13.21889,-12.69516 -2.31876,-3.82081 -2.4364,-4.67992 -2.2939,-16.75276 0.0826,-6.99899 -0.2198,-12.72543 -0.67205,-12.72543 -0.45224,0 -3.02739,4.2138 -5.72253,9.36399 -4.8412,9.2511 -4.89935,9.46522 -4.82317,17.75976 l 0.0771,8.39578 -4.58909,2.82615 c -2.52399,1.5544 -5.36983,4.15102 -6.32408,5.77028 -0.95427,1.61925 -2.05001,2.94411 -2.435,2.94411 -0.38498,0 -2.11467,-2.86884 -3.84373,-6.37521 z m 126.89011,-32.28128 c -3.61062,-3.76641 -5.05376,-10.65159 -2.85431,-13.61787 1.31751,-1.77685 1.59649,-1.65863 6.79926,2.88122 6.14345,5.36068 7.28296,7.97496 4.99687,11.46395 -2.15567,3.28998 -5.33891,3.03106 -8.94182,-0.7273 z m -122.2378,-43.06417 c -4.48992,-4.73064 -8.31785,-9.05449 -8.50651,-9.60855 -0.50629,-1.48694 3.76185,-5.67216 5.78456,-5.67216 0.9599,0 2.28507,0.86437 2.94483,1.92082 1.97131,3.15656 4.27965,2.38529 5.03026,-1.68071 1.0562,-5.72134 3.76419,-7.92338 9.74394,-7.92338 2.78198,0 5.32961,-0.43924 5.6614,-0.97607 0.33179,-0.53684 1.07089,-0.68707 1.64244,-0.33382 0.6365,0.39336 -0.10941,1.60895 -1.92496,3.13699 -4.12473,3.47151 -7.89063,13.25114 -7.89063,20.49104 0,5.92727 -1.18342,9.41966 -3.15512,9.31119 -0.64171,-0.0353 -4.8403,-3.93471 -9.33021,-8.66535 z m -174.35985,3.74201 c -0.37939,-1.21855 -4.81182,-6.42197 -9.84982,-11.56316 -9.14121,-9.32843 -9.15624,-9.35177 -7.32635,-11.37377 3.37632,-3.73079 5.1776,-4.15911 8.17411,-1.94369 3.46622,2.5627 4.4349,2.53609 5.26722,-0.14465 0.36901,-1.18851 1.48078,-3.31116 2.47057,-4.71699 1.53918,-2.18611 2.61498,-2.60314 7.43273,-2.88123 l 5.63305,-0.32517 -2.65315,4.80206 c -3.80089,6.87939 -4.65125,10.36144 -5.04254,20.64801 -0.28202,7.41427 -0.63445,9.17845 -1.88151,9.41861 -0.91604,0.17642 -1.81249,-0.5974 -2.22431,-1.92002 z m 348.43675,-0.2042 c -3.43727,-4.36979 -5.22674,-19.77892 -2.29693,-19.77892 0.40701,0 1.70688,1.72026 2.88857,3.82281 1.18169,2.10253 2.88862,4.37151 3.79318,5.04215 3.69871,2.74224 5.43156,11.51537 2.49691,12.6415 -2.9041,1.1144 -5.0749,0.56946 -6.88173,-1.72754 z"
     inkscape:connector-curvature="0" />
</svg>
