<?xml version="1.0" encoding="UTF-8" standalone="no"?>
<!-- Created with Inkscape (http://www.inkscape.org/) -->
<svg
   xmlns:dc="http://purl.org/dc/elements/1.1/"
   xmlns:cc="http://creativecommons.org/ns#"
   xmlns:rdf="http://www.w3.org/1999/02/22-rdf-syntax-ns#"
   xmlns:svg="http://www.w3.org/2000/svg"
   xmlns="http://www.w3.org/2000/svg"
   xmlns:sodipodi="http://sodipodi.sourceforge.net/DTD/sodipodi-0.dtd"
   xmlns:inkscape="http://www.inkscape.org/namespaces/inkscape"
   width="600"
   height="300"
   id="svg4265"
   sodipodi:version="0.32"
   inkscape:version="0.46"
   version="1.0"
   sodipodi:docbase="F:\Liberación de C\Mis Documentos\Mis imágenes\Otros"
   sodipodi:docname="Flag_of_Afghanistan_(1992).svg"
   inkscape:output_extension="org.inkscape.output.svg.inkscape">
  <defs
     id="defs4267">
    <inkscape:perspective
       sodipodi:type="inkscape:persp3d"
       inkscape:vp_x="0 : 150 : 1"
       inkscape:vp_y="0 : 1000 : 0"
       inkscape:vp_z="600 : 150 : 1"
       inkscape:persp3d-origin="300 : 100 : 1"
       id="perspective12" />
  </defs>
  <sodipodi:namedview
     id="base"
     pagecolor="#ffffff"
     bordercolor="#666666"
     borderopacity="1.0"
     inkscape:pageopacity="0.0"
     inkscape:pageshadow="2"
     inkscape:zoom="1"
     inkscape:cx="306.32254"
     inkscape:cy="154.04609"
     inkscape:document-units="px"
     inkscape:current-layer="layer1"
     width="600px"
     height="300px"
     inkscape:window-width="660"
     inkscape:window-height="736"
     inkscape:window-x="46"
     inkscape:window-y="28"
     showgrid="false" />
  <metadata
     id="metadata4270">
    <rdf:RDF>
      <cc:Work
         rdf:about="">
        <dc:format>image/svg+xml</dc:format>
        <dc:type
           rdf:resource="http://purl.org/dc/dcmitype/StillImage" />
      </cc:Work>
    </rdf:RDF>
  </metadata>
  <g
     inkscape:label="Capa 1"
     inkscape:groupmode="layer"
     id="layer1">
    <rect
       style="opacity: 1; fill: rgb(255, 255, 255); fill-opacity: 1; fill-rule: evenodd; stroke: none; stroke-width: 1.001; stroke-linecap: square; stroke-linejoin: miter; stroke-miterlimit: 4; stroke-dasharray: none; stroke-opacity: 1;"
       id="rect5256"
       width="600"
       height="300"
       x="0"
       y="0" />
    <rect
       style="opacity:1;fill:#009900;fill-opacity:1;fill-rule:evenodd;stroke:none;stroke-width:1.00099999999999990;stroke-linecap:square;stroke-linejoin:miter;stroke-miterlimit:4;stroke-dasharray:none;stroke-opacity:1"
       id="rect4283"
       width="600"
       height="100"
       x="0"
       y="0" />
    <rect
       style="opacity: 1; fill: rgb(0, 0, 0); fill-opacity: 1; fill-rule: evenodd; stroke: none; stroke-width: 1.001; stroke-linecap: square; stroke-linejoin: miter; stroke-miterlimit: 4; stroke-dasharray: none; stroke-opacity: 1;"
       id="rect4285"
       width="600"
       height="100"
       x="0"
       y="200" />
    <path
       style="fill:#ffffff;fill-opacity:1"
       d="M 265.38854,76.570137 C 264.39287,73.975466 265.78842,71.830952 268.24553,72.179863 C 269.89826,72.414553 270.5,73.167272 270.5,75 C 270.5,76.832728 269.89826,77.585447 268.24553,77.820137 C 266.89325,78.012162 265.74994,77.511938 265.38854,76.570137 z M 236.63486,67.92742 C 232.09176,64.353816 233.91137,58.034085 241.1825,52.132896 C 244.89112,49.123017 245.82208,49.969069 243.00066,53.785233 C 241.7809,55.435056 240.97343,57.775934 241.16261,59.113843 C 241.65939,62.62728 246.735,62.075583 252.75215,57.854112 C 255.38161,56.00935 260.11567,53.15 263.27229,51.5 C 266.4289,49.85 269.26431,47.7125 269.57318,46.75 C 270.45417,44.004736 274,44.516741 274,47.389216 C 274,48.703285 274.82184,50.793363 275.82631,52.033833 L 277.65263,54.289235 L 279.82631,51.956056 C 282.01578,49.605936 282.29422,47.907313 282.48428,35.74065 C 282.61229,27.546679 284.60205,25.784982 294.74035,24.88935 C 299.00816,24.512326 304.50743,23.502914 306.96095,22.646212 C 311.83721,20.94356 312.9799,21.222977 311.3978,23.731133 C 310.32666,25.429243 308.7037,26.486452 305.80119,27.376821 C 304.23258,27.858003 304.22304,28.139819 305.67668,31.053711 C 306.9593,33.624785 307.04125,34.884864 306.11896,37.854739 C 305.49634,39.859633 304.32518,46.122824 303.51637,51.772941 C 302.03341,62.132517 300.64576,66.38192 298.9323,65.810765 C 297.73144,65.410481 297.69038,64.631498 298.52054,58 C 298.89922,54.975 299.50024,47.2125 299.85613,40.75 C 300.58512,27.512662 300.6508,27.612969 293.40777,30.902436 L 289.31553,32.760947 L 288.24863,43.130474 C 287.66183,48.833713 286.70205,54.737293 286.11579,56.24954 C 284.7925,59.662917 279.23815,63.199973 276.50335,62.370823 C 273.52346,61.467367 271,58.933609 271,56.845012 C 271,55.718347 270.28167,55 269.15504,55 C 267.093,55 256.26139,61.727196 254.11789,64.339132 C 252.38289,66.453307 244.48227,70 241.50774,70 C 240.27683,70 238.08403,69.067339 236.63486,67.92742 z M 313.88231,67.75 C 311.894,66.093018 312.43617,47 314.47153,47 C 315.96135,47 317,51.388819 317,57.684017 C 317,60.122726 317.39597,61.873313 317.87993,61.57421 C 318.77231,61.022687 320.91211,54.982619 322.95453,47.25 C 323.61141,44.763046 324.66833,43 325.50233,43 C 326.61897,43 326.98955,45.111167 327.21379,52.75 C 327.4874,62.070832 327.60146,62.514383 329.80504,62.826764 C 334.32337,63.467284 335.24145,61.415536 334.85439,51.542442 C 334.50835,42.715921 334.55386,42.500288 336.78694,42.386283 C 339.93668,42.225479 341,44.74342 341,52.36283 C 341,59.50395 342.61445,62.339672 346.37465,61.803217 C 349.00831,61.427481 349.71257,57.746931 347.73532,54.692184 C 345.25224,50.855964 344.84537,47.199698 346.53744,43.927591 C 348.76115,39.627425 350.39745,40.753783 351.11522,47.078726 C 351.45359,50.060427 352.24109,54.072029 352.86522,55.993398 C 355.42353,63.869093 353.50724,67 346.12857,67 C 343.52786,67 340.87493,66.474926 340.23317,65.833169 C 339.34406,64.94406 338.12112,65.092569 335.09509,66.457119 C 330.29276,68.62267 326.66463,67.943985 324.37666,64.45211 L 322.72803,61.935973 L 320.32796,65.467987 C 317.77074,69.231279 316.28919,69.755804 313.88231,67.75 z M 358.27584,54.75 C 358.33187,46.9125 358.01562,37.956215 357.57308,34.847144 C 356.82257,29.57447 356.92224,29.111985 359.05506,27.970532 C 360.99418,26.932746 361.54366,27.023012 362.67083,28.564518 C 364.30386,30.797806 364.38356,32.014294 364.04248,49.5 C 363.89229,57.2 363.30392,64.4 362.735,65.5 C 361.69737,67.506224 360.07555,68.956082 358.83699,68.984687 C 358.47234,68.993109 358.21982,62.5875 358.27584,54.75 z M 315.39331,43.827379 C 315.01879,43.221384 315.69903,41.981324 316.90496,41.07169 C 318.37091,39.965923 318.87549,38.839116 318.4275,37.671659 C 317.60249,35.52172 320.61089,31.913455 322.59396,32.674428 C 323.36728,32.97118 324,34.343317 324,35.72362 C 324,37.764156 324.38452,38.132709 326.0571,37.695318 C 328.36041,37.09299 328.27284,38.89778 325.94048,40.098987 C 318.31775,44.024824 316.01782,44.837844 315.39331,43.827379 z M 333,38.793568 C 333,38.307106 334.15977,36.749318 335.57727,35.331818 C 338.36523,32.543865 339.7682,33.034085 340.22126,36.954497 C 340.46944,39.10199 340.0888,39.383555 336.75,39.522259 C 334.6875,39.607942 333,39.280031 333,38.793568 z M 253,35.290945 C 253,33.550738 257.60648,30 259.86411,30 C 261.09348,30 263.4593,29.296728 265.12149,28.437173 C 267.47802,27.218564 268.45823,27.135406 269.57183,28.059617 C 270.35733,28.711517 271,29.623957 271,30.087261 C 271,31.467711 266.80579,33.33686 262,34.098111 C 259.525,34.490158 256.4875,35.13095 255.25,35.522093 C 254.00535,35.915496 253,35.812214 253,35.290945 z M 329.52395,34.038757 C 328.77846,32.83253 333.62292,29.636225 338.5,28.116483 C 340.7,27.430943 343.0625,26.636787 343.75,26.35169 C 344.4375,26.066594 345,26.530001 345,27.381483 C 345,29.21019 341.41367,31.373694 339.91632,30.448283 C 339.34303,30.09397 338.11483,30.436147 337.18699,31.208677 C 334.57038,33.387287 330.13394,35.025735 329.52395,34.038757 z M 247.60426,27.845394 C 245.62526,25.019977 247.19639,21.744962 250.31766,22.189316 C 252.8473,22.549442 253.81495,26.313114 251.95432,28.555042 C 250.31723,30.527613 249.37534,30.373957 247.60426,27.845394 z"
       id="path3382"
       sodipodi:nodetypes="csssccssssssscccssssssssssscccssssssccsssssssssssssssssscccccssssssccssssssccsssccssssssccsssssccssc" />
    <path
       style="fill:#000000;fill-opacity:1"
       d="M 419.5,176 C 420.20877,173.76685 418.94373,173.42456 415.93426,175.03518 C 414.44159,175.83403 414,175.74431 414,174.64217 C 414,173.85667 414.72419,172.93608 415.60931,172.59643 C 416.8393,172.12444 417.06945,171.18376 416.58576,168.60546 C 416.10256,166.02979 416.33254,165.08637 417.55824,164.61602 C 420.51752,163.48044 420.99959,163.97802 421.07895,168.25 C 421.12237,170.5875 421.39113,171.91872 421.67619,171.20826 C 422.07419,170.21634 422.52007,170.18673 423.59725,171.08071 C 425.6662,172.79778 425.31228,174.56537 422.53518,176.38499 C 419.31348,178.49593 418.73126,178.42208 419.5,176 z M 375,176.05902 C 375,175.54148 375.45,174.83992 376,174.5 C 376.55,174.16008 377,173.40342 377,172.81854 C 377,172.11813 376.51834,172.15485 375.58903,172.92611 C 374.51993,173.81339 374.0043,173.81597 373.46091,172.93675 C 373.06648,172.29856 373.20605,171.4892 373.77107,171.1382 C 374.33608,170.78719 374.95624,169.41025 375.14918,168.07833 C 375.57774,165.12 378,164.02893 378,166.79422 C 378,167.87271 378.675,169.31531 379.5,170 C 381.66372,171.79573 381.35123,173.53984 378.53518,175.38499 C 375.70107,177.24197 375,177.37564 375,176.05902 z M 147,174.68806 C 147,173.28012 152.23686,169 153.95951,169 C 154.53178,169 155,169.89396 155,170.98658 C 155,172.3245 153.8173,173.46733 151.37788,174.48658 C 146.98558,176.3218 147,176.32114 147,174.68806 z M 199.93675,172.42378 C 198.85262,171.11749 198.87446,170.692 200.0643,169.9391 C 200.85394,169.43944 202.08043,169.02373 202.78984,169.01531 C 207.01189,168.96519 217.05455,161.60157 219.4502,156.79937 C 221.37091,152.94922 221.45606,153.33128 218.51265,152.59253 C 213.08209,151.22955 211.38925,142.4676 216.07225,139.96133 C 218.18682,138.82965 222.56861,140.57036 225.00985,143.51186 C 226.26105,145.01948 226.50961,144.97585 228.01125,142.98508 L 229.64848,140.81456 L 231.34729,143.40728 C 233.65164,146.92416 234.50892,146.6846 236.38332,142 C 238.24171,137.35544 239.16247,137.07283 241.38499,140.46482 C 244.18949,144.74503 242.90082,149 238.8,149 C 237.81,149 237,149.49923 237,150.10941 C 237,150.78186 235.66325,151.06275 233.60602,150.82258 C 230.24812,150.43057 230.20657,150.47458 229.69688,154.96318 C 229.41353,157.45843 229.35373,159.67541 229.56399,159.88981 C 230.44674,160.78992 245.35639,147.98894 245.82488,145.9287 C 246.00356,145.14291 246.95983,143.6 247.94991,142.5 C 251.19077,138.89937 252.27101,136.03147 250.97472,134.46954 C 250.05058,133.35602 250.39697,132.55128 252.65533,130.56507 C 254.2199,129.18904 255.8375,128.04898 256.25,128.0316 C 257.82935,127.96506 256.8929,132.32661 254.4229,136.54134 C 252.7626,139.37444 252.07582,141.66352 252.49236,142.97594 C 252.97894,144.509 252.565,145.2432 250.81946,145.94314 C 249.04993,146.65271 248.92078,146.88826 250.27475,146.93661 C 251.25086,146.97148 252.48836,148.15429 253.02475,149.5651 C 254.85264,154.37281 254.43703,154.82891 248.69381,154.31795 L 243.38762,153.84588 L 239.63059,158.67294 C 234.78067,164.90414 228.23552,169.44036 226.35115,167.87646 C 224.39472,166.25278 224.69287,161.0253 227,156.5 C 229.30528,151.97833 229.30011,152 228.07331,152 C 227.56363,152 226.01772,154.3625 224.63795,157.25 C 221.84752,163.08967 219.45532,165.95005 213.34764,170.75 C 208.66495,174.43007 202.26475,175.22886 199.93675,172.42378 z M 272.62949,170.58088 C 271.19515,168.70037 268.10424,166.09138 265.7608,164.78313 L 261.5,162.4045 L 258,166.27486 C 251.98737,172.92373 244.47705,172.40782 242.72832,165.2258 C 241.95216,162.03811 243.79693,156 245.547,156 C 246.34615,156 247,156.92235 247,158.04966 C 247,160.51279 249.70201,166 250.9149,166 C 252.5654,166 255.86615,162.47654 257.92697,158.51481 C 260.48523,153.59681 260.55179,147.28628 258.11968,140.24603 C 256.16847,134.59787 256.9371,132.45607 260.65812,133.17268 C 263.03376,133.63018 263.78237,136.88953 263.90032,147.28872 C 263.99974,156.05488 264.00991,156.08807 267.86063,160.21624 L 271.72126,164.35504 L 273.25651,161.92752 C 274.10089,160.59238 275.11528,158.42024 275.5107,157.10052 C 276.19531,154.81568 276.05784,154.72893 272.63315,155.28468 C 270.65507,155.60568 268.78501,155.46116 268.47746,154.96352 C 267.52294,153.41908 270.70895,148.45938 274.52564,145.54824 C 277.14411,143.55104 277.86404,142.46404 277.08459,141.68459 C 275.54401,140.14401 275.74169,136.45927 277.44056,135.04933 C 279.5694,133.28255 278.20482,130.91394 275.24027,131.23012 C 271.72984,131.60451 271.37451,129.60602 274.68345,128.09837 C 276.9682,127.05737 277.59929,127.09909 278.51523,128.35171 C 279.46895,129.656 279.76729,129.60228 280.80588,127.93923 C 281.46265,126.88758 282,125.12103 282,124.01357 C 282,122.69331 282.66235,122 283.92364,122 C 285.56256,122 285.82157,122.66604 285.67364,126.49998 C 285.49931,131.01795 284.43196,132.03196 282.2,129.8 C 281.54,129.14 281.00689,129.0275 281.01531,129.55 C 281.0444,131.35456 282.67337,133.07624 286.08054,134.90353 C 290.7728,137.42002 290.77877,140.81287 286.09366,142.36877 C 282.37133,143.60494 278.35594,148.14887 279.4383,149.90017 C 279.84026,150.55054 283.36318,151 288.05902,151 C 292.42656,151 296,151.25458 296,151.56574 C 296,151.8769 295.5619,152.95008 295.02644,153.95059 C 294.27429,155.356 292.91377,155.75251 289.0439,155.69413 C 285.0979,155.6346 283.50433,156.11703 281.53465,157.96745 C 277.72334,161.54799 277.43252,163.74474 280.4051,166.49963 C 283.33252,169.21267 283.01547,171.21629 279.39794,172.86455 C 275.84238,174.48457 275.5254,174.37762 272.62949,170.58088 z M 435.55797,173.22464 C 434.78824,172.45491 437.007,170 438.47241,170 C 439.14754,170 441.61972,168.60931 443.96613,166.90958 C 447.92836,164.03935 448.19096,163.56417 447.6516,160.24049 C 447.3322,158.27223 446.67859,156.40042 446.19915,156.08092 C 445.71971,155.76141 442.10441,151.675 438.16517,147 C 434.22592,142.325 430.32725,137.78725 429.50145,136.91611 C 427.53619,134.84295 427.60732,133.66535 429.81868,131.6641 C 431.52427,130.12055 431.76644,130.19281 433.71348,132.82633 C 434.85535,134.37079 436.95119,137.8542 438.37091,140.56722 C 439.79062,143.28025 443.16284,147.95406 445.86474,150.95346 L 450.77728,156.40692 L 451.43549,144.45346 C 451.7975,137.87906 452.18512,131.4097 452.29685,130.07712 C 452.56624,126.86421 455,126.06925 455,129.19416 C 455,130.49262 455.69647,132.54934 456.54772,133.76467 C 457.9847,135.81624 457.96495,137.43898 456.42011,144.25 C 456.32655,144.6625 456.19375,148.375 456.125,152.5 C 456.01912,158.85261 455.65578,160.34138 453.75,162.23148 C 452.5125,163.45879 451.05,165.32791 450.5,166.38508 C 449.95,167.44225 448.375,169.12319 447,170.12051 C 444.3859,172.01658 436.49158,174.15824 435.55797,173.22464 z M 359.18358,170.25 C 359.40425,168.33218 360.14548,167.40794 361.63301,167.19578 C 362.80617,167.02846 364.98249,165.52628 366.46929,163.85761 C 370.7644,159.03708 368.90633,155.23871 355.75,141.94466 C 349.83831,135.97109 348.31023,132 351.92327,132 C 354.39017,132 359.646,136.41477 361.54042,140.07816 C 362.34814,141.64013 364.24448,144.07227 365.7545,145.48291 C 367.26453,146.89356 369.48533,149.01107 370.68963,150.18849 L 372.87926,152.32925 L 373.54464,149.67816 C 373.9106,148.22006 373.71277,144.17161 373.10501,140.68162 C 371.53815,131.68405 371.65749,130 373.86195,130 C 377.85579,130 379.54503,150.14718 376,155.5 C 374.90725,157.15 374.01021,159.68991 374.00659,161.14424 C 373.99873,164.29947 369.03144,170 366.28992,170 C 365.24071,170 363.50875,170.66069 362.44113,171.4682 C 359.59727,173.61918 358.82897,173.33187 359.18358,170.25 z M 158.17431,169.68555 C 156.97844,168.4126 156,166.8376 156,166.18555 C 156,164.41104 154.53432,164.7521 152.5,167 C 150.39002,169.33151 147.72965,169.5841 146.09012,167.60859 C 145.455,166.84331 144.73842,162.23081 144.49773,157.35859 C 144.25704,152.48636 143.6206,147.01172 143.08343,145.1927 C 141.90012,141.18573 142.59056,139 145.0396,139 C 147.76307,139 148.46926,142.39482 148.10789,153.75 C 147.90596,160.09515 148.16042,164 148.77584,164 C 150.4935,164 152.96573,159.26368 154.11126,153.77835 C 156.3344,143.13293 159.04546,145.02083 159.31272,157.4005 C 159.54131,167.98909 160.83439,169.52208 165.62263,164.88114 C 168.54957,162.04424 168.78684,161.28286 169.20061,153.39949 C 169.44434,148.7557 170.13471,144.46529 170.73475,143.86525 C 173.00627,141.59373 174,144.22886 174,152.52383 C 174,160.01153 174.22698,161.05111 176.07814,162.04182 C 181.33707,164.85631 182.73908,158.64323 178.48361,151.38181 C 176.02853,147.19254 176.01474,147.06248 177.91787,146.04396 C 178.99072,145.46978 180.07865,145 180.33548,145 C 181.16732,145 184.65024,151.47518 185.46139,154.52972 L 186.25016,157.5 L 188.61221,152.5 C 191.30041,146.80962 191.60657,141.30298 189.55738,135.5 C 188.38093,132.16845 188.36741,131.27134 189.47648,130.13168 C 191.09521,128.4683 193,129.44841 193,131.94471 C 193,132.94938 193.67223,135.06032 194.49384,136.63569 C 196.38937,140.27021 196.38486,144.03969 194.47412,153.12303 C 193.09894,159.66042 193.10153,160.5301 194.50032,161.92889 C 195.88658,163.31516 196.34339,163.32074 198.7762,161.98118 C 202.11304,160.14384 206,152.75447 206,148.24827 C 206,144.77883 202.60214,137 201.08666,137 C 200.60669,137 199.94401,137.70352 199.61405,138.56338 C 198.44463,141.61084 197.16506,138.90726 197.21372,133.49178 C 197.25451,128.95179 197.56567,128 199.00909,128 C 199.9694,128 201.31992,128.68055 202.01023,129.51233 C 203.00768,130.71419 203.56542,130.77563 204.72698,129.81162 C 205.91476,128.82585 206.53917,129.05773 208.05971,131.04929 C 210.93364,134.81347 212.4983,139.07003 211.29193,139.84236 C 210.72384,140.20606 210.30703,143.85223 210.3594,148 C 210.43427,153.93102 209.99292,156.37147 208.24968,159.66579 C 203.67265,168.31526 194.48752,170.87441 189.02159,165.02311 L 186.24076,162.04622 L 185.64208,165.03961 C 184.84,169.05002 181.08265,170.51005 175.30683,169.05568 C 171.6477,168.1343 170.61836,168.26219 167.78384,169.99038 C 163.49013,172.60824 160.84109,172.5242 158.17431,169.68555 z M 314.50116,169.90933 C 312.8518,169.43112 311.00525,168.36009 310.39772,167.52924 C 309.43172,166.20815 309.06709,166.26838 307.49158,168.00931 C 305.13091,170.61782 303.38971,170.52441 301.53229,167.68963 C 299.66426,164.83865 297.02674,156.3066 297.78045,155.55288 C 299.13383,154.19951 303.00204,155.07909 303.0451,156.75 C 303.06991,157.7125 303.6932,159.85 304.43019,161.5 L 305.77017,164.5 L 307.38508,160.78212 C 308.27329,158.73728 309,154.84793 309,152.13911 C 309,147.6775 309.95994,146 312.51306,146 C 312.70528,146 313.17594,149.59259 313.55896,153.98353 C 314.42276,163.88586 316.02203,165.83828 319.73431,161.52249 C 321.91567,158.98651 322.16745,157.95646 321.68183,153.55499 C 321.37508,150.77474 320.8277,147.10135 320.46543,145.3919 C 319.91253,142.78291 320.14329,142.19579 321.90238,141.73578 C 324.72687,140.99716 325.1013,141.87255 325.8909,151.06066 C 326.60484,159.36835 327.74488,161.69561 330.56957,160.61168 C 331.9906,160.06638 332.17119,159.09325 331.65702,154.75189 C 331.31218,151.84024 330.0983,148.27166 328.90259,146.65437 L 326.76471,143.76274 L 329.63186,141.47656 C 331.20879,140.21915 332.83082,139.39544 333.23637,139.64608 C 333.64191,139.89672 334.70446,142.66639 335.59757,145.8009 C 337.24233,151.57337 339.82716,155.92739 338.66453,150.96703 C 338.338,149.5739 337.63557,144.60341 337.10358,139.9215 C 336.57158,135.23959 335.99314,130.75442 335.81816,129.95447 C 335.58852,128.90469 336.44584,128.5 338.89937,128.5 C 341.93621,128.5 342.43862,128.90404 343.61037,132.28855 C 344.60401,135.15862 344.65105,136.67176 343.80437,138.53001 C 343.08446,140.11005 343.01389,141.71606 343.60605,143.04315 C 344.46266,144.96289 343.52302,168.81032 342.55252,169.78081 C 341.29661,171.03672 340,168.32423 340,164.44098 C 340,161.99844 339.55,160 339,160 C 338.45,160 338,161.09991 338,162.44424 C 338,163.78857 336.92035,166.14364 335.60078,167.67773 C 333.30138,170.35095 333.02105,170.4188 328.86248,169.30882 C 326.47599,168.67183 324.06814,168.5047 323.5117,168.93744 C 321.69437,170.35075 317.56127,170.79655 314.50116,169.90933 z M 388.79969,168.45971 C 387.47732,165.55743 388.64479,160.9475 390.89113,160.20134 C 391.952,159.84895 392.12071,160.38292 391.60177,162.45053 C 391.03975,164.68982 391.22698,165.10294 392.67733,164.82362 C 393.79529,164.60832 394.99061,162.67125 395.96689,159.49272 C 396.81031,156.74672 397.86436,153.9375 398.30921,153.25 C 399.73732,151.04291 401.73239,151.91193 402.35221,155.01106 C 403.04289,158.46444 407.28618,161.11382 409.14669,159.25331 C 411.11885,157.28115 411.60842,150.68096 410.64156,139.09999 C 409.75729,128.50834 409.82203,127.60331 411.55447,126.33651 C 412.58003,125.5866 413.87881,125.12627 414.44063,125.31354 C 416.11396,125.87132 416.19883,158.58837 414.53727,162.56505 C 412.09886,168.40099 406.2426,169.411 401.34453,164.84036 L 399.18906,162.82898 L 398.47625,165.16449 C 396.65177,171.14237 390.91249,173.09681 388.79969,168.45971 z M 380.57348,154.78542 C 380.18078,148.02844 379.14701,139.92936 378.27621,136.78746 C 376.55424,130.57451 377.36837,128 381.05506,128 C 383.68512,128 384.27997,130.65953 383.85088,140.5 C 383.77238,142.30014 384.72699,148.33429 386.60508,157.90953 C 387.16394,160.7588 387.0146,161.21958 385.69623,160.71368 C 384.49889,160.25421 384.04408,160.86004 383.80932,163.22714 C 383.63919,164.9425 383.00218,166.50907 382.39373,166.70841 C 381.65056,166.95189 381.05313,163.03866 380.57348,154.78542 z M 421.59107,158.30515 C 421.0197,149.88714 419.49103,137.38124 418.36911,131.94651 C 417.95121,129.92216 418.36066,129.1567 420.34505,128.25255 C 424.28307,126.45827 425.08686,128.43264 424.77398,139.13136 C 424.62329,144.28411 424.71029,152.54667 424.96731,157.4926 C 425.36931,165.22828 425.20778,166.52889 423.81168,166.79775 C 422.44841,167.06029 422.0931,165.70142 421.59107,158.30515 z M 353.60699,162.41821 C 353.27314,161.54823 353,159.07323 353,156.91821 C 353,154.10202 353.42189,153 354.5,153 C 355.325,153 356,153.75207 356,154.67126 C 356,155.59045 356.71087,157.12802 357.5797,158.08807 C 358.82255,159.4614 358.92167,160.27785 358.04452,161.91681 C 356.72343,164.38528 354.45997,164.64104 353.60699,162.41821 z M 432.97511,159.43453 C 432.32727,157.73057 432.34739,156.21941 433.03504,154.93453 C 434.35455,152.469 436,152.43765 436,154.87803 C 436,155.91094 436.97681,157.40463 438.17069,158.19734 C 440.80556,159.94683 439.85828,162 436.41623,162 C 434.68947,162 433.65818,161.23114 432.97511,159.43453 z M 298.88152,151.25 C 298.66091,147.99156 299.16746,146.5063 301.27341,144.23676 C 302.8938,142.49049 303.10243,141.70243 302.18676,140.78676 C 300.40157,139.00157 300.75352,136.53304 303.09539,134.41368 C 305.16143,132.54394 305.21831,132.55138 307.15692,134.94546 C 308.40418,136.48577 308.91641,138.19692 308.55786,139.62549 C 308.247,140.86405 308.44431,142.15657 308.99633,142.49773 C 310.77345,143.59605 310.06636,145 307.73607,145 C 306.1735,145 304.70627,146.2392 303,149 C 300.32892,153.3219 299.06842,154.01053 298.88152,151.25 z M 389.54726,150.07647 C 389.23333,149.56852 390.36645,148.16319 392.06529,146.95351 C 395.72442,144.34798 397.76598,145.4614 395.43403,148.79073 C 393.8603,151.03754 390.58355,151.75322 389.54726,150.07647 z M 403,145.56976 C 403,144.14147 402.44877,142.0902 401.77504,141.01139 C 400.28687,138.62845 401.95295,136.38423 404.48799,137.35702 C 405.73136,137.83414 406.03911,139.07348 405.80521,142.66163 C 405.48157,147.62644 403,150.19906 403,145.56976 z M 265.66667,145.33333 C 264.42732,144.09399 264.98973,140.94117 266.55747,140.33957 C 267.46331,139.99197 267.86753,139.09717 267.5236,138.20091 C 266.93358,136.66334 268.50404,135.04432 270.61364,135.01531 C 271.2545,135.0065 271.72727,136.75302 271.72727,139.12928 C 271.72727,142.31684 271.30225,143.3697 269.86364,143.74591 C 268.83864,144.01395 268,144.63078 268,145.11663 C 268,146.157 266.61862,146.28529 265.66667,145.33333 z M 390.55271,139.50294 C 389.72956,134.01376 390.27617,133 394.05902,133 C 395.67656,133 397.00046,132.6625 397.00102,132.25 C 397.00158,131.8375 399.21996,130.25431 401.93076,128.73181 C 405.46377,126.74751 407.06602,126.29781 407.58885,127.14376 C 408.60447,128.78707 404.59821,131.79715 400.32962,132.59794 C 397.12501,133.19913 396.85201,133.51005 397.34859,135.99296 C 397.76947,138.09733 397.26198,139.33288 395.1429,141.36309 C 393.62911,142.81339 392.12878,144 391.80882,144 C 391.48887,144 390.92362,141.97632 390.55271,139.50294 z M 166.6875,141.35417 C 165.517,140.18367 165.92997,137.24085 167.34068,136.69951 C 169.67417,135.80407 171.65107,137.7007 170.42856,139.66201 C 169.18803,141.65224 167.67152,142.33818 166.6875,141.35417 z M 229,139.13486 C 229,138.65903 229.9,137.12555 231,135.72713 C 232.1,134.32871 233,132.08776 233,130.74726 C 233,127.39402 236.4541,124.30205 238.39791,125.91527 C 240.44496,127.61417 240.39695,136.3663 238.3449,135.57886 C 237.52627,135.26472 235.38379,136.13096 233.58384,137.50385 C 230.1193,140.14638 229,140.54465 229,139.13486 z M 318.55482,138.41196 C 316.902,136.75914 317.28921,135.00429 319.30902,134.99384 C 319.96406,134.99045 321.80445,134.3074 323.39878,133.47595 C 324.99311,132.64451 326.4967,132.16337 326.74009,132.40675 C 327.83825,133.50491 325.59221,137.15951 322.99314,138.50355 C 320.43828,139.82472 319.95766,139.8148 318.55482,138.41196 z M 364.5,136.13531 C 367.35412,133.30475 370.5,132.97165 370.5,135.5 C 370.5,137.1151 369.7302,137.55954 366.5,137.8094 C 362.50602,138.11834 362.50301,138.11582 364.5,136.13531 z M 158,135.04692 C 158,134.0896 159.95594,133.09952 169.84729,129.04992 C 175.08384,126.90603 178,126.88581 178,128.99337 C 178,129.57424 176.7625,130.50172 175.25,131.05442 C 173.7375,131.60713 171.825,132.35777 171,132.72252 C 170.175,133.08727 169.05,133.44494 168.5,133.51734 C 167.95,133.58974 165.7,134.17545 163.5,134.81891 C 158.63701,136.24126 158,136.26766 158,135.04692 z M 359.25,133.33772 C 357.47034,132.61961 357.70115,129.32866 359.58179,128.60699 C 360.45177,128.27314 362.44463,128 364.01036,128 C 365.57609,128 367.53214,127.325 368.35714,126.5 C 370.25819,124.59895 372,124.57184 372,126.4433 C 372,128.22488 368.19126,131 365.74611,131 C 364.75123,131 363.67821,131.675 363.36163,132.5 C 362.7811,134.01282 361.54648,134.26437 359.25,133.33772 z M 317.47293,131.9562 C 316.68249,130.67724 318.76191,128 320.54572,128 C 321.26118,128 323.25823,126.81215 324.98361,125.36034 C 327.14267,123.54361 328.44286,123.04286 329.15412,123.75412 C 331.1334,125.7334 329.47293,128.51329 325,130.70878 C 319.91467,133.20486 318.3998,133.45591 317.47293,131.9562 z M 440,131.4853 C 440,129.89713 445.5475,126.01017 447.82332,126.00374 C 450.36308,125.99656 448.44646,129.50695 444.98693,131.19875 C 440.62044,133.33406 440,133.36971 440,131.4853 z"
       id="path3360"
       sodipodi:nodetypes="csssssssssccsssssssssccsssccsssssscccssssssssssssssssscccssssscccccsssssssscccsssssssssssssssssssssssssccssssssssscccssssssssccsssssscccssssssccsssssssssssssssssscccsssssssssssssssssscccssccssssscccsssssssssscccssssssssssssssssccssssssssssscccccsssssssccsssssccsssssccssssccssssssssccssccsssccssssssccssssssssccssccsssssccssssccssccssssssccssssssccssssccssc" />
  </g>
</svg>
