<?xml version="1.0" encoding="UTF-8" standalone="no"?>
<svg
   xmlns:dc="http://purl.org/dc/elements/1.1/"
   xmlns:cc="http://creativecommons.org/ns#"
   xmlns:rdf="http://www.w3.org/1999/02/22-rdf-syntax-ns#"
   xmlns:svg="http://www.w3.org/2000/svg"
   xmlns="http://www.w3.org/2000/svg"
   xmlns:sodipodi="http://sodipodi.sourceforge.net/DTD/sodipodi-0.dtd"
   xmlns:inkscape="http://www.inkscape.org/namespaces/inkscape"
   version="1.1"
   width="900"
   height="600"
   id="Flag of Iraq"
   sodipodi:version="0.32"
   inkscape:version="0.48.1 "
   sodipodi:docname="Flag_of_Iraq,_1991-2004.svg"
   inkscape:output_extension="org.inkscape.output.svg.inkscape"
   sodipodi:modified="true">
  <metadata
     id="metadata11200">
    <rdf:RDF>
      <cc:Work
         rdf:about="">
        <dc:format>image/svg+xml</dc:format>
        <dc:type
           rdf:resource="http://purl.org/dc/dcmitype/StillImage" />
      </cc:Work>
    </rdf:RDF>
  </metadata>
  <defs
     id="defs11198" />
  <sodipodi:namedview
     inkscape:window-height="838"
     inkscape:window-width="1440"
     inkscape:pageshadow="2"
     inkscape:pageopacity="0.0"
     guidetolerance="10.0"
     gridtolerance="10.0"
     objecttolerance="10.0"
     borderopacity="1.0"
     bordercolor="#666666"
     pagecolor="#ffffff"
     id="base"
     inkscape:zoom="0.5"
     inkscape:cx="-54.87872"
     inkscape:cy="413.76603"
     inkscape:window-x="-8"
     inkscape:window-y="-8"
     inkscape:current-layer="Flag of Iraq"
     showgrid="false"
     inkscape:window-maximized="1" />
  <rect
     width="900"
     height="200"
     fill="#ce1126"
     id="rect11178" />
  <rect
     width="900"
     height="200"
     y="200"
     id="rect11180"
     fill="white" />
  <rect
     width="900"
     height="200"
     y="400"
     fill="black"
     id="rect11182" />
  <path
     style="fill:#007a3d;fill-opacity:1;fill-rule:evenodd;stroke-width:2.23462796000000010px;stroke-linecap:butt;stroke-linejoin:miter;stroke-opacity:1"
     d="M 562.65625 232.09375 C 561.73593 237.9774 561.45383 243.92916 560.53125 249.8125 C 560.67759 252.5483 559.39614 255.04904 558.78125 257.65625 C 558.32305 259.34207 557.79946 261.33962 558.6875 262.96875 C 559.2367 264.04137 560.511 263.58659 560.59375 262.46875 C 562.64222 258.6171 563.63851 254.35001 564.4375 250.09375 C 564.99221 247.78156 565.62115 245.47987 566.25 243.1875 C 567.02924 240.54083 568.07255 237.80201 567.65625 235 C 567.33009 233.50073 565.95119 232.39065 564.4375 232.28125 C 563.85282 232.16772 563.25448 232.06822 562.65625 232.09375 z M 566.125 270.21875 C 566.00911 270.24166 565.89013 270.29417 565.78125 270.34375 C 564.54162 271.62251 563.05526 272.9922 561.15625 272.96875 C 560.05034 272.77484 559.25191 271.86095 558.8125 270.875 C 557.92735 271.36793 557.78809 272.53873 557.0625 273.1875 C 555.96655 275.21194 554.99879 277.57262 555.5625 279.90625 C 556.14061 281.56189 558.24963 282.16252 559.78125 281.53125 C 561.72374 280.8349 563.04378 278.85004 565.15625 278.5625 C 566.48014 278.40974 567.37998 279.63686 567.84375 280.71875 C 568.29736 282.0162 569.52069 283.07702 570.9375 283.03125 C 572.07795 282.91107 573.12501 282.27795 574 281.5625 C 575.45935 280.28625 576.48399 278.43827 576.65625 276.5 C 576.58757 275.27096 575.33326 274.39573 574.15625 274.59375 C 572.50648 274.6878 571.09672 276.06189 569.40625 275.8125 C 568.21844 275.48127 567.82964 274.10096 567.875 273 C 567.86437 272.12846 568.10318 270.94605 567.1875 270.4375 C 566.98195 270.31961 566.73709 270.2354 566.5 270.21875 C 566.38146 270.21043 566.2409 270.19584 566.125 270.21875 z M 608.34375 271.96875 C 603.39339 271.99297 602.41804 275.59702 606.34375 278.90625 C 603.07524 282.19963 594.27537 275.96702 592.8125 281.625 C 597.91804 285.35109 605.08702 281.82452 610.78125 281.75 C 614.45418 279.85772 605.51601 274.57872 611.875 275.09375 C 614.44388 274.53816 624.27438 277.95759 621.84375 272.71875 C 617.90868 271.37446 613.4668 272.44092 609.375 272 C 609.00979 271.96869 608.67378 271.96713 608.34375 271.96875 z M 555.15625 285.53125 C 551.65429 286.74052 547.49897 289.46199 547.65625 293.625 C 548.17861 296.27501 550.54628 298.10311 551.34375 300.6875 C 553.11202 304.83676 550.98899 309.4261 548.5 312.78125 C 545.86575 316.12981 541.59579 318.51176 537.25 317.875 C 532.70648 315.72658 533.91493 309.89137 533.96875 305.8125 C 534.25178 302.46896 533.50657 296.67796 528.9375 297.28125 C 524.50919 297.99138 521.34378 301.58553 517.4375 303.5 C 513.30338 305.96583 508.75171 307.74042 504.78125 310.4375 C 500.8847 314.68735 503.19078 321.58294 507.3125 324.8125 C 511.30665 327.96332 516.94768 328.04335 521.6875 326.875 C 526.25017 326.18089 527.0136 319.30742 522 318.59375 C 518.8853 318.01296 514.30398 314.84748 517.4375 311.53125 C 521.16857 307.79852 529.14257 309.64363 529.78125 315.25 C 529.63373 320.61747 528.66547 325.97536 528.3125 331.34375 C 529.56427 335.22762 534.89018 335.33963 537.59375 332.96875 C 540.14296 329.74616 544.5752 328.89199 548.5 329.125 C 554.64791 329.52345 560.64389 332.15565 566.875 330.96875 C 570.39303 330.54317 573.53724 328.55731 575.4375 325.5625 C 577.99188 322.23688 580.42621 318.58514 580.4375 314.21875 C 580.86771 309.05659 580.31235 303.10535 584.15625 299.03125 C 587.1248 296.15664 586.52579 289.52073 581.65625 289.4375 C 577.69601 290.29022 575.71138 294.41577 574.15625 297.78125 C 572.56541 301.58475 572.68243 305.78197 572.40625 309.78125 C 570.65096 314.74831 563.69755 316.73228 559.5 313.625 C 556.46607 310.01635 560.02418 305.8083 561 302.15625 C 561.95699 297.66886 561.00518 292.9696 559.53125 288.71875 C 558.64654 287.09636 557.02722 285.7631 555.15625 285.53125 z M 603.9375 287.625 C 603.66366 287.63548 603.40363 287.66315 603.125 287.6875 C 596.64927 288.48924 600.84769 297.41436 600.0625 301.78125 C 600.1066 308.95789 600.28984 316.38522 597.75 323.21875 C 595.14546 326.94938 598.56187 332.31298 601.78125 327.3125 C 604.62177 321.60756 604.82507 314.94265 606.71875 308.875 C 608.02479 302.8243 609.57079 296.36391 608.0625 290.25 C 607.57703 287.93999 605.85476 287.55162 603.9375 287.625 z "
     id="path5700" />
  <path
     style="fill:#007a3d;fill-opacity:1;fill-rule:evenodd;stroke-width:2.23462796000000010px;stroke-linecap:butt;stroke-linejoin:miter;stroke-opacity:1"
     d="M 382 245.75 C 371.66975 253.67555 361.88371 262.27423 351.5 270.125 C 347.68091 273.71944 343.26074 276.63735 339.46875 280.25 C 337.20961 284.51388 341.78405 291.17625 345.3125 285.53125 C 357.15195 275.51781 368.79357 265.32464 380.71875 255.40625 C 384.4568 253.77408 388.82114 246.25886 382 245.75 z M 377.6875 273.03125 C 374.1932 273.28103 371.32463 276.31166 375.71875 278.6875 C 376.85954 282.90741 369.24343 280.15962 366.78125 280.25 C 361.10821 279.26666 361.99027 285.34761 367.03125 284.375 C 371.4929 284.04076 376.20524 283.64373 380.5625 282.875 C 383.72333 280.7218 375.38341 275.24553 382.28125 276.1875 C 385.01649 276.0759 395.0772 278.45338 391.15625 273.59375 C 387.26074 272.71835 383.12602 273.43818 379.15625 273.125 C 378.90432 273.08388 378.62749 273.04082 378.375 273.03125 C 378.13825 273.02228 377.92045 273.0146 377.6875 273.03125 z M 373.90625 288.6875 C 373.74273 288.68803 373.58271 288.7226 373.40625 288.75 C 371.16819 290.59789 372.17078 287.91651 370 290.625 C 368.9257 295.11865 369.87198 299.96696 369.59375 304.59375 C 369.66616 314.37346 369.70846 324.18656 369.75 333.9375 C 372.29737 339.54431 373.40515 329.29986 373.78125 327.03125 C 375.38822 320.75593 375.49766 314.19567 376.6875 307.8125 C 376.37846 302.69608 378.67706 297.43036 378.34375 292.65625 C 377.39439 291.56143 376.35883 288.67958 373.90625 288.6875 z M 338.21875 290.46875 C 334.73427 290.64614 334.62486 295.00491 333.125 297.34375 C 331.20274 301.54706 329.57772 305.92612 327.34375 309.96875 C 325.93462 312.55318 321.41783 315.0127 319.90625 311.15625 C 318.00239 307.42338 317.75903 302.51488 314.03125 299.9375 C 310.87463 297.73412 306.80957 300.01367 304.65625 302.59375 C 302.39479 305.22138 300.72241 308.27692 298.34375 310.8125 C 295.50219 313.85898 295.35082 318.80328 291.625 321.09375 C 287.97862 322.92423 285.35377 318.64202 282.15625 317.6875 C 278.74014 315.82442 277.37289 320.43327 277.90625 323 C 278.33648 327.75128 282.83221 330.98975 287.1875 331.96875 C 289.99805 332.90364 293.11097 335.27344 296.0625 333.4375 C 298.54225 331.97087 301.82804 330.35778 302.40625 327.28125 C 302.44052 324.07065 302.57889 320.85607 302.8125 317.65625 C 303.78067 314.50399 308.35725 312.9206 311.34375 313.625 C 313.40439 315.38832 314.0952 318.28237 315.75 320.40625 C 317.25886 322.52531 319.07408 324.91809 321.75 325.46875 C 324.69812 325.2273 326.75395 322.58759 329.0625 321 C 331.11154 319.28084 332.8375 317.07312 333.375 314.40625 C 335.67224 308.86332 339.0072 303.73143 340.5 297.875 C 341.23902 295.65078 340.21383 293.3911 339.9375 291.34375 C 339.69634 290.67387 338.8554 290.48016 338.21875 290.46875 z M 313.59375 329.96875 C 309.44714 329.82468 306.75302 338.12098 311.875 338.0625 C 315.4127 338.75118 319.42791 330.08171 314 330.03125 C 313.86346 330.00857 313.72751 329.97339 313.59375 329.96875 z "
     id="path5698" />
  <path
     style="fill:#009e60;fill-opacity:1;fill-rule:evenodd;stroke-width:2.23462796px;stroke-linecap:butt;stroke-linejoin:miter;stroke-opacity:1"
     d="M 563.03263,248.53676 C 562.40763,241.75307 562.82559,255.53111 563.03263,248.53676 z "
     id="path9697" />
  <g
     fill="#009e60"
     id="g2830">
    <g
       transform="scale(2)"
       id="g2837" />
  </g>
  <path
     style="fill:#007a3d;fill-opacity:1"
     d="M 226.90625,240 L 213.4375,281.46875 L 169.84375,281.46875 L 205.09375,307.09375 L 191.625,348.53125 L 226.90625,322.90625 L 262.15625,348.53125 L 248.6875,307.09375 L 283.96875,281.46875 L 240.375,281.46875 L 226.90625,240 z M 450,240 L 436.53125,281.46875 L 392.9375,281.46875 L 428.1875,307.09375 L 414.71875,348.53125 L 450,322.90625 L 485.25,348.53125 L 471.78125,307.09375 L 507.0625,281.46875 L 463.46875,281.46875 L 450,240 z M 673.09375,240 L 659.625,281.46875 L 616.03125,281.46875 L 651.28125,307.0625 L 637.8125,348.53125 L 673.09375,322.90625 L 708.375,348.53125 L 694.90625,307.0625 L 730.15625,281.46875 L 686.5625,281.46875 L 673.09375,240 z "
     id="path5679" />
</svg>
