<?xml version="1.0" encoding="UTF-8" standalone="no"?>
<svg xmlns:dc="http://purl.org/dc/elements/1.1/" xmlns:cc="http://creativecommons.org/ns#" xmlns:rdf="http://www.w3.org/1999/02/22-rdf-syntax-ns#" xmlns:svg="http://www.w3.org/2000/svg" xmlns="http://www.w3.org/2000/svg" xmlns:sodipodi="http://sodipodi.sourceforge.net/DTD/sodipodi-0.dtd" xmlns:inkscape="http://www.inkscape.org/namespaces/inkscape" version="1.0" baseProfile="full" preserveAspectRatio="xMidYMid meet" zoomAndPan="magnify" id="Government_Ensign_of_the_United_Kingdom" viewBox="-15 -7.5 30 15" width="600" height="300" sodipodi:version="0.32" inkscape:version="0.46" sodipodi:docname="Missing_Blue_Ensign.svg" inkscape:output_extension="org.inkscape.output.svg.inkscape" sodipodi:docbase="C:\Documents and Settings\Brendan!\Desktop">
  <metadata id="metadata21">
    <rdf:RDF>
      <cc:Work rdf:about="">
        <dc:format>image/svg+xml</dc:format>
        <dc:type rdf:resource="http://purl.org/dc/dcmitype/StillImage"/>
      </cc:Work>
    </rdf:RDF>
  </metadata>
  <sodipodi:namedview inkscape:window-height="750" inkscape:window-width="1280" inkscape:pageshadow="2" inkscape:pageopacity="0.0" guidetolerance="10.0" gridtolerance="10.0" objecttolerance="10.0" borderopacity="1.0" bordercolor="#666666" pagecolor="#ffffff" id="base" width="600px" height="300px" inkscape:zoom="1" inkscape:cx="365.94298" inkscape:cy="125" inkscape:window-x="-8" inkscape:window-y="-8" inkscape:current-layer="Government_Ensign_of_the_United_Kingdom" showgrid="false"/>
  <defs id="defs3">
    <inkscape:perspective sodipodi:type="inkscape:persp3d" inkscape:vp_x="0 : 150 : 1" inkscape:vp_y="0 : 1000 : 0" inkscape:vp_z="600 : 150 : 1" inkscape:persp3d-origin="300 : 100 : 1" id="perspective21"/>
    <clipPath id="border">
      <rect x="-15" y="-7.5" width="30" height="15" id="rect6"/>
    </clipPath>
    <inkscape:perspective id="perspective2401" inkscape:persp3d-origin="372.04724 : 350.78739 : 1" inkscape:vp_z="744.09448 : 526.18109 : 1" inkscape:vp_y="0 : 1000 : 0" inkscape:vp_x="0 : 526.18109 : 1" sodipodi:type="inkscape:persp3d"/>
    <inkscape:perspective id="perspective2600" inkscape:persp3d-origin="300 : 100 : 1" inkscape:vp_z="600 : 150 : 1" inkscape:vp_y="0 : 1000 : 0" inkscape:vp_x="0 : 150 : 1" sodipodi:type="inkscape:persp3d"/>
  </defs>
  <rect x="-15" y="-7.5" width="30" height="15" id="rect8" style="fill: rgb(0, 36, 125);"/>
  <path sodipodi:type="arc" style="opacity: 1; fill: rgb(252, 209, 22); fill-opacity: 1; stroke: none; stroke-width: 10; stroke-linecap: butt; stroke-linejoin: bevel; stroke-miterlimit: 4; stroke-dasharray: none; stroke-opacity: 1;" id="path2626" sodipodi:cx="5.2249999" sodipodi:cy="-0.47499999" sodipodi:rx="3.875" sodipodi:ry="3.7750001" d="M 9.0999999,-0.47499999 A 3.875,3.7750001 0 1 1 1.3499999,-0.47499999 A 3.875,3.7750001 0 1 1 9.0999999,-0.47499999 z" transform="matrix(0.967742, 0, 0, 0.993378, 2.44355, 0.471854)"/>
<!--The above line is the ensign field color: #CF142B red and #00247D blue-->  <g id="canton" transform="matrix(0.5, 0, 0, 0.5, -7.5, -3.75)">
    <g clip-path="url(#border)" id="g11">
      <circle r="20" id="circle13" cx="0" cy="0" sodipodi:cx="0" sodipodi:cy="0" sodipodi:rx="20" sodipodi:ry="20" style="fill: rgb(0, 36, 125);"/>
      <path d="M -20,-10 L 20,10 M -20,10 L 20,-10" id="diags_white" style="stroke: rgb(255, 255, 255); stroke-width: 3;"/>
      <path d="M -20,-10 L 20,10 M -20,10 L 20,-10" id="diags_red" style="stroke: rgb(207, 20, 43); stroke-width: 2;"/>
      <path d="M 0,0 L 20,10 L 17,10 L -3,0 M 0,0 L 20,-10 L 23,-10 L 3,0 M 0,0 L -20,10 L -23,10 L -3,0 M 0,0 L -20,-10 L -17,-10 L 3,0" id="eraser_white" style="fill: rgb(255, 255, 255); stroke: none;"/>
<!--I think the above two lines give the simplest way to make the diagonals-->      <path d="M -20,0 L 20,0 M 0,-10 L 0,10" id="cross_white" style="stroke: rgb(255, 255, 255); stroke-width: 5;"/>
      <path d="M -20,0 L 20,0 M 0,-10 L 0,10" id="cross_red" style="stroke: rgb(207, 20, 43); stroke-width: 3;"/>
    </g>
  </g>
  <path id="path2176" d="M 9.1793657,2.2356236 C 9.166478,2.2020146 9.165197,2.1453067 9.1765186,2.1096083 C 9.1979711,2.041967 9.1427701,2.0187555 9.1051869,2.0796147 C 9.0695561,2.137309 9.0314608,2.1195567 8.9885247,2.0252497 C 8.9107065,1.8543281 9.0543758,1.7304875 9.3304845,1.7304875 C 9.4710601,1.7304875 9.5063766,1.6919318 9.5063766,1.5384589 C 9.5063766,1.4686751 9.4723278,1.4456698 9.2708955,1.3793559 C 8.9772139,1.2826718 8.7245405,1.1577847 8.5595457,1.027763 C 8.4398442,0.93343523 8.4268755,0.93061581 8.3341324,0.97876866 C 8.28001,1.0068698 8.1997993,1.0208366 8.155887,1.009807 C 8.0579351,0.98520347 8.0558745,1.0105612 8.1455796,1.1366365 C 8.1838223,1.1903846 8.2191451,1.2711474 8.2240737,1.3161088 C 8.2322377,1.3905912 8.2159805,1.3999745 8.0411608,1.421682 C 7.4807762,1.4912652 7.3324546,1.5201383 7.2768951,1.570457 C 7.1835222,1.6550225 7.1579883,1.6374132 7.1797127,1.5034363 C 7.1984958,1.3876028 7.1950208,1.3822601 7.1141114,1.402582 C 7.0418091,1.4207424 7.0322327,1.4140526 7.0518156,1.3590606 C 7.0645427,1.3233212 7.0967452,1.2685823 7.1233768,1.2374194 C 7.1657495,1.187836 7.1618193,1.1779528 7.0919096,1.1582928 C 7.0127851,1.1360399 7.0126877,1.135316 7.0817931,1.0825139 C 7.214096,0.9814242 7.3124126,0.98139763 7.5051777,1.0824 C 7.684467,1.1763419 7.7620721,1.1780199 7.7620721,1.0879547 C 7.7620721,1.0632608 7.7294251,1.0134894 7.6895227,0.97735136 C 7.6379775,0.93066706 7.6223286,0.88485339 7.6354686,0.81910258 C 7.6531674,0.73054142 7.6461554,0.72556947 7.472537,0.70357408 C 7.3727522,0.69093225 7.1950733,0.64914713 7.0776953,0.61071736 L 6.8642814,0.54084498 L 6.6067331,0.62616469 C 6.4650821,0.67309006 6.1372524,0.7385631 5.8782233,0.77166028 C 5.6119921,0.80567743 5.3833193,0.85262874 5.3521853,0.87966695 C 5.3218929,0.90597373 5.2865707,0.92749648 5.2736912,0.92749648 C 5.236715,0.92749648 5.2464356,0.79434091 5.2851595,0.7703904 C 5.3522821,0.72887419 5.3222426,0.67947488 5.2525668,0.71679359 C 5.15527,0.76890476 5.1351339,0.7619005 5.1557234,0.68310861 C 5.178223,0.59700559 5.1173137,0.59174639 5.0546342,0.67438081 C 5.0133395,0.72882105 5.0081687,0.7218035 5.0071804,0.60996631 C 5.0056605,0.43808549 5.0993052,0.36102663 5.3332998,0.34160769 C 5.4942253,0.32825151 5.5270822,0.33637822 5.5720726,0.40065921 C 5.6378705,0.49467066 5.7165689,0.46977106 5.8695017,0.30655729 C 5.9318607,0.24000608 5.9828811,0.18054898 5.9828811,0.1744299 C 5.9828811,0.16831146 5.9278432,0.10351606 5.8605746,0.030439566 C 5.7933059,-0.042636295 5.6637908,-0.21116052 5.5727643,-0.34405793 C 5.3524914,-0.66565272 5.1773289,-0.83797139 5.0434631,-0.86476473 C 4.9633902,-0.88079164 4.9208657,-0.91667533 4.8873164,-0.99652704 C 4.8595683,-1.0625702 4.83154,-1.0906049 4.816923,-1.0669372 C 4.779697,-1.0066582 4.7371081,-1.0200005 4.716633,-1.0983558 C 4.7048916,-1.1432912 4.730258,-1.2072907 4.786164,-1.2737824 C 4.8771892,-1.3820415 4.8979551,-1.3844807 5.2026523,-1.3226996 C 5.2436157,-1.3143932 5.3375253,-1.2283446 5.4113393,-1.1314789 C 5.4851533,-1.0346139 5.6338929,-0.88589899 5.7418714,-0.80100194 L 5.9381943,-0.64664441 L 5.9855835,-0.74111711 C 6.0647156,-0.89887616 6.0654326,-0.90770899 5.9939529,-0.84431888 C 5.9560612,-0.81071552 5.9145199,-0.78322175 5.901641,-0.78322175 C 5.8575466,-0.78322175 5.8782069,-0.90807787 5.9435142,-1.0362703 C 5.9819548,-1.1117272 5.9942507,-1.1692873 5.9734134,-1.1762378 C 5.9516238,-1.1835059 5.9589842,-1.2343687 5.9925638,-1.3085753 C 6.0225616,-1.3748671 6.0575234,-1.4652821 6.0702568,-1.5094969 C 6.0881124,-1.5715026 6.1039939,-1.581096 6.1396968,-1.5514427 C 6.173442,-1.5234156 6.1925223,-1.5235807 6.2101047,-1.5520514 C 6.2569862,-1.627965 6.3809373,-1.6512486 6.462565,-1.5994753 C 6.5548813,-1.540923 6.5650692,-1.5716197 6.4833226,-1.662017 C 6.4293078,-1.721748 6.4298699,-1.7258494 6.4920443,-1.7256482 C 6.5285963,-1.7255298 6.5991098,-1.704226 6.6487423,-1.6783077 C 6.7245505,-1.6387182 6.7493295,-1.638753 6.8036756,-1.6785222 C 6.8738243,-1.7298551 7.0294639,-1.7432354 7.0294639,-1.6979329 C 7.0294639,-1.6825717 7.0098406,-1.6492271 6.9858564,-1.623834 C 6.9498741,-1.5857389 6.9559199,-1.5847031 7.0204274,-1.617911 C 7.0821687,-1.6496953 7.1203128,-1.6469233 7.2018469,-1.6047288 C 7.3322434,-1.5372469 7.3430187,-1.5378221 7.3453448,-1.6123968 C 7.3463931,-1.6460008 7.3868425,-1.5660321 7.4352326,-1.4346905 C 7.5212704,-1.201164 7.5232273,-1.1130211 7.4405387,-1.1957726 C 7.3901126,-1.2462374 7.3434391,-1.2493143 7.3434391,-1.2021738 C 7.3434391,-1.1829719 7.3662543,-1.1672607 7.3941396,-1.1672607 C 7.4220249,-1.1672607 7.473046,-1.1296991 7.5075196,-1.0837886 L 7.5701986,-1.0003164 L 7.7164021,-1.1349747 C 7.8811939,-1.2867526 7.9880141,-1.3246604 8.1599525,-1.2923801 C 8.3340344,-1.2596973 8.4597938,-1.1475849 8.4597938,-1.0250768 C 8.4597938,-0.95866924 8.4776639,-0.92287286 8.5108142,-0.92287286 C 8.6369018,-0.92287286 8.9558815,-0.76785478 9.0935909,-0.63965534 C 9.2220185,-0.52009639 9.2316247,-0.502494 9.1575155,-0.52251656 C 9.1095471,-0.53547728 8.8732826,-0.55623317 8.6324828,-0.56864216 C 8.1483856,-0.59358732 8.02844,-0.63856009 7.9596634,-0.82091061 C 7.9158117,-0.93717433 7.8432553,-0.97581291 7.7750933,-0.91920053 C 7.6946922,-0.85242218 7.720761,-0.76335421 7.8639138,-0.6157333 C 7.9833498,-0.49256845 8.0263674,-0.47181256 8.2040533,-0.45161663 C 8.6894213,-0.39644814 9.0663903,-0.32384302 9.1858832,-0.26251495 C 9.5092427,-0.096555163 9.5741859,0.13262075 9.374761,0.40400316 C 9.2549981,0.56697902 9.2374082,0.67976023 9.2978109,0.89738639 C 9.3339456,1.0275764 9.3960359,1.0654 9.5761491,1.0669401 C 9.6416303,1.0674994 9.6847301,1.1045935 9.7491036,1.2157954 C 9.8654149,1.4167158 9.8841992,1.8397337 9.782553,1.969055 C 9.7457804,2.0158392 9.7156934,2.0834205 9.7156934,2.1192352 C 9.7156934,2.1550493 9.7031345,2.1843521 9.687784,2.1843521 C 9.6379877,2.1843521 9.5761491,2.1021972 9.5761491,2.0360415 C 9.5761491,1.9796658 9.556496,1.985054 9.4204551,2.0787238 C 9.3348238,2.1376842 9.2508194,2.2108563 9.2337795,2.2413283 C 9.2060529,2.2909111 9.2003352,2.2903119 9.1793657,2.2356236 z M 9.2621739,0.075754016 C 9.2621739,0.048940425 9.2099344,-0.018900275 9.1460858,-0.075002675 C 9.0181507,-0.18741564 8.6884906,-0.27217602 8.2155911,-0.31424586 L 7.9539457,-0.33752126 L 7.7031224,-0.59528428 C 7.449823,-0.85559276 7.3455674,-0.93266491 7.4826269,-0.75828988 C 7.5387049,-0.68694326 7.5546604,-0.62440668 7.5472071,-0.50517295 C 7.5373872,-0.34807446 7.5386834,-0.34606746 7.7101078,-0.25301523 C 7.9283814,-0.13453254 8.2265427,-0.059260494 8.6528193,-0.015024206 C 8.8367015,0.0040574935 9.0294071,0.042629633 9.0810547,0.070690323 C 9.2008499,0.13577804 9.2621739,0.13749272 9.2621739,0.075754016 z" style="fill: rgb(238, 0, 0);"/>
  <path id="path2174" d="M 9.1756112,2.2258341 C 9.1647885,2.1976089 9.165197,2.1453067 9.1765186,2.1096083 C 9.1997029,2.036504 9.1809843,2.029675 9.0904017,2.0781898 C 9.0404397,2.1049496 9.019837,2.094025 8.9878766,2.0238261 C 8.9107197,1.8543579 9.0553956,1.7304875 9.3304845,1.7304875 C 9.4710601,1.7304875 9.5063766,1.6919318 9.5063766,1.5384589 C 9.5063766,1.4686751 9.4723278,1.4456698 9.2708955,1.3793559 C 8.9772139,1.2826718 8.7245405,1.1577847 8.5595457,1.027763 C 8.4398442,0.93343523 8.4268755,0.93061581 8.3341324,0.97876866 C 8.28001,1.0068698 8.1997993,1.0208366 8.155887,1.009807 C 8.0579351,0.98520347 8.0558745,1.0105612 8.1455796,1.1366365 C 8.1838223,1.1903846 8.2191451,1.2711474 8.2240737,1.3161088 C 8.2322377,1.3905912 8.2159805,1.3999745 8.0411608,1.421682 C 7.4807762,1.4912652 7.3324546,1.5201383 7.2768951,1.570457 C 7.1835222,1.6550225 7.1579883,1.6374132 7.1797127,1.5034363 C 7.1984958,1.3876028 7.1950208,1.3822601 7.1141114,1.402582 C 7.0418091,1.4207424 7.0322327,1.4140526 7.0518156,1.3590606 C 7.0645427,1.3233212 7.0967452,1.2685823 7.1233768,1.2374194 C 7.1657495,1.187836 7.1618193,1.1779528 7.0919096,1.1582928 C 7.0127851,1.1360399 7.0126877,1.135316 7.0817931,1.0825139 C 7.214096,0.9814242 7.3124126,0.98139763 7.5051777,1.0824 C 7.684467,1.1763419 7.7620721,1.1780199 7.7620721,1.0879547 C 7.7620721,1.0632608 7.7306745,1.0146214 7.6922997,0.9798658 C 7.6157005,0.91049201 7.6021659,0.82218901 7.6593593,0.76495213 C 7.6852106,0.7390813 7.6358094,0.72117141 7.49365,0.70487686 C 7.3822528,0.69210912 7.1950733,0.6499779 7.0776953,0.61125328 L 6.8642814,0.54084498 L 6.6067331,0.62616469 C 6.4650821,0.67309006 6.1372524,0.7385631 5.8782233,0.77166028 C 5.6119921,0.80567743 5.3833193,0.85262874 5.3521853,0.87966695 C 5.3218929,0.90597373 5.2865707,0.92749648 5.2736912,0.92749648 C 5.23444,0.92749648 5.2475984,0.80448855 5.2915556,0.76049839 C 5.31426,0.73777599 5.321848,0.70818727 5.3084172,0.69474631 C 5.2949857,0.68130471 5.2654198,0.68889804 5.2427153,0.71162043 C 5.1792858,0.77509787 5.1354418,0.76072743 5.1557234,0.68310861 C 5.178223,0.59700559 5.1173137,0.59174639 5.0546342,0.67438081 C 5.0133395,0.72882105 5.0081687,0.7218035 5.0071804,0.60996631 C 5.0056864,0.4409125 5.0930754,0.36927672 5.330748,0.34472828 C 5.5009944,0.32714361 5.52841,0.33340378 5.5694992,0.39924761 C 5.5950299,0.44015956 5.636312,0.47363321 5.661237,0.47363321 C 5.7033145,0.47363321 5.9828811,0.21314694 5.9828811,0.17394144 C 5.9828811,0.16427784 5.9419437,0.11385288 5.8919096,0.061885332 C 5.841875,0.0099184187 5.7091896,-0.15828564 5.5970513,-0.31190098 C 5.2634281,-0.76892851 5.2193033,-0.81438849 5.0703494,-0.85452725 C 4.9653711,-0.88281699 4.920179,-0.91831029 4.8862181,-0.99914145 C 4.8590454,-1.0638147 4.8315862,-1.0906796 4.816923,-1.0669372 C 4.779697,-1.0066582 4.7371081,-1.0200005 4.716633,-1.0983558 C 4.7048916,-1.1432912 4.730258,-1.2072907 4.786164,-1.2737824 C 4.8771892,-1.3820415 4.8979551,-1.3844807 5.2026523,-1.3226996 C 5.2436157,-1.3143932 5.3375253,-1.2283446 5.4113393,-1.1314789 C 5.4851533,-1.0346139 5.6338929,-0.88589899 5.7418714,-0.80100194 L 5.9381943,-0.64664441 L 5.9855835,-0.74111711 C 6.0647156,-0.89887616 6.0654326,-0.90770899 5.9939529,-0.84431888 C 5.9560612,-0.81071552 5.9145199,-0.78322175 5.901641,-0.78322175 C 5.8575466,-0.78322175 5.8782069,-0.90807787 5.9435142,-1.0362703 C 5.9819548,-1.1117272 5.9942507,-1.1692873 5.9734134,-1.1762378 C 5.9516238,-1.1835059 5.9589842,-1.2343687 5.9925638,-1.3085753 C 6.0225616,-1.3748671 6.0575234,-1.4652821 6.0702568,-1.5094969 C 6.0881124,-1.5715026 6.1039939,-1.581096 6.1396968,-1.5514427 C 6.173442,-1.5234156 6.1925223,-1.5235807 6.2101047,-1.5520514 C 6.2569862,-1.627965 6.3809373,-1.6512486 6.462565,-1.5994753 C 6.5057369,-1.5720936 6.5410591,-1.5646116 6.5410591,-1.582848 C 6.5410591,-1.6010844 6.5606825,-1.6227583 6.5846666,-1.6310103 C 6.6086508,-1.6392642 6.6013784,-1.6420374 6.5685063,-1.637175 C 6.5356335,-1.6323125 6.4905401,-1.650278 6.4682978,-1.6770986 C 6.4138518,-1.7427513 6.5239269,-1.7434885 6.6487423,-1.6783077 C 6.7245505,-1.6387182 6.7493295,-1.638753 6.8036756,-1.6785222 C 6.8738243,-1.7298551 7.0294639,-1.7432354 7.0294639,-1.6979329 C 7.0294639,-1.6825717 7.0098406,-1.6492271 6.9858564,-1.623834 C 6.9498741,-1.5857389 6.9559199,-1.5847031 7.0204274,-1.617911 C 7.0821687,-1.6496953 7.1203128,-1.6469233 7.2018469,-1.6047288 C 7.3322434,-1.5372469 7.3430187,-1.5378221 7.3453448,-1.6123968 C 7.3463931,-1.6460008 7.3868425,-1.5660321 7.4352326,-1.4346905 C 7.5212704,-1.201164 7.5232273,-1.1130211 7.4405387,-1.1957726 C 7.3901126,-1.2462374 7.3434391,-1.2493143 7.3434391,-1.2021738 C 7.3434391,-1.1829719 7.3662543,-1.1672607 7.3941396,-1.1672607 C 7.4220249,-1.1672607 7.473046,-1.1296991 7.5075196,-1.0837886 L 7.5701986,-1.0003164 L 7.7164021,-1.1349747 C 7.7968145,-1.2090364 7.9028842,-1.2797496 7.9521133,-1.292115 C 8.1744127,-1.3479503 8.4597938,-1.2024934 8.4597938,-1.0333522 C 8.4597938,-0.94994334 8.4803062,-0.93357983 8.6429457,-0.88724099 C 8.7436796,-0.85854062 8.8263385,-0.81946736 8.8266319,-0.80041224 C 8.8269259,-0.78135711 8.8405945,-0.74455976 8.8570065,-0.71864211 C 8.8812278,-0.68039203 8.8729152,-0.67897979 8.8128647,-0.7111418 C 8.7611367,-0.7388469 8.7388825,-0.73943407 8.7388825,-0.71309438 C 8.7388825,-0.69237519 8.7192591,-0.67919871 8.6952749,-0.68381254 C 8.6712907,-0.68842636 8.5784218,-0.68049516 8.4888988,-0.66618863 C 8.3721968,-0.64753782 8.288272,-0.65542409 8.1923669,-0.69405381 L 8.0586041,-0.74793155 L 8.1409621,-0.67829518 C 8.2109678,-0.61910382 8.2744138,-0.60865944 8.5639559,-0.60865944 C 8.7513055,-0.60865944 8.9575747,-0.59912302 9.0223319,-0.58746761 L 9.1400728,-0.56627704 L 9.0091085,-0.66296997 C 8.9370775,-0.71615171 8.885153,-0.76667791 8.8937197,-0.77525069 C 8.914502,-0.7960496 9.0877613,-0.67085624 9.1749587,-0.57203293 L 9.2447312,-0.49295947 L 9.1575155,-0.51951997 C 9.1095471,-0.53412831 8.8732826,-0.55623317 8.6324828,-0.56864216 C 8.1483856,-0.59358732 8.02844,-0.63856009 7.9596634,-0.82091061 C 7.9158117,-0.93717433 7.8432553,-0.97581291 7.7750933,-0.91920053 C 7.6946486,-0.85238548 7.7207831,-0.76333143 7.8642571,-0.61537897 C 7.9757713,-0.50038386 8.0326864,-0.47015293 8.1695107,-0.45324274 C 8.7576396,-0.3805541 9.0695056,-0.32223464 9.1838384,-0.26355895 C 9.509311,-0.096527323 9.5746626,0.13197284 9.374761,0.40400316 C 9.2549981,0.56697902 9.2374082,0.67976023 9.2978109,0.89738639 C 9.3339456,1.0275764 9.3960359,1.0654 9.5761491,1.0669401 C 9.6416303,1.0674994 9.6847301,1.1045935 9.7491036,1.2157954 C 9.8654149,1.4167158 9.8841992,1.8397337 9.782553,1.969055 C 9.7457804,2.0158392 9.7156934,2.0834205 9.7156934,2.1192352 C 9.7156934,2.1550493 9.7031345,2.1843521 9.687784,2.1843521 C 9.6381199,2.1843521 9.5761491,2.1022713 9.5761491,2.0364907 C 9.5761491,1.9550351 9.495203,1.9940824 9.3186805,2.1606913 C 9.223481,2.2505445 9.1907935,2.2654287 9.1756112,2.2258341 z M 9.420837,2.0276788 L 9.611035,1.9059186 L 9.611035,2.0102225 C 9.611035,2.1446442 9.6463907,2.1419115 9.7324418,2.0008399 C 9.8402768,1.8240554 9.8365084,1.4434332 9.7250126,1.250439 C 9.6627073,1.142593 9.6169923,1.1020601 9.5576619,1.1020601 C 9.3933222,1.1020601 9.30262,1.0404719 9.2644671,0.90297462 C 9.2027632,0.68060429 9.2183336,0.52455233 9.3135224,0.4113415 C 9.4597398,0.23743975 9.4830335,0.13357489 9.408187,-0.010759644 C 9.2903722,-0.23795702 9.1182972,-0.29383164 8.146626,-0.42040498 C 7.8678238,-0.45672272 7.5932603,-0.80979174 7.7341634,-0.95080258 C 7.7990547,-1.0157435 7.8922177,-1.000474 7.9519673,-0.91510364 C 7.9999938,-0.84648469 8.0062749,-0.84496046 8.0062749,-0.90192273 C 8.0062749,-0.9483881 8.0184247,-0.95682169 8.0498824,-0.93218973 C 8.0738666,-0.91340984 8.1310732,-0.88879939 8.1770088,-0.87749957 C 8.2931431,-0.8489308 8.2225132,-0.91517261 8.0518893,-0.99484589 L 7.9190598,-1.0568712 L 8.0351226,-1.0596963 C 8.1198971,-1.0617609 8.1794001,-1.0342874 8.2558444,-0.95778533 C 8.3374525,-0.87611517 8.3887245,-0.8541995 8.4886421,-0.85827804 C 8.5939802,-0.86257867 8.5997099,-0.86609725 8.5208446,-0.87805384 C 8.4412908,-0.89011356 8.4249079,-0.91008804 8.4249079,-0.99501672 C 8.4249079,-1.2263445 8.1328126,-1.3379938 7.8794792,-1.2034981 C 7.6941162,-1.1050886 7.6286185,-1.0336351 7.604145,-0.90312554 C 7.5794621,-0.77149864 7.6779419,-0.60988376 7.8658283,-0.47367594 C 7.9832214,-0.38857198 8.054842,-0.367296 8.2943375,-0.34638129 C 8.7497886,-0.30660888 9.0879219,-0.20898015 9.2011237,-0.084568201 C 9.372672,0.10397036 9.3051188,0.20298791 9.0715687,0.10533008 C 8.997546,0.074378473 8.786443,0.033987251 8.6024515,0.015572443 C 8.2109476,-0.023610275 7.7573446,-0.15214506 7.5760402,-0.27527637 C 7.4503131,-0.36066125 7.4480969,-0.36089536 7.4480969,-0.28878567 C 7.4480969,-0.20493704 7.3189959,0.019768671 7.2708214,0.019768671 C 7.2531992,0.019768671 7.2369756,-0.031291548 7.2347689,-0.093697147 L 7.2307571,-0.2071636 L 7.2053927,-0.076355439 C 7.1815659,0.046525949 7.0847712,0.19433161 7.028126,0.19433161 C 7.0141502,0.19433161 6.9935967,0.15943307 6.9824503,0.11677923 L 6.9621858,0.039226841 L 6.8630933,0.13423609 C 6.737817,0.25434931 6.7070137,0.25327811 6.5992103,0.12506475 L 6.5116152,0.020884796 L 6.47956,0.11633569 L 6.4475047,0.21178784 L 6.3660471,0.12074261 L 6.2845895,0.029698013 L 6.0819926,0.1838904 C 5.970565,0.26869697 5.8673583,0.35843372 5.8526452,0.38330548 C 5.8199273,0.43861318 5.6916628,0.50854567 5.6229393,0.50854567 C 5.5951349,0.50854567 5.5641754,0.47712395 5.5541399,0.43872011 C 5.5439432,0.39969684 5.5065547,0.36889519 5.4693831,0.36889519 C 5.3885457,0.36889519 5.215387,0.54224583 5.215387,0.62317317 C 5.215387,0.67286354 5.2284656,0.67564879 5.3027501,0.6417759 C 5.4234658,0.58673268 5.4466894,0.62666771 5.358909,0.73834734 C 5.2683674,0.8535405 5.2617766,0.92458405 5.3489569,0.84562638 C 5.3840458,0.81384717 5.461613,0.78784663 5.5213285,0.78784663 C 5.5810446,0.78784663 5.6396049,0.77213545 5.6514633,0.75293417 C 5.6633223,0.73373225 5.6563994,0.71802107 5.6360793,0.71802107 C 5.6157598,0.71802107 5.5991341,0.7010628 5.5991341,0.68033475 C 5.5991341,0.65651141 5.6381576,0.65122563 5.7052214,0.66596621 C 5.7635699,0.6787909 5.8302891,0.67376201 5.8534874,0.65478977 C 5.8766856,0.6358169 5.9918007,0.57158463 6.1092987,0.51205096 C 6.27904,0.42604601 6.3668394,0.40380765 6.5366534,0.40380765 C 6.6542001,0.40380765 6.7503753,0.41804142 6.7503753,0.4354388 C 6.7503753,0.48106519 6.4457938,0.57821051 6.2993633,0.57928678 C 6.2308288,0.57978979 6.11196,0.60993974 6.0352103,0.64628596 L 5.8956666,0.71236895 L 6.0177677,0.71338637 C 6.0849232,0.71394506 6.2811575,0.67471299 6.453844,0.62620329 C 6.8441326,0.51656545 6.8798221,0.51563661 7.2126398,0.60646988 C 7.3637055,0.6476982 7.6600687,0.69085632 7.8841972,0.70426628 L 8.2853635,0.72826868 L 8.2897301,0.57476596 L 8.2940966,0.42126388 L 8.3178057,0.56091436 C 8.3308452,0.63772203 8.3594545,0.73334123 8.3813812,0.77340153 C 8.4947259,0.98048208 8.9173226,1.2402369 9.340668,1.3630405 C 9.5207318,1.4152731 9.5412138,1.4308021 9.5407864,1.5147608 C 9.5397109,1.7259161 9.5092756,1.7654 9.3475914,1.7654 C 9.1837227,1.7654 9.0179711,1.8151992 9.0179711,1.8644327 C 9.0179711,1.8814473 9.0611431,1.8875613 9.1139079,1.8780205 L 9.2098447,1.8606725 L 9.1120711,1.9392106 C 8.9850952,2.0412058 9.0074507,2.0576364 9.18696,1.9942538 C 9.2667029,1.9660976 9.3319463,1.9580747 9.3319463,1.9764243 C 9.3319463,1.9947752 9.3167995,2.0097891 9.2982877,2.0097891 C 9.2797752,2.0097891 9.2478256,2.0412102 9.2272879,2.0796147 C 9.1762277,2.175094 9.2009125,2.1684707 9.420837,2.0276788 z M 9.6728655,1.8298645 C 9.6606707,1.7981131 9.6591457,1.7397892 9.6694764,1.7002547 C 9.6798066,1.6607196 9.6630342,1.5542865 9.6322043,1.4637354 C 9.5598875,1.2513381 9.5603497,1.2495981 9.6633642,1.3464486 C 9.7537376,1.4314152 9.7746976,1.6013909 9.7193309,1.8003131 C 9.6998144,1.8704341 9.6906786,1.8762438 9.6728655,1.8298645 z M 9.1400728,1.1760002 C 8.5690508,1.0103112 8.3414826,0.73534886 8.4620757,0.35679877 L 8.5082712,0.21178784 L 8.5297781,0.38243992 C 8.5575743,0.60300002 8.6502074,0.68310861 8.8774544,0.68310861 C 9.0365879,0.68310861 9.0425003,0.68667528 9.0260567,0.77276122 C 9.0119974,0.84636477 9.0439571,0.89636518 9.2045841,1.0520628 C 9.3121927,1.1563693 9.3887957,1.2405912 9.3748129,1.2392233 C 9.3608301,1.2378553 9.2551967,1.2094049 9.1400728,1.1760002 z M 7.9016165,0.59567244 C 7.7768984,0.57229707 7.5782456,0.56097257 7.4601652,0.5705071 C 7.1853906,0.59269357 6.9248062,0.48454707 6.9248062,0.34832406 C 6.9248062,0.2786048 6.9422804,0.26415717 7.0266111,0.26415717 C 7.1663375,0.26415717 7.2387807,0.23166551 7.2387807,0.1689967 C 7.2387807,0.12876809 7.2657392,0.13672713 7.3521608,0.20246971 C 7.5350117,0.34156972 7.6664351,0.39725642 7.9134698,0.44030825 C 8.1241466,0.47702398 8.1458192,0.48860726 8.1458192,0.56449811 C 8.1458192,0.61053134 8.1418947,0.64594049 8.1370976,0.64318497 C 8.1323005,0.64042819 8.0263345,0.61904844 7.9016165,0.59567244 z M 8.2536523,-1.0412385 C 8.2273596,-1.072943 8.1547976,-1.0974358 8.0871596,-1.0974358 C 8.0161169,-1.0974358 7.9760552,-1.1116601 7.9888316,-1.1323483 C 8.0506374,-1.2324282 8.3497111,-1.1335175 8.3135511,-1.024956 C 8.3048643,-0.99887634 8.2841028,-1.0045196 8.2536523,-1.0412385 z M 7.7620721,1.4181875 C 8.2594724,1.3614739 8.2386338,1.3744757 8.1298491,1.1887085 C 8.0791379,1.10211 8.0472136,1.0157666 8.0589057,0.99683357 C 8.0705978,0.97790056 8.1411068,0.96240957 8.2155911,0.96240957 C 8.2900759,0.96240957 8.3582917,0.95062635 8.3671815,0.93622554 C 8.3865002,0.904931 7.9852352,0.90200275 7.9540513,0.93321061 C 7.9421512,0.94511912 7.9570894,1.0139602 7.9872458,1.0861907 C 8.017403,1.1584212 8.0379463,1.2211312 8.0328976,1.2255451 C 7.9986427,1.2554976 7.8667305,1.1617544 7.8667305,1.1074597 C 7.8667305,1.0707883 7.8426825,1.0208113 7.8132898,0.99639889 C 7.7666068,0.95762681 7.764079,0.9631467 7.7932991,1.0400607 C 7.8605013,1.2169482 7.7028461,1.2592414 7.4971073,1.1195163 C 7.35318,1.0217705 7.2482832,1.0095115 7.1529244,1.0792921 C 7.0944393,1.1220902 7.1025186,1.1288205 7.2421931,1.1536486 L 7.3957683,1.1809475 L 7.2778789,1.2078427 C 7.2130394,1.2226352 7.1468039,1.2559449 7.1306891,1.2818651 C 7.1076874,1.3188618 7.1424039,1.3312429 7.2921854,1.3394626 C 7.3971246,1.3452211 7.4829835,1.3651588 7.4829835,1.3837692 C 7.4829835,1.4023789 7.4459933,1.4083132 7.4007836,1.396957 C 7.3483267,1.3837818 7.2978336,1.397076 7.2612392,1.4336993 C 7.172549,1.5224566 7.1934053,1.5630624 7.2998316,1.5088353 C 7.3525964,1.4819503 7.5606051,1.4411585 7.7620721,1.4181875 z M 6.8899196,-0.0066830017 C 6.8899196,-0.076929953 6.9701354,-0.041012092 7.0157011,0.049638953 C 7.0624404,0.14262665 7.117257,0.094358642 7.1489695,-0.067707996 L 7.1694256,-0.17225114 L 7.1297735,-0.071286052 L 7.0901209,0.029678399 L 7.0440335,-0.080013851 C 6.9814083,-0.22906851 6.9187344,-0.21781804 6.8366875,-0.042792578 C 6.7988096,0.038010745 6.7504391,0.10926942 6.7291978,0.1155606 C 6.7079557,0.12185178 6.6601827,0.05673116 6.6230352,-0.029150409 C 6.5461888,-0.2068118 6.4894052,-0.20179936 6.4365379,-0.012689454 L 6.4030632,0.10705046 L 6.4746389,0.019768671 C 6.5204026,-0.036037613 6.5524129,-0.052407457 6.5634031,-0.025624237 C 6.572857,-0.0025854791 6.6128371,0.05728859 6.6522477,0.10742946 L 6.7239031,0.19859301 L 6.8069116,0.12055153 C 6.8525659,0.077628778 6.8899196,0.020372923 6.8899196,-0.0066830017 z M 9.2621739,0.07866961 C 9.2621739,-0.004465303 9.0705855,-0.15279233 8.8945417,-0.20595003 C 8.7993358,-0.23469849 8.5566031,-0.27577116 8.3551354,-0.29722304 C 7.9426039,-0.34114866 7.8729433,-0.3772633 7.6186911,-0.67902092 C 7.4674079,-0.85857036 7.3500806,-0.92692357 7.4826269,-0.75828988 C 7.5360303,-0.69034605 7.5546319,-0.62325639 7.548361,-0.52120619 C 7.5435506,-0.4429268 7.5521509,-0.35858212 7.5674716,-0.33377363 C 7.6395525,-0.21705561 8.1480044,-0.067411248 8.6492274,-0.015397514 C 8.8350854,0.0038904542 9.0294071,0.042629633 9.0810547,0.070690323 C 9.199156,0.13485743 9.2621739,0.13763382 9.2621739,0.07866961 z M 6.3012652,-0.23358174 C 6.353798,-0.2198339 6.3713475,-0.22790746 6.3603971,-0.26078445 C 6.3518323,-0.28649837 6.3271633,-0.31342901 6.305578,-0.32063005 C 6.2584986,-0.3363349 6.1224255,-0.20735595 6.1224255,-0.14702568 C 6.1224255,-0.12355161 6.1458564,-0.13782271 6.1744935,-0.17873846 C 6.2104524,-0.2301163 6.2496726,-0.24708407 6.3012652,-0.23358174 z M 7.3818431,-0.42004875 C 7.3595294,-0.48180328 7.345685,-0.55249883 7.3510771,-0.57714914 C 7.3564698,-0.60179944 7.3334093,-0.62798031 7.2998316,-0.63533004 C 7.2242655,-0.65186818 7.2184511,-0.56426814 7.2911099,-0.50392079 C 7.3198906,-0.48001647 7.3434391,-0.4143593 7.3434391,-0.35801583 C 7.3434391,-0.26069207 7.3397523,-0.25815738 7.2696618,-0.30728779 C 7.1796539,-0.37038053 7.0992364,-0.34550371 7.0992364,-0.2545692 C 7.0992364,-0.19832824 7.1105871,-0.19332971 7.1682122,-0.22419337 C 7.2238805,-0.25400861 7.2456245,-0.24761809 7.2809113,-0.19107152 C 7.323499,-0.12282588 7.3259048,-0.12343203 7.3735242,-0.21438615 C 7.4124858,-0.28880275 7.4141752,-0.33056888 7.3818431,-0.42004875 z M 5.6848229,-0.37299874 C 5.6713408,-0.43540434 5.6227326,-0.56109059 5.5768052,-0.6522997 C 5.5308778,-0.74350881 5.5007175,-0.81813485 5.5097818,-0.81813485 C 5.5188468,-0.81813485 5.5840972,-0.77885785 5.6547827,-0.73085306 C 5.7254676,-0.68284826 5.7999493,-0.64357127 5.8202966,-0.64357127 C 5.8627338,-0.64357127 5.8510228,-0.65491349 5.6465726,-0.81181962 C 5.5671332,-0.87278641 5.4422767,-1.0012219 5.3691133,-1.0972333 C 5.2291864,-1.2808569 5.129303,-1.3394642 5.0653538,-1.2754673 C 5.037476,-1.247568 5.051794,-1.2370863 5.1177823,-1.2370863 C 5.1880277,-1.2370863 5.2171308,-1.2124879 5.2464432,-1.1283381 C 5.2904586,-1.001978 5.2728389,-0.95778533 5.1784424,-0.95778533 C 5.0822217,-0.95778533 5.0949665,-0.91463986 5.210636,-0.84879793 C 5.265342,-0.8176584 5.3937146,-0.67233492 5.4959084,-0.52585671 C 5.5981015,-0.3793785 5.6879292,-0.25953229 5.6955254,-0.25953229 C 5.7031216,-0.25953229 5.6983056,-0.31059251 5.6848229,-0.37299874 z M 6.8347376,-0.38546151 C 6.9033068,-0.41179423 6.9072516,-0.46900833 6.8404976,-0.46900833 C 6.813316,-0.46900833 6.7850405,-0.48712765 6.7776637,-0.5092749 C 6.7685393,-0.53666933 6.7334871,-0.52936959 6.6680167,-0.48643862 C 6.5959895,-0.43920891 6.583275,-0.41604108 6.6174711,-0.39433737 C 6.6718868,-0.35980138 6.758684,-0.35625559 6.8347376,-0.38546151 z M 7.5018608,-0.57142362 C 7.4892133,-0.59190237 7.4621708,-0.60865944 7.4417666,-0.60865944 C 7.418634,-0.60865944 7.4212808,-0.58862676 7.4487969,-0.55544606 C 7.4966445,-0.49774983 7.5394079,-0.51062514 7.5018608,-0.57142362 z M 6.2270839,-0.57374635 C 6.2270839,-0.59294826 6.1947599,-0.60865944 6.1552527,-0.60865944 C 6.1157461,-0.60865944 6.0931244,-0.59294826 6.1049828,-0.57374635 C 6.1329763,-0.52841671 6.2270839,-0.52841671 6.2270839,-0.57374635 z M 7.4208982,-0.7575768 C 7.3686025,-0.81328565 7.3561757,-0.85199382 7.3788663,-0.88849948 C 7.4054681,-0.93129632 7.4234267,-0.93267187 7.4819187,-0.89639209 C 7.5531625,-0.85220325 7.5736704,-0.87361971 7.5260568,-0.94248732 C 7.5119601,-0.96287623 7.4533303,-0.97858614 7.3957683,-0.97739978 C 7.3037283,-0.97550161 7.2897916,-0.96156079 7.2801779,-0.86177511 C 7.27113,-0.76786363 7.2812964,-0.74830929 7.3391694,-0.74830929 C 7.3776277,-0.74830929 7.4187959,-0.73259874 7.4306543,-0.71339683 C 7.4425126,-0.69419491 7.4618743,-0.67848373 7.4736801,-0.67848373 C 7.485486,-0.67848373 7.4617345,-0.71407574 7.4208982,-0.7575768 z M 6.6108309,-0.78036627 C 6.6108309,-0.79799776 6.6193547,-0.83465338 6.6297727,-0.86182193 C 6.6439206,-0.89871925 6.6240569,-0.90802282 6.5512786,-0.89858891 C 6.4576054,-0.88644629 6.3330081,-0.93577664 6.3682557,-0.97105102 C 6.3976022,-1.0004196 7.0590147,-1.009675 7.0875519,-0.98111577 C 7.1238187,-0.94482207 7.0312558,-0.88916068 6.9335272,-0.88849442 C 6.8886885,-0.88818945 6.8550337,-0.86638957 6.8550337,-0.83765186 C 6.8550337,-0.76689683 6.9136351,-0.73864506 6.936533,-0.79836095 C 6.9470042,-0.82566933 6.9996704,-0.85307198 7.0535683,-0.8592575 C 7.1403307,-0.86921468 7.1509472,-0.88377493 7.1461716,-0.98626931 C 7.1403598,-1.1110027 7.0416239,-1.2492264 6.9762641,-1.2241262 C 6.9541767,-1.2156439 6.8893493,-1.2313658 6.8322034,-1.2590633 C 6.7415626,-1.3029953 6.7157992,-1.3029314 6.6303399,-1.258561 C 6.5764603,-1.2305869 6.5132977,-1.2150257 6.4899786,-1.2239813 C 6.466659,-1.2329369 6.4284681,-1.2172194 6.4051099,-1.189053 C 6.3696796,-1.1463289 6.3745355,-1.1409552 6.4344071,-1.1566234 C 6.4746465,-1.1671538 6.5061725,-1.1585709 6.5061725,-1.1370855 C 6.5061725,-1.1160094 6.468062,-1.0891933 6.4214821,-1.0774936 C 6.2675901,-1.0388405 6.2694964,-0.85304731 6.4237848,-0.85304731 C 6.4703028,-0.85304731 6.5173986,-0.82948086 6.5284432,-0.80067798 C 6.550334,-0.74358917 6.6108309,-0.72867396 6.6108309,-0.78036627 z M 6.575945,-1.1460695 C 6.575945,-1.153616 6.6003086,-1.1691462 6.6300863,-1.1805821 C 6.6611318,-1.1925045 6.6751355,-1.1866518 6.6629129,-1.1668608 C 6.6424259,-1.1336865 6.575945,-1.1177937 6.575945,-1.1460695 z M 8.4249079,-0.78322175 C 8.3769395,-0.79859569 8.3062951,-0.8124998 8.2679203,-0.81412021 C 8.2104405,-0.81654607 8.2073677,-0.81110275 8.2504776,-0.78322175 C 8.2792583,-0.76460827 8.3499027,-0.75070352 8.4074646,-0.75232392 C 8.5100245,-0.75521041 8.5103741,-0.75582985 8.4249079,-0.78322175 z M 6.1921979,-0.84877262 C 6.1921979,-0.93325207 6.1156342,-0.996739 6.05728,-0.96064714 C 6.0220893,-0.93888079 6.0251185,-0.92752022 6.0707911,-0.90998047 C 6.1050587,-0.89682107 6.121319,-0.86560625 6.1096971,-0.83529686 C 6.0975839,-0.80370683 6.1098836,-0.78322175 6.1409638,-0.78322175 C 6.1691426,-0.78322175 6.1921979,-0.81271936 6.1921979,-0.84877262 z M 6.966233,-0.94672151 C 6.9410494,-0.95680777 6.9109605,-0.95556699 6.8993677,-0.94396536 C 6.8877755,-0.93236436 6.9083802,-0.92411364 6.945156,-0.92562901 C 6.9857963,-0.92730447 6.9940627,-0.93557734 6.966233,-0.94672151 z M 7.4480969,-1.0799789 C 7.4242114,-1.1087825 7.3791173,-1.1317915 7.3478891,-1.1311113 C 7.30882,-1.1302596 7.3183137,-1.1143112 7.3783251,-1.0799789 C 7.4902806,-1.0159308 7.501212,-1.0159308 7.4480969,-1.0799789 z M 4.9819652,-1.1780493 C 4.9712386,-1.1954182 4.9497627,-1.1890631 4.9342403,-1.1639269 C 4.9187172,-1.1387913 4.914792,-1.1040149 4.925518,-1.0866466 C 4.9362446,-1.0692783 4.9577212,-1.0756334 4.9732442,-1.1007696 C 4.9887666,-1.1259052 4.9926918,-1.160681 4.9819652,-1.1780493 z M 6.1059059,-1.125606 C 6.0951648,-1.1363553 6.0670152,-1.1256275 6.0433503,-1.1017674 C 6.0091529,-1.0672871 6.0131603,-1.0632776 6.0628794,-1.0822238 C 6.0972855,-1.0953345 6.1166471,-1.1148566 6.1059059,-1.125606 z M 4.8316399,-1.1693215 C 4.8316399,-1.1873902 4.8159417,-1.2021738 4.796754,-1.2021738 C 4.7775669,-1.2021738 4.7618687,-1.1776804 4.7618687,-1.1477443 C 4.7618687,-1.1178083 4.7775669,-1.1030247 4.796754,-1.114892 C 4.8159417,-1.1267594 4.8316399,-1.1512528 4.8316399,-1.1693215 z M 6.23348,-1.2446511 C 6.2084468,-1.2697032 6.1921979,-1.271764 6.1921979,-1.2498882 C 6.1921979,-1.2032868 6.2334547,-1.161999 6.2567371,-1.1852997 C 6.2666505,-1.1952202 6.2561851,-1.2219281 6.23348,-1.2446511 z M 7.2862825,-1.2196301 C 7.2973271,-1.2484329 7.3406862,-1.2719987 7.3826372,-1.2719987 C 7.4568527,-1.2719987 7.4571967,-1.2738944 7.3953909,-1.3422419 C 7.3489861,-1.3935577 7.2958432,-1.41002 7.198167,-1.403339 C 7.1246306,-1.3983089 7.0696711,-1.3784825 7.0760356,-1.3592805 C 7.0824001,-1.340078 7.1019982,-1.3289819 7.1195863,-1.3346214 C 7.2480455,-1.3758105 7.3184971,-1.3807501 7.3485473,-1.3506768 C 7.371805,-1.327402 7.3535101,-1.3082482 7.2936643,-1.2932165 C 7.244291,-1.2808151 7.2038948,-1.2474016 7.2038948,-1.2189644 C 7.2038948,-1.1517229 7.2604192,-1.1521797 7.2862825,-1.2196301 z M 6.0940811,-1.295848 C 6.0688975,-1.3059337 6.0388086,-1.3046929 6.0272158,-1.2930919 C 6.0156236,-1.2814909 6.0362283,-1.2732395 6.0730035,-1.2747555 C 6.1136444,-1.2764304 6.1219108,-1.2847032 6.0940811,-1.295848 z M 6.8007216,-1.4203777 C 6.7673633,-1.5289842 6.7516702,-1.5398733 6.7141268,-1.4804637 C 6.6721442,-1.4140289 6.6715833,-1.3670371 6.7130785,-1.3927023 C 6.7309403,-1.4037497 6.7554151,-1.3968213 6.767467,-1.3773062 C 6.8062629,-1.3144856 6.825567,-1.3394883 6.8007216,-1.4203777 z M 6.2706914,-1.3998584 C 6.2467072,-1.4095442 6.2074605,-1.4095442 6.1834763,-1.3998584 C 6.1594921,-1.3901739 6.1791155,-1.3822491 6.2270839,-1.3822491 C 6.2750522,-1.3822491 6.2946756,-1.3901739 6.2706914,-1.3998584 z M 7.1841924,-1.5549581 C 7.1581856,-1.5970704 7.0294639,-1.5949381 7.0294639,-1.5523956 C 7.0294639,-1.5337967 7.0555877,-1.5286108 7.0875159,-1.5408724 C 7.1262859,-1.555761 7.1372717,-1.5497312 7.1205903,-1.5227202 C 7.1042908,-1.496328 7.1143542,-1.4894718 7.1495531,-1.5029893 C 7.1792208,-1.5143821 7.1948084,-1.5377689 7.1841924,-1.5549581 z M 6.3840715,-1.5512997 C 6.4513401,-1.5802285 6.4511011,-1.5813933 6.3774092,-1.5837591 C 6.3353696,-1.5851087 6.2912714,-1.5705016 6.2794131,-1.5512997 C 6.2539114,-1.5100062 6.2880481,-1.5100062 6.3840715,-1.5512997 z M 6.9069709,-1.6506115 C 6.8992476,-1.6583402 6.865219,-1.6540231 6.8313511,-1.6410162 C 6.7796061,-1.6211449 6.7778262,-1.6123892 6.8202046,-1.5861774 C 6.8666657,-1.5574409 6.943244,-1.6143102 6.9069709,-1.6506115 z" style="fill: rgb(152, 5, 0);"/>
  <path id="path2172" d="M 9.1951562,2.2047176 C 9.1936413,2.1679145 9.2018862,2.147294 9.213479,2.158895 C 9.2250712,2.170496 9.2263104,2.2006074 9.2162332,2.2258113 C 9.2050963,2.253662 9.1968299,2.2453891 9.1951562,2.2047176 z M 9.6835617,2.134892 C 9.6820468,2.098089 9.6902917,2.0774685 9.7018845,2.0890695 C 9.7134767,2.1006705 9.7147159,2.1307831 9.704638,2.1559858 C 9.6935017,2.1838364 9.6852353,2.1755635 9.6835617,2.134892 z M 9.5660409,2.0097891 C 9.5560053,1.9713847 9.562024,1.9399636 9.5794148,1.9399636 C 9.5968056,1.9399636 9.611035,1.9713847 9.611035,2.0097891 C 9.611035,2.0993013 9.5894307,2.0993013 9.5660409,2.0097891 z M 8.9487336,1.9462547 C 8.9496813,1.9041286 9.0168842,1.8164014 9.0174375,1.8565692 C 9.0177568,1.8797769 9.0565224,1.8883807 9.1139079,1.87798 C 9.1666734,1.868417 9.2002031,1.8710801 9.188418,1.8838991 C 9.1558576,1.9193165 8.948124,1.9733594 8.9487336,1.9462547 z M 9.6747844,1.8177719 C 9.6618784,1.8047403 9.659023,1.7444208 9.6684395,1.6837292 C 9.677856,1.623037 9.6605398,1.5034939 9.6299597,1.4180755 L 9.5743597,1.2627695 L 9.6624695,1.3456077 C 9.7226188,1.4021574 9.7492693,1.4625218 9.7464518,1.5358261 C 9.7404054,1.6931309 9.7017909,1.8450423 9.6747844,1.8177719 z M 9.511885,1.5559246 C 9.511885,1.5079198 9.519803,1.4882813 9.5294813,1.5122837 C 9.5391589,1.5362861 9.5391589,1.5755631 9.5294813,1.5995649 C 9.519803,1.6235679 9.511885,1.6039288 9.511885,1.5559246 z M 7.4742618,1.4629774 C 7.498246,1.4532923 7.5374928,1.4532923 7.561477,1.4629774 C 7.5854612,1.4726625 7.5658378,1.4805867 7.5178694,1.4805867 C 7.469901,1.4805867 7.4502776,1.4726625 7.4742618,1.4629774 z M 7.2261649,1.3988172 C 7.2372095,1.370015 7.262187,1.3464486 7.2816707,1.3464486 C 7.3020901,1.3464486 7.2986992,1.3686325 7.2736667,1.3988172 C 7.2183386,1.4655342 7.2005829,1.4655342 7.2261649,1.3988172 z M 7.2300591,1.1836764 C 7.2540433,1.1739907 7.29329,1.1739907 7.3172742,1.1836764 C 7.3412584,1.1933615 7.321635,1.2012858 7.2736667,1.2012858 C 7.2256983,1.2012858 7.2060749,1.1933615 7.2300591,1.1836764 z M 7.9127661,1.1457009 C 7.8780407,1.0472345 7.75836,0.9311144 7.7105308,0.94948175 C 7.6460429,0.97424721 7.6167254,0.86602225 7.6663712,0.78646666 C 7.7036674,0.72670079 7.7489802,0.71802107 8.0237175,0.71802107 C 8.2934011,0.71802107 8.3441787,0.72735882 8.3791379,0.78337896 C 8.4138487,0.83900239 8.4070606,0.85460158 8.3335589,0.88811762 C 8.2258042,0.93725056 8.1264184,0.93824773 8.0383497,0.89107877 C 7.9400318,0.83842092 7.9120889,0.93829455 7.9833181,1.0877769 C 8.0331745,1.1924074 8.0336405,1.2067981 7.9871725,1.2067981 C 7.9580997,1.2067981 7.9246168,1.1793043 7.9127661,1.1457009 z M 8.0324392,0.76378033 C 7.9988614,0.75499875 7.9439159,0.75499875 7.9103381,0.76378033 C 7.8767604,0.77256191 7.9042328,0.77974713 7.971389,0.77974713 C 8.0385444,0.77974713 8.0660169,0.77256191 8.0324392,0.76378033 z M 9.1226295,1.157121 C 8.6357162,1.0224096 8.3945566,0.75471276 8.4597173,0.42126388 L 8.4801854,0.31652586 L 8.5037852,0.4289015 C 8.5417174,0.60951835 8.6411532,0.68310861 8.8472732,0.68310861 C 8.9945162,0.68310861 9.021804,0.69258113 9.004508,0.73768931 C 8.9738982,0.81751634 9.0659224,0.97275588 9.217107,1.096332 C 9.3625549,1.2152177 9.3535532,1.2210103 9.1226295,1.157121 z M 7.0323711,1.1270938 C 7.0403663,1.1216606 7.0783049,1.0941668 7.1166797,1.0659967 C 7.1812188,1.0186202 7.1828608,1.0193605 7.1385723,1.075876 C 7.1122386,1.1094794 7.0743,1.1369731 7.0542644,1.1369731 C 7.0342288,1.1369731 7.0243766,1.1325276 7.0323711,1.1270938 z M 8.5948882,1.0409636 C 8.5514943,0.98558943 8.5527285,0.98435498 8.6080598,1.0277814 C 8.6661712,1.0733907 8.6846514,1.1020601 8.655939,1.1020601 C 8.648695,1.1020601 8.6212219,1.0745663 8.5948882,1.0409636 z M 8.3807186,0.92316485 C 8.4043835,0.89930481 8.4325331,0.88857761 8.4432736,0.89932696 C 8.4540148,0.91007631 8.4346532,0.92959839 8.4002478,0.94270907 C 8.350528,0.96165537 8.3465212,0.95764516 8.3807186,0.92316485 z M 5.2662815,0.89026192 C 5.2536347,0.86978253 5.2527084,0.84359787 5.2642235,0.83207343 C 5.2757385,0.82055025 5.2851595,0.83137427 5.2851595,0.85612771 C 5.2851595,0.89175262 5.2978853,0.89114647 5.3462103,0.85321781 C 5.4015416,0.80979141 5.4027758,0.81102649 5.3593819,0.86639999 C 5.3033229,0.93793453 5.2967618,0.93961631 5.2662815,0.89026192 z M 5.6648568,0.71477773 C 5.631286,0.69349984 5.650358,0.68401467 5.7274574,0.68364326 C 5.7917733,0.68333323 5.9272375,0.63011036 6.0500366,0.55690352 C 6.2163731,0.4577417 6.3103523,0.42679326 6.4886135,0.41247344 C 6.8866292,0.38049999 6.7292635,0.51704126 6.3142996,0.56372049 C 6.1991751,0.5766711 6.0588038,0.61079075 6.0023622,0.63954238 C 5.8438047,0.72031533 5.7178821,0.74838488 5.6648568,0.71477773 z M 5.9225574,0.73184104 C 5.9341496,0.72024004 5.964239,0.71899927 5.9894227,0.72908426 C 6.0172524,0.7402297 6.008986,0.74850257 5.9683451,0.75017739 C 5.9315699,0.7516934 5.9109652,0.74344204 5.9225574,0.73184104 z M 5.0060708,0.62772435 C 5.0060708,0.56951562 5.0261153,0.49445933 5.0506129,0.46093 C 5.0936014,0.40209487 5.3560719,0.31805389 5.3538293,0.36384289 C 5.3518875,0.40348496 5.1851262,0.57837059 5.1492672,0.57837059 C 5.130247,0.57837059 5.0902472,0.61328812 5.0603778,0.65596474 C 5.0061176,0.73349118 5.0060708,0.73346651 5.0060708,0.62772435 z M 7.5084839,0.69512088 C 7.5321032,0.68555726 7.5791991,0.68497515 7.6131423,0.69382696 C 7.6470855,0.70267877 7.6277605,0.71050368 7.5701986,0.71121486 C 7.5126367,0.71192667 7.4848651,0.70468451 7.5084839,0.69512088 z M 7.3180013,0.66201548 C 7.3295935,0.65041448 7.359683,0.64917434 7.384866,0.65925933 C 7.4126957,0.67040414 7.4044299,0.67867701 7.363789,0.68035183 C 7.3270138,0.68186784 7.3064085,0.67361711 7.3180013,0.66201548 z M 7.8492873,0.57387256 C 7.7533505,0.55671434 7.586034,0.55208153 7.4774725,0.5635775 C 7.3221131,0.58003086 7.2458926,0.56934288 7.1194781,0.51338158 C 6.8753816,0.40532366 6.8665392,0.26607496 7.1036857,0.26469119 C 7.1541023,0.26439761 7.2153283,0.24006746 7.2397456,0.21062553 C 7.2792408,0.16299974 7.2922695,0.16473657 7.3578311,0.22637594 C 7.47025,0.33206874 7.7280297,0.43410565 7.9479814,0.45997649 C 8.1093627,0.47895822 8.1458192,0.49522809 8.1458192,0.54826431 C 8.1458192,0.61979758 8.1190037,0.62211336 7.8492873,0.57387256 z M 6.8295959,0.522365 C 6.8411887,0.51076337 6.8712775,0.50952386 6.8964611,0.51960885 C 6.9242908,0.53075429 6.9160244,0.53902716 6.8753835,0.54070198 C 6.8386084,0.54221799 6.8180037,0.53396663 6.8295959,0.522365 z M 6.6055868,0.1188881 C 6.5062294,0.01244552 6.5018781,0.011207278 6.482863,0.083975636 C 6.4573088,0.18176824 6.4194961,0.17930061 6.3420927,0.074785948 L 6.2794131,-0.0098478887 L 6.1661974,0.098930707 L 6.0529824,0.20771057 L 5.9451575,0.10501119 C 5.8858543,0.048527256 5.8207348,-0.029108649 5.8004481,-0.067513117 C 5.7801615,-0.10591632 5.8298459,-0.066639957 5.910859,0.019768671 L 6.0581538,0.17687538 L 5.8991385,-0.026185463 C 5.8116805,-0.1378689 5.7224617,-0.29488703 5.7008751,-0.3751152 C 5.6792879,-0.45534338 5.6317381,-0.57961423 5.5952082,-0.65127342 L 5.5287906,-0.78156148 L 5.6942545,-0.69351663 C 5.7915981,-0.64171929 5.8647546,-0.62059072 5.8719505,-0.6421951 C 5.878678,-0.66239355 5.8985403,-0.67003876 5.9160892,-0.65918501 C 5.9336374,-0.64833126 5.9479952,-0.65608846 5.9479952,-0.67642358 C 5.9479952,-0.69675934 5.9597695,-0.7106546 5.9741601,-0.70730432 C 5.9885501,-0.70395342 6.044262,-0.72253463 6.0979633,-0.74859655 C 6.1730564,-0.78504083 6.193195,-0.81667831 6.1851784,-0.88561173 C 6.176427,-0.9608629 6.1567019,-0.97543264 6.0622181,-0.97643361 C 5.9960186,-0.9771353 5.9418134,-0.95710831 5.9305734,-0.92779546 C 5.9026773,-0.85504292 5.9379483,-0.83615294 6.0021403,-0.88946818 C 6.0487468,-0.92817699 6.0630046,-0.92768916 6.0884336,-0.88651273 C 6.1190232,-0.83697927 6.0263312,-0.69318888 5.9883282,-0.7312213 C 5.9782971,-0.74125947 5.9886665,-0.76806357 6.0113716,-0.7907866 C 6.0823403,-0.86180864 6.0563796,-0.90215621 5.9826674,-0.83539746 C 5.9441756,-0.80053562 5.9024137,-0.78228912 5.8898629,-0.79484869 C 5.8611967,-0.82353641 5.9382303,-1.0872749 5.9834432,-1.1152394 C 6.0022939,-1.1268986 6.0076803,-1.1117531 5.9957492,-1.0806376 C 5.9771913,-1.0322399 5.9865483,-1.0307789 6.0703479,-1.0689904 L 6.1661658,-1.11268 L 6.0570802,-1.1409691 C 5.9970833,-1.1565278 5.9480679,-1.1727357 5.9481571,-1.176987 C 5.9494185,-1.23734 6.1189498,-1.5797894 6.1307696,-1.5458595 C 6.1439128,-1.5081321 6.1600871,-1.5098696 6.2132654,-1.5547215 C 6.3152461,-1.640734 6.3887415,-1.6556258 6.4586783,-1.6044486 C 6.5002797,-1.5740057 6.5428503,-1.568487 6.5805075,-1.5886564 C 6.6534477,-1.6277227 6.7291617,-1.5457855 6.7021957,-1.4569656 C 6.6881762,-1.4107868 6.715459,-1.3780427 6.8054062,-1.3330959 C 6.8726534,-1.2994925 6.9572863,-1.2719987 6.9934797,-1.2719987 C 7.0953568,-1.2719987 7.2038948,-1.1074904 7.2038948,-0.95307659 C 7.2038948,-0.83554299 7.1935438,-0.81813485 7.1236569,-0.81813485 C 6.9851141,-0.81813485 6.9548406,-0.75204869 7.0403568,-0.63629368 L 7.1162915,-0.53350888 L 6.9943839,-0.43237232 C 6.9273353,-0.37674763 6.8450038,-0.33081375 6.8114261,-0.33029681 C 6.7601705,-0.32950844 6.7503753,-0.29574943 6.7503753,-0.11988181 C 6.7503753,-0.0046703057 6.7363811,0.089594227 6.7192773,0.089594227 C 6.7021736,0.089594227 6.6625772,0.025558098 6.6312845,-0.052706735 C 6.5676698,-0.21181728 6.512661,-0.21627103 6.4405775,-0.068148372 L 6.3924251,0.030798954 L 6.3431852,-0.05326986 L 6.293946,-0.13733867 L 6.3171133,-0.050056886 C 6.3595062,0.10965159 6.4087322,0.14031341 6.4613592,0.039793762 C 6.5114906,-0.055958306 6.575945,-0.080464351 6.575945,-0.0037731026 C 6.575945,0.042418936 6.7171516,0.19433161 6.7600877,0.19433161 C 6.7725499,0.19433161 6.821198,0.13770215 6.8681939,0.06848781 L 6.9536418,-0.057355994 L 7.0037182,0.03829041 L 7.053794,0.13393681 L 7.1114008,0.051627605 C 7.1430855,0.006358079 7.1690083,-0.074316801 7.1690083,-0.1276504 C 7.1690083,-0.24489864 7.257744,-0.26000114 7.2930245,-0.14875745 L 7.3170839,-0.07289507 L 7.3639117,-0.15748588 C 7.4212599,-0.26108183 7.4256289,-0.3805522 7.3754988,-0.47429411 C 7.3233738,-0.57176402 7.3635146,-0.59798095 7.4478832,-0.52157127 C 7.5164727,-0.45945103 7.5178694,-0.46029065 7.5178694,-0.56362655 C 7.5178694,-0.62161953 7.4854519,-0.71031103 7.4458302,-0.76072018 C 7.3591614,-0.87098567 7.3840662,-0.94093904 7.4898254,-0.88429503 C 7.5555943,-0.84907064 7.5602529,-0.85331368 7.5408318,-0.93075155 C 7.5256932,-0.99111345 7.5338976,-1.0159732 7.5689581,-1.0159732 C 7.6054127,-1.0159732 7.6130765,-0.98760309 7.5980391,-0.9083259 C 7.5709346,-0.76543587 7.564768,-0.76152057 7.4831972,-0.83539746 C 7.3931412,-0.91695816 7.3930186,-0.87229541 7.4829835,-0.75783622 C 7.5510545,-0.67123081 7.5740157,-0.4952512 7.5316569,-0.3847826 C 7.5200527,-0.35451939 7.4984161,-0.3372688 7.4835753,-0.34644773 C 7.4687351,-0.35562666 7.4475715,-0.31799665 7.4365452,-0.26282436 C 7.4255189,-0.20765269 7.3753591,-0.1175711 7.3250784,-0.062643671 L 7.2336593,0.037224902 L 7.253791,-0.056644811 C 7.2648635,-0.10827385 7.2581664,-0.16026038 7.2389085,-0.17217141 C 7.2185871,-0.18474111 7.2038948,-0.15177681 7.2038948,-0.093612995 C 7.2038948,0.00098055513 7.0963703,0.15941852 7.0321739,0.15941852 C 7.0159718,0.15941852 6.993916,0.1257443 6.9831616,0.084586847 C 6.964467,0.013043444 6.9595523,0.014577801 6.8713332,0.11949931 C 6.8205828,0.17985931 6.7632048,0.22924408 6.743828,0.22924408 C 6.7244506,0.22924408 6.6622421,0.17958408 6.6055868,0.1188881 z M 6.2822419,-0.20957238 C 6.3506297,-0.19239581 6.3666282,-0.20174115 6.3666282,-0.2588673 C 6.3666282,-0.34534806 6.2748189,-0.3518164 6.1862235,-0.27157746 C 6.1257955,-0.21684997 6.1224255,-0.21920497 6.1224255,-0.31617883 C 6.1224255,-0.3724875 6.1468832,-0.45350342 6.176776,-0.49621421 C 6.2346276,-0.57887205 6.2180448,-0.65130633 6.1474731,-0.62420484 C 6.074447,-0.59615997 6.0563961,-0.21709421 6.1241699,-0.13483941 C 6.1716786,-0.077180512 6.1754571,-0.078230834 6.1863051,-0.15210772 C 6.1957159,-0.21619447 6.2134905,-0.22684132 6.2822419,-0.20957238 z M 6.2481615,-0.18025193 C 6.2365687,-0.19185293 6.2283238,-0.17123245 6.2298381,-0.13442941 C 6.2315123,-0.093757889 6.2397787,-0.085485018 6.250915,-0.11333564 C 6.2609929,-0.13853832 6.2597537,-0.1686503 6.2481615,-0.18025193 z M 6.8956487,-0.42986484 C 6.9265152,-0.46594215 6.9731754,-0.50319885 6.9993384,-0.51265808 C 7.0380515,-0.52665457 7.038747,-0.54206647 7.0030771,-0.59544183 C 6.9236952,-0.71422823 6.9165062,-0.74860287 6.9600607,-0.80112342 C 6.9837439,-0.82968143 7.040446,-0.85304731 7.0860654,-0.85304731 C 7.1540998,-0.85304731 7.1690083,-0.87102743 7.1690083,-0.95307659 C 7.1690083,-1.0808578 7.0471494,-1.2370863 6.9474796,-1.2370863 C 6.9051727,-1.2370863 6.8373508,-1.2603636 6.7967636,-1.2888134 C 6.7315745,-1.3345081 6.7179653,-1.3345081 6.680071,-1.2888134 C 6.6564776,-1.2603636 6.5931392,-1.2370863 6.5393191,-1.2370863 C 6.418444,-1.2370863 6.2968563,-1.0946651 6.2968563,-0.95307659 C 6.2968563,-0.8697449 6.3113652,-0.85304731 6.3837762,-0.85304731 C 6.4329137,-0.85304731 6.4896359,-0.82269552 6.5142688,-0.78322175 C 6.5645431,-0.7026595 6.6108309,-0.69196962 6.6108309,-0.76092455 C 6.6108309,-0.79331117 6.6397962,-0.80291087 6.7017569,-0.79105678 C 6.7568258,-0.78052255 6.8062749,-0.79275754 6.827149,-0.82208305 C 6.8543894,-0.86035211 6.8576798,-0.85816731 6.8428415,-0.81166208 C 6.8325151,-0.77929949 6.8410275,-0.74716279 6.8617573,-0.74024775 C 6.8824872,-0.7333327 6.8582355,-0.70065123 6.8078657,-0.66762239 C 6.7346094,-0.61958659 6.7031681,-0.61576747 6.6507359,-0.64853689 C 6.614684,-0.67106884 6.5592036,-0.67952583 6.5274455,-0.66732944 C 6.4509462,-0.63795205 6.4106777,-0.52995803 6.4689718,-0.51051188 C 6.4937894,-0.50223268 6.53935,-0.46594215 6.5702166,-0.42986484 C 6.6432377,-0.34451729 6.8226269,-0.34451729 6.8956487,-0.42986484 z M 6.6363402,-0.92007369 C 6.6211655,-0.97814639 6.6257059,-0.99177654 6.6515939,-0.96586901 C 6.671866,-0.94558134 6.6815885,-0.90837399 6.6731988,-0.88318713 C 6.6644898,-0.8570398 6.6486759,-0.87286487 6.6363402,-0.92007369 z M 6.7852612,-0.91875193 C 6.7852612,-0.93795322 6.80096,-0.96337355 6.8201477,-0.97524156 C 6.8393348,-0.98710893 6.8550337,-0.98110818 6.8550337,-0.96190563 C 6.8550337,-0.94270371 6.8393348,-0.91728401 6.8201477,-0.90541663 C 6.80096,-0.89354926 6.7852612,-0.89955001 6.7852612,-0.91875193 z M 6.3666282,-1.0768001 C 6.3666282,-1.0834475 6.3901767,-1.1084439 6.4189574,-1.1323483 C 6.4491196,-1.1574004 6.4712866,-1.160793 6.4712866,-1.1403586 C 6.4712866,-1.1208599 6.4477387,-1.0958635 6.4189574,-1.0848104 C 6.3901767,-1.073758 6.3666282,-1.0701527 6.3666282,-1.0768001 z M 7.4480969,-0.46900833 C 7.4275599,-0.50741216 7.4029068,-0.53883388 7.3933132,-0.53883388 C 7.3837197,-0.53883388 7.392674,-0.50741216 7.413211,-0.46900833 C 7.4337486,-0.43060386 7.4584018,-0.39918277 7.4679953,-0.39918277 C 7.4775889,-0.39918277 7.4686346,-0.43060386 7.4480969,-0.46900833 z M 6.0664284,-0.51340976 C 6.0800679,-0.49976063 6.0807147,-0.51600899 6.0678662,-0.5495168 C 6.0496863,-0.59693 6.0338041,-0.60155268 5.9962506,-0.57036254 C 5.9697101,-0.54831905 5.9479952,-0.51457334 5.9479952,-0.49537142 C 5.9479952,-0.47406949 5.9662472,-0.47561777 5.9948128,-0.49934303 C 6.0205623,-0.52072974 6.0527895,-0.52706015 6.0664284,-0.51340976 z M 6.2619704,-1.2158451 C 6.2619704,-1.2425663 6.2220813,-1.2744487 6.1733282,-1.2866938 C 6.0316715,-1.322275 6.1114706,-1.387414 6.2663521,-1.3626289 C 6.3406915,-1.3507324 6.4015147,-1.3536841 6.4015147,-1.3691884 C 6.4015147,-1.4261051 6.149136,-1.4150666 6.0831028,-1.3552621 C 5.9982303,-1.278395 5.9999235,-1.2389535 6.0871159,-1.261772 C 6.1311022,-1.2732832 6.1643632,-1.2593196 6.1780634,-1.2235903 C 6.2045451,-1.1545284 6.2619704,-1.1492275 6.2619704,-1.2158451 z M 6.3494543,-1.5108186 C 6.3360278,-1.5458336 6.3506746,-1.5544893 6.4010443,-1.5413077 C 6.4397302,-1.5311829 6.4625852,-1.537145 6.4518327,-1.5545563 C 6.4410802,-1.571967 6.3922829,-1.5862128 6.3433939,-1.5862128 C 6.2804361,-1.5862128 6.2601185,-1.5715735 6.2737472,-1.5360314 C 6.284917,-1.5069002 6.2681901,-1.4792432 6.233872,-1.4701016 C 6.2013577,-1.4614402 6.2182807,-1.4560564 6.2714792,-1.4581386 C 6.3391899,-1.4607872 6.3625797,-1.4765889 6.3494543,-1.5108186 z M 6.575945,-1.4835356 C 6.575945,-1.5038707 6.5602462,-1.5107984 6.5410591,-1.498931 C 6.4963564,-1.4712822 6.4963564,-1.4465617 6.5410591,-1.4465617 C 6.5602462,-1.4465617 6.575945,-1.4631998 6.575945,-1.4835356 z M 5.6644572,-0.2158914 C 5.6210633,-0.2712649 5.6222963,-0.27249998 5.6776282,-0.22907357 C 5.7357396,-0.18346428 5.7542204,-0.1547949 5.7255074,-0.1547949 C 5.7182634,-0.1547949 5.6907903,-0.18228867 5.6644572,-0.2158914 z M 8.6436728,-0.28062605 C 8.655265,-0.29222705 8.6853538,-0.29346719 8.7105375,-0.28338157 C 8.7383672,-0.27223676 8.7301014,-0.26396389 8.6894605,-0.26228844 C 8.6526853,-0.26077306 8.63208,-0.26902442 8.6436728,-0.28062605 z M 5.4900263,-0.4602799 C 5.4466325,-0.51565403 5.447866,-0.51688911 5.5031973,-0.47346144 C 5.5613093,-0.42785341 5.5797895,-0.39918277 5.5510771,-0.39918277 C 5.5438325,-0.39918277 5.5163594,-0.42667654 5.4900263,-0.4602799 z M 7.7253084,-0.56501791 L 7.6050845,-0.69593996 L 7.7359072,-0.57562554 C 7.8576744,-0.46363966 7.8827708,-0.43409587 7.856131,-0.43409587 C 7.8503008,-0.43409587 7.7914307,-0.49301072 7.7253084,-0.56501791 z M 7.9890788,-0.46860845 C 7.9768569,-0.4883988 7.9908599,-0.49425213 8.0219061,-0.48232971 C 8.082343,-0.45912011 8.0934009,-0.43409587 8.0432201,-0.43409587 C 8.0251648,-0.43409587 8.0008013,-0.44962608 7.9890788,-0.46860845 z M 9.1079879,-0.60102752 L 9.041017,-0.69593996 L 9.1341528,-0.6113017 C 9.2320218,-0.52235964 9.2440844,-0.5032172 9.2011237,-0.50501793 C 9.186733,-0.50562155 9.1448219,-0.54882587 9.1079879,-0.60102752 z M 5.3200454,-0.71339683 C 5.2995084,-0.75180066 5.2905541,-0.78322175 5.3001476,-0.78322175 C 5.3097412,-0.78322175 5.3343943,-0.75180066 5.3549319,-0.71339683 C 5.375469,-0.67499299 5.3844233,-0.64357127 5.3748297,-0.64357127 C 5.3652362,-0.64357127 5.340583,-0.67499299 5.3200454,-0.71339683 z M 8.2504776,-0.68599733 C 8.1833215,-0.70433875 8.103554,-0.74160747 8.073216,-0.76881652 C 8.0428781,-0.79602493 8.0096285,-0.80985375 7.9993287,-0.79954604 C 7.9890295,-0.78923833 7.9883353,-0.82128898 7.9977872,-0.87076865 C 8.0140538,-0.95592955 8.0184178,-0.95760943 8.0795432,-0.90224922 C 8.1275129,-0.8588051 8.2152515,-0.84271619 8.4207709,-0.83967974 C 8.5729311,-0.83743104 8.6792814,-0.84713387 8.6571037,-0.86124045 C 8.6079694,-0.8924964 8.6432011,-0.89571824 8.7183859,-0.86684513 C 8.7486259,-0.8552321 8.7630336,-0.82899682 8.7504026,-0.80854338 C 8.7358614,-0.78499781 8.7493966,-0.77978859 8.7873004,-0.79434568 C 8.8228597,-0.8080005 8.8385111,-0.80332214 8.825851,-0.78282187 C 8.8141286,-0.76384014 8.780989,-0.74830929 8.7522083,-0.74830929 C 8.7234271,-0.74830929 8.7071554,-0.7365267 8.716049,-0.72212526 C 8.7249433,-0.70772382 8.6983971,-0.69536292 8.6570575,-0.6946568 C 8.6157186,-0.69395131 8.534799,-0.68420989 8.4772371,-0.6730113 C 8.4196751,-0.66181208 8.3176331,-0.66765592 8.2504776,-0.68599733 z M 8.5610986,-0.74809922 C 8.4765631,-0.79756055 8.19041,-0.83504504 8.2330343,-0.79107449 C 8.2752111,-0.74756647 8.3715285,-0.72252261 8.512123,-0.71850797 C 8.5926752,-0.71620802 8.6039563,-0.72302436 8.5610986,-0.74809922 z M 5.0932866,-0.85304731 C 5.0165369,-0.88860262 4.9660198,-0.91885949 4.9810269,-0.92028312 C 5.0223368,-0.92420348 5.2502735,-0.82445829 5.2502735,-0.80245973 C 5.2502735,-0.7788085 5.2609856,-0.77535636 5.0932866,-0.85304731 z M 5.5274843,-0.94905689 L 5.4072611,-1.0799789 L 5.5380838,-0.95966452 C 5.6598511,-0.84767864 5.6849468,-0.81813485 5.6583077,-0.81813485 C 5.6524774,-0.81813485 5.5936073,-0.8770497 5.5274843,-0.94905689 z M 8.1165252,-0.96559631 C 7.9490613,-1.0401357 7.9436263,-1.0818417 8.1060281,-1.0461453 C 8.201643,-1.0251281 8.3145855,-0.93736035 8.2816135,-0.90969701 C 8.2740824,-0.90337863 8.1997923,-0.92853385 8.1165252,-0.96559631 z M 4.9711849,-1.0287055 C 4.9711849,-1.0677123 4.9964513,-1.1093304 5.027333,-1.1211902 C 5.0775555,-1.1404769 5.0769624,-1.1464017 5.0217108,-1.1773457 C 4.9772617,-1.2022396 4.949255,-1.1983345 4.9218293,-1.1634157 C 4.8624255,-1.0877842 4.8015656,-1.090851 4.821844,-1.168454 C 4.8324966,-1.2092198 4.8223543,-1.2370863 4.796864,-1.2370863 C 4.7691962,-1.2370863 4.7593105,-1.20053 4.7690394,-1.134192 C 4.7773386,-1.0776005 4.7712713,-1.0392505 4.7555554,-1.048971 C 4.6973081,-1.0849971 4.7296927,-1.2197383 4.8140303,-1.2922624 C 4.911293,-1.3759016 5.0849297,-1.3712327 5.0521936,-1.2858579 C 5.039787,-1.2535036 5.0585252,-1.2370863 5.1078606,-1.2370863 C 5.1563658,-1.2370863 5.1945553,-1.2046396 5.2176752,-1.1437841 C 5.2689984,-1.0086912 5.2352538,-0.95778533 5.094381,-0.95778533 C 4.9938071,-0.95778533 4.9711849,-0.97080869 4.9711849,-1.0287055 z M 7.4327079,-1.1160025 C 7.395463,-1.1441941 7.3846156,-1.1672607 7.4086023,-1.1672607 C 7.432589,-1.1672607 7.4425126,-1.1829719 7.4306543,-1.2021738 C 7.4187959,-1.2213751 7.3855457,-1.2370863 7.3567644,-1.2370863 C 7.3279831,-1.2370863 7.3141375,-1.2213751 7.3259959,-1.2021738 C 7.3378542,-1.1829719 7.3296232,-1.1672607 7.3077047,-1.1672607 C 7.2857862,-1.1672607 7.2747997,-1.1868992 7.2832912,-1.2109016 C 7.2917827,-1.2349047 7.3402234,-1.2515801 7.3909377,-1.247959 C 7.4718371,-1.2421822 7.4787333,-1.2496237 7.4471713,-1.3086436 C 7.4067769,-1.3841776 7.2729035,-1.4287233 7.1684487,-1.4013871 C 7.0792065,-1.378032 7.0793968,-1.4286955 7.168787,-1.4913548 C 7.2070391,-1.5181684 7.2279707,-1.5504803 7.2153011,-1.5631595 C 7.171887,-1.6066068 7.0272838,-1.5862362 7.0071938,-1.5338435 C 6.9713968,-1.4404863 6.9329429,-1.4783498 6.9362795,-1.603669 C 6.9382705,-1.678433 6.9569872,-1.7258633 6.9844989,-1.7258633 C 7.0414633,-1.7258633 7.0420292,-1.6833062 6.9858564,-1.623834 C 6.9498741,-1.5857389 6.9559199,-1.5847031 7.0204274,-1.617911 C 7.0821687,-1.6496953 7.1203128,-1.6469233 7.2018469,-1.6047288 C 7.3322706,-1.5372324 7.3431616,-1.5378176 7.344698,-1.6123968 C 7.3453897,-1.6460008 7.3781702,-1.587086 7.4175434,-1.4814748 C 7.5247524,-1.1939066 7.5302842,-1.1672607 7.4827805,-1.1672607 C 7.4484927,-1.1672607 7.4485345,-1.1564323 7.4829835,-1.114892 C 7.5373082,-1.0493848 7.5202189,-1.0497619 7.4327079,-1.1160025 z M 8.1494757,-1.1003989 C 8.1035186,-1.1187959 8.0741935,-1.1421308 8.0843087,-1.1522538 C 8.1119917,-1.1799582 8.2853635,-1.1294244 8.2853635,-1.0936509 C 8.2853635,-1.0556393 8.2578791,-1.0570035 8.1494757,-1.1003989 z M 5.2825191,-1.2283579 L 5.1979443,-1.3243681 L 5.2938811,-1.2397285 C 5.3835488,-1.1606209 5.4058164,-1.1323483 5.3784558,-1.1323483 C 5.3722064,-1.1323483 5.3290357,-1.1755532 5.2825191,-1.2283579 z M 8.3028062,-1.2045415 C 8.2452443,-1.2414413 8.2160324,-1.271714 8.2378915,-1.2718153 C 8.2597493,-1.2719159 8.3146949,-1.2411003 8.3599926,-1.2033355 C 8.4637108,-1.1168636 8.438763,-1.11739 8.3028062,-1.2045415 z M 7.7620721,-1.180982 C 7.7620721,-1.1885285 7.7864357,-1.2040593 7.8162135,-1.2154946 C 7.8472589,-1.227417 7.8612626,-1.2215649 7.84904,-1.2017739 C 7.828553,-1.1685996 7.7620721,-1.1527062 7.7620721,-1.180982 z M 6.6631601,-1.6211253 C 6.6284316,-1.6595291 6.6172226,-1.6909508 6.6382516,-1.6909508 C 6.6592798,-1.6909508 6.6862142,-1.6751973 6.6981049,-1.6559435 C 6.7122805,-1.6329882 6.7460189,-1.6347371 6.7961003,-1.6610236 C 6.8719351,-1.700827 6.8720053,-1.7005796 6.8060189,-1.6262054 C 6.725951,-1.5359593 6.7397321,-1.5364497 6.6631601,-1.6211253 z M 6.4916238,-1.6513518 C 6.4765958,-1.6756864 6.4737215,-1.7050245 6.4852365,-1.7165483 C 6.5164584,-1.7477941 6.5505003,-1.70184 6.5336368,-1.6512113 C 6.5218201,-1.6157338 6.5136031,-1.6157617 6.4916238,-1.6513518 z" style="fill: rgb(75, 5, 0);"/>
</svg>