<?xml version="1.0" encoding="UTF-8" standalone="no"?>
<svg
   xmlns:dc="http://purl.org/dc/elements/1.1/"
   xmlns:cc="http://creativecommons.org/ns#"
   xmlns:rdf="http://www.w3.org/1999/02/22-rdf-syntax-ns#"
   xmlns:svg="http://www.w3.org/2000/svg"
   xmlns="http://www.w3.org/2000/svg"
   xmlns:sodipodi="http://sodipodi.sourceforge.net/DTD/sodipodi-0.dtd"
   xmlns:inkscape="http://www.inkscape.org/namespaces/inkscape"
   version="1.0"
   width="900"
   height="600"
   id="Flag_of_the_Holy_Roman_Empire_between_1200_and_1350"
   inkscape:version="0.48.2 r9819"
   sodipodi:docname="Flag.svg">
  <metadata
     id="metadata10">
    <rdf:RDF>
      <cc:Work
         rdf:about="">
        <dc:format>image/svg+xml</dc:format>
        <dc:type
           rdf:resource="http://purl.org/dc/dcmitype/StillImage" />
      </cc:Work>
    </rdf:RDF>
  </metadata>
  <defs
     id="defs8">
    <clipPath
       id="id0-4-1">
      <path
         inkscape:connector-curvature="0"
         d="m 6270380,1184790 c -66510,-76010 -101350,-126680 -148860,-212190 -69670,-133020 -240700,-41180 -380050,-50680 22170,-6330 41170,6340 41170,22170 0,91850 50680,202700 158360,218530 98180,12670 190030,-22170 285040,-15830 15830,0 28500,22170 44340,38000 z"
         id="path7-8-7-1" />
    </clipPath>
  </defs>
  <sodipodi:namedview
     pagecolor="#ffffff"
     bordercolor="#666666"
     borderopacity="1"
     objecttolerance="10"
     gridtolerance="10"
     guidetolerance="10"
     inkscape:pageopacity="0"
     inkscape:pageshadow="2"
     inkscape:window-width="918"
     inkscape:window-height="764"
     id="namedview6"
     showgrid="false"
     inkscape:zoom="0.65"
     inkscape:cx="450"
     inkscape:cy="300"
     inkscape:window-x="169"
     inkscape:window-y="94"
     inkscape:window-maximized="0"
     inkscape:current-layer="Flag_of_the_Holy_Roman_Empire_between_1200_and_1350"
     showguides="false">
    <inkscape:grid
       type="xygrid"
       id="grid2811" />
  </sodipodi:namedview>
  <rect
     style="fill-rule:evenodd;fill:#000000;"
     id="rect5"
     y="400"
     x="0"
     height="200"
     width="900" />
  <rect
     style="fill:#ce1126;fill-rule:evenodd;fill-opacity:1"
     id="rect11"
     y="0"
     x="0"
     height="200"
     width="900" />
  <rect
     style="fill:#ffffff;fill-rule:evenodd"
     id="rect8"
     y="200"
     x="0"
     height="200"
     width="900" />
  <g
     style="fill-rule:evenodd"
     id="g3461"
     transform="matrix(-1.4428845e-5,0,0,1.5626137e-5,543.7875,206.49064)">
    <path
       transform="matrix(1,0,0,1.0125003,0.28990097,-111152.78)"
       d="M 6479466.7,11553887 C 4350898.8,11533397 2904485,10312767 2904485,10312767 c -22107,81962 -461084.7,386386 -461084.7,386386 0,0 -44214,172703 -284229.2,81961 -322121,-120012 -438977.7,-649831 -438977.7,-649831 0,61472 -527405.5,263446 -527405.5,263446 22107,-181484 22107,-304426 0,-506400 -22106.9,-204902 -41052.8,-184412 416870.9,-632270 461084.7,-447856.2 527405.4,-20490 571619.2,-81961 0,0 44213.9,-58540 195801.5,-181482.4 154748.6,-122941.9 593726.3,-509328.1 900062.4,-201973.2 1367459,1355281.6 2829667.8,1402112.6 3202324.8,1402112.6 372656.8,0 1831704.7,-46831 3199163.7,-1402112.6 306336.2,-307354.9 745314.6,79031.3 900063.6,201973.2 151587,122942.4 195800,181482.4 195800,181482.4 44214,61471 110535,-365895.2 571620,81961 461085,447858 438978,427368 416871,632270 -22107,201974 -22107,324916 0,506400 0,0 -527405,-201974 -527405,-263446 0,0 -113696,538600 -438978,649831 -208436,70252 -284230,-81961 -284230,-81961 0,0 -438977,-304424 -461084,-386386 0,0 -1446414.4,1261610 -3571821.3,1241120 z"
       id="path11"
       style="fill:#009e60;fill-rule:evenodd"
       inkscape:connector-curvature="0" />
    <polygon
       points="8394190,10692800 6457060,11343700 4363310,10752600 3122390,9616710 5255590,7687090 7795880,7666990 9835390,9583710 "
       id="polygon13"
       style="fill:#ffffff;fill-opacity:1;fill-rule:evenodd;stroke:#efbb22;stroke-width:61066.58984375;stroke-opacity:1"
       transform="matrix(0.99715544,0,0,0.93578938,18487.827,-66598.857)" />
    <g
       style="fill:#ffffff;fill-rule:evenodd"
       id="_47212472"
       transform="matrix(0.99715544,0,0,0.93578938,18487.827,-66598.857)">
      <path
         id="_46568480"
         d="m 8258600,6851340 c 0,0 84840,0 188530,84840 103690,84840 131970,216810 131970,216810 0,0 -122550,28270 -245090,-9430 -122540,-37710 -179100,-94260 -179100,-94260 l 103690,-197960 z"
         style="fill:#ffffff;fill-opacity:1;stroke:#efbb22;stroke-width:61066.58984375;stroke-opacity:1"
         inkscape:connector-curvature="0" />
      <path
         id="_105117120"
         d="m 8146060,7076430 c 0,0 84830,0 188520,84840 103690,84830 131970,216800 131970,216800 0,0 -122540,28280 -245080,-9420 -122540,-37710 -179100,-94270 -179100,-94270 l 103690,-197950 z"
         style="fill:#ffffff;fill-opacity:1;stroke:#efbb22;stroke-width:61066.58984375;stroke-opacity:1"
         inkscape:connector-curvature="0" />
      <path
         id="_99531504"
         d="m 8033510,7311510 c 0,0 84840,0 188530,84840 103690,84840 131970,216810 131970,216810 0,0 -122540,28280 -245090,-9430 -122540,-37700 -179100,-94260 -179100,-94260 l 103690,-197960 z"
         style="fill:#ffffff;fill-opacity:1;stroke:#efbb22;stroke-width:61066.58984375;stroke-opacity:1"
         inkscape:connector-curvature="0" />
      <path
         id="_100008936"
         d="m 7911540,7557170 c 0,0 84840,0 188530,84840 103690,84840 131970,216810 131970,216810 0,0 -122540,28280 -245080,-9430 -122550,-37710 -179110,-94260 -179110,-94260 l 103690,-197960 z"
         style="fill:#ffffff;fill-opacity:1;stroke:#efbb22;stroke-width:61066.58984375;stroke-opacity:1"
         inkscape:connector-curvature="0" />
      <path
         id="_99531464"
         d="m 7770720,7800830 c 0,0 84840,0 188530,84830 103690,84840 131970,216810 131970,216810 0,0 -122540,28280 -245090,-9430 -122540,-37700 -179100,-94260 -179100,-94260 l 103690,-197950 z"
         style="fill:#ffffff;fill-opacity:1;stroke:#efbb22;stroke-width:61066.58984375;stroke-opacity:1"
         inkscape:connector-curvature="0" />
    </g>
    <g
       style="fill:#ffffff;fill-rule:evenodd"
       id="_46848968"
       transform="matrix(0.99715544,0,0,0.93578938,18487.827,-66598.857)">
      <path
         id="_103554712"
         d="m 4753500,6851340 c 0,0 -84840,0 -188530,84840 -103690,84840 -131970,216810 -131970,216810 0,0 122540,28270 245090,-9430 122540,-37710 179100,-94260 179100,-94260 l -103690,-197960 z"
         style="fill:#ffffff;fill-opacity:1;stroke:#efbb22;stroke-width:61066.58984375;stroke-opacity:1"
         inkscape:connector-curvature="0" />
      <path
         id="_103622104"
         d="m 4866040,7076430 c 0,0 -84840,0 -188530,84840 -103690,84830 -131960,216800 -131960,216800 0,0 122540,28280 245080,-9420 122540,-37710 179100,-94270 179100,-94270 l -103690,-197950 z"
         style="fill:#ffffff;fill-opacity:1;stroke:#efbb22;stroke-width:61066.58984375;stroke-opacity:1"
         inkscape:connector-curvature="0" />
      <path
         id="_100564448"
         d="m 4978590,7311510 c 0,0 -84840,0 -188530,84840 -103690,84840 -131970,216810 -131970,216810 0,0 122540,28280 245080,-9430 122550,-37700 179110,-94260 179110,-94260 l -103690,-197960 z"
         style="fill:#ffffff;fill-opacity:1;stroke:#efbb22;stroke-width:61066.58984375;stroke-opacity:1"
         inkscape:connector-curvature="0" />
      <path
         id="_47610432"
         d="m 5100550,7557170 c 0,0 -84830,0 -188520,84840 -103690,84840 -131970,216810 -131970,216810 0,0 122540,28280 245080,-9430 122550,-37710 179100,-94260 179100,-94260 l -103690,-197960 z"
         style="fill:#ffffff;fill-opacity:1;stroke:#efbb22;stroke-width:61066.58984375;stroke-opacity:1"
         inkscape:connector-curvature="0" />
      <path
         id="_46849008"
         d="m 5241380,7800830 c 0,0 -84840,0 -188530,84830 -103690,84840 -131970,216810 -131970,216810 0,0 122540,28280 245090,-9430 122540,-37700 179100,-94260 179100,-94260 l -103690,-197950 z"
         style="fill:#ffffff;fill-opacity:1;stroke:#efbb22;stroke-width:61066.58984375;stroke-opacity:1"
         inkscape:connector-curvature="0" />
    </g>
    <path
       transform="matrix(1,0,0,1.0125003,0.28990097,-111152.78)"
       d="m 6501573.6,8295954.2 75793.7,-49760.8 c 0,0 44213.9,679100.9 296863.2,1056706.6 138953.6,204893 252649.3,427367 274756.2,468348 22107,38051 142114.5,175624 -132641.6,193193 -186328.4,8780 -505298.5,8780 -505298.5,8780 0,0 -315809.2,0 -502137.5,-8780 -274756.3,-17569 -154748.7,-155142 -132641.6,-193193 22106.9,-40981 135802.4,-263455 274756.1,-468348 252649.3,-377605.7 296863.1,-1056706.6 296863.1,-1056706.6 l 53686.9,49760.8 z"
       id="path27"
       style="fill:#efbb22;fill-opacity:1;fill-rule:evenodd"
       inkscape:connector-curvature="0" />
    <path
       transform="matrix(1,0,0,1.0125003,0.28990097,-111152.78)"
       d="m 4941464.1,3779332.1 c 0,0 230542.4,-336616 0,-673241.3 0,0 170543.4,-354185.8 126329.6,-579579.3 -41062.8,-222463.5 -334764.9,-1085977.4 -1408522,-1047926.6 -1076917.9,38050.8 -1834855.5,749352.2 -2024345,860584.1 -189489.5,114161.5 -397924.9,281013.9 -524244.5,58550.3 0,0 -85266.8,187333.3 18946,298565.2 107373.6,108302 233703.2,184412.8 423182.7,108302 0,0 -442128.7,600069.5 -486342.5,787412.3 -41053,187333.3 -63159.9,187333.3 -230542.48,131722.2 0,0 22106.93,169772.8 126319.65,187342.5 104222.83,20481.1 252649.33,93662.2 356871.93,-55620.5 0,0 -189489.3,412726.9 -126329.6,655680.9 85276.8,319064.8 -18945.9,617639.3 -104212.7,676180.4 0,0 337916.2,73181 505298.6,-131722.3 0,0 -22106.9,1012796.6 -315809.1,1328931.6 0,0 337916,131722.2 483181.7,-73181 0,0 -252649.4,1422602.8 -1452725.95,3486256.4 0,0 401075.85,128791 716894.95,-450787 0,0 356862,111231 631618.2,-450778.3 0,0 672681,20490.4 884267.3,-954255.4 0,0 442138.8,93662.1 631628.2,-523967.9 0,0 442128.8,0 568458.5,-582499.9 0,0 380275.2,133413.6 568458.3,-523967.9 120925,-422440.6 195851.3,-700450.8 259001.2,-1449812.3 166146,435000.9 302467.1,70436 332351.8,-36322.5 117086.1,-418337 40265.2,-1045865.7 40265.2,-1045865.7 z"
       id="path29"
       style="fill:#ffffff;fill-opacity:1;fill-rule:evenodd;stroke:#efbb22;stroke-width:87936.21875;stroke-opacity:1"
       inkscape:connector-curvature="0" />
    <path
       transform="matrix(1,0,0,1.0125003,0.28990097,-111152.78)"
       d="M 6479466.7,11553887 C 4350898.8,11533397 2904485,10312767 2904485,10312767 c -22107,81962 -461084.7,386386 -461084.7,386386 0,0 -44214,172703 -284229.2,81961 -322121,-120012 -438977.7,-649831 -438977.7,-649831 0,61472 -527405.5,263446 -527405.5,263446 22107,-181484 22107,-304426 0,-506400 -22106.9,-204902 -41052.8,-184412 416870.9,-632270 461084.7,-447856.2 527405.4,-20490 571619.2,-81961 0,0 44213.9,-58540 195801.5,-181482.4 154748.6,-122941.9 593726.3,-509328.1 900062.4,-201973.2 1367459,1355281.6 2829667.8,1402112.6 3202324.8,1402112.6 372656.8,0 1831704.7,-46831 3199163.7,-1402112.6 306336.2,-307354.9 745314.6,79031.3 900063.6,201973.2 151587,122942.4 195800,181482.4 195800,181482.4 44214,61471 110535,-365895.2 571620,81961 461085,447858 438978,427368 416871,632270 -22107,201974 -22107,324916 0,506400 0,0 -527405,-201974 -527405,-263446 0,0 -113696,538600 -438978,649831 -208436,70252 -284230,-81961 -284230,-81961 0,0 -438977,-304424 -461084,-386386 0,0 -1446414.4,1261610 -3571821.3,1241120 z"
       id="path31"
       style="fill:#ffffff;fill-opacity:1;fill-rule:evenodd"
       inkscape:connector-curvature="0" />
    <path
       transform="matrix(1,0,0,1.0125003,0.28990097,-111152.78)"
       d="m 2938148.9,10339902 c -22097,-17422 -33663.9,-27145 -33663.9,-27145 -22107,81963 -461084.7,386387 -461084.7,386387 0,0 -688.1,2680 -2343.4,7190 -16522.8,-60971 -44532.9,-158839 -69780.9,-221243 -38889.1,-96120 -226852.9,-264332 -362964.5,-450565 -136111.7,-186234 -116667.1,-384483 -116667.1,-384483 0,0 84259.5,-90113 149074.7,-84105 64815.1,6008 207408.3,108135 408335.1,282354 200926.7,174218 492594.7,486610 492594.7,486610 l -3500,5000 z m -1217247.5,-205597 -708,-3031 c 0,61472 -527405.5,263446 -527405.5,263446 22107,-181484 22107,-304426 0,-506400 -9592.6,-88883 -18537,-135354 11726.6,-196030 27441.8,-9113 68843.7,-20731 110275.4,-24225 71296.7,-6007 149074.8,12016 265741.9,102129 98100.1,75769 132053.4,295940 140369.6,364111 z M 11760960,9712401 c 19016,51628 10580,97083 2075,175919 -22108,201974 -22108,324916 0,506400 0,0 -445181,-170458 -517494,-245830 5025,-52145 29905,-262428 109159,-330635 90741,-78098 149075,-150190 285186,-132167 42788,5666 84269,15509 121074,26313 z m -1269817,971853 c -87989,-62034 -420630,-300413 -439806,-371497 0,0 -21488,18716 -62731.4,51332 l -1505,-11165 c 0,0 213890.4,-180225 557410.4,-516647 343520,-336423 369446,-258324 434261,-270339 64815,-12016 84259,78097 84259,78097 0,0 0,126159 -32407,216272 -32407,90114 -168519,300377 -362964,510641 -194446,210263 -175001,312391 -175001,312391 l -1516,915 z"
       id="path33"
       style="fill:#ffffff;fill-opacity:1;fill-rule:evenodd"
       inkscape:connector-curvature="0" />
    <g
       style="fill-rule:evenodd"
       id="_103757528"
       transform="matrix(0.99715544,0,0,0.93578938,18487.827,-66598.857)">
      <path
         id="_104419856"
         d="m 5119610,8200970 c -222100,338530 -641230,853230 -1291080,1177160 -129850,66510 -186860,88680 -98180,167860 88680,76010 177360,174190 342050,107680 138800,-56050 902960,-539570 1244080,-1217270 -68350,-76220 -134000,-154690 -196870,-235430 z"
         style="fill:#efbb22;fill-opacity:1"
         inkscape:connector-curvature="0" />
      <path
         id="_104431664"
         d="m 5384270,8510300 c -190330,344590 -552050,863070 -1144010,1222550 -123520,72840 -174200,98180 -82350,167850 91850,66510 183690,155190 338880,79180 126980,-66140 817310,-585320 1098540,-1258430 -72690,-68250 -143070,-138630 -211060,-211150 z"
         style="fill:#efbb22;fill-opacity:1"
         inkscape:connector-curvature="0" />
      <path
         id="_100122360"
         d="m 5701900,8818540 c -177920,352920 -515700,877160 -1081590,1256350 -120350,79180 -171020,107690 -76010,171030 95010,63340 190030,148850 342050,63340 124180,-68700 788350,-618030 1041870,-1302110 -77430,-60810 -152910,-123680 -226320,-188610 z"
         style="fill:#efbb22;fill-opacity:1"
         inkscape:connector-curvature="0" />
      <path
         id="_100122256"
         d="m 6036160,9089590 c -131040,293890 -382720,726660 -858440,1222840 -98180,104510 -158350,120350 -60170,177360 98180,57010 288210,142520 430730,50670 117880,-76880 553000,-674300 723170,-1285440 -80070,-53210 -158550,-108350 -235290,-165430 z"
         style="fill:#efbb22;fill-opacity:1"
         inkscape:connector-curvature="0" />
      <path
         id="_104323120"
         d="m 7891130,8188780 c 221370,338500 640240,855050 1289830,1179850 133020,66510 186860,88680 98180,164690 -85510,76010 -174190,177360 -338880,110850 -138850,-56070 -901250,-542150 -1243390,-1220940 67450,-75920 132230,-154070 194260,-234450 z"
         style="fill:#efbb22;fill-opacity:1"
         inkscape:connector-curvature="0" />
      <path
         id="_102633280"
         d="m 7628950,8497920 c 190880,345220 553120,864540 1143450,1222260 120350,76010 171030,101350 82350,167850 -91850,66510 -183700,155190 -338880,79180 -129550,-63450 -815190,-583840 -1097180,-1257040 72440,-68600 142550,-139370 210260,-212250 z"
         style="fill:#efbb22;fill-opacity:1"
         inkscape:connector-curvature="0" />
      <path
         id="_104350776"
         d="m 7313050,8807180 c 177060,353540 513630,877930 1079300,1255050 117180,79170 167860,107680 76010,171020 -95010,63340 -193200,148860 -342050,66510 -126670,-71250 -787510,-619710 -1039270,-1302630 77360,-61250 152730,-124570 226010,-189950 z"
         style="fill:#efbb22;fill-opacity:1"
         inkscape:connector-curvature="0" />
      <path
         id="_105174832"
         d="m 6979480,9079970 c 130540,294200 381220,726620 855460,1222960 95010,101340 158350,117180 60170,174190 -95010,57010 -285040,145690 -430730,50670 -115170,-74210 -550820,-669610 -722180,-1279790 80790,-54040 159930,-110020 237280,-168030 z"
         style="fill:#efbb22;fill-opacity:1"
         inkscape:connector-curvature="0" />
    </g>
    <path
       transform="matrix(1,0,0,1.0125003,0.28990097,-111152.78)"
       d="m 7944826.4,4519913.3 309497.2,-608849.8 c -274756.2,-81961.2 -176855.4,-447857.1 -176855.4,-447857.1 -176855.6,-81961.3 -524244.6,-728871.1 -524244.6,-728871.1 l 221069.3,-40980.7 c -176855.5,-81961.3 -394763.8,-406876.4 -394763.8,-406876.4 l 262122.3,-40980.7 c -132641.7,-38050.7 -350550.2,-485907.9 -350550.2,-485907.9 l 262122.4,0 c -262122.4,-81961.3 -587404.4,-749352.2 -963222.2,-1015726.25 -483191.7,-348326.2 -1095863.9,-122942 -1095863.9,-122942 0,0 -438977.7,-40980.6 -483191.6,201982.6 0,0 483191.6,40980.6 568458.3,245874.55 0,0 -360022.9,-286855.25 -558985.3,-73171.75 0,0 296863.1,-8789.6 341077,193193.15 0,0 -44213.9,163913.2 132641.6,570789.7 0,0 -176855.5,242954 -176855.5,447857.2 0,201973.3 88427.7,848883.2 -262122.2,889863.8 l -176855.5,283934.5 c 0,0 132641.6,447857.2 -173694.6,570789.8 l 306336.2,567878.4 2933880.5,0 z"
       id="path44"
       style="fill:#ffffff;fill-opacity:1;fill-rule:evenodd;stroke:#efbb22;stroke-width:58624.15234375;stroke-opacity:1"
       inkscape:connector-curvature="0" />
    <path
       transform="matrix(1,0,0,1.0125003,0.28990097,-111152.78)"
       d="m 7028979.1,1493224.8 c -88427.8,-60491.3 -176855.6,-120991.8 -265283.3,-181492.4 109487.7,142461.9 218965.4,284905.1 328443.1,427366.8 -160003.5,-94650.9 -320017.2,-189292.7 -480030.6,-283934.4 35797.9,94641.7 71585.7,189283.5 107373.7,283934.4 -116846.7,-121971.4 -233693.4,-243933.5 -350550,-365895.7 m -678993.1,140511.7 c 0,0 66320.8,143422.8 22107,245874.4 m 328443,-245874.4 c 0,0 -66320.8,204893.8 -44213.9,266364.7 0,0 -107373.6,-266364.7 -173694.5,-304424.8 m 546351.5,38060.1 c 0,0 22107,122932.5 22107,204893.8 0,0 -173694.6,-163913.3 -240015.4,-225384.2"
       id="path46"
       style="fill:none;stroke:#efbb22;stroke-width:58624.15234375;stroke-opacity:1"
       inkscape:connector-curvature="0" />
    <path
       transform="matrix(1,0,0,1.0125003,0.28990097,-111152.78)"
       d="m 7291101.2,2166466.2 c 0,0 -93313.7,-81443.9 -110534.6,-163922.6 -43166.7,94651.1 -86323.8,189302.1 -129480.6,283934.6 0,0 -271665,-186409.2 -309497.1,-304424.9 -14917.5,119679.3 -63159.8,204903.1 -129480.6,242963.2 -66320.8,-94641.9 -132641.6,-189292.9 -198962.4,-283943.9 0,0 -150939.4,175577.1 -217908.5,266374.2 0,0 -139133,-147027.6 -198962.4,-245883.8 -43156.8,94651 -86313.7,189302 -129480.6,283934.5 -58951.8,-101462.6 -117893.6,-202934.5 -176855.5,-304424.9 0,0 -22106.9,184412.9 -110534.7,245883.8"
       id="path48"
       style="fill:none;stroke:#efbb22;stroke-width:58624.15234375;stroke-opacity:1"
       inkscape:connector-curvature="0" />
    <path
       transform="matrix(1,0,0,1.0125003,0.28990097,-111152.78)"
       d="m 7486902.8,2631883.7 c -35797.9,-46831.1 -71595.8,-93662.1 -107373.7,-140502.4 0,0 -22107,242954 -66320.9,301504.4 0,0 -240015.2,-181492.4 -262122.2,-321994.7 0,0 -198962.5,181483 -243176.3,242954 0,0 -172637.4,-117045.3 -195801.4,-304424.9 -45280.9,97183.3 -110534.7,324915.2 -132641.6,383465.6 0,0 -204925.4,-178793.6 -217908.5,-362975.3 -69122.7,110436.9 -132641.6,324915.3 -221069.3,362975.3 0,0 -175010.8,-168968.9 -195801.4,-383465.6 -75165.6,166399.5 -95208.4,258665.9 -176855.5,324915.2 -44213.8,-115122.8 -88427.8,-230264.3 -132641.6,-345405.5 0,0 0,163922.5 -85266.9,242953.9"
       id="path50"
       style="fill:none;stroke:#efbb22;stroke-width:58624.15234375;stroke-opacity:1"
       inkscape:connector-curvature="0" />
    <path
       transform="matrix(1,0,0,1.0125003,0.28990097,-111152.78)"
       d="m 7619544.4,3056330 c 0,0 -22107,143432.1 -110534.7,245874.4 0,0 -240015.3,-245874.4 -262122.3,-327835.7 0,0 -132641.6,286855.2 -195801.4,365895.8 -143719.9,-164939.2 -168429.4,-222907.2 -243176.3,-345405.5 0,0 -66320.8,225393.4 -129480.6,307345.4 0,0 -126808.2,-200106.3 -154748.5,-348326.1 -45300.8,112645.9 -110534.7,307345.6 -221069.4,365895.9 -87380.7,-127821.8 -174751.6,-255634.5 -262122.3,-383465.7 0,0 -110534.6,242963.3 -173694.5,304434.3 0,0 -84578.7,-118764.3 -176855.5,-324924.5 -38131.1,77312.3 -110534.7,222472.9 -154748.5,283943.8 0,0 -129480.7,-204903.1 -107373.7,-283943.8"
       id="path52"
       style="fill:none;stroke:#efbb22;stroke-width:58624.15234375;stroke-opacity:1"
       inkscape:connector-curvature="0" />
    <path
       transform="matrix(1,0,0,1.0125003,0.28990097,-111152.78)"
       d="m 6271031.2,1139029.7 c -66320.7,-70251.2 -101061.7,-117082.2 -148436.4,-196113.75 -69471.9,-122941.8 -240015.4,-38060 -378969.1,-46840.3 22107,-5850.3 41053,5859.7 41053,20490.4 0,84891.15 50535.7,187342.75 157909.6,201973.45 97900.6,11710.1 189489.3,-20490.4 284229.1,-14630.7 15784.9,0 28418.9,20490.3 44213.8,35120.9 z"
       id="path54"
       style="fill:#ffffff;fill-opacity:1;fill-rule:evenodd"
       inkscape:connector-curvature="0" />
    <g
       clip-path="url(#id0-4-1)"
       id="g56"
       style="fill:#efbb22;fill-opacity:1;fill-rule:evenodd"
       transform="matrix(0.99715544,0,0,0.93578938,18487.827,-66598.857)">
      <g
         id="_45709960"
         style="fill:#efbb22;fill-opacity:1">
        <path
           id="_466408241"
           d="m 5918830,1096110 c -60180,0 -107680,-50670 -107680,-110840 0,-60180 47500,-107690 107680,-107690 60170,0 107680,47510 107680,107690 0,60170 -47510,110840 -107680,110840 z"
           style="fill:#efbb22;fill-opacity:1"
           inkscape:connector-curvature="0" />
      </g>
    </g>
    <path
       transform="matrix(1,0,0,1.0125003,0.28990097,-111152.78)"
       d="m 6271031.2,1139029.7 c -66320.7,-70251.2 -101061.7,-117082.2 -148436.4,-196113.75 -69471.9,-122941.8 -240015.4,-38060 -378969.1,-46840.3 22107,-5850.3 41053,5859.7 41053,20490.4 0,84891.15 50535.7,187342.75 157909.6,201973.45 97900.6,11710.1 189489.3,-20490.4 284229.1,-14630.7 15784.9,0 28418.9,20490.3 44213.8,35120.9 z"
       id="path60"
       style="fill:none;stroke:#efbb22;stroke-width:58624.15234375;stroke-opacity:1"
       inkscape:connector-curvature="0" />
    <path
       transform="matrix(1,0,0,1.0125003,0.28990097,-111152.78)"
       d="m 5592038.2,1139029.7 c -6321.9,-49760.8 28419,-38050.8 -12634,-70251.2 0,0 -360022.9,-286855.25 -558985.3,-73171.75 0,0 266070.9,-7856.1 331923.1,162702.55 86513.1,-18041.1 171141.8,-32422.2 239696.2,-19279.6 z m -12634,-70251.2 c 97900.7,-99521.75 82115.8,-351255.95 -22106.8,-459557.95 l -5913.3,-6081.5 c -36575.5,10222.1 -57246.6,17782.3 -57246.6,17782.3 0,0 -438977.7,-40980.6 -483191.6,201982.6 0,0 483191.6,40980.6 568458.3,245874.55 z"
       id="path62"
       style="fill:#ffffff;fill-opacity:1;fill-rule:evenodd;stroke:#efbb22;stroke-width:58624.15234375;stroke-opacity:1"
       inkscape:connector-curvature="0" />
    <path
       transform="matrix(1,0,0,1.0125003,0.28990097,-111152.78)"
       d="m 8058522.1,3779332.1 c 0,0 -230542.3,-336616 0,-673241.3 0,0 -170543.5,-354185.8 -126329.6,-579579.3 41062.9,-222463.5 334765,-1085977.4 1408521.9,-1047926.6 1076918.6,38050.8 1834856.6,749352.2 2024345.6,860584.1 189489,114161.5 397925,281013.9 524245,58550.3 0,0 85267,187333.3 -18947,298565.2 -107373,108302 -233702,184412.8 -423182,108302 0,0 442129,600069.5 486343,787412.3 41053,187333.3 63160,187333.3 230542,131722.2 0,0 -22107,169772.8 -126320,187342.5 -104222,20481.1 -252649,93662.2 -356871,-55620.5 0,0 189488,412726.9 126329,655680.9 -85277,319064.8 18946,617639.3 104212,676180.4 0,0 -337916,73181 -505299,-131722.3 0,0 22108,1012796.6 315810,1328931.6 0,0 -337916,131722.2 -483182,-73181 0,0 252650,1422602.8 1452725,3486256.4 0,0 -401075,128791 -716893,-450787 0,0 -356863,111231 -631618,-450778.3 0,0 -672682,20490.4 -884268,-954255.4 0,0 -442139,93662.1 -631628.9,-523967.9 0,0 -442128.8,0 -568458.5,-582499.9 0,0 -380275.1,133413.6 -568458.3,-523967.9 -120925.1,-422440.6 -195851.2,-700450.8 -259001.1,-1449812.3 -166146.1,435000.9 -302467.2,70436 -332352,-36322.5 -117085.9,-418337 -40265.1,-1045865.7 -40265.1,-1045865.7 z"
       id="path64"
       style="fill:#ffffff;fill-opacity:1;fill-rule:evenodd;stroke:#efbb22;stroke-width:87936.21875;stroke-opacity:1"
       inkscape:connector-curvature="0" />
    <g
       style="fill-rule:evenodd"
       id="_140533680"
       transform="matrix(0.99715544,0,0,0.93578938,18487.827,-66598.857)">
      <path
         id="_103631224"
         d="M 11461300,2986880 C 11356780,2869700 10447820,1938570 9412170,1938570"
         style="fill:none;stroke:#efbb22;stroke-width:91599.8828125;stroke-opacity:1"
         inkscape:connector-curvature="0" />
      <path
         id="_105021888"
         d="m 9456500,2280620 c 0,0 861460,76010 1456870,687260 528910,547910 782280,1156000 782280,1156000"
         style="fill:none;stroke:#efbb22;stroke-width:91599.8828125;stroke-opacity:1"
         inkscape:connector-curvature="0" />
      <path
         id="_46525000"
         d="m 9497670,2606830 c 0,0 617590,139350 1076820,503570 253370,202700 677770,709440 741110,1095820 63340,383230 104510,1013480 104510,1216180"
         style="fill:none;stroke:#efbb22;stroke-width:91599.8828125;stroke-opacity:1"
         inkscape:connector-curvature="0" />
      <path
         id="_104656736"
         d="m 9538840,2986880 c 107690,41180 497240,129860 867800,427570 253360,202690 547910,608080 592250,1317520 41170,709430 -22170,1276350 253370,2049120"
         style="fill:none;stroke:#efbb22;stroke-width:91599.8828125;stroke-opacity:1"
         inkscape:connector-curvature="0" />
      <path
         id="_139206144"
         d="m 9412160,3271930 c 171020,82340 1121160,304040 1225670,1542380 107690,1235180 126690,2068130 465570,2980260 253370,680930 886790,2270820 886790,2270820"
         style="fill:none;stroke:#efbb22;stroke-width:91599.8828125;stroke-opacity:1"
         inkscape:connector-curvature="0" />
      <path
         id="_104642216"
         d="m 11356800,9577660 c 0,0 -630260,-1374530 -845620,-2248660 -253370,-1035640 -262870,-2090290 -275540,-2372170 -19000,-570080 -41170,-953300 -801280,-1238340"
         style="fill:none;stroke:#efbb22;stroke-width:91599.8828125;stroke-opacity:1"
         inkscape:connector-curvature="0" />
      <path
         id="_103540272"
         d="m 9348820,4063700 c 126680,19010 500400,142520 487730,1013480 -22170,1441040 566920,3306470 633430,3468000"
         style="fill:none;stroke:#efbb22;stroke-width:91599.8828125;stroke-opacity:1"
         inkscape:connector-curvature="0" />
      <path
         id="_103540104"
         d="m 9158790,4446930 c 85510,22170 288210,-60180 275540,649260 -22170,1136990 275540,2394340 402220,2882070"
         style="fill:none;stroke:#efbb22;stroke-width:91599.8828125;stroke-opacity:1"
         inkscape:connector-curvature="0" />
      <path
         id="_103508624"
         d="m 8886420,4956830 c 0,0 0,1133830 380050,2391180"
         style="fill:none;stroke:#efbb22;stroke-width:91599.8828125;stroke-opacity:1"
         inkscape:connector-curvature="0" />
    </g>
    <path
       transform="matrix(1,0,0,1.0125003,0.28990097,-111152.78)"
       d="m 7764819.9,4247679.5 c 0,0 208435.5,-655680.7 587404.4,-728861.8 0,0 -63159.9,-319055.6 230542.3,-488837.7 0,0 -271595.2,-333695.5 -208435.4,-597139.7 63159.9,-260514.6 183167.5,-649830.6 735840.9,-749352.3 185131.9,-33291 181861.2,-82922.4 167352.6,-200947.4 15196.7,-3410.4 9931.6,-4732.1 63189.7,-3955.7 22765.2,172009.5 44213.9,412726.9 85266.7,544449 41053,128801.5 189489.5,913274.6 -22106.9,1045006.1 0,0 85266.8,506398.3 -18945.9,676171.2 -107373.7,166852.3 -211596.3,447857 -378978.9,485907.9 0,0 -44213.9,676180.5 -757947.8,676180.5 l -12624,-105381.6 -470557.7,-553238.5 z"
       id="path76"
       style="fill:#efbb22;fill-opacity:1;fill-rule:evenodd"
       inkscape:connector-curvature="0" />
    <g
       style="fill-rule:evenodd"
       id="_105015632"
       transform="matrix(0.99715544,0,0,0.93578938,18487.827,-66598.857)">
      <path
         id="_46103624"
         d="M 1538700,2986880 C 1643220,2869700 2552180,1938570 3587830,1938570"
         style="fill:none;stroke:#efbb22;stroke-width:91599.8828125;stroke-opacity:1"
         inkscape:connector-curvature="0" />
      <path
         id="_104746024"
         d="m 3543490,2280620 c 0,0 -861460,76010 -1456870,687260 -528910,547910 -782280,1156000 -782280,1156000"
         style="fill:none;stroke:#efbb22;stroke-width:91599.8828125;stroke-opacity:1"
         inkscape:connector-curvature="0" />
      <path
         id="_139342672"
         d="m 3502320,2606830 c 0,0 -617590,139350 -1076820,503570 -253370,202700 -677770,709440 -741110,1095820 -63340,383230 -104510,1013480 -104510,1216180"
         style="fill:none;stroke:#efbb22;stroke-width:91599.8828125;stroke-opacity:1"
         inkscape:connector-curvature="0" />
      <path
         id="_139342608"
         d="m 3461150,2986880 c -107690,41180 -497240,129860 -867790,427570 -253370,202690 -547920,608080 -592260,1317520 -41170,709430 22170,1276350 -253370,2049120"
         style="fill:none;stroke:#efbb22;stroke-width:91599.8828125;stroke-opacity:1"
         inkscape:connector-curvature="0" />
      <path
         id="_105551120"
         d="m 3587830,3271930 c -171020,82340 -1121160,304040 -1225670,1542380 -107690,1235180 -126690,2068130 -465570,2980260 -253370,680930 -886790,2270820 -886790,2270820"
         style="fill:none;stroke:#efbb22;stroke-width:91599.8828125;stroke-opacity:1"
         inkscape:connector-curvature="0" />
      <path
         id="_105551040"
         d="m 1643220,9577660 c 0,0 630260,-1374530 845620,-2248660 253370,-1035640 262870,-2090290 275540,-2372170 19000,-570080 41170,-953300 801280,-1238340"
         style="fill:none;stroke:#efbb22;stroke-width:91599.8828125;stroke-opacity:1"
         inkscape:connector-curvature="0" />
      <path
         id="_102259512"
         d="m 3651170,4063700 c -126680,19010 -500400,142520 -487730,1013480 22170,1441040 -566920,3306470 -633430,3468000"
         style="fill:none;stroke:#efbb22;stroke-width:91599.8828125;stroke-opacity:1"
         inkscape:connector-curvature="0" />
      <path
         id="_99299256"
         d="m 3841200,4446930 c -85510,22170 -288210,-60180 -275540,649260 22170,1136990 -275540,2394340 -402220,2882070"
         style="fill:none;stroke:#efbb22;stroke-width:91599.8828125;stroke-opacity:1"
         inkscape:connector-curvature="0" />
      <path
         id="_105015672"
         d="m 4113570,4956830 c 0,0 0,1133830 -380050,2391180"
         style="fill:none;stroke:#efbb22;stroke-width:91599.8828125;stroke-opacity:1"
         inkscape:connector-curvature="0" />
    </g>
    <path
       transform="matrix(1,0,0,1.0125003,0.28990097,-111152.78)"
       d="m 10404958,10233708 c -31579,0 -56847,-23420 -56847,-55620 0,-29271 25268,-52683 56847,-52683 31580,0 56838,23412 56838,52683 0,32200 -25258,55620 -56838,55620 z"
       id="path88"
       style="fill:#1f1a17;fill-rule:evenodd;stroke:#1f1a17;stroke-width:7315.22802734"
       inkscape:connector-curvature="0" />
    <g
       style="fill-rule:evenodd"
       id="_47344672"
       transform="matrix(0.99715544,0,0,0.93578938,18487.827,-66598.857)">
      <path
         id="_47639088"
         d="m 10786700,9878530 c 88680,88680 221700,288210 266040,395890 41170,110850 63340,310380 -155190,639760 -221700,329380 -373720,395890 -373720,614420"
         style="fill:none;stroke:#efbb22;stroke-width:61066.58984375;stroke-opacity:1"
         inkscape:connector-curvature="0" />
      <path
         id="_99394064"
         d="m 11755800,10451800 c -110850,-44340 -395890,-88680 -506740,462400"
         style="fill:none;stroke:#efbb22;stroke-width:53340;stroke-opacity:1"
         inkscape:connector-curvature="0" />
      <path
         id="_100301656"
         d="m 11071700,10385300 c -107680,-129850 -174190,-110850 -525740,266040 -351550,373720 -351550,351550 -484570,459230"
         style="fill:none;stroke:#efbb22;stroke-width:61066.58984375;stroke-opacity:1"
         inkscape:connector-curvature="0" />
    </g>
    <g
       style="fill-rule:evenodd"
       id="_100125792"
       transform="matrix(0.99715544,0,0,0.93578938,18487.827,-66598.857)">
      <path
         id="_47344584"
         d="m 2156290,9900700 c -85510,88680 -209030,253370 -250200,364220 -44340,110850 -66510,307210 152020,636590 221700,332550 373720,395890 373720,617590"
         style="fill:none;stroke:#efbb22;stroke-width:61066.58984375;stroke-opacity:1"
         inkscape:connector-curvature="0" />
      <path
         id="_46467312"
         d="m 1199820,10442300 c 110850,-44340 395890,-88680 506740,459230"
         style="fill:none;stroke:#efbb22;stroke-width:61066.58984375;stroke-opacity:1"
         inkscape:connector-curvature="0" />
      <path
         id="_102379224"
         d="m 1883920,10375800 c 107680,-133020 174190,-110850 525740,262870 351550,373720 351550,351550 484570,462400"
         style="fill:none;stroke:#efbb22;stroke-width:61066.58984375;stroke-opacity:1"
         inkscape:connector-curvature="0" />
    </g>
    <path
       transform="matrix(1,0,0,1.0125003,0.28990097,-111152.78)"
       d="m 5238327.2,4247679.5 c 0,0 -208435.4,-655680.7 -587404.3,-728861.8 0,0 63159.8,-319055.6 -230542.4,-488837.7 0,0 271595.2,-333695.5 208435.5,-597139.7 -63159.8,-260514.6 -183167.5,-649830.6 -735840.9,-749352.3 -185131.9,-33291 -181861.2,-82922.4 -167352.7,-200947.4 -15196.6,-3410.4 -9931.6,-4732.1 -63189.7,-3955.7 -22765,172009.5 -44213.8,412726.9 -85266.7,544449 -41052.8,128801.5 -189489.5,913274.6 22107,1045006.1 0,0 -85266.8,506398.3 18945.9,676171.2 107373.6,166852.3 211596.4,447857 378978.8,485907.9 0,0 44214,676180.5 757947.8,676180.5 l 12624.1,-105381.6 470557.6,-553238.5 z"
       id="path98"
       style="fill:#efbb22;fill-opacity:1;fill-rule:evenodd"
       inkscape:connector-curvature="0" />
    <g
       style="fill:#ffffff;fill-rule:evenodd"
       id="_104435904"
       transform="matrix(0.99715544,0,0,0.93578938,18487.827,-66598.857)">
      <g
         style="fill:#ffffff"
         id="g101">
        <path
           id="_103560856"
           d="m 10875400,10584800 c 41170,-57010 66510,-186860 -66510,-297710 -107680,-88680 -152020,-98180 -174190,-142520 0,0 -66510,152020 -12670,285040 25340,60180 120350,329380 253370,155190 z"
           style="fill:#ffffff;fill-opacity:1;stroke:#efbb22;stroke-width:61066.58984375;stroke-opacity:1"
           inkscape:connector-curvature="0" />
        <path
           id="_102668768"
           d="m 10698000,10825500 c 47510,-50670 60180,-158350 -38010,-259700 -104510,-101350 -253360,-72850 -281870,-114020 -28500,-41170 3170,199530 38010,288210 0,0 161520,218530 281870,85510 z"
           style="fill:#ffffff;fill-opacity:1;stroke:#efbb22;stroke-width:61066.58984375;stroke-opacity:1"
           inkscape:connector-curvature="0" />
        <path
           id="_102631856"
           d="m 10466800,11047200 c 53840,-47510 28500,-199530 -82340,-285040 -114020,-91850 -190030,-85510 -228040,-117180 -50670,-38010 -72840,215360 15840,310370 91840,98180 218530,155190 294540,91850 z"
           style="fill:#ffffff;fill-opacity:1;stroke:#efbb22;stroke-width:61066.58984375;stroke-opacity:1"
           inkscape:connector-curvature="0" />
      </g>
      <g
         style="fill:#ffffff"
         id="g106">
        <path
           id="_103653024"
           d="m 2520510,11025000 c -104510,-72840 57010,-250200 60180,-253370 117180,-91850 266030,-79180 297710,-114020 31670,-38000 -15840,212200 -72850,297710 0,0 -142520,167860 -285040,69680 z"
           style="fill:#ffffff;fill-opacity:1;stroke:#efbb22;stroke-width:61066.58984375;stroke-opacity:1"
           inkscape:connector-curvature="0" />
        <path
           id="_102928352"
           d="m 2102450,10607000 c -88680,-66510 -44340,-313540 88680,-351550 76010,-22170 133020,-44340 152020,-88680 22170,-44340 -9500,186860 -9500,253370 0,63340 -110850,275540 -231200,186860 z"
           style="fill:#ffffff;fill-opacity:1;stroke:#efbb22;stroke-width:61066.58984375;stroke-opacity:1"
           inkscape:connector-curvature="0" />
        <path
           id="_105874096"
           d="m 2289310,10803300 c -6330,-6330 -85510,-133020 28510,-247030 104510,-104520 240700,-142520 269200,-183700 28500,-38000 34840,240700 6340,300880 69670,-145690 -95020,338880 -304050,129850 z"
           style="fill:#ffffff;fill-opacity:1;stroke:#efbb22;stroke-width:61066.58984375;stroke-opacity:1"
           inkscape:connector-curvature="0" />
      </g>
    </g>
    <path
       transform="matrix(0.99715544,0,0,0.93578938,18487.827,-66598.857)"
       id="_103806952"
       d="m 8686890,8009930 c 0,0 519410,-291370 297710,-440230 -199530,-129850 -319880,231200 -297710,440230 z"
       style="fill:#ffffff;fill-opacity:1;fill-rule:evenodd;stroke:#efbb22;stroke-width:61066.58984375;stroke-opacity:1"
       inkscape:connector-curvature="0" />
    <path
       transform="matrix(0.99715544,0,0,0.93578938,18487.827,-66598.857)"
       id="_104449368"
       d="m 8544370,8275970 c 0,0 380050,-452900 34840,-734770 0,0 -278710,250200 -34840,734770 z"
       style="fill:#ffffff;fill-opacity:1;fill-rule:evenodd;stroke:#efbb22;stroke-width:61066.58984375;stroke-opacity:1"
       inkscape:connector-curvature="0" />
    <path
       transform="matrix(0.99715544,0,0,0.93578938,18487.827,-66598.857)"
       id="_104645832"
       d="m 8544370,8275970 c 0,0 95010,-456060 608090,-389550 0,0 -164690,475060 -608090,389550 z"
       style="fill:#ffffff;fill-opacity:1;fill-rule:evenodd;stroke:#efbb22;stroke-width:61066.58984375;stroke-opacity:1"
       inkscape:connector-curvature="0" />
    <path
       transform="matrix(0.99715544,0,0,0.93578938,18487.827,-66598.857)"
       id="_103805496"
       d="m 8446190,8538840 c 0,0 47510,-433890 554240,-367380 0,0 -60170,332540 -554240,367380 z"
       style="fill:#ffffff;fill-opacity:1;fill-rule:evenodd;stroke:#efbb22;stroke-width:61066.58984375;stroke-opacity:1"
       inkscape:connector-curvature="0" />
    <path
       transform="matrix(0.99715544,0,0,0.93578938,18487.827,-66598.857)"
       id="_101932816"
       d="m 8411350,8526170 c 0,0 357890,-418060 12670,-699930 0,0 -300880,310380 -12670,699930 z"
       style="fill:#ffffff;fill-opacity:1;fill-rule:evenodd;stroke:#efbb22;stroke-width:61066.58984375;stroke-opacity:1"
       inkscape:connector-curvature="0" />
    <path
       transform="matrix(0.99715544,0,0,0.93578938,18487.827,-66598.857)"
       id="_103627632"
       d="m 8300500,8757370 c 0,0 60180,-389550 566920,-323040 0,0 -120350,411720 -566920,323040 z"
       style="fill:#ffffff;fill-opacity:1;fill-rule:evenodd;stroke:#efbb22;stroke-width:61066.58984375;stroke-opacity:1"
       inkscape:connector-curvature="0" />
    <path
       transform="matrix(0.99715544,0,0,0.93578938,18487.827,-66598.857)"
       id="_99049696"
       d="m 8281500,8792210 c 0,0 357880,-421220 12670,-703100 0,0 -278710,250200 -12670,703100 z"
       style="fill:#ffffff;fill-opacity:1;fill-rule:evenodd;stroke:#efbb22;stroke-width:61066.58984375;stroke-opacity:1"
       inkscape:connector-curvature="0" />
    <path
       transform="matrix(0.99715544,0,0,0.93578938,18487.827,-66598.857)"
       id="_104486544"
       d="m 8113640,9032910 c 0,0 370550,-399050 25340,-677760 0,0 -285040,215360 -25340,677760 z"
       style="fill:#ffffff;fill-opacity:1;fill-rule:evenodd;stroke:#efbb22;stroke-width:61066.58984375;stroke-opacity:1"
       inkscape:connector-curvature="0" />
    <path
       transform="matrix(0.99715544,0,0,0.93578938,18487.827,-66598.857)"
       id="_101206832"
       d="m 8113640,9032910 c 0,0 91850,-399050 598590,-332540 0,0 -152020,421220 -598590,332540 z"
       style="fill:#ffffff;fill-opacity:1;fill-rule:evenodd;stroke:#efbb22;stroke-width:61066.58984375;stroke-opacity:1"
       inkscape:connector-curvature="0" />
    <path
       transform="matrix(0.99715544,0,0,0.93578938,18487.827,-66598.857)"
       id="_101206728"
       d="m 7971120,9286280 c 0,0 79180,-386390 633430,-367380 0,0 -186860,452890 -633430,367380 z"
       style="fill:#ffffff;fill-opacity:1;fill-rule:evenodd;stroke:#efbb22;stroke-width:61066.58984375;stroke-opacity:1"
       inkscape:connector-curvature="0" />
    <path
       transform="matrix(0.99715544,0,0,0.93578938,18487.827,-66598.857)"
       id="_101024624"
       d="m 7939450,9264110 c 0,0 361050,-218530 57010,-690430 0,0 -218530,205860 -57010,690430 z"
       style="fill:#ffffff;fill-opacity:1;fill-rule:evenodd;stroke:#efbb22;stroke-width:61066.58984375;stroke-opacity:1"
       inkscape:connector-curvature="0" />
    <path
       transform="matrix(0.99715544,0,0,0.93578938,18487.827,-66598.857)"
       id="_101024416"
       d="m 7743090,9517480 c 0,0 126680,-357880 630260,-291370 0,0 -104520,357880 -630260,291370 z"
       style="fill:#ffffff;fill-opacity:1;fill-rule:evenodd;stroke:#efbb22;stroke-width:61066.58984375;stroke-opacity:1"
       inkscape:connector-curvature="0" />
    <path
       transform="matrix(0.99715544,0,0,0.93578938,18487.827,-66598.857)"
       id="_46828048"
       d="m 7743090,9517480 c 0,0 433890,-376890 91850,-655590 0,0 -310380,193190 -91850,655590 z"
       style="fill:#ffffff;fill-opacity:1;fill-rule:evenodd;stroke:#efbb22;stroke-width:61066.58984375;stroke-opacity:1"
       inkscape:connector-curvature="0" />
    <path
       transform="matrix(0.99715544,0,0,0.93578938,18487.827,-66598.857)"
       id="_104761152"
       d="m 7448550,9748680 c 0,0 262870,-351550 753770,-259700 0,0 -348380,361050 -753770,259700 z"
       style="fill:#ffffff;fill-opacity:1;fill-rule:evenodd;stroke:#efbb22;stroke-width:61066.58984375;stroke-opacity:1"
       inkscape:connector-curvature="0" />
    <path
       transform="matrix(0.99715544,0,0,0.93578938,18487.827,-66598.857)"
       id="_46069120"
       d="m 7448550,9748680 c 0,0 468730,-155190 199530,-668260 0,0 -212200,50670 -199530,668260 z"
       style="fill:#ffffff;fill-opacity:1;fill-rule:evenodd;stroke:#efbb22;stroke-width:61066.58984375;stroke-opacity:1"
       inkscape:connector-curvature="0" />
    <path
       transform="matrix(0.99715544,0,0,0.93578938,18487.827,-66598.857)"
       id="_46255968"
       d="m 7249020,9945040 c 0,0 224860,-370550 690430,-240700 0,0 -262870,389560 -690430,240700 z"
       style="fill:#ffffff;fill-opacity:1;fill-rule:evenodd;stroke:#efbb22;stroke-width:61066.58984375;stroke-opacity:1"
       inkscape:connector-curvature="0" />
    <path
       transform="matrix(0.99715544,0,0,0.93578938,18487.827,-66598.857)"
       id="_103542464"
       d="m 7249020,9945040 c 0,0 475070,-335710 171020,-661920 0,0 -304040,136180 -171020,661920 z"
       style="fill:#ffffff;fill-opacity:1;fill-rule:evenodd;stroke:#efbb22;stroke-width:61066.58984375;stroke-opacity:1"
       inkscape:connector-curvature="0" />
    <path
       transform="matrix(0.99715544,0,0,0.93578938,18487.827,-66598.857)"
       id="_105750120"
       d="m 6986150,10211100 c 0,0 525740,-345220 250200,-696770 0,0 -338880,145690 -250200,696770 z"
       style="fill:#ffffff;fill-opacity:1;fill-rule:evenodd;stroke:#efbb22;stroke-width:61066.58984375;stroke-opacity:1"
       inkscape:connector-curvature="0" />
    <path
       transform="matrix(0.99715544,0,0,0.93578938,18487.827,-66598.857)"
       id="_105351176"
       d="m 6986150,10211100 c 0,0 209030,-427560 731600,-231200 0,0 -300870,424390 -731600,231200 z"
       style="fill:#ffffff;fill-opacity:1;fill-rule:evenodd;stroke:#efbb22;stroke-width:61066.58984375;stroke-opacity:1"
       inkscape:connector-curvature="0" />
    <path
       transform="matrix(0.99715544,0,0,0.93578938,18487.827,-66598.857)"
       id="_101931704"
       d="m 6678940,10474000 c 0,0 525740,-307210 285040,-680930 0,0 -307210,129850 -285040,680930 z"
       style="fill:#ffffff;fill-opacity:1;fill-rule:evenodd;stroke:#efbb22;stroke-width:61066.58984375;stroke-opacity:1"
       inkscape:connector-curvature="0" />
    <path
       transform="matrix(0.99715544,0,0,0.93578938,18487.827,-66598.857)"
       id="_47332864"
       d="m 6720110,10451800 c 0,0 266040,-395890 728440,-177360 0,0 -332550,395890 -728440,177360 z"
       style="fill:#ffffff;fill-opacity:1;fill-rule:evenodd;stroke:#efbb22;stroke-width:61066.58984375;stroke-opacity:1"
       inkscape:connector-curvature="0" />
    <path
       transform="matrix(0.99715544,0,0,0.93578938,18487.827,-66598.857)"
       id="_105891832"
       d="m 6523750,10651300 c 0,0 440230,-266040 196360,-639760 0,0 -351550,177360 -196360,639760 z"
       style="fill:#ffffff;fill-opacity:1;fill-rule:evenodd;stroke:#efbb22;stroke-width:61066.58984375;stroke-opacity:1"
       inkscape:connector-curvature="0" />
    <path
       transform="matrix(0.99715544,0,0,0.93578938,18487.827,-66598.857)"
       id="_47370536"
       d="m 6523750,10651300 c 0,0 174190,-354720 636590,-133020 0,0 -240700,351550 -636590,133020 z"
       style="fill:#ffffff;fill-opacity:1;fill-rule:evenodd;stroke:#efbb22;stroke-width:61066.58984375;stroke-opacity:1"
       inkscape:connector-curvature="0" />
    <g
       transform="matrix(1,0,0,1.0125003,0.28990097,-111152.78)"
       style="fill:#ffffff;fill-rule:evenodd"
       id="g137">
      <path
         id="_102614544"
         d="m 4297212,7447071 c 0,0 -517932.5,-269294.8 -296863.2,-406876.5 198962.4,-120012.2 318970.1,213683.3 296863.2,406876.5 z"
         style="fill:#ffffff;fill-opacity:1;stroke:#efbb22;stroke-width:58624.15234375;stroke-opacity:1"
         inkscape:connector-curvature="0" />
      <path
         id="_102614440"
         d="m 4439326.6,7692954.8 c 0,0 -378969.1,-418586.6 -34741,-679101 0,0 277917.3,231243.8 34741,679101 z"
         style="fill:#ffffff;fill-opacity:1;stroke:#efbb22;stroke-width:58624.15234375;stroke-opacity:1"
         inkscape:connector-curvature="0" />
      <path
         id="_46829752"
         d="m 4439326.6,7692954.8 c 0,0 -94739.8,-421507.2 -606360.3,-360036.3 0,0 164221.4,439067.7 606360.3,360036.3 z"
         style="fill:#ffffff;fill-opacity:1;stroke:#efbb22;stroke-width:58624.15234375;stroke-opacity:1"
         inkscape:connector-curvature="0" />
      <path
         id="_46177608"
         d="m 4537227.2,7935908.8 c 0,0 -47374.8,-401016.9 -552663.4,-339546 0,0 59998.8,307345.6 552663.4,339546 z"
         style="fill:#ffffff;fill-opacity:1;stroke:#efbb22;stroke-width:58624.15234375;stroke-opacity:1"
         inkscape:connector-curvature="0" />
      <path
         id="_104377952"
         d="m 4571968.2,7924198.7 c 0,0 -356862.1,-386386.3 -12634.1,-646900.7 0,0 300024.2,286864.4 12634.1,646900.7 z"
         style="fill:#ffffff;fill-opacity:1;stroke:#efbb22;stroke-width:58624.15234375;stroke-opacity:1"
         inkscape:connector-curvature="0" />
      <path
         id="_105639712"
         d="m 4682502.9,8137882.1 c 0,0 -60008.9,-360036.2 -565307.4,-298565.3 0,0 120017.5,380526.4 565307.4,298565.3 z"
         style="fill:#ffffff;fill-opacity:1;stroke:#efbb22;stroke-width:58624.15234375;stroke-opacity:1"
         inkscape:connector-curvature="0" />
      <path
         id="_106411920"
         d="m 4704609.7,8170082.4 c 0,0 -360022.9,-389306.8 -15794.9,-649830.3 0,0 277917.2,231243.8 15794.9,649830.3 z"
         style="fill:#ffffff;fill-opacity:1;stroke:#efbb22;stroke-width:58624.15234375;stroke-opacity:1"
         inkscape:connector-curvature="0" />
      <path
         id="_105260896"
         d="m 4868831.2,8392546 c 0,0 -369495.8,-368816.5 -25267.8,-626410.3 0,0 287390.2,199043.5 25267.8,626410.3 z"
         style="fill:#ffffff;fill-opacity:1;stroke:#efbb22;stroke-width:58624.15234375;stroke-opacity:1"
         inkscape:connector-curvature="0" />
      <path
         id="_105260640"
         d="m 4868831.2,8392546 c 0,0 -91588.6,-368816.5 -596887.2,-307345.4 0,0 151587.6,389306.7 596887.2,307345.4 z"
         style="fill:#ffffff;fill-opacity:1;stroke:#efbb22;stroke-width:58624.15234375;stroke-opacity:1"
         inkscape:connector-curvature="0" />
      <path
         id="_104931024"
         d="m 5010945.9,8626719.8 c 0,0 -78954.8,-357115.5 -631618.2,-339545.9 0,0 186328.5,418577.4 631618.2,339545.9 z"
         style="fill:#ffffff;fill-opacity:1;stroke:#efbb22;stroke-width:58624.15234375;stroke-opacity:1"
         inkscape:connector-curvature="0" />
      <path
         id="_104930944"
         d="m 5042525.9,8606229.5 c 0,0 -360023,-201973.4 -56848,-638120.5 0,0 221069.3,190263.3 56848,638120.5 z"
         style="fill:#ffffff;fill-opacity:1;stroke:#efbb22;stroke-width:58624.15234375;stroke-opacity:1"
         inkscape:connector-curvature="0" />
      <path
         id="_103620080"
         d="m 5241488.2,8840403.1 c 0,0 -126329.6,-330765.6 -631628.2,-269294.6 0,0 104222.7,330765.7 631628.2,269294.6 z"
         style="fill:#ffffff;fill-opacity:1;stroke:#efbb22;stroke-width:58624.15234375;stroke-opacity:1"
         inkscape:connector-curvature="0" />
      <path
         id="_103619976"
         d="m 5241488.2,8840403.1 c 0,0 -435816.8,-348335.3 -91588.7,-605919.9 0,0 309497.1,178553.1 91588.7,605919.9 z"
         style="fill:#ffffff;fill-opacity:1;stroke:#efbb22;stroke-width:58624.15234375;stroke-opacity:1"
         inkscape:connector-curvature="0" />
      <path
         id="_103606272"
         d="m 5535190.4,9054086.6 c 0,0 -262122.3,-324915.2 -754786.9,-240024.2 0,0 350550.1,333695.6 754786.9,240024.2 z"
         style="fill:#ffffff;fill-opacity:1;stroke:#efbb22;stroke-width:58624.15234375;stroke-opacity:1"
         inkscape:connector-curvature="0" />
      <path
         id="_104403680"
         d="m 5535190.4,9054086.6 c 0,0 -470557.7,-143432.3 -198962.4,-617630.2 0,0 211596.3,46831.1 198962.4,617630.2 z"
         style="fill:#ffffff;fill-opacity:1;stroke:#efbb22;stroke-width:58624.15234375;stroke-opacity:1"
         inkscape:connector-curvature="0" />
      <path
         id="_100012624"
         d="m 5734152.8,9235569 c 0,0 -224230.3,-342475.2 -691626.9,-222463.1 0,0 265283.1,360045.1 691626.9,222463.1 z"
         style="fill:#ffffff;fill-opacity:1;stroke:#efbb22;stroke-width:58624.15234375;stroke-opacity:1"
         inkscape:connector-curvature="0" />
      <path
         id="_100127104"
         d="m 5734152.8,9235569 c 0,0 -473718.6,-310274.7 -170543.5,-611769.8 0,0 303185.1,125862.5 170543.5,611769.8 z"
         style="fill:#ffffff;fill-opacity:1;stroke:#efbb22;stroke-width:58624.15234375;stroke-opacity:1"
         inkscape:connector-curvature="0" />
      <path
         id="_100126896"
         d="m 5996275,9481472 c 0,0 -524244.5,-319065 -249488.3,-643980.2 0,0 337916.1,134652 249488.3,643980.2 z"
         style="fill:#ffffff;fill-opacity:1;stroke:#efbb22;stroke-width:58624.15234375;stroke-opacity:1"
         inkscape:connector-curvature="0" />
      <path
         id="_46386328"
         d="m 5996275,9481472 c 0,0 -208435.4,-395166.5 -729518.8,-213684 0,0 300014,392236 729518.8,213684 z"
         style="fill:#ffffff;fill-opacity:1;stroke:#efbb22;stroke-width:58624.15234375;stroke-opacity:1"
         inkscape:connector-curvature="0" />
      <path
         id="_46386224"
         d="m 6302611.2,9724453 c 0,0 -524244.5,-283935 -284229.2,-629339.6 0,0 306336.1,120011.6 284229.2,629339.6 z"
         style="fill:#ffffff;fill-opacity:1;stroke:#efbb22;stroke-width:58624.15234375;stroke-opacity:1"
         inkscape:connector-curvature="0" />
      <path
         id="_47111216"
         d="m 6261558.2,9703935 c 0,0 -265283.2,-365895 -726367.8,-163922 0,0 331604,365895 726367.8,163922 z"
         style="fill:#ffffff;fill-opacity:1;stroke:#efbb22;stroke-width:58624.15234375;stroke-opacity:1"
         inkscape:connector-curvature="0" />
      <path
         id="_47502104"
         d="m 6457359.8,9888320 c 0,0 -438977.8,-245884 -195801.6,-591289 0,0 350550.1,163923 195801.6,591289 z"
         style="fill:#ffffff;fill-opacity:1;stroke:#efbb22;stroke-width:58624.15234375;stroke-opacity:1"
         inkscape:connector-curvature="0" />
      <path
         id="_45802712"
         d="m 6457359.8,9888320 c 0,0 -173694.6,-327845 -634779.3,-122941 0,0 240015.3,324915 634779.3,122941 z"
         style="fill:#ffffff;fill-opacity:1;stroke:#efbb22;stroke-width:58624.15234375;stroke-opacity:1"
         inkscape:connector-curvature="0" />
    </g>
    <path
       transform="matrix(1,0,0,1.0125003,0.28990097,-111152.78)"
       d="m 5500170.3,3520305.7 -929458.5,1137531.4 c -257665,1552356.3 444751.2,2914745 1930921.6,3791771.3 1484305.8,-877506.9 2185106.7,-2240561 1927641,-3791771.3 l -926187.7,-1137531.4 -2002916.4,0 z"
       id="path166"
       style="fill:#ffffff;fill-opacity:1;fill-rule:evenodd;stroke:#efbb22;stroke-width:117248.3046875;stroke-opacity:1"
       inkscape:connector-curvature="0" />
    <path
       transform="matrix(1,0,0,1.0125003,0.28990097,-111152.78)"
       d="M 5644169.6,3820608.5 4842346.9,4797369 C 4624009.7,6131541 5223619.2,7297307.7 6501633.4,8052233.1 7777782.9,7296817.9 8375797,6130394.9 8157639.4,4797369 l -798552,-976760.5 -1714917.8,0 z"
       id="path168"
       style="fill:#efbb22;fill-opacity:1;fill-rule:evenodd;stroke:#efbb22;stroke-width:51206.59765625;stroke-opacity:1"
       inkscape:connector-curvature="0" />
    <path
       transform="matrix(1,0,0,1.0125003,0.28990097,-111152.78)"
       d="M 6479466.7,11553887 C 4350898.8,11533397 2904485,10312767 2904485,10312767 c -22107,81962 -461084.7,386386 -461084.7,386386 0,0 -44214,172703 -284229.2,81961 -322121,-120012 -438977.7,-649831 -438977.7,-649831 0,61472 -527405.5,263446 -527405.5,263446 22107,-181484 22107,-304426 0,-506400 -22106.9,-204902 -41052.8,-184412 416870.9,-632270 461084.7,-447856.2 527405.4,-20490 571619.2,-81961 0,0 44213.9,-58540 195801.5,-181482.4 154748.6,-122941.9 593726.3,-509328.1 900062.4,-201973.2 1367459,1355281.6 2829667.8,1402112.6 3202324.8,1402112.6 372656.8,0 1831704.7,-46831 3199163.7,-1402112.6 306336.2,-307354.9 745314.6,79031.3 900063.6,201973.2 151587,122942.4 195800,181482.4 195800,181482.4 44214,61471 110535,-365895.2 571620,81961 461085,447858 438978,427368 416871,632270 -22107,201974 -22107,324916 0,506400 0,0 -527405,-201974 -527405,-263446 0,0 -113696,538600 -438978,649831 -208436,70252 -284230,-81961 -284230,-81961 0,0 -438977,-304424 -461084,-386386 0,0 -1446414.4,1261610 -3571821.3,1241120 z"
       id="path170"
       style="fill:none;stroke:#efbb22;stroke-width:58624.15234375;stroke-opacity:1"
       inkscape:connector-curvature="0" />
    <path
       id="path2310"
       style="fill:#efbb22;fill-opacity:1"
       d="m 4981097.9,11012110 c 30056.7,-22664 35784.2,-43975 19190.4,-71398 -17240.8,-28490 -48000.6,-35046 -77592.7,-16534 -31250,19549 -35478.3,38532 -15818.3,71020 20575.4,34003 44366.3,39425 74220.6,16912 z"
       inkscape:connector-curvature="0" />
    <path
       id="path2300"
       style="fill:#efbb22;fill-opacity:1"
       d="m 6436870.5,11265646 c -1174,-9792 -14965,-37675 -74394.7,-54473 l -87899.5,-4194 8874.3,-34216 8873.6,-34217 171530.9,14309 c 59778.4,-171558 31769.1,-216278 -83895.6,-316456 -43775.5,-27959 -124998.8,-51868 -129774.7,-53130 l -44308.2,229075 -111045.8,-24758 c -19493.9,-111373 -36820.9,-151566 -92397.5,-190795 -21946.8,-22746 -25648.6,-33868 -21851.8,-65656 3609.4,-30197 -924.2,-45863 -21489.1,-74255 -14335.2,-19791 -30784.1,-37224 -36554.2,-38742 -7086.4,-1864 -16871.1,18453 -30150.9,62605 l -19660.7,65364 -34321.7,-612 c -51193.5,-892 -105581.1,38295 -134592.5,96988 -12897.6,26091 -26115.6,51896 -29374.1,57345 l -215014,-72067 -44776.5,-70401 c -24627.6,-38721 -45435.9,-70565 -46239.6,-70765 -805.6,-183 -34589.1,17995 -75077.4,40437 l -73616.7,40804 -120676.3,-30167 c -66371.1,-16592 -121968.9,-34212 -123549.5,-39154 -2797.6,-8744 69818.2,-67910 101002.6,-82295 8552.7,-3949 26864.4,-3466 40693.8,1064 21856.8,7161 26350.5,5117 34371.1,-15605 14901.6,-38505 10881.9,-65503 -12834.6,-86198 -48237.3,-42092 -88263.5,-28732 -175472.3,58570 -31477.4,31512 -74862,66114 -96409.7,76892 -38158.4,19088 -41011.6,19071 -109723.8,-673 l -70545.6,-20269 52213.2,-219221 c 28717.2,-120570 50683.3,-225750 48814.9,-233733 -4789.6,-20463 -52590.4,-69527 -64237.3,-65936 -5882.4,1815 -38824.7,115333 -83875.4,289047 -71228.8,274654 -73669.2,286916 -61198.6,307524 12487.4,20635 24606.3,24368 313501.8,96589 295194.4,73795 300624.8,75489 306856.3,95685 3490.7,11309 18976.2,31576 34416.7,45039 48390.3,42193 106545.9,46716 166865.3,12973 l 33193.4,-18568 c 0,0 209358.2,72878 399962.5,110576 195265.3,38620 354689.6,62423 354689.6,62423 l -9901.5,56732 c -15125.8,178187 243137.9,167659 258999.8,96503 z"
       inkscape:connector-curvature="0" />
    <path
       id="path2298"
       style="fill:#ffffff;fill-opacity:1"
       d="m 5292477.2,10871920 c -18704.6,-30910 4046.5,-57546 41212.7,-48254 16425.2,4108 32301,30533 28092.1,46763 -2316.8,8937 -36012.8,24126 -47275,21311 -6503.2,-1626 -16417.1,-10545 -22029.8,-19820 z"
       inkscape:connector-curvature="0" />
    <path
       id="path2296"
       style="fill:#ffffff;fill-opacity:1"
       d="m 6318828.3,10977982 c 5045.6,-27656 10650.2,-37553 22022.3,-38866 27449.5,-3173 61158.1,70976 40968.5,90117 -4059,3851 -21416.5,2243 -38569.3,-3577 -30128.5,-10213 -30957.2,-11830 -24421.5,-47676 z"
       inkscape:connector-curvature="0" />
    <path
       id="path2294"
       style="fill:#ffffff;fill-opacity:1"
       d="m 5936372,10925693 c 2160.6,-18791 8668.1,-37284 14455.7,-41097 14984.6,-9873 47321.2,44583 42060.1,70830 -3690.6,18403 -7599.8,19937 -32322.3,12682 -25870.9,-7591 -27811.1,-10993 -24193.5,-42415 z"
       inkscape:connector-curvature="0" />
    <path
       id="path2292"
       style="fill:#ffffff;fill-opacity:1"
       d="m 5785140,10903943 c 2860.1,-28921 37016.4,-57590 52169,-43789 9171.5,8354 -630.7,70086 -12352.5,77811 -4115.3,2708 -15357.5,2225 -24981.7,-1082 -12534.9,-4304 -16743.7,-13650 -14834.8,-32944 z"
       inkscape:connector-curvature="0" />
    <path
       id="path2290"
       style="fill:#efbb22;fill-opacity:1"
       d="m 9486774.9,10139684 c 16104.1,-29596 13513.3,-88787 -4340,-99159 -7234.3,-4200 -27580.3,5398 -59556.7,28094 l -48568.8,34477 -65780.7,-74401 c -73310.3,-82917.5 -86519.4,-89326.5 -155911.9,-75645.9 -42462.9,8371.3 -42728.3,11054.9 -6188.4,62663.9 l 23138.5,32680 -60911.1,50661 -60911.3,50660 -10615.7,-23172 c -57072.6,-124587 -111240.9,-136492.1 -219991.5,-48348 -43357.8,35143 -69726,51218 -90561.6,55213 -16165.8,3099 -30964.2,9896 -32883.1,15105 -3821.8,10372 48452.6,79035 69465.6,91243 10658.1,6191 25405.9,-1950 78882.3,-43554 69645.4,-54181 80713.3,-56900 96032.4,-23593 17458.5,37957 -4883.3,66226 -121070.5,153180 l -105469.7,78934 -145903.8,-173680 c -80246.8,-95525 -152120.9,-176447 -159719.3,-179828 -19480.5,-8665 -88200.4,-1094 -92354.2,10178 -2098.2,5692 69491.7,99762 182197.6,239415 151469.6,187683 189488.8,231080 206487.2,235693 19794.6,5373 33925.3,-4249 283165.7,-192798 l 262331.5,-198450 34205.1,33174 c 19031.5,18458 45146.1,35053 58867.9,37408 53965.4,9266 117532.3,-23897 145963.7,-76150 z"
       inkscape:connector-curvature="0" />
    <path
       id="path2282"
       style="fill:#efbb22;fill-opacity:1"
       d="m 8599680.5,10659272 c 374.7,-4878 -80539,-102483 -179857.2,-216900 l -180577.3,-208032 -57468.5,-4499 c -37489.1,-2934 -57812.6,-244 -58458.3,7681 -624.5,7610 76161.6,99718 204551.3,245391 l 205541.1,233209 32773.8,-23989 c 18026.2,-13195 33098,-27981 33495.1,-32859 z"
       inkscape:connector-curvature="0" />
    <path
       id="path2276"
       style="fill:#efbb22;fill-opacity:1"
       d="m 4440782.2,10680863 c 4496.2,-2115 49759.1,-119871 100588.6,-261678 l 92418.1,-257830 -24921.1,-51040 c -16257.3,-33297 -28824,-49205 -36145.8,-45758 -7011.5,3301 -49525,114764 -113264.6,296956 l -102039.2,291674 37594.6,15761 c 20678.5,8668 41274.5,14029 45769.4,11915 z"
       inkscape:connector-curvature="0" />
    <path
       id="path2274"
       style="fill:#efbb22;fill-opacity:1"
       d="m 4096676.1,10431485 c 6244.6,-3705 22457.5,-22774 36034.6,-42377 l 24685.7,-35641 -110822.3,-90153 -110821.6,-90154 16031.8,-24830 c 27260.4,-42222 38969.7,-39406 132323.8,31829 94073.6,71784 91397.1,71474 135275,15666 36543.6,-46476 36118.4,-60200 -1960.8,-63246 -24000,-1919 -44634.1,-13182 -98402.3,-53710 -102320.8,-77127 -107187.3,-79596.2 -147182.3,-74673 -36800.2,4530 -37018.8,4719 -105410,91115 -59388.3,75023 -68020.9,89439 -64683.8,108018 3309.7,18424 23531.7,36458 143715.9,128166 112226,85635 142106.6,105394 151213.2,99990 z"
       inkscape:connector-curvature="0" />
    <path
       id="path2270"
       style="fill:#efbb22;fill-opacity:1"
       d="m 2823104.3,9473297.9 c 4983.2,-183.4 94738,-90021.2 199457.3,-199697.2 l 190399.5,-199410.4 -1860.9,-56573.3 c -1211.4,-36904.2 -6182.1,-56435.6 -14300.8,-56178.3 -7770.8,244.6 -92427.4,85441.8 -225536.2,226972.1 l -213096.2,226577.7 27939.7,29298.3 c 15367.4,16114.8 32015.6,29169.4 36997.6,29011.1 z"
       inkscape:connector-curvature="0" />
    <path
       id="path2288"
       style="fill:#efbb22;fill-opacity:1"
       d="m 6841474.6,11241670 c 28131.7,-19673 53238.5,-73465 42281.9,-90588 -4471.2,-6988 -27034.6,-7601 -66048,-1791 l -59257,8821 -23789.2,-95714 c -19855.8,-79886 -27341.1,-98309 -45266,-111408 -25613.3,-18719 -90049.5,-38062 -96302.2,-28910 -8651.2,12663 51087.2,284181 66821,303709 37109.5,46058 127148.9,53935 181559.5,15882 z"
       inkscape:connector-curvature="0" />
    <path
       id="path2304"
       style="fill:#efbb22;fill-opacity:1"
       d="m 7223390.4,11197972 c 24530.4,-28034 20319.1,-51654 -13135.4,-73688 -32426.7,-21357 -54616.7,-17442 -74085.9,13071 -19542.3,30628 -14260.1,54844 16029.1,73473 30209.2,18581 46212.7,15691 71192.2,-12856 z"
       inkscape:connector-curvature="0" />
    <path
       id="path2302"
       style="fill:#efbb22;fill-opacity:1"
       d="m 7070337.1,11228232 c 7792,-11404 12211.3,-30477 9821.5,-42385 -5220.5,-26006 -39773.4,-50786 -64223.9,-46056 -24449.9,4731 -46847.8,40526 -41628.7,66532 5220.6,26007 39772.8,50786 64222.7,46055 9702.8,-1876 24017.1,-12742 31808.4,-24146 z"
       inkscape:connector-curvature="0" />
    <path
       id="path2278"
       style="fill:#efbb22;fill-opacity:1"
       d="m 7452791.2,10963012 c 4383.7,-24787 -122113.9,-606831 -132156.4,-608089 -5482.8,-685 -22941.9,15042 -38803,34954 l -28837.3,36204 40545.2,224869 40543.9,224869 -167600.5,32422 -167600.4,32421 -13885.3,-42298 c -7637.1,-23264 -17872.6,-47600 -22745.8,-54081 -12647.1,-16816 -80284.2,-47965 -88296.6,-40663 -3696.8,3374 3790.5,58509 16635.5,122533 32985.5,164369 5395.3,155870 312864.2,96393 190321.8,-36817 247743.5,-50528 249336.5,-59534 z"
       inkscape:connector-curvature="0" />
    <path
       id="path2280"
       style="fill:#efbb22;fill-opacity:1"
       d="m 8115239.4,10766830 c 6244.6,-14330 3284.6,-35522 -10402.8,-74576 -21192.8,-60463 -40992.3,-78751 -97062.7,-89657 -36593.7,-7117 -38000,-3350 -21142.8,56724 l 10768.1,38371 -143085.6,50911 c -158376.7,56353 -156473.4,56331 -175749,2042 -9317.5,-26246 -19690.3,-36188 -55808.7,-53491 -75582.2,-36210 -77870.8,-29088 -32371.7,100719 55402.2,158063 30711.9,152990 300669.8,61778 197943.9,-66880 216176.1,-74429 224185.4,-92818 z"
       inkscape:connector-curvature="0" />
    <path
       id="path2268"
       style="fill:#efbb22;fill-opacity:1"
       d="m 7869878.1,10446042 c 9386.2,-14287 13405.2,-33230 9446.7,-44522 -7162.5,-20434 -54417.4,-42292 -75807.5,-35065 -16280.1,5502 -40471.5,55965 -34709,72405 5763.8,16440 56461.3,41603 72742,36102 6596.1,-2225 19342.5,-15242 28327.8,-28920 z"
       inkscape:connector-curvature="0" />
    <path
       id="path2266"
       style="fill:#efbb22;fill-opacity:1"
       d="m 7725770.9,10491167 c 7527.1,-15146 11591.7,-33514 9031.5,-40817 -6026.1,-17185 -56772.9,-41496 -74274.5,-35583 -17502.3,5917 -42266.3,55740 -36242.8,72924 6026.1,17184 56773.6,41497 74275.2,35584 7439.1,-2513 19682.8,-16963 27210.6,-32108 z"
       inkscape:connector-curvature="0" />
    <path
       id="path2272"
       style="fill:#efbb22;fill-opacity:1"
       d="m 3630624.7,10117810 c 22955.9,-11174 426496,-455275.7 421596.5,-463974.1 -2672.8,-4743.8 -25916.5,-9284.6 -51650,-10083 l -46788.6,-1454.9 -160824.3,164980.8 -160823.6,164980.7 -120501.5,-105641.3 c -66275.5,-58102.7 -123054.9,-110698.8 -126175.3,-116879.1 -7393.6,-14644 11865.4,-21154.5 84835.8,-28683.4 47546.1,-4902.7 59599.5,-2573.6 76002.2,14708.8 17320.8,18248.9 21683.9,18679.2 39145.8,3857.4 31737.7,-26938.1 41258.9,-52572.8 30396.3,-81842.4 -22093.5,-59533.2 -63778.9,-66437.4 -182754.8,-30266.1 -42943.1,13056.4 -97822.2,23281.2 -121953.3,22721.3 l -43874.8,-1014.8 -68898.3,-65678.7 -68898.3,-65678.7 29091.9,-38038.9 c 24797.4,-32422.1 28528.6,-44548.7 25272,-82143.8 -6561.8,-75749.4 -12504.8,-74324.4 -106067.6,25448.9 -74091.9,79007.8 -82108.2,90130.6 -81162.7,112612.2 1017.9,24238.5 9867.1,32918.5 312121.1,306144.8 243569.5,220177.3 313425.7,280053.3 321911.5,275923.3 z"
       inkscape:connector-curvature="0" />
    <path
       id="path2264"
       style="fill:#efbb22;fill-opacity:1"
       d="m 3423040.6,9387838.3 c 17150.3,-690.7 36788.4,-7239.7 43639.4,-14546.1 16688.1,-17794.7 13991.7,-59889.6 -4933.3,-76993.5 -19234.7,-17388.1 -65181.5,-17658.9 -81290.7,-489 -14571.3,15537.7 -13997.4,70326.5 874.2,83772.3 5788.8,5232.8 24554.5,8944.7 41704.2,8247.8 z"
       inkscape:connector-curvature="0" />
    <path
       id="path2262"
       style="fill:#efbb22;fill-opacity:1"
       d="m 3310600.4,9286196.8 c 17150.8,-690.8 36787.1,-7241 43638.7,-14547.4 25520.6,-27214.4 5414.1,-86033.5 -31343.7,-91687 -41141.5,-6329.5 -78443.8,37097.5 -64827.4,75470.7 9722.9,27399.6 17867.8,32168.5 52532.4,30763.7 z"
       inkscape:connector-curvature="0" />
    <path
       id="path2312"
       style="fill:#efbb22;fill-opacity:1"
       d="m 9716062.8,10017563 c 3615.6,-37773.3 -29268.8,-66725.6 -66535,-58580.5 -24804.6,5422.3 -28573.8,8714.2 -36942.1,32272.3 -12447.9,35041.2 9739.6,66389.2 49466.2,69890.2 36198.3,3192 50650.7,-8471 54010.9,-43582 z"
       inkscape:connector-curvature="0" />
    <path
       id="path2308"
       style="fill:#efbb22;fill-opacity:1"
       d="m 10022527,9738281.3 c 6635,-36379.8 -9207,-54630.5 -49423.1,-56936.4 -38980.3,-2231.3 -56072.9,12200 -57067,48192.2 -999.2,36127.9 16076.5,54357.8 51804.7,55309 35635.4,947.5 47928.4,-9518.7 54685.4,-46564.8 z"
       inkscape:connector-curvature="0" />
    <path
       id="path2306"
       style="fill:#efbb22;fill-opacity:1"
       d="m 9906317.2,9840646 c 818.1,-13708.7 -5239.2,-32343.9 -13458.2,-41411.5 -17944.4,-19803.4 -60527.8,-23926.7 -79145.9,-7663.4 -18618.7,16263.4 -19403.7,58267.2 -1461.2,78070.6 17945,19802.9 60527.7,23926.2 79146.4,7663.4 7389.3,-6454.2 14101.5,-22951.1 14917,-36659.1 z"
       inkscape:connector-curvature="0" />
    <path
       id="path2286"
       style="fill:#efbb22;fill-opacity:1"
       d="m 10241815,9303420.5 c 249,-4566.5 -21274,-32271.8 -47878,-61559.7 -38341,-42209.2 -57859,-57213.3 -94129,-72357.3 -75220,-31407.3 -108919.7,-27636.8 -188344.7,21076.8 -37770.1,23165.1 -79195.8,43741.2 -92057,45724.3 -12861.3,1986.8 -26423.3,6261 -30137.4,9505.3 -4071.5,3557.8 22725.1,39902.7 67561.5,91625.2 l 74313.8,85727.3 -117549.1,102677.7 -117549.3,102677.7 -33836.6,-29519 c -18609.3,-16235.2 -39983.2,-32124.4 -47496.6,-35308.7 -15145.6,-6419.4 -85387.9,-2213 -94393.9,5654.6 -3153.5,2750.9 16962.8,33033.4 44696.7,67291.3 l 50425.3,62288.4 -70529.7,61606.2 -70529,61606.7 -35659.5,-32203.3 c -30394.6,-27449.7 -42313.6,-32299.8 -80738.8,-32856.1 -77423.6,-1118.7 -76569.3,4823.2 15247.4,106153.6 72707.7,80237.1 83182.9,89174.5 106062.3,90485.7 24768.3,1424.4 34341.8,-6367.4 393706.6,-320266.7 202576,-176947.2 368543,-325461.7 368815,-330030.6 z"
       inkscape:connector-curvature="0" />
    <path
       id="path2284"
       style="fill:#ffffff;fill-opacity:1"
       d="m 9984939.1,9323168.3 c -21223.9,-23421.2 -24688.4,-32306.6 -16628.5,-42641.4 19029.5,-24401.8 50391.4,-33735.3 81701.4,-24315.6 47534,14300.5 47823,28965.2 1293,65492.3 l -39556,31051.6 -26809.9,-29586.9 z"
       inkscape:connector-curvature="0" />
    <path
       id="path2260"
       style="fill:#efbb22;fill-opacity:1"
       d="m 9877007.2,8951134.5 c 2204.4,-37086.5 -14055.8,-57077.6 -48013.7,-59023.4 -50320.4,-2879.3 -75249.2,49758.3 -41302.7,87220.1 17516,19330.3 60751.3,25755.2 77117,11459.7 5707.6,-4982.2 11199,-22833.1 12199.4,-39656.4 z"
       inkscape:connector-curvature="0" />
    <path
       id="path2256"
       style="fill:#efbb22;fill-opacity:1"
       d="m 9762817,9050878.5 c 2273,-38271.8 -12426,-55052.9 -49084.7,-56029.8 -35709.4,-947.5 -54639.8,15062.1 -57883.8,48961.8 -3147.3,32901.4 10951,48905.6 48977.9,55591.5 37053.9,6514.7 55642.6,-9039.5 57990.6,-48523.5 z"
       inkscape:connector-curvature="0" />
  </g>
</svg>
