<?xml version="1.0" encoding="UTF-8" standalone="no"?>
<!-- Creator: CorelDRAW -->

<svg
   xmlns:dc="http://purl.org/dc/elements/1.1/"
   xmlns:cc="http://creativecommons.org/ns#"
   xmlns:rdf="http://www.w3.org/1999/02/22-rdf-syntax-ns#"
   xmlns:svg="http://www.w3.org/2000/svg"
   xmlns="http://www.w3.org/2000/svg"
   xmlns:sodipodi="http://sodipodi.sourceforge.net/DTD/sodipodi-0.dtd"
   xmlns:inkscape="http://www.inkscape.org/namespaces/inkscape"
   xml:space="preserve"
   width="1022.001"
   height="681.33398"
   style="fill-rule:evenodd"
   viewBox="0 0 1023 681.33398"
   id="svg2"
   version="1.1"
   inkscape:version="0.48.2 r9819"
   sodipodi:docname="AJAX1.svg"><metadata
   id="metadata27"><rdf:RDF><cc:Work
       rdf:about=""><dc:format>image/svg+xml</dc:format><dc:type
         rdf:resource="http://purl.org/dc/dcmitype/StillImage" /></cc:Work></rdf:RDF></metadata><sodipodi:namedview
   pagecolor="#ffffff"
   bordercolor="#666666"
   borderopacity="1"
   objecttolerance="10"
   gridtolerance="10"
   guidetolerance="10"
   inkscape:pageopacity="0"
   inkscape:pageshadow="2"
   inkscape:window-width="1280"
   inkscape:window-height="1004"
   id="namedview25"
   showgrid="false"
   fit-margin-top="0"
   fit-margin-left="0"
   fit-margin-right="0"
   fit-margin-bottom="0"
   inkscape:zoom="0.48762478"
   inkscape:cx="707.18251"
   inkscape:cy="211.59712"
   inkscape:window-x="-8"
   inkscape:window-y="-8"
   inkscape:window-maximized="1"
   inkscape:current-layer="Layer 1" />
 <defs
   id="defs4">
  <style
   type="text/css"
   id="style6">
   
    .fil3 {fill:#FFFFFF}
    .fil1 {fill:#1D9776}
    .fil2 {fill:#6997C4}
    .fil0 {fill:#FE445A}
   
  </style>
 </defs>
 <g
   id="Layer 1"
   transform="translate(0,-0.33301)">
  <path
   style="fill:#d21034;fill-opacity:1"
   d="M 0,682 1023,682 1023,0 0,0 z"
   id="rect9"
   inkscape:connector-curvature="0" />
  <path
   style="fill:#007e3a;fill-opacity:1"
   d="m 0,682 1023,0 0,-455 -1023,0 z"
   id="rect11"
   inkscape:connector-curvature="0"
   sodipodi:nodetypes="ccccc" />
  <path
   style="fill:#6ea6dd;fill-opacity:1"
   d="m 0,682 1023,0 0,-226.99969 -1023,0 z"
   id="rect13"
   inkscape:connector-curvature="0"
   sodipodi:nodetypes="ccccc" />
  <path
   style="fill:#ffffff;stroke:none"
   d="m 615.49986,341.00059 c 0,56.33304 -45.6669,102 -102,102 -56.333,0 -102,-45.66696 -102,-102 0,-56.33303 45.667,-101.99999 102,-101.99999 56.3331,0 102,45.66696 102,101.99999 z"
   id="circle15"
   inkscape:connector-curvature="0" />
  <path
   style="fill:#007e3a;fill-opacity:1;stroke:none"
   d="m 651.49986,339.00059 c 0,53.01934 -42.9806,96 -96,96 -53.0193,0 -96,-42.98066 -96,-96 0,-53.01933 42.9807,-95.99999 96,-95.99999 53.0194,0 96,42.98066 96,95.99999 z"
   id="circle17"
   inkscape:connector-curvature="0" />
  <path
   class="fil3"
   d="m 552.49986,277.0006 14,43.99999 45.0003,0 -37.0003,26 15,44 -37,-27 -37,27 14,-44 -37,-26 45,0 z"
   id="path19"
   inkscape:connector-curvature="0"
   style="fill:#ffffff;stroke:none"
   sodipodi:nodetypes="ccccccccccc" />
  <path
   class="fil3"
   d="m 902.94118,511.49982 14,44 46,0 -37,27 14,43 -37,-27 -37,27 14,-43 -37,-27 46,0 14,-44 z m 7,22 m 30,22 m 4,13 m -11,35 m -12,9 m -37,0 m -11,-9 m -12,-35 m 5,-13 m 30,-22"
   id="path21"
   inkscape:connector-curvature="0"
   style="fill:#ffffff" />
  <path
   class="fil3"
   d="m 120.05865,57.499484 14,42.999996 45,0 -37,27 15,43 -37,-26 -36.999999,26 14,-43 -37,-27 44.999999,0 15,-42.999996 z m 7,21 m 30,21.999996 m 4,14 m -12,35 m -11,8 m -37,0 m -10.999999,-8 m -12,-35 m 5,-14 M 112.05865,78.499484"
   id="path23"
   inkscape:connector-curvature="0"
   style="fill:#ffffff" />
 </g>
</svg>