<?xml version="1.0" encoding="UTF-8"?>
<svg xmlns="http://www.w3.org/2000/svg" width="720" height="480">
	<path d="M 0,0 H 720 L 0,480 H 720 z" fill="#ce1126"/>
	<path d="M 0,0 V 480 L 720,0 V 480 z" fill="#1eb53a"/>
	<path d="M 0,0 L 720,480 M 720,0 L 0,480" stroke="#fff" stroke-width="60"/>
	<circle cx="360" cy="240" r="136" fill="#fff"/>
	<path d="M 347.153,322.566 C 345.705,320.223 347.572,317.924 350.921,317.924 C 355.366,317.924 358.435,310.316 358.435,299.296 C 358.435,290.831 357.927,289.086 354.447,285.606 C 352.253,283.413 349.832,281.618 349.067,281.618 C 348.301,281.618 346.302,284.723 344.623,288.518 C 342.114,294.189 341.187,295.099 339.414,293.627 C 338.227,292.642 337.256,289.979 337.256,287.707 C 337.256,283.586 342.711,273.97 345.576,273.04 C 346.408,272.77 349.472,274.588 352.384,277.08 C 355.296,279.571 358.359,281.389 359.191,281.119 C 360.023,280.849 360.916,278.115 361.175,275.044 C 361.602,269.981 360.797,268.61 352.543,260.357 C 344.294,252.107 343.15,251.435 340.348,253.185 C 338.647,254.247 336.183,257.376 334.873,260.138 C 332.934,264.224 332.089,264.826 330.335,263.37 C 327.257,260.816 327.671,254.948 331.398,248.317 C 335.632,240.784 340.539,238.077 345.32,240.636 C 349.092,242.655 353.622,249.358 355.199,255.256 C 357.22,262.81 359.186,259.223 358.657,248.947 C 357.816,232.578 345.454,210.451 343.597,221.989 C 342.584,228.283 341.907,229.135 339.507,227.144 C 334.557,223.036 338.638,212.031 345.111,212.031 C 347.987,212.031 355.409,219.266 355.409,222.07 C 355.409,223.205 356.169,224.133 357.098,224.133 C 358.165,224.133 358.385,222.879 357.695,220.729 C 357.094,218.857 356.252,212.56 355.824,206.736 C 355.361,200.438 354.008,194.614 352.484,192.365 L 372.806,188.668 C 360.575,199.113 361.46,196.872 361.46,217.395 C 361.46,227.659 362.089,236.445 362.857,236.92 C 363.626,237.395 365.808,235.563 367.707,232.849 C 372.38,226.17 381.4,217.923 383.335,218.559 C 386.042,219.45 386.074,235.593 383.38,240.803 C 380.799,245.794 377.02,246.177 377.821,241.367 C 379.454,231.555 377.156,229.008 372.051,234.974 C 361.39,247.432 361.324,247.546 362.435,251.363 C 363.041,253.443 363.635,263.275 363.756,273.212 C 363.892,284.471 364.582,291.483 365.587,291.818 C 366.474,292.114 368.775,290.11 370.701,287.365 C 374.806,281.513 382.4,274.054 384.253,274.054 C 386.813,274.054 391.716,280.75 391.716,284.247 C 391.716,290.935 384.137,301.906 381.955,298.376 C 381.431,297.528 382.079,294.752 383.395,292.207 C 385.666,287.817 385.405,284.643 382.774,284.643 C 382.115,284.643 379.587,286.515 377.157,288.803 C 374.727,291.092 370.163,294.9 367.014,297.266 C 362.221,300.868 361.365,302.337 361.753,306.294 C 362.2,310.851 363.543,312.178 374.515,318.902 C 376.755,320.275 376.96,321.037 375.499,322.563 C 374.004,324.123 372.522,324.116 367.704,322.526 C 361.98,320.637 355.906,320.844 350.646,323.108 C 349.274,323.698 347.702,323.454 347.153,322.566 z" fill="#1eb53a"/>
	<path d="M 352.92,193.188 C 349.09,187.198 345.853,177.004 346.614,173.328 C 346.997,171.476 348.322,170.543 350.283,170.742 C 352.811,170.999 353.249,170.331 352.763,166.96 C 352.374,164.268 353.265,161.701 355.362,159.462 C 360.23,154.269 361.574,154.866 368.746,165.408 C 373.733,172.738 374.675,176.371 372.017,178.014 C 371.11,178.574 371.891,180.171 373.908,181.88 L 377.344,184.792 L 373.387,188.2 C 363.724,196.522 362.035,197.642 359.04,197.716 C 357.101,197.763 354.718,196 352.92,193.188 z" fill="#ce1126"/>
</svg>