<?xml version="1.0" encoding="UTF-8" standalone="no"?>
<!-- Created with Inkscape (http://www.inkscape.org/) -->
<svg
   xmlns:dc="http://purl.org/dc/elements/1.1/"
   xmlns:cc="http://web.resource.org/cc/"
   xmlns:rdf="http://www.w3.org/1999/02/22-rdf-syntax-ns#"
   xmlns:svg="http://www.w3.org/2000/svg"
   xmlns="http://www.w3.org/2000/svg"
   xmlns:sodipodi="http://sodipodi.sourceforge.net/DTD/sodipodi-0.dtd"
   xmlns:inkscape="http://www.inkscape.org/namespaces/inkscape"
   id="svg2"
   sodipodi:version="0.32"
   inkscape:version="0.45.1"
   width="2277"
   height="1387"
   version="1.0"
   sodipodi:docbase="C:\Users\manu\Desktop"
   sodipodi:docname="NF_1892_-_1919.svg"
   inkscape:output_extension="org.inkscape.output.svg.inkscape">
  <metadata
     id="metadata7">
    <rdf:RDF>
      <cc:Work
         rdf:about="">
        <dc:format>image/svg+xml</dc:format>
        <dc:type
           rdf:resource="http://purl.org/dc/dcmitype/StillImage" />
      </cc:Work>
    </rdf:RDF>
  </metadata>
  <defs
     id="defs5" />
  <sodipodi:namedview
     inkscape:window-height="944"
     inkscape:window-width="1280"
     inkscape:pageshadow="2"
     inkscape:pageopacity="1"
     guidetolerance="10.0"
     gridtolerance="10.0"
     objecttolerance="10.0"
     borderopacity="1.0"
     bordercolor="#666666"
     pagecolor="#ffffff"
     id="base"
     inkscape:zoom="0.35355339"
     inkscape:cx="682.52344"
     inkscape:cy="560.04102"
     inkscape:window-x="-8"
     inkscape:window-y="-8"
     inkscape:current-layer="layer3" />
  <g
     inkscape:groupmode="layer"
     id="layer1"
     inkscape:label="White">
    <path
       sodipodi:type="arc"
       style="opacity:1;fill:#ffffff;fill-opacity:1;fill-rule:evenodd;stroke:#ffffff;stroke-width:1.495;stroke-linecap:round;stroke-linejoin:bevel;stroke-miterlimit:4;stroke-dasharray:none;stroke-dashoffset:0;stroke-opacity:1"
       id="path2158"
       sodipodi:cx="1202.0815"
       sodipodi:cy="679.89319"
       sodipodi:rx="593.96973"
       sodipodi:ry="593.96973"
       d="M 1796.0513 679.89319 A 593.96973 593.96973 0 1 1  608.11182,679.89319 A 593.96973 593.96973 0 1 1  1796.0513 679.89319 z"
       transform="translate(-87.681251,11.313736)" />
  </g>
  <path
     style="fill:#000000"
     d="M -3.5561831e-017,693.49995 L -3.5561831e-017,-4.55e-005 L 1138.5,-4.55e-005 L 2277,-4.55e-005 L 2277,693.49995 L 2277,1387 L 1138.5,1387 L -3.5561831e-017,1387 L -3.5561831e-017,693.49995 z M 1222.7534,1151.3557 C 1227.0752,1148.6586 1233.4606,1136.2802 1232.8292,1131.8235 C 1232.4263,1128.9799 1229.9807,1128.893 1218.7922,1131.3248 C 1208.252,1133.6156 1200.9256,1133.4291 1189.8782,1130.5889 C 1177.2194,1127.3343 1174.572,1126.0801 1166.6432,1119.581 C 1158.6521,1113.0308 1156,1112.4453 1156,1117.2313 C 1156,1119.9014 1157.1207,1121.5348 1162.4524,1126.6357 C 1169.1284,1133.0225 1183.7055,1143.2968 1192.194,1147.5983 C 1197.7162,1150.3966 1214.2358,1154.0247 1218,1153.266 C 1219.375,1152.9888 1221.514,1152.1292 1222.7534,1151.3557 z M 1089.5,1150.4761 C 1104.7541,1146.377 1122.1302,1134.5675 1126.5206,1125.3154 C 1128.1788,1121.8209 1128.1751,1121.6012 1126.4365,1120.3299 C 1123.497,1118.1805 1121.4799,1118.7019 1110.2013,1124.5265 C 1103.6749,1127.8969 1097.1592,1130.4784 1093.5,1131.1435 C 1086.8636,1132.3498 1069.9074,1131.6369 1063.5,1129.8821 C 1055.3686,1127.6552 1053.8328,1128.0458 1050.3563,1133.2247 C 1048.6119,1135.8234 1046.3879,1140.0359 1045.414,1142.5859 L 1043.6434,1147.2224 L 1046.0717,1149.0642 C 1047.4073,1150.0772 1050.075,1151.3623 1052,1151.9201 C 1057.0755,1153.3908 1082.2627,1152.4209 1089.5,1150.4761 z M 1018.704,1114.4261 C 1028.7486,1112.3513 1046.7141,1105.8912 1054.4131,1101.5857 C 1062.2219,1097.2188 1070,1090.0502 1070,1087.2203 C 1070,1084.5993 1066.5862,1083.5527 1053,1082.008 C 1039.8943,1080.5179 1017.8882,1074.9998 996.563,1067.8562 C 982.6872,1063.2081 977.8578,1061.9917 975.2332,1062.4841 C 973.3672,1062.8341 964.1139,1066.1874 954.6703,1069.9357 C 945.2266,1073.684 935.7,1077.3854 933.5,1078.161 C 930.3988,1079.2543 929.4317,1080.1524 929.1959,1082.1574 C 928.9314,1084.4073 929.972,1085.4598 937.1959,1090.2492 C 950.5068,1099.0743 961.6179,1104.6109 975,1109.0869 C 995.5006,1115.9439 1005.4635,1117.161 1018.704,1114.4261 z M 1222.2205,1114.9556 C 1226.2437,1113.8382 1229.1821,1110.6381 1228.2987,1108.3361 C 1226.3594,1103.2823 1186.9294,1090.546 1179.2163,1092.4819 C 1172.7964,1094.0931 1172.4714,1096.9818 1178.0028,1103.2658 C 1182.7895,1108.7038 1188.9552,1112.4924 1196.1844,1114.4379 C 1202.4718,1116.1299 1216.9552,1116.4179 1222.2205,1114.9556 z M 1340.268,1113.9454 C 1345.8133,1112.8153 1353.4727,1110.7998 1357.289,1109.4665 C 1374.8338,1103.3367 1407.0365,1083.4058 1410.821,1076.3345 C 1412.6086,1072.9943 1409.3654,1070.933 1400.8063,1069.9693 C 1396.7878,1069.5169 1386.75,1067.2809 1378.5,1065.0004 C 1356.3666,1058.8822 1343.9684,1056.0028 1339.7528,1056.0013 C 1337.6919,1056.0006 1329.9281,1058.25 1322.5,1061 C 1315.0719,1063.75 1308.5842,1066 1308.0829,1066 C 1307.5816,1066 1300.9551,1068.2735 1293.3572,1071.0522 C 1285.7594,1073.8309 1271.0434,1078.5894 1260.6551,1081.6267 C 1250.2668,1084.6639 1240.6946,1087.6377 1239.3836,1088.235 C 1231.5853,1091.7881 1242.5699,1097.7686 1273.5,1106.8094 C 1291.3089,1112.0149 1295.3653,1112.9461 1307,1114.5001 C 1321.0168,1116.3724 1329.013,1116.239 1340.268,1113.9454 z M 1091.6529,1113.68 C 1101.2686,1111.1857 1112.9848,1100.0601 1111.6397,1094.7007 C 1110.4707,1090.0427 1101.7061,1088.56 1093.7702,1091.6776 C 1083.2727,1095.8015 1067,1107.6231 1067,1111.1253 C 1067,1112.2016 1068.0011,1113.4669 1069.25,1113.9688 C 1072.6599,1115.3394 1085.9143,1115.1686 1091.6529,1113.68 z M 1147.3934,1101.7828 C 1148.8819,1094.3406 1147.4391,1085.81 1144.2876,1083.4195 C 1141.7757,1081.5142 1139.0247,1081.6876 1135.25,1083.989 C 1132.0759,1085.9243 1132,1086.136 1132,1093.051 C 1132,1103.7133 1133.824,1105.8465 1142.3604,1105.1676 C 1146.3821,1104.8478 1146.8424,1104.5382 1147.3934,1101.7828 z M 1172.2731,1077.3852 C 1188.0647,1072.7164 1190.616,1071.3439 1197.3645,1063.8866 C 1208.8187,1051.2293 1210.2154,1036.2154 1200.8134,1026.8134 C 1196.3526,1022.3526 1187.826,1019.4509 1182.1657,1020.4673 C 1177.0791,1021.3807 1165.0084,1033.9197 1159,1044.5316 C 1154.6418,1052.229 1154.5,1052.7476 1154.5,1060.9897 C 1154.5,1069.6493 1157.0816,1081 1159.0511,1081 C 1159.5984,1081 1165.5484,1079.3733 1172.2731,1077.3852 z M 1165.5814,1066.3516 C 1164.5605,1063.6911 1167.742,1055.0244 1171.8101,1049.3841 C 1180.001,1038.0279 1181.5849,1036.1135 1183.5572,1035.186 C 1186.6507,1033.7313 1191.3937,1036.1221 1192.9717,1039.9316 C 1195.9459,1047.1119 1189.5183,1056.3152 1176.534,1063.4675 C 1168.3988,1067.9488 1166.3966,1068.476 1165.5814,1066.3516 z M 1226.5,1071.4426 C 1232.55,1068.9576 1245.825,1064.6401 1256,1061.8482 C 1266.175,1059.0563 1280.8,1054.5916 1288.5,1051.9266 C 1296.2,1049.2617 1305.1482,1046.3384 1308.3849,1045.4304 C 1317.7419,1042.8057 1320.5616,1039.5074 1324.0022,1027.1629 C 1325.5868,1021.4775 1329.0165,1011.457 1331.6239,1004.8952 C 1335.0647,996.23549 1336.0636,992.66354 1335.2671,991.86703 C 1333.687,990.28699 1303.7395,997.95681 1291.3344,1003.1186 C 1268.128,1012.7748 1250.3413,1026.1053 1227.9273,1050.6401 C 1214.5812,1065.2489 1208.5446,1076.0386 1213.75,1075.9804 C 1214.7125,1075.9697 1220.45,1073.9277 1226.5,1071.4426 z M 1125.7674,1072.8297 C 1132.6102,1070.7432 1134.0685,1059.7102 1128.6667,1050.8945 C 1113.1907,1025.6377 1110.7292,1022.3338 1104.1326,1017.9645 C 1097.4062,1013.5091 1087.9635,1014.4337 1084.049,1019.9311 C 1078.6305,1027.5408 1077.3007,1049.0583 1081.7273,1057.5 C 1085.8511,1065.3645 1095.6888,1071.9514 1106.1763,1073.8702 C 1111.199,1074.7892 1121.0587,1074.2655 1125.7674,1072.8297 z M 1113.2997,1070.6594 C 1112.8599,1069.9221 1109.0667,1066.7945 1104.8705,1063.7092 C 1092.5686,1054.6641 1087.9961,1048.095 1088.0192,1039.5 C 1088.0378,1032.5985 1090.5725,1030.0025 1097.2971,1029.9977 C 1104.1941,1029.9928 1123,1054.857 1123,1063.9809 C 1123,1069.6103 1115.6801,1074.6499 1113.2997,1070.6594 z M 1065.7563,1066 C 1066.1162,1064.0269 1050.2056,1034.5745 1043.6408,1025.0615 C 1035.9261,1013.8823 1030.3751,1008.9009 1018.105,1002.1464 C 1010.0991,997.73921 1004.2953,995.36247 996.8007,993.422 C 980.2072,989.12563 969.9132,987.07123 963.5,986.77608 C 958.1242,986.52868 957.4697,986.71117 957.2092,988.53043 C 956.8259,991.20683 967.5578,1012.9149 974.4025,1023.3085 C 980.6691,1032.8243 993.3122,1046.0988 998.7493,1048.8711 C 1003.0425,1051.0602 1021.8586,1057.3295 1043,1063.6149 C 1057.983,1068.0694 1065.2402,1068.83 1065.7563,1066 z M 930.3075,1056.5563 C 939.5563,1053.8461 948.3425,1049.8729 949.6053,1047.8296 C 950.7479,1045.9808 942.4342,1039.234 931.3275,1032.9967 C 925.9441,1029.9735 912.7556,1021.6081 902.0198,1014.4069 C 881.6673,1000.7553 857.832,986.21615 850.0412,982.70081 C 845.9906,980.87314 842.978,980.605 822.1568,980.21901 C 806.3423,979.92583 798.4682,980.1317 797.7426,980.85732 C 794.399,984.20095 822.1355,1017.6746 844.6113,1037.4206 C 856.8207,1048.1471 870.1655,1053.8683 892.5,1057.9516 C 906.6264,1060.5342 918.1888,1060.1075 930.3075,1056.5563 z M 1457.7033,1048.7469 C 1481.022,1041.9008 1488.1936,1037.0652 1505.4476,1016.554 C 1521.8865,997.0116 1530.1418,984.65643 1528.5169,982.02734 C 1528.1677,981.46228 1526.671,981.00386 1525.191,981.00864 C 1516.8244,981.03566 1453.9848,996.10659 1438.1655,1001.8802 C 1433.0439,1003.7494 1425.5165,1007.7831 1418.6391,1012.3438 C 1412.4836,1016.4257 1399.1342,1023.9228 1388.9737,1029.0039 C 1370.2856,1038.3494 1365,1041.4344 1365,1042.9962 C 1365,1044.1591 1374.1318,1047.4866 1381.4913,1049.0055 C 1393.1915,1051.4202 1420.4696,1053.9023 1431.5,1053.5559 C 1440.9798,1053.2581 1444.6011,1052.5935 1457.7033,1048.7469 z M 1351.6229,1027.861 C 1354.3053,1026.6846 1358.075,1024.4908 1360,1022.986 C 1361.925,1021.4811 1369.35,1016.7673 1376.5,1012.5107 C 1396.4736,1000.6201 1420.6443,983.28004 1424.9996,977.71727 C 1427.9402,973.96148 1433.5852,961.90578 1436.3393,953.49995 C 1439.526,943.77353 1447.1182,906.47149 1446.3294,904.41605 C 1445.3515,901.86771 1440.86,903.89689 1421.9521,915.42915 C 1415.1035,919.60629 1405.225,926.49949 1400,930.74737 C 1376.7072,949.6842 1369.7276,959.98165 1352.7218,1000.5 C 1340.3388,1030.0038 1340.2241,1032.8603 1351.6229,1027.861 z M 949.4655,1020.75 C 949.0974,1019.5125 943.924,1008.375 937.969,995.99995 C 932.014,983.62495 925.7539,969.98572 924.0576,965.69054 C 918.1725,950.78857 913.1657,942.34598 905.0415,933.62464 C 899.9952,928.20747 884.4261,914.68831 879,911.01196 C 877.075,909.70772 873.4332,906.7446 870.9072,904.42726 C 866.2952,900.19626 862.5655,897.89169 858.0935,896.50957 L 855.6869,895.76582 L 856.3393,904.25242 C 857.0863,913.97156 860.135,929.72282 862.9678,938.49995 C 864.0329,941.79995 865.634,947.39282 866.5258,950.92855 C 869.0038,960.75285 872.3647,966.38506 881.3108,975.70498 C 894.1756,989.10727 942.6437,1022.7987 949.3174,1022.978 C 949.7669,1022.9901 949.8336,1021.9875 949.4655,1020.75 z M 1492.2725,966.98043 C 1518.588,958.2349 1533.247,951.65313 1548,941.95929 C 1560.139,933.98302 1567.0671,928.04941 1571.7489,921.61931 C 1573.799,918.80366 1577.5551,913.90203 1580.0958,910.7268 C 1591.1162,896.95383 1607.7983,855.26935 1608.3062,840.23585 L 1608.5,834.49995 L 1605.0892,834.1746 C 1600.867,833.77185 1594.043,836.22803 1574.9534,845.02142 C 1556.7096,853.4252 1553.9563,855.26312 1547.5292,863.32806 C 1542.2479,869.9552 1541.0921,871.63294 1526.4002,893.99995 C 1510.9817,917.47317 1498.1719,933.35743 1474.2648,958.64834 C 1465.8692,967.52996 1459,975.12862 1459,975.53427 C 1459,977.24654 1469.5178,974.54259 1492.2725,966.98043 z M 839.7997,964.83021 C 840.0018,963.76263 830.8085,953.64976 814.3079,936.78832 C 795.5578,917.62831 783.5464,904.27442 770.3864,887.95806 C 750.8391,863.72245 742.4902,854.99995 738.8398,854.99995 C 737.5858,854.99995 730.7561,853.5963 723.6626,851.88073 C 709.531,848.46296 708.674,848.62006 709.6312,854.45285 C 714.073,881.51994 723.0232,905.24725 735.2652,922.40969 C 745.3205,936.50644 746.7902,938.03442 756.5723,944.56158 C 771.4251,954.47227 781.2167,957.67856 814.0975,963.39856 C 835.5926,967.13787 839.3235,967.34569 839.7997,964.83021 z M 1060.1312,962.50275 C 1087.2504,956.81121 1102.8219,951.94981 1119.5,943.96782 C 1127.75,940.01945 1147.3148,930.96003 1162.9772,923.83579 C 1178.6397,916.71154 1191.7708,910.37076 1192.1575,909.74516 C 1194.2225,906.40395 1187.3146,902.34315 1181.4405,903.44514 C 1179.4644,903.81585 1173.3745,906.7904 1167.9074,910.05526 C 1156.5223,916.85415 1146.2799,922.13455 1138.7315,925.09658 C 1135.8542,926.22567 1128.325,929.43632 1122,932.23136 C 1103.5805,940.37098 1069.7758,952.44128 1052.4766,957.0554 C 1034.1986,961.93057 1027.5441,964.45328 1028.5726,966.11741 C 1029.6189,967.81042 1041.1151,966.49366 1060.1312,962.50275 z M 1261.4182,956.39296 C 1264.116,955.35771 1263.1654,952.96701 1259.4364,951.40892 C 1257.4764,950.58999 1250.1639,949.50475 1243.1864,948.99727 C 1228.8482,947.95445 1214.1968,945.5505 1190.6629,940.37937 C 1180.3282,938.10852 1172.9677,936.99488 1170.2505,937.29102 C 1163.1297,938.0671 1161.2379,941.4204 1166.5543,943.84273 C 1171.0492,945.89076 1205.3878,954.24801 1214.5,955.51167 C 1223.8321,956.80581 1258.6386,957.45961 1261.4182,956.39296 z M 1467.2493,933.74995 C 1481.776,916.99365 1517.5112,868.11935 1522.5036,858.1797 C 1529.9561,843.34216 1531.2844,834.08103 1528.5533,815.99995 C 1526.7279,803.91527 1524.9979,798.62315 1522.73,798.18644 C 1519.1979,797.50628 1489.5944,830.87676 1484.1644,841.65939 C 1482.4584,845.04708 1479.9278,849.49108 1478.5408,851.53494 C 1469.5489,864.78533 1454.1383,939.99995 1460.4154,939.99995 C 1461.1939,939.99995 1464.2692,937.18745 1467.2493,933.74995 z M 842,933.65888 C 842,931.82129 841.3176,928.10879 840.4835,925.40888 C 839.6494,922.70897 835.8296,905.106 831.9951,886.29117 C 828.1605,867.47634 824.1917,849.89413 823.1754,847.21959 C 819.3474,837.14495 804.9951,817.1518 791.6113,803.24995 C 779.9625,791.15014 778.323,791.03402 773.9983,802.00245 C 771.195,809.11226 769.9072,825.82162 771.0156,840.70294 C 771.7472,850.52589 772.3453,853.0653 775.871,861.31739 C 781.1657,873.70992 784.4001,879.05351 793.3625,890.21478 C 803.6925,903.07923 838.3332,936.99995 841.1408,936.99995 C 841.6134,936.99995 842,935.49647 842,933.65888 z M 979.0129,933.49327 C 983.2516,931.30138 984.6079,925.60288 982.5642,918.57289 C 980.8445,912.65718 979.6621,911.29068 976,910.98633 C 970.6649,910.54296 968.7431,911.10304 965.9231,913.92303 C 962.2998,917.54626 962.0975,921.78788 965.25,928.03466 C 968.5589,934.59143 973.2734,936.46128 979.0129,933.49327 z M 1316.7174,929.10207 C 1319.5221,924.92694 1319.6225,920.53321 1317.011,916.24995 C 1315.3674,913.55435 1314.4167,912.99995 1311.4378,912.99995 C 1305.2218,912.99995 1299.8441,920.25841 1301.417,926.52539 C 1302.5305,930.96165 1305.611,933.14611 1310.2722,932.80477 C 1313.7282,932.55169 1314.8222,931.92321 1316.7174,929.10207 z M 1275.9324,928.03444 C 1281.0948,925.40077 1286.5006,918.8886 1289.1768,912.0793 C 1292.0736,904.70881 1292.4884,887.06343 1289.8275,884.40031 C 1287.2791,881.84976 1285.7268,883.17361 1283.1004,890.13752 C 1281.7807,893.63686 1278.0682,902.85675 1274.8504,910.62616 C 1268.6426,925.61544 1268.311,926.91099 1270.2,928.79995 C 1271.7113,930.31128 1271.3836,930.35504 1275.9324,928.03444 z M 1015,926.56384 C 1015,924.63297 1005.7523,902.9933 1001.7248,895.49995 C 999.9512,892.19995 998.05,889.49995 997.5,889.49995 C 995.6454,889.49995 995.8642,898.93 997.8845,906.06914 C 998.9817,909.94631 1001.0144,915.05513 1002.4015,917.42209 C 1006.6691,924.7042 1015,930.74928 1015,926.56384 z M 1048.7057,915.32887 C 1059.0489,910.02891 1062,907.55154 1062,904.16885 C 1062,901.05659 1049.7586,873.68332 1046.3942,869.27236 C 1045.0214,867.47253 1043.0129,865.99995 1041.9309,865.99995 C 1039.8121,865.99995 1021.3074,874.96844 1016.6942,878.23115 C 1014.3019,879.92316 1013.984,880.67858 1014.5366,883.35776 C 1015.4326,887.70108 1029.6433,916.99139 1032.1483,919.65778 C 1034.6026,922.27027 1035.7391,921.97312 1048.7057,915.32887 z M 1120.3979,920.8645 C 1123.0886,919.63854 1124.2219,917.74178 1123.4561,915.74606 C 1122.8224,914.09472 1108.3858,906.39443 1104.323,905.54069 C 1100.9464,904.83117 1096.4446,906.5544 1094.0095,909.48854 C 1092.298,911.55071 1094.065,913.42712 1102.4412,918.44255 C 1108.8271,922.26629 1115.3812,923.15028 1120.3979,920.8645 z M 1251.3259,917.74995 C 1253.4073,916.22687 1268,882.75116 1268,879.49952 C 1268,876.35397 1263.671,872.92008 1255.3652,869.47712 C 1251.5893,867.91195 1244.0128,864.68929 1238.5284,862.31565 C 1233.0441,859.94202 1227.7804,857.99995 1226.8314,857.99995 C 1225.634,857.99995 1223.6917,860.96608 1220.4848,867.69196 C 1210.8909,887.81359 1208.7393,894.77573 1210.8789,898.77368 C 1211.4795,899.89582 1216.8149,903.30402 1222.7354,906.34746 C 1228.6559,909.39091 1235.975,913.47125 1239,915.41488 C 1244.7819,919.1299 1248.4822,919.83089 1251.3259,917.74995 z M 1091.5,893.28409 C 1100.8556,889.42528 1122.694,877.99557 1124.4781,876.02411 C 1125.97,874.37567 1125.8729,874.07075 1123.1179,871.75258 C 1119.8419,868.99607 1095.0024,855.21583 1087.556,852.02394 C 1080.7724,849.11615 1075.3661,849.38195 1069.8256,852.89562 C 1063.3351,857.01174 1061.965,859.27127 1063.1971,863.827 C 1064.8675,870.0032 1075.6587,891.7496 1078.4267,894.5176 C 1081.3164,897.40726 1081.559,897.38437 1091.5,893.28409 z M 1190.195,884.24995 C 1191.7388,882.45488 1203.1693,858.35874 1204.4665,854.16487 C 1205.4292,851.05245 1202.1585,847.59748 1196.0993,845.32631 C 1193.5697,844.37813 1190.375,842.80393 1189,841.82809 C 1187.625,840.85225 1179.9793,837.32107 1172.0096,833.98102 C 1164.0399,830.64098 1155.7149,826.85247 1153.5096,825.56212 C 1151.3043,824.27177 1144.1,820.95123 1137.5,818.18314 C 1130.9,815.41506 1120.55,810.81996 1114.5,807.97183 C 1108.45,805.12369 1099.3556,801.29087 1094.2903,799.45444 L 1085.0806,796.11548 L 1082.504,799.17759 C 1079.2925,802.99419 1077.7518,805.95694 1074.5371,814.49758 C 1071.404,822.82158 1071.339,826.04234 1074.25,828.72417 C 1075.4875,829.86424 1088.65,836.90265 1103.5,844.36509 C 1118.35,851.82753 1131.625,858.59459 1133,859.40299 C 1134.375,860.2114 1139.325,862.75503 1144,865.0555 C 1148.675,867.35598 1155.6247,871.05534 1159.4437,873.27631 C 1181.2569,885.96182 1186.9696,888.00041 1190.195,884.24995 z M 1345.9707,878.67006 C 1355.1291,874.33276 1351.2147,856.36659 1337.8465,841.38202 C 1334.9604,838.14688 1328.95,831.67495 1324.4901,826.99995 C 1315.1751,817.2355 1313.645,815.15892 1308.5063,805.30717 C 1305.954,800.41416 1304.9441,797.37669 1305.3476,795.80717 C 1305.6738,794.5382 1308.429,790.65876 1311.4703,787.18619 C 1314.5117,783.71363 1317,780.31032 1317,779.62329 C 1317,777.85544 1312.0224,773.32456 1308.7022,772.07013 C 1304.853,770.61586 1299.6402,772.90143 1297.0256,777.18977 C 1292.9574,783.86247 1294.8607,795.06109 1302.6021,809.99995 C 1306.9252,818.34256 1309.0342,821.06372 1327.8308,842.5526 C 1338.2807,854.49919 1338.3057,854.59764 1333.0363,862.99995 C 1329.1107,869.25946 1328.6421,871.40726 1330.4428,874.88927 C 1333.5729,880.94224 1338.5923,882.16438 1345.9707,878.67006 z M 950.7429,866.41484 C 954.4266,862.29259 954.6481,859.25299 951.653,853.9248 C 948.8379,848.91682 948.2933,844.27009 950.1013,840.68421 C 950.707,839.48287 958.5376,831.29995 967.5027,822.49995 C 982.0492,808.22136 984.0287,805.87728 985.9015,800.71244 C 988.3599,793.93238 988.6894,783.5856 986.6056,778.59852 C 985.2132,775.26595 981.6241,771.99995 979.3542,771.99995 C 977.2357,771.99995 972.2235,776.92016 971.1214,780.08154 C 969.9849,783.34156 970.3126,783.8479 977.2723,789.58649 C 979.6237,791.52531 979.7406,792.02086 978.9227,796.58649 C 978.4387,799.28889 976.3266,804.8501 974.2292,808.94473 C 970.7093,815.81649 969.6878,816.90969 960.9579,823.14769 C 941.2398,837.23733 934.8802,845.05935 934.7878,855.33555 C 934.6798,867.35781 944.0719,873.87977 950.7429,866.41484 z M 1022.513,857.58341 C 1028.0122,853.9802 1026.5493,849.69515 1018.057,844.53121 C 1015.0007,842.6727 1009.125,838.73056 1005,835.77089 C 988.7483,824.11036 985.4764,823.20385 979.0771,828.58855 C 975.5035,831.59554 975.1512,834.6512 977.9657,838.22925 C 979.5814,840.28321 999.3154,855.07983 1004.8943,858.42037 C 1009.3682,861.09924 1017.7552,860.70083 1022.513,857.58341 z M 1283.0289,854.879 C 1295.9409,846.53428 1302,841.33536 1302,838.60111 C 1302,836.21749 1297.9366,830.10363 1295.4143,828.69205 C 1292.7978,827.2278 1265.4498,843.54591 1259.5198,850.1097 C 1255.302,854.77835 1255.723,856.05369 1262.5,859.13647 C 1269.4598,862.30239 1272.5266,861.66636 1283.0289,854.879 z M 748.8,842.79995 C 750.4594,841.14059 750.3018,832.60344 748.4799,825.46005 C 747.6439,822.18199 743.6398,812.97495 739.5819,804.99995 C 726.4941,779.27845 709.8096,741.17115 707.4073,731.51322 C 706.8969,729.46145 699.7244,721.55729 684.4945,706.26322 C 672.3012,694.01842 661.8102,683.99995 661.1814,683.99995 C 659.1008,683.99995 658.4986,689.31093 658.6299,706.49995 C 658.7384,720.69077 659.195,725.56553 661.3931,735.99995 C 666.396,759.74899 672.6425,781.35461 678.8189,796.27264 C 685.4409,812.26698 688.7,817.691 696.4663,825.64329 C 701.2444,830.53578 702.1855,831.01108 715,835.00317 C 722.425,837.31629 731.425,840.23255 735,841.48375 C 742.4398,844.08759 747.0707,844.52926 748.8,842.79995 z M 1213.6642,827.54765 C 1220.7149,824.32758 1221.5475,822.47434 1218.94,815.80351 C 1216.5227,809.61911 1209.4363,796.28431 1207.2202,793.74995 C 1206.3786,792.78745 1204.5836,791.99995 1203.2314,791.99995 C 1198.7121,791.99995 1159,810.02984 1159,812.08166 C 1159,814.08396 1187.9223,827.76842 1196.8073,829.97003 C 1201.7817,831.20262 1207.4423,830.38918 1213.6642,827.54765 z M 1571.6447,825.89776 C 1575.4151,824.74156 1583.9,821.19718 1590.5,818.02137 C 1601.3117,812.81893 1603.2474,811.46483 1610.0474,804.3466 C 1619.7692,794.16987 1629.5749,779.37489 1635.794,765.49995 C 1644.6451,745.75283 1646.1337,739.89969 1647.9516,717.69548 C 1649.4182,699.78333 1649.3582,697.99995 1647.2885,697.99995 C 1644.1531,697.99995 1621.3252,713.9232 1618.3914,718.15668 C 1616.8775,720.34124 1612.2326,724.98319 1608.0694,728.47212 C 1595.7464,738.79934 1594.5268,740.43954 1589.4582,753.49995 C 1586.8969,760.09995 1583.0649,769.54995 1580.9427,774.49995 C 1578.8204,779.44995 1575.5427,787.54995 1573.6587,792.49995 C 1571.7747,797.44995 1568.1246,806.55952 1565.5472,812.74345 C 1560.9539,823.76421 1560.375,827.99995 1563.4621,827.99995 C 1564.1921,827.99995 1567.8742,827.05397 1571.6447,825.89776 z M 1394.818,824.96954 C 1399.8055,821.92878 1402.2,815.61366 1402.2,805.50078 C 1402.2,796.42553 1401.6078,794.78717 1395.8023,787.7997 C 1389.7889,780.56215 1386.5916,778.99995 1377.7919,778.99995 C 1369.6209,778.99995 1357.4599,781.70433 1351.1458,784.92555 C 1346.9587,787.06165 1330.3946,802.23272 1326.9167,807.11698 C 1325.0466,809.74327 1325.0173,810.13269 1326.4773,812.95603 C 1328.6902,817.23541 1332.1224,819.28944 1335.115,818.12542 C 1336.4268,817.6152 1342.9,813.09072 1349.5,808.07101 C 1356.1,803.05131 1364.2513,797.57517 1367.6139,795.90183 C 1373.4665,792.98944 1373.8798,792.92289 1377.2834,794.34501 C 1383.2797,796.85042 1384.5808,801.98094 1381,808.99995 C 1377.4429,815.97252 1378.8348,821.09894 1385.3667,825.08189 C 1389.3224,827.49393 1390.7045,827.4775 1394.818,824.96954 z M 911.4111,821.92322 C 914.8566,817.82847 914.7211,813.90841 910.9444,808.41907 C 909.2637,805.9764 907.2163,802.3685 906.3944,800.40152 C 904.8268,796.64956 905.2515,795.32606 909,792.28175 C 913.5075,788.62105 923.8417,793.63967 937.2597,806.00552 C 948.5731,816.43193 950.545,817.03506 954.4639,811.26782 C 957.7499,806.43208 957.6607,804.21214 953.9762,799.12575 C 948.6441,791.76512 942.7651,786.90329 933.5215,782.21014 C 925.009,777.88817 923.964,777.60873 915,777.25721 C 906.7995,776.93563 905.0614,777.16048 902.2938,778.90094 C 898.3526,781.37948 893.2676,790.03288 892.4162,795.7099 C 891.3258,802.98171 894.8539,813.98866 900.763,821.74995 C 904.0576,826.07726 907.8636,826.1392 911.4111,821.92322 z M 1057.0222,812.81061 C 1058.6913,810.50647 1060.3329,807.46897 1060.6702,806.06061 C 1061.0075,804.65225 1062.5697,800.22574 1064.1417,796.22392 C 1065.7138,792.2221 1067,788.09026 1067,787.04204 C 1067,785.01553 1051.3998,772.99995 1048.7687,772.99995 C 1047.9876,772.99995 1046.4026,774.01245 1045.2465,775.24995 C 1042.4048,778.29146 1033.4052,796.45633 1031.8392,802.31123 C 1030.6345,806.81572 1030.6895,807.14401 1033.0446,809.49909 C 1035.5398,811.99425 1047.6111,816.78842 1051.7437,816.92552 C 1053.2756,816.97634 1054.9502,815.67089 1057.0222,812.81061 z M 1251,810.18723 C 1259.5959,807.10728 1260.0449,806.25865 1257.9772,796.99995 C 1255.629,786.48566 1247.8175,772.1491 1243.3203,770.10002 C 1240.1533,768.65703 1237.4927,769.84416 1230.0939,776.0015 C 1222.4972,782.32347 1221.2454,784.99366 1223.8328,789.35645 C 1224.8582,791.08537 1226.7111,795.07165 1227.9504,798.21484 C 1229.1898,801.35802 1231.498,805.97052 1233.0799,808.46484 C 1235.6812,812.56673 1236.3163,812.99396 1239.728,812.93723 C 1241.8026,812.90273 1246.875,811.66523 1251,810.18723 z M 1551.2311,798.24995 C 1554.307,794.75715 1567.1072,765.58776 1571.3073,752.49995 C 1577.0429,734.62754 1578.2756,728.70573 1578.2806,718.99995 C 1578.2847,710.9753 1577.8565,708.41285 1575.5235,702.49995 C 1571.5595,692.45392 1563.1023,676.44471 1560.4359,673.93973 L 1558.1577,671.79951 L 1555.0586,676.07781 C 1551.2917,681.27782 1541.7794,700.42155 1539.1163,708.16199 C 1535.6239,718.31283 1534.7216,727.6048 1535.2811,747.65769 C 1535.8458,767.89772 1536.7917,773.46326 1542.1376,787.99995 C 1545.0606,795.94837 1547.3776,799.99995 1549,799.99995 C 1549.3795,799.99995 1550.3835,799.21245 1551.2311,798.24995 z M 758.8235,790.24995 C 766.2717,770.80728 768.0313,760.76399 768.0656,737.49995 C 768.1089,708.0695 763.2656,686.20266 751.4004,662.25923 C 747.7917,654.97683 744.4781,648.79546 744.037,648.52285 C 742.2342,647.40864 737.9911,652.44879 734.1785,660.2331 C 724.3947,680.20915 720.5106,702.74308 723.9627,719.49995 C 728.2479,740.30032 737.329,767.65509 745.2091,783.49995 C 750.6646,794.46934 752.929,797.99995 754.5089,797.99995 C 755.2654,797.99995 757.1545,794.60664 758.8235,790.24995 z M 1367.75,752.36771 C 1375.0375,752.05275 1381,751.37323 1381,750.85767 C 1381,749.14397 1376.812,741.57845 1372.4723,735.45265 C 1367.3788,728.26279 1357.3508,718.67084 1348.9957,712.99705 L 1342.9678,708.90354 L 1140.0466,707.8306 L 937.1254,706.75766 L 930.8127,710.30496 C 920.074,716.33935 913.7367,723.38098 904.0923,739.99502 C 900.7415,745.76731 898,751.02492 898,751.6786 C 898,752.33228 899.2375,753.05707 900.75,753.28924 C 904.8423,753.91742 1352.3237,753.03441 1367.75,752.36771 z M 1381.6304,703.74995 C 1384.4145,700.86245 1395.195,688.59995 1405.5869,676.49995 C 1415.9789,664.39995 1431.1631,647.52495 1439.3295,638.99995 C 1447.4959,630.47495 1456.7183,620.34995 1459.8236,616.49995 C 1469.4763,604.53245 1482.9242,589.20474 1485.6577,587.05459 C 1487.0943,585.92454 1489.2791,584.99995 1490.5127,584.99995 C 1493.7149,584.99995 1499.2202,587.48076 1501.4253,589.9174 C 1504.9059,593.76341 1508.7394,592.06402 1518.0138,582.56371 C 1524.31,576.1141 1527.6743,571.34096 1526.6477,570.31433 C 1526.3679,570.03448 1522.2706,573.44926 1517.5426,577.90273 C 1508.1084,586.78915 1506.021,587.52959 1500.2768,584.02723 C 1497.1142,582.09887 1495.7919,579.33546 1496.2629,575.63834 C 1496.3933,574.61446 1495.6666,573.26446 1494.648,572.63834 C 1493.0166,571.63558 1490.4766,573.88271 1473.3287,591.49995 C 1462.6217,602.49995 1446.9037,619.24791 1438.3997,628.71763 C 1429.8957,638.18736 1422.3772,646.28736 1421.692,646.71763 C 1421.0067,647.14791 1418.8832,649.52495 1416.973,651.99995 C 1415.0629,654.47495 1406.525,664.15133 1398,673.50301 C 1369.6844,704.56442 1369.6265,704.64003 1371.9754,707.47034 C 1374.1306,710.06722 1376.372,709.20354 1381.6304,703.74995 z M 1453.9074,695.74995 C 1455.4729,687.91705 1459.9325,639.45765 1459.3077,637.0686 C 1458.3136,633.26709 1456.7491,634.43564 1447.645,645.77993 C 1441.5106,653.42362 1441,654.43128 1441,658.89241 C 1441,665.36344 1446.2425,691.24706 1449.0473,698.62429 C 1450.6124,702.74092 1452.7646,701.46808 1453.9074,695.74995 z M 1612.9312,695.81913 C 1619.52,690.97369 1630.3194,677.66999 1635.8689,667.56223 C 1640.7419,658.68684 1648.0008,638.66319 1651.9438,623.22011 C 1654.2147,614.32601 1655.9798,600.37793 1655.9918,591.23341 C 1656.0155,573.10179 1645.4583,529.36384 1637.1849,513.3178 C 1634.0626,507.2622 1633.1391,507.08554 1628.9982,511.75177 C 1625.1467,516.09187 1613,538.62003 1613,541.42321 C 1613,542.33424 1612.1265,544.79184 1611.0589,546.88454 C 1607.7831,553.30565 1603.8686,569.00777 1603.307,577.97968 C 1602.9521,583.65067 1603.6865,595.52909 1605.5032,613.49995 C 1607.9816,638.01584 1608.1922,643.19107 1607.7915,669.74995 C 1607.5488,685.83745 1607.6328,698.99995 1607.9781,698.99995 C 1608.3235,698.99995 1610.5524,697.56858 1612.9312,695.81913 z M 703.9003,696.62008 C 705.3546,694.86771 705.4105,668.72468 704.0523,625.49995 C 703.4993,607.89995 703.0362,584.80884 703.0234,574.18637 L 703,554.87279 L 695.8311,544.68637 C 691.8882,539.08384 687.0394,532.69995 685.056,530.49995 C 683.0725,528.29995 680.4741,524.92495 679.2816,522.99995 C 678.0892,521.07495 676.1972,518.93934 675.0771,518.25415 C 672.4985,516.67671 671.5124,518.08269 666.4891,530.49995 C 662.2108,541.07553 658.6322,557.25767 656.9381,573.68847 C 655.2316,590.24083 656.1922,617.89009 658.8634,629.1017 C 661.4938,640.14203 666.0995,652.73798 670.1169,659.87835 C 676.1921,670.67628 698.7932,697.99995 701.6496,697.99995 C 702.2576,697.99995 703.2704,697.37901 703.9003,696.62008 z M 840.5216,677.83628 C 841.32,671.78278 842.9295,661.69888 844.0982,655.42762 C 845.2669,649.15636 845.9378,642.88812 845.5889,641.49818 C 845.2401,640.10825 842.8273,636.57954 840.2273,633.6566 C 837.6273,630.73367 834.2707,626.23549 832.7683,623.66067 C 831.0994,620.80046 828.1896,617.80778 825.2889,615.96819 C 822.6776,614.31215 819.5355,611.72933 818.3065,610.22858 L 816.0719,607.49995 L 816.0398,609.99995 C 815.9676,615.61073 819.1129,630.34168 823.2994,643.99995 C 825.7438,651.97495 828.9683,665.24995 830.465,673.49995 C 831.9616,681.74995 833.8711,690.07495 834.7083,691.99995 L 836.2306,695.49995 L 837.6502,692.1713 C 838.4311,690.34054 839.7232,683.88978 840.5216,677.83628 z M 920.5089,693.61712 C 921.7517,692.70833 922.4,691.01171 922.4,688.66786 C 922.4,685.5267 921.5721,684.35012 915.4568,678.80069 C 900.0244,664.79638 859.2533,624.85835 839.5,604.39589 C 816.0312,580.08454 804.8624,569.99995 801.4064,569.99995 C 798.7967,569.99995 797.94,571.05836 797.0576,575.37283 C 796.5249,577.97731 795.785,578.58468 791.9671,579.55126 C 789.0018,580.30202 787.6081,581.15586 787.8214,582.09109 C 788.4624,584.90046 789.8948,585.22378 794.5991,583.62089 C 797.2155,582.72937 801.1377,581.99995 803.3151,581.99995 C 807.0211,581.99995 807.8236,582.59063 815.8823,591.24995 C 820.6169,596.33745 833.1001,609.27495 843.6227,619.99995 C 854.1454,630.72495 873.6036,650.97495 886.8633,664.99995 C 908.4579,687.84099 915.8778,694.99995 917.9567,694.99995 C 918.3203,694.99995 919.4687,694.37768 920.5089,693.61712 z M 1334.3419,688.67656 C 1338.1186,684.31897 1333.0398,671.38055 1325.1787,665.33286 C 1319.713,661.12801 1313.7184,660.53087 1285.0154,661.33207 C 1259.8271,662.03516 1260.1475,661.94492 1254.5037,669.925 C 1251.9042,673.60069 1251.4599,675.21001 1251.1479,682.08076 C 1250.9501,686.43632 1250.9484,690.05933 1251.1441,690.13192 C 1252.6086,690.67497 1308.2645,691.57993 1319,691.23525 C 1331.2241,690.84278 1332.6741,690.60095 1334.3419,688.67656 z M 1031.3266,689.50899 C 1035.8894,687.55605 1035.2467,677.93419 1030.0009,669.66247 C 1024.663,661.24542 1025.8671,661.48376 989.3767,661.62116 C 971.6721,661.68782 955.5949,662.04097 953.6495,662.40593 C 950.556,662.98627 949.7683,663.78634 947.3696,668.78473 C 944.4707,674.82548 942.9114,686.3114 944.7419,688.14181 C 945.2835,688.68347 947.9257,689.52222 950.6133,690.00569 C 956.5,691.06462 1028.7306,690.62012 1031.3266,689.50899 z M 1236.2006,689.19483 C 1237.241,688.14981 1237.4474,677.10329 1237.2359,633.76411 C 1237.0907,603.99502 1236.8428,579.50942 1236.685,579.35166 C 1236.5273,579.19391 1225.2836,578.75418 1211.6991,578.3745 C 1187.8737,577.70859 1186.9917,577.75166 1186.7648,579.59206 C 1186.6355,580.6414 1186.523,604.12667 1186.5148,631.78155 C 1186.4982,688.04594 1187.0121,684.4355 1179.1323,683.65289 C 1176.138,683.35549 1173.9369,682.39097 1172.1323,680.58546 L 1169.5,677.95182 L 1169.5,644.05947 C 1169.5,625.41867 1169.1625,609.8295 1168.75,609.41686 C 1167.4203,608.08668 1166.9154,609.62087 1166.3112,616.8285 C 1165.8773,622.0039 1165.2883,624.06496 1164.1094,624.53347 C 1161.5085,625.56711 1139.7566,626.3405 1134.6833,625.57971 C 1127.7297,624.53695 1127,623.34105 1127,612.98754 C 1127,603.75326 1126.2464,601.8964 1123.5806,604.56219 C 1122.1972,605.94565 1122,610.72528 1122,642.88025 C 1122,673.01557 1121.7451,679.96653 1120.5817,681.55882 C 1119.2495,683.38229 1117.1431,683.55081 1085.8317,684.33902 C 1057.058,685.06335 1052.3286,685.39787 1051.2463,686.78527 C 1050.5567,687.66922 1050.3416,688.74153 1050.7682,689.16816 C 1051.9449,690.34485 1074.2232,690.63433 1158.2006,690.56409 C 1219.8916,690.5125 1235.1554,690.24455 1236.2006,689.19483 z M 1132.2478,683.29393 C 1131.0091,683.05542 1129.6051,682.1042 1129.1278,681.18011 C 1128.6505,680.25602 1128.0256,671.70761 1127.7393,662.18364 L 1127.2186,644.86734 L 1129.8593,643.85068 C 1131.3117,643.29152 1139.25,642.58755 1147.5,642.28631 C 1168.1236,641.53327 1167.0596,640.38701 1165.769,661.96865 C 1165.2274,671.02644 1164.4185,679.39926 1163.9715,680.57493 C 1163.4114,682.04809 1161.9685,682.90916 1159.3294,683.34522 C 1155.1691,684.0326 1135.8945,683.9961 1132.2478,683.29393 z M 1222.3978,682.01416 C 1219.3222,680.7846 1219.002,676.47922 1218.9847,636.11038 C 1218.9763,616.52464 1218.5942,599.90826 1218.1356,599.18508 C 1217.5981,598.33746 1215.7521,597.9821 1212.9407,598.18508 C 1209.2663,598.45038 1208.471,598.89355 1207.8895,600.99995 C 1207.5099,602.37495 1207.1545,620.93745 1207.0997,642.24995 L 1207,680.99995 L 1203.0352,680.99995 C 1200.0099,680.99995 1198.7995,680.49389 1197.9274,678.86425 C 1195.1669,673.70619 1194.3936,598.21877 1197.0571,593.9068 C 1197.7413,592.79914 1201.106,592.49995 1212.8785,592.49995 C 1221.1024,592.49995 1228.2065,592.87448 1228.6655,593.33224 C 1230.4085,595.07058 1230.7304,679.71803 1229,681.29564 C 1227.7805,682.40745 1224.3229,682.78375 1222.3978,682.01416 z M 1589.7047,681.24995 C 1591.0475,674.91863 1590.561,624.27801 1589.0923,617.49995 C 1585.2283,599.66733 1572.2651,567.00624 1566.2729,560.00569 L 1562.621,555.73925 L 1560.4022,558.31873 C 1557.5946,561.58279 1555.3742,571.29629 1553.9476,586.55623 C 1552.396,603.15224 1554.4709,619.56836 1560.6107,639.27339 C 1565.6549,655.46212 1583.1161,684.99995 1587.6418,684.99995 C 1588.339,684.99995 1589.2673,683.31245 1589.7047,681.24995 z M 1320.3876,647.70581 C 1321.6307,646.79681 1322.0596,645.38319 1321.8287,642.95581 L 1321.5,639.49995 L 1300,639.77357 C 1288.175,639.92407 1275.6871,640.29743 1272.249,640.60327 C 1266.6871,641.09805 1265.9312,641.42585 1265.3912,643.57741 C 1264.0163,649.05526 1263.7421,648.99995 1292.2775,648.99995 C 1312.2504,648.99995 1319.0456,648.68711 1320.3876,647.70581 z M 1016.6991,645.73119 C 1018.0693,644.35967 1018.221,643.57361 1017.3747,642.23119 C 1016.3957,640.67819 1013.7429,640.4724 991.6087,640.23241 C 975.7331,640.06027 966.2326,640.34027 964.967,641.01759 C 962.7381,642.2105 962.3873,644.49094 964.25,645.67959 C 966.1161,646.8704 982.5277,647.77183 999.7161,647.62762 C 1012.8281,647.5176 1015.1765,647.25537 1016.6991,645.73119 z M 732.9293,628.45407 C 745.6718,602.62361 751.7761,582.79065 754.6415,557.9102 C 756.4229,542.44263 755.8585,534.92391 752.5795,530.43959 C 751.3163,528.71201 751.1006,528.70404 748.6719,530.29533 C 747.2582,531.22168 743.6788,535.02168 740.7179,538.73978 C 728.5913,553.96724 725.115,561.47072 722.9975,576.98897 C 721.6345,586.97794 721.1105,639.8966 722.3555,641.82516 C 723.8441,644.1311 727.4368,639.58801 732.9293,628.45407 z M 1013.2028,624.19887 C 1014.2231,623.17546 1014.487,614.63868 1014.4392,584.19887 C 1014.4058,562.91446 1014.0722,544.31222 1013.6979,542.86054 C 1013.2591,541.15849 1012.1093,539.99322 1010.4604,539.57938 C 1006.1882,538.50711 978.9912,540.15157 977.575,541.56779 C 976.3119,542.83086 975.4522,551.46774 972.4682,592.87178 C 970.7078,617.29748 970.6458,622.66302 972.1134,623.57005 C 975.9269,625.92692 1010.9455,626.46283 1013.2028,624.19887 z M 1313.8168,623.61318 C 1314.6232,623.11477 1314.9993,619 1314.9979,610.69093 C 1314.9956,597.3271 1312.265,544.49734 1311.4394,541.84233 C 1310.6492,539.30164 1308.4226,538.77166 1296.3142,538.24226 C 1282.0683,537.6194 1272.3729,538.58584 1271.5578,540.70998 C 1270.4741,543.53397 1269.1519,570.98937 1268.8228,597.49995 L 1268.5,623.49995 L 1280.5,624.10854 C 1295.1969,624.85392 1312.2187,624.60083 1313.8168,623.61318 z M 1438.3567,609.10336 C 1441.8945,606.77092 1452.683,594.63742 1458.771,586.14391 L 1463.3269,579.78788 L 1462.0678,570.61735 C 1460.9824,562.71167 1461.0478,559.4506 1462.5421,546.97339 C 1464.4621,530.94198 1464.1309,515.2356 1461.5398,499.44237 C 1459.3125,485.86655 1456.4865,477.89486 1450.985,469.66951 C 1445.5125,461.48741 1433.8983,449.96716 1431.2134,450.05778 C 1429.4315,450.11793 1408.0398,475.35839 1402.136,484.36686 C 1400.2857,487.19006 1396.6298,491.98689 1394.0116,495.02649 C 1386.8217,503.37384 1379,515.8602 1379,518.99075 C 1379,524.52126 1388.1885,533.15153 1403,541.53265 C 1420.5747,551.47735 1420.7426,551.61693 1424.4452,559.36585 C 1426.32,563.28961 1428.5344,569.87495 1429.366,573.99995 C 1430.5776,580.01015 1433,603.80726 1433,609.69984 C 1433,611.5297 1435.0172,611.30508 1438.3567,609.10336 z M 862.0148,599.74995 C 862.5494,598.51245 865.2849,590.07495 868.0938,580.99995 C 873.3593,563.98819 881.2569,545.85039 887.0996,537.35092 C 888.9337,534.68289 893.1944,529.33336 896.5679,525.46308 C 908.5963,511.66337 908.8509,512.8722 888.75,488.35424 C 871.324,467.099 854.3516,448.99995 851.8454,448.99995 C 850.9975,448.99995 849.4508,450.89141 848.4083,453.2032 C 847.3659,455.51498 843.4279,460.73366 839.6573,464.80026 C 828.8553,476.45021 828.815,476.605 828.2928,508.44185 C 827.9236,530.94929 827.5347,536.59313 825.9801,541.99995 C 821.3215,558.20275 820.8891,562.93056 823.6909,567.02744 C 829.1416,574.99745 856.8027,601.99995 859.5165,601.99995 C 860.356,601.99995 861.4802,600.98745 862.0148,599.74995 z M 1337.0359,542.86069 C 1342.2412,536.7341 1351.7378,524.82142 1358.1396,516.38807 C 1364.5413,507.95472 1374.9245,495.07989 1381.2134,487.77733 C 1387.5023,480.47477 1397.5557,468.42495 1403.5543,460.99995 C 1409.553,453.57495 1417.2822,444.16878 1420.7305,440.09735 C 1424.1787,436.02592 1427,432.10425 1427,431.38253 C 1427,430.66081 1426.1067,429.59226 1425.015,429.00796 C 1422.4102,427.61394 1419.1056,430.72181 1406.7948,446.14329 C 1387.7345,470.01966 1364.3835,498.78513 1356.9873,507.49995 C 1346.6633,519.66431 1327.1079,545.58592 1325.9425,548.65128 C 1324.6403,552.07617 1324.7639,553.99995 1326.2859,553.99995 C 1326.9932,553.99995 1331.8307,548.98728 1337.0359,542.86069 z M 1583,549.05101 C 1583,547.49401 1582.1372,542.00807 1581.0828,536.86003 C 1580.0283,531.71199 1578.6295,523.67495 1577.9744,518.99995 C 1577.2298,513.6864 1575.8911,508.94109 1574.4032,506.34162 C 1573.0942,504.05455 1570.8648,498.97201 1569.449,495.04711 C 1568.0332,491.12221 1562.4831,478.81128 1557.1154,467.68951 L 1547.356,447.46809 L 1535.1225,441.68068 C 1521.4167,435.19672 1510.7453,432.0375 1508.1347,433.6911 C 1507.0722,434.36408 1506.6222,435.73709 1506.849,437.61325 C 1507.3539,441.78855 1513.6551,462.23245 1516.6422,469.3866 C 1520.8077,479.36317 1532.5924,497.10675 1542.7397,508.68027 C 1547.9572,514.63109 1558.7622,527.02569 1566.7508,536.22381 C 1574.7394,545.42194 1581.6636,552.70788 1582.1378,552.4148 C 1582.612,552.12171 1583,550.60801 1583,549.05101 z M 961,544.09141 C 961,543.10664 959.7625,540.46287 958.25,538.21638 C 954.7081,532.9557 936.1632,511.37605 924.1315,498.51455 C 918.9788,493.00652 909.9984,482.87495 904.175,475.99995 C 881.3626,449.06788 861.7367,427.20099 859.4364,426.15293 C 853.8633,423.61365 852.3256,427.6288 856.75,433.16769 C 860.5671,437.9464 881.0824,460.91084 895.4851,476.5272 C 910.491,492.79755 932.2387,517.56179 937.4095,524.26674 C 943.3823,532.01179 958.817,547.23107 959.9738,546.51616 C 960.5382,546.16732 961,545.07619 961,544.09141 z M 710.8797,530.74995 C 711.3363,529.51245 712.4869,523.09995 713.4367,516.49995 C 715.3753,503.02881 720.9444,480.43754 727.4882,459.49995 C 734.359,437.5161 735.2857,433.23457 734.6305,426.49995 C 733.3929,413.77926 725.0616,385.34456 722.2568,384.26824 C 717.3227,382.37486 694.6911,414.7793 689.5152,431.14843 C 683.5463,450.02523 681.656,477.22947 685.4258,489.99995 C 690.0696,505.73095 705.0598,532.99995 709.0637,532.99995 C 709.6059,532.99995 710.4231,531.98745 710.8797,530.74995 z M 748.8075,510.68058 C 758.6783,500.13123 769.0598,488.79995 771.8776,485.49995 C 778.3402,477.93145 784.5456,466.13476 786.4087,457.87561 C 788.2065,449.90642 790.2954,430.28693 789.4856,428.97674 C 788.4389,427.28305 783.694,427.92917 778.1185,430.52463 C 774.1439,432.37487 769.3076,436.4909 759.6185,446.26949 C 752.4033,453.55134 745.2541,461.34341 743.7314,463.58521 C 738.608,471.12786 723.395,528.59408 725.584,532.13591 C 726.5958,533.77305 731.056,529.65246 748.8075,510.68058 z M 1607.1923,515.90051 C 1614.7517,500.74898 1618.713,480.89724 1617.6548,463.46838 C 1616.4914,444.30666 1610.7896,427.80667 1596.3611,401.84854 C 1588.2029,387.1712 1583.8553,381.35331 1581.9332,382.54125 C 1580.281,383.56237 1575.4831,394.71468 1570.7927,408.43649 C 1566.7622,420.22805 1566.6673,420.8155 1566.5846,434.49995 L 1566.5,448.49995 L 1574.7354,467.56247 C 1579.2648,478.04686 1583.7218,489.97186 1584.6399,494.06247 C 1585.5579,498.15308 1587.1287,503.4246 1588.1305,505.77696 C 1589.1324,508.12931 1591.1383,514.42931 1592.5881,519.77696 C 1594.0379,525.1246 1595.4764,529.9203 1595.7848,530.43406 C 1596.7453,532.03402 1603.3257,523.65036 1607.1923,515.90051 z M 1013.5,521.49995 L 1013.5,518.49995 L 1005.5,517.83436 C 994.0175,516.87904 976.9568,517.94902 976.298,519.66579 C 975.5524,521.60883 977.7014,523.81109 980.8232,524.30316 C 982.2954,524.53522 990.25,524.67444 998.5,524.61252 L 1013.5,524.49995 L 1013.5,521.49995 z M 1309.25,523.37007 C 1310.2636,523.07764 1311,521.89656 1311,520.5634 C 1311,518.68044 1310.3177,518.14886 1307.25,517.6418 C 1302.4056,516.84108 1274.6503,516.81317 1272.5818,517.60694 C 1270.2101,518.51703 1270.6379,522.5095 1273.25,523.84289 C 1275.4438,524.96278 1305.0786,524.57355 1309.25,523.37007 z M 1012.1392,503.09048 C 1014.3488,501.30327 1014.5226,500.39087 1014.8526,488.84048 C 1015.4724,467.14987 1013.9371,424.2962 1012.4683,422.28748 C 1011.3496,420.75756 1009.5695,420.49995 1000.1163,420.49995 C 991.2875,420.49995 988.7477,420.82363 987.4582,422.11315 C 986.1618,423.40956 985.3737,429.79163 983.4448,454.61315 C 982.1246,471.60089 981.0345,488.91771 981.0223,493.09496 C 980.9901,504.06899 981.7245,504.5087 1000.6392,504.83991 C 1008.297,504.97401 1010.1611,504.69043 1012.1392,503.09048 z M 1306.4297,501.6388 L 1309.2689,499.77766 L 1308.5888,485.1388 C 1308.2148,477.08743 1307.5045,461.27495 1307.0103,449.99995 C 1306.0932,429.07548 1305.1517,423.7055 1302.1801,422.45099 C 1301.2561,422.06086 1295.7489,421.52054 1289.942,421.25027 C 1276.651,420.63167 1276.5206,420.73602 1275.6686,432.67202 C 1273.9411,456.87555 1272.8362,497.63004 1273.8386,500.17334 C 1275.1698,503.55103 1276.7445,503.8613 1291.5453,503.66208 C 1301.4223,503.52913 1304.1017,503.16493 1306.4297,501.6388 z M 1039,487.85728 C 1042.2375,482.56219 1063.7415,461.87705 1075.4073,452.83629 C 1090.9271,440.80882 1114.7699,430.93112 1135.0092,428.14413 C 1143.6521,426.954 1161.9852,428.55391 1173.6701,431.51802 C 1197.7948,437.63775 1222.9177,454.85007 1241.4821,477.97761 C 1246.7897,484.5899 1251.7294,489.99995 1252.4592,489.99995 C 1254.752,489.99995 1255.3137,486.92033 1255.7698,471.84915 L 1256.2131,457.19834 L 1245.8566,446.70788 C 1234.9869,435.69772 1228.6337,431.06239 1217.9484,426.34614 L 1211.5,423.49995 L 1145.6512,423.21563 L 1079.8025,422.9313 L 1069.3929,428.4408 C 1055.9409,435.56052 1044.9496,442.99284 1037.75,449.83771 L 1032,455.30439 L 1032,471.08707 C 1032,492.2593 1033.748,496.44714 1039,487.85728 z M 1042.095,432.89421 C 1048.9192,428.51976 1053,425.14377 1053,423.87264 C 1053,422.52109 1045.743,421.01132 1039.2186,421.00553 C 1032.0634,420.99917 1031.5233,421.56029 1031.5233,428.99995 C 1031.5233,434.37103 1032.4402,436.99995 1034.3136,436.99995 C 1035.0706,436.99995 1038.5722,435.15237 1042.095,432.89421 z M 1256.9847,432.24995 C 1256.9675,426.92883 1256.4578,425.80353 1253.3157,424.14965 C 1249.2205,421.99406 1239,423.02275 1239,425.59054 C 1239,427.32126 1252.706,436.99995 1255.1568,436.99995 C 1256.6912,436.99995 1256.9974,436.2041 1256.9847,432.24995 z M 1534,422.12826 C 1534,414.72629 1494.7686,368.65885 1480.3081,359.08063 C 1474.8083,355.43769 1464.5854,352.99813 1451.75,352.26558 C 1442.4988,351.73759 1442,351.81085 1442,353.69771 C 1442,357.40604 1452.3125,370.44555 1466.4334,384.59213 C 1480.9311,399.11622 1484.126,401.39052 1505,412.04601 C 1512.8458,416.05104 1531.0088,423.82819 1532.75,423.92817 C 1533.4375,423.96765 1534,423.15769 1534,422.12826 z M 772.8692,417.59118 C 775.9661,415.71636 786.1972,410.38422 795.6048,405.74198 C 827.2999,390.10193 842.8588,377.43757 850.9724,360.67495 C 855.7398,350.8254 858.0548,341.65478 856.2335,339.83348 C 854.493,338.09298 845.5328,340.84299 825.8864,349.14745 C 807.3174,356.99648 794.9716,365.16556 788.6955,373.75621 C 783.5528,380.79543 767.4575,408.72469 765.1341,414.64087 C 762.1458,422.25024 764.003,422.9586 772.8692,417.59118 z M 1447.337,418.10744 C 1448.9853,416.45913 1449.4554,414.74097 1449.4749,410.29395 C 1449.4996,404.68086 1449.4386,404.55841 1445.5,402.31312 C 1441.0728,399.78933 1437.3664,399.42027 1433.6146,401.12967 C 1428.0413,403.66903 1427.7749,412.9287 1433.1213,418.27508 C 1435.7745,420.92826 1436.5882,421.19376 1440.6598,420.73483 C 1443.4367,420.42183 1446.0514,419.39299 1447.337,418.10744 z M 847.0554,418.97031 C 849.4693,417.67844 852,412.88529 852,409.60537 C 852,408.23373 850.914,405.84888 849.5866,404.30571 C 847.5986,401.9946 846.3695,401.49995 842.6144,401.49995 C 836.9341,401.49995 834.0709,404.05274 833.2993,409.80493 C 832.8158,413.40958 833.1169,414.27069 835.7979,416.95168 C 839.0196,420.17338 843.3549,420.95076 847.0554,418.97031 z M 1552.6991,413.24995 C 1553.9259,410.36931 1554.402,404.74747 1554.7527,388.99995 C 1555.2589,366.26996 1554.6487,361.87884 1548.8832,346.76264 C 1545.9619,339.10361 1544.9926,337.7641 1535.6158,328.42789 C 1530.0521,322.88826 1521,315.05785 1515.5,311.02698 C 1510,306.99611 1504.006,302.30354 1502.1801,300.59904 C 1498.9558,297.58919 1498.819,297.55585 1497.4301,299.44108 C 1495.7308,301.74756 1495.6698,305.22795 1497.0159,323.05006 C 1498.4883,342.54552 1499.8253,349.76359 1503.1227,356.01847 C 1505.6399,360.7934 1517.3264,376.42609 1542.5431,408.74995 C 1546.0829,413.28745 1549.4568,416.99995 1550.0406,416.99995 C 1550.6244,416.99995 1551.8207,415.31245 1552.6991,413.24995 z M 768.6759,375.61541 C 788.7228,335.67106 791.6563,327.16998 788.6207,317.81728 C 787.85,315.44275 786.9385,312.27063 786.5952,310.76814 C 786.2306,309.17243 784.7984,307.42992 783.1513,306.5782 C 780.6012,305.25949 780.0312,305.30276 777.1898,307.03074 C 775.4618,308.0816 768.8393,313.98719 762.4732,320.15427 C 749.7612,332.46897 745.5932,339.137 742.558,352.01512 C 739.2521,366.0415 741.8263,386.94503 749.2539,406.38841 L 750.3573,409.27687 L 752.2311,406.96286 C 753.2617,405.69015 760.6619,391.5838 768.6759,375.61541 z M 1317.5,405.54779 C 1323.9647,403.75579 1342,381.58497 1342,375.42993 C 1342,373.38262 1341.4438,373.29359 1324.75,372.66857 C 1264.2893,370.4049 961.4796,369.58703 948.75,371.65302 C 946.4956,372.01889 945,372.81908 945,373.65931 C 945,377.24721 957.5622,398.50148 962.2086,402.77497 C 963.5691,404.02622 966.6662,405.44385 969.0911,405.92524 C 974.6892,407.03657 1313.4532,406.66956 1317.5,405.54779 z M 1014.4868,359.01092 C 1017.5221,356.49181 1014.2353,355.50942 1001.5708,355.15043 C 989.1618,354.79869 983.4907,355.89068 985.7893,358.18923 C 988.5161,360.91608 1011.4016,361.57136 1014.4868,359.01092 z M 1306.5411,359.93342 C 1306.9037,359.34683 1306.9948,358.66138 1306.7436,358.41021 C 1306.4924,358.15903 1299.8099,357.70807 1291.8935,357.40808 C 1277.8416,356.87558 1273.933,357.46441 1275.4309,359.88815 C 1276.3564,361.3857 1305.6172,361.42828 1306.5411,359.93342 z M 1218.6792,351.74341 C 1219.9911,350.564 1222.1175,345.74828 1224.0225,339.64218 C 1225.7627,334.06395 1229.8141,321.39995 1233.0254,311.49995 C 1255.1507,243.2914 1260.1501,227.05177 1259.3975,225.83407 C 1258.5326,224.43469 1251.6866,223.12107 1242,222.49583 C 1227.9195,221.58698 1042.1721,223.75801 1037.6277,224.88455 C 1035.498,225.41251 1033.3298,226.2701 1032.8096,226.79031 C 1031.8213,227.77868 1038.4027,253.35687 1048.6879,288.49995 C 1051.7463,298.94995 1056.401,315.77429 1059.0316,325.88738 C 1061.6623,336.00046 1064.6886,345.45046 1065.7567,346.88738 C 1068.259,350.25373 1072.1437,350.59219 1084.9361,348.5584 C 1118.7889,343.17635 1172.4744,344.89572 1204.5,352.38764 C 1215.0304,354.85106 1215.2325,354.84188 1218.6792,351.74341 z M 1320.376,341.67357 C 1326.3691,337.74579 1330.3172,323.31043 1326.0263,321.01405 C 1322.8973,319.33944 1306.3201,318.37861 1282.5,318.49122 C 1257.3181,318.61026 1254.3978,319.23916 1255.4148,324.32417 C 1256.2855,328.67765 1260.9695,338.66237 1263.0054,340.50482 C 1266.3202,343.50466 1270.4541,343.93233 1294.0446,343.71593 C 1314.9335,343.52431 1317.9036,343.29394 1320.376,341.67357 z M 1025.7362,339.1306 C 1028.9426,338.31411 1032.5432,331.98478 1033.5775,325.34662 C 1034.1622,321.59441 1033.9635,321.02216 1031.5205,319.42144 C 1029.0926,317.83059 1025.7774,317.64195 999.0655,317.57477 C 967.585,317.4956 966,317.71519 966,322.15564 C 966,324.67137 970.2138,332.91212 973.4927,336.80893 C 975.7234,339.45997 976.9127,339.96362 981.7981,340.32625 C 989.5164,340.89917 1022.2936,340.00723 1025.7362,339.1306 z M 1474,339.59903 C 1474,337.32992 1465.532,326.72693 1458.3666,320.02404 C 1446.6931,309.10404 1432.4666,299.43924 1417.9243,292.5495 C 1411.9733,289.73005 1408.4464,288.80999 1400.1513,287.9131 C 1388.7615,286.68161 1379.7874,287.34626 1377.9525,289.55723 C 1376.9839,290.72431 1378.2154,292.48155 1384.6325,299.08914 C 1400.349,315.27211 1408.4682,319.69168 1448,333.58216 C 1468.975,340.95224 1474,342.11512 1474,339.59903 z M 847.11,325.7015 C 856.1245,322.11203 865.1266,318.73884 867.1147,318.20553 C 872.8461,316.66806 894.2869,303.53161 898.2815,299.11014 C 902.2489,294.71872 906,288.05316 906,285.39475 C 906,283.92525 905.1371,283.78245 899.25,284.2776 C 892.8997,284.8117 874.1265,290.421 867.5,293.76428 C 860.6854,297.20244 840.1077,312.91504 831.8523,320.98394 C 817.0736,335.42884 820.23,336.40479 847.11,325.7015 z M 822.1955,311.85054 C 841.749,294.29494 849.1236,286.72732 851.2595,282.02555 C 853.3398,277.44607 855.9092,260.65028 855.9675,251.24995 C 856.0034,245.44697 855.1085,244.85047 850.2003,247.40585 C 846.1288,249.52564 832.8036,263.67772 828.2723,270.69457 C 821.7286,280.82768 814.1737,296.89515 811.5015,306.36182 C 808.9288,315.47602 808.2797,321.99995 809.9455,321.99995 C 810.4656,321.99995 815.9781,317.43272 822.1955,311.85054 z M 1478.106,315.24995 C 1478.517,308.46103 1473.8303,285.72441 1470.7368,279.49995 C 1464.9798,267.91617 1454.3917,258.28734 1436.4102,248.28318 C 1424.9343,241.89846 1418.1972,239.32656 1415.5796,240.33104 C 1413.904,240.97402 1413.5324,239.68728 1421.5177,260.89193 C 1425.6182,271.7808 1430.6222,277.55989 1457.7995,302.79426 C 1468.8358,313.04158 1473.7818,316.99995 1475.5495,316.99995 C 1477.1763,316.99995 1478.0356,316.4117 1478.106,315.24995 z M 1010.9679,305.99995 C 1012.4368,305.99995 1012.5487,305.23231 1011.8791,299.74995 C 1011.0832,293.23414 1007.4085,281.299 1003.3883,272.17261 C 1001.6517,268.23011 1000.5813,266.93362 999.2708,267.18511 C 997.8504,267.45769 997.3495,269.00643 996.7394,275.01244 C 996.321,279.13057 995.2657,287.20862 994.3942,292.96366 L 992.8096,303.42736 L 995.1548,305.32862 C 997.1044,306.90918 998.4946,307.12614 1003.3967,306.61491 C 1006.6399,306.27668 1010.0469,305.99995 1010.9679,305.99995 z M 1299.5458,305.98253 C 1302.0812,305.01858 1302.1856,304.71632 1301.5326,300.23253 C 1300.9429,296.18344 1293.7314,272.48337 1290.8387,265.08801 C 1288.8814,260.08403 1287.1293,265.11876 1284.0288,284.6559 C 1282.3571,295.18996 1281.2649,304.52676 1281.6017,305.40434 C 1282.0852,306.66429 1283.7555,306.99995 1289.5419,306.99995 C 1293.5722,306.99995 1298.074,306.54211 1299.5458,305.98253 z M 886.5,268.57111 C 892.55,266.24271 900.717,263.11475 904.6489,261.62008 C 914.3338,257.9385 921.5661,252.67323 927.2431,245.17088 C 932.1942,238.62798 933.6496,235.13521 932.5831,232.35588 C 932.0421,230.94618 930.8312,230.79414 924.2252,231.30648 C 912.9352,232.1821 894.5306,236.96967 887.0366,240.98038 C 882.9899,243.14609 876.8813,249.31234 874.8627,253.26911 C 873.2192,256.49067 870,269.62362 870,273.10697 C 870,274.46707 874.1307,273.33153 886.5,268.57111 z M 1404.75,271.36966 C 1406.3724,270.93489 1407,270.02044 1407,268.09151 C 1407,264.83494 1398.6137,250.95592 1393.4171,245.61235 C 1386.3226,238.31719 1371.0575,232.94335 1356.6231,232.65962 C 1349.0165,232.5101 1348.4805,232.63653 1348.1938,234.64798 C 1347.8108,237.33522 1352.8857,248.09723 1357.2265,253.80271 C 1365.9948,265.32784 1391.7584,274.85129 1404.75,271.36966 z "
     id="path2161" />
  <g
     inkscape:groupmode="layer"
     id="layer3"
     inkscape:label="Flag" />
</svg>
