<?xml version="1.0" encoding="UTF-8"?>
<svg xmlns="http://www.w3.org/2000/svg" xmlns:xlink="http://www.w3.org/1999/xlink" width="1000" height="600">
<rect width="1000" height="600" fill="#d62612"/>
<rect width="1000" height="400" fill="#00966e"/>
<rect width="1000" height="200" fill="#fff"/>
<g>
<ellipse fill="#34a5d1" stroke="#bf994c" stroke-width="1.14" cx="155.21" cy="104.515" rx="51.796" ry="56.059"/>
<path fill="#34a5d1" d="M120,150H190L155,180z"/>
<path fill="#bf994c" d="m197.1,68.065c1.2585-1.6951,1.846,0.88178,2.6662,1.6928,4.8444,7.4673,8.1734,15.965,9.4796,24.779-1.7158,0.82429-1.2453-1.1217-1.5841-2.1372-1.7353-8.7292-5.3115-17.138-10.562-24.335zm0.98699-0.72338c-0.36137,0.32595-1.2749,1.1267-1.0792,0.18253,0.13185-0.47677,0.79662-0.5853,1.0792-0.18253zm-42.899-21.078c-0.6657-1.9959,1.6512-0.99153,2.7488-1.1356,15.782,1.0165,30.739,9.5933,40.15,22.214-1.2428,1.684-1.8578-0.85371-2.7901-1.5778-9.8114-11.703-24.724-19.428-40.109-19.5zm0-1.2242c0.0494,0.48442,0.15478,1.6994-0.4913,0.9803-0.30715-0.38846-0.003-0.99175,0.4913-0.9803zm-41.894,23.026c-2.002-0.69527,0.30189-2.0359,0.84242-3.0556,10.04-12,25.289-19.89,41.051-19.968,0.62276,2.006-1.8088,0.98133-2.946,1.3218-15.299,1.0761-29.825,9.4612-38.948,21.701zm-0.98699-0.72338c0.4193,0.24562,1.4587,0.87801,0.49879,0.97322-0.49232,0.01653-0.80099-0.58307-0.49879-0.97322zm-9.9605,27.326c-1.8041,0.42118-1.0111-1.2142-0.87867-2.2495,1.7558-9.003,5.4306-17.657,10.84-25.076,1.9793,0.6772-0.25299,2.016-0.67425,3.1127-4.7275,7.2904-7.9938,15.613-9.2866,24.213z"/>
<path fill="#bf994c" d="m146.54,41.67,0,0,1.9364-9.5315-7.2093-6.8396,9.6602-1.2351,4.2043-8.8866,4.0925,8.8866,9.7727,1.2351-7.1362,6.7289,1.8632,9.6422-8.5923-4.7931z"/>
<path fill="#e32303" stroke="#bf994c" stroke-width="1.15" d="m148.53,38.684,0,0,1.4566-7.1907-5.4945-5.1993,7.3011-0.94169,3.2819-6.7281,3.0414,6.7281,7.4308,0.94169-5.4394,5.0879,1.4023,7.3022-6.4902-3.6151z"/>
<path fill="#fff" stroke="#bf994c" d="m155.19,159.63,1.936,0,0.88459-10.232c6.2497,0.86601,11.45,4.4433,13.552,9.2368l0.0726-0.00034,7.0064-6.6009-4.0375-4.2772-3.9635,2.1022s-1.0514-1.0504-1.4023-1.3447c-0.71811-0.51803-0.71811-0.64531-1.5301-1.1065v-0.00035l0.88528-3.0418c-0.5898-0.35051-1.1247-0.58957-1.6405-0.88574l-0.23941-0.10961c-0.5906-0.24044-1.1622-0.46128-1.7516-0.70068v-0.00035l-2.0472,2.4527h-0.10961c-0.83071-0.35188-1.2361-0.40623-2.2322-0.64553-0.99467-0.22152-2.1011-0.46093-2.5621-0.46093v-0.00034l-0.88459-2.747c-0.58981-0.0547-1.3469-0.11076-1.936-0.11076-0.57238-0.00069-1.3469,0.0561-1.9178,0.11076l-1.1808,2.747c-0.46093,0-1.4006,0.0554-2.3405,0.35051-0.99536,0.18357-1.3466,0.40509-2.2126,0.75629h-0.0561l-2.0464-2.4527c-0.58946,0.23941-1.1801,0.46162-1.7688,0.70103l-0.22152,0.10858c-0.53546,0.29685-1.0514,0.5366-1.6409,0.88677l0.81098,3.0418c-0.75629,0.46047-0.75629,0.58981-1.4566,1.1068-0.35006,0.29329-1.4011,1.3458-1.4011,1.3458l-3.9821-2.1032-4.0378,4.2772,7.0239,6.6009h0.0554c2.1025-4.7936,7.3194-8.3698,13.57-9.2358v-0.00068l0.88459,10.232h1.9178z"/>
<g fill="#bf994c">
<path fill="#fff" d="m172.06,76.071c0.21338-2.3765,1.8932-5.4441,3.3464-6.3762,1.0435-0.70217,3.0017-0.61079,2.9696,0.70194-0.0783,3.1928-6.331,5.1746-4.54,9.1938,0.33618,0.75469,0.4232,0.73829,1.0216,1.2482-0.1869,1.1237-1.0154,1.2711-0.89056,2.9371-0.96887-1.3735-2.292-4.5653-1.907-7.7049zm-2.4451-5.2194c-0.0331-2.6923,0.003-5.2524-0.68107-7.6046-0.24801-0.73244-0.76306-1.3698-1.0217-2.0433-0.62638-1.6321-0.94043-3.9129-2.3834-4.4261-1.0872-0.38709-2.004,0.23574-2.8374,0.34054-1.8295,0.22955-4.0622-0.40463-5.675-0.11397-1.628,0.29399-2.8817,1.7701-4.1995,2.0433-1.121,0.23276-2.6158-0.09941-3.6317,0.22691-0.81224,1.3352-1.14,3.8769-0.79435,5.9023,0.12635,0.7423-0.27794,0.78129-0.68108,0.90798-2.0629-0.52846-3.6499-2.5313-3.0646-5.675-1.3553,0.26521-2.0018,1.3863-2.2702,2.4972-1.2172,5.0442,2.6232,5.7438,6.2425,5.5614,0.36897,0.62134,0.70986,1.3983,0.34054,2.1565-1.2525,0.75251-3.1891,0.82062-5.2208,0.79447-1.9724-1.3193-3.8604-2.7222-5.4481-4.4265,1.2435-1.4612,4.217-5.3264,1.249-7.2638-0.6797-0.15043-0.33801,0.7212-1.135,0.45382-0.86498-0.88471-1.0012-2.6359-2.2702-2.6103-0.99249,0.01961-2.0225,1.9988-3.6321,0.90798-0.14562,1.36-1.2048,1.241-2.3029,1.989-1.8947,1.2901-2.208,4.5361-1.8966,6.8638,0.22038,1.6482,1.414,2.8341,2.6334,3.6511,0.96635,0.64759,1.1324,1.8535,2.1337,2.2509,0.17623,0.47893-0.63016-0.02477-0.45382,0.45416,0.73279,1.0457,1.3389,2.217,3.1782,2.1566,1.0111,1.0315,1.5869,2.4985,2.3831,3.7453,0.58935,1.5713-0.5139,2.1391-1.544,2.6016-1.0773,0.48375-3.2244,1.1251-4.131-0.10446-0.90649-1.2301-0.008-3.1699-0.34054-4.4269-0.85111-1.4488-4.4923-2.3926-6.0155-0.79436,0.0255,0.62799,0.2589,1.3608,0,1.9297-1.6584-0.10491-3.2901,0.93023-3.0643,2.1562,0.13943,0.75984,0.75354,0.64656,1.1349,1.4755-0.83954,1.074-1.6627,1.9391-1.1349,3.859,2.2047,0.04036,1.2766,2.6348,2.2698,3.7453,0.46919,0.25087,0.66583-0.26842,1.1354-0.34054,0.8581,0.30339,1.7257,1.6645,2.9505,1.9296,1.8845,0.40727,3.9697-0.0065,5.4481-0.56745,1.8444,2.6862,4.6799-0.29823,6.8096-0.56745,2.2261,3.0956,5.3024,4.6839,8.8533,6.4694,1.1396,0.5733,4.4552,1.5709,4.4264,2.8374-0.0204,0.88757-2.295,1.7209-3.4051,2.2701-3.199,1.5818-14.192,5.9843-12.746,11.073,1.0223,3.5986,4.7822,6.009,5.7096,9.4699,0.37551,1.4011-1.422,4.4013-2.951,4.6538-0.77727,0.12819-1.0042-0.35957-1.816-0.56756-0.33664-0.0859-0.75583,0.0958-1.0217,0-0.65379-0.23528-1.0271-0.97678-1.7024-1.1349-3.1444-0.73679-4.8978,1.8382-4.9943,4.9939,1.0989,0.74896,0.40543,2.377,0.68107,3.5184,0.12383,0.51402,1.0115,1.1456,1.4756,2.043,0.11833,0.22909,0.0896,0.62249,0.22691,0.79436,1.0551,1.3236,2.2509,0.44258,4.0862,0.68108,0.38537,0.0503,0.7204,0.38536,1.1349,0.45427,1.7145,0.28482,4.5427,0.24687,5.7887,0,1.6919-0.33549,2.8318-1.5353,3.4547-2.1643,0.62249-0.62936,0.11661-1.7194,0.32093-1.9694,0.3191-0.17291,1.1826,0.27977,1.4781,0.023,0.49751-0.43272,1.84-0.92013,0.47526-3.2813-0.52192-0.90328,1.6314-2.2219,2.7835-3.2774,0.87049-0.79654,2.665-1.7741,2.9513-2.8372,0.82199-3.053-2.4625-4.5241-2.7001-6.8012-0.27197-2.6046,2.8228-3.1513,5.7643-2.7328,0.62764,2.071,0.60792,3.9209,2.043,5.1075,1.8153,1.5003,5.7064,0.0281,8.2854,1.0217,1.8889,1.1188,2.1988,7.8148-0.45383,7.9445-0.6782,0.0335-0.94329-0.54486-1.589-0.90799-0.69931-0.39339-1.8394-0.83919-2.4972-0.90764-1.6874-0.17669-2.3292,0.65516-3.0646,1.3618-0.37333,0.35876-0.77693,0.45416-1.0213,0.90798-0.23608,0.43823-0.0801,0.90397-0.22725,1.4751-0.13117,0.51069-0.50668,0.85409-0.45382,1.5892,0.0404,0.56011,0.60425,1.1175,0.7947,1.816,0.16282,0.59772,0.0539,1.2657,0.22691,1.7025,0.49315,1.2448,1.9195,1.7293,2.4972,2.951,0.94846,0.26222,1.7796-0.0237,2.61,0.11363,0.62581,0.10307,1.0228,0.53282,1.5892,0.56744,0.91268,0.0554,1.6382-0.62535,2.7241-0.45416,2.57,1.8968,8.5021-1.7512,8.1721-4.7666,1.1804-0.90844,1.7453-2.0087,1.5887-3.5184-0.0576-0.5522-0.55541-2.0802-1.5865-2.4404,0.34605-3.91,1.5997-6.4362,2.4946-8.9094,0.58568-1.6185,1.5079-3.2106,1.7023-4.54,0.64611-4.413-4.2651-2.0025-7.5227-3.2795-1.5815-0.61732-0.67637-1.6084-1.7491-4.8869,2.7766-4.1598,4.9874-6.159,4.0214-11.958-0.26371-1.5818-0.76409-2.563-1.3327-4.9592,0.52445,0.73577,0.83116,0.84423,1.3623,1.1352,3.7755-4.2045,7.0223-12.783,6.81-18.5-0.0845-2.2749-1.2373-5.6171-5.4351-6.9112-4.1977-1.2945-8.3994,1.3308-10.341,5.0951zm-3.156,21.575c0.63888,0.48157,0.68325,0.4349,1.2314,0.45382,0.26842-4.0444,0.35544-8.4172,0.92954-12.156,0.0331,0.08129,0.0663-0.08737,0.1001-0.0054,1.6165,3.9376,4.0455,9.1515,5.6327,13.441,0.47457,3.0519-0.0372,5.8414-1.788,7.0066-3.2765,2.1807-6.2876-5.9368-6.1058-8.7403z"/>
<path d="m169.61,70.853c1.9424-3.7643,6.1438-6.3896,10.342-5.0956,4.1978,1.2945,5.3506,4.6366,5.4346,6.9115,0.21235,5.7177-3.034,14.296-6.8099,18.501-0.53064-0.291-0.83736-0.39959-1.3618-1.1354,0.5686,2.3963,1.069,3.3775,1.3323,4.9593,0.96589,5.7989-1.2289,7.8031-4.0057,11.963,1.0854,3.2755,0.15628,4.2632,1.7333,4.8813,3.258,1.2771,8.1692-1.1334,7.5231,3.2796-0.1948,1.3294-1.1171,2.9214-1.7023,4.54-0.89491,2.4731-2.1486,4.9994-2.4946,8.9094,1.0311,0.36015,1.529,1.8881,1.5862,2.4403,0.15697,1.5097-0.40796,2.6101-1.5887,3.5184,0.33034,3.0154-5.6018,6.6635-8.1722,4.7666-1.0857-0.17119-1.8113,0.50954-2.7236,0.45416-0.56676-0.0345-0.96383-0.46436-1.5892-0.56744-0.83036-0.13725-1.6615,0.1486-2.6104-0.11363-0.57719-1.2216-2.0039-1.706-2.4967-2.951-0.17336-0.43662-0.0641-1.1046-0.22725-1.7023-0.19057-0.69862-0.754-1.2559-0.79447-1.8161-0.0531-0.73496,0.32276-1.0785,0.45393-1.589,0.14711-0.57112-0.009-1.037,0.22691-1.4756,0.24434-0.45336,0.64794-0.54887,1.0216-0.90764,0.73531-0.70653,1.3772-1.5385,3.0646-1.3618,0.65745,0.0684,1.7978,0.51425,2.4967,0.90764,0.64587,0.36313,0.91096,0.94158,1.5892,0.90799,2.6526-0.12957,2.3431-6.8255,0.45382-7.9445-2.579-0.99352-6.4701,0.47859-8.285-1.022-1.4354-1.1863-1.4154-3.0362-2.0433-5.1073-2.9411-0.41839-6.036,0.12831-5.7642,2.7329,0.23792,2.2771,3.5221,3.7482,2.7,6.8011-0.28619,1.0632-2.0804,2.0408-2.9509,2.8374-1.1524,1.0556-3.3057,2.374-2.7835,3.2773,1.3648,2.3613,0.0222,2.8486-0.47573,3.2813-0.29501,0.25683-1.1585-0.19596-1.478-0.0229-0.20398,0.24985,0.30155,1.3396-0.32093,1.969-0.62248,0.62937-1.7629,1.8287-3.4547,2.1645-1.246,0.24697-4.0742,0.28481-5.7887,0-0.41449-0.0688-0.74953-0.40395-1.1349-0.45417-1.8353-0.2386-3.0311,0.64244-4.0862-0.68107-0.13702-0.17199-0.10824-0.56527-0.22657-0.79436-0.46402-0.89755-1.3521-1.5291-1.4756-2.043-0.27564-1.1414,0.41782-2.7696-0.68107-3.5184,0.0962-3.1556,1.8496-5.7308,4.994-4.9939,0.67523,0.158,1.0489,0.89962,1.7023,1.1349,0.26624,0.0957,0.68544-0.0863,1.0216,0,0.81224,0.20799,1.0388,0.69563,1.8161,0.56744,1.529-0.25236,3.3265-3.2525,2.9513-4.6537-0.9277-3.4609-4.6873-5.8714-5.7097-9.4699-1.4463-5.089,9.5472-9.4914,12.746-11.073,1.1098-0.54922,3.3844-1.3827,3.4048-2.2703,0.0288-1.2664-3.2868-2.2641-4.4265-2.8377-3.5504-1.785-6.6271-3.3735-8.8528-6.4689-2.13,0.26876-4.9655,3.2536-6.8096,0.56745-1.4788,0.56091-3.5636,0.9746-5.4481,0.56745-1.2252-0.26521-2.0928-1.6263-2.9509-1.9297-0.46918,0.07212-0.66582,0.59152-1.135,0.34054-0.99352-1.1105-0.0651-3.7049-2.2701-3.7453-0.52778-1.9198,0.29571-2.7852,1.1349-3.859-0.38135-0.82898-0.99512-0.7157-1.1349-1.4754-0.22553-1.226,1.4058-2.2612,3.0645-2.1563,0.25902-0.56894,0.0256-1.3021,0-1.9296,1.5244-1.6034,5.1655-0.65963,6.0152,0.79436,0.33217,1.2569-0.56595,3.1968,0.34054,4.4268,0.90661,1.2296,3.0541,0.5882,4.131,0.10457,1.0304-0.46253,2.1333-1.0304,1.5443-2.6017-0.79654-1.247-1.3724-2.7138-2.3835-3.7453-1.8389,0.06054-2.4453-1.1108-3.1782-2.1565-0.17623-0.47893,0.63016,0.02477,0.45416-0.45416-1.0016-0.39741-1.1673-1.6034-2.1339-2.251-1.2194-0.81695-2.4126-2.0029-2.633-3.651-0.31141-2.3278,0.001-5.5738,1.8962-6.8638,1.0984-0.74815,2.1577-0.62902,2.3029-1.9891,1.6099,1.0909,2.6396-0.88826,3.6324-0.90798,1.269-0.02545,1.4053,1.7257,2.2699,2.6104,0.79688,0.26727,0.45531-0.60425,1.1349-0.45382,2.9681,1.9373-0.005,5.8024-1.2485,7.2638,1.5873,1.7042,3.4754,3.1071,5.4481,4.4264,2.0316,0.02626,3.9682-0.04185,5.2208-0.79436,0.36932-0.75836,0.0281-1.5353-0.34054-2.1566-3.6193,0.18254-7.4601-0.51723-6.2425-5.5613,0.26841-1.1109,0.91498-2.2321,2.2699-2.4972-0.39924,3.3126,1.1032,4.9942,3.0646,5.675,0.40314-0.12681,0.80743-0.1658,0.68107-0.9081-0.34535-2.0255-0.0175-4.567,0.79436-5.9023,1.0162-0.32632,2.5106,0.0058,3.6317-0.22691,1.3178-0.27312,2.5718-1.7494,4.1998-2.0432,1.6128-0.29066,3.8452,0.3434,5.6747,0.11397,0.83368-0.10491,1.7505-0.72774,2.8377-0.34088,1.4426,0.51356,1.7566,2.7944,2.3834,4.4264,0.25867,0.67339,0.77326,1.3108,1.0214,2.0433,0.68429,2.3521,0.64829,4.9122,0.68108,7.6046zm-4.5397-12.258c-0.80788-0.25821-1.4326,0.28562-2.1566,0.34054-2.5052,0.19056-5.741-2.0287-6.6967,0.34065,0.68658,0.86464,3.5032-0.40073,3.2915,1.3621-0.36748,0.39443-0.65447-0.39408-1.0216,0-0.10423,0.65711-0.26957,1.9041-1.2486,1.8161-1.0643-0.09586-0.88505-2.3209-2.3831-2.4968-0.58247-0.06845-0.92484,0.25351-1.4756,0.34054-1.2955,0.20512-3.4015-0.39122-3.545,1.1018-0.11248,1.1735-0.10376,1.1881-0.0663,2.1894,2.2443,0.97208,6.547-0.13587,6.9028,2.7244-0.55289,1.698-2.5102,2.2738-4.8806,1.816-0.49831-0.29605-0.69747-0.89159-1.4755-0.90798-0.23379,1.0057-0.50622,2.0848,0.11362,2.8377,1.3765,0.20616,2.3763-0.3981,3.6317-0.45416,1.8936-0.0845,3.7338,1.1958,5.675,0.56745,0.95901-0.55472,1.1535-1.8735,1.5891-2.951,0.69644,2.9798-0.83655,5.7734-3.859,4.6533-2.8031-1.038-3.5596-0.9644-6.9236-0.22691-1.8113,0.39706-3.7556,0.7423-4.8806,1.2483-1.5265,0.68658-3.046,2.0418-3.7453,3.7453,1.4908,0.74551,2.1588-0.62214,3.1779-0.56756-0.0572,0.66147-0.58097,0.85673-0.5671,1.5892,0.97758,0.83621,4.3004,1.8619,4.1992-0.56745-1.5065-0.04483-2.0157-1.0865-2.8377-1.8161,1.0559-0.34524,2.1515-1.8571,2.9513-1.4754,0.97644,0.46655-1.2301,0.83552-1.2486,2.0429,4.216,1.6194,4.1372-0.65012,5.902-1.4754,0.51391,0.01605,0.59336,0.62134,0.45382,1.1349-0.51321,1.8929-4.5022,0.49143-4.0859,3.4051,3.8419,1.8991,5.5844-0.84091,5.4481-2.6107,0.1158-0.29513,0.80204-0.24778,0.90764,0,0.55323,1.2959-0.91716,1.5079-0.68073,3.0645,1.5268,0.30855,4.0465-0.13071,4.3128-1.816-0.31072-0.67305-1.87-0.09723-2.4968-0.45416,0.53867-0.89858-0.0597-2.9349,1.3623-2.951-0.11076,0.57696-0.35372,1.0788-0.11363,1.7027,3.7472,2.0052,4.4915-3.2809,5.3344-1.816-0.74299,1.1863-1.2729,2.586-2.7241,3.0646-0.62019,1.4227-1.8998,2.1861-2.2698,3.859,1.6496,0.17118,2.9852-0.62283,3.859-1.7028,0.44831-0.55472,0.69196-2.0732,1.8156-1.2482-0.83254,1.7276-1.219,3.4828-3.1779,3.859-0.63085,0.12131-1.4102-0.20616-2.1568,0-0.47687,0.13151-1.5261,1.2282-2.1563,1.8161-1.0107,0.94261-2.0032,1.9008-1.816,3.6321,4.3812-0.01238,4.3247-6.0942,6.356-4.4269-1.1978,0.74815-2.4555,3.8914-1.0213,5.4481,2.2192-0.43123,1.2898-4.6085,2.8374-5.3344,0.1854,1.4495-2.1533,5.7544,1.4754,6.0155,1.7301-6.5615,2.8046-14.567,2.4972-21.338-0.091-2.0072,0.19045-3.5166-0.90799-4.4261-0.95098,0.33033-3.7731,1.6056-3.1782-0.68108,1.9005,0.0087,3.0777-2.7699,1.7031-3.9734zm-29.056,1.0217c0.16396,0.29422-0.11466,0.51425-0.17921,0.93275-0.0203,0.13151,0.74448,0.06994,0.93286,0.04839,0.44545-0.45199-0.10239-1.3876-0.75365-0.98114zm-4.535,2.5591-0.15915-0.27209c-0.20432,0.14241-0.92037,0.99684-0.58969,1.1727,0.12096,0.06409,0.84068,0.0087,1.0949-0.04988,0.22404-0.05137-0.3926-0.88253-0.34604-0.85077zm1.198-0.56355,1.0057-0.51975c-0.19894-0.47022-0.43823-0.66066-0.94559-0.8479,0,0.76925-0.22726,0.63051-0.0601,1.3677zm5.2664-0.747c1.006,1.0468,0.62133,2.2702,0.62684,3.4587,1.62-1.1419,1.4055-3.9388-0.62684-3.4587zm-2.1566,0.22691c-0.0939,2.2284,1.2067,5.84-0.11363,7.6046-1.4078-1.2565-2.2127-3.6612-3.1014-4.7251-1.5261,0.14137-1.2354,0.11191-2.5732,0.07143,0.01,1.5086-0.21132,3.4168,0.79436,4.6533,0.2699,0.33251,0.83621,0.41885,1.1349,0.68108,0.53546,0.47068,0.63303,1.2744,1.3618,1.3623,0.42802,0.25317,1.3907-0.02844,1.5892,0.45382,0.30006,0.94043-0.45416,1.5104-0.45416,2.4972,0.69311,0.97942,1.8477,0.18758,2.7244,0.5671,1.4023,0.60746,1.7792,4.0061,3.6317,3.7453-0.007-1.0894-1.1809-1.0134-1.2486-2.043,0.55656-1.0705,1.8422-1.4117,2.4968-2.3834-0.97323-2.5631-4.633-3.2125-5.1073-6.1289-0.35109-2.1591,1.422-4.4167,0.11374-6.3561-0.41632,0.000344-0.83231,0.000344-1.2486,0.000344zm-2.8374,1.2486c0.71032,1.0678,1.4205,2.9105,2.3956,3.7136-0.0467-1.8058-0.60092-5.7383-2.3956-3.7136zm13.219,4.6565c-0.90879-0.55208-1.549-0.98228-1.8673-1.3643-0.3184-0.3825-0.53511-0.78461-0.90993-1.7035-0.31612,2.3554,0.67855,3.0678,2.7773,3.0678zm5.7351-1.592c0.81178,0.17015,1.5148,0.23138,2.2731,0.36175-0.2065-0.9292-2.3827-1.4551-2.2731-0.36175zm-1.568,0.1971c0.2855-0.16786,0.3121-0.45967,0.33102-0.57146-0.0139-0.28848-0.30339-0.28046-0.57914-0.19309-0.21052,0.06673-0.0455,0.54887,0.24812,0.76455zm2.0218,1.8459c0.75434,0.26693,1.6965,0.10709,1.9296-0.45416-0.59073-0.16614-1.2129-0.26956-2.3466-0.41346-0.14905,0.35223,0.0579,0.74012,0.41702,0.86762zm29.48,14.074c8.4005-16.073-9.656-21.134-12.001-5.3345-0.34524,3.1094,0.41014,5.0398,1.2482,7.2642,0.46987,1.2457,0.94192,2.6257,1.4756,3.7453,1.1633,2.4395,2.5295,4.8474,3.0019,7.3056,0.47641,2.4818-0.27059,7.856-3.5271,8.3571-4.0425,0.62134-7.5712-6.2217-8.441-9.3068-0.42034-1.4907-0.82933-2.7437-0.90799-4.3131-0.92919,0.35693-1.3859,1.1867-2.3835,1.4755-0.96153-0.62764-0.90065-2.2772-1.9292-2.8377-0.84905,0.244-3.3029,0.35946-4.6538,0.11363-0.032-0.72086,0.75686-1.8219-0.11363-2.043-1.5793,1.2398-0.10055,4.7204-2.2698,5.3345-1.3102,0.37069-3.5994-0.34673-5.8896-0.62936,2.3981,3.2033,7.5904,4.9706,10.316,7.3257,1.3028,1.1257,2.6967,2.6901,3.632,4.1992,2.256,3.6393,1.9955,9.5685,3.5727,14.343,0.56309,1.7038,3.958,0.9973,5.9689,1.4878,4.9724,1.2144,6.7055,11.908,1.8084,13.566-2.2783-0.13943-7.29-1.6886-6.2422,1.7024,0.77624,0.0837,0.9926-0.67901,1.7025-0.9081,1.2989-0.41919,2.9423,0.23574,4.4264,0.22691,0.6148,1.6926-1.8477,1.1386-2.2702,2.157v1.3619c1.088-0.31187,1.454-1.3455,3.1782-1.0214,1.489,0.29467,0.4466,2.4644,1.3619,2.951,0.45233,0.24044,1.4033-0.31681,2.0429-0.68108,1.2206-0.69529,3.0351-1.9289,3.0646-3.2915,0.0194-0.87118-0.82497-1.0315-0.34054-1.8156,1.2027,0.0546,2.2324-0.5405,2.043-1.5892-0.16213-0.90111-1.7902-0.99398-1.9294-1.9297,0.85123-3.2507,1.6849-6.823,2.8374-9.7608,0.33182-0.84538,1.1699-2.4312,1.1352-3.1779-0.1322-2.83-3.8426-1.6136-6.2424-2.1566-1.3397-0.30305-3.1211-1.2373-3.5184-2.3835-0.45783-1.3206,0.15365-3.1057-0.11362-4.54-0.14103-0.75538-0.3402-1.0173-0.68085-1.8156,3.1382-0.61744,5.1546-3.0388,5.5614-6.0156,0.61194-4.4746-1.0887-7.3625-2.3835-10.669-1.9016-4.8555-4.2862-7.9346-3.0646-13.506,0.60793-2.6628,3.9373-8.08,7.2252-5.7675,0.49097,0.34524,0.98561,1.7649,0.4083,2.861-0.38353,0.72774-2.7296,2.7557-3.3713,4.5966-0.32448,0.93092-0.41197,2.0655-0.0517,3.3381,2.6086-1.0959,4.4344-4.4028,4.8697-5.9361,0.46803,1.3323-0.1861,2.5638-0.67638,3.1065-1.6317,1.8077-3.3464,2.4709-3.2,6.0596,2.3962,0.04334,3.0824-2.6177,4.1033-4.5124-0.0939,0.68256,0.36312,1.0974-0.62283,2.7944-0.98596,1.697-2.3154,2.3183-1.988,4.583,2.1176-0.78117,3.2828-3.2674,3.8295-4.3135zm-6.4398-11.804c-1.4136,0.95167-3.0045,3.7887-3.2912,6.1288-0.38537,3.1397,0.86464,6.5022,1.8335,7.8757-0.12532-1.666,0.70332-1.7581,0.8901-2.8817-0.5984-0.51-0.68509-0.49361-1.0216-1.2486-1.7909-4.0193,4.4617-6.0006,4.54-9.1934,0.0321-1.3131-1.9074-1.3834-2.9509-0.68073zm-48.592,7.9976c0.33217-0.02981,0.59003,0.20398,0.9222,0.17451,0.15663-0.14676,0.11214-0.49315,0.11328-0.7947-0.36576-0.16362-1.0556,0.08301-1.0355,0.62019zm2.2844,0.06088c0.22072,0.57364,0.94376,0.64507,1.4756,0.90798,0.13988-0.32082,0.13988-0.70034,0-1.0213-0.7157-0.16534-1.0253-0.21739-1.4756,0.11328zm11.236,2.2699c0.85456,1.187,3.4362,0.3543,4.1996-0.56756-0.72843-2.449-3.4751-0.76844-4.1996,0.56756zm-12.818,7.6396c1.2475,1.0777,2.967,2.0094,5.1003,1.6682,1.331-0.21315,2.5132-2.0827,3.9726-1.4755,0.12498,0.80858-0.25604,1.4496,0,2.043,1.2938,0.33618,2.291-0.57547,2.6104-1.5892,4.0455,0.19744,7.6714,1.8605,11.384,1.0435,1.3954-0.3066,1.6459-2.653,2.122-4.6752-1.1899-0.32334-3.1203,0.09333-4.3128-0.22725,0.0882-0.55506,0.41954-0.86648,0.34054-1.5891-1.3032,0.57765-2.928,0.06478-4.54,0-0.3614-0.13117-0.1439-0.84034-0.68119-0.79482-3.168,0.31222-6.3933,2.5478-9.9877,2.043-2.8224-0.39706-2.7958-4.7378-4.8807-4.8807-1.2246-0.08405-1.4748,1.2045-1.7024,1.8161,2.2272,0.91819,2.1038,1.9468,2.9112,3.447,0.62615,0.20616,2.1009,0.12899,1.9694,1.093-1.2475,0.01892-6.457-1.2609-4.3059,2.078zm-0.54589,0.15766-0.19595-0.93676c-0.4732-0.01857-0.66663,0.02408-0.85455,0.29032-0.22359,0.40578-0.01,0.73095-0.0626,1.2602,0.48444,0.21418,0.53901-0.55105,1.1131-0.61377zm18.47-8.026c-0.11363,0.48076-0.20111,1.2408,0,1.7023,1.5541,0.03348,3.7042,0.08164,3.7457-1.0213-0.80204-0.78025-2.4545-1.0053-3.7457-0.68107zm-20.222,0.37723c-0.15593,0.16465-0.34134,0.45394-0.34134,0.68084,0.57594,0.1048,1.037,0.05676,1.3819-0.26372,0-0.22691-0.005-0.54348-0.005-0.77039-0.48111-0.02694-0.79218,0.09689-1.0355,0.35326zm25.67,0.30385c-0.63406,0.57616-0.71971,1.7013-0.90798,2.7241,2.3744,0.23884,4.3096-0.49246,4.6533-2.6108-1.0164-0.33515-2.5732-0.24629-3.7453-0.11328zm3.6322,4.0859c0.91269-1.2624,3.5653-1.5403,2.8372-3.7453-2.3419-0.59703-3.2219,1.2383-2.8372,3.7453zm13.197,8.2854c-0.008,0.0015-0.0167,0.0092-0.0251,0.01055-0.52193,0.09368-0.57364,0.07212-1.2023-0.40211-0.18173,2.8039,2.798,10.838,6.0742,8.6573,1.7508-1.1655,2.1799-3.9654,1.7053-7.0176-0.49601-1.8516-1.7977-4.2279-2.7241-6.4689-1.022-2.4724-1.9857-5.0792-2.8216-6.6992-0.0276-0.06925-0.0641-0.10824-0.10342-0.10526-0.57398,3.7387-0.63407,7.9808-0.90294,12.025zm-41.35-10.101c-0.23849,0.44258-0.0568,1.3054-0.11317,1.9297,0.82314,0.06662,1.1899-0.32345,1.8163-0.45382-0.19699-0.86281-0.5944-1.5251-1.7032-1.4759zm-2.0429,1.9297c0.22691,0,0.78886-0.10457,1.0158-0.10457,0.11225-0.34157,0.21315-0.69495,0.15192-1.2099-0.82646-0.14573-1.1692,0.63154-1.1677,1.3145zm34.844,21.111c0.5201-0.20685-0.60505-4.2286-2.2702-4.7674-0.0768,0.85123,0.69094,1.4089,1.1794,2.4331,0.4881,1.0239,0.86716,2.4232,1.0909,2.3344zm-0.68107,0.5671c-1.2865-2.1849-1.2778-3.1218-2.2699-3.2912-1.4966-0.19481-2.921,0.58602-4.3128,1.0213-3.2857,1.3502-12.579,5.3002-10.442,9.4207,1.1302,2.8825,4.6938,4.9925,4.9939,8.2855,0.18655,2.0459-1.2219,4.3226-2.2698,5.448-0.83953,0.9011-3.0679,2.6079-4.4269,2.6104-0.41885,0.00069-0.93344-0.37987-1.4754-0.45417-1.2038-0.16465-2.3143-0.13667-3.1779,0.56745-0.0477,0.80456-0.0339,1.5472,0.45417,1.8156,1.0194-1.0333,3.0427-0.74299,4.7669-0.90764,0.58316-0.0557,1.052-0.52445,1.4756-0.11363,0.16465,0.36828,0.20581,1.454,0,1.8161-1.2096,0.0862-2.8224,0.34306-2.3835,1.7024,0.8268-0.35189,2.382-0.35877,3.0646,0.56744,0.13083,0.47458,0.11226,1.0989,0.45383,1.3618,1.9213,0.34535,4.5361-1.0504,4.7671-2.61,0.12016-0.81512-0.71135-1.7268-0.34065-2.1566,0.26853-0.31107,2.0805,0.60208,2.2702,0.3402,0.25501-0.35258-0.90546-1.6503-0.56744-2.3831,1.1481-2.4903,4.2264-3.2227,4.9939-5.7883,0.90328-3.0198-2.4045-4.9294-1.8156-8.0588,0.60139-3.1965,4.5139-3.2795,7.604-4.0859,0.23344-1.0276-1.1247-0.46448-1.4751-0.9081-0.85375-1.1881-0.38938-2.9236,0.11294-4.1995zm0.43444,2.853c1.3735,0.0969,1.123-2.4435,0.81442-2.853-0.56056-0.74333-0.9918,2.031-0.81442,2.853zm-23.487,19.692c0.24514-0.24651,0.90799-0.55873,1.2612-0.41231,0.48994,0.20329,0.87565,0.54165,1.4354,0.26888,0.4568-2.33-4.3302-1.654-2.6967,0.14343zm-2.3045-0.0502c0.23608,0.0291,0.76053,0.5663,0.95648,0.63521,0.66732-0.0142,0.48043-1.0002,0.4145-1.7472-0.41369-0.24193-1.132,0.81695-1.371,1.112zm31.26,0.43273c0.039,0.60597-0.087,0.73244-0.22725,1.341,0.59554-0.13301,2.0721-0.2182,2.3835-1.0005-0.38537-0.71031-1.3255-0.52456-2.1563-0.34053zm-30.498,3.8228c0.37952-1.117,1.0522-0.52559,0.88723-1.242-0.28264-0.19527-0.25684-1.2872-0.48123-1.2063-0.67305,0.24331-1.2346,2.0462-0.406,2.4483zm4.1667,1.5116c0-0.95534,0.23093-1.6069,1.1349-2.1566,0.21602-0.2378,0.84171-0.0658,0.68073-0.68107-3.1684-0.25455-5.5516,2.3912-1.8156,2.8377zm24.378-0.83403c0.50519-0.12463,0.92152,0.18025,1.2289-0.094-0.0189-0.13724-0.0681-1.3953-0.10526-1.3939-0.6469,0.0248-1.2001,0.83518-1.1237,1.4879zm-0.071-3.0894c0.0589-0.0124,0.79069-0.21934,1.1196-0.11145,0.0593,0.0193,0.26543-0.60242,0.20833-0.82978-0.0576-0.22726-0.22806-0.29502-0.51138-0.36015-0.0532-0.10388-0.57364,0.64106-0.8166,1.3014zm3.1593,3.2427c-0.91314,1.2212,0.68395,3.0472,1.9296,2.4968-0.0182-0.52457-0.0134-0.85307-0.028-1.5378,0.12349-0.52009,0.69931-0.4302,0.4818-1.0726-0.31898-0.94262-1.9748-0.43273-2.3834,0.11362zm-29.802,0.62684c-0.14172,0.33653-0.95144,1.4197-0.48157,1.6908,0.48994-0.43341,1.2825-0.32815,1.6463-0.53465-0.45417-0.81259-0.57181-0.64255-1.1647-1.1561zm4.0618,0.70516c-0.36496,0.50438-0.2808,0.79619-0.34672,1.3917,0.68795-0.031,1.1829-0.42183,2.1387-0.22691,0.0827-0.97472-1.128-2.0816-1.792-1.1648zm29.94,0.82462c-0.10962,0.6093-0.542,0.89561-0.45417,1.7024,2.3248,1.0075,3.3822-2.335,0.45417-1.7024zm-4.821,1.9712c0.50955-0.0576,0.81959-0.52491,0.96199-0.94995-0.19595-0.42183-0.75583-1.0654-1.1801-1.1327-0.18437,0.40027-0.005,1.7763,0.21808,2.0827z"/>
<path d="m157.94,93.687c-0.26372-0.63338-0.833-0.99902-1.3623-0.90798-0.73898,0.1275-1.8973,1.9456-2.2698,1.1349-0.60356-1.3111,2.4672-0.81546,2.3834-2.3834-0.0425-0.79-2.1595-2.2856-0.22725-2.1566,1.9326,0.12934,4.1227,5.7537,0.56744,6.4694-1.3673-0.77143,0.92266-1.0537,0.90845-2.1563z"/>
<path d="m180.05,115.79c0.9801,0.64393-0.36129,1.9195-0.75217,2.7266-0.2433,0.50267-0.4349,1.4802-1.1284,1.3163-0.47973-0.67053,0.42975-1.285,0.56378-1.9744,0.23895-1.2246,0.29869-2.7375,1.3168-2.0684z"/>
<path d="m151.57,121.09c2.0444,0.44877,1.1648,3.3429-1.034,2.9149,0.1384-1.1779,1.2453-1.3873,1.034-2.9149z"/>
</g>
<g id="wheat" fill="#fff" stroke="#bf994c" stroke-width="1.2">
<path d="m97.35,151.5c14.675,19.118,35.51,33.279,63.515,38.883,0,0,1.2361,0.23941,3.0436-0.57123,2.0451-0.88563,0.29398-1.1804,0.29398-1.1804-28.651-4.6095-48.084-18.879-63.055-38.017l-3.7974,0.88563z"/>
<path d="m106.36,149.4c1.0504-0.35017,2.0471-0.34948,2.0471-0.34948,15.192,18.528,32.744,33.204,61.58,36.191,0-0.00034,2.7463,0.64565,0.64519,1.64-1.2908,0.64553-2.9871,0.1846-2.9871,0.1846-28.892-3.8163-47.79-18.437-62.871-37.316,0,0,0.88506-0.1846,1.5853-0.35074z"/>
<path d="m110.27,148.64c-0.86739,0.16476-1.8621,0.40624-1.8621,0.40624,15.192,18.528,32.744,33.204,61.58,36.191,0-0.00034,2.1008,1.1244,4.0929,0.18472,3.0418-1.4023-0.88563-1.5305-0.88563-1.5305-28.762-2.2136-45.908-17.368-61.23-35.491,0-0.00035-0.94031,0.11076-1.6959,0.23929z"/>
<path d="m114.02,148.16c0.64565-0.0561,1.641-0.16648,1.641-0.16648,15.377,17.533,31.528,32.855,60.069,34.256,0,0,4.5545-0.46127,1.2716,1.5848-1.0504,0.64599-3.7977,0.0565-3.7977,0.0565-28.762-2.2136-45.908-17.368-61.23-35.491,0-0.00034,0.40624,0,2.0461-0.23975z"/>
<path d="m117.41,147.99c0.75492,0,2.1018,0.001,2.1018,0.001,15.56,16.722,31.416,32.043,59.367,32.689,0-0.0008,2.1568,0.29502,1.0504,0.99536-0.80995,0.57192-1.2901,0.70125-2.2305,0.57192-0.92175-0.11076-1.9725,0-1.9725,0-28.54-1.4012-44.691-16.722-60.069-34.256,0-0.001,1.2908,0,1.752-0.001z"/>
<path d="m102.97,150.15c0.40555-0.10972,1.8067-0.40451,1.8067-0.40451,15.081,18.878,33.979,33.5,62.871,37.316,0-0.00069,1.6956,0.35017-0.055,1.2719-0.99604,0.53523-3.393,0.29548-3.393,0.29548-28.651-4.6095-48.084-18.879-63.055-38.017,0,0,1.2361-0.22083,1.8259-0.46162z"/>
<path d="m105.66,82.323c-0.64565,0.51631-0.83002,0.3512-1.4009,0.6453-1.6971,0.81064-2.5263,0.22175-3.9828,0.92209-2.2855,1.1794-2.9314,2.6366-3.4477,5.7348,0-0.001-0.29548,1.2348-0.59015,3.2809-0.11076,0.517,0.59015-3.0965,3.5033-3.2809,2.5256-0.1111,1.5849-0.05607,2.9307-1.4575,1.4573-1.4566,1.3469-1.8799,1.8078-2.9303l1.1797-2.9143z"/>
<path d="m126.24,32.783c-5.3104,6.8406-10.344,12.39-11.099,14.271-0.5905,1.6407,0.40624,1.8624,0.70068,3.9085,0.63361,3.8893-3.8416,7.4085-5.9743,10.528-0.34902,0.53488,1.9922-2.8027,1.5313-4.5533-0.53511-1.9372-1.3469-4.2776-0.12968-6.6002,2.3419-4.2776,13.624-16.907,13.976-17.552l0.99569-0.001z"/>
<path d="m143.44,44.768c-11.284,6.1943-13.164,7.6695-19.895,10.878-1.4004,0.64484-3.5573-0.75629-4.258-0.86602-1.2551-0.12612-3.3039-0.21028-4.451,0.4427-0.31932,0.18219-0.73496,0.8393-2.9237,3.5755,0,0-1.2912,1.7702-2.5084,3.3376-0.34914,0.42332,0.99604-2.1568,4.6651-2.2676,1.1243-0.0743,4.5727,0.51585,6.5091-0.64553,1.3269-0.83002,0.97678-0.82933,2.1008-1.825,0.81133-0.75629,20.361-11.512,20.466-11.579l0.29502-1.0511z"/>
<path d="m114.72,55.295s1.0504-1.2165,1.2908-2.5066c0.10962-0.48019,0-1.6964-0.24044-2.3419,0,0,2.2312-1.586,4.6834-2.0471,1.1801-0.23906,4.2219-2.451,4.9786-3.2262,2.8571-2.5081,15.32-12.095,15.32-12.095l0.64518,0.46116c0.0445,0.08943-15.974,12.227-18.603,14.971-0.8846,1.1058-0.70022,2.692-1.0504,3.9828-0.23941,0.93998-1.5673,2.6173-1.5673,2.6173,0-0.000688,0.0371-0.22106-1.8261-0.46047-0.93963-0.11145-2.6366,0.18437-3.6312,0.64484z"/>
<path d="m92.666,79.576c0.07464,1.0514,0.64553,2.6741,1.0693,3.3926,0.81202,1.4565,0.62764,1.8628,1.9174,3.4479,0.70091,0.75606,1.8259,1.9919,0.70091,5.6052,0,0-0.1103,0.8299-0.46116,3.4477-0.10973,0.58877,0.35086-1.2169-0.7556-2.507-2.1018-2.3426-3.2809-4.0932-3.5763-6.14-0.40624-2.7477-0.11076-1.6409,0.12865-3.7427l0.97678-3.5038z"/>
<path d="m88.647,60.034c0,1.0507-1.1247,11.339-0.53523,22.402,0.11076,1.696,5.4384,8.5909,6.7296,10.177,0.16648,0.23929,1.5119,0.93963,0.94101,5.3822v4.26c0,0.58958-0.64587-2.268-2.3419-4.0932-2.1018-2.3416-3.1711-4.2594-4.0382-6.1396-3.7424-7.4862-2.0468-15.617-1.5855-29.886l0.83025-2.1022z"/>
<path d="m99.691,51.387c-0.97988,6.8525-5.3914,15.231-1.6409,22.107,0.70022,1.2723,1.4741,1.7506,1.1801,6.3051,0,0-0.47985,0.93998-1.0518,3.5208,0,0,0.1111-1.069-0.07361-1.29-1.2162-2.1025-3.0232-4.6271-3.4484-7.2636-0.75492-4.4988,4.0027-22.355,4.0389-22.457l0.9957-0.92209z"/>
<path d="m115.6,64.882c-0.94066,0.35017-1.1801,0.29548-1.4566,0.29548-1.697,0.05469-1.7695-0.05572-3.1718-0.05572-1.752-0.000344-4.0375,0.29582-6.8946,4.7945,0-0.000344-0.94135,1.6403-2.2869,3.9821-0.29433,0.46024,1.8806-2.747,4.7392-2.6373,2.2293,0.05607,2.4508,0.59049,4.0922-0.34914,1.1804-0.7016,2.1761-2.2126,3.2265-3.6319l1.752-2.398z"/>
<path d="m110.86,41.559c-0.99616,1.457-7.3748,14.621-6.6745,16.484,0.59049,1.5848,1.4756,1.0507,2.1207,2.9861,0.46128,1.6405,1.2723,3.8528-1.6971,8.2408,0,0-1.2343,1.6419-2.3965,3.7988-0.29445,0.58958,1.328-2.802,0.22152-5.4948-0.59061-1.5119-2.3973-3.0421-1.2162-5.7884,3.5034-8.6484,7.9456-19.12,8.7016-20.005l0.94043-0.22186z"/>
<path d="m94.491,75.3c0,1.0504,0.51665,1.2901,0.86705,1.9914,0.77395,1.5117,0.83002,1.3448,1.8797,3.0972,1.1625,1.99,1.1065,1.9353,0.51688,4.9042,0,0-0.40543,1.696-0.92174,4.3333-0.12934,0.58889,0.51631-1.0518-0.59015-2.4529-1.4559-1.9911-1.8068-2.2315-2.7475-4.9779-0.58946-1.697-0.35005-0.92174-0.35005-3.1529l1.3458-3.7424z"/>
<path d="m105.78,44.546c-0.84033,2.4975-7.3683,16.656-5.7348,19.692,0.40623,0.6445,1.8067,1.8246,2.2865,3.1708,0.62386,1.6087,1.1607,3.408-0.6312,6.5967-1.0596,1.8844-1.6189,3.7729-2.4653,5.7934-0.24044,0.53408,0.64519-2.6928-0.47985-4.9047-1.1065-2.2307-1.3458-2.692-1.6223-5.568-0.3512-3.5034,6.8395-22.566,7.4116-24.152l1.2353-0.6273z"/>
<path d="m117.76,37.062c-2.8574,4.6084-8.7017,11.688-8.592,15.247,0.11076,1.6956,1.586,1.9914,1.991,4.0375,0.35086,1.6964,0.70137,2.2869-2.6366,7.1911,0-0.000344-1.2351,1.2898-2.507,3.6314-0.35005,0.53408,1.4006-2.7475,0.517-5.0879-0.81248-2.3976-0.86705-2.8581-0.75641-5.2554,0.11076-4.2776,10.767-19.192,11.118-19.764h0.86602z"/>
<path d="m115.84,50.41c-0.22084,0.23975-0.23838-0.71914-0.23838-0.71914,2.3412-1.6971,18.529-18.142,18.529-18.142l1.6414-0.57261s-17.609,17.018-16.483,17.718c0-0.000344-3.0253,1.2544-3.4489,1.7152z"/>
<path d="m120.21,54.919c0.16121,0.11191,0.4787,0.32185,0.4787,0.32185,2.2308-1.9988,21.18-14.468,21.407-14.732l0.8103-1.3469s-20.004,13.792-21.055,12.925c0-0.001-0.2941,1.2477-1.6405,2.8322z"/>
<path d="m104.02,91.671c-0.64553,1.5299-1.697,2.3963-2.2865,2.6917-1.697,0.81064-1.4565,1.4011-2.9868,2.1015-2.747,1.3468-2.9682,4.3337-3.0982,6.0296,0-0.00069,0.13002,4.0925,0.3512,6.3794,0.12865,0.57123-0.46093-2.6921,1.9917-4.2776,2.3963-1.5124,2.0451-1.6405,3.3909-2.9135,1.3468-1.3462,1.6416-2.8758,1.7516-3.4663l0.88597-6.5449z"/>
<path d="m103.43,88.408c-0.81098,0.70034-0.29582,0.22118-0.86717,0.517-1.7688,0.93894-2.0464,0.35051-3.6316,0.93998-2.6366,1.0497-2.5817,2.9121-3.0975,6.0292,0,0-0.05504,4.4434-0.05504,6.3608,0,0.58958-0.23975-3.743,2.2129-5.3104,2.3963-1.5308,2.581-1.8249,3.9814-2.8206,0.81098-0.57158,0.40624-0.46058,1.1612-2.6916l0.29582-3.0244z"/>
<path d="m101.92,78.046c-2.4709,0.18403-2.876,2.2862-2.6913,1.7521,0.64519-1.9914,1.0504-3.1536,1.0504-3.1536,1.9353-4.388,4.4986-5.4934,6.6555-5.3276,1.9732,0.11638,2.6735-0.23585,4.5177-0.64564-1.3619,4.523-5.1117,7.0832-9.5323,7.3748z"/>
<path d="m108.08,76.114c-2.0959,1.1917-3.7683,1.7537-6.1568,1.9325-2.1207,0.11042-2.7473,1.0504-3.8713,5.7339,0-0.000688-0.3512,0.75595-0.64553,2.8581-0.05538,0.53454,1.3458-2.7473,4.3325-3.0975,1.0504-0.11179,2.7475-0.51585,3.1526-0.9957,0.88528-0.86636,1.8249-2.1569,2.5252-3.9092l0.66342-2.522z"/>
<path d="m121.5,58.743c-1.8624,1.2901-4.8498,1.2355-5.3847,1.2355-1.7307-0.07992-3.6691-0.19974-5.2469,0.71501-0.62249,0.3606-1.3546,1.2336-3.4557,4.1882,0,0-0.2941,1.0514-2.0451,3.1718-0.40589,0.46093,2.3963-2.8763,4.9035-2.8763,2.4527-0.05607,3.2815,0.2401,5.144-0.4052,1.9781-0.8064,4.4034-4.3318,6.085-6.0289z"/>
<path d="m110.75,89.864c0,0.16648,0.57123-1.179,0.57123-1.179,0.88494-2.7473,3.8717-9.7534,3.8717-9.7534l0.055-1.586s-4.7384,11.284-5.1993,10.473c0,0,0.57204,1.2905,0.70137,2.0454z"/>
<path d="m114.5,113.13c-2.0608,3.7984-2.9822,2.9345-6.3794,5.1436-0.8299,0.47939-2.6913,1.7709-2.5815,7.9652,0-0.00034,0.53545,1.8628,0.64553,4.5538,0,0.59015-0.70057-4.038,1.7516-5.4934,1.1254-0.64622,3.8164-1.9367,4.6835-3.0979,2.1568-2.9878,1.6409-2.6367,1.935-7.4308l-0.0547-1.6405z"/>
<path d="m114.71,120.05c-1.0315,2.717-6.1098,4.0351-7.7768,6.3054-0.81098,1.1051-0.92174,2.2852-0.40474,6.6185,0,0,0.4787,1.2164,0.64415,3.9085,0.0561,0.53409-0.2941-2.9868,1.2908-4.7382,1.1615-1.2365,3.7981-3.743,4.4429-4.498,1.1065-1.5866,1.3448-3.8795,1.695-6.1103l0.10858-1.486z"/>
<path d="m114.61,125.36c-0.35017,0.88425-0.9957,1.6959-1.6971,2.3963-1.3458,1.4011-2.9303,2.7473-3.9271,3.872-0.62661,0.7556-2.3225,1.9735-1.6959,6.6001,0-0.00069,0.42516,1.2354,0.58946,3.9272,0.0561,0.5162-1.0504-3.5216,1.2912-5.0335,1.1068-0.70068,2.637-0.70034,3.9092-3.4477,1.5853-3.2815,1.4195-5.0882,1.4742-5.7884l0.0561-2.5259z"/>
<path d="m115.84,92.667c-3.0779,6.0222-6.3784,4.5552-9.6056,8.2419-1.2719,1.5845-1.1622,0.53408-1.7513,6.3779,0,0-0.11145,5.0892,0.18391,6.085,0.11076,0.2941,0-5.624,2.3416-7.1904,2.3963-1.697,4.9478-0.33331,5.5376-2.5637,0.70022-2.6364,3.4974-9.908,3.5699-10.066l-0.2761-0.88505z"/>
<path d="m115.14,99.803c-2.9068,5.3584-3.109,3.3891-7.4854,5.9732-0.83002,0.46082-2.7657,1.622-2.9307,7.8356,0,0,0.40474,1.9174,0.40474,4.6095,0,0.53408-0.81098-3.5591,1.6959-4.9038,3.3376-1.7524,5.6172-2.8974,6.447-4.538,1.0981-2.4702,0.26142-1.6018,2.0342-7.2805l-0.1658-1.6959z"/>
<path d="m103.14,85.716c0.11076,0.30522,0.39466,2.6433,1.752,4.6838,0.78862,1.1863,1.8811,2.1567,0.64496,7.3557,0-0.000344-0.46093,2.3969-0.70034,5.4394-0.055,0.58923,0.3512-3.3922-0.99536-4.683-1.4008-1.4016-2.8581-2.8025-2.6923-5.4384,0.12968-2.6195,1.1801-6.085,1.125-6.7852l0.86602-0.57238z"/>
<path d="m117.46,83.025c-3.8535,7.5408-3.3187,7.006-4.6644,8.5361-0.9957,1.2162-2.4716,0.86717-3.1718,1.1615-1.1065,0.5342-1.8068,0.70137-2.8025,1.8806-1.161,1.2172-0.58946-0.58981-1.5852,5.2547,0,0-0.22152,2.1754-0.46093,4.0933-0.11076,0.58981-0.23963-2.2683,2.9322-4.2602,3.1042-1.5523,5.2946-2.2798,6.2489-5.834,0.35017-1.0511,3.6517-9.3462,3.7425-9.7814l-0.23872-1.0507z"/>
<path d="m106.01,95.414s0.35017-2.451-0.47973-3.7421c-0.29445-0.59084-0.80995-1.6409-0.92221-1.8067,0.70906-2.4389,3.1203-2.8795,4.0288-4.8888,1.6209-3.5857,2.8231-7.6169,4.38-11.428l0.88494,0.11007c0.0416,0.04311-3.632,8.0213-4.2783,11.873-0.35189,2.2238,2.0236,3.8517,0.9957,7.0246,0,0-0.055-0.24032-1.8068,0.517-0.88494,0.35017-2.2307,1.4742-2.8024,2.3402z"/>
<path d="m101.04,94.123c0-0.05607,1.0602,2.7797,2.3963,3.9831,1.0514,0.93963,1.6963,1.696,1.2353,7.4845,0-0.001-0.23963,1.8067-0.18391,4.4994,0,0.53339,0-1.6971-1.2908-3.9647-0.92209-1.6959-1.8246-1.6083-2.93-3.6551-1.9364-3.743-0.0392-7.0011-0.11179-7.6467l0.88494-0.70057z"/>
<path d="m99.58,104.01c0.75744,0.53523,0.94066,0.64599,1.5674,0.99604,0.47973,0.23941,0.70022,0.23941,1.1801,0.64565,1.1068,0.88356,1.7523,0.82887,2.2129,6.6745,0-0.00081,0.12887,1.8056,0.53408,4.4422,0.11179,0.58877-0.23941-1.6412-1.88-3.6873-1.1625-1.512-0.81098-0.58958-2.2686-2.5813-2.5809-3.3183-1.8796-5.4384-2.0461-6.0653l0.70022-0.42447z"/>
<path d="m114.9,107.93c-0.0271,0.1455-0.74162,3.3292-1.793,6.7766-0.6453,2.2678-3.2413,2.1666-5.6374,3.9922-2.2308,1.696-1.6255,7.5588-1.7552,7.2643-0.40486-0.99604-0.69713-5.9934-0.69713-5.9934,0.11076-5.3098,0-5.0882,1.4566-6.4888,0.83552-0.9715,5.7782-3.0624,6.8434-4.7595,0.5905-0.99673,0.93745-1.4909,1.2876-2.0804l0.29514,1.289z"/>
<path d="m83.13,122.63c0.51665,0.88608,1.6452,1.967,2.3455,2.4278,1.4019,0.94066,1.8803,1.1247,3.743,1.9367,0.77464,0.29376,2.0468,0,4.0378,5.6045,0,0,0.23941,0.12934,1.0515,2.6362,0.18357,0.53454-1.5674-1.7516-3.9086-2.692-2.8767-1.1065-4.0389-1.1612-5.2179-2.9131-1.5673-2.2865-1.384-2.7475-2.7298-4.9221l0.67844-2.0781z"/>
<path d="m78.986,95.949c0.48753,3.1462,3.4838,3.06,5.6238,4.6639,1.29,1.0688,3.1526,2.1214,3.0418,7.3201,0-0.0008-0.05538,1.9918,0.40544,4.6094,0.11145,0.58992-0.34937-2.5076-2.4515-3.7974-2.1758-1.273-3.4477-1.9185-4.9232-4.3884-1.9171-3.1532-2.1574-6.3054-2.5066-7.9467l0.8103-0.46093z"/>
<path d="m95.247,96.52c-0.59061,1.4201-1.2358,2.3968-1.7518,2.7656-1.3459,1.0507-0.99467,1.0518-2.931,2.1022-1.9174,1.05-3.3923,3.2637-2.8574,8.1304,0,0,0.10973,2.2129,0.70022,4.204,0.11007,0.58878-0.40543-2.508,1.5856-3.9824,1.9725-1.512,3.1525-2.3419,4.3697-4.9035,1.5296-3.394,1.4198-6.5459,1.641-8.2418l-0.75629-0.0743z"/>
<path d="m79.816,85.587c0,1.6967-0.93997,3.6881,1.5674,5.9735,1.2901,1.1065,1.4747,0.22186,3.0979,1.5674,1.2901,1.1237,3.1704,2.5258,3.0418,7.781,0,0-0.29513,1.6405,0.12865,4.2211,0.05607,0.57134-0.77383-3.17-2.931-4.4426-1.1061-0.64564-2.3412-1.4755-4.2033-3.8718-2.6928-3.2635-1.3469-9.6983-1.2361-10.878l0.53477-0.35086z"/>
<path d="m95.892,89.034c-0.53385,1.7702-1.0507,2.2869-2.636,3.2815-1.4004,0.94032-1.4565,0.94066-2.6362,1.697-1.512,0.94032-3.2643,2.4516-3.2083,7.7806,0,0,0.11076,1.3454,0.18403,4.0368,0,0.57191,0.40624-3.0414,2.5633-4.2769,1.1797-0.6445,2.7471-1.2162,4.3323-3.7421,2.0464-3.209,1.8621-7.1914,1.9174-8.0014l-0.51654-0.77555z"/>
<path d="m81.439,73.142c-0.05572,2.1015-0.92174,8.1868,1.5855,10.933,1.1804,1.2161,1.5853,0.9957,2.9872,2.4522,1.2161,1.2344,1.8056,1.5856,1.6399,7.4305,0-0.000344-0.29548,1.7513-0.12865,4.443,0,0.64519-0.29513-3.0421-2.2686-4.5541-1.9904-1.5312-2.2298-1.9914-3.5208-4.0368-1.512-2.2325-0.99581-15.562-1.0512-16.206l0.75675-0.46162z"/>
<path d="m95.008,84.131c-1.2729,1.9911-2.3973,2.4519-2.8582,2.7467-1.1063,0.69954-2.2864,1.0507-3.1524,2.2865-0.99536,1.4008-1.2355,0.64553-1.5856,6.5447,0-0.000344,0.35017,1.1065,0,3.7421-0.05607,0.64553,0.46093-3.6871,2.5813-5.0322,2.1022-1.3466,3.6838-1.7332,4.6245-3.6506,0.70057-1.4747,0.99983-5.3532,0.99536-5.4379l-0.60494-1.1993z"/>
<path d="m94.532,75.532c-1.1559,2.9033-1.3311,4.0452-2.5669,5.3171-0.86602,0.88425-1.8065,0.8299-2.7471,1.9353-1.1065,1.3469-0.64553-0.46093-1.2721,5.3837,0-0.000688-0.12934,2.1579-0.29513,4.1479-0.05538,0.59049-0.29548-2.2119,2.748-4.3873,1.0504-0.81167,3.4477-1.586,4.1479-3.4484,0.51631-0.95889,0.65723-6.6478,0.66594-6.8658l-0.68062-2.0826z"/>
<path d="m88.408,83.725s0.23975-1.5848-0.18472-2.8017c-0.16614-0.47985-1.2494-1.6024-1.7653-2.0086,0.54498-2.8284,3.5271-2.9678,4.2358-5.3662,0.276-1.107,3.318-18.068,3.318-18.068l0.88563-0.64553s-3.1536,17.883-3.2819,18.419c-0.45072,2.1702,1.8583,3.72,1.4338,5.8141-0.01823,0.12578-0.84435,1.9662-1.8951,2.3716-0.8846,0.40486-2.1014,1.3452-2.7467,2.2855z"/>
<path d="m83.429,63.886c-0.05469,3.1715-0.29513,10.178,0.53477,13.055,0.46093,1.5659,1.696,0.99455,3.0975,2.5069,1.1612,1.3448,1.9912,1.3455,1.0504,6.6188,0.0092,0.19939-0.35005,2.3972-0.40475,5.494,0,0.59026-0.18472-3.7977-1.0518-4.5723-1.5292-1.2176-4.1479-2.3226-4.0922-4.9592,0.1658-10.123,0.46082-17.017,0.35005-17.718l0.51597-0.42516z"/>
<path d="m80.387,109.87c0.47904,0.86602,1.9364,2.6187,2.5812,3.1536,1.3459,0.99432,1.3459,0.81098,3.0429,1.991,1.935,1.2158,3.2814,1.4012,3.7424,7.0057,0,0-0.05504-0.11076,0.58946,2.5266,0.1658,0.57089-0.6445-2.2872-2.2312-3.0436-2.2126-1.18-3.687-2.1743-5.6784-4.1478-1.2719-1.3452-1.6221-4.3319-2.5624-6.3233l0.51597-1.1622z"/>
<path d="m81.567,116.23c0.46081,0.88562,1.6966,2.1764,2.3972,2.6376,1.4016,0.88425,1.4016,1.2908,3.2633,2.1568,0.77464,0.34948,2.8764,1.124,3.9828,6.2133,0-0.00034,0-0.12968,0.83002,2.4523,0.22037,0.51516-0.12968-1.5853-2.3973-2.4523-2.9314-1.1804-4.7381-2.2865-5.9181-3.9828-1.5674-2.2855-1.9917-3.5763-2.6921-5.4938l0.5342-1.5312z"/>
<path d="m79.226,103.49c0.88459,2.1568,2.1569,2.508,2.8017,3.0425,1.3469,0.99467,1.2358,0.64553,2.9317,1.8617,1.4009,0.9957,3.3373,2.2312,3.6878,7.5416,0-0.001,0,0.2941,0.57123,2.8753,0.12899,0.58947-0.35005-2.3409-2.4522-3.4477-2.1569-1.1242-3.6321-1.9907-5.3834-4.3322-2.268-3.1532-2.3973-6.1396-2.5631-6.785l0.40624-0.75629z"/>
<path d="m85.771,131.62c-0.4052-0.0736-0.7564-0.23907-1.2172-0.71891,0,0-1.0683-1.3268-0.58958-3.2622,0,0,1.1061,2.1008,2.0472,2.8571,0.64725,0.79344,1.1015,0.88665,2.1122,1.0318,0,0-2.1122,0.14826-2.3527,0.0922z"/>
<path d="m104.67,118.92c-0.12887,1.0507-0.53442,2.1025-1.6409,2.9324-1.2905,0.93895-1.7513,1.3452-2.6362,2.8575-0.81213,1.5298-1.5674,1.2907-0.3512,4.7387,0,0,0.70125,2.2858,0.99673,3.3362,0.23941,0.59015-0.64553-1.9357,1.4555-3.2815,1.8808-1.1065,1.9365-0.92174,2.6931-2.9678,0.64519-1.8813,0.45841-3.3748,0.23769-6.6563l-0.75469-0.95924z"/>
<path d="m90.16,119.62c0.46013,0.8847,1.8803,1.6406,2.5805,2.1015,1.3459,0.99501,1.8067,1.1801,3.613,2.0654,0.77498,0.34948,2.0472,0.11076,3.7989,5.7892,0,0,0.18472,0.57157,0.88494,3.2076,0.18437,0.59015-1.4019-2.3966-3.6877-3.3923-2.8582-1.2354-4.2181-1.5635-5.3435-3.3155-1.5112-2.3409-1.146-2.6584-2.4368-4.8152l0.59061-1.6406z"/>
<path d="m105.78,124.14c-0.0561,0.97781-0.53477,3.3197-1.5116,4.1486-1.2908,1.0507-1.6409,0.81133-2.4712,1.752-0.64553,0.70034-1.1065,1.2354-0.22187,4.7382,0,0,0.3512,1.2172,0.86717,2.7473,0.23929,0.58958-1.1612-2.1022,1.0511-3.2262,0.88459-0.51688,1.7516-1.5126,2.0461-2.398,0.47973-1.8621,0.77486-2.6727,0.42469-6.01l-0.18437-1.752z"/>
<path d="m91.265,125.01c0.59061,1.2351,1.8242,2.397,2.5256,2.8768,1.3459,0.97598,1.1615,0.46082,3.0425,1.2718,0.92174,0.47882,4.4981,2.3409,4.8492,5.7339,0,0-0.0557,0.12968,0.75538,2.6366,0.18506,0.58958-1.2908-1.752-3.6135-2.6916-2.9321-1.1629-4.0371-1.2348-5.2179-2.9325-1.5662-2.2675-1.8628-2.9118-2.563-5.5484l0.22175-1.3466z"/>
<path d="m88.112,100.15c0.20088,2.2291,3.2844,3.5482,4.9775,4.6284,1.2733,0.80996,2.7481-0.18402,3.3194,7.5416,0,0-0.16568,0.16533,0.3684,2.801-0.07327-0.24044-0.18403-1.7507-2.3409-3.0414-2.1758-1.2172-3.6323-2.1022-5.2179-4.4988-2.2129-3.2272-2.2129-6.2497-2.3411-6.8949l1.2346-0.53592z"/>
<path d="m89.108,112.73c0.53488,0.93963,1.696,2.2308,2.3416,2.7474,1.3459,0.93928,1.3459,1.4012,3.2072,2.2862,0.77452,0.40486,3.1718,1.4016,3.9831,6.4895,0,0,0,0.4059,0.70034,2.9871,0.18426,0.51482-0.35017-2.2305-2.6364-3.2265-2.802-1.2179-4.7721-2.4522-6.3142-4.1482-1.2755-2.3605-1.2267-3.2325-1.8723-5.6226l0.59049-1.5127z"/>
<path d="m104.37,111.84c0,0.99638-0.88459,2.7659-1.6964,3.5219-1.235,1.1065-1.9353,0.99616-3.1525,2.6181-0.53442,0.64553-2.4704,2.8767-0.53442,7.3204,0,0-0.05504,0.40521,0.58946,2.1011,0.11179,0.34902-0.34902-0.11076-0.05504-1.1615,0.05504-0.23975,1.1615-2.1025,1.6224-2.637,1.3458-1.6409,3.2265-2.3962,3.4658-4.4422,0.27725-2.7485,0.27725-3.9828,0.16683-5.9742l-0.40612-1.3466z"/>
<path d="m88.297,106.13c0.46093,0.92209,1.3462,2.1586,2.268,3.0985,1.179,1.1608,1.4009,1.2162,3.0418,2.4513,1.8803,1.3459,3.0975,0.81201,3.522,6.2511,0,0,0.1658,0.58947,0.75526,3.2265,0.11179,0.5702-0.88494-2.0471-2.3969-2.9317-2.2305-1.2169-3.6309-2.2122-5.4937-4.388-1.2355-1.3462-1.4755-4.3147-2.3419-6.3065l0.64553-1.4012z"/>
<path d="m96.261,111.11s-0.18437-2.452,0.22038-3.742c0.36874-0.81248,1.6845-2.854,3.4151-3.6905,0-2.8512-3.9265-5.3764-3.9265-7.4501,0-0.4052,0.70068-8.8861,1.8071-12.039l-0.94135-0.64588s-1.5113,5.384-1.8622,12.924c-0.05538,0.59061-0.82921,1.3469-1.1804,1.9917-0.40509,0.58992-1.9812,3.2115-1.5789,5.6991,0-0.00034,2.6998,2.0493,2.9402,2.4544,0.40509,0.86533,0.62661,0.99535,1.1065,4.4981z"/>
<path d="m103.89,99.912c0,3.1602-5.656,3.4305-7.2016,6.2344-0.5092,0.92312-0.65321,2.4375-0.3942,6.285,0,0,0.53477,3.577,0.88494,5.089,0.05469,0.34937-0.23941-1.4566,0.16614-3.0983,0.67534-3.2223,3.443-4.7517,5.3836-7.0246,0.29479-0.2769,2.3966-3.5026,1.9919-6.3054l-0.83071-1.1801z"/>
<path d="m104.19,104.84c-0.92174,1.8063-1.1612,2.2857-1.6964,2.8578-1.1064,1.0511-1.6223,1.5855-2.2678,2.1761-0.93963,0.99467-3.9264,3.6684-2.9868,8.2408,0,0,0.46116,2.6366,0.86705,3.9085,0.12968,0.29444,0.07361-1.0504,0.36897-2.2676,0.1658-0.77487,1.5664-2.5805,1.8068-2.7463,2.3419-1.4759,2.2118-1.4759,3.2079-2.8774,1.5852-2.2119,1.0511-6.5448,1.18-8.2408l-0.47973-1.0511z"/>
</g>
<use xlink:href="#wheat" transform="matrix(-1,0,0,1,310.38346,0)"/>
<g fill="#e32303" stroke="#bf994c" stroke-width="1.2">
<path fill="#fff" d="m119.86,136.34s-0.70022-1.4558-1.4563-3.3187c-0.16614-0.53408-0.16614-2.5812-1.7516-3.0968-1.5852-0.53477-8.2919-1.9423-15.782-0.29536-3.1154,0.46047-10.617,2.3205-14.065,2.2097-0.64415-0.0743-2.14-0.69713-2.2518-0.93757l2.802,6.6188c1.7523,0.59026,5.3101,0.88494,8.9978,0.0554,3.7432-0.81098,8.4812-1.6956,11.302-1.936,4.7205-0.27621,9.2375,0.12934,12.205,0.70057z"/>
<path d="m122.44,142.38c-2.9324-0.64519-7.3746-0.86957-12.169-0.59302-2.8024,0.23976-7.5406,1.1801-11.228,1.9921-3.6874,0.77315-7.1757,0.33503-8.8716-0.25443l2.4915,6.6321c0.25408,0.45875,1.1811,2.6369,7.8545,0.64587,8.592-2.5076,16.373-3.2811,23.434-2.6356,1.5852,0.183,2.4716,0.93963,2.4716,0.93963s-1.2747-1.7906-1.5694-2.4912c-1.117-1.7513-2.3377-3.7785-2.4138-4.2355z"/>
<path fill="#00923f" d="m120.82,138.72c0.64794,1.731,1.909,3.7473,1.909,3.7473-2.9317-0.64599-7.6652-0.96073-12.459-0.68417-2.8024,0.23975-7.5406,1.1801-11.228,1.9921-3.6874,0.77314-7.1024,0.58957-8.7984,0l-2.652-6.22c1.7518,0.5898,5.0192,0.84813,8.7619,0.0186,3.6871-0.81098,8.4262-1.6956,11.229-1.936,4.7941-0.27621,9.3111,0.12934,12.224,0.70126,0-0.00069,0.4826,1.5645,1.0182,2.3753z"/>
<path d="m119.51,147.99s6.3794-0.0537,6.9146,1.1075c0.46082,0.81064,0.16534,3.7981-0.47984,5.5498,0,0-2.0468-2.0471-6.4348-6.6573z"/>
<path d="m190.86,147.99s-6.3787-0.0537-6.9504,1.1075c-0.40509,0.81064-0.12933,3.7981,0.51631,5.5498,0,0,2.0468-2.0471,6.4341-6.6573z"/>
<path d="m99.231,160.44s8.5359,3.8724,19.93-1.8063c11.579-5.6792,20.41-10.066,29.316-7.2461,0-0.00034-0.1846,11.229,2.507,19.286,0-0.001-9.2922-3.3929-16.556,1.3459-7.3011,4.7924-10.989,7.135-17.663,7.0232,0,0-2.507-5.1429-6.1947-8.5905-2.5631-2.3983-5.9561-4.3333-11.338-10.012z"/>
<path d="m99.635,154.43c0-0.001,2.7478,3.3184,6.7296,7.2451,0-0.001-3.9818-0.0365-7.0796-1.2719-1.0802-0.44339-0.38204-4.4542,0.35005-5.9732z"/>
<path d="m150.98,170.67c0.46093,0.42378,1.3459,4.867-4.0925,3.522-6.1954-1.641-7.5966,0.64484-7.3201,1.6959l-0.75629-5.7341s2.1025-0.58923,4.2226-0.6453c3.6134-0.0554,7.5962,0.9957,7.9463,1.1615z"/>
<path d="m155.19,177.35c1.05,0,1.4749,0.0567,2.5813,0.1854,0.99455,0.1103,5.4943,1.623,7.3011,1.8067,4.9775,0.34937,5.623-2.2858,5.7331-3.4477,0.12934-1.6412-1.6959-2.1754-2.8581-2.2312-0.69999-0.11041-1.8247,0-2.9857,0.18437-0.58958,0.11076-1.7521,0.35086-2.4527,0.46093-1.9364,0.3504-2.931-0.40486-3.2262-1.0504-0.22187-0.46093-0.46128-1.1065,0-2.3963,1.5848-4.2043,2.2305-10.989,2.2305-10.989-1.8067-0.88505-5.7342-0.88425-6.3233-0.88425-0.57238-0.0008-4.4991,0-6.3061,0.88425,0,0,0.64553,6.7855,2.1582,10.989,0.5334,1.2895,0.29411,1.9353,0.0547,2.3963-0.29514,0.64553-1.2908,1.4011-3.2083,1.0504-0.70022-0.11007-1.881-0.35017-2.4527-0.46093-1.1801-0.18437-2.2854-0.29398-2.9868-0.18437-1.1794,0.0557-2.9864,0.59061-2.8756,2.2312,0.12899,1.1612,0.77452,3.7977,5.7338,3.4477,1.826-0.18437,6.3233-1.6959,7.3197-1.8067,1.1061-0.0743,1.6414-0.18437,2.5631-0.1854z"/>
<path d="m211.16,160.44s-8.5362,3.8724-19.949-1.8063c-11.578-5.6792-20.41-10.066-29.296-7.2461,0-0.00034,0.18426,11.229-2.5084,19.286,0-0.001,9.2925-3.3929,16.539,1.3459,7.3201,4.7924,11.007,7.135,17.662,7.0232,0,0,2.5259-5.1429,6.195-8.5905,2.5813-2.3983,5.9738-4.3333,11.358-10.012z"/>
<path d="m211.51,158.17c-0.24044-1.2351-0.40624-3.0418-0.75629-3.742,0.00069-0.001-2.7464,3.3184-6.7292,7.2451,0-0.001,3.9828,0,7.0793-1.2354,0.40624-0.16683,0.517-1.4558,0.40624-2.2676z"/>
<path d="m159.41,170.67c-0.47847,0.42378-1.3455,4.867,4.0939,3.522,6.1943-1.641,7.5963,0.64484,7.3004,1.6959l0.75698-5.7341s-2.1022-0.58923-4.2047-0.6453c-3.6312-0.0554-7.6512,0.9957-7.9467,1.1615z"/>
<path fill="#fff" d="m190.58,136.2s0.70022-1.4558,1.4563-3.3187c0.16614-0.53408,0.16614-2.5812,1.7516-3.0967,1.5852-0.53489,8.2919-1.9424,15.782-0.29548,3.1154,0.46047,10.617,2.3205,14.065,2.2097,0.64416-0.0743,2.14-0.69713,2.2518-0.93745l-2.802,6.6187c-1.7523,0.59026-5.3101,0.88494-8.9978,0.0554-3.7432-0.81098-8.4812-1.6956-11.302-1.936-4.7205-0.27621-9.2375,0.12934-12.205,0.70057z"/>
<path d="m187.99,142.23c2.9324-0.64519,7.3746-0.86957,12.169-0.59302,2.8024,0.23976,7.5406,1.1801,11.228,1.9921,3.6874,0.77315,7.1757,0.33515,8.8716-0.25443l-2.4915,6.6321c-0.25408,0.45875-1.1811,2.6369-7.8545,0.64587-8.592-2.5076-16.373-3.2811-23.434-2.6356-1.5852,0.183-2.4716,0.93963-2.4716,0.93963s1.2747-1.7906,1.5694-2.4912c1.117-1.7513,2.3377-3.7785,2.4138-4.2355z"/>
<path fill="#00923f" d="m189.61,138.57c-0.64794,1.731-1.909,3.7473-1.909,3.7473,2.9317-0.64599,7.6652-0.96073,12.459-0.68417,2.8024,0.23975,7.5406,1.1801,11.228,1.9921,3.6874,0.77314,7.1024,0.58957,8.7984,0l2.656-6.2143c-1.7516,0.58992-5.0192,0.84813-8.7619,0.0186-3.6871-0.81098-8.4262-1.6956-11.229-1.936-4.7941-0.27621-9.3111,0.12934-12.224,0.70126,0-0.00069-0.4826,1.5645-1.0182,2.3753z"/>
</g>
<g fill="#bf994c">
<path d="m119.75,162.78c-0.64553,2.3973-1.442,6.3284-0.28125,8.7812,1.1257,2.3416,3.3364,3.3316,5.4375,2.2812,1.7516-0.82887,2.7382-3.1556,1.6875-5.3125-0.93997-1.9907-2.8072-3.011-4.6875-2.125-0.4052,0.23975-0.82309,0.52426-1.0625,0.875h-0.0312c0.24044-1.512,0.57676-3.0249,1.0938-4.5h-2.1562zm3.2188,5.375c0.72686-0.0389,1.4672,0.36734,1.8125,1.1562,0.51631,1.0696,0.11602,2.3125-0.75,2.7188-0.9957,0.47836-2.108-0.0118-2.625-1.0625-0.46082-1.0504-0.13303-2.1651,0.84375-2.625,0.22115-0.11976,0.47646-0.17452,0.71875-0.1875z"/>
<path d="m130.97,157.22c-0.43441,0.0302-0.871,0.15146-1.2812,0.3125-1.8067,0.7016-2.866,2.2057-2,4.4375,0.42412,0.93963,1.364,1.6932,2.25,1.75-0.7016,0.93963-1.055,2.0015-0.59375,3.2188,0.93963,2.3416,2.9188,2.6934,4.7812,1.9375,1.7695-0.70126,3.2844-2.2884,2.3438-4.5-0.46127-1.2897-1.4635-2.0455-2.625-2.1562,0.70069-0.93963,0.76007-1.8317,0.28125-2.9375-0.56747-1.5766-1.853-2.153-3.1562-2.0625zm-0.0625,2.0938c0.5767-0.0579,1.1439,0.15218,1.4062,0.84375,0.29582,0.6453-0.24058,1.6346-0.8125,1.875-0.6453,0.23964-1.6737-0.17363-1.9688-0.875-0.29548-0.75491,0.1672-1.4797,0.8125-1.7188,0.17531-0.0691,0.37027-0.10569,0.5625-0.125zm1.3125,4.5625,0.34375,0c0.64484,0,1.7056,0.20846,2,1.0938,0.3512,0.81098-0.00031,1.5625-1.125,1.9688-0.86602,0.35051-1.8615,0.18541-2.1562-0.625-0.35051-0.88494,0.24127-1.8836,0.8125-2.3438l0.125-0.0937z"/>
<polygon transform="matrix(1.1465901,0,0,1.1465901,75.2661,12.372325)" points="54.411,127.92,57.932,124.04,59.154,134.35,57.514,134.75,56.646,127.51,55.166,128.88,55.166,128.88"/>
<polygon transform="matrix(1.1465901,0,0,1.1465901,75.2661,12.372325)" points="78.016,126.34,82.502,123.53,80.878,133.78,79.142,133.74,80.315,126.55,78.531,127.51,78.531,127.51"/>
<path d="m176.31,156c-1.5395,0.009-3.0375,0.91062-3.6875,2.625-0.71914,1.8067-0.12573,4.1422,1.625,4.8438,0.47974,0.12865,0.84456,0.2432,1.25,0.1875v0.0625c-0.9957,0.64449-2.106,1.1694-3.1562,1.5938l-0.90625,0.46875,1.4688,1.625,1.3438-0.75c2.1757-1.2354,4.6779-2.7643,5.5625-5.0312,0.81144-2.1022,0.0461-4.5888-2-5.3438-0.49794-0.20283-0.98685-0.28413-1.5-0.28125zm-0.0937,2c0.25261-0.0183,0.51865,0.006,0.78125,0.0937,0.9403,0.4255,1.4245,1.6041,1,2.6562-0.40521,1.0507-1.5042,1.5613-2.5,1.1562-0.9396-0.35051-1.4051-1.4816-1-2.5312,0.3039-0.8301,0.96091-1.3202,1.7188-1.375z"/>
<path d="M186,160.22,179.22,166l-0.34375,0.8125,3.8438,1.7188-1.2188,2.5625,1.875,0.71875,1.0938-2.5,1.25,0.59375,1.1562-1.625-1.625-0.75,2.875-6.375-2.125-0.9375zm-0.6875,2.4375-1.8125,4.0938-1.75-0.78125,3.5625-3.3125z"/>
<path d="m194.19,163.66-6.3125,6.25-0.28125,0.84375,3.9062,1.4375-1,2.7188,1.9062,0.5,0.84375-2.5625,1.3438,0.53125,1-1.75-1.625-0.59375,2.375-6.5938-2.1562-0.78125zm-0.59375,2.5312,0.0625,0-1.5,4.125-1.8125-0.625,3.25-3.5z"/>
</g>
</g>
</svg>