<?xml version="1.0" encoding="UTF-8" standalone="no"?>
<!-- Created with Inkscape (http://www.inkscape.org/) -->
<svg
   xmlns:svg="http://www.w3.org/2000/svg"
   xmlns="http://www.w3.org/2000/svg"
   version="1.0"
   width="960"
   height="480"
   viewBox="-480 -240 960 480"
   id="svg2">
  <defs
     id="defs39" />
  <g
     id="g4">
    <rect
       width="960"
       height="480"
       x="-480"
       y="-240"
       style="fill:#ffffff;stroke:none"
       id="rect6" />
    <rect
       width="960"
       height="160"
       x="-480"
       y="-240"
       style="fill:#cc0000;stroke:none"
       id="rect8" />
    <rect
       width="960"
       height="160"
       x="-480"
       y="80"
       style="fill:#0038a8;stroke:none"
       id="rect10" />
    <circle
       cx="0"
       cy="0"
       r="68"
       style="fill:#cc0000;stroke:none"
       id="circle12" />
    <circle
       cx="0"
       cy="0"
       r="64"
       style="fill:#ffffff;stroke:none"
       id="circle14" />
    <circle
       cx="0"
       cy="0"
       r="60"
       style="fill:#0000cc;stroke:none"
       id="circle16" />
    <circle
       cx="0"
       cy="0"
       r="56"
       style="fill:#ffffff;stroke:none"
       id="circle18" />
    <path
       d="M -34.6,20 C -44.351,3.191 -40.61,-18.194 -25.732,-30.695 C -10.855,-43.196 10.855,-43.196 25.732,-30.695 C 40.61,-18.194 44.351,3.191 34.6,20"
       style="fill:none;stroke:none"
       id="pfad" />
    <path
       d="M -35.168,19.299 L -43.019,22.785 L -44.5,19.448 C -44.872,18.609 -45.072,17.968 -45.1,17.525 C -45.128,17.083 -45.012,16.667 -44.753,16.278 C -44.494,15.89 -44.132,15.592 -43.668,15.386 C -43.079,15.125 -42.516,15.082 -41.978,15.258 C -41.44,15.434 -40.969,15.844 -40.563,16.489 C -40.515,16.058 -40.421,15.677 -40.281,15.348 C -40.141,15.018 -39.85,14.529 -39.407,13.88 L -38.301,12.241 L -37.459,14.137 L -38.659,16.041 C -39.089,16.719 -39.35,17.169 -39.442,17.389 C -39.534,17.61 -39.573,17.817 -39.557,18.011 C -39.542,18.205 -39.453,18.484 -39.291,18.848 L -39.149,19.169 L -35.871,17.714 L -35.168,19.299 z M -40.402,19.725 L -40.923,18.553 C -41.26,17.792 -41.503,17.332 -41.651,17.171 C -41.8,17.01 -41.976,16.911 -42.181,16.874 C -42.385,16.836 -42.605,16.87 -42.841,16.975 C -43.105,17.092 -43.287,17.257 -43.387,17.47 C -43.487,17.683 -43.501,17.928 -43.43,18.204 C -43.391,18.341 -43.229,18.73 -42.943,19.373 L -42.394,20.61 L -40.402,19.725 z M -38.488,11.283 L -46.892,13.062 L -48.211,6.8313 L -46.789,6.5304 L -45.83,11.065 L -43.967,10.67 L -44.86,6.4513 L -43.444,6.1515 L -42.551,10.371 L -40.263,9.8863 L -41.257,5.1916 L -39.841,4.8918 L -38.488,11.283 z M -39.976,3.3957 L -48.566,3.463 L -48.588,0.67985 C -48.596,-0.3748 -48.558,-1.0626 -48.475,-1.3836 C -48.35,-1.8768 -48.073,-2.2911 -47.644,-2.6265 C -47.215,-2.9619 -46.658,-3.1322 -45.975,-3.1376 C -45.448,-3.1417 -45.003,-3.0495 -44.643,-2.8609 C -44.282,-2.6723 -43.998,-2.4314 -43.79,-2.1381 C -43.583,-1.8448 -43.445,-1.546 -43.376,-1.2419 C -43.291,-0.82847 -43.245,-0.2292 -43.239,0.55593 L -43.23,1.6868 L -39.99,1.6614 L -39.976,3.3957 z M -47.126,1.7173 L -44.689,1.6982 L -44.696,0.74899 C -44.702,0.065423 -44.75,-0.39124 -44.842,-0.621 C -44.934,-0.85076 -45.076,-1.0303 -45.268,-1.1597 C -45.46,-1.289 -45.684,-1.3527 -45.937,-1.3507 C -46.25,-1.3483 -46.507,-1.2545 -46.709,-1.0693 C -46.91,-0.88411 -47.036,-0.6507 -47.084,-0.36906 C -47.122,-0.16173 -47.138,0.25443 -47.133,0.87941 L -47.126,1.7173 z M -48.31,-6.3322 L -47.965,-8.0319 L -43.405,-7.1068 C -42.682,-6.9599 -42.209,-6.8858 -41.986,-6.8844 C -41.626,-6.8873 -41.315,-7.0044 -41.05,-7.2357 C -40.786,-7.4671 -40.606,-7.8202 -40.51,-8.2949 C -40.412,-8.7772 -40.437,-9.1609 -40.584,-9.4459 C -40.731,-9.7309 -40.944,-9.9275 -41.221,-10.035 C -41.498,-10.144 -41.969,-10.265 -42.635,-10.4 L -47.292,-11.345 L -46.947,-13.045 L -42.526,-12.148 C -41.515,-11.943 -40.811,-11.752 -40.412,-11.575 C -40.013,-11.399 -39.695,-11.158 -39.458,-10.853 C -39.221,-10.548 -39.06,-10.171 -38.973,-9.7229 C -38.887,-9.2749 -38.911,-8.7179 -39.046,-8.0518 C -39.209,-7.2478 -39.426,-6.657 -39.696,-6.2793 C -39.966,-5.9016 -40.274,-5.6223 -40.619,-5.4413 C -40.965,-5.2604 -41.308,-5.1646 -41.649,-5.1541 C -42.154,-5.1409 -42.877,-5.2299 -43.819,-5.421 L -48.31,-6.3322 z M -45.828,-16.591 L -44.439,-19.731 C -44.164,-20.352 -43.933,-20.804 -43.746,-21.087 C -43.559,-21.369 -43.33,-21.595 -43.059,-21.763 C -42.788,-21.932 -42.48,-22.036 -42.136,-22.076 C -41.791,-22.115 -41.449,-22.06 -41.11,-21.91 C -40.742,-21.747 -40.448,-21.499 -40.229,-21.165 C -40.009,-20.83 -39.898,-20.46 -39.895,-20.052 C -39.543,-20.469 -39.143,-20.732 -38.693,-20.841 C -38.244,-20.949 -37.792,-20.903 -37.339,-20.702 C -36.981,-20.544 -36.671,-20.308 -36.407,-19.992 C -36.143,-19.677 -35.973,-19.33 -35.899,-18.954 C -35.824,-18.577 -35.857,-18.167 -35.997,-17.725 C -36.085,-17.448 -36.35,-16.803 -36.79,-15.789 L -37.973,-13.115 L -45.828,-16.591 z M -43.819,-17.598 L -42.003,-16.795 L -41.543,-17.834 C -41.269,-18.452 -41.108,-18.84 -41.059,-18.998 C -40.971,-19.284 -40.971,-19.539 -41.057,-19.763 C -41.144,-19.987 -41.314,-20.155 -41.568,-20.267 C -41.811,-20.375 -42.038,-20.395 -42.249,-20.328 C -42.46,-20.262 -42.64,-20.103 -42.789,-19.853 C -42.877,-19.704 -43.085,-19.256 -43.416,-18.509 L -43.819,-17.598 z M -40.695,-16.216 L -38.595,-15.287 L -37.945,-16.755 C -37.692,-17.326 -37.548,-17.696 -37.512,-17.864 C -37.45,-18.118 -37.47,-18.357 -37.57,-18.578 C -37.671,-18.8 -37.861,-18.973 -38.139,-19.096 C -38.375,-19.2 -38.6,-19.232 -38.815,-19.19 C -39.03,-19.149 -39.223,-19.036 -39.393,-18.853 C -39.564,-18.67 -39.809,-18.218 -40.128,-17.497 L -40.695,-16.216 z M -34.216,-20.982 L -41.163,-25.914 L -40.159,-27.328 L -34.392,-23.234 L -31.896,-26.75 L -30.716,-25.913 L -34.216,-20.982 z M -29.833,-26.734 L -36.111,-32.597 L -34.928,-33.864 L -28.649,-28.002 L -29.833,-26.734 z M -25.22,-35.153 L -23.571,-35.781 C -23.19,-34.886 -23.093,-34.074 -23.28,-33.345 C -23.468,-32.616 -23.922,-31.965 -24.644,-31.392 C -25.538,-30.683 -26.515,-30.406 -27.574,-30.56 C -28.634,-30.714 -29.584,-31.321 -30.424,-32.38 C -31.312,-33.5 -31.713,-34.599 -31.626,-35.678 C -31.539,-36.756 -31.024,-37.669 -30.082,-38.417 C -29.258,-39.07 -28.397,-39.357 -27.496,-39.278 C -26.962,-39.233 -26.405,-39.002 -25.825,-38.585 L -26.915,-37.197 C -27.271,-37.482 -27.656,-37.626 -28.068,-37.628 C -28.481,-37.63 -28.868,-37.487 -29.229,-37.201 C -29.728,-36.805 -29.991,-36.305 -30.018,-35.701 C -30.044,-35.096 -29.739,-34.393 -29.104,-33.591 C -28.429,-32.74 -27.795,-32.256 -27.203,-32.137 C -26.61,-32.019 -26.069,-32.154 -25.579,-32.542 C -25.218,-32.829 -24.999,-33.19 -24.921,-33.626 C -24.842,-34.062 -24.942,-34.571 -25.22,-35.153 L -25.22,-35.153 z M -13.679,-37.909 L -15.375,-37.082 L -16.904,-38.507 L -19.991,-37.001 L -19.772,-34.937 L -21.426,-34.13 L -22.185,-43.317 L -20.536,-44.121 L -13.679,-37.909 z M -18.039,-39.563 L -20.5,-41.909 L -20.146,-38.536 L -18.039,-39.563 z M -10.858,-47.562 L -7.7252,-48.045 C -7.0187,-48.154 -6.4718,-48.184 -6.0845,-48.133 C -5.5639,-48.063 -5.0971,-47.868 -4.6841,-47.548 C -4.2711,-47.229 -3.9301,-46.812 -3.6611,-46.298 C -3.3921,-45.784 -3.1962,-45.13 -3.0734,-44.335 C -2.9655,-43.636 -2.9594,-43.02 -3.0551,-42.488 C -3.1721,-41.837 -3.398,-41.291 -3.7327,-40.848 C -3.9853,-40.512 -4.3519,-40.224 -4.8326,-39.984 C -5.1925,-39.806 -5.689,-39.668 -6.3221,-39.57 L -9.5476,-39.072 L -10.858,-47.562 z M -8.9223,-46.39 L -8.0543,-40.767 L -6.7745,-40.965 C -6.2958,-41.039 -5.9545,-41.119 -5.7505,-41.206 C -5.4833,-41.318 -5.2708,-41.472 -5.113,-41.666 C -4.9553,-41.86 -4.8478,-42.157 -4.7907,-42.555 C -4.7336,-42.953 -4.7557,-43.48 -4.857,-44.136 C -4.9583,-44.793 -5.094,-45.288 -5.264,-45.621 C -5.4341,-45.954 -5.6385,-46.203 -5.8774,-46.368 C -6.1162,-46.533 -6.4013,-46.625 -6.7324,-46.645 C -6.9801,-46.662 -7.4533,-46.617 -8.1521,-46.509 L -8.9223,-46.39 z M -0.9307,-40.182 L -0.46003,-48.759 L 5.8995,-48.41 L 5.8199,-46.959 L 1.1921,-47.213 L 1.0878,-45.312 L 5.3938,-45.076 L 5.3145,-43.63 L 1.0085,-43.867 L 0.88037,-41.532 L 5.672,-41.269 L 5.5927,-39.824 L -0.9307,-40.182 z M 7.1118,-39.532 L 9.1901,-47.794 L 10.872,-47.371 L 9.1468,-40.512 L 13.329,-39.46 L 12.976,-38.057 L 7.1118,-39.532 z M 17.229,-36.312 L 21.516,-43.756 L 23.927,-42.367 C 24.841,-41.841 25.416,-41.46 25.65,-41.226 C 26.013,-40.869 26.23,-40.42 26.302,-39.88 C 26.375,-39.341 26.24,-38.775 25.899,-38.182 C 25.636,-37.725 25.332,-37.389 24.986,-37.173 C 24.641,-36.957 24.29,-36.834 23.932,-36.803 C 23.574,-36.773 23.246,-36.805 22.949,-36.899 C 22.549,-37.035 22.009,-37.298 21.329,-37.69 L 20.349,-38.255 L 18.732,-35.447 L 17.229,-36.312 z M 22.293,-41.631 L 21.077,-39.519 L 21.9,-39.045 C 22.492,-38.704 22.91,-38.515 23.155,-38.478 C 23.4,-38.441 23.626,-38.472 23.835,-38.573 C 24.044,-38.673 24.212,-38.834 24.339,-39.054 C 24.495,-39.325 24.544,-39.594 24.486,-39.861 C 24.428,-40.129 24.29,-40.355 24.072,-40.539 C 23.912,-40.677 23.561,-40.901 23.019,-41.213 L 22.293,-41.631 z M 29.882,-27.006 L 28.477,-28.264 L 29.22,-30.218 L 26.662,-32.509 L 24.832,-31.528 L 23.462,-32.756 L 31.685,-36.923 L 33.051,-35.699 L 29.882,-27.006 z M 29.771,-31.668 L 31.016,-34.832 L 28.025,-33.231 L 29.771,-31.668 z M 30.46,-26.234 L 37.433,-31.25 L 39.564,-28.287 C 40.101,-27.542 40.428,-26.956 40.545,-26.528 C 40.663,-26.1 40.635,-25.669 40.46,-25.236 C 40.286,-24.803 39.993,-24.438 39.581,-24.141 C 39.058,-23.765 38.515,-23.608 37.953,-23.67 C 37.391,-23.732 36.845,-24.038 36.316,-24.586 C 36.357,-24.153 36.343,-23.762 36.273,-23.411 C 36.203,-23.06 36.018,-22.521 35.718,-21.795 L 34.97,-19.965 L 33.759,-21.649 L 34.544,-23.758 C 34.826,-24.51 34.99,-25.003 35.035,-25.237 C 35.08,-25.472 35.075,-25.683 35.02,-25.87 C 34.965,-26.056 34.822,-26.311 34.589,-26.635 L 34.384,-26.92 L 31.473,-24.826 L 30.46,-26.234 z M 35.497,-27.721 L 36.246,-26.679 C 36.732,-26.004 37.064,-25.603 37.242,-25.476 C 37.42,-25.349 37.613,-25.288 37.821,-25.293 C 38.029,-25.298 38.237,-25.376 38.447,-25.527 C 38.681,-25.696 38.826,-25.895 38.88,-26.124 C 38.934,-26.353 38.898,-26.595 38.772,-26.851 C 38.706,-26.976 38.467,-27.324 38.056,-27.895 L 37.266,-28.994 L 35.497,-27.721 z M 38.433,-11.96 L 37.688,-13.693 L 39.184,-15.153 L 37.827,-18.307 L 35.754,-18.187 L 35.027,-19.878 L 44.24,-20.198 L 44.965,-18.514 L 38.433,-11.96 z M 40.293,-16.236 L 42.754,-18.583 L 39.367,-18.389 L 40.293,-16.236 z M 42.485,-7.6669 L 43.908,-7.9284 L 44.584,-4.2516 L 41.218,-3.6334 C 40.807,-3.9273 40.407,-4.389 40.019,-5.0188 C 39.632,-5.6486 39.374,-6.3112 39.246,-7.0066 C 39.084,-7.8902 39.128,-8.6946 39.378,-9.4196 C 39.628,-10.145 40.068,-10.736 40.697,-11.193 C 41.325,-11.65 42.045,-11.953 42.856,-12.102 C 43.736,-12.263 44.551,-12.223 45.303,-11.979 C 46.055,-11.736 46.678,-11.293 47.174,-10.649 C 47.554,-10.159 47.818,-9.5103 47.966,-8.7035 C 48.159,-7.6546 48.089,-6.7949 47.758,-6.1243 C 47.426,-5.4538 46.888,-4.9627 46.143,-4.6511 L 45.515,-6.2872 C 45.908,-6.4826 46.194,-6.7665 46.374,-7.1391 C 46.554,-7.5117 46.598,-7.9439 46.508,-8.4357 C 46.371,-9.181 46.026,-9.7302 45.473,-10.083 C 44.919,-10.436 44.178,-10.528 43.248,-10.357 C 42.245,-10.173 41.534,-9.8117 41.114,-9.2739 C 40.695,-8.7362 40.552,-8.1061 40.684,-7.3838 C 40.75,-7.0265 40.886,-6.6812 41.092,-6.3477 C 41.298,-6.0142 41.525,-5.7371 41.772,-5.5164 L 42.844,-5.7133 L 42.485,-7.6669 z M 48.696,-1.442 L 48.622,0.2908 L 43.974,0.091505 C 43.236,0.059876 42.757,0.060842 42.537,0.094403 C 42.182,0.15349 41.893,0.318 41.668,0.58792 C 41.444,0.85784 41.321,1.2348 41.3,1.7187 C 41.279,2.2104 41.364,2.5855 41.554,2.8439 C 41.744,3.1023 41.985,3.2631 42.275,3.3264 C 42.566,3.3897 43.05,3.4359 43.729,3.465 L 48.477,3.6686 L 48.403,5.4013 L 43.895,5.2081 C 42.865,5.1639 42.139,5.0858 41.718,4.9739 C 41.296,4.862 40.945,4.6739 40.663,4.4097 C 40.381,4.1454 40.162,3.7988 40.007,3.3699 C 39.851,2.9409 39.788,2.3869 39.817,1.7079 C 39.852,0.88832 39.973,0.27087 40.181,-0.14445 C 40.388,-0.55977 40.648,-0.88388 40.961,-1.1168 C 41.274,-1.3497 41.598,-1.498 41.933,-1.5619 C 42.43,-1.654 43.158,-1.6794 44.118,-1.6383 L 48.696,-1.442 z M 37.557,14.356 L 38.043,12.533 L 40.121,12.31 L 41.005,8.9925 L 39.302,7.8053 L 39.776,6.0274 L 47.215,11.471 L 46.743,13.243 L 37.557,14.356 z M 41.663,12.145 L 45.048,11.822 L 42.266,9.8802 L 41.663,12.145 z M 36.085,17.214 L 39.309,18.848 L 45.169,18.292 L 44.25,20.105 L 40.304,20.371 L 42.44,23.674 L 41.536,25.457 L 38.517,20.385 L 35.303,18.755 L 36.085,17.214 z "
       style="font-size:12px;font-weight:bold;text-anchor:start;font-family:Arial, sans-serif"
       id="text21" />
    <g
       transform="translate(-38,-38)"
       id="g25">
      <path
         d="M 28.1,73.6 C 26.3,72.6 25.1,72.5 23.9,73.3 C 21.7,74.7 18.8,73.5 19.2,71.3 C 19.4,70.1 18.8,69.4 17.3,69.2 C 14.4,68.8 14.3,67.4 17.2,66.7 C 19.1,66.2 19.2,65.9 17.9,64.4 C 16.7,62.9 16.8,62.8 20,63.4 C 23.1,64 22.9,63.8 18.4,61.6 C 12.5,58.9 6.6,51.9 4.9,45.8 C 4.3,43.6 4.1,41.6 4.3,41.3 C 4.6,41.1 4.2,39.3 3.4,37.5 C 2,34 2.2,30.4 4.6,23.5 C 5.3,21.2 5.9,20.3 6,21.5 C 6.1,22.7 6.6,22 7.5,19.6 C 10,12.6 22.7,3.7 32.2,2.5 C 36.5,1.9 36.5,1.9 34,3.5 L 31.5,5.1 L 34.8,4.6 C 38.7,3.9 38.9,4.5 35.3,6.4 L 32.5,7.9 L 35.2,8 C 36.6,8 38.1,8.6 38.3,9.3 C 38.7,10 39.2,9.6 39.6,8.2 C 40,6.6 40.8,6 42,6.3 C 43.3,6.6 43.6,6.2 43.2,4.5 C 42.7,1.8 45.3,0.5 48.1,2.1 C 49.2,2.7 51,4.6 52.1,6.3 C 53.1,8.1 54,9 54,8.4 C 54,7.7 54.7,6.9 55.7,6.6 C 57.6,5.8 61.4,9 63,12.9 C 63.8,14.8 64.8,15.6 66.3,15.5 C 69.1,15.3 70,16.6 70,21.1 C 70,24.6 72,27.7 73.3,26.3 C 74.9,24.8 73.8,32.8 72.1,36.1 C 70.4,39.3 70.3,39.9 71.7,41.2 C 73,42.6 73,43.1 71.6,45.9 C 70.7,47.6 68.8,49.7 67.5,50.6 C 65.7,51.8 65,53 65.2,54.8 C 65.4,56.7 64.7,57.9 62.1,59.7 C 60.2,61 57.6,62 56.3,62 C 53.9,62 50.3,64.6 51.3,65.6 C 51.6,65.9 53.9,65.4 56.4,64.6 C 62.4,62.6 63.6,62.6 62,64.6 C 60.9,65.9 61,66.2 62.8,66.7 C 65.7,67.4 65.6,68.8 62.8,69.2 C 61.3,69.4 60.5,70.2 60.5,71.5 C 60.5,73.7 57.4,74.8 55.8,73.2 C 55.1,72.5 53.7,72.6 51.5,73.7 C 48.6,75.1 48,75.1 45.2,73.6 C 42.7,72.3 41.9,71.1 41.4,68 C 40.6,62.9 39.4,62.9 38.6,68 C 38.1,71 37.3,72.3 35,73.5 C 31.5,75.3 31.2,75.3 28.1,73.6 z M 34.6,70.3 C 34.3,69.9 34,70.5 34.1,71.6 C 34.1,72.7 34.4,73 34.7,72.2 C 35,71.5 34.9,70.6 34.6,70.3 z M 45.6,70.3 C 45.3,69.9 45,70.5 45.1,71.6 C 45.1,72.7 45.4,73 45.7,72.2 C 46,71.5 45.9,70.6 45.6,70.3 z M 31,71 C 31,70.5 30.2,70 29.3,70 C 27.8,70 27.7,70.2 29,71 C 30.9,72.2 31,72.2 31,71 z M 52,70.4 C 52,70.2 51.3,70 50.5,70 C 49.7,70 49,70.4 49,71 C 49,71.5 49.7,71.7 50.5,71.4 C 51.3,71 52,70.6 52,70.4 z M 23.2,67.3 C 22.5,67 21.6,67.1 21.3,67.4 C 20.9,67.7 21.5,68 22.6,67.9 C 23.7,67.9 24,67.6 23.2,67.3 z M 58.2,67.3 C 57.5,67 56.6,67.1 56.3,67.4 C 55.9,67.7 56.5,68 57.6,67.9 C 58.7,67.9 59,67.6 58.2,67.3 z M 29,65.2 C 29,64.8 27.8,64.3 26.3,64.2 C 24.1,64.1 23.9,64.2 25,65 C 26.8,66.2 29,66.3 29,65.2 z M 34,61 C 34,60.5 32.7,60 31,60 C 29.4,60 28,60.5 28,61 C 28,61.6 29.4,62 31,62 C 32.7,62 34,61.6 34,61 z M 52,61 C 52,60.5 50.7,60 49,60 C 47.4,60 46,60.5 46,61 C 46,61.6 47.4,62 49,62 C 50.7,62 52,61.6 52,61 z M 61,50.4 C 61,50.2 60.1,50.4 59,51 C 57.9,51.6 57,52.3 57,52.6 C 57,52.8 57.9,52.6 59,52 C 60.1,51.4 61,50.7 61,50.4 z M 71,30 C 71,29.5 70.5,29 69.9,29 C 69.4,29 69.2,29.5 69.5,30 C 70.3,31.3 71,31.3 71,30 z M 66,28.5 C 66,26.6 65.4,26.6 64.6,28.5 C 64.3,29.3 64.5,30 65,30 C 65.6,30 66,29.3 66,28.5 z M 38.7,12.8 C 38.4,12.1 38.2,12.6 38.2,14 C 38.2,15.4 38.4,15.9 38.7,15.3 C 38.9,14.6 38.9,13.4 38.7,12.8 z M 52.5,10.2 C 52.2,9.9 51.4,10.2 50.7,10.9 C 49.8,11.9 49.9,12 51.3,11.4 C 52.3,11.1 52.8,10.5 52.5,10.2 z "
         style="fill:#afb1a7"
         id="path27" />
      <path
         d="M 28.6,73.3 C 26.2,72.1 25.3,72 23.4,73.1 C 21.5,74.1 20.7,74.1 19.7,73.1 C 18.8,72.2 18.8,71.7 20,71 C 21.1,70.3 20.8,69.9 18.5,68.9 C 14.7,67.4 17,66.5 21,67.9 C 22.8,68.5 24.2,68.5 24.5,67.9 C 24.9,67.4 24.5,67 23.7,67 C 22.9,67 21.2,66.1 19.9,65 L 17.5,63 L 22.8,64.6 C 26.5,65.6 28.5,65.8 29.8,65.1 C 31.2,64.3 30.8,64.1 27.9,64 C 22.6,64 12.7,58.7 9.7,54.2 C 6.7,49.9 3.8,42 5.2,42 C 5.7,42 5.6,41.2 5,40.1 C 2.9,36 2,32.9 3.2,33.6 C 4,34.1 4.1,33.3 3.7,30.6 C 3.4,28.4 3.5,27.2 4.1,27.5 C 4.6,27.9 5,26.4 5.1,24.3 C 5.1,21.5 5.3,21 5.9,22.5 C 6.6,24.1 6.8,24 7.3,21.3 C 7.6,19.6 9.8,16.2 12.1,13.8 C 14.3,11.5 15.9,10.2 15.4,11 C 15,11.8 16.5,10.9 18.7,8.9 C 21.2,6.6 25,4.6 28.5,3.5 C 34.9,1.7 36.6,2.1 32.3,4.4 L 29.5,5.9 L 33,5.4 L 36.5,4.9 L 34,6.4 L 31.5,7.9 L 34.4,8 C 36.8,8 37,8.2 36,9.5 C 35.4,10.3 35,11.7 35.3,12.7 C 35.7,14.1 35.8,14 35.9,12.3 C 36.1,7.7 38,10.2 38.2,15.3 L 38.4,20.5 L 38.7,15.3 C 39.1,10.1 40.4,8.4 41.4,11.8 C 41.6,12.7 41.6,11.8 41.3,9.8 C 41,7.3 41.2,6 41.9,6 C 42.5,6 43,6.5 43,7 C 43,7.6 43.5,8 44,8 C 44.7,8 44.7,7.4 44,6.1 C 42.6,3.4 42.7,2.3 44.6,1.6 C 46.6,0.8 50.4,3.4 51.9,6.6 C 52.9,8.9 53.2,9 54.6,7.6 C 55.7,6.4 56.6,6.3 58,7 C 60.5,8.3 63,12 63,14.3 C 63,15.7 63.5,16 65.1,15.5 C 67.1,14.8 67.2,15.1 66.6,17.5 C 66.2,19.2 66.3,19.9 67,19.5 C 67.5,19.2 68,18.1 68,17.2 C 68.1,15.7 68.2,15.7 69.1,17.4 C 69.7,18.4 70,20.7 69.7,22.5 C 69.3,25.2 69.6,26 71.7,27.1 C 73.8,28.2 74.1,28.9 73.6,31.5 C 73.2,33.1 72.1,35.7 71,37.2 C 69.6,39.1 69.4,39.9 70.3,40.3 C 72,40.9 72.2,45.1 70.7,47 C 70,47.9 68.4,49.4 67,50.3 C 65.6,51.3 64.5,52.6 64.5,53.3 C 64.5,53.9 63.6,54.5 62.6,54.5 C 61.5,54.5 60.5,55.1 60.2,55.8 C 59.7,57.3 60.1,57.3 63.7,55.9 L 66.5,54.9 L 64,57.5 C 62.7,58.9 59.8,60.6 57.6,61.2 C 55.3,61.9 52.4,63 51.2,63.6 C 49,64.7 49,64.9 50.7,65.4 C 51.7,65.7 54.8,65.3 57.5,64.5 L 62.5,63 L 60.1,65 C 58.8,66.1 57.1,67 56.3,67 C 55.5,67 55.1,67.4 55.5,67.9 C 55.8,68.5 57.2,68.5 59,67.9 C 63,66.5 65.3,67.4 61.5,68.9 C 59.2,69.9 58.9,70.3 60,71 C 61.2,71.7 61.2,72.2 60.3,73.1 C 59.3,74.1 58.5,74.1 56.7,73.1 C 54.7,72 53.8,72.1 51.3,73.3 C 47.9,75.1 46.6,74.5 46.1,71 C 46,69.6 45.2,67.4 44.4,66 C 43.3,64.1 43,64 43.4,65.5 C 43.6,66.6 44.1,68.7 44.4,70.2 C 44.9,72.3 44.7,72.8 43.6,72.4 C 42.9,72.1 42,70.1 41.6,67.9 C 40.8,62.9 39.2,62.9 38.4,67.9 C 38,70.1 37.1,72.1 36.3,72.4 C 35.3,72.8 35,72.5 35.4,71.2 C 35.7,70.3 36.2,68.2 36.5,66.5 L 37.1,63.5 L 35.5,66.2 C 34.7,67.7 33.9,70 33.8,71.4 C 33.5,74.7 32.1,75.1 28.6,73.3 z M 30.7,70.3 C 29.8,69.4 28.8,68.9 28.4,69.2 C 27.4,70.2 29,72 30.8,72 C 32.3,72 32.3,71.9 30.7,70.3 z M 51.5,70.9 C 52.6,69.2 51.5,68.9 49.4,70.5 C 47.7,71.8 47.7,71.9 49.2,72 C 50.1,72 51.2,71.5 51.5,70.9 z M 36.5,61 C 35.7,59.7 27,59.7 27,61 C 27,61.6 29.3,62 32.1,62 C 35.2,62 36.9,61.6 36.5,61 z M 41,60.5 C 41,59.7 40.6,59 40,59 C 39.5,59 39,59.7 39,60.5 C 39,61.3 39.5,62 40,62 C 40.6,62 41,61.3 41,60.5 z M 53,61 C 53,59.7 44.3,59.7 43.5,61 C 43.1,61.6 44.8,62 47.9,62 C 50.7,62 53,61.6 53,61 z M 35.6,55.3 C 35.3,54.9 35,55.5 35.1,56.6 C 35.1,57.7 35.4,58 35.7,57.2 C 36,56.5 35.9,55.6 35.6,55.3 z M 38.7,53.3 C 38.4,52.3 38.2,53.1 38.2,55 C 38.2,56.9 38.4,57.7 38.7,56.8 C 38.9,55.8 38.9,54.2 38.7,53.3 z M 41.6,55.3 C 41.3,54.9 41,55.5 41.1,56.6 C 41.1,57.7 41.4,58 41.7,57.2 C 42,56.5 41.9,55.6 41.6,55.3 z M 47.1,55.3 C 45.9,53.3 45.7,53.9 46.6,56.5 C 47,57.4 47.5,57.9 47.7,57.6 C 48,57.4 47.7,56.3 47.1,55.3 z M 31.3,53.5 C 33.4,49 32.8,49 30.1,53.5 C 29,55.4 28.4,57 28.8,57 C 29.3,57 30.4,55.4 31.3,53.5 z M 50.6,55.4 C 49.7,54.6 49,53.4 49,52.8 C 49,52.2 48.7,51.9 48.4,52.2 C 47.6,53.1 49.8,57 51.1,57 C 51.7,57 51.4,56.3 50.6,55.4 z M 28.4,53.4 C 28.7,52.6 28.6,52.2 28,52.5 C 27.4,52.8 27,53.5 27,54.1 C 27,55.5 27.7,55.2 28.4,53.4 z M 43.6,52.3 C 43.3,51.9 43,52.5 43.1,53.6 C 43.1,54.7 43.4,55 43.7,54.2 C 44,53.5 43.9,52.6 43.6,52.3 z M 36.6,51.3 C 36.3,50.9 36,51.5 36.1,52.6 C 36.1,53.7 36.4,54 36.7,53.2 C 37,52.5 36.9,51.6 36.6,51.3 z M 27,50.5 C 28.3,49.1 29.1,48 28.8,48 C 28.6,48 27.3,49.1 26,50.5 C 24.7,51.9 23.9,53 24.2,53 C 24.4,53 25.7,51.9 27,50.5 z M 59.4,52.4 C 60.3,52.1 61,51.1 61,50.3 C 61,49.1 60.7,49 59.7,49.9 C 58.9,50.5 58,50.7 57.7,50.3 C 57.3,50 57,50.4 57,51.3 C 57,53.2 57.2,53.3 59.4,52.4 z M 24.5,49 C 25.5,47.9 26.1,47 25.8,47 C 25.5,47 24.5,47.9 23.5,49 C 22.5,50.1 21.9,51 22.2,51 C 22.5,51 23.5,50.1 24.5,49 z M 53,49.6 C 53,49.4 52.2,48.6 51.3,47.9 C 49.7,46.6 49.6,46.7 50.9,48.3 C 52.2,49.9 53,50.4 53,49.6 z M 54,47.7 C 54,47.5 53,46.5 51.8,45.4 L 49.5,43.5 L 51.4,45.8 C 53.2,47.9 54,48.5 54,47.7 z M 58,47.6 C 58,47.4 57.2,46.6 56.3,45.9 C 54.7,44.6 54.6,44.7 55.9,46.3 C 57.2,47.9 58,48.4 58,47.6 z M 69.9,43 C 68.3,41.9 67,42.6 67,44.6 C 67,45.8 67.4,45.9 69.1,44.9 C 70.8,44 71,43.6 69.9,43 z M 65.8,41.8 C 67.7,39.9 67.2,38.9 65,40.2 C 63,41.5 62.3,43 63.8,43 C 64.2,43 65.1,42.5 65.8,41.8 z M 19.5,40 C 20.8,39.4 21,39.1 20,39.1 C 19.2,39.1 17.8,39.5 17,40 C 15.2,41.2 16.8,41.2 19.5,40 z M 59.3,36.3 C 58.6,36.1 57.4,36.1 56.8,36.3 C 56.1,36.6 56.6,36.8 58,36.8 C 59.4,36.8 59.9,36.6 59.3,36.3 z M 22.3,34.3 C 21,34.1 19,34.1 17.8,34.3 C 16.5,34.5 17.5,34.7 20,34.7 C 22.5,34.7 23.5,34.5 22.3,34.3 z M 60.8,34.3 C 59.8,34.1 58.2,34.1 57.3,34.3 C 56.3,34.6 57.1,34.8 59,34.8 C 60.9,34.8 61.7,34.6 60.8,34.3 z M 19.3,31.3 C 18.6,31.1 17.4,31.1 16.8,31.3 C 16.1,31.6 16.6,31.8 18,31.8 C 19.4,31.8 19.9,31.6 19.3,31.3 z M 66.4,29.4 C 67.2,27.2 66,25.4 64.9,27.1 C 63.8,28.9 63.8,31 64.9,31 C 65.4,31 66.1,30.3 66.4,29.4 z M 71.8,29.2 C 72,28.5 71.6,28.2 70.6,28.6 C 69.7,28.9 69,29.7 69,30.2 C 69,31.5 71.3,30.7 71.8,29.2 z M 21.2,29.3 C 20.5,29 19.6,29.1 19.3,29.4 C 18.9,29.7 19.5,30 20.6,29.9 C 21.7,29.9 22,29.6 21.2,29.3 z M 59.2,29.3 C 58.5,29 57.6,29.1 57.3,29.4 C 56.9,29.7 57.5,30 58.6,29.9 C 59.7,29.9 60,29.6 59.2,29.3 z M 22,27 C 21.2,26.5 20.1,26 19.5,26 C 19,26 19.2,26.5 20,27 C 20.8,27.5 22,28 22.5,28 C 23.1,28 22.8,27.5 22,27 z M 62,26 C 62.8,25.5 63.1,25 62.5,25 C 62,25 60.8,25.5 60,26 C 59.2,26.5 59,27 59.5,27 C 60.1,27 61.2,26.5 62,26 z M 22,24.5 C 22,24.3 21,23.6 19.8,23 C 17.6,21.9 17.6,22 19.4,23.4 C 21.5,25.1 22,25.3 22,24.5 z M 24.5,23 C 24.2,22.5 22.9,21.5 21.7,20.9 C 19.8,20 19.8,20.1 22,21.9 C 24.8,24.2 25.4,24.5 24.5,23 z M 59,17.7 C 60.3,17.2 60.3,17.1 58.9,17.1 C 58.1,17 55.8,18.7 53.9,20.8 L 50.5,24.5 L 54,21.4 C 55.9,19.7 58.2,18 59,17.7 z M 58.1,21.3 C 59.4,19.7 59.3,19.6 57.8,20.9 C 56.8,21.6 56,22.4 56,22.6 C 56,23.4 56.8,22.9 58.1,21.3 z M 26,21.7 C 26,21.5 25,20.5 23.8,19.4 L 21.5,17.5 L 23.4,19.8 C 25.2,21.9 26,22.5 26,21.7 z M 26.8,18.1 C 25.5,16.6 24.3,15.4 24.1,15.6 C 23.7,16 28,21 28.8,21 C 29,21 28.1,19.7 26.8,18.1 z M 64,17.9 C 64,17.4 63.6,17 63,17 C 62.5,17 62,17.7 62,18.6 C 62,19.4 62.5,19.8 63,19.5 C 63.6,19.2 64,18.5 64,17.9 z M 52.2,11 C 52.6,11 53,11.5 53,12 C 53,12.6 53.5,13 54.2,13 C 55,13 54.8,12.4 53.8,11.4 C 52.8,10.4 51.5,10 50.4,10.4 C 49.5,10.8 49,11.3 49.3,11.7 C 49.6,12 49.3,13.5 48.5,15.1 C 47.7,16.6 47,18.3 47.1,18.7 C 47.1,19.1 48.1,17.6 49.3,15.3 C 50.4,12.9 51.8,11 52.2,11 z M 30.6,14.3 C 29.8,12.8 29.1,11.8 29,12.2 C 29,13.4 31.3,18 31.7,17.6 C 32,17.4 31.5,15.9 30.6,14.3 z M 51.8,15.5 C 51.5,15.2 50.9,15.7 50.6,16.7 C 50,18.1 50.1,18.2 51.1,17.3 C 51.8,16.6 52.1,15.8 51.8,15.5 z M 28.3,15.5 C 28,14.6 27.5,14.1 27.3,14.4 C 27,14.7 27.1,15.3 27.5,15.9 C 28.4,17.5 29,17.2 28.3,15.5 z M 43.7,13.8 C 43.4,13.1 43.2,13.6 43.2,15 C 43.2,16.4 43.4,16.9 43.7,16.3 C 43.9,15.6 43.9,14.4 43.7,13.8 z M 33.1,12.9 C 32.6,11.6 32.1,11 32.1,11.7 C 32,13.2 33.1,16.2 33.6,15.7 C 33.9,15.5 33.6,14.2 33.1,12.9 z M 47.3,13 C 47.6,11.9 47.4,11.2 46.9,11.6 C 46.4,11.9 46,12.8 46,13.6 C 46,15.6 46.7,15.3 47.3,13 z M 58,10 C 58,9.5 57.5,9 56.9,9 C 56.4,9 56.2,9.5 56.5,10 C 57.3,11.3 58,11.3 58,10 z M 47,3.9 C 47,3.4 46.6,3.2 46,3.5 C 44.7,4.3 44.7,5 46,5 C 46.6,5 47,4.5 47,3.9 z "
         style="fill:#fbc103"
         id="path29" />
      <path
         d="M 28.6,73.3 C 26.2,72.1 25.3,72 23.4,73.1 C 21.5,74.1 20.7,74.1 19.7,73.1 C 18.8,72.2 18.8,71.7 20,71 C 21.1,70.3 20.8,69.9 18.5,68.9 C 14.7,67.4 17,66.5 21,67.9 C 22.8,68.5 24.2,68.5 24.5,67.9 C 24.9,67.4 24.5,67 23.7,67 C 22.9,67 21.2,66.1 19.9,65 L 17.5,63 L 22.8,64.6 C 26.5,65.6 28.5,65.8 29.8,65.1 C 31.2,64.3 30.8,64.1 27.9,64 C 22.6,64 12.7,58.7 9.7,54.2 C 6.7,49.9 3.8,42 5.2,42 C 5.7,42 5.6,41.2 5,40.1 C 2.9,36 2,32.9 3.2,33.6 C 4,34.1 4.1,33.3 3.7,30.6 C 3.4,28.4 3.5,27.2 4.1,27.5 C 4.6,27.9 5,26.4 5.1,24.3 C 5.1,21.5 5.3,21 5.9,22.5 C 6.6,24.1 6.8,24 7.3,21.3 C 7.6,19.6 9.8,16.2 12.1,13.8 C 14.3,11.5 15.9,10.2 15.4,11 C 15,11.8 16.5,10.9 18.7,8.9 C 21.2,6.6 25,4.6 28.5,3.5 C 34.9,1.7 36.6,2.1 32.3,4.4 L 29.5,5.9 L 33,5.4 L 36.5,4.9 L 34,6.4 L 31.5,7.9 L 34.4,8 C 36.8,8 37,8.2 36,9.5 C 35.4,10.3 35,11.7 35.3,12.7 C 35.7,14.1 35.8,14 35.9,12.3 C 36.1,7.7 38,10.2 38.2,15.3 L 38.4,20.5 L 38.7,15.3 C 39.1,10.1 40.4,8.4 41.4,11.8 C 41.6,12.7 41.6,11.8 41.3,9.8 C 41,7.3 41.2,6 41.9,6 C 42.5,6 43,6.5 43,7 C 43,7.6 43.5,8 44,8 C 44.7,8 44.7,7.4 44,6.1 C 42.6,3.4 42.7,2.3 44.6,1.6 C 46.6,0.8 50.4,3.4 51.9,6.6 C 52.9,8.9 53.2,9 54.6,7.6 C 55.7,6.4 56.6,6.3 58,7 C 60.5,8.3 63,12 63,14.3 C 63,15.7 63.5,16 65.1,15.5 C 67.1,14.8 67.2,15.1 66.6,17.5 C 66.2,19.2 66.3,19.9 67,19.5 C 67.5,19.2 68,18.1 68,17.2 C 68.1,15.7 68.2,15.7 69.1,17.4 C 69.7,18.4 70,20.7 69.7,22.5 C 69.3,25.2 69.6,26 71.7,27.1 C 73.8,28.2 74.1,28.9 73.6,31.5 C 73.2,33.1 72.1,35.7 71,37.2 C 69.6,39.1 69.4,39.9 70.3,40.3 C 72,40.9 72.2,45.1 70.7,47 C 70,47.9 68.4,49.4 67,50.3 C 65.6,51.3 64.5,52.6 64.5,53.3 C 64.5,53.9 63.6,54.5 62.6,54.5 C 61.5,54.5 60.5,55.1 60.2,55.8 C 59.7,57.3 60.1,57.3 63.7,55.9 L 66.5,54.9 L 64,57.5 C 62.7,58.9 59.8,60.6 57.6,61.2 C 55.3,61.9 52.4,63 51.2,63.6 C 49,64.7 49,64.9 50.7,65.4 C 51.7,65.7 54.8,65.3 57.5,64.5 L 62.5,63 L 60.1,65 C 58.8,66.1 57.1,67 56.3,67 C 55.5,67 55.1,67.4 55.5,67.9 C 55.8,68.5 57.2,68.5 59,67.9 C 63,66.5 65.3,67.4 61.5,68.9 C 59.2,69.9 58.9,70.3 60,71 C 61.2,71.7 61.2,72.2 60.3,73.1 C 59.3,74.1 58.5,74.1 56.7,73.1 C 54.7,72 53.8,72.1 51.3,73.3 C 47.9,75.1 46.6,74.5 46.1,71 C 46,69.6 45.2,67.4 44.4,66 C 43.3,64.1 43,64 43.4,65.5 C 43.6,66.6 44.1,68.7 44.4,70.2 C 44.9,72.3 44.7,72.8 43.6,72.4 C 42.9,72.1 42,70.1 41.6,67.9 C 40.8,62.9 39.2,62.9 38.4,67.9 C 38,70.1 37.1,72.1 36.3,72.4 C 35.3,72.8 35,72.5 35.4,71.2 C 35.7,70.3 36.2,68.2 36.5,66.5 L 37.1,63.5 L 35.5,66.2 C 34.7,67.7 33.9,70 33.8,71.4 C 33.5,74.7 32.1,75.1 28.6,73.3 z M 30.7,70.3 C 29.8,69.4 28.8,68.9 28.4,69.2 C 27.4,70.2 29,72 30.8,72 C 32.3,72 32.3,71.9 30.7,70.3 z M 51.5,70.9 C 52.6,69.2 51.5,68.9 49.4,70.5 C 47.7,71.8 47.7,71.9 49.2,72 C 50.1,72 51.2,71.5 51.5,70.9 z M 36.5,61 C 35.7,59.7 27,59.7 27,61 C 27,61.6 29.3,62 32.1,62 C 35.2,62 36.9,61.6 36.5,61 z M 41,60.5 C 41,59.7 40.6,59 40,59 C 39.5,59 39,59.7 39,60.5 C 39,61.3 39.5,62 40,62 C 40.6,62 41,61.3 41,60.5 z M 53,61 C 53,59.7 44.3,59.7 43.5,61 C 43.1,61.6 44.8,62 47.9,62 C 50.7,62 53,61.6 53,61 z M 35.6,55.3 C 35.3,54.9 35,55.5 35.1,56.6 C 35.1,57.7 35.4,58 35.7,57.2 C 36,56.5 35.9,55.6 35.6,55.3 z M 38.7,53.3 C 38.4,52.3 38.2,53.1 38.2,55 C 38.2,56.9 38.4,57.7 38.7,56.8 C 38.9,55.8 38.9,54.2 38.7,53.3 z M 41.6,55.3 C 41.3,54.9 41,55.5 41.1,56.6 C 41.1,57.7 41.4,58 41.7,57.2 C 42,56.5 41.9,55.6 41.6,55.3 z M 47.1,55.3 C 45.9,53.3 45.7,53.9 46.6,56.5 C 47,57.4 47.5,57.9 47.7,57.6 C 48,57.4 47.7,56.3 47.1,55.3 z M 31.3,53.5 C 33.4,49 32.8,49 30.1,53.5 C 29,55.4 28.4,57 28.8,57 C 29.3,57 30.4,55.4 31.3,53.5 z M 50.6,55.4 C 49.7,54.6 49,53.4 49,52.8 C 49,52.2 48.7,51.9 48.4,52.2 C 47.6,53.1 49.8,57 51.1,57 C 51.7,57 51.4,56.3 50.6,55.4 z M 28.4,53.4 C 28.7,52.6 28.6,52.2 28,52.5 C 27.4,52.8 27,53.5 27,54.1 C 27,55.5 27.7,55.2 28.4,53.4 z M 43.6,52.3 C 43.3,51.9 43,52.5 43.1,53.6 C 43.1,54.7 43.4,55 43.7,54.2 C 44,53.5 43.9,52.6 43.6,52.3 z M 36.6,51.3 C 36.3,50.9 36,51.5 36.1,52.6 C 36.1,53.7 36.4,54 36.7,53.2 C 37,52.5 36.9,51.6 36.6,51.3 z M 27,50.5 C 28.3,49.1 29.1,48 28.8,48 C 28.6,48 27.3,49.1 26,50.5 C 24.7,51.9 23.9,53 24.2,53 C 24.4,53 25.7,51.9 27,50.5 z M 59.4,52.4 C 60.3,52.1 61,51.1 61,50.3 C 61,49.1 60.7,49 59.7,49.9 C 58.9,50.5 58,50.7 57.7,50.3 C 57.3,50 57,50.4 57,51.3 C 57,53.2 57.2,53.3 59.4,52.4 z M 24.5,49 C 25.5,47.9 26.1,47 25.8,47 C 25.5,47 24.5,47.9 23.5,49 C 22.5,50.1 21.9,51 22.2,51 C 22.5,51 23.5,50.1 24.5,49 z M 53,49.6 C 53,49.4 52.2,48.6 51.3,47.9 C 49.7,46.6 49.6,46.7 50.9,48.3 C 52.2,49.9 53,50.4 53,49.6 z M 54,47.7 C 54,47.5 53,46.5 51.8,45.4 L 49.5,43.5 L 51.4,45.8 C 53.2,47.9 54,48.5 54,47.7 z M 58,47.6 C 58,47.4 57.2,46.6 56.3,45.9 C 54.7,44.6 54.6,44.7 55.9,46.3 C 57.2,47.9 58,48.4 58,47.6 z M 43.7,43.3 C 45.7,44.8 47.6,45.8 47.8,45.5 C 48,45.3 47.7,43.7 47.1,41.9 C 45.4,37.1 45.7,36.4 50.2,33.1 L 54.4,30 L 48.8,30 L 43.3,30 L 42,25.5 C 41.3,23 40.4,21 40,21 C 39.6,21 38.7,23 38,25.5 L 36.7,30 L 31.2,30 L 25.6,30 L 29.9,33.2 C 34.4,36.5 34.4,36.6 32.4,43.9 L 31.7,46.2 L 35.9,43.5 L 40,40.7 L 43.7,43.3 z M 69.9,43 C 68.3,41.9 67,42.6 67,44.6 C 67,45.8 67.4,45.9 69.1,44.9 C 70.8,44 71,43.6 69.9,43 z M 65.8,41.8 C 67.7,39.9 67.2,38.9 65,40.2 C 63,41.5 62.3,43 63.8,43 C 64.2,43 65.1,42.5 65.8,41.8 z M 19.5,40 C 20.8,39.4 21,39.1 20,39.1 C 19.2,39.1 17.8,39.5 17,40 C 15.2,41.2 16.8,41.2 19.5,40 z M 59.3,36.3 C 58.6,36.1 57.4,36.1 56.8,36.3 C 56.1,36.6 56.6,36.8 58,36.8 C 59.4,36.8 59.9,36.6 59.3,36.3 z M 22.3,34.3 C 21,34.1 19,34.1 17.8,34.3 C 16.5,34.5 17.5,34.7 20,34.7 C 22.5,34.7 23.5,34.5 22.3,34.3 z M 60.8,34.3 C 59.8,34.1 58.2,34.1 57.3,34.3 C 56.3,34.6 57.1,34.8 59,34.8 C 60.9,34.8 61.7,34.6 60.8,34.3 z M 19.3,31.3 C 18.6,31.1 17.4,31.1 16.8,31.3 C 16.1,31.6 16.6,31.8 18,31.8 C 19.4,31.8 19.9,31.6 19.3,31.3 z M 66.4,29.4 C 67.2,27.2 66,25.4 64.9,27.1 C 63.8,28.9 63.8,31 64.9,31 C 65.4,31 66.1,30.3 66.4,29.4 z M 71.8,29.2 C 72,28.5 71.6,28.2 70.6,28.6 C 69.7,28.9 69,29.7 69,30.2 C 69,31.5 71.3,30.7 71.8,29.2 z M 21.2,29.3 C 20.5,29 19.6,29.1 19.3,29.4 C 18.9,29.7 19.5,30 20.6,29.9 C 21.7,29.9 22,29.6 21.2,29.3 z M 59.2,29.3 C 58.5,29 57.6,29.1 57.3,29.4 C 56.9,29.7 57.5,30 58.6,29.9 C 59.7,29.9 60,29.6 59.2,29.3 z M 22,27 C 21.2,26.5 20.1,26 19.5,26 C 19,26 19.2,26.5 20,27 C 20.8,27.5 22,28 22.5,28 C 23.1,28 22.8,27.5 22,27 z M 62,26 C 62.8,25.5 63.1,25 62.5,25 C 62,25 60.8,25.5 60,26 C 59.2,26.5 59,27 59.5,27 C 60.1,27 61.2,26.5 62,26 z M 22,24.5 C 22,24.3 21,23.6 19.8,23 C 17.6,21.9 17.6,22 19.4,23.4 C 21.5,25.1 22,25.3 22,24.5 z M 24.5,23 C 24.2,22.5 22.9,21.5 21.7,20.9 C 19.8,20 19.8,20.1 22,21.9 C 24.8,24.2 25.4,24.5 24.5,23 z M 59,17.7 C 60.3,17.2 60.3,17.1 58.9,17.1 C 58.1,17 55.8,18.7 53.9,20.8 L 50.5,24.5 L 54,21.4 C 55.9,19.7 58.2,18 59,17.7 z M 58.1,21.3 C 59.4,19.7 59.3,19.6 57.8,20.9 C 56.8,21.6 56,22.4 56,22.6 C 56,23.4 56.8,22.9 58.1,21.3 z M 26,21.7 C 26,21.5 25,20.5 23.8,19.4 L 21.5,17.5 L 23.4,19.8 C 25.2,21.9 26,22.5 26,21.7 z M 26.8,18.1 C 25.5,16.6 24.3,15.4 24.1,15.6 C 23.7,16 28,21 28.8,21 C 29,21 28.1,19.7 26.8,18.1 z M 64,17.9 C 64,17.4 63.6,17 63,17 C 62.5,17 62,17.7 62,18.6 C 62,19.4 62.5,19.8 63,19.5 C 63.6,19.2 64,18.5 64,17.9 z M 52.2,11 C 52.6,11 53,11.5 53,12 C 53,12.6 53.5,13 54.2,13 C 55,13 54.8,12.4 53.8,11.4 C 52.8,10.4 51.5,10 50.4,10.4 C 49.5,10.8 49,11.3 49.3,11.7 C 49.6,12 49.3,13.5 48.5,15.1 C 47.7,16.6 47,18.3 47.1,18.7 C 47.1,19.1 48.1,17.6 49.3,15.3 C 50.4,12.9 51.8,11 52.2,11 z M 30.6,14.3 C 29.8,12.8 29.1,11.8 29,12.2 C 29,13.4 31.3,18 31.7,17.6 C 32,17.4 31.5,15.9 30.6,14.3 z M 51.8,15.5 C 51.5,15.2 50.9,15.7 50.6,16.7 C 50,18.1 50.1,18.2 51.1,17.3 C 51.8,16.6 52.1,15.8 51.8,15.5 z M 28.3,15.5 C 28,14.6 27.5,14.1 27.3,14.4 C 27,14.7 27.1,15.3 27.5,15.9 C 28.4,17.5 29,17.2 28.3,15.5 z M 43.7,13.8 C 43.4,13.1 43.2,13.6 43.2,15 C 43.2,16.4 43.4,16.9 43.7,16.3 C 43.9,15.6 43.9,14.4 43.7,13.8 z M 33.1,12.9 C 32.6,11.6 32.1,11 32.1,11.7 C 32,13.2 33.1,16.2 33.6,15.7 C 33.9,15.5 33.6,14.2 33.1,12.9 z M 47.3,13 C 47.6,11.9 47.4,11.2 46.9,11.6 C 46.4,11.9 46,12.8 46,13.6 C 46,15.6 46.7,15.3 47.3,13 z M 58,10 C 58,9.5 57.5,9 56.9,9 C 56.4,9 56.2,9.5 56.5,10 C 57.3,11.3 58,11.3 58,10 z M 47,3.9 C 47,3.4 46.6,3.2 46,3.5 C 44.7,4.3 44.7,5 46,5 C 46.6,5 47,4.5 47,3.9 z "
         style="fill:#c38533"
         id="path31" />
      <path
         d="M 28.6,73.3 C 26.2,72.1 25.3,72 23.4,73.1 C 21.5,74.1 20.7,74.1 19.7,73.1 C 18.8,72.2 18.8,71.7 20,71 C 21.1,70.3 20.8,69.9 18.5,68.9 C 14.7,67.4 17,66.5 21,67.9 C 22.8,68.5 24.2,68.5 24.5,67.9 C 24.9,67.4 24.5,67 23.7,67 C 22.9,67 21.2,66.1 19.9,65 L 17.5,63 L 22.8,64.6 C 26.5,65.6 28.5,65.8 29.8,65.1 C 31.2,64.3 30.8,64.1 27.9,64 C 22.6,64 12.7,58.7 9.7,54.2 C 6.7,49.9 3.8,42 5.2,42 C 5.7,42 5.6,41.2 5,40.1 C 2.9,36 2,32.9 3.2,33.6 C 4,34.1 4.1,33.3 3.7,30.6 C 3.4,28.4 3.5,27.2 4.1,27.5 C 4.6,27.9 5,26.4 5.1,24.3 C 5.1,21.5 5.3,21 5.9,22.5 C 6.6,24.1 6.8,24 7.3,21.3 C 7.6,19.6 9.8,16.2 12.1,13.8 C 14.3,11.5 15.9,10.2 15.4,11 C 15,11.8 16.5,10.9 18.7,8.9 C 21.2,6.6 25,4.6 28.5,3.5 C 34.9,1.7 36.6,2.1 32.3,4.4 L 29.5,5.9 L 33,5.4 C 36.5,4.9 36.5,4.9 34,6.4 L 31.5,7.8 L 34.5,8.2 C 37.3,8.5 37,8.8 30.7,12 C 20.2,17.2 16,23.8 16,35 C 16,39.8 16.5,41.4 19.9,46.6 C 26.3,56.4 28.1,57.5 38,57.7 C 49.9,57.9 52,57.4 52,54.1 C 52,50.7 54.7,46.9 56.8,47.2 C 58,47.4 58.6,46.7 58.8,45 C 59.4,40.3 61.1,37.1 62.7,37.7 C 64,38.2 63.9,37.8 62.4,35.5 C 59.9,31.7 59.5,27.8 61.5,26.4 C 62.9,25.4 62.9,25.2 61.5,24.6 C 59.3,23.8 57.6,18.9 59.2,17.9 C 59.9,17.4 59.1,17.2 57.1,17.2 C 53.1,17.3 49.5,14.3 51.1,12 C 51.9,10.9 52.3,10.8 52.7,11.8 C 52.9,12.4 53.7,13 54.3,13 C 54.9,13 54.7,12.3 53.8,11.4 C 52.5,10.1 51.5,10 49.3,10.7 C 45.3,12 41.6,10.9 41.2,8.2 C 41,7 41.3,6 41.9,6 C 42.5,6 43,6.5 43,7 C 43,7.6 43.5,8 44,8 C 44.7,8 44.7,7.4 44,6.1 C 42.6,3.4 42.7,2.3 44.6,1.6 C 46.6,0.8 50.4,3.4 51.9,6.6 C 52.9,8.9 53.2,9 54.6,7.6 C 55.7,6.4 56.6,6.3 58,7 C 60.5,8.3 63,12 63,14.3 C 63,15.7 63.5,16 65.1,15.5 C 67.1,14.8 67.2,15.1 66.6,17.5 C 66.2,19.2 66.3,19.9 67,19.5 C 67.5,19.2 68,18.1 68,17.2 C 68.1,15.7 68.2,15.7 69.1,17.4 C 69.7,18.4 70,20.7 69.7,22.5 C 69.3,25.2 69.6,26 71.7,27.1 C 73.8,28.2 74.1,28.9 73.6,31.5 C 73.2,33.1 72.1,35.7 71,37.2 C 69.6,39.1 69.4,39.9 70.3,40.3 C 72,40.9 72.2,45.1 70.7,47 C 70,47.9 68.4,49.4 67,50.3 C 65.6,51.3 64.5,52.6 64.5,53.3 C 64.5,53.9 63.6,54.5 62.6,54.5 C 61.5,54.5 60.5,55.1 60.2,55.8 C 59.7,57.3 60.1,57.3 63.7,55.9 L 66.5,54.9 L 64,57.5 C 62.7,58.9 59.8,60.6 57.6,61.2 C 55.3,61.9 52.4,63 51.2,63.6 C 49,64.7 49,64.9 50.7,65.4 C 51.7,65.7 54.8,65.3 57.5,64.5 L 62.5,63 L 60.1,65 C 58.8,66.1 57.1,67 56.3,67 C 55.5,67 55.1,67.4 55.5,67.9 C 55.8,68.5 57.2,68.5 59,67.9 C 63,66.5 65.3,67.4 61.5,68.9 C 59.2,69.9 58.9,70.3 60,71 C 61.2,71.7 61.2,72.2 60.3,73.1 C 59.3,74.1 58.5,74.1 56.7,73.1 C 54.7,72 53.8,72.1 51.3,73.3 C 47.9,75.1 46.6,74.5 46.1,71 C 46,69.6 45.2,67.4 44.4,66 C 43.3,64.1 43,64 43.4,65.5 C 43.6,66.6 44.1,68.7 44.4,70.2 C 44.9,72.3 44.7,72.8 43.6,72.4 C 42.9,72.1 42,70.1 41.6,67.9 C 40.8,62.9 39.2,62.9 38.4,67.9 C 38,70.1 37.1,72.1 36.3,72.4 C 35.3,72.8 35,72.5 35.4,71.2 C 35.7,70.3 36.2,68.2 36.5,66.5 L 37.1,63.5 L 35.5,66.2 C 34.7,67.7 33.9,70 33.8,71.4 C 33.5,74.7 32.1,75.1 28.6,73.3 z M 30.7,70.3 C 29.8,69.4 28.8,68.9 28.4,69.2 C 27.4,70.2 29,72 30.8,72 C 32.3,72 32.3,71.9 30.7,70.3 z M 51.5,70.9 C 52.6,69.2 51.5,68.9 49.4,70.5 C 47.7,71.8 47.7,71.9 49.2,72 C 50.1,72 51.2,71.5 51.5,70.9 z M 36.5,61 C 35.7,59.7 27,59.7 27,61 C 27,61.6 29.3,62 32.1,62 C 35.2,62 36.9,61.6 36.5,61 z M 41,60.5 C 41,59.7 40.6,59 40,59 C 39.5,59 39,59.7 39,60.5 C 39,61.3 39.5,62 40,62 C 40.6,62 41,61.3 41,60.5 z M 53,61 C 53,59.7 44.3,59.7 43.5,61 C 43.1,61.6 44.8,62 47.9,62 C 50.7,62 53,61.6 53,61 z M 59.4,52.4 C 60.3,52.1 61,51.1 61,50.3 C 61,49.1 60.7,49 59.7,49.9 C 58.9,50.5 58,50.7 57.7,50.3 C 57.3,50 57,50.4 57,51.3 C 57,53.2 57.2,53.3 59.4,52.4 z M 69.9,43 C 68.3,41.9 67,42.6 67,44.6 C 67,45.8 67.4,45.9 69.1,44.9 C 70.8,44 71,43.6 69.9,43 z M 65.8,41.8 C 67.7,39.9 67.2,38.9 65,40.2 C 63,41.5 62.3,43 63.8,43 C 64.2,43 65.1,42.5 65.8,41.8 z M 66.4,29.4 C 67.2,27.2 66,25.4 64.9,27.1 C 63.8,28.9 63.8,31 64.9,31 C 65.4,31 66.1,30.3 66.4,29.4 z M 71.8,29.2 C 72,28.5 71.6,28.2 70.6,28.6 C 69.7,28.9 69,29.7 69,30.2 C 69,31.5 71.3,30.7 71.8,29.2 z M 64,17.9 C 64,17.4 63.6,17 63,17 C 62.5,17 62,17.7 62,18.6 C 62,19.4 62.5,19.8 63,19.5 C 63.6,19.2 64,18.5 64,17.9 z M 58,10 C 58,9.5 57.5,9 56.9,9 C 56.4,9 56.2,9.5 56.5,10 C 57.3,11.3 58,11.3 58,10 z M 47,3.9 C 47,3.4 46.6,3.2 46,3.5 C 44.7,4.3 44.7,5 46,5 C 46.6,5 47,4.5 47,3.9 z M 39.6,47.3 C 39.2,45.5 38.4,44 38,44 C 37.5,44 37.4,44.8 37.7,45.8 C 38.3,47.3 38.2,47.3 36.7,46.1 C 35.8,45.4 35,45.1 35,45.6 C 35,46.1 33.8,47 32.4,47.7 C 29.8,48.9 29.8,48.9 30.4,45.8 C 30.7,44 30.5,42.1 29.9,41.4 C 29.3,40.6 29.1,40 29.5,40 C 29.9,40 29.6,39.3 28.9,38.3 C 27.6,36.8 27.7,36.8 29.7,37.9 C 31.6,38.9 31.9,38.8 31.4,37.6 C 31.1,36.7 30,35.8 28.9,35.5 C 27.8,35.1 27.2,34.5 27.5,34 C 27.8,33.5 26.8,32.2 25.4,31.1 L 22.7,29 L 25.4,29 C 27.8,29 31.3,26.9 30.7,25.9 C 30.6,25.7 30.7,25.6 30.9,25.8 C 31.2,25.9 32.5,25 33.9,23.8 L 36.5,21.5 L 34.5,23.9 C 33,25.7 32.9,26.2 34,25.9 C 34.8,25.6 36.4,23.5 37.5,21.2 C 38.6,18.9 39.8,17.1 40.3,17 C 41.3,17 41.2,19.8 40.2,20.2 C 39.7,20.4 38.6,22.5 37.8,25 C 36.4,29.5 36.3,29.5 31,30 L 25.6,30.5 L 29.8,33.4 C 32.1,35 34,36.6 34,37 C 34,37.4 33.3,39.7 32.5,42 C 31.7,44.3 31,46.4 31,46.7 C 31,46.9 33,45.7 35.4,44 L 39.8,40.8 L 44.4,43.9 C 46.9,45.7 49,46.9 49,46.7 C 49,46.5 48.3,44.2 47.3,41.5 C 45.5,36.2 45.4,36.4 52.1,31.8 C 54.5,30.1 54.5,30.1 48.9,30.1 L 43.3,30 L 42.1,25.9 C 40.6,20.9 41.5,19.7 44,23 C 45.4,24.7 46,25 46.1,24 C 46.1,23 46.3,22.9 46.7,23.8 C 46.9,24.4 47.7,24.7 48.3,24.3 C 49,24 49.2,24.1 48.7,24.5 C 47.4,26 51.2,29 54.3,29 L 57.4,29 L 54,31.5 C 52.1,32.9 51.3,34 52.1,34 C 52.9,34.1 52.3,34.8 50.8,35.6 C 49.2,36.4 48,37.6 48,38.2 C 48,39.1 48.3,39.1 49.2,38.2 C 50.9,36.5 52.5,36.7 51.1,38.4 C 50.4,39.2 50.3,40 50.7,40.2 C 51.1,40.5 51,40.6 50.3,40.4 C 48.3,39.9 48.1,41.1 49.6,45.2 C 50.9,48.9 50.9,49.2 49.2,48.5 C 48.3,48.1 47,47.7 46.3,47.7 C 45.6,47.7 45.3,47.3 45.6,46.9 C 45.8,46.5 45.6,45.9 45,45.5 C 44.5,45.2 44,45.5 43.9,46.2 C 43.9,46.9 43.5,46.6 43.1,45.5 C 42.3,43.8 42.1,43.9 41.3,47 L 40.3,50.5 L 39.6,47.3 z M 40.6,42.3 C 40.3,41.9 40,42.5 40.1,43.6 C 40.1,44.7 40.4,45 40.7,44.2 C 41,43.5 40.9,42.6 40.6,42.3 z M 32.7,27.3 C 32.7,26.4 32.3,26.3 31.3,27.1 C 29.7,28.5 29.7,28.7 31.3,28.7 C 32.1,28.7 32.7,28.1 32.7,27.3 z M 48.5,27 C 46.8,25.1 44.4,25.2 45.6,27.1 C 45.9,27.6 46.5,27.8 47,27.5 C 47.5,27.2 48.1,27.4 48.5,28 C 48.8,28.5 49.4,29 49.7,29 C 50,29 49.5,28.1 48.5,27 z "
         style="fill:#936933"
         id="path2195" />
      <path
         d="M 20.2,73.3 C 19.2,72.9 19.2,72.5 20.1,71.4 C 21.1,70.2 20.9,69.8 19.2,69.3 C 18,69 17,68.3 17,67.8 C 17,67.2 17.6,67 18.3,67.3 C 22.3,68.8 23.9,69 24.5,68 C 24.8,67.5 24.5,67 23.7,67 C 22.9,67 21.2,66.1 19.9,65 L 17.5,63 L 22.8,64.6 C 26.5,65.6 28.5,65.8 29.8,65.1 C 31.2,64.3 30.8,64.1 27.9,64 C 22.6,64 12.7,58.7 9.7,54.2 C 6.7,49.9 3.8,42 5.2,42 C 5.7,42 5.6,41.2 5,40.1 C 2.9,36 2,32.9 3.2,33.6 C 4,34.1 4.1,33.3 3.7,30.6 C 3.4,28.4 3.5,27.2 4.1,27.5 C 4.6,27.9 5,26.4 5.1,24.3 C 5.1,21.5 5.3,21 5.9,22.5 C 6.6,24.1 6.8,24 7.3,21.3 C 7.6,19.6 9.8,16.2 12.1,13.8 C 14.3,11.5 15.9,10.2 15.4,11 C 15,11.8 16.5,10.9 18.7,8.9 C 21.2,6.6 25,4.6 28.5,3.5 C 34.9,1.7 36.6,2.1 32.3,4.4 L 29.5,5.9 L 33,5.4 C 36.5,4.9 36.5,4.9 34,6.4 L 31.5,7.8 L 34.5,8.2 C 37.3,8.5 37.1,8.7 31.5,11.3 C 20.2,16.6 16.1,22.8 16,34.3 C 16,40.3 16.4,41.7 19.4,46.3 C 24.6,54.4 27.9,57 33.8,57.7 C 38,58.2 39,58.6 39,60.1 C 39,61.2 39.5,62 40,62 C 40.6,62 41,61.1 41,60 C 41,58 42.6,57.6 50.3,57.7 C 51.5,57.7 52,56.9 52,55 C 52,52.4 55.4,46.9 56.8,47.1 C 58.9,47.4 59.8,46.8 59.3,45.2 C 58.7,42.6 60.7,38 62.5,38 C 64.4,38 64.4,37.1 62.6,35.1 C 60.4,32.5 59.8,28.4 61.5,27 C 62.9,25.8 62.8,25.4 60.9,23.4 C 59.5,21.9 58.9,20.3 59.3,19 C 59.7,17.4 59.3,17 57.3,17 C 53.8,17 51,15.2 51,13 C 51,11.9 51.5,11 52,11 C 52.6,11 53,11.5 53,12 C 53,12.6 53.5,13 54.1,13 C 54.9,13 54.8,12.5 54,11.5 C 53.1,10.4 51.8,10.1 49.4,10.6 C 44.6,11.5 41,10.4 41,8 C 41,6.9 41.5,6 42,6 C 42.6,6 43,6.5 43,7 C 43,7.6 43.5,8 44,8 C 44.7,8 44.7,7.4 44,6.1 C 42.6,3.4 42.7,2.3 44.6,1.6 C 46.6,0.8 50.4,3.4 51.9,6.6 C 53,9.1 53.2,9.2 54.9,7.6 C 56.7,6 56.9,6 59.4,8.2 C 62.1,10.5 64.7,17 62.9,17 C 62.4,17 62,17.8 62,18.8 C 62,20.1 62.6,19.8 64.6,17.5 L 67.1,14.5 L 66.5,17.3 C 66.1,19.2 66.3,19.9 67,19.5 C 67.5,19.2 68,18.1 68,17.2 C 68.1,15.7 68.2,15.7 69.1,17.4 C 69.7,18.4 70,20.7 69.7,22.6 C 69.4,24.5 69.5,26 70.1,26 C 71.5,26 71.2,28.8 69.8,29.3 C 69.1,29.5 68.9,30.1 69.3,30.6 C 69.8,31.1 70.8,30.7 71.6,29.6 C 72.3,28.5 73.3,27.9 73.6,28.3 C 74.6,29.3 73,34.8 70.9,37.5 C 69.8,38.9 69.3,40 69.8,40 C 71.4,40 72.1,44.8 70.8,46.9 C 70.2,47.9 68.4,49.5 66.8,50.4 C 65.3,51.3 64.1,52.6 64.3,53.3 C 64.4,54 63.6,54.5 62.6,54.5 C 61.5,54.5 60.5,55.1 60.2,55.8 C 59.7,57.3 60.1,57.3 63.7,55.9 L 66.5,54.9 L 64,57.5 C 62.7,58.9 59.8,60.6 57.6,61.2 C 55.3,61.9 52.4,63 51.2,63.6 C 49,64.7 49,64.9 50.7,65.4 C 51.7,65.7 54.8,65.3 57.5,64.5 L 62.5,63 L 60.1,65 C 58.8,66.1 57.1,67 56.3,67 C 55.5,67 55.2,67.5 55.5,68 C 56.1,69 57.8,68.8 61.8,67.3 C 62.4,67 63,67.2 63,67.8 C 63,68.3 62,69 60.8,69.3 C 59.1,69.8 58.9,70.2 59.9,71.3 C 61.5,73.3 58.6,74.4 56,72.7 C 54.4,71.8 53.6,71.8 52,72.8 C 49.4,74.4 45.9,74.4 46.5,72.8 C 46.8,72.1 46.1,69.7 45,67.5 C 43.1,63.7 43,64 44.4,70.2 C 44.9,72.3 44.7,72.8 43.6,72.4 C 42.8,72.1 41.9,69.9 41.5,67.4 C 40.7,61.8 39.3,61.8 38.5,67.4 C 38.1,69.9 37.1,72.1 36.3,72.4 C 35.3,72.8 35,72.5 35.4,71.2 C 35.7,70.3 36.2,68.2 36.5,66.5 C 37,63.8 36.8,63.9 35,67.5 C 33.9,69.7 33.2,72.1 33.5,72.8 C 34.1,74.4 30.6,74.4 28,72.8 C 26.4,71.8 25.6,71.8 24,72.8 C 22.9,73.4 21.9,74 21.8,73.9 C 21.6,73.9 20.9,73.6 20.2,73.3 z M 30.8,70.4 C 29.9,69.5 28.7,69.1 28,69.5 C 26.6,70.4 28.5,72 31,72 C 32.2,72 32.2,71.7 30.8,70.4 z M 51.9,71.1 C 52.6,70.6 52.8,70 52.3,69.7 C 51.7,69.3 50.4,69.7 49.4,70.5 C 47.9,71.6 47.8,71.9 49,72 C 49.8,72 51.1,71.6 51.9,71.1 z M 37,61.1 C 37,60.6 34.8,60 32,59.8 C 28.5,59.6 27,59.9 27,60.8 C 27,61.6 28.7,62 32,62 C 34.8,62 37,61.6 37,61.1 z M 53,60.8 C 53,59.9 51.5,59.6 48,59.8 C 41.5,60.3 41.5,62 48,62 C 51.3,62 53,61.6 53,60.8 z M 59.4,52.4 C 60.3,52.1 61,51.1 61,50.3 C 61,49.1 60.7,49 59.7,49.9 C 58.9,50.5 58,50.7 57.7,50.3 C 57.3,50 57,50.4 57,51.3 C 57,53.2 57.2,53.3 59.4,52.4 z M 69.9,43 C 68.3,41.9 67,42.6 67,44.6 C 67,45.8 67.4,45.9 69.1,44.9 C 70.8,44 71,43.6 69.9,43 z M 65.8,41.8 C 67.7,39.9 67.2,38.9 65,40.2 C 63,41.5 62.3,43 63.8,43 C 64.2,43 65.1,42.5 65.8,41.8 z M 66.4,29.4 C 67.2,27.2 66,25.4 64.9,27.1 C 63.8,28.9 63.8,31 64.9,31 C 65.4,31 66.1,30.3 66.4,29.4 z M 57.1,8.3 C 56.3,6.8 56.1,6.8 56,8.1 C 56,9.8 57.1,11.3 57.8,10.6 C 58,10.3 57.7,9.3 57.1,8.3 z M 47,4 C 47,3.5 46.6,3 46,3 C 45.5,3 45,3.5 45,4 C 45,4.6 45.5,5 46,5 C 46.6,5 47,4.6 47,4 z "
         style="fill:#ab3426"
         id="path2193" />
      <path
         d="M 35.4,71.2 C 35.7,70.3 36.2,68.3 36.5,66.8 L 37.2,64.2 L 30.9,64.1 C 22.8,64.1 13.5,59.8 9.7,54.3 C 6.7,49.9 3.8,42 5.2,42 C 5.7,42 5.6,41.2 5,40.1 C 2.9,36 2,32.9 3.2,33.6 C 4,34.1 4.1,33.3 3.7,30.6 C 3.4,28.4 3.5,27.2 4.1,27.5 C 4.6,27.9 5,26.4 5.1,24.3 C 5.1,21.5 5.3,21 5.9,22.5 C 6.6,24.1 6.8,24 7.3,21.3 C 7.6,19.6 9.8,16.2 12.1,13.8 C 14.3,11.5 15.9,10.2 15.4,11 C 15,11.8 16.5,10.9 18.7,8.9 C 21.2,6.6 25,4.6 28.5,3.5 C 34.9,1.7 36.6,2.1 32.3,4.4 L 29.5,5.9 L 33,5.4 C 36.5,4.9 36.5,4.9 34,6.4 L 31.5,7.8 L 34.5,8.2 C 37.3,8.5 37.1,8.7 31.5,11.3 C 24.2,14.7 18.3,20.2 17,25 C 16.5,26.9 16,31.3 16,34.8 C 16,40.3 16.4,41.8 19.4,46.3 C 21.2,49.2 23.9,52.6 25.4,54 C 27.5,55.9 27.9,57 27.5,59.2 C 26.8,62 26.9,62 31.8,62 C 34.7,62 37.2,62.6 37.8,63.3 C 39.3,65 38.2,71.7 36.3,72.4 C 35.3,72.8 35,72.5 35.4,71.2 z M 43.4,72.2 C 41.7,71.1 40.8,64.9 42.1,63.4 C 42.8,62.6 45.2,62 47.9,62 L 52.6,62 L 52.6,56.5 C 52.5,52.1 52.9,50.6 54.8,48.8 L 57,46.6 L 57,49.8 C 57,53.1 57.6,53.6 59.8,52.1 C 60.9,51.5 60.9,50.4 60.1,47.2 C 59.3,44.5 59.3,42.3 60,40.6 C 61.5,36.6 63.6,37.4 63.1,41.8 C 62.9,43.5 64.5,43.3 66,41.5 C 67,40.3 66.7,39.5 64.2,36.9 C 61.1,33.8 59.5,29.2 61,27.7 C 61.4,27.2 62.5,27.9 63.4,29.2 C 64.8,31.1 65.2,31.3 66,30 C 67.5,27.7 67.2,27 64.6,26 C 62,25.1 59,21.4 59,19.2 C 59,18.3 59.5,18.2 60.9,18.9 C 61.9,19.5 63,19.6 63.4,19.3 C 64.9,17.7 63.7,17 59.4,17 C 54.7,17 51,15.7 51,14 C 51,13.4 52,13 53.1,13 C 54.9,13 55,12.8 54,11.5 C 53.1,10.4 51.8,10.1 49.4,10.6 C 45.5,11.3 41,10.4 41,9 C 41,8.4 41.9,8 43,8 C 44.8,8 44.9,7.7 43.9,5.9 C 42.9,4 43.1,3.9 44.9,4.5 C 47.1,5.2 47.9,3.5 45.8,2.7 C 45.1,2.5 44.8,2 45.2,1.6 C 46.1,0.5 50.8,3.9 51.5,6.1 C 51.9,7.2 53.5,8.7 55.1,9.5 C 58.3,11.2 58.6,10.9 56.9,7.9 C 56,6 56,6 57.9,6.9 C 60.3,8.2 63,11.9 63,13.8 C 63,14.6 63.9,16.4 65,17.8 L 67.1,20.4 L 67.7,18.1 C 68.8,13.7 70,18.3 69.4,24.8 C 69,29.2 69.1,31 69.9,31 C 70.5,31 71.3,30.3 71.6,29.5 C 72,28.7 72.7,28 73.2,28 C 75,28 73.2,34 70,38.8 C 66.2,44.6 66,46.9 69.5,44.6 C 71.5,43.3 72,43.2 72,44.3 C 72,46.2 67.2,50.9 64.5,51.6 C 62.5,52.1 59.4,55.7 60.3,56.6 C 60.5,56.9 62,56.6 63.6,56 L 66.5,54.9 L 64,57.5 C 62.7,58.9 59.8,60.6 57.6,61.2 C 55.3,61.8 52.9,62.8 52.2,63.3 C 51.5,63.9 49.1,64.3 46.9,64.2 C 42.7,64 42.7,63.9 44.7,71.3 C 45.2,73.2 45,73.3 43.4,72.2 z M 30,69.5 C 29,68.3 29,68 30.4,68 C 31.3,68 32,68.7 32,69.5 C 32,71.4 31.6,71.4 30,69.5 z M 48,69.5 C 48,68.7 48.7,68 49.5,68 C 51.4,68 51.4,69.6 49.5,70.4 C 48.6,70.7 48,70.4 48,69.5 z M 22.3,66.5 C 17.2,64.4 17.4,62.9 22.6,64.5 C 27.9,66.1 28.6,66.6 26.7,67.3 C 26,67.6 24,67.2 22.3,66.5 z M 52.9,66.9 C 52.1,66.4 51.7,66 52,66 C 52.3,66 54.7,65.3 57.4,64.5 C 61.5,63.3 62,63.2 61.1,64.4 C 59.3,66.5 54.5,68 52.9,66.9 z "
         style="fill:#03813b"
         id="path2191" />
      <path
         d="M 35.4,71.2 C 37.5,64.2 37.4,63.8 34.4,64 C 27.9,64.5 23.9,64 24.6,62.9 C 25,62.2 24.6,62 23.4,62.4 C 22.2,62.7 19.5,61.8 16.4,60 C 12.3,57.7 11.3,56.6 11.3,54.5 L 11.3,51.9 L 14.4,54.7 C 17.2,57.3 17.2,57.2 14.1,53.7 C 11.9,51.4 10.3,50.3 9.6,51 C 9,51.6 9.2,52.5 10.1,53.7 C 11,54.8 11.1,55.1 10.3,54.6 C 9.6,54.2 8.5,53 7.9,51.8 C 7,50.2 7.1,49.9 8.2,50.5 C 8.9,50.8 8.7,50.5 7.8,49.7 C 6.8,48.9 6,47.7 6,47 C 6,46 6.3,46 7.5,47 C 8.3,47.7 9,47.9 9,47.5 C 9,47.1 9.8,47.4 10.7,48.1 C 11.9,49.1 11.8,48.6 10.3,46.4 C 9.1,44.7 8.3,42.2 8.4,40.7 C 8.6,39.3 8.4,38.3 8,38.5 C 7.5,38.8 7.5,35.5 7.7,31.2 C 8,27 8.3,22.3 8.4,20.8 C 8.5,19.2 8.8,18 9.3,18 C 9.7,18 9.9,17.4 9.8,16.8 C 9.6,16.1 10.3,15.6 11.3,15.7 C 12.4,15.7 12.9,15.3 12.6,14.5 C 12,12.7 15.6,9.5 16.5,11 C 17,11.8 17.6,11.8 18.6,10.9 C 19.3,10.3 19.7,9.4 19.5,8.9 C 18.2,6.9 29.4,2.2 31.4,3.9 C 32,4.4 33.4,5 34.5,5.3 C 36.5,5.8 36.5,5.8 34.5,5.9 C 33.4,5.9 31.9,5.6 31.1,5.1 C 30.1,4.5 28.6,4.7 26.6,5.7 C 24.7,6.7 24,7.5 24.8,7.8 C 25.8,8.1 25.7,8.7 24.3,10.2 C 22.6,12.2 22.6,12.2 26,10.1 C 29.5,8 37.7,7.1 36.5,9 C 36.2,9.5 34.7,9.7 33.2,9.4 C 31.3,9 29.7,9.5 28,10.9 C 25.9,12.7 25.8,12.9 27.5,12.4 C 29.5,11.8 29.5,11.8 27.5,13.1 C 26.4,13.7 23.9,15.8 21.9,17.7 C 19.3,20.2 18,20.8 17.5,19.9 C 16.9,19.1 17.1,18.9 18,19.5 C 18.9,20.1 19.1,19.9 18.5,19 C 17.9,18.1 18.1,17.9 19,18.5 C 19.9,19.1 20.1,18.9 19.5,18 C 18.9,17.1 19.1,16.9 20.1,17.5 C 20.9,18 21.2,18 20.8,17.5 C 20.4,17.1 20.5,16 21.2,15.1 C 21.8,14.2 21.1,14.7 19.5,16.2 C 17.1,18.5 15,23.7 17,22.5 C 17.4,22.3 17.5,23.2 17.2,24.5 C 17,25.9 16.5,27 16.1,27 C 15.1,27 16.1,41.3 17.2,42.7 C 17.7,43.4 17.8,44.5 17.4,45.1 C 17,45.8 17.1,46 17.7,45.7 C 18.3,45.3 19.2,46.2 19.9,47.6 C 21.5,51.1 21.2,52 19.5,49 C 18.7,47.6 18.1,47 18,47.6 C 18,49.3 20.8,52.6 21.6,51.7 C 22,51.3 23.6,52.1 25.1,53.6 C 27.2,55.6 27.7,56.9 27.3,59.1 C 26.9,62 26.9,62 31.8,62 C 34.7,62 37.2,62.6 37.8,63.3 C 39.3,65 38.2,71.7 36.3,72.4 C 35.3,72.8 35,72.5 35.4,71.2 z M 23.8,61.2 C 24.7,60.6 24.4,60 22.6,59 C 21.2,58.3 20.3,57.3 20.6,56.9 C 20.9,56.4 22.3,56.8 23.8,57.8 C 25.2,58.7 26.1,59 25.7,58.3 C 25.3,57.7 25.5,57 26.1,56.8 C 26.6,56.6 25.9,55.3 24.4,54 L 21.6,51.5 L 23.4,54.4 C 25.2,57.3 24.3,57.2 20.8,54.2 C 19.8,53.4 19,53.1 19,53.5 C 19,54 17.8,53.3 16.4,51.9 L 13.7,49.5 L 15.4,52.2 C 16.4,53.6 17.8,55.1 18.6,55.4 C 19.5,55.7 19.9,56.4 19.5,56.9 C 19.2,57.5 19.9,58.4 21.1,59 C 23.9,60.6 22.8,61.5 19.8,60 C 17.6,58.9 17.6,59 19.4,60.4 C 21.7,62.2 22,62.3 23.8,61.2 z M 13.2,46.1 C 12.3,44.5 11.4,43.3 11.1,43.5 C 10.7,44 13.8,49 14.5,49 C 14.7,49 14.1,47.7 13.2,46.1 z M 15.5,45.1 C 14.6,43.3 14.1,41.6 14.3,41.2 C 14.6,40.8 14.4,38.5 14,36 C 13.2,31.5 13.2,31.5 13.3,37.5 C 13.3,40.9 14,44.7 14.9,46.2 C 17,49.9 17.5,48.9 15.5,45.1 z M 10.6,31.8 L 10.8,24.5 L 9.9,30 C 9.2,34.5 9.4,39 10.3,39 C 10.4,39 10.6,35.7 10.6,31.8 z M 13.3,26.5 C 13.8,23.7 13.7,23.1 13,24.5 C 12.2,26.4 11.6,31.8 12.4,30.9 C 12.6,30.7 13,28.7 13.3,26.5 z M 11.9,17.5 C 11.9,17 11.5,17.2 11,18 C 10.5,18.8 10.1,20.2 10.1,21 C 10.1,22.6 11.8,19.4 11.9,17.5 z M 15.9,16.4 C 16.3,16.7 18,15.5 19.6,13.7 L 22.5,10.5 L 19.1,13.5 C 16.1,16.2 15.8,16.3 16.4,14.3 C 16.8,13 16.6,11.9 15.8,11.4 C 15.1,11 14.8,11 15.2,11.5 C 15.6,11.9 15.3,13.4 14.6,14.9 C 13.9,16.3 13,18.6 12.6,20 C 12.2,21.7 12.5,21.5 13.5,19.2 C 14.4,17.4 15.4,16.1 15.9,16.4 z M 22.4,7.9 C 22.1,7.4 21.4,7.2 20.9,7.6 C 20.4,7.9 20.2,8.6 20.6,9.1 C 20.9,9.6 21.6,9.8 22.1,9.4 C 22.6,9.1 22.8,8.4 22.4,7.9 z M 43.4,72.2 C 41.7,71.1 40.8,64.9 42.1,63.4 C 42.8,62.6 45.2,62 48.1,62 L 53,62 L 52.5,57.3 C 52.3,54.6 52.3,53.3 52.6,54.3 C 53.4,56.9 56,54.5 56,51.1 C 55.9,48.6 55.9,48.6 54.5,50.4 C 53.7,51.5 53,51.9 53,51.3 C 53,50.8 53.8,49.5 54.9,48.6 C 56.7,47 56.8,47 57.2,50.4 C 57.5,52.9 57.1,54.3 55.8,55.4 C 53.9,57.1 53.3,60 54.9,60 C 56.5,60 60.1,54.7 59.6,53.3 C 59.3,52.6 59.5,52 60.1,52 C 60.8,52 61,51 60.7,49.8 C 60.3,48.4 60.8,46.6 62,45 C 64.1,42.3 64.6,42.9 62.9,46.1 C 62.4,47.2 62,48.9 62.2,49.8 C 62.5,51.1 63.1,50.7 64.7,48.2 C 65.8,46.3 67,45.3 67.4,45.8 C 67.7,46.3 67.1,47.5 66,48.5 C 64.9,49.5 64.3,50.7 64.6,51.1 C 64.9,51.6 64.5,52 63.7,52 C 63,52 61.7,53.2 60.9,54.8 C 60.1,56.3 58.7,58.1 57.7,58.8 C 56.8,59.5 56.2,60.6 56.5,61.1 C 56.9,61.6 56.3,62 55.3,62 C 54.2,62 52.9,62.5 52.2,63.2 C 51.6,63.8 49.2,64.3 47,64.2 C 42.6,64 42.7,63.9 44.7,71.3 C 45.2,73.2 45,73.3 43.4,72.2 z M 30,69.5 C 29,68.3 29,68 30.4,68 C 31.3,68 32,68.7 32,69.5 C 32,71.4 31.6,71.4 30,69.5 z M 48,69.5 C 48,68.7 48.7,68 49.5,68 C 51.4,68 51.4,69.6 49.5,70.4 C 48.6,70.7 48,70.4 48,69.5 z M 22.3,66.5 C 17.2,64.4 17.4,62.9 22.6,64.5 C 27.9,66.1 28.6,66.6 26.7,67.3 C 26,67.6 24,67.2 22.3,66.5 z M 52.9,66.9 C 52.1,66.4 51.7,66 52,66 C 52.3,66 54.7,65.3 57.4,64.5 C 61.5,63.3 62,63.2 61.1,64.4 C 59.3,66.5 54.5,68 52.9,66.9 z M 63,56.6 C 63,56.4 63.7,55.9 64.6,55.6 C 65.4,55.3 65.8,55.4 65.5,56 C 64.9,57 63,57.4 63,56.6 z M 69,48.3 C 69,47.6 69.5,46.8 70,46.5 C 70.6,46.1 70.8,45.5 70.5,45 C 70.2,44.5 70.4,43.9 71,43.5 C 71.5,43.2 72,43.5 72,44.2 C 71.9,45.8 69,49.8 69,48.3 z M 7.6,45.5 C 7.3,44.6 6.6,44.1 6.1,44.4 C 5.6,44.7 5,44.4 4.7,43.6 C 4.4,42.8 4.9,42 6.1,41.7 C 7.1,41.4 7.7,41.6 7.4,42.1 C 7.1,42.7 7.4,43.8 8.1,44.6 C 8.7,45.4 9.1,46.3 8.8,46.6 C 8.5,46.9 8,46.4 7.6,45.5 z M 59.1,43.6 C 59,42.5 59.3,41.9 59.6,42.3 C 59.9,42.6 60,43.5 59.7,44.2 C 59.4,45 59.1,44.7 59.1,43.6 z M 67.1,39.6 C 69,36.4 69.5,33.4 68.4,30.6 C 68.1,29.7 67.4,29.3 66.9,29.6 C 66.4,29.9 66.3,29.4 66.6,28.6 C 67,27.5 66.4,26.7 64.8,26.1 C 63.5,25.6 61.8,24.4 61,23.4 C 59.6,21.6 59.7,21.6 61.8,23.4 C 63,24.5 64,24.8 64,24.2 C 64,22.6 61,19.9 59.9,20.6 C 59.4,20.9 59,20.4 59,19.5 C 59,18.3 59.4,18.1 60.9,18.9 C 61.9,19.5 63,19.6 63.4,19.3 C 63.7,19 64,19.6 64,20.6 C 64,21.7 64.7,23.5 65.5,24.6 C 66.9,26.4 66.9,26.4 67,24.2 C 67,23 66.3,20.8 65.4,19.5 C 64.1,17.5 62.9,17 59.3,17 C 52.4,17 48,13.8 53.5,12.8 C 54.9,12.5 56.5,12.9 57.1,13.6 C 58,14.8 57.6,14.9 54.9,14.4 C 52.9,14 51.8,14.1 52.3,14.6 C 52.8,15.1 55.1,15.5 57.4,15.5 C 60.6,15.5 61.6,15.2 61.6,13.9 C 61.6,13 60.9,12.3 60.1,12.4 C 59.4,12.5 58.5,11.8 58.2,11 C 57.7,9.7 57.9,9.7 59.3,10.9 C 60.3,11.6 61,11.8 61,11.2 C 61,10 58.5,7.9 57.8,8.6 C 57.5,8.8 57,8.4 56.6,7.5 C 56.2,6.2 56.4,6.1 58,7 C 60.3,8.2 63,11.9 63,13.8 C 63,15.5 66.5,20.1 67.3,19.4 C 67.6,19.1 68.1,21.6 68.5,25 C 69,29.7 69.5,31 70.6,30.6 C 71.7,30.2 71.8,30.5 71,32 C 69.7,34.4 69.7,37.3 71,36.5 C 71.5,36.2 71,37.4 69.7,39.3 C 66.9,43.6 64.5,43.8 67.1,39.6 z M 62,40.3 C 62,38.8 61.8,38.7 60.9,40 C 60,41.2 59.9,41.2 60.2,40.1 C 60.5,39.3 61.1,38.5 61.7,38.3 C 63.1,37.8 64.2,40.8 63,41.5 C 62.4,41.9 62,41.3 62,40.3 z M 5.4,40.3 C 5.8,39.6 5.7,39 5.2,39 C 4.6,39 3.7,37.7 3.2,36 C 2.4,33.8 2.4,33.1 3.3,33.3 C 4.6,33.5 4.7,31.6 3.5,28.7 C 2.9,27.4 3.1,27.1 4.5,27.6 C 5.9,28.2 6.1,27.7 5.6,24.4 C 5.1,21.7 5.2,21.1 5.8,22.5 C 6.9,25 6.7,39.7 5.5,40.7 C 5.1,41.2 5,40.9 5.4,40.3 z M 63.6,36.3 C 62.2,34.8 61,33.1 61,32.6 C 61,32.2 61.9,32.8 63.1,34.1 L 65.1,36.5 L 64.6,33.8 C 64.2,32.2 64.4,31 64.9,31 C 65.7,31 67.1,38 66.5,38.8 C 66.3,39 65,37.9 63.6,36.3 z M 72.7,30 C 72.4,28.9 72.6,28 73.1,28 C 73.6,28 74,28.9 74,30 C 74,32.6 73.4,32.6 72.7,30 z M 60.1,29.3 C 59.9,27.3 61.7,26.9 63.1,28.8 C 64.4,30.3 64.3,30.4 62.8,29.2 C 61.5,28.2 61.1,28.2 60.7,29.2 C 60.3,30.1 60.1,30.1 60.1,29.3 z M 69.2,21 C 69.2,19.1 69.4,18.3 69.7,19.3 C 69.9,20.2 69.9,21.8 69.7,22.8 C 69.4,23.7 69.2,22.9 69.2,21 z M 7.1,21.6 C 7,20.5 7.3,19.9 7.6,20.3 C 7.9,20.6 8,21.5 7.7,22.2 C 7.4,23 7.1,22.7 7.1,21.6 z M 53.5,11 C 53.2,10.5 50.6,10.3 47.7,10.5 C 43.6,10.9 43,10.8 45,10 C 47.3,9.1 47.3,9.1 44.3,9.4 C 42.5,9.5 41,9.3 41,8.8 C 41,8.4 41.9,8 43,8 C 45,8 45.3,6.1 43.5,4.8 C 42.1,3.8 47.3,4.4 49,5.5 C 50,6.1 50.2,5.9 49.7,4.4 C 49,2.6 49,2.6 50.5,4.4 C 51.3,5.5 52,6.7 52,7.2 C 52,7.6 53.2,8.6 54.6,9.3 C 56.7,10.4 56.9,10.8 55.7,11.3 C 54.8,11.6 53.8,11.5 53.5,11 z M 50.7,7.7 C 50.7,7 49.4,6.3 47.6,6.2 C 44.7,6 44.6,6.1 46.4,7.5 C 48.8,9.3 50.7,9.4 50.7,7.7 z M 27.4,6.5 C 28.4,5.7 29.7,5.3 30.3,5.7 C 31.4,6.4 29.1,8 27,8 C 25.8,7.9 25.9,7.6 27.4,6.5 z M 32,3 C 32,2.5 32.7,2 33.6,2 C 34.4,2 34.8,2.5 34.5,3 C 33.7,4.3 32,4.3 32,3 z M 45,2 C 45,0.7 46.7,0.7 47.5,2 C 47.8,2.6 47.4,3 46.6,3 C 45.7,3 45,2.6 45,2 z "
         style="fill:#27513b"
         id="path36" />
    </g>
  </g>
</svg>
