<?xml version="1.0" encoding="UTF-8" standalone="no"?>
<!-- Created with Inkscape (http://www.inkscape.org/) -->
<svg
   xmlns:dc="http://purl.org/dc/elements/1.1/"
   xmlns:cc="http://creativecommons.org/ns#"
   xmlns:rdf="http://www.w3.org/1999/02/22-rdf-syntax-ns#"
   xmlns:svg="http://www.w3.org/2000/svg"
   xmlns="http://www.w3.org/2000/svg"
   xmlns:sodipodi="http://sodipodi.sourceforge.net/DTD/sodipodi-0.dtd"
   xmlns:inkscape="http://www.inkscape.org/namespaces/inkscape"
   width="450"
   height="300"
   id="svg2"
   sodipodi:version="0.32"
   inkscape:version="0.46"
   version="1.0"
   sodipodi:docname="Flag of Kuwait (1909-1915).svg"
   inkscape:output_extension="org.inkscape.output.svg.inkscape">
  <defs
     id="defs4">
    <inkscape:perspective
       sodipodi:type="inkscape:persp3d"
       inkscape:vp_x="0 : 526.18109 : 1"
       inkscape:vp_y="0 : 1000 : 0"
       inkscape:vp_z="744.09448 : 526.18109 : 1"
       inkscape:persp3d-origin="372.04724 : 350.78739 : 1"
       id="perspective10" />
    <inkscape:perspective
       id="perspective2478"
       inkscape:persp3d-origin="372.04724 : 350.78739 : 1"
       inkscape:vp_z="744.09448 : 526.18109 : 1"
       inkscape:vp_y="0 : 1000 : 0"
       inkscape:vp_x="0 : 526.18109 : 1"
       sodipodi:type="inkscape:persp3d" />
    <inkscape:perspective
       id="perspective5128"
       inkscape:persp3d-origin="180.00015 : 80 : 1"
       inkscape:vp_z="360.00031 : 120 : 1"
       inkscape:vp_y="0 : 1000 : 0"
       inkscape:vp_x="0 : 120 : 1"
       sodipodi:type="inkscape:persp3d" />
    <inkscape:perspective
       id="perspective5380"
       inkscape:persp3d-origin="600 : 266.66667 : 1"
       inkscape:vp_z="1200 : 400 : 1"
       inkscape:vp_y="0 : 1000 : 0"
       inkscape:vp_x="0 : 400 : 1"
       sodipodi:type="inkscape:persp3d" />
    <inkscape:perspective
       sodipodi:type="inkscape:persp3d"
       inkscape:vp_x="0 : 400 : 1"
       inkscape:vp_y="0 : 1000 : 0"
       inkscape:vp_z="1200 : 400 : 1"
       inkscape:persp3d-origin="600 : 266.66667 : 1"
       id="perspective6573" />
    <inkscape:perspective
       sodipodi:type="inkscape:persp3d"
       inkscape:vp_x="0 : 120 : 1"
       inkscape:vp_y="0 : 1000 : 0"
       inkscape:vp_z="360.00031 : 120 : 1"
       inkscape:persp3d-origin="180.00015 : 80 : 1"
       id="perspective6571" />
    <inkscape:perspective
       sodipodi:type="inkscape:persp3d"
       inkscape:vp_x="0 : 526.18109 : 1"
       inkscape:vp_y="0 : 1000 : 0"
       inkscape:vp_z="744.09448 : 526.18109 : 1"
       inkscape:persp3d-origin="372.04724 : 350.78739 : 1"
       id="perspective6569" />
    <inkscape:perspective
       id="perspective6567"
       inkscape:persp3d-origin="372.04724 : 350.78739 : 1"
       inkscape:vp_z="744.09448 : 526.18109 : 1"
       inkscape:vp_y="0 : 1000 : 0"
       inkscape:vp_x="0 : 526.18109 : 1"
       sodipodi:type="inkscape:persp3d" />
    <inkscape:perspective
       id="perspective7001"
       inkscape:persp3d-origin="372.04724 : 350.78739 : 1"
       inkscape:vp_z="744.09448 : 526.18109 : 1"
       inkscape:vp_y="0 : 1000 : 0"
       inkscape:vp_x="0 : 526.18109 : 1"
       sodipodi:type="inkscape:persp3d" />
  </defs>
  <sodipodi:namedview
     id="base"
     pagecolor="#ffffff"
     bordercolor="#666666"
     borderopacity="1.0"
     gridtolerance="10000"
     guidetolerance="10"
     objecttolerance="10"
     inkscape:pageopacity="0.0"
     inkscape:pageshadow="2"
     inkscape:zoom="1.6966667"
     inkscape:cx="225"
     inkscape:cy="150"
     inkscape:document-units="px"
     inkscape:current-layer="layer1"
     showgrid="true"
     showguides="true"
     inkscape:guide-bbox="true"
     inkscape:window-width="1366"
     inkscape:window-height="716"
     inkscape:window-x="-8"
     inkscape:window-y="-8">
    <sodipodi:guide
       orientation="0,1"
       position="485.06876,68.958743"
       id="guide5396" />
    <sodipodi:guide
       orientation="0,1"
       position="533.98821,231.04126"
       id="guide5398" />
  </sodipodi:namedview>
  <metadata
     id="metadata7">
    <rdf:RDF>
      <cc:Work
         rdf:about="">
        <dc:format>image/svg+xml</dc:format>
        <dc:type
           rdf:resource="http://purl.org/dc/dcmitype/StillImage" />
      </cc:Work>
    </rdf:RDF>
  </metadata>
  <g
     inkscape:label="Layer 1"
     inkscape:groupmode="layer"
     id="layer1">
    <path
       style="fill:#ce1126;fill-opacity:1;fill-rule:nonzero;stroke:none"
       d="M 0,-5.5511151e-15 L 450,-5.5511151e-15 C 449.9999,100.00007 449.99984,199.99985 450,300 L 0,300 L 0,-5.5511151e-15 z"
       id="path12" />
    <g
       transform="matrix(0.4965642,0,0,0.4444886,306.77657,-1.4482527)"
       id="g3242"
       style="fill:#ffffff">
      <path
         style="fill:#ffffff;fill-rule:nonzero;stroke:none"
         d="M 301.96875,61.53125 C 285.91457,61.825078 269.80784,61.537631 253.78125,62.4375 C 253.69109,71.656231 254.35811,81.005696 252.40625,90.09375 C 249.97737,103.7299 243.63109,117.24535 232.3125,125.6875 C 228.83571,114.93954 221.97304,104.3672 210.9375,100.3125 C 202.59928,96.196442 191.61154,101.12298 188.6875,109.8125 C 186.41935,117.34935 188.20389,125.47204 191.375,132.46875 C 195.91484,142.48371 205.5508,149.16375 215.625,152.84375 C 211.55082,160.90375 205.61875,168.13002 197.90625,172.9375 C 184.62938,181.50821 168.16915,183.70051 152.6875,182.46875 C 138.9276,177.48504 127.68088,166.84629 120.8125,154.03125 C 120.06579,153.92066 118.59045,153.70434 117.84375,153.59375 C 115.62226,171.73773 127.99469,188.02602 142.0625,198 C 164.70911,208.60789 192.03644,202.23543 211.3125,187.53125 C 221.49864,177.69078 229.10231,164.62557 229.96875,150.25 C 238.13999,145.78489 245.80727,140.21979 251.5625,132.8125 C 263.02582,118.58834 267.47443,100.19031 268.84375,82.3125 C 279.88319,82.11507 290.92783,82.382511 301.96875,82.1875 C 301.98829,75.308705 301.99448,68.409435 301.96875,61.53125 z M 206.1875,114.9375 C 208.07239,114.89277 210.0194,116.18377 211.53125,117.1875 C 215.77311,120.82924 220.26204,125.3043 220.53125,131.25 C 220.91941,134.42432 217.22599,137.16317 214.34375,135.6875 C 208.13077,132.82027 202.97539,126.87939 201.96875,120 C 201.42137,118.0033 202.70503,116.40759 204.34375,115.46875 C 204.94002,115.10139 205.5592,114.95241 206.1875,114.9375 z"
         transform="scale(0.8,0.8)"
         id="path20" />
      <path
         id="path24"
         d="M 38.355728,68.190491 C 44.573227,66.953339 49.459229,73.718979 48.640579,79.447906 C 48.105591,83.717041 44.580643,88.162079 39.996704,88.119736 C 34.557251,88.726837 30.299286,83.054901 30.557678,77.98645 C 30.433868,73.553711 33.75296,68.658661 38.355728,68.190491 z"
         style="fill:#ffffff;fill-rule:nonzero;stroke:none" />
      <path
         id="path28"
         d="M 58.476349,68.438797 C 63.859467,66.435806 68.950058,71.922302 69.116119,77.056351 C 70.055099,81.951767 66.99411,86.726624 62.483612,88.43927 C 58.861069,89.621262 55.654053,86.799011 53.867172,83.940231 C 51.300537,78.619324 52.795715,71.069473 58.476349,68.438797 z"
         style="fill:#ffffff;fill-rule:nonzero;stroke:none" />
      <path
         id="path32"
         d="M 75.99086,98.973389 C 86.068314,93.738281 94.287155,85.633881 101.65726,77.127731 C 109.03082,83.306061 118.05362,88.660919 128.00636,88.239288 C 132.42989,88.422607 136.65692,86.803268 141.05974,86.776886 C 137.68028,95.59166 128.85652,101.26949 119.73619,102.50893 C 113.85841,102.98187 108.03481,101.62588 102.40048,100.10017 C 96.132645,108.31053 87.650146,115.15002 77.442337,117.59279 C 62.23291,121.58577 45.65007,117.08153 33.26593,107.76721 C 25.807678,101.63544 19.276428,93.406387 17.797195,83.621918 C 27.680038,89.056778 35.204407,98.591156 46.426407,101.56703 C 56.135086,104.07454 67.022141,103.83257 75.99086,98.973389 z"
         style="fill:#ffffff;fill-rule:nonzero;stroke:none" />
      <path
         id="path40"
         d="M 143.42767,111.48172 C 150.92734,109.50426 157.62607,118.58572 154.1976,125.3208 C 151.83498,131.35751 142.99574,133.49042 138.66322,128.34135 C 132.90205,123.425 135.94336,112.62251 143.42767,111.48172 z"
         style="fill:#ffffff;fill-rule:nonzero;stroke:none" />
      <path
         id="path44"
         d="M 121.29729,114.10313 C 127.3461,112.61702 132.5887,119.19261 131.65329,124.88139 C 131.39275,130.29907 125.52683,135.15242 120.15593,133.09821 C 115.50916,131.11238 112.62492,125.27132 114.49651,120.40091 C 115.68396,117.48331 118.03005,114.6366 121.29729,114.10313 z"
         style="fill:#ffffff;fill-rule:nonzero;stroke:none" />
    </g>
    <path
       id="circle5369"
       style="fill:#ffffff"
       d="M 252.90408,229.86247 C 297.1844,229.86247 333.12208,193.92481 333.12208,149.64448 C 333.12208,105.36414 297.1844,69.426477 252.90408,69.426477 C 224.37421,69.426477 199.31747,84.346593 185.09477,106.80307 C 196.84627,93.71307 213.88717,85.47006 232.84955,85.47006 C 268.27383,85.47006 297.02394,114.22021 297.02394,149.64448 C 297.02394,185.06875 268.27383,213.81891 232.84955,213.81891 C 213.88717,213.81891 196.84627,205.57587 185.09477,192.48589 C 199.31747,214.94237 224.37421,229.86247 252.90408,229.86247 z M 189.39787,149.64448 L 116.84026,126.06881 L 161.6837,187.79056 L 161.6837,111.4984 L 116.84026,173.22013 L 189.39787,149.64448 z" />
  </g>
</svg>
