<?xml version="1.0" encoding="UTF-8" standalone="no"?>
<!-- Created with Inkscape (http://www.inkscape.org/) -->

<svg
   xmlns:dc="http://purl.org/dc/elements/1.1/"
   xmlns:cc="http://creativecommons.org/ns#"
   xmlns:rdf="http://www.w3.org/1999/02/22-rdf-syntax-ns#"
   xmlns:svg="http://www.w3.org/2000/svg"
   xmlns="http://www.w3.org/2000/svg"
   xmlns:sodipodi="http://sodipodi.sourceforge.net/DTD/sodipodi-0.dtd"
   xmlns:inkscape="http://www.inkscape.org/namespaces/inkscape"
   width="700"
   height="499.99979"
   id="svg3102"
   version="1.1"
   inkscape:version="0.48.1 "
   sodipodi:docname="albania 1914.svg">
  <defs
     id="defs3104" />
  <sodipodi:namedview
     id="base"
     pagecolor="#ffffff"
     bordercolor="#666666"
     borderopacity="1.0"
     inkscape:pageopacity="0.0"
     inkscape:pageshadow="2"
     inkscape:zoom="0.7"
     inkscape:cx="269.58637"
     inkscape:cy="211.94274"
     inkscape:document-units="px"
     inkscape:current-layer="layer1"
     showgrid="false"
     fit-margin-top="0"
     fit-margin-left="0"
     fit-margin-right="0"
     fit-margin-bottom="0"
     inkscape:window-width="1366"
     inkscape:window-height="706"
     inkscape:window-x="-8"
     inkscape:window-y="-8"
     inkscape:window-maximized="1" />
  <metadata
     id="metadata3107">
    <rdf:RDF>
      <cc:Work
         rdf:about="">
        <dc:format>image/svg+xml</dc:format>
        <dc:type
           rdf:resource="http://purl.org/dc/dcmitype/StillImage" />
        <dc:title></dc:title>
      </cc:Work>
    </rdf:RDF>
  </metadata>
  <g
     inkscape:label="Layer 1"
     inkscape:groupmode="layer"
     id="layer1"
     transform="translate(-15.714286,-268.07657)">
    <g
       id="g3223">
      <rect
         inkscape:export-ydpi="90.000038"
         inkscape:export-xdpi="90.000038"
         inkscape:export-filename="C:\Users\Administrator\Desktop\rect4339.png"
         y="268.07657"
         x="15.714286"
         height="499.99979"
         width="700"
         id="rect4339"
         style="fill:#990000;fill-opacity:1;stroke:none" />
      <g
         transform="matrix(0.71282968,0,0,0.71283087,116.22386,339.87254)"
         id="g3091">
        <g
           id="g4281"
           transform="matrix(1.1857793,0,0,1.1837835,-10.0216,-116.17333)">
          <path
             inkscape:connector-curvature="0"
             id="path4216"
             d="m 247.6875,367.40625 c -4.68395,0 -5.62825,4.88781 -4.375,7.90625 0.66368,-0.3542 1.47281,-0.5625 2.4375,-0.5625 3.13646,0 7.06216,0.11841 9.375,1.125 1.50628,-0.79516 2.79589,-1.90784 3.5625,-3.53125 2.14657,-4.54569 -5.62718,-4.9375 -11,-4.9375 z"
             style="fill:#ffd600;fill-opacity:1;stroke:#000000;stroke-width:1px;stroke-linecap:butt;stroke-linejoin:miter;stroke-opacity:1" />
          <path
             inkscape:connector-curvature="0"
             id="path4230"
             d="m 250.75,352.0625 c -5.59572,0 -5.90939,6.93903 -3.4375,9.375 0.52895,-0.18542 1.13239,-0.28125 1.8125,-0.28125 2.03529,0 4.41417,0.058 6.46875,0.375 2.59748,-0.71364 4.94666,-2.0672 6.125,-4.5625 2.14657,-4.54569 -5.59593,-4.90625 -10.96875,-4.90625 z"
             style="fill:#ffd600;fill-opacity:1;stroke:#000000;stroke-width:1px;stroke-linecap:butt;stroke-linejoin:miter;stroke-opacity:1" />
          <path
             inkscape:connector-curvature="0"
             id="path4214"
             d="m 249.125,361.15625 c -4.40303,0 -5.54582,4.31942 -4.625,7.34375 0.76916,-0.66961 1.81469,-1.09375 3.1875,-1.09375 3.46319,0 7.90396,0.16692 10.0625,1.5 0.97755,-0.72058 1.8211,-1.63953 2.375,-2.8125 2.14657,-4.54569 -5.62718,-4.9375 -11,-4.9375 z"
             style="fill:#ffd600;fill-opacity:1;stroke:#000000;stroke-width:1px;stroke-linecap:butt;stroke-linejoin:miter;stroke-opacity:1" />
          <path
             inkscape:connector-curvature="0"
             id="path4218"
             d="m 245.75,374.75 c -5.45275,0 -5.89333,6.5957 -3.625,9.1875 0.15498,-0.0147 0.30235,-0.0312 0.46875,-0.0312 2.16925,0 4.82134,0.0932 6.71875,0.625 0.009,0.003 0.0219,-0.003 0.0312,0 3.06933,-0.60636 6.01011,-1.98463 7.375,-4.875 2.14662,-4.54574 -5.59588,-4.9063 -10.9687,-4.9063 z"
             style="fill:#ffd600;fill-opacity:1;stroke:#000000;stroke-width:1px;stroke-linecap:butt;stroke-linejoin:miter;stroke-opacity:1" />
          <path
             inkscape:connector-curvature="0"
             id="path4220"
             d="m 242.59375,383.90625 c -4.26585,0 -4.74511,4.97599 -3.125,7.21875 0.19921,-0.0252 0.40603,-0.0625 0.625,-0.0625 2.04369,0 4.50957,0.0786 6.375,0.53125 2.13169,-0.57463 4.06589,-1.64322 5.03125,-3.6875 1.74188,-3.6887 -4.54637,-4 -8.90625,-4 z"
             style="fill:#ffd600;fill-opacity:1;stroke:#000000;stroke-width:0.81147045px;stroke-linecap:butt;stroke-linejoin:miter;stroke-opacity:1" />
          <path
             inkscape:connector-curvature="0"
             id="path4222"
             d="m 240.09375,391.0625 c -4.02447,0 -4.67367,4.42708 -3.375,6.8125 2.44621,0.0291 5.2267,0.17557 6.875,0.96875 2.27762,-0.54457 4.38424,-1.61701 5.40625,-3.78125 1.74188,-3.6887 -4.54637,-4 -8.90625,-4 z"
             style="fill:#ffd600;fill-opacity:1;stroke:#000000;stroke-width:0.81147045px;stroke-linecap:butt;stroke-linejoin:miter;stroke-opacity:1" />
          <path
             inkscape:connector-curvature="0"
             id="path4224"
             d="m 235.8125,397.84375 c -3.72238,0 -4.54701,3.79245 -3.625,6.25 0.0753,-0.003 0.14098,0 0.21875,0 2.77942,0 6.34905,0.14009 8.125,1.1875 1.78845,-0.62623 3.35192,-1.66804 4.1875,-3.4375 1.74188,-3.6887 -4.54637,-4 -8.90625,-4 z"
             style="fill:#ffd600;fill-opacity:1;stroke:#000000;stroke-width:0.81147045px;stroke-linecap:butt;stroke-linejoin:miter;stroke-opacity:1" />
          <path
             inkscape:connector-curvature="0"
             id="path4226"
             d="m 232.40625,404.09375 c -3.20963,0 -4.2637,2.83438 -3.90625,5.1875 3.48265,0.0517 7.58731,0.42464 8.0625,2.4375 2.02113,-0.59421 3.85809,-1.67008 4.78125,-3.625 1.74188,-3.6887 -4.57762,-4 -8.9375,-4 z"
             style="fill:#ffd600;fill-opacity:1;stroke:#000000;stroke-width:0.81147045px;stroke-linecap:butt;stroke-linejoin:miter;stroke-opacity:1" />
          <path
             style="fill:#ffd600;fill-opacity:1;stroke:#000000;stroke-width:0.81147045px;stroke-linecap:butt;stroke-linejoin:miter;stroke-opacity:1"
             d="m 227.41464,409.27228 c -5.50355,0 -4.71332,8.29956 -1.22956,8.29956 3.48376,0 8.40201,-0.61479 10.14389,-4.30347 1.74188,-3.6887 -4.55445,-3.99609 -8.91433,-3.99609 z"
             id="path4228"
             inkscape:connector-curvature="0"
             sodipodi:nodetypes="ssss" />
          <path
             inkscape:connector-curvature="0"
             id="path4210"
             d="m 257.5889,362.93307 c -13.63706,30.80965 -22.72843,48.9924 -30.55712,52.02286 -7.82868,3.03045 -14.39467,-3.03046 -19.95051,-3.03046 -5.55584,0 -9.84899,7.3236 -6.31345,10.85914 3.53553,3.53553 35.1028,6.06091 35.1028,6.06091 0,0 6.06091,-20.96066 23.99112,-53.53808 17.93021,-32.57742 -2.27284,-12.37437 -2.27284,-12.37437 z"
             style="fill:#ffd600;fill-opacity:1;stroke:#000000;stroke-width:1px;stroke-linecap:butt;stroke-linejoin:miter;stroke-opacity:1" />
          <path
             inkscape:connector-curvature="0"
             id="path4269"
             d="m 229.55717,439.19959 c 1.26269,9.84898 -2.02031,15.15229 -6.81853,15.15229 -4.79823,0 -5.55584,-14.89975 -2.02031,-16.66752 3.53554,-1.76777 8.83884,1.51523 8.83884,1.51523 z"
             style="fill:#ffd600;fill-opacity:1;stroke:#000000;stroke-width:1px;stroke-linecap:butt;stroke-linejoin:miter;stroke-opacity:1" />
          <path
             inkscape:connector-curvature="0"
             id="path4273"
             d="m 212.88965,436.92674 c 1.26269,9.84898 -2.02031,15.15229 -6.81853,15.15229 -4.79823,0 -5.55584,-14.89975 -2.02031,-16.66752 3.53554,-1.76777 8.83884,1.51523 8.83884,1.51523 z"
             style="fill:#ffd600;fill-opacity:1;stroke:#000000;stroke-width:1px;stroke-linecap:butt;stroke-linejoin:miter;stroke-opacity:1" />
          <path
             style="fill:#ffd600;fill-opacity:1;stroke:#000000;stroke-width:1px;stroke-linecap:butt;stroke-linejoin:miter;stroke-opacity:1"
             d="m 221.22341,438.44197 c 1.26269,9.84898 -2.02031,15.15229 -6.81853,15.15229 -4.79823,0 -5.55584,-14.89975 -2.02031,-16.66752 3.53554,-1.76777 8.83884,1.51523 8.83884,1.51523 z"
             id="path4271"
             inkscape:connector-curvature="0" />
          <path
             sodipodi:nodetypes="ccccccccccccccccccccsccccccccccccccccccc"
             inkscape:connector-curvature="0"
             id="path4208"
             d="m 179.46429,410.75504 c 20,17.85714 56.96428,19.82142 78.92857,12.14286 -1.25,8.21428 -1.25,9.10714 -1.25,9.10714 0,0 10.35714,-2.14286 16.07143,-7.67857 -3.03572,-2.67857 -3.57143,-4.46429 -3.57143,-4.46429 0,0 14.28571,-0.35714 16.60714,-7.85714 -0.35714,14.64286 -7.32143,20.17857 -7.32143,20.17857 -0.17857,-7.14286 -1.78571,-7.67857 -1.78571,-7.67857 0,0 -10.71429,14.64286 -28.57143,14.64286 3.70043,-6.40934 5.17857,-10.17858 5.17857,-10.17858 0,0 -13.92857,4.64286 -21.42857,5.53572 9.64286,6.78571 13.03571,12.67857 15.71428,15.35714 4.28572,-3.03571 5.89286,-5.17857 5.89286,-5.17857 0,0 6.25,11.25 12.67857,13.21429 1.78572,-7.67858 0.89286,-10 0.89286,-10 0,0 3.92857,14.10714 9.64286,16.60714 -6.96429,2.14286 -18.21429,0.89286 -18.21429,0.89286 3.92857,-1.25 4.10714,-5.35715 4.10714,-5.35715 -3.75,0.35715 -8.92857,-6.42857 -8.92857,-6.42857 0,0 -5,3.75 -5.53571,6.07143 -3.75,-4.28571 -22.14286,-23.21429 -38.21429,-23.21429 -16.07143,0 -30.17857,6.25 -30.17857,6.25 2.5,2.14286 4.46429,5 4.46429,5 0,0 -7.32143,-4.10714 -21.42857,10.53572 3.03571,0.71428 5.35714,5 5.35714,5 -6.07143,0.53571 -13.03572,3.92857 -15.89286,6.07143 -1.42857,-6.78572 1.60714,-16.07143 5,-20.35715 0.35714,4.28572 1.60714,5.35715 1.60714,5.35715 3.92858,-5.71429 11.07143,-9.64286 14.10715,-10.71429 -3.21429,-1.07143 -3.39286,-5.35714 -2.67857,-4.82143 5.71428,-3.39285 16.07142,-6.60714 23.75,-6.78571 -16.25,-9.10714 -22.5,-21.60714 -23.75,-28.03572 3.03571,3.03572 9.28571,2.32143 9.28571,2.32143 0,0 -1.25,-5.17857 -1.25,-8.92857 -5.35714,0.89286 -8.57143,-0.35714 -8.57143,-0.35714 4.64286,-5.71429 10.89286,-19.64286 10.89286,-19.64286 1.07143,9.28572 10.17857,20.35714 10.17857,20.35714 -3.57143,-1.60714 -8.57143,0.35715 -8.57143,0.35715 0.53572,2.85714 3.57143,10.71428 6.60714,12.32143 -3.39285,0.89285 -9.82142,0.35714 -9.82142,0.35714 z"
             style="fill:#ffd600;fill-opacity:1;stroke:#000000;stroke-width:1px;stroke-linecap:butt;stroke-linejoin:miter;stroke-opacity:1" />
          <path
             inkscape:connector-curvature="0"
             id="path4212"
             d="m 206.07112,416.84996 c 5.93465,0 5.3033,3.6618 5.3033,5.17703 0,1.51523 -6.81853,9.59645 -4.41942,13.25826 -5.05076,-2.90419 -10.35406,-18.43529 -0.88388,-18.43529 z"
             style="fill:#ffd600;fill-opacity:1;stroke:#000000;stroke-width:1px;stroke-linecap:butt;stroke-linejoin:miter;stroke-opacity:1" />
          <path
             style="fill:#ffd600;fill-opacity:1;stroke:#000000;stroke-width:1;stroke-linecap:butt;stroke-linejoin:miter;stroke-miterlimit:4;stroke-opacity:1;stroke-dasharray:none"
             d="m 207.00636,442.35631 c 2.99368,0 2.6752,-1.84715 2.6752,-2.6115 0,-0.76434 -3.43953,-4.84082 -2.22933,-6.68798 -2.54781,1.46498 -5.223,9.29948 -0.44587,9.29948 z"
             id="path4275"
             inkscape:connector-curvature="0" />
          <path
             inkscape:connector-curvature="0"
             id="path4277"
             d="m 216.22831,442.05828 c 2.96631,0.40384 2.89992,-1.46938 3.00303,-2.22675 0.10311,-0.75735 -2.75506,-5.26056 -1.30675,-6.92758 -2.72214,1.10789 -6.42975,8.5099 -1.69628,9.15433 z"
             style="fill:#ffd600;fill-opacity:1;stroke:#000000;stroke-width:1;stroke-linecap:butt;stroke-linejoin:miter;stroke-miterlimit:4;stroke-opacity:1;stroke-dasharray:none" />
          <path
             style="fill:#ffd600;fill-opacity:1;stroke:#000000;stroke-width:1;stroke-linecap:butt;stroke-linejoin:miter;stroke-miterlimit:4;stroke-opacity:1;stroke-dasharray:none"
             d="m 225.06714,444.33112 c 2.96631,0.40384 2.89992,-1.46938 3.00303,-2.22675 0.10311,-0.75735 -2.75506,-5.26056 -1.30675,-6.92758 -2.72214,1.10789 -6.42975,8.5099 -1.69628,9.15433 z"
             id="path4279"
             inkscape:connector-curvature="0" />
        </g>
        <g
           id="g4301"
           inkscape:transform-center-x="-99.523476"
           inkscape:transform-center-y="8.3706056"
           transform="matrix(-1.1857783,0,0,1.1837842,710.02143,-116.17366)">
          <path
             style="fill:#ffd600;fill-opacity:1;stroke:#000000;stroke-width:1px;stroke-linecap:butt;stroke-linejoin:miter;stroke-opacity:1"
             d="m 247.6875,367.40625 c -4.68395,0 -5.62825,4.88781 -4.375,7.90625 0.66368,-0.3542 1.47281,-0.5625 2.4375,-0.5625 3.13646,0 7.06216,0.11841 9.375,1.125 1.50628,-0.79516 2.79589,-1.90784 3.5625,-3.53125 2.14657,-4.54569 -5.62718,-4.9375 -11,-4.9375 z"
             id="path4303"
             inkscape:connector-curvature="0" />
          <path
             style="fill:#ffd600;fill-opacity:1;stroke:#000000;stroke-width:1px;stroke-linecap:butt;stroke-linejoin:miter;stroke-opacity:1"
             d="m 250.75,352.0625 c -5.59572,0 -5.90939,6.93903 -3.4375,9.375 0.52895,-0.18542 1.13239,-0.28125 1.8125,-0.28125 2.03529,0 4.41417,0.058 6.46875,0.375 2.59748,-0.71364 4.94666,-2.0672 6.125,-4.5625 2.14657,-4.54569 -5.59593,-4.90625 -10.96875,-4.90625 z"
             id="path4305"
             inkscape:connector-curvature="0" />
          <path
             style="fill:#ffd600;fill-opacity:1;stroke:#000000;stroke-width:1px;stroke-linecap:butt;stroke-linejoin:miter;stroke-opacity:1"
             d="m 249.125,361.15625 c -4.40303,0 -5.54582,4.31942 -4.625,7.34375 0.76916,-0.66961 1.81469,-1.09375 3.1875,-1.09375 3.46319,0 7.90396,0.16692 10.0625,1.5 0.97755,-0.72058 1.8211,-1.63953 2.375,-2.8125 2.14657,-4.54569 -5.62718,-4.9375 -11,-4.9375 z"
             id="path4307"
             inkscape:connector-curvature="0" />
          <path
             style="fill:#ffd600;fill-opacity:1;stroke:#000000;stroke-width:1px;stroke-linecap:butt;stroke-linejoin:miter;stroke-opacity:1"
             d="m 245.75,374.75 c -5.45275,0 -5.89333,6.5957 -3.625,9.1875 0.15498,-0.0147 0.30235,-0.0312 0.46875,-0.0312 2.16925,0 4.82134,0.0932 6.71875,0.625 0.009,0.003 0.0219,-0.003 0.0312,0 3.06933,-0.60636 6.01011,-1.98463 7.375,-4.875 2.14662,-4.54574 -5.59588,-4.9063 -10.9687,-4.9063 z"
             id="path4309"
             inkscape:connector-curvature="0" />
          <path
             style="fill:#ffd600;fill-opacity:1;stroke:#000000;stroke-width:0.81147045px;stroke-linecap:butt;stroke-linejoin:miter;stroke-opacity:1"
             d="m 242.59375,383.90625 c -4.26585,0 -4.74511,4.97599 -3.125,7.21875 0.19921,-0.0252 0.40603,-0.0625 0.625,-0.0625 2.04369,0 4.50957,0.0786 6.375,0.53125 2.13169,-0.57463 4.06589,-1.64322 5.03125,-3.6875 1.74188,-3.6887 -4.54637,-4 -8.90625,-4 z"
             id="path4311"
             inkscape:connector-curvature="0" />
          <path
             style="fill:#ffd600;fill-opacity:1;stroke:#000000;stroke-width:0.81147045px;stroke-linecap:butt;stroke-linejoin:miter;stroke-opacity:1"
             d="m 240.09375,391.0625 c -4.02447,0 -4.67367,4.42708 -3.375,6.8125 2.44621,0.0291 5.2267,0.17557 6.875,0.96875 2.27762,-0.54457 4.38424,-1.61701 5.40625,-3.78125 1.74188,-3.6887 -4.54637,-4 -8.90625,-4 z"
             id="path4313"
             inkscape:connector-curvature="0" />
          <path
             style="fill:#ffd600;fill-opacity:1;stroke:#000000;stroke-width:0.81147045px;stroke-linecap:butt;stroke-linejoin:miter;stroke-opacity:1"
             d="m 235.8125,397.84375 c -3.72238,0 -4.54701,3.79245 -3.625,6.25 0.0753,-0.003 0.14098,0 0.21875,0 2.77942,0 6.34905,0.14009 8.125,1.1875 1.78845,-0.62623 3.35192,-1.66804 4.1875,-3.4375 1.74188,-3.6887 -4.54637,-4 -8.90625,-4 z"
             id="path4315"
             inkscape:connector-curvature="0" />
          <path
             style="fill:#ffd600;fill-opacity:1;stroke:#000000;stroke-width:0.81147045px;stroke-linecap:butt;stroke-linejoin:miter;stroke-opacity:1"
             d="m 232.40625,404.09375 c -3.20963,0 -4.2637,2.83438 -3.90625,5.1875 3.48265,0.0517 7.58731,0.42464 8.0625,2.4375 2.02113,-0.59421 3.85809,-1.67008 4.78125,-3.625 1.74188,-3.6887 -4.57762,-4 -8.9375,-4 z"
             id="path4317"
             inkscape:connector-curvature="0" />
          <path
             sodipodi:nodetypes="ssss"
             inkscape:connector-curvature="0"
             id="path4319"
             d="m 227.41464,409.27228 c -5.50355,0 -4.71332,8.29956 -1.22956,8.29956 3.48376,0 8.40201,-0.61479 10.14389,-4.30347 1.74188,-3.6887 -4.55445,-3.99609 -8.91433,-3.99609 z"
             style="fill:#ffd600;fill-opacity:1;stroke:#000000;stroke-width:0.81147045px;stroke-linecap:butt;stroke-linejoin:miter;stroke-opacity:1" />
          <path
             style="fill:#ffd600;fill-opacity:1;stroke:#000000;stroke-width:1px;stroke-linecap:butt;stroke-linejoin:miter;stroke-opacity:1"
             d="m 257.5889,362.93307 c -13.63706,30.80965 -22.72843,48.9924 -30.55712,52.02286 -7.82868,3.03045 -14.39467,-3.03046 -19.95051,-3.03046 -5.55584,0 -9.84899,7.3236 -6.31345,10.85914 3.53553,3.53553 35.1028,6.06091 35.1028,6.06091 0,0 6.06091,-20.96066 23.99112,-53.53808 17.93021,-32.57742 -2.27284,-12.37437 -2.27284,-12.37437 z"
             id="path4321"
             inkscape:connector-curvature="0" />
          <path
             style="fill:#ffd600;fill-opacity:1;stroke:#000000;stroke-width:1px;stroke-linecap:butt;stroke-linejoin:miter;stroke-opacity:1"
             d="m 229.55717,439.19959 c 1.26269,9.84898 -2.02031,15.15229 -6.81853,15.15229 -4.79823,0 -5.55584,-14.89975 -2.02031,-16.66752 3.53554,-1.76777 8.83884,1.51523 8.83884,1.51523 z"
             id="path4323"
             inkscape:connector-curvature="0" />
          <path
             style="fill:#ffd600;fill-opacity:1;stroke:#000000;stroke-width:1px;stroke-linecap:butt;stroke-linejoin:miter;stroke-opacity:1"
             d="m 212.88965,436.92674 c 1.26269,9.84898 -2.02031,15.15229 -6.81853,15.15229 -4.79823,0 -5.55584,-14.89975 -2.02031,-16.66752 3.53554,-1.76777 8.83884,1.51523 8.83884,1.51523 z"
             id="path4325"
             inkscape:connector-curvature="0" />
          <path
             inkscape:connector-curvature="0"
             id="path4327"
             d="m 221.22341,438.44197 c 1.26269,9.84898 -2.02031,15.15229 -6.81853,15.15229 -4.79823,0 -5.55584,-14.89975 -2.02031,-16.66752 3.53554,-1.76777 8.83884,1.51523 8.83884,1.51523 z"
             style="fill:#ffd600;fill-opacity:1;stroke:#000000;stroke-width:1px;stroke-linecap:butt;stroke-linejoin:miter;stroke-opacity:1" />
          <path
             style="fill:#ffd600;fill-opacity:1;stroke:#000000;stroke-width:1px;stroke-linecap:butt;stroke-linejoin:miter;stroke-opacity:1"
             d="m 179.46429,410.75504 c 20,17.85714 56.96428,19.82142 78.92857,12.14286 -1.25,8.21428 -1.25,9.10714 -1.25,9.10714 0,0 10.35714,-2.14286 16.07143,-7.67857 -3.03572,-2.67857 -3.57143,-4.46429 -3.57143,-4.46429 0,0 14.28571,-0.35714 16.60714,-7.85714 -0.35714,14.64286 -7.32143,20.17857 -7.32143,20.17857 -0.17857,-7.14286 -1.78571,-7.67857 -1.78571,-7.67857 0,0 -10.71429,14.64286 -28.57143,14.64286 3.70043,-6.40934 5.17857,-10.17858 5.17857,-10.17858 0,0 -13.92857,4.64286 -21.42857,5.53572 9.64286,6.78571 13.03571,12.67857 15.71428,15.35714 4.28572,-3.03571 5.89286,-5.17857 5.89286,-5.17857 0,0 6.25,11.25 12.67857,13.21429 1.78572,-7.67858 0.89286,-10 0.89286,-10 0,0 3.92857,14.10714 9.64286,16.60714 -6.96429,2.14286 -18.21429,0.89286 -18.21429,0.89286 3.92857,-1.25 4.10714,-5.35715 4.10714,-5.35715 -3.75,0.35715 -8.92857,-6.42857 -8.92857,-6.42857 0,0 -5,3.75 -5.53571,6.07143 -3.75,-4.28571 -22.14286,-23.21429 -38.21429,-23.21429 -16.07143,0 -30.17857,6.25 -30.17857,6.25 2.5,2.14286 4.46429,5 4.46429,5 0,0 -7.32143,-4.10714 -21.42857,10.53572 3.03571,0.71428 5.35714,5 5.35714,5 -6.07143,0.53571 -13.03572,3.92857 -15.89286,6.07143 -1.42857,-6.78572 1.60714,-16.07143 5,-20.35715 0.35714,4.28572 1.60714,5.35715 1.60714,5.35715 3.92858,-5.71429 11.07143,-9.64286 14.10715,-10.71429 -3.21429,-1.07143 -3.39286,-5.35714 -2.67857,-4.82143 5.71428,-3.39285 16.07142,-6.60714 23.75,-6.78571 -16.25,-9.10714 -22.5,-21.60714 -23.75,-28.03572 3.03571,3.03572 9.28571,2.32143 9.28571,2.32143 0,0 -1.25,-5.17857 -1.25,-8.92857 -5.35714,0.89286 -8.57143,-0.35714 -8.57143,-0.35714 4.64286,-5.71429 10.89286,-19.64286 10.89286,-19.64286 1.07143,9.28572 10.17857,20.35714 10.17857,20.35714 -3.57143,-1.60714 -8.57143,0.35715 -8.57143,0.35715 0.53572,2.85714 3.57143,10.71428 6.60714,12.32143 -3.39285,0.89285 -9.82142,0.35714 -9.82142,0.35714 z"
             id="path4329"
             inkscape:connector-curvature="0"
             sodipodi:nodetypes="ccccccccccccccccccccsccccccccccccccccccc" />
          <path
             style="fill:#ffd600;fill-opacity:1;stroke:#000000;stroke-width:1px;stroke-linecap:butt;stroke-linejoin:miter;stroke-opacity:1"
             d="m 206.07112,416.84996 c 5.93465,0 5.3033,3.6618 5.3033,5.17703 0,1.51523 -6.81853,9.59645 -4.41942,13.25826 -5.05076,-2.90419 -10.35406,-18.43529 -0.88388,-18.43529 z"
             id="path4331"
             inkscape:connector-curvature="0" />
          <path
             inkscape:connector-curvature="0"
             id="path4333"
             d="m 207.00636,442.35631 c 2.99368,0 2.6752,-1.84715 2.6752,-2.6115 0,-0.76434 -3.43953,-4.84082 -2.22933,-6.68798 -2.54781,1.46498 -5.223,9.29948 -0.44587,9.29948 z"
             style="fill:#ffd600;fill-opacity:1;stroke:#000000;stroke-width:1;stroke-linecap:butt;stroke-linejoin:miter;stroke-miterlimit:4;stroke-opacity:1;stroke-dasharray:none" />
          <path
             style="fill:#ffd600;fill-opacity:1;stroke:#000000;stroke-width:1;stroke-linecap:butt;stroke-linejoin:miter;stroke-miterlimit:4;stroke-opacity:1;stroke-dasharray:none"
             d="m 216.22831,442.05828 c 2.96631,0.40384 2.89992,-1.46938 3.00303,-2.22675 0.10311,-0.75735 -2.75506,-5.26056 -1.30675,-6.92758 -2.72214,1.10789 -6.42975,8.5099 -1.69628,9.15433 z"
             id="path4335"
             inkscape:connector-curvature="0" />
          <path
             inkscape:connector-curvature="0"
             id="path4337"
             d="m 225.06714,444.33112 c 2.96631,0.40384 2.89992,-1.46938 3.00303,-2.22675 0.10311,-0.75735 -2.75506,-5.26056 -1.30675,-6.92758 -2.72214,1.10789 -6.42975,8.5099 -1.69628,9.15433 z"
             style="fill:#ffd600;fill-opacity:1;stroke:#000000;stroke-width:1;stroke-linecap:butt;stroke-linejoin:miter;stroke-miterlimit:4;stroke-opacity:1;stroke-dasharray:none" />
        </g>
        <path
           inkscape:connector-curvature="0"
           style="fill:#000000;fill-opacity:1;stroke:#000000;stroke-width:1.16675079"
           d="m 214.875,24.1875 c -16.78087,-0.04736 -44.46362,3.54007 -59.6875,6.03125 -20.67377,3.520196 -40.63096,8.916465 -60.28125,15.3125 C 75.256002,51.927262 55.916129,59.314043 36.5,66.75 c -8.779073,2.809207 -18.808544,7.43393 -22.09375,11.96875 -3.285174,4.534821 -0.425052,10.903756 13.65625,11.4375 0,0 8.766691,0.198853 15.65625,-0.21875 C 47.163498,89.728698 63.4894,89.035731 78.875,87.5 c 18.3757,-1.834194 30,-1.40625 30,-1.40625 0,0 -36.762744,9.494712 -45.53125,12 -8.768518,2.50529 -24.228144,5.82982 -29.65625,7.5 -5.428138,1.6702 -7.928835,4.38233 -7.09375,5.84375 0.835116,1.46142 1.692964,2.72338 13.90625,0.53125 12.213286,-2.19214 33.541388,-8.3384 39.5625,-10.125 17.569234,-5.213185 30.875,-6.375 30.875,-6.375 0,0 -22.848225,10.41908 -35.125,15.25 -12.276753,4.83093 -22.14863,11.24897 -31.65625,17.625 -4.043011,2.71132 -18.7711,12.13006 -8.78125,17.125 9.144075,4.57202 23.599079,0.98497 32.5625,-0.40625 9.415672,-1.46142 17.624979,-2.45675 26.3125,-3.125 12.57045,-0.57293 26.75856,-1.90625 38.40625,-1.90625 -4.33554,1.40691 -33.462172,14.03691 -54.375,24.34375 -6.892857,3.20794 -22.28147,9.00464 -22.875,13.03125 -0.926028,6.28219 6.021699,2.32907 18.65625,-2.84375 12.63453,-5.17285 18.896736,-8.82739 28.53125,-12.8125 13.06626,-5.40458 39.65625,-15.03125 39.65625,-15.03125 0,0 -32.73166,27.21944 -39.4375,33.625 -6.70584,6.40555 -38.96182,36.28819 -32.375,42.875 5.123576,5.12357 52.21736,-20.62431 58.78125,-23.90625 15.38515,-9.06475 30.53305,-17.68229 46.9375,-22.15625 -13.62634,13.18833 -27.01883,24.11984 -41.34375,35.15625 -6.88832,5.30698 -18.12757,12.23206 -27.375,18.09375 -9.247457,5.86167 -17.361872,8.3181 -15.4375,11.71875 1.924404,3.40066 11.83705,-1.25527 20.71875,-6.40625 8.88169,-5.15095 13.31697,-8.47486 19.71875,-13.09375 8.92503,-6.4394 19.57302,-15.62351 28.1875,-22.53125 8.61448,-6.90773 23.78125,-18.1875 23.78125,-18.1875 0,0 -4.11866,12.76583 -7.21875,18.6875 -7.48242,14.29261 -20.94525,31.18965 -27.15625,40.0625 -5.86871,9.68548 -43.29927,46.03045 -32.9375,56.6875 14.53972,14.95404 60.38551,-50.57881 67.90625,-60.375 7.75372,-10.09968 19.59246,-30.88676 28.5,-28.5 -6.46505,13.18074 -13.68419,24.83713 -20.5,38.46875 -13.14699,25.15032 -47.8125,69.3125 -47.8125,69.3125 0,0 -15.86238,18.16094 -16.90625,20.875 -1.04386,2.71408 0.89423,4.16567 3.4375,3.5625 2.54329,-0.60316 8.05456,-5.63701 11.8125,-9.8125 3.75793,-4.17549 18.76202,-21.528 22.9375,-28 9.16649,-12.44346 17.73951,-26.65101 26.65625,-41.15625 8.91675,-14.50518 25.50302,-46.57011 31.375,-44.25 -1.25503,6.39791 -7.25397,22.04492 -12.9375,36.09375 -5.68354,14.0488 -11.0625,26.5 -11.0625,26.5 -1.03337,2.21439 -19.88442,38.98209 -24.0625,46.21875 -9.46878,16.4004 -27.30925,37.05499 -26.71875,38.53125 0.5905,1.47625 3.09599,3.67675 6.34375,4.5625 3.24776,0.88575 8.13374,-1.01623 12.5625,-3.96875 4.42876,-2.95251 15.78384,-13.41833 22,-21.71875 11.98117,-15.99841 21.77936,-33.29109 31.15625,-51.1875 9.37689,-17.89639 18.12708,-38.05758 25.03125,-56.46875 0,0 0.68508,9.26944 0.0625,13.84375 -1.00561,7.38835 -8.28125,29.3125 -8.28125,29.3125 0,0 -12.23925,38.21349 -13.125,42.9375 -0.88576,4.72402 -1.7715,9.17025 0,8.875 1.77151,-0.29525 5.5895,-9.43873 7.65625,-15.34375 2.06677,-5.90502 10.35349,-32.18224 12.125,-36.90625 1.77151,-4.72402 7.3105,-21.98243 9.125,-30.125 1.76937,-7.94006 2.08624,-12.39874 3.5625,-13.875 1.47625,-1.47625 3.68121,-1.15039 4.71875,0.28125 1.03753,1.43164 -0.16631,11.46413 -0.90625,17.125 -1.37993,10.55605 -4.3,21.53624 -7.0625,31 -5.03661,17.25431 -7.31876,25.80326 -5.4375,29.09375 1.88126,3.29047 7.09211,2.25571 10,-0.5 7.68984,-7.28741 17.43831,-35.07096 21.65625,-50.8125 4.51144,-13.80447 7.30885,-25.08786 11.3125,-38.6875 0.65272,8.1268 0.88775,16.11518 0.125,23.71875 -0.76268,7.60354 -2.50573,14.824 -5.8125,21.4375 6.16868,-5.34598 10.77756,-13.84372 14.5625,-22.9375 3.78495,-9.09378 6.74687,-18.80415 9.65625,-26.5625 0,0 1.43081,-2.75 3.90625,-2.75 2.47544,0 2.03125,2.75 2.03125,2.75 0,0 -1.61364,14.2532 5.03125,18.40625 L 310.25,246.46875 c -4.66263,4.13866 -9.51693,13.48241 -11.875,19.6875 -4.33386,11.40413 -11.06736,21.51421 -21.375,32.125 -7.39682,7.61435 -5.2851,9.16689 6.125,4.5 9.18253,-3.75581 9.25,-3.7436 9.25,2.5 0,9.27305 5.3806,28.5625 7.96875,28.5625 4.69768,0 17.77912,-21.403 23.25,-38.03125 L 329.3125,278.46875 333.34375,298 c 4.60117,22.25224 2.95731,26.77957 -11.09375,30.34375 -9.92959,2.51875 -14.1224,8.68402 -9.5625,14.0625 4.14288,4.88657 10.77137,5.25796 8.90625,0.5 -0.95832,-2.44461 1.2678,-3.75298 7.53125,-4.46875 l 8.875,-1.03125 1.8125,25 c 1.64123,22.44674 1.35657,25.29704 -2.8125,28.28125 -2.55179,1.82655 -6.32133,3.3125 -8.40625,3.3125 -2.08496,0 -5.91259,1.89531 -8.5,4.1875 -4.39601,3.89443 -4.41768,4.47596 -0.4375,8.78125 5.41463,5.8569 13.45876,6.59329 8.53125,0.78125 -4.05055,-4.77764 -2.86292,-5.8181 4.59375,-3.9375 l 5.84375,1.5 -6.71875,13.15625 c -10.79031,21.18046 -33.83027,35.71875 -56.625,35.71875 -8.93596,0 -18.75,7.16315 -18.75,13.6875 0,4.99304 10.14495,13.875 15.84375,13.875 6.10418,0 5.87539,-3.03998 -0.5,-6.9375 -2.81724,-1.72228 -5.12507,-3.94624 -5.125,-4.96875 6e-5,-1.02251 12.05043,-1.88616 26.75,-1.90625 23.05904,-0.0308 27.7218,-0.76009 33.96875,-5.28125 l 7.21875,-5.21875 -0.875,9.0625 c -0.65878,6.76233 0.46693,10.29498 4.4375,13.8125 2.93425,2.59945 5.34375,6.01489 5.34375,7.59375 0,1.57888 2.957,6.5 6.40625,6.5 3.44924,0 6.40625,-4.92112 6.40625,-6.5 0,-1.57886 2.4095,-4.9943 5.34375,-7.59375 3.97056,-3.51752 5.09627,-7.05017 4.4375,-13.8125 l -0.875,-9.0625 7.21875,5.21875 c 6.24697,4.52116 10.90971,5.25047 33.96875,5.28125 14.69958,0.0201 26.74994,0.88374 26.75,1.90625 7e-5,1.02251 -2.30776,3.24647 -5.125,4.96875 -6.37541,3.89752 -6.60418,6.9375 -0.5,6.9375 5.69878,0 15.84375,-8.88196 15.84375,-13.875 0,-6.52435 -9.81404,-13.6875 -18.75,-13.6875 -22.79475,0 -45.83469,-14.53829 -56.625,-35.71875 l -6.71875,-13.15625 5.84375,-1.5 c 7.45664,-1.8806 8.6443,-0.84014 4.59375,3.9375 -4.9275,5.81204 3.11662,5.07565 8.53125,-0.78125 3.98017,-4.30529 3.9585,-4.88682 -0.4375,-8.78125 -2.58743,-2.29219 -6.41505,-4.1875 -8.5,-4.1875 -2.08493,0 -5.85446,-1.48595 -8.40625,-3.3125 -4.16908,-2.98421 -4.45372,-5.83451 -2.8125,-28.28125 l 1.8125,-25 8.875,1.03125 c 6.26346,0.71577 8.48955,2.02414 7.53125,4.46875 -1.86515,4.75796 4.76337,4.38657 8.90625,-0.5 4.55989,-5.37848 0.36708,-11.54375 -9.5625,-14.0625 C 363.69893,324.77957 362.05509,320.25224 366.65625,298 l 4.03125,-19.53125 5.71875,17.34375 c 5.47089,16.62825 18.55232,38.03125 23.25,38.03125 2.58816,0 7.96875,-19.28945 7.96875,-28.5625 0,-6.2436 0.0674,-6.25581 9.25,-2.5 11.41011,4.66689 13.52183,3.11435 6.125,-4.5 -10.30764,-10.61079 -17.04115,-20.72087 -21.375,-32.125 -2.35809,-6.20509 -7.21237,-15.54883 -11.875,-19.6875 L 378.28125,236.3125 c 6.64489,-4.15305 5.03125,-18.40625 5.03125,-18.40625 0,0 -0.44419,-2.75 2.03125,-2.75 2.47544,0 3.90625,2.75 3.90625,2.75 2.90938,7.75835 5.8713,17.46872 9.65625,26.5625 3.78494,9.09378 8.39382,17.59152 14.5625,22.9375 -3.30677,-6.6135 -5.04982,-13.83396 -5.8125,-21.4375 -0.76275,-7.60357 -0.52772,-15.59195 0.125,-23.71875 4.00365,13.59964 6.80106,24.88303 11.3125,38.6875 4.21794,15.74154 13.96641,43.52509 21.65625,50.8125 2.90789,2.75571 8.11874,3.79047 10,0.5 1.88126,-3.29049 -0.40089,-11.83944 -5.4375,-29.09375 -2.7625,-9.46376 -5.68257,-20.44395 -7.0625,-31 -0.73994,-5.66087 -1.94378,-15.69336 -0.90625,-17.125 1.03754,-1.43164 3.2425,-1.7575 4.71875,-0.28125 1.47626,1.47626 1.76188,5.93494 3.53125,13.875 1.8145,8.14257 7.38474,25.40098 9.15625,30.125 1.77151,4.72401 10.05823,31.00123 12.125,36.90625 2.06675,5.90502 5.88474,15.0485 7.65625,15.34375 1.7715,0.29525 0.88576,-4.15098 0,-8.875 -0.88575,-4.72401 -13.125,-42.9375 -13.125,-42.9375 0,0 -7.27564,-21.92415 -8.28125,-29.3125 -0.62258,-4.57431 0.0625,-13.84375 0.0625,-13.84375 6.90417,18.41117 15.65436,38.57236 25.03125,56.46875 9.37689,17.89641 19.17508,35.18909 31.15625,51.1875 6.21616,8.30042 17.57124,18.76624 22,21.71875 4.42876,2.95252 9.31474,4.8545 12.5625,3.96875 3.24776,-0.88575 5.75325,-3.08625 6.34375,-4.5625 0.5905,-1.47626 -17.24997,-22.13085 -26.71875,-38.53125 -4.17808,-7.23666 -23.02913,-44.00436 -24.0625,-46.21875 0,0 -5.37896,-12.4512 -11.0625,-26.5 -5.68353,-14.04883 -11.68247,-29.69584 -12.9375,-36.09375 5.87198,-2.32011 22.45825,29.74482 31.375,44.25 8.91674,14.50524 17.48976,28.71279 26.65625,41.15625 4.17548,6.472 19.17957,23.82451 22.9375,28 3.75794,4.17549 9.26921,9.20934 11.8125,9.8125 2.54327,0.60317 4.48136,-0.84842 3.4375,-3.5625 -1.04387,-2.71406 -16.90625,-20.875 -16.90625,-20.875 0,0 -34.66551,-44.16218 -47.8125,-69.3125 -6.81581,-13.63162 -14.03495,-25.28801 -20.5,-38.46875 8.90754,-2.38676 20.74628,18.40032 28.5,28.5 7.52074,9.79619 53.36653,75.32904 67.90625,60.375 10.36177,-10.65705 -27.06879,-47.00202 -32.9375,-56.6875 -6.211,-8.87285 -19.67383,-25.76989 -27.15625,-40.0625 -3.10009,-5.92167 -7.21875,-18.6875 -7.21875,-18.6875 0,0 15.16677,11.27977 23.78125,18.1875 8.61448,6.90774 19.26247,16.09185 28.1875,22.53125 6.40178,4.61889 10.83706,7.9428 19.71875,13.09375 8.8817,5.15098 18.79434,9.80691 20.71875,6.40625 1.92437,-3.40065 -6.19004,-5.85708 -15.4375,-11.71875 -9.24743,-5.86169 -20.48668,-12.78677 -27.375,-18.09375 -14.32492,-11.03641 -27.71741,-21.96792 -41.34375,-35.15625 16.40445,4.47396 31.55235,13.0915 46.9375,22.15625 6.56389,3.28194 53.65767,29.02982 58.78125,23.90625 6.58682,-6.58681 -25.66916,-36.46945 -32.375,-42.875 -6.70584,-6.40556 -39.46875,-33.625 -39.46875,-33.625 0,0 26.62124,9.62667 39.6875,15.03125 9.63452,3.98511 15.89672,7.63965 28.53125,12.8125 12.63455,5.17282 19.58227,9.12594 18.65625,2.84375 -0.59353,-4.02661 -15.98214,-9.82331 -22.875,-13.03125 -20.91283,-10.30684 -50.03946,-22.93684 -54.375,-24.34375 11.64769,0 25.8358,1.33332 38.40625,1.90625 8.68752,0.66825 16.89683,1.66358 26.3125,3.125 8.96342,1.39122 23.41842,4.97827 32.5625,0.40625 9.98985,-4.99494 -4.73824,-14.41368 -8.78125,-17.125 -9.50762,-6.37603 -19.3795,-12.79407 -31.65625,-17.625 -12.27678,-4.83092 -35.125,-15.25 -35.125,-15.25 0,0 13.30576,1.161815 30.875,6.375 6.02111,1.7866 27.34921,7.93286 39.5625,10.125 12.21328,2.19213 13.07114,0.93017 13.90625,-0.53125 0.83509,-1.46142 -1.69686,-4.17355 -7.125,-5.84375 -5.4281,-1.67018 -20.85648,-4.99471 -29.625,-7.5 -8.7685,-2.505288 -45.53125,-12 -45.53125,-12 0,0 11.6243,-0.427944 30,1.40625 15.3856,1.535731 31.71151,2.228698 35.15625,2.4375 6.88956,0.417603 15.65625,0.21875 15.65625,0.21875 14.0813,-0.533744 16.94142,-6.902679 13.65625,-11.4375 C 682.30854,74.18393 672.27907,69.559207 663.5,66.75 644.08387,59.314043 624.744,51.927262 605.09375,45.53125 585.44346,39.135215 565.48627,33.738946 544.8125,30.21875 c -16.23881,-2.657259 -46.63619,-6.590503 -62.875,-6 -16.23881,0.590502 -22.75122,1.488237 -28.65625,5.03125 -5.90502,3.543013 -12.08948,12.993724 -14.15625,20.375 -2.06675,7.381277 0.2835,33.964927 3.53125,53.15625 3.24776,19.19131 11.74174,53.73164 12.09375,58.15625 0.82375,10.35427 -14.37287,15.00401 -23.65625,15.21875 -9.28339,0.21474 -13.03725,-2.81412 -19.1875,-5.78125 -12.30051,-5.93424 -24.65398,-22.60118 -37.5625,-18.90625 L 374.25,140.125 c -0.0591,-7.67362 -2.13698,-17.29081 -5.03125,-23.15625 -6.81913,-13.81954 -6.44945,-19.90246 1.40625,-23.40625 3.58784,-1.60025 8.36003,-2.90625 10.625,-2.90625 0.42061,-0.79425 16.70828,5.58732 16.125,-9.78125 0,-8.98342 -26.08775,-10.36209 -38.6875,-2.03125 L 350,84.625 341.3125,78.84375 c -5.90613,-3.905081 -14.77604,-5.669816 -22.53125,-5.53125 -8.78923,0.157042 -16.15625,2.790058 -16.15625,7.5625 -0.58328,15.36857 15.70441,8.987 16.125,9.78125 2.26497,0 7.03716,1.306 10.625,2.90625 7.85571,3.50379 8.22537,9.58671 1.40625,23.40625 -2.89427,5.86544 -4.98043,15.48257 -5.03125,23.15625 l -0.0937,11.34375 c -12.90852,-3.69493 -25.26199,12.97201 -37.5625,18.90625 -6.15025,2.96713 -9.90411,5.99599 -19.1875,5.78125 -9.28338,-0.21474 -24.48,-4.86448 -23.65625,-15.21875 0.35201,-4.42461 8.84599,-38.96494 12.09375,-58.15625 3.24775,-19.191323 5.598,-45.774973 3.53125,-53.15625 -2.06677,-7.381276 -8.25123,-16.831987 -14.15625,-20.375 -5.90503,-3.543013 -12.41744,-4.440748 -28.65625,-5.03125 -1.01493,-0.03691 -2.06878,-0.02809 -3.1875,-0.03125 z"
           id="path3829" />
        <g
           id="g4174"
           style="stroke:#000000"
           transform="matrix(1.1792542,0,0,1.15438,-7.9883156,-105.71394)">
          <path
             sodipodi:nodetypes="sscsscccscscs"
             inkscape:connector-curvature="0"
             id="path4158"
             d="m 292.18662,180.09546 c 0,-6.81853 -10.22779,-10.73287 -15.65736,-10.35406 -5.42957,0.3788 -11.99556,2.14657 -13.00571,-7.57615 -1.40086,-0.14421 -2.39133,-0.86013 -4.39204,-0.86013 -2.32594,0 -3.88861,4.127 -6.13956,4.91434 -4.92034,1.72105 -7.0198,6.8508 -7.0198,14.12854 8.46213,-7.26136 12.50064,-9.59645 17.80393,-2.52538 6.31346,-5.3033 11.36422,-3.91435 17.93021,3.53553 -8.9651,-1.38896 -20.83439,4.41942 -26.89531,4.41942 -6.06092,0 -8.33376,-4.41942 -8.33376,-4.41942 3.03046,10.85914 17.67305,7.18904 26.82987,7.18904 9.15682,0 14.46012,5.81667 14.46012,5.81667 4.04061,-5.93464 4.41941,-8.9651 4.41941,-14.2684 z"
             style="fill:#ffd600;fill-opacity:1;stroke:#000000;stroke-width:1px;stroke-linecap:butt;stroke-linejoin:miter;stroke-opacity:1" />
          <path
             transform="translate(0.25253814,-0.63134534)"
             d="m 260.30368,166.20586 c 0,0.83683 -0.67839,1.51523 -1.51523,1.51523 -0.83684,0 -1.51523,-0.6784 -1.51523,-1.51523 0,-0.83684 0.67839,-1.51523 1.51523,-1.51523 0.83684,0 1.51523,0.67839 1.51523,1.51523 z"
             sodipodi:ry="1.5152289"
             sodipodi:rx="1.5152289"
             sodipodi:cy="166.20586"
             sodipodi:cx="258.78845"
             id="path4162"
             style="fill:#000000;fill-opacity:1;stroke:#000000"
             sodipodi:type="arc" />
        </g>
        <g
           id="g4178"
           inkscape:transform-center-x="-40.253732"
           inkscape:transform-center-y="2.6237277"
           transform="matrix(-1.1792542,0,0,1.15438,707.98805,-105.71394)"
           style="stroke:#000000">
          <path
             style="fill:#ffd600;fill-opacity:1;stroke:#000000;stroke-width:1px;stroke-linecap:butt;stroke-linejoin:miter;stroke-opacity:1"
             d="m 292.18662,180.09546 c 0,-6.81853 -10.22779,-10.73287 -15.65736,-10.35406 -5.42957,0.3788 -11.99556,2.14657 -13.00571,-7.57615 -1.40086,-0.14421 -2.39133,-0.86013 -4.39204,-0.86013 -2.32594,0 -3.88861,4.127 -6.13956,4.91434 -4.92034,1.72105 -7.0198,6.8508 -7.0198,14.12854 8.46213,-7.26136 12.50064,-9.59645 17.80393,-2.52538 6.31346,-5.3033 11.36422,-3.91435 17.93021,3.53553 -8.9651,-1.38896 -20.83439,4.41942 -26.89531,4.41942 -6.06092,0 -8.33376,-4.41942 -8.33376,-4.41942 3.03046,10.85914 17.67305,7.18904 26.82987,7.18904 9.15682,0 14.46012,5.81667 14.46012,5.81667 4.04061,-5.93464 4.41941,-8.9651 4.41941,-14.2684 z"
             id="path4180"
             inkscape:connector-curvature="0"
             sodipodi:nodetypes="sscsscccscscs" />
          <path
             sodipodi:type="arc"
             style="fill:#000000;fill-opacity:1;stroke:#000000"
             id="path4182"
             sodipodi:cx="258.78845"
             sodipodi:cy="166.20586"
             sodipodi:rx="1.5152289"
             sodipodi:ry="1.5152289"
             d="m 260.30368,166.20586 c 0,0.83683 -0.67839,1.51523 -1.51523,1.51523 -0.83684,0 -1.51523,-0.6784 -1.51523,-1.51523 0,-0.83684 0.67839,-1.51523 1.51523,-1.51523 0.83684,0 1.51523,0.67839 1.51523,1.51523 z"
             transform="translate(0.25253814,-0.63134534)" />
        </g>
        <g
           id="g4190"
           style="stroke:none"
           transform="matrix(1.1792542,0,0,1.15438,-7.9883156,-105.71394)">
          <path
             sodipodi:nodetypes="ccc"
             inkscape:connector-curvature="0"
             id="path4186"
             d="m 264.64286,163.79075 c 5,4.55357 8.30357,4.64286 15.35714,0 -7.58929,-4.28571 -7.94643,-3.48214 -15.35714,0 z"
             style="fill:#f9f9f9;stroke:none" />
          <path
             transform="matrix(1.3333333,0,0,1.3333333,-90.282741,-55.102867)"
             d="m 273.12501,163.83539 c 0,0.96157 -0.7795,1.74107 -1.74107,1.74107 -0.96157,0 -1.74107,-0.7795 -1.74107,-1.74107 0,-0.96157 0.7795,-1.74107 1.74107,-1.74107 0.96157,0 1.74107,0.7795 1.74107,1.74107 z"
             sodipodi:ry="1.7410715"
             sodipodi:rx="1.7410715"
             sodipodi:cy="163.83539"
             sodipodi:cx="271.38394"
             id="path4188"
             style="fill:#000000;fill-opacity:1;stroke:none"
             sodipodi:type="arc" />
        </g>
        <g
           id="g4194"
           inkscape:transform-center-x="-36.430538"
           inkscape:transform-center-y="1.6491176"
           transform="matrix(-1.1792542,0,0,1.15438,707.98805,-105.71394)"
           style="stroke:none">
          <path
             style="fill:#f9f9f9;stroke:none"
             d="m 264.64286,163.79075 c 5,4.55357 8.30357,4.64286 15.35714,0 -7.58929,-4.28571 -7.94643,-3.48214 -15.35714,0 z"
             id="path4196"
             inkscape:connector-curvature="0"
             sodipodi:nodetypes="ccc" />
          <path
             sodipodi:type="arc"
             style="fill:#000000;fill-opacity:1;stroke:none"
             id="path4198"
             sodipodi:cx="271.38394"
             sodipodi:cy="163.83539"
             sodipodi:rx="1.7410715"
             sodipodi:ry="1.7410715"
             d="m 273.12501,163.83539 c 0,0.96157 -0.7795,1.74107 -1.74107,1.74107 -0.96157,0 -1.74107,-0.7795 -1.74107,-1.74107 0,-0.96157 0.7795,-1.74107 1.74107,-1.74107 0.96157,0 1.74107,0.7795 1.74107,1.74107 z"
             transform="matrix(1.3333333,0,0,1.3333333,-90.282741,-55.102867)" />
        </g>
        <path
           sodipodi:type="star"
           style="fill:#f3f1f3;fill-opacity:1;stroke:none"
           id="path4897"
           sodipodi:sides="5"
           sodipodi:cx="-221.09714"
           sodipodi:cy="174.02725"
           sodipodi:r1="17.67812"
           sodipodi:r2="7.4354925"
           sodipodi:arg1="-1.5707963"
           sodipodi:arg2="-0.94247777"
           inkscape:flatsided="false"
           inkscape:rounded="0"
           inkscape:randomized="0"
           d="m -221.09714,156.34913 4.37048,11.66268 12.44241,0.5526 -9.74131,7.76054 3.31936,12.0042 -10.39094,-6.86641 -10.39094,6.86641 3.31937,-12.0042 -9.74132,-7.76054 12.44242,-0.5526 z"
           transform="matrix(2.081736,0,0,2.0325191,810.26588,-312.78261)" />
      </g>
    </g>
  </g>
</svg>
