<?xml version="1.0" encoding="UTF-8" standalone="no"?>
<svg
   xmlns:dc="http://purl.org/dc/elements/1.1/"
   xmlns:cc="http://creativecommons.org/ns#"
   xmlns:rdf="http://www.w3.org/1999/02/22-rdf-syntax-ns#"
   xmlns:svg="http://www.w3.org/2000/svg"
   xmlns="http://www.w3.org/2000/svg"
   xmlns:sodipodi="http://sodipodi.sourceforge.net/DTD/sodipodi-0.dtd"
   xmlns:inkscape="http://www.inkscape.org/namespaces/inkscape"
   width="1000"
   height="500"
   viewBox="-350 -250 700 500"
   id="svg2"
   sodipodi:version="0.32"
   inkscape:version="0.48.1 "
   sodipodi:docname="Flag_of_German_occupied_Albania.svg"
   inkscape:output_extension="org.inkscape.output.svg.inkscape"
   version="1.0">
  <metadata
     id="metadata14">
    <rdf:RDF>
      <cc:Work
         rdf:about="">
        <dc:format>image/svg+xml</dc:format>
        <dc:type
           rdf:resource="http://purl.org/dc/dcmitype/StillImage" />
      </cc:Work>
    </rdf:RDF>
  </metadata>
  <defs
     id="defs12" />
  <sodipodi:namedview
     inkscape:window-height="706"
     inkscape:window-width="1366"
     inkscape:pageshadow="2"
     inkscape:pageopacity="0.0"
     guidetolerance="10.0"
     gridtolerance="10.0"
     objecttolerance="10.0"
     borderopacity="1.0"
     bordercolor="#666666"
     pagecolor="#ffffff"
     id="base"
     width="1000px"
     height="500px"
     inkscape:zoom="0.55002022"
     inkscape:cx="898.24467"
     inkscape:cy="242.84301"
     inkscape:window-x="-8"
     inkscape:window-y="-8"
     inkscape:current-layer="svg2"
     showgrid="false"
     inkscape:window-maximized="1" />
  <title
     id="title4">Flag of Albania</title>
  <path
     style="fill:#cc1100"
     d="m -500,-250 1000,0 0,500 -1000,0 z"
     id="field" />
  <path
     inkscape:connector-curvature="0"
     style="fill:#000000;stroke:none"
     d="m -279.14771,-154.12469 c -2.29449,0.0956 -4.30802,1.25789 -5.61482,3.68513 -1.20558,2.23864 -2.43083,4.26012 -2.87759,8.28278 -0.45198,4.06773 0.18222,10.14836 0.9475,12.63473 0.69025,2.24346 1.34739,4.01718 3.86019,6.91402 2.5128,2.89685 6.11486,5.52858 10.63306,8.17748 4.57178,2.68022 10.05448,5.39061 15.33547,8.0371 5.28116,2.64648 10.38315,5.1965 14.2476,7.545747 1.93231,1.174619 3.54311,2.309565 4.70241,3.334168 0.60455,0.534259 1.0714,1.013812 1.4037,1.474053 -6.37503,-1.234987 -15.73104,-4.25247 -24.28408,-8.177488 -4.56667,-2.09571 -8.90557,-4.45464 -12.3526,-6.84382 -3.44719,-2.38919 -6.00858,-4.82374 -7.1238,-7.0544 -0.0371,-0.0975 -0.0997,-0.20907 -0.17547,-0.28077 0,0 -0.50518,-0.34649 -1.29842,-0.45625 -0.79339,-0.10973 -1.9343,-0.002 -4.07075,1.22838 -2.13643,1.23083 -3.36889,4.49965 -3.36889,8.42316 0,4.09454 1.80472,7.580741 4.52695,10.458759 2.7221,2.877988 6.34904,5.190674 10.17686,7.05439 7.65566,3.727401 16.11021,5.678877 19.26585,6.527951 l 0,-0.035 c 3.9114,1.233576 8.60877,1.342448 12.38769,2.140886 1.89567,0.400535 3.55864,0.98964 4.7375,1.89521 0.9976,0.766204 1.61073,1.829242 1.93009,3.26398 -13.23301,0.978909 -30.79695,-3.143847 -38.39132,-9.125088 l 0,0.07021 c 0,0 -2.8049,-2.381493 -4.42167,-3.614939 -0.99777,-0.761274 -2.33245,-0.81212 -3.54435,-0.561542 -1.21177,0.250587 -2.38153,0.82097 -3.08815,1.684636 -0.0402,0.06621 -0.0888,0.134745 -0.10522,0.210573 -2.17012,6.88029 -1.29832,11.955871 1.61426,15.512654 2.91256,3.556773 7.723,5.544182 13.3001,6.598139 11.15736,2.108443 25.49187,0.497165 34.49604,-0.421157 0.74134,-0.07561 1.18413,0.04731 1.47389,0.245677 0.28989,0.198272 0.45479,0.454991 0.52639,0.80722 0.14351,0.704467 -0.22121,1.663183 -0.73695,2.000501 -1.79279,1.172449 -3.84101,1.791958 -6.03593,2.140886 -10.62701,1.689447 -20.07148,2.35519 -29.68835,-0.245677 -2.95594,-0.827781 -8.0079,-3.091922 -9.68556,-3.930804 -0.81391,-0.407015 -1.8399,-1.134036 -3.08815,-1.193282 -0.624,-0.0296 -1.32665,0.154717 -1.895,0.63173 -0.56823,0.476992 -1.03903,1.218334 -1.40371,2.246178 -0.71542,2.016653 -0.8349,3.940885 -0.66676,5.545242 0.16829,1.604348 0.56021,2.856286 1.19315,3.579846 0.55183,0.63071 1.64124,1.442359 2.98288,2.316366 1.34163,0.874006 2.86724,1.734792 4.2462,2.246178 4.0662,1.507777 8.50225,1.649482 12.66844,1.895209 5.58081,0.329167 13.49868,0.163898 16.77427,-0.491344 1.69322,-0.338657 4.5814,-1.482024 7.5449,-2.491855 2.96352,-1.009842 6.02454,-1.848594 7.54492,-1.71973 1.67394,0.141855 2.2187,0.694427 2.3863,1.08799 0.16746,0.393553 -0.009,0.882698 -0.21056,1.123094 -0.17944,0.209363 -1.02022,0.699307 -2.10556,1.158178 -1.08521,0.458851 -2.47337,0.980298 -3.89528,1.509157 -5.15637,1.917882 -14.05164,4.969256 -22.3189,5.510146 -4.17059,0.272854 -8.21565,0.229413 -11.51037,-0.21058 -3.29461,-0.440014 -5.84514,-1.318313 -7.08871,-2.562044 -0.56699,-0.567062 -1.20873,-1.611738 -2.14065,-2.316366 -0.46604,-0.352329 -1.06207,-0.651202 -1.71954,-0.631739 -0.65745,0.0194 -1.29305,0.380672 -1.895,0.982698 -1.11744,1.117544 -1.82883,2.268051 -2.17574,3.614942 -0.34689,1.346886 -0.38602,2.853756 -0.38602,4.738028 0,3.867588 1.52061,6.590627 3.93037,8.247676 2.40976,1.657037 5.62322,2.306148 9.08899,2.386562 6.93169,0.160803 14.9618,-1.983093 19.86242,-3.50965 2.5636,-0.798572 8.61678,-3.635031 14.28269,-6.212079 2.83283,-1.288542 5.57056,-2.511888 7.6151,-3.334168 1.02226,-0.411139 1.85728,-0.7388 2.45648,-0.912508 0.26346,-0.07648 0.4967,-0.08547 0.63167,-0.105234 0.22861,0.292014 0.26665,0.566846 0.14037,1.017798 -0.14901,0.531367 -0.6284,1.253951 -1.33352,2.035597 -1.41034,1.563249 -3.75689,3.385369 -6.38686,5.124088 -5.26007,3.477373 -11.51131,6.703858 -13.265,7.580843 -0.029,-9.99e-4 -0.0413,-9.99e-4 -0.0702,0 0,0 -1.72559,1.104074 -3.86019,2.316369 -2.13461,1.212272 -4.70554,2.497736 -6.28158,2.948105 -3.22943,0.922807 -10.98188,1.316619 -14.14232,0.526448 -1.50111,-0.375348 -3.4438,-1.661081 -4.94806,-2.913009 -1.50428,-1.251928 -2.59686,-2.421659 -2.59686,-2.421659 -0.19088,-0.206906 -0.51149,-0.282074 -0.77203,-0.175482 0,0 -2.4996,0.835285 -3.79001,2.842816 -1.2163,1.892145 -1.81708,4.585164 -1.68444,6.843816 0.007,0.05897 0.049,0.120249 0.0702,0.175482 2.55078,7.698476 7.32389,11.681215 13.12464,12.9155103 5.78946,1.2319491 12.5073,-0.1871616 19.23075,-2.842816 0.0138,-0.0045 0.0227,0.0045 0.035,0 9.48673,-3.402742 16.1214,-9.9337003 23.82788,-15.0212983 1.46433,-0.966631 3.53913,-2.558676 5.26389,-3.860615 0.6744,-0.509174 1.23011,-0.893698 1.71954,-1.228377 -0.31151,1.47184 -0.99298,3.037739 -2.24593,4.632737 -1.60577,2.04393 -3.84259,4.121306 -6.31667,6.176983 -4.98533,4.142307 -9.61991,7.9745968 -14.24759,11.5116495 -4.1074,3.13928287 -10.49535,7.5765691 -16.59881,8.9846967 -6.10304,1.4079595 -11.98385,-0.189712 -15.37057,-4.1413866 -0.16723,-0.1896219 -0.45643,-0.2712369 -0.70185,-0.2105782 -1.93353,0.5010433 -3.2479,1.5949412 -4.07074,2.9130088 -0.82301,1.3180666 -1.17203,2.8582918 -1.26334,4.281772 -0.18633,2.9064048 1.59107,6.0987938 3.43908,8.7741238 1.84802,2.675318 3.82434,4.772281 4.31639,5.264474 2.2485,2.248737 5.17619,3.176182 8.31695,3.228878 3.14063,0.05279 6.50533,-0.726121 9.79084,-1.895211 3.57429,-1.271908 6.91059,-2.925622 9.86103,-4.562545 0.10735,4.871709 1.8427,7.902046 4.7375,9.405861 2.98693,1.551714 6.98467,1.579196 11.40509,1.087991 0.0734,-0.0022 0.14172,-0.009 0.21056,-0.03504 6.75085,-3.193815 13.11539,-7.762244 18.14288,-13.301572 0.32527,1.96363 1.3281,3.517411 2.77232,4.492352 1.70384,1.150255 3.9233,1.561103 6.10611,1.052895 5.39447,-1.255882 10.41537,-6.725263 10.80853,-15.2669756 0.0345,-0.7379136 0.1152,-1.3152473 0.21055,-1.6144384 0.12355,0.1369161 0.32421,0.3299855 0.4913,0.6668337 0.78305,1.5790384 1.51911,4.8964723 1.22824,8.0721933 -0.42237,7.431135 -4.19157,14.927073 -10.17686,19.794423 -5.91864,4.813094 -14.07773,5.28268 -23.40677,4.071193 -0.31173,-0.03156 -0.63838,0.158839 -0.73695,0.456255 -1.0074,3.094028 -0.36,5.372066 0.59658,7.300071 0.83428,1.681644 1.74003,3.202137 2.14065,5.018799 -0.34471,-0.0022 -0.68676,-0.03335 -1.19315,-0.03504 -1.2294,-0.0045 -2.86522,0.01325 -4.59713,0.03504 -3.46412,0.04436 -7.25287,0.116665 -9.01881,0.456254 -1.68606,0.324292 -2.59582,0.865035 -3.26361,1.368763 -0.66778,0.503739 -1.04969,0.930029 -2.10555,1.263474 -0.98152,0.310006 -2.99625,0.416621 -4.70241,0.421157 -1.63606,0.0045 -2.87297,-0.06379 -2.98287,-0.0702 -0.44442,-0.104502 -0.76423,-0.583994 -1.12297,-1.298626 -0.35874,-0.71462 -0.69253,-1.609688 -1.61426,-2.070693 -0.80908,-0.404524 -1.85755,-0.660308 -2.8425,-0.947605 -0.98483,-0.287286 -1.89081,-0.662555 -2.14065,-0.912509 -0.62,-0.619967 -1.09639,-1.944952 -1.68445,-3.228877 -0.58076,-1.267764 -1.34961,-2.579082 -2.87759,-2.948106 -0.0138,-0.0045 -0.0239,0.0045 -0.035,0 -0.22475,-0.07109 -0.47068,-0.123831 -0.84222,-0.175482 -0.39017,-0.05425 -0.8549,-0.117127 -1.40371,-0.140387 -1.09774,-0.04671 -2.37904,0.01797 -3.47417,0.456255 -0.76983,0.307951 -1.08295,0.216543 -1.61426,0 -0.53131,-0.216475 -1.24248,-0.650796 -2.31611,-0.70193 -2.14686,-0.102201 -4.90559,1.089104 -6.21139,3.299071 -1.32995,2.251094 -0.77204,5.29957 -0.77204,5.29957 0.0304,0.244912 0.22733,0.469316 0.4562,0.561544 0.5575,0.210591 1.02951,0.105907 1.61426,0 0.58474,-0.105907 1.25094,-0.253189 1.85991,-0.421158 0.60913,-0.167958 1.15901,-0.325313 1.57917,-0.421158 0.17312,-0.03953 0.29154,-0.09355 0.38602,-0.105233 0.73141,0.82337 1.22368,2.065819 2.21083,3.053395 1.52038,1.520436 3.24709,2.077308 4.42167,2.772622 0.58736,0.347675 1.01086,0.673169 1.33352,1.228378 0.24886,0.428143 0.41927,1.074357 0.4913,1.860114 -2.99521,0.0045 -4.86344,-0.01011 -5.61482,-0.140386 -0.85523,-0.148618 -1.24222,-0.494136 -3.22852,-1.368763 -2.57818,-1.135251 -4.97745,-0.680872 -6.77287,0.526447 -1.8425,1.238856 -2.29543,3.078575 -2.35121,4.562545 -0.0275,0.741979 0.0138,1.398659 0,1.89521 -0.0138,0.49654 -0.0757,0.776975 -0.0702,0.772123 -1.39094,1.391068 -2.64071,1.975893 -3.64963,3.018298 -1.00904,1.042316 -1.61426,2.506003 -1.61426,5.194282 0.002,0.138139 0.0601,0.273651 0.14037,0.386062 0.68473,1.003601 1.46405,1.580285 2.31611,1.509148 0.85192,-0.07109 1.48287,-0.650785 2.03538,-1.263473 1.02613,-1.137924 1.98556,-2.570501 2.94778,-3.193781 1.64929,1.074649 3.32925,1.512855 4.84278,1.193281 1.66992,-0.352616 3.09038,-1.486339 4.21111,-3.088492 0.85728,-1.225401 2.00163,-2.172906 3.19343,-2.526948 1.19165,-0.354042 2.44493,-0.166655 3.79,0.842316 0.39195,0.51096 0.49104,0.956467 0.45621,1.298571 -0.0385,0.374021 -0.22922,0.753052 -0.66676,1.193281 -0.87519,0.880455 -2.59142,1.726612 -4.24621,2.526947 -1.75439,0.848415 -2.71644,1.828769 -3.50926,2.562044 -0.79284,0.733275 -1.33479,1.201626 -2.45649,1.438956 -1.23711,0.261803 -2.14121,1.313676 -2.70213,2.456754 -0.50651,1.03241 -0.6757,2.187922 -0.31583,3.228878 -0.15371,2.338516 -0.33888,4.918877 -0.35093,7.335167 0,2.228421 1.177,4.881513 1.82482,6.176984 0.41411,0.828108 1.14859,1.455859 1.895,1.89521 0.37335,0.219677 0.77523,0.383535 1.12296,0.491352 0.34759,0.107815 0.60366,0.242215 1.08787,0 0.32144,-0.160647 0.40801,-0.354605 0.45621,-0.491352 0.0482,-0.13677 0.0536,-0.256367 0.0702,-0.386061 0.0345,-0.259377 0.0338,-0.565576 0.035,-0.912509 0,-0.6939 -0.0248,-1.588586 -0.0702,-2.491852 -0.0468,-0.903253 -0.11296,-1.803847 -0.14037,-2.562044 -0.0262,-0.758218 0.0565,-1.410485 0.0702,-1.474052 0.1527,-0.615856 0.39209,-0.858859 0.77203,-1.193281 3.1628,0.425033 5.62705,-0.234983 7.54492,-1.649535 1.99839,-1.473963 3.4014,-3.666624 4.7375,-6.141886 1.32774,-2.459619 2.58365,-4.944114 4.10584,-6.563045 0.6653,-0.707287 2.5674,-2.401566 2.94778,-2.737527 0.36232,0.129875 1.49199,0.518834 2.73722,0.80722 0.0413,0.01011 0.0289,0.02616 0.0702,0.03504 1.32181,0.54316 2.45059,1.479556 3.40398,2.456755 0.88538,0.907455 1.5788,1.765258 2.28103,2.421657 -0.34292,3.74661 0.31954,6.659193 2.07046,8.633738 1.68386,1.899018 4.30609,2.828711 7.54491,2.948106 l -0.28074,8.80922 c -0.002,0.406445 0.40704,0.773291 0.80713,0.70193 0,0 2.15644,-0.447764 4.14093,-2.035597 1.87611,-1.500894 4.41847,-3.726563 4.66731,-6.70343 0.0633,-0.756905 -0.004,-2.313078 -0.0702,-3.790421 -0.0378,-0.876233 -0.074,-1.758116 -0.14037,-2.632237 0.0138,-0.03706 0.27552,-1.196347 0.4562,-2.667334 0.18359,-1.493988 0.3207,-3.252058 -0.31583,-4.562544 -0.7007,-1.442505 -1.97577,-2.76429 -3.36889,-3.755325 -1.39327,-0.991035 -2.86555,-1.649535 -4.14093,-1.649535 -1.40662,0.0011 -2.81877,-0.149922 -4.21111,-0.280772 -2.42161,-0.824414 -4.04451,-1.957486 -5.50954,-3.193781 -0.15865,-0.437611 -0.26814,-1.19628 -0.17546,-1.965404 0.0991,-0.818945 0.3474,-1.610867 0.66676,-1.930307 0.0138,-0.01381 0.22187,-0.111074 0.56148,-0.175483 0.33962,-0.06447 0.78996,-0.109613 1.33352,-0.105233 1.08741,0.0079 2.50793,0.148394 3.89527,0.350965 2.77457,0.40512 5.49079,1.020505 6.31667,1.158184 2.69842,0.449786 7.66387,0.242037 12.42279,0.140386 2.37934,-0.05054 4.69623,-0.08524 6.59741,0 1.81813,0.08154 3.20124,0.292295 3.8251,0.561544 3.24597,5.181646 5.48312,9.082445 4.70241,16.109291 -0.061,0.507613 0.57261,0.918304 1.01768,0.666833 7.73526,-4.23002 13.52781,-11.357855 17.65159,-19.829518 4.12542,-8.474518 6.51226,-18.289609 7.6151,-27.901713 0.0385,-0.339712 0.11173,-0.4032 0.14037,-0.421159 0.029,-0.01786 0.171,-0.03706 0.4562,0.03504 0.57029,0.144171 1.56566,0.767462 2.56176,1.614439 1.99222,1.693953 4.12627,4.405491 4.59714,5.931307 1.05971,3.433661 0.61575,7.932133 -0.42112,12.599642 -3.18085,9.728299 -7.72984,19.292446 -14.7038,25.62044 -6.92548,6.284261 -16.32527,7.25545 -29.75854,6.598141 -0.3347,-0.0237 -0.67212,0.197191 -0.73695,0.526448 -0.34262,2.179194 -0.007,3.859199 0.59658,5.19428 0.60319,1.33506 1.4549,2.348624 2.03537,3.50965 1.14828,2.296973 1.28374,4.564352 2.3863,6.28227 0.55128,0.85895 1.42238,1.55587 2.63195,1.82501 1.20942,0.26916 2.77246,0.18713 4.87787,-0.28077 0.0294,-0.0123 0.0428,-0.0191 0.0702,-0.035 11.22073,-4.751264 20.28667,-8.437429 27.26697,-18.846813 1.69459,-2.527206 3.18846,-4.384502 4.17602,-5.264475 0.46561,-0.41488 0.75012,-0.545933 0.80713,-0.561544 0.0138,0.02021 0.0317,0.08614 0.0702,0.245676 0.0675,0.273585 0.0184,1.122503 -0.21055,2.10579 -0.226,0.983297 -0.57207,2.120849 -0.98259,3.263974 -0.4104,1.143123 -0.85679,2.277823 -1.26334,3.19378 -0.40653,0.915958 -0.78251,1.647727 -0.9475,1.895211 -3.0343,4.551887 -7.76182,8.676628 -13.12464,11.652031 -5.36158,2.97489 -11.40253,4.78752 -17.1252,4.80822 -0.25074,0.008 -0.4855,0.16112 -0.59657,0.38606 -0.647,1.252 -0.53902,2.75849 -0.0702,4.24667 0.46811,1.48821 1.29457,3.01285 2.28103,4.45726 1.97277,2.88879 4.44143,5.36048 6.07102,6.24717 0.0143,4.5e-4 0.0209,4.5e-4 0.035,0 0.68846,0.34423 1.33753,0.12933 2.10556,-0.17547 0.76792,-0.30481 1.67413,-0.81943 2.66704,-1.43896 1.98615,-1.23909 4.35117,-2.9569 6.73778,-4.84332 4.77325,-3.77282 9.46984,-7.99699 10.73834,-9.26547 1.75259,-1.75288 3.43927,-4.40064 4.91297,-6.878909 1.22237,-2.055487 2.14493,-3.578597 2.91269,-4.597641 -0.051,0.33268 -0.0345,0.408647 -0.14037,0.842316 -0.52538,2.171771 -1.63134,5.547784 -3.15834,9.054894 -3.02714,6.95146 -7.17039,10.87469 -12.07186,15.26698 -2.13996,1.91751 -5.69533,2.74786 -8.00112,5.0539 -0.32764,0.32771 -0.36476,0.83767 -0.24564,1.19328 0.11843,0.35561 0.30933,0.65043 0.56148,0.9476 0.50446,0.59435 1.20032,1.22261 1.96518,1.82502 0.76475,0.60241 1.59274,1.14685 2.24593,1.61442 0.32653,0.23382 0.6227,0.43483 0.84222,0.59666 0.2194,0.16184 0.38602,0.31594 0.38602,0.31587 0.51672,0.51684 2.27915,2.68053 3.96547,4.59763 0.84323,0.95856 1.68904,1.85188 2.3863,2.52695 0.34854,0.33755 0.6565,0.63498 0.9475,0.84233 0.14556,0.10377 0.28956,0.17644 0.4562,0.24566 0.16664,0.0693 0.38772,0.13996 0.70185,0.035 3.37543,-1.12532 5.63379,-4.28551 7.40455,-7.82651 1.77075,-3.54099 3.09346,-7.48716 4.35148,-10.31837 0.0184,-0.0414 0.0251,-0.0961 0.035,-0.14038 0.94707,-3.35182 2.06992,-6.17516 3.19342,-9.54625 0.86637,-2.59922 1.39573,-6.5168 2.17575,-10.24818 0.7799,-3.731382 1.84336,-7.248555 3.40398,-8.809221 0.41507,-0.415216 0.67208,-0.384298 0.73695,-0.350964 0.0647,0.03335 0.26234,0.25786 0.17546,0.912509 -0.54054,4.062612 -1.8916,14.183956 -2.21084,16.039106 -0.87739,5.09746 -1.77848,10.79537 -3.26361,15.33716 -1.66376,5.08652 -6.98343,13.89821 -6.98343,13.89821 -0.045,0.0793 -0.0591,0.15512 -0.0702,0.24567 0,0 -0.15469,1.14174 -0.14037,2.42166 0.0138,0.63998 0.0227,1.30901 0.17547,1.93031 0.15286,0.6213 0.39607,1.27615 0.98259,1.64953 1.24303,0.79115 4.75738,3.54527 7.58001,5.36977 2.20112,1.42259 7.61509,4.28177 7.61509,4.28177 l 0.91241,0.52646 0.91241,-0.52646 c 0,0 5.41398,-2.85918 7.6151,-4.28177 2.82262,-1.8245 6.33697,-4.57861 7.58,-5.36977 0.58653,-0.37338 0.82974,-1.02823 0.9826,-1.64953 0.15283,-0.6213 0.16165,-1.29033 0.17546,-1.93031 0.0144,-1.27992 -0.14037,-2.42166 -0.14037,-2.42166 -0.0112,-0.0905 -0.0252,-0.16638 -0.0702,-0.24567 0,0 -5.31967,-8.81169 -6.98343,-13.89821 -1.48513,-4.54179 -2.38622,-10.2397 -3.26361,-15.33716 -0.31924,-1.85515 -1.6703,-11.976494 -2.21084,-16.039106 -0.0869,-0.654649 0.11084,-0.879154 0.17547,-0.912509 0.0649,-0.03335 0.32187,-0.06424 0.73694,0.350964 1.56062,1.560666 2.62409,5.077839 3.40399,8.809221 0.78002,3.73138 1.30937,7.64896 2.17574,10.24818 1.1235,3.37109 2.24635,6.19443 3.19343,9.54625 0.0101,0.0442 0.0167,0.0989 0.035,0.14038 1.25803,2.83121 2.58073,6.77738 4.35149,10.31836 1.77075,3.541 4.02911,6.70119 7.40454,7.82652 0.31414,0.1049 0.53522,0.0341 0.70185,-0.035 0.16664,-0.0692 0.31065,-0.14189 0.45621,-0.24566 0.29099,-0.20734 0.59895,-0.50478 0.9475,-0.84233 0.69726,-0.67507 1.54306,-1.56839 2.38629,-2.52695 1.68633,-1.9171 3.44875,-4.08079 3.96547,-4.59763 0,7e-5 0.16663,-0.15403 0.38602,-0.31587 0.21953,-0.16183 0.5157,-0.36284 0.84222,-0.59665 0.6532,-0.46757 1.48118,-1.01201 2.24593,-1.61443 0.76486,-0.60241 1.46073,-1.23067 1.96519,-1.82502 0.25215,-0.29717 0.44304,-0.59199 0.56148,-0.9476 0.11911,-0.35561 0.082,-0.86557 -0.24565,-1.19328 -2.30578,-2.30603 -5.86115,-3.13639 -8.00112,-5.0539 -4.90146,-4.39229 -9.04472,-8.31552 -12.07186,-15.26698 -1.52699,-3.5071 -2.63295,-6.883113 -3.15833,-9.054884 -0.1059,-0.433669 -0.0894,-0.509636 -0.14037,-0.842316 0.76776,1.019044 1.69032,2.542154 2.91268,4.597641 1.4737,2.478259 3.16038,5.126019 4.91297,6.878909 1.2685,1.26848 5.96509,5.49265 10.73834,9.26547 2.38661,1.88641 4.75163,3.60422 6.73778,4.84332 0.99292,0.61953 1.89913,1.13416 2.66704,1.43896 0.76803,0.3048 1.4171,0.51969 2.10556,0.17547 0.0142,4.5e-4 0.0209,4.5e-4 0.035,0 1.62958,-0.88669 4.098241,-3.35838 6.071021,-6.24717 0.98645,-1.44441 1.81291,-2.96904 2.28102,-4.45726 0.46884,-1.48819 0.57681,-2.99467 -0.0702,-4.24667 -0.11106,-0.22494 -0.34582,-0.3782 -0.59657,-0.38606 -5.722671,-0.0207 -11.763621,-1.83333 -17.125201,-4.80822 -5.36281,-2.975403 -10.09033,-7.100144 -13.12464,-11.652031 -0.16498,-0.247484 -0.54096,-0.979253 -0.9475,-1.895211 -0.40654,-0.915957 -0.85293,-2.050657 -1.26333,-3.19378 -0.41052,-1.143125 -0.7566,-2.280677 -0.98259,-3.263974 -0.229,-0.983287 -0.27805,-1.832205 -0.21056,-2.10579 0.0385,-0.159501 0.0564,-0.22546 0.0702,-0.245676 0.0571,0.01561 0.34152,0.146664 0.80713,0.561544 0.98756,0.879973 2.48143,2.737269 4.17603,5.264475 6.98029,10.409384 16.04624,14.095549 27.266961,18.846813 0.0274,0.0161 0.0408,0.0227 0.0702,0.035 2.10542,0.4679 3.66846,0.54993 4.87788,0.28077 1.20957,-0.26914 2.08066,-0.96606 2.63194,-1.82501 1.10256,-1.717918 1.23803,-3.985297 2.3863,-6.28227 0.58047,-1.161026 1.43219,-2.17459 2.03537,-3.50965 0.60334,-1.335081 0.93921,-3.015086 0.59658,-5.19428 -0.0648,-0.329257 -0.40225,-0.550145 -0.73695,-0.526448 -13.43327,0.657309 -22.833061,-0.31388 -29.758541,-6.598141 -6.97396,-6.327994 -11.52295,-15.892141 -14.7038,-25.62044 -1.03687,-4.667509 -1.48083,-9.165981 -0.42111,-12.599642 0.47087,-1.525816 2.60491,-4.237354 4.59713,-5.931307 0.9961,-0.846977 1.99148,-1.470268 2.56176,-1.614439 0.2852,-0.0721 0.42723,-0.0529 0.4562,-0.03504 0.0286,0.01797 0.10186,0.08142 0.14038,0.421159 1.10284,9.612104 3.48967,19.427195 7.61509,27.901713 4.12378,8.471663 9.91633,15.599498 17.651591,19.829518 0.44507,0.251471 1.07866,-0.15922 1.01769,-0.666833 -0.78071,-7.026846 1.45643,-10.927645 4.70241,-16.109291 0.62386,-0.269249 2.00697,-0.480007 3.82509,-0.561544 1.90118,-0.08524 4.21808,-0.05054 6.59741,0 4.75892,0.10164 9.72437,0.3094 12.42279,-0.140386 0.82588,-0.137679 3.54211,-0.753064 6.31667,-1.158184 1.38734,-0.202571 2.80786,-0.343104 3.89528,-0.350965 0.54356,-0.0045 0.9939,0.04088 1.33352,0.105233 0.33961,0.06447 0.54767,0.161669 0.56148,0.175483 0.31936,0.31944 0.5676,1.111362 0.66676,1.930307 0.0927,0.769124 -0.0168,1.527793 -0.17546,1.965404 -1.46503,1.236295 -3.08794,2.369367 -5.50954,3.193781 -1.39234,0.13085 -2.80449,0.281895 -4.21112,0.280772 -1.27538,0 -2.74765,0.6585 -4.14092,1.649535 -1.39313,0.991035 -2.6682,2.31282 -3.3689,3.755325 -0.63653,1.310486 -0.49941,3.068556 -0.31583,4.562544 0.18069,1.470987 0.44239,2.630272 0.4562,2.667334 -0.0664,0.874121 -0.10252,1.756004 -0.14037,2.632237 -0.0661,1.477343 -0.13352,3.033516 -0.0702,3.790421 0.24885,2.976867 2.7912,5.202536 4.66732,6.70343 1.98449,1.587833 4.14093,2.035597 4.14093,2.035597 0.40009,0.07132 0.80937,-0.295485 0.80713,-0.70193 l -0.28075,-8.80922 c 3.23882,-0.119395 5.86106,-1.049088 7.54492,-2.948106 1.75092,-1.974545 2.41338,-4.887128 2.07046,-8.633738 0.70222,-0.656399 1.39564,-1.514202 2.28102,-2.421657 0.9534,-0.977199 2.08218,-1.913595 3.40399,-2.456755 0.0413,-0.009 0.0289,-0.02493 0.0702,-0.03504 1.24523,-0.288386 2.3749,-0.677345 2.73722,-0.80722 0.38039,0.335961 2.28248,2.03024 2.94778,2.737527 1.52219,1.618931 2.7781,4.103426 4.10584,6.563045 1.3361,2.475262 2.73911,4.667923 4.7375,6.141886 1.91787,1.414552 4.38212,2.074568 7.54492,1.649535 0.37994,0.334422 0.61933,0.577425 0.77203,1.193281 0.0137,0.06357 0.0963,0.715834 0.0702,1.474052 -0.0274,0.758197 -0.0935,1.658791 -0.14037,2.562044 -0.0454,0.903266 -0.0702,1.797952 -0.0702,2.491852 10e-4,0.346933 6.2e-4,0.653132 0.035,0.912509 0.0166,0.129694 0.022,0.249291 0.0702,0.386061 0.0482,0.136747 0.13476,0.330705 0.4562,0.491352 0.48421,0.242215 0.74028,0.107815 1.08787,0 0.34774,-0.107817 0.74961,-0.271675 1.12296,-0.491352 0.74642,-0.439351 1.48089,-1.067102 1.89501,-1.89521 0.64781,-1.295471 1.82481,-3.948563 1.82481,-6.176984 -0.012,-2.41629 -0.19721,-4.996651 -0.35092,-7.335167 0.35986,-1.040956 0.19067,-2.196468 -0.31584,-3.228878 -0.56092,-1.143078 -1.46502,-2.194951 -2.70213,-2.456754 -1.12169,-0.23733 -1.66365,-0.705681 -2.45648,-1.438956 -0.79283,-0.733275 -1.75488,-1.713629 -3.50926,-2.562044 -1.65479,-0.800335 -3.37103,-1.646492 -4.24621,-2.526947 -0.43754,-0.440229 -0.62824,-0.81926 -0.66676,-1.193281 -0.0348,-0.342104 0.0642,-0.787611 0.4562,-1.298571 1.34508,-1.008971 2.59835,-1.196358 3.79001,-0.842316 1.1918,0.354042 2.33614,1.301547 3.19342,2.526948 1.12073,1.602153 2.54119,2.735876 4.21112,3.088492 1.51353,0.319574 3.19348,-0.118632 4.84278,-1.193281 0.96221,0.62328 1.92165,2.055857 2.94778,3.193781 0.55251,0.612688 1.18346,1.192381 2.03537,1.263473 0.85206,0.07109 1.63139,-0.505547 2.31611,-1.509148 0.0803,-0.112411 0.13813,-0.247923 0.14037,-0.386062 0,-2.688279 -0.60522,-4.151966 -1.61426,-5.194282 -1.00891,-1.042405 -2.25868,-1.62723 -3.64963,-3.018298 0.006,0.0045 -0.0564,-0.275583 -0.0702,-0.772123 -0.0138,-0.496551 0.0275,-1.153231 0,-1.89521 -0.0558,-1.48397 -0.50871,-3.323689 -2.35121,-4.562545 -1.79542,-1.207319 -4.1947,-1.661698 -6.77287,-0.526447 -1.9863,0.874627 -2.37329,1.220145 -3.22852,1.368763 -0.75138,0.130053 -2.61961,0.144878 -5.61482,0.140386 0.072,-0.785757 0.24243,-1.431971 0.49129,-1.860114 0.32266,-0.555209 0.74617,-0.880703 1.33352,-1.228378 1.17459,-0.695314 2.90129,-1.252186 4.42167,-2.772622 0.98715,-0.987576 1.47943,-2.230025 2.21084,-3.053395 0.0944,0.01179 0.2129,0.06582 0.38602,0.105233 0.42015,0.0958 0.97003,0.2532 1.57916,0.421158 0.60898,0.167969 1.27517,0.315251 1.85991,0.421158 0.58475,0.105907 1.05677,0.210591 1.61426,0 0.22887,-0.0922 0.42577,-0.316632 0.45621,-0.561544 0,0 0.55791,-3.048476 -0.77204,-5.29957 -1.30581,-2.209967 -4.06453,-3.401272 -6.21139,-3.299071 -1.07364,0.05111 -1.78481,0.485455 -2.31612,0.70193 -0.5313,0.216543 -0.84442,0.307951 -1.61426,0 -1.09512,-0.438274 -2.37642,-0.502975 -3.47417,-0.456255 -0.5488,0.02325 -1.01354,0.08614 -1.4037,0.140387 -0.37154,0.05167 -0.61747,0.104334 -0.84222,0.175482 -0.0112,0.0045 -0.0213,-0.0045 -0.035,0 -1.52798,0.369024 -2.29683,1.680342 -2.87759,2.948106 -0.58806,1.283925 -1.06445,2.60891 -1.68445,3.228877 -0.24984,0.249954 -1.15582,0.625223 -2.14065,0.912509 -0.98495,0.287297 -2.03342,0.543081 -2.8425,0.947605 -0.92173,0.461005 -1.25552,1.356073 -1.61426,2.070693 -0.35874,0.714632 -0.67855,1.194124 -1.12297,1.29857 -0.10993,0.0067 -1.34681,0.07469 -2.98287,0.0702 -1.70616,-0.0045 -3.72089,-0.111185 -4.70241,-0.421157 -1.05587,-0.333445 -1.43777,-0.759735 -2.10556,-1.263474 -0.66778,-0.503728 -1.57755,-1.044472 -3.26361,-1.368763 -1.76594,-0.339589 -5.55468,-0.411893 -9.0188,-0.456254 -1.73192,-0.02179 -3.36774,-0.03965 -4.59713,-0.03504 -0.50639,0.0023 -0.84845,0.03279 -1.19315,0.03504 0.40061,-1.816663 1.30636,-3.337155 2.14065,-5.018799 0.95657,-1.928005 1.60397,-4.206043 0.59657,-7.300071 -0.0986,-0.297416 -0.42522,-0.487813 -0.73694,-0.456255 -9.32905,1.211487 -17.48813,0.741901 -23.40678,-4.071193 -5.985281,-4.86735 -9.754491,-12.363288 -10.176861,-19.794423 -0.29087,-3.175721 0.44519,-6.4931551 1.22824,-8.0721935 0.16709,-0.3368482 0.36775,-0.5299176 0.4913,-0.6668337 0.0953,0.2991911 0.17608,0.8765248 0.21056,1.6144384 0.39316,8.5417128 5.41405,14.0110938 10.808521,15.2669758 2.18282,0.508208 4.40228,0.09737 6.10612,-1.052895 1.44422,-0.974941 2.44705,-2.528722 2.77231,-4.492352 5.02749,5.539328 11.39203,10.107757 18.14289,13.301572 0.0688,0.02572 0.13711,0.03279 0.21055,0.03504 4.42043,0.491205 8.41816,0.463723 11.4051,-1.087991 2.8948,-1.503815 4.63015,-4.534152 4.73751,-9.405861 2.95044,1.636923 6.28673,3.290637 9.86102,4.562545 3.28551,1.16909 6.65021,1.947996 9.79084,1.895211 3.14076,-0.05268 6.06845,-0.980141 8.31695,-3.228878 0.49205,-0.492193 2.46838,-2.589156 4.31639,-5.264474 1.84801,-2.67533 3.62541,-5.867719 3.43908,-8.774124 -0.0913,-1.4234802 -0.44033,-2.9637054 -1.26333,-4.281772 -0.82285,-1.3180676 -2.13722,-2.4119655 -4.07075,-2.9130088 -0.24542,-0.060647 -0.53462,0.021002 -0.70185,0.2105782 -3.38671,3.9516746 -9.26753,5.5493461 -15.37057,4.1413866 -6.10346,-1.4081276 -12.49141,-5.84541384 -16.5988,-8.9847027 -4.62769,-3.5370527 -9.26228,-7.3693423 -14.24761,-11.5116493 -2.47408,-2.055677 -4.7109,-4.133053 -6.31667,-6.176983 -1.25294,-1.594998 -1.93442,-3.160897 -2.24593,-4.632737 0.48944,0.334679 1.04515,0.719203 1.71954,1.228377 1.72476,1.301939 3.79956,2.893984 5.2639,3.860615 7.70647,5.087598 14.34115,11.6185561 23.82788,15.0212981 0.0123,0.0045 0.0213,-0.0045 0.035,0 6.72345,2.6556544 13.44129,4.0747651 19.23075,2.842816 5.80075,-1.2342953 10.57386,-5.2170343 13.12464,-12.9155101 0.0212,-0.05526 0.0634,-0.116519 0.0702,-0.175482 0.13263,-2.258652 -0.46814,-4.951671 -1.68445,-6.843816 -1.29041,-2.007531 -3.79,-2.842816 -3.79,-2.842816 -0.26054,-0.106581 -0.58116,-0.03144 -0.77204,0.175482 0,0 -1.09258,1.169731 -2.59685,2.421659 -1.50427,1.251928 -3.44695,2.537661 -4.94806,2.913009 -3.16045,0.790171 -10.9129,0.396359 -14.14233,-0.526448 -1.57603,-0.450369 -4.14697,-1.735833 -6.28157,-2.948105 -2.1346,-1.212295 -3.86019,-2.316369 -3.86019,-2.316369 -0.0289,-9.99e-4 -0.0412,-9.99e-4 -0.0702,0 -1.75369,-0.876985 -8.00493,-4.10347 -13.26501,-7.580843 -2.62997,-1.738719 -4.97651,-3.560839 -6.38685,-5.124088 -0.70512,-0.781646 -1.18452,-1.50423 -1.33352,-2.035597 -0.12629,-0.450952 -0.0883,-0.725784 0.14037,-1.017798 0.13497,0.01977 0.36821,0.02886 0.63166,0.105234 0.59921,0.173708 1.43422,0.501369 2.45649,0.912508 2.04453,0.82228 4.78226,2.045626 7.6151,3.334168 5.66591,2.577048 11.71909,5.413507 14.28269,6.212079 4.90061,1.526557 12.93073,3.670453 19.86242,3.50965 3.46577,-0.08041 6.67923,-0.729525 9.08899,-2.386562 2.40976,-1.657049 3.93037,-4.380088 3.93037,-8.247676 0,-1.884272 -0.0392,-3.391142 -0.38602,-4.738028 -0.34691,-1.346891 -1.0583,-2.497398 -2.17574,-3.614942 -0.60195,-0.602026 -1.23755,-0.963266 -1.895,-0.982699 -0.65747,-0.0194 -1.2535,0.279411 -1.71954,0.63174 -0.93192,0.704628 -1.57366,1.749304 -2.14065,2.316366 -1.24357,1.243731 -3.7941,2.12203 -7.08871,2.562044 -3.29472,0.439993 -7.33978,0.483434 -11.51037,0.21058 -8.26726,-0.54089 -17.16253,-3.592264 -22.31891,-5.510146 -1.42191,-0.528859 -2.81007,-1.050306 -3.89528,-1.509157 -1.08533,-0.458871 -1.92612,-0.948815 -2.10556,-1.158178 -0.20137,-0.240396 -0.37802,-0.729541 -0.21055,-1.123094 0.16759,-0.393563 0.71235,-0.946135 2.3863,-1.08799 1.52038,-0.128864 4.5814,0.709888 7.54491,1.71973 2.96351,1.009831 5.85168,2.153198 7.54491,2.491855 3.27559,0.655242 11.19346,0.820511 16.77427,0.491344 4.16619,-0.245727 8.60224,-0.387432 12.66844,-1.895209 1.37896,-0.511387 2.90456,-1.372172 4.2462,-2.246178 1.34164,-0.874007 2.43105,-1.685656 2.98288,-2.316366 0.63294,-0.72356 1.02486,-1.975498 1.19314,-3.579846 0.16815,-1.604357 0.0486,-3.528589 -0.66675,-5.545242 -0.36468,-1.027844 -0.83548,-1.769186 -1.40371,-2.246178 -0.56835,-0.477013 -1.271,-0.661383 -1.895,-0.63173 -1.24825,0.05931 -2.27424,0.786267 -3.08815,1.193282 -1.67766,0.838882 -6.72962,3.103023 -9.68556,3.930804 -9.61687,2.600867 -19.06134,1.935124 -29.68836,0.245677 -2.19492,-0.348928 -4.24314,-0.968437 -6.03593,-2.140886 -0.51574,-0.337318 -0.88046,-1.296034 -0.73694,-2.000501 0.0716,-0.352229 0.23649,-0.608948 0.52639,-0.80722 0.28976,-0.198392 0.73254,-0.321265 1.47389,-0.245677 9.00417,0.918322 23.33868,2.5296 34.49604,0.421157 5.5771,-1.053957 10.38754,-3.041366 13.3001,-6.598139 2.91258,-3.556783 3.78438,-8.632364 1.61426,-15.512654 -0.0164,-0.07581 -0.0651,-0.144316 -0.10522,-0.210573 -0.70663,-0.863666 -1.87638,-1.434049 -3.08815,-1.684636 -1.2119,-0.250578 -2.54658,-0.199732 -3.54435,0.561542 -1.61677,1.233446 -4.42167,3.614939 -4.42167,3.614939 l 0,-0.07021 c -7.59437,5.981241 -25.15831,10.103997 -38.39133,9.125088 0.31936,-1.434738 0.93249,-2.497776 1.9301,-3.26398 1.17885,-0.90557 2.84182,-1.494675 4.7375,-1.89521 3.77892,-0.798438 8.47629,-0.90731 12.38769,-2.140886 l 0,0.035 c 3.15564,-0.849074 11.61019,-2.80055 19.26585,-6.527951 3.82782,-1.863716 7.45476,-4.176402 10.17686,-7.05439 2.72223,-2.878018 4.52695,-6.364217 4.52695,-10.458757 0,-3.92351 -1.23246,-7.19233 -3.36889,-8.42316 -2.13645,-1.23085 -3.27736,-1.33811 -4.07075,-1.22838 -0.79324,0.10972 -1.29843,0.45625 -1.29843,0.45625 -0.0757,0.0717 -0.1384,0.18329 -0.17546,0.28077 -1.11522,2.23066 -3.67662,4.66521 -7.1238,7.0544 -3.44703,2.38918 -7.78593,4.74811 -12.3526,6.84382 -8.55304,3.925016 -17.90905,6.942499 -24.28409,8.177486 0.33231,-0.460241 0.79916,-0.939794 1.4037,-1.474053 1.15931,-1.024603 2.77011,-2.159549 4.70241,-3.334168 3.86446,-2.349245 8.96645,-4.899265 14.24761,-7.545745 5.28099,-2.64649 10.76369,-5.35688 15.33547,-8.0371 4.5182,-2.6489 8.12026,-5.28063 10.63306,-8.17748 2.5128,-2.89684 3.16994,-4.67056 3.86019,-6.91402 0.76528,-2.48637 1.39948,-8.567 0.9475,-12.63473 -0.44676,-4.02266 -1.67201,-6.04414 -2.87759,-8.28278 -1.3068,-2.42724 -3.32033,-3.58955 -5.61482,-3.68513 -2.46457,-0.10265 -4.67023,1.68988 -5.82538,3.61494 -1.21383,2.02307 -0.81653,4.28711 -1.71953,6.91401 -2.97095,8.23646 -12.25183,13.59151 -20.59937,19.33817 -6.80293,4.68327 -14.60496,8.94102 -20.63446,13.9333 l -3.75491,-4.07119 c -0.2283,-0.23779 -0.64332,-0.29576 -0.91241,-0.10523 0,0 -7.1542,5.05804 -10.84362,8.24767 -1.79871,1.55487 -5.5863,4.65888 -8.91352,7.475562 -1.66361,1.408316 -3.20887,2.766966 -4.351481,3.790419 -0.5714,0.511737 -1.03026,0.924652 -1.36862,1.26348 -0.16926,0.169398 -0.27585,0.322095 -0.38602,0.45625 -0.0551,0.06701 -0.12582,0.128934 -0.17546,0.210583 -0.0493,0.08181 -0.10522,0.131355 -0.10522,0.421157 0,0.033 -0.0597,0.771685 -0.10522,1.71973 -0.0455,0.948035 -0.12106,2.224696 -0.14037,3.474554 -0.0192,1.249838 0.0239,2.471583 0.10522,3.544741 0.0413,0.53657 0.0901,1.054247 0.17546,1.474053 0.0859,0.419787 0.18052,0.792418 0.42111,1.123094 0.59026,0.81188 1.50486,1.491665 2.281021,2.175981 0.38795,0.342147 0.75949,0.686315 0.9826,0.947604 0.22374,0.261339 0.28074,0.386063 0.28074,0.386063 0,1.114043 0.22508,3.263731 -1.4388,5.861108 -1.761411,2.749903 -2.961141,4.088421 -4.070741,4.316876 -0.67977,0.139956 -1.57544,0.220685 -2.35121,0.210574 -0.77574,-0.0101 -1.4735,-0.143696 -1.64935,-0.245677 -0.44537,-0.257789 -0.31583,-0.701928 -0.31583,-0.701928 0.004,-0.04281 0.004,-0.09741 0,-0.140385 0,-1.234217 0.0697,-2.409977 -0.21056,-3.544742 -0.28038,-1.134795 -0.97835,-2.212535 -2.31611,-2.842824 -2.73398,-0.839803 -6.00619,-0.923532 -8.87844,-2.281272 -0.42403,-0.212164 -0.69714,-0.574974 -0.9124,-1.052887 -0.21525,-0.477922 -0.32746,-1.072818 -0.42111,-1.754833 -0.18757,-1.364021 -0.18465,-2.931184 -0.80713,-4.176482 -0.45737,-0.914661 -1.11844,-1.535879 -1.68445,-2.070689 -0.56603,-0.534829 -1.04118,-0.994469 -1.29843,-1.509146 -0.32273,-0.644081 -0.28612,-1.99286 0.10522,-3.720231 0.39139,-1.727401 1.14006,-3.821472 2.10556,-6.001503 1.93094,-4.36008 4.68515,-9.10611 7.08871,-12.35397 4.73207,-6.3945 12.25057,-11.36641 18.669271,-15.26697 1.04028,-0.29003 2.32736,-0.2199 4.70241,-0.28078 1.11799,-0.0288 1.38879,0.11164 1.64936,0.31587 0.26068,0.2042 0.58217,0.7307 1.47389,1.12309 0.96733,0.42566 2.58368,0.67492 4.28129,0.73702 1.69751,0.0621 3.41289,-0.0922 4.63223,-0.70192 1.87018,-0.93521 3.96247,-2.61937 4.49186,-3.0534 0.50541,0.35994 1.76751,1.29299 3.19342,1.64954 0.97228,0.24307 2.41779,0.11407 4.00056,-0.0702 1.58276,-0.18429 3.21175,-0.47512 4.35149,-0.8774 2.40838,-0.85012 3.69565,-3.20832 4.38657,-4.52745 0.49407,-0.94475 0.51539,-2.31582 0.45621,-3.75533 -0.0594,-1.43953 -0.23566,-2.8361 -0.73695,-3.75532 -0.43464,-0.79719 -1.07957,-1.37008 -1.71954,-1.82502 -0.6401,-0.45493 -1.24789,-0.79133 -1.8599,-0.84232 -0.82328,-0.0686 -1.30155,0.45055 -1.75464,0.94761 -0.45321,0.49704 -0.84222,0.98531 -0.84222,1.71973 0,0.26663 0.033,0.66812 0.0702,1.19328 0.0385,0.52514 0.0915,1.157 0.10522,1.82501 0.0219,1.33602 -0.19589,2.78049 -0.4913,3.26398 -0.84558,1.38383 -1.99856,1.93587 -3.43907,2.17598 -1.39272,0.23209 -3.41085,0 -4.80769,0 -0.59095,0 -2.17625,-0.0894 -3.75491,-0.17548 -1.5785,-0.0861 -3.16711,-0.17549 -4.00056,-0.17549 -0.31497,0 -0.47193,-0.0608 -0.52639,-0.10523 -0.0543,-0.0445 -0.0509,-0.0791 -0.0702,-0.87741 -0.0192,-0.7983 0.009,-1.37218 0.035,-1.93031 0.0261,-0.55812 0.0317,-1.1546 0.0702,-1.61444 0.0348,-0.41486 0.14037,-0.77212 0.14037,-0.77212 0,0 0.47525,-0.14724 0.80713,-0.21058 0.66352,-0.12649 1.53583,-0.21058 2.28102,-0.21058 1.49105,0 2.98136,0.24503 5.08843,1.08799 1.90185,0.76077 3.36889,2.77263 3.36889,2.77263 0.33305,0.44349 1.16973,0.20055 1.22824,-0.35097 0,0 0.11084,-0.8944 0.17546,-2.0356 0.0661,-1.14119 0.10185,-2.4737 0,-3.33416 -0.12201,-1.03905 -0.79656,-2.07216 -1.71954,-3.05339 -0.92283,-0.98126 -2.12927,-1.88923 -3.40398,-2.24618 -0.68596,-0.19214 -1.67544,-0.21911 -2.91269,-0.28077 -1.23724,-0.0618 -2.63977,-0.0997 -4.00056,-0.10523 -2.60792,-0.0101 -4.75635,0.0646 -4.94805,0.0702 -0.22201,-0.18397 -1.62886,-1.3828 -2.77232,-2.28128 -1.23561,-0.9709 -3.45685,-2.63116 -5.54463,-3.54474 -2.09906,-0.91853 -4.28092,-1.05499 -8.492421,-0.80722 -4.3459,0.2557 -5.02746,1.93864 -5.79028,2.21108 -0.92752,0.33129 -3.55153,0.37546 -4.87787,-0.14039 -0.59356,-0.23084 -2.64199,-1.4561 -4.38658,-2.52695 -1.74457,-1.07085 -3.26361,-2.03559 -3.26361,-2.03559 -0.4109,-0.26872 -1.0717,0.0357 -1.08787,0.52645 0,0 -0.47752,5.69169 -0.10523,8.66883 0.31469,2.5176 0.8662,4.98588 1.01769,5.65054 -0.83511,0.12157 -2.64147,0.37451 -4.52695,1.08799 -2.35372,0.89056 -7.48051,3.23949 -9.79084,5.68563 -2.13653,2.26264 -3.71982,4.63274 -3.71982,4.63274 -0.32181,0.45899 0.19458,1.18581 0.66676,1.08799 0.47219,-0.0978 0.98085,-0.10995 1.89501,-0.14039 0.77438,-0.0258 1.64281,0.20473 2.31611,0.49136 0.33672,0.14328 0.58558,0.26168 0.77204,0.38605 0.0616,0.0409 0.14037,0.14038 0.14037,0.14038 -0.0311,0.10884 -0.11196,0.42259 -0.17547,0.59665 -0.15481,0.4251 -0.4562,1.08799 -0.4562,1.08799 0,0 -0.009,0.041 -0.24565,0.14039 -0.23673,0.0994 -0.64259,0.22997 -1.12296,0.38606 -0.96099,0.31215 -2.35994,0.7301 -4.17602,1.54424 -1.96631,0.88159 -3.96637,2.75551 -5.57973,4.42216 -1.61334,1.66662 -2.80741,3.15869 -2.80741,3.15869 -0.3155,0.41142 0.0431,1.09361 0.56148,1.08799 0,0 0.51983,0.0299 1.82482,0.38606 0.36302,0.0991 0.85599,0.6321 1.22824,1.19328 0.25616,0.38619 0.33161,0.51054 0.42111,0.70193 l -6.14121,7.79142 -6.1412,-7.79142 c 0.0895,-0.19139 0.16495,-0.31574 0.42111,-0.70193 0.37225,-0.56118 0.86522,-1.09425 1.22824,-1.19328 1.30498,-0.35618 1.82481,-0.38606 1.82481,-0.38606 0.5184,0.006 0.87698,-0.67657 0.56149,-1.08799 0,0 -1.19407,-1.49207 -2.80741,-3.15869 -1.61337,-1.66665 -3.61342,-3.54057 -5.57973,-4.42216 -1.81608,-0.81414 -3.21503,-1.23209 -4.17602,-1.54424 -0.48037,-0.15609 -0.88623,-0.28668 -1.12296,-0.38606 -0.23688,-0.0994 -0.24565,-0.14039 -0.24565,-0.14039 0,0 -0.30139,-0.66289 -0.45621,-1.08799 -0.0634,-0.17406 -0.14436,-0.4878 -0.17546,-0.59665 0,0 0.0787,-0.0995 0.14037,-0.14038 0.18646,-0.12437 0.43532,-0.24277 0.77204,-0.38605 0.67329,-0.28663 1.54173,-0.51717 2.31611,-0.49136 0.91416,0.0304 1.42282,0.0426 1.895,0.14039 0.47219,0.0978 0.98858,-0.629 0.66676,-1.08799 0,0 -1.58329,-2.3701 -3.71982,-4.63274 -2.31032,-2.44614 -7.43711,-4.79507 -9.79084,-5.68563 -1.88547,-0.71348 -3.69183,-0.96642 -4.52694,-1.08799 0.15148,-0.66466 0.70299,-3.13294 1.01768,-5.65054 0.37224,-2.97714 -0.10522,-8.66883 -0.10522,-8.66883 -0.0162,-0.49075 -0.67698,-0.79517 -1.08787,-0.52645 0,0 -1.51904,0.96474 -3.26361,2.03559 -1.74459,1.07085 -3.79303,2.29611 -4.38658,2.52695 -1.32634,0.51585 -3.95035,0.47168 -4.87787,0.14039 -0.76282,-0.27244 -1.44438,-1.95538 -5.79029,-2.21108 -4.21149,-0.24777 -6.39335,-0.1113 -8.49241,0.80722 -2.08778,0.91358 -4.30902,2.57384 -5.54463,3.54474 -1.14346,0.89848 -2.55031,2.09731 -2.77232,2.28128 -0.1917,-0.006 -2.34013,-0.0798 -4.94806,-0.0702 -1.36078,0.006 -2.76331,0.0435 -4.00056,0.10523 -1.23724,0.0617 -2.22672,0.0886 -2.91268,0.28077 -1.27471,0.35695 -2.48116,1.26492 -3.40399,2.24618 -0.92297,0.98123 -1.59753,2.01434 -1.71954,3.05339 -0.10185,0.86046 -0.0661,2.19297 0,3.33416 0.0647,1.1412 0.17547,2.0356 0.17547,2.0356 0.0585,0.55152 0.89519,0.79446 1.22824,0.35097 0,0 1.46704,-2.01186 3.36889,-2.77263 2.10706,-0.84296 3.59738,-1.08799 5.08843,-1.08799 0.74519,0 1.61749,0.0841 2.28102,0.21058 0.33188,0.0633 0.80713,0.21058 0.80713,0.21058 0,0 0.10556,0.35726 0.14037,0.77212 0.0385,0.45984 0.0441,1.05632 0.0702,1.61444 0.0262,0.55813 0.0544,1.13201 0.035,1.93031 -0.0193,0.79829 -0.0158,0.83293 -0.0702,0.87741 -0.0545,0.0445 -0.21142,0.10523 -0.52639,0.10523 -0.83345,0 -2.42207,0.0894 -4.00056,0.17549 -1.57866,0.086 -3.16396,0.17548 -3.75491,0.17548 -1.39684,0 -3.41498,0.23209 -4.80769,0 -1.44051,-0.24011 -2.5935,-0.79215 -3.43908,-2.17598 -0.2954,-0.48349 -0.5132,-1.92796 -0.49129,-3.26398 0.0138,-0.66801 0.0668,-1.29987 0.10522,-1.82501 0.0372,-0.52516 0.0702,-0.92665 0.0702,-1.19328 0,-0.73442 -0.389,-1.22269 -0.84222,-1.71973 -0.45308,-0.49706 -0.93135,-1.01622 -1.75463,-0.94761 -0.61201,0.051 -1.21981,0.38739 -1.85991,0.84232 -0.63996,0.45494 -1.28489,1.02783 -1.71954,1.82502 -0.50129,0.91922 -0.67757,2.31579 -0.73694,3.75532 -0.0592,1.43951 -0.0378,2.81058 0.4562,3.75533 0.69093,1.31913 1.97819,3.67733 4.38658,4.52745 1.13974,0.40228 2.76872,0.69311 4.35148,0.8774 1.58278,0.18427 3.02829,0.31327 4.00056,0.0702 1.42592,-0.35655 2.68802,-1.2896 3.19343,-1.64954 0.52939,0.43403 2.62167,2.11819 4.49186,3.0534 1.21933,0.60971 2.93472,0.76404 4.63222,0.70192 1.69762,-0.0621 3.31397,-0.31136 4.2813,-0.73702 0.89171,-0.39239 1.21321,-0.91889 1.47389,-1.12309 0.26056,-0.2042 0.53136,-0.34456 1.64935,-0.31587 2.37506,0.0609 3.66213,-0.009 4.70241,0.28078 6.41871,3.90056 13.93721,8.87247 18.66928,15.26697 2.40355,3.24786 5.15777,7.99389 7.08871,12.35397 0.9655,2.180031 1.71417,4.274102 2.10555,6.001503 0.3914,1.727371 0.42801,3.07615 0.10522,3.720231 -0.25724,0.514677 -0.73239,0.974317 -1.29842,1.509146 -0.56601,0.53481 -1.22709,1.156028 -1.68445,2.070689 -0.62248,1.245298 -0.61956,2.812461 -0.80713,4.176482 -0.0936,0.682015 -0.20586,1.276911 -0.42111,1.754833 -0.21526,0.477913 -0.48838,0.840723 -0.91241,1.052887 -2.87225,1.35774 -6.14445,1.441469 -8.87843,2.281272 -1.33776,0.630289 -2.03573,1.708029 -2.31611,2.842824 -0.28025,1.134765 -0.21056,2.310525 -0.21056,3.544742 -0.004,0.043 -0.004,0.09761 0,0.140385 0,0 0.12954,0.444139 -0.31583,0.701928 -0.17586,0.101981 -0.87361,0.235836 -1.64936,0.245677 -0.77576,0.0101 -1.67144,-0.07061 -2.3512,-0.210574 -1.1096,-0.228455 -2.30933,-1.566973 -4.07074,-4.316876 -1.66389,-2.597377 -1.4388,-4.747065 -1.4388,-5.861108 0,0 0.0571,-0.124724 0.28074,-0.386063 0.22311,-0.261289 0.59464,-0.605457 0.98259,-0.947604 0.77616,-0.684316 1.69077,-1.364101 2.28102,-2.175981 0.2406,-0.330676 0.3352,-0.703307 0.42111,-1.123094 0.0854,-0.419806 0.13415,-0.937483 0.17547,-1.474053 0.0813,-1.073158 0.12448,-2.294903 0.10522,-3.544741 -0.0193,-1.249858 -0.0949,-2.526519 -0.14037,-3.474554 -0.0455,-0.948045 -0.10522,-1.686656 -0.10522,-1.71973 0,-0.289802 -0.0559,-0.339428 -0.10522,-0.421157 -0.0496,-0.08161 -0.12038,-0.143506 -0.17547,-0.210583 -0.11016,-0.134155 -0.21675,-0.286852 -0.38602,-0.45625 -0.33836,-0.338828 -0.79721,-0.751743 -1.36861,-1.26348 -1.14261,-1.023453 -2.68787,-2.382103 -4.35148,-3.790419 -3.32722,-2.816682 -7.11481,-5.920692 -8.91353,-7.475562 -3.68908,-3.18969 -10.84328,-8.24773 -10.84328,-8.24773 -0.26908,-0.19047 -0.68411,-0.1325 -0.91241,0.10524 l -3.75491,4.07119 c -6.02949,-4.99228 -13.83153,-9.25003 -20.63445,-13.93331 -8.34754,-5.74666 -17.62842,-11.10171 -20.59937,-19.33816 -0.90301,-2.6269 -0.5057,-4.89095 -1.71954,-6.91402 -1.15515,-1.92506 -3.3608,-3.71764 -5.82537,-3.61494 z m 73.55412,13.26648 c 1.23889,-0.0519 3.75494,0.0986 5.43936,0.63174 0.84213,0.2665 1.408,0.68279 1.54407,0.9125 0.0675,0.11487 0.11567,0.19089 0.0702,0.35097 -0.0455,0.16005 -0.18649,0.43214 -0.52639,0.77212 -1.78549,1.78573 -4.46267,2.34277 -6.42195,2.00051 -0.97972,-0.17114 -1.74359,-0.53475 -2.17574,-1.0529 -0.43217,-0.51815 -0.63586,-1.12831 -0.35093,-2.0707 0.18013,-0.59589 0.5005,-0.92353 0.91241,-1.15818 0.41205,-0.23464 0.97905,-0.36386 1.50898,-0.38606 z m 108.155441,0 c 0.43888,-0.0164 0.81324,-0.0129 1.12297,0 0.52992,0.0222 1.09693,0.15142 1.50898,0.38606 0.4119,0.23465 0.73227,0.56229 0.91241,1.15818 0.28493,0.94239 0.0812,1.55255 -0.35093,2.0707 -0.43215,0.51815 -1.19602,0.88176 -2.17574,1.0529 -1.95928,0.34226 -4.636461,-0.21478 -6.421951,-2.00051 -0.3399,-0.33998 -0.48091,-0.61207 -0.52639,-0.77212 -0.0455,-0.16008 0.002,-0.2361 0.0702,-0.35097 0.13607,-0.22971 0.70194,-0.646 1.54407,-0.9125 1.26331,-0.39982 2.999751,-0.5824 4.316391,-0.63174 z M -214.1211,-15.318047 c 0.19738,-0.05009 0.21056,0.386061 0.21056,0.386061 0.0372,0.438432 -0.17117,1.381859 -0.59657,2.421659 -0.84338,2.06163 -2.31017,4.5106013 -2.94778,5.9313073 0,0.012241 -0.0295,0.023022 -0.035,0.035044 -3.00194,5.68781135 -6.84395,12.3569091 -11.79112,17.3376687 -4.6467,4.678592 -12.46431,7.926775 -19.4413,7.545746 1.56873,-0.917787 3.31598,-1.949961 4.35148,-2.597141 0.0138,-0.0056 0.0241,0.0056 0.035,0 12.99009,-7.1665573 22.99158,-19.6676704 30.10946,-30.990204 0.023,-0.05694 0.077,-0.06301 0.10522,-0.0702 z m 126.333421,0 c 0.0282,0.0067 0.0822,0.01325 0.10523,0.0702 7.11787,11.3225325 17.11936,23.8236456 30.10946,30.990203 0.0112,0.0056 0.0213,-0.0056 0.035,0 1.03549,0.64718 2.78275,1.679354 4.35148,2.597141 -6.97699,0.38103 -14.79461,-2.867154 -19.44131,-7.545746 -4.94717,-4.9807597 -8.78918,-11.64985745 -11.79112,-17.3376688 -0.006,-0.012131 -0.035,-0.022913 -0.035,-0.035044 -0.63762,-1.420706 -2.1044,-3.8696772 -2.94778,-5.9313072 -0.4254,-1.0398 -0.63375,-1.983227 -0.59658,-2.421659 0,0 0.0131,-0.436151 0.21056,-0.386061 z M -203.6284,-4.9294845 c 0.22874,0.2298624 0.44523,0.4087922 0.56148,0.8423161 0.16469,0.6151259 0.19115,1.4641017 0.0702,2.4216575 -0.24045,1.91512361 -1.0222,4.3494165 -2.21083,6.6683337 -1.18022,2.3025884 -2.99982,4.7729554 -4.91297,6.6683342 -1.40043,1.387283 -2.82882,2.216649 -4.07074,2.667333 1.99661,-2.478531 3.72473,-5.1338139 5.12352,-7.9318071 0.45778,-0.9158221 1.74337,-3.9269888 3.05306,-6.7736233 0.65471,-1.4233112 1.32873,-2.814559 1.85991,-3.7553249 0.21084,-0.3734943 0.37655,-0.5991782 0.52639,-0.8072192 z m 105.348031,0 c 0.14984,0.208041 0.31554,0.4337249 0.52639,0.8072192 0.53117,0.9407659 1.2052,2.3320137 1.85991,3.7553249 1.30969,2.8466345 2.59528,5.8578012 3.05306,6.7736233 1.39878,2.7979932 3.12691,5.4532761 5.12352,7.9318071 -1.24192,-0.450684 -2.67031,-1.28005 -4.07074,-2.667333 -1.91315,-1.8953788 -3.73275,-4.3657458 -4.91297,-6.6683342 -1.18864,-2.3189172 -1.97039,-4.75321009 -2.21084,-6.6683337 -0.12096,-0.9575558 -0.0945,-1.8065316 0.0702,-2.4216575 0.11625,-0.4335239 0.33273,-0.6124537 0.56148,-0.8423161 z"
     id="path3961-5" />
</svg>
