<?xml version="1.0" encoding="UTF-8" standalone="no"?>
<!-- Created with Inkscape (http://www.inkscape.org/) -->
<svg
   xmlns:svg="http://www.w3.org/2000/svg"
   xmlns="http://www.w3.org/2000/svg"
   version="1.0"
   width="900"
   height="600"
   id="svg2">
  <defs
     id="defs4" />
  <g
     id="layer1">
    <g
       transform="matrix(1.5,0,0,1.5,-132.85713,-258.54327)"
       id="g2170">
      <path
         d="M 88.571419,372.36218 L 88.571419,172.36218 L 388.57142,172.36218 L 688.57142,172.36218 L 688.57142,372.36218 L 688.57142,572.36218 L 388.57142,572.36218 L 88.571419,572.36218 L 88.571419,372.36218 z "
         style="fill:#FFFFFF"
         id="path2178" />
      <path
         d="M 88.571419,372.36218 L 88.571419,172.36218 L 188.57142,172.36218 L 288.57142,172.36218 L 288.57142,272.36218 L 288.57142,372.36218 L 338.57142,372.36218 L 388.57142,372.36218 L 388.57142,272.36218 L 388.57142,172.36218 L 538.57142,172.36218 L 688.57142,172.36218 L 688.57142,372.36218 L 688.57142,572.36218 L 388.57142,572.36218 L 88.571419,572.36218 L 88.571419,372.36218 z "
         style="fill:#F9C300"
         id="path2176" />
      <path
         d="M 88.571419,372.36218 L 88.571419,172.36218 L 138.57142,172.36218 L 188.57142,172.36218 L 188.57142,272.36218 L 188.57142,372.36218 L 288.57142,372.36218 L 388.57142,372.36218 L 388.57142,272.36218 L 388.57142,172.36218 L 538.57142,172.36218 L 688.57142,172.36218 L 688.57142,372.36218 L 688.57142,572.36218 L 388.57142,572.36218 L 88.571419,572.36218 L 88.571419,372.36218 z "
         style="fill:#133481"
         id="path2174" />
      <path
         d="M 88.571419,272.36218 L 88.571419,172.36218 L 138.57142,172.36218 L 188.57142,172.36218 L 188.57142,272.36218 L 188.57142,372.36218 L 138.57142,372.36218 L 88.571419,372.36218 L 88.571419,272.36218 z "
         style="fill:#C2231F"
         id="path2172" />
    </g>
  </g>
</svg>
