<?xml version="1.0" encoding="UTF-8" standalone="no"?>
<!-- Created with Inkscape (http://www.inkscape.org/) -->

<svg
   xmlns:dc="http://purl.org/dc/elements/1.1/"
   xmlns:cc="http://creativecommons.org/ns#"
   xmlns:rdf="http://www.w3.org/1999/02/22-rdf-syntax-ns#"
   xmlns:svg="http://www.w3.org/2000/svg"
   xmlns="http://www.w3.org/2000/svg"
   xmlns:sodipodi="http://sodipodi.sourceforge.net/DTD/sodipodi-0.dtd"
   xmlns:inkscape="http://www.inkscape.org/namespaces/inkscape"
   width="648.94287"
   height="386.27551"
   id="svg3967"
   version="1.1"
   inkscape:version="0.48.5 r10040"
   sodipodi:docname="north_sudan.svg">
  <defs
     id="defs3969" />
  <sodipodi:namedview
     id="base"
     pagecolor="#ffffff"
     bordercolor="#666666"
     borderopacity="1.0"
     inkscape:pageopacity="0.0"
     inkscape:pageshadow="2"
     inkscape:zoom="0.7"
     inkscape:cx="-148.32276"
     inkscape:cy="404.56316"
     inkscape:document-units="px"
     inkscape:current-layer="layer1"
     showgrid="false"
     inkscape:window-width="2560"
     inkscape:window-height="1386"
     inkscape:window-x="0"
     inkscape:window-y="0"
     inkscape:window-maximized="1"
     fit-margin-top="0"
     fit-margin-left="0"
     fit-margin-right="0"
     fit-margin-bottom="0" />
  <metadata
     id="metadata3972">
    <rdf:RDF>
      <cc:Work
         rdf:about="">
        <dc:format>image/svg+xml</dc:format>
        <dc:type
           rdf:resource="http://purl.org/dc/dcmitype/StillImage" />
        <dc:title></dc:title>
      </cc:Work>
    </rdf:RDF>
  </metadata>
  <g
     inkscape:label="Layer 1"
     inkscape:groupmode="layer"
     id="layer1"
     transform="translate(287.14287,-781.44379)">
    <g
       id="g4839"
       transform="matrix(3.8627551,0,0,3.8627551,-1276.1395,-1658.0683)">
      <rect
         y="631.54718"
         x="256.034"
         height="100"
         width="168"
         id="rect4830"
         style="fill:#002395;fill-opacity:1;stroke:none" />
      <g
         transform="translate(-0.03818859,0)"
         id="g4834">
        <path
           sodipodi:type="star"
           style="fill:#ffffff;fill-opacity:1;stroke-width:0.5;stroke-linejoin:round;stroke-miterlimit:4;stroke-dasharray:none"
           id="path4021"
           sodipodi:sides="5"
           sodipodi:cx="316.80908"
           sodipodi:cy="702.72314"
           sodipodi:r1="2.5560052"
           sodipodi:r2="6.3900132"
           sodipodi:arg1="0.91148626"
           sodipodi:arg2="1.5398048"
           inkscape:flatsided="false"
           inkscape:rounded="0"
           inkscape:randomized="0"
           d="m 318.37482,704.74345 -1.36773,4.36664 -1.63559,-4.27353 -4.57558,0.0486 3.55895,-2.87613 -1.46013,-4.33662 3.83514,2.49599 3.67316,-2.72876 -1.18869,4.41874 3.73026,2.65016 z"
           inkscape:transform-center-x="-0.80493538"
           inkscape:transform-center-y="-1.9164205"
           transform="matrix(0.98793341,0.79605374,-0.79605374,0.98793341,568.25107,-234.09938)" />
        <path
           sodipodi:type="star"
           style="fill:#ffffff;fill-opacity:1;stroke-width:0.5;stroke-linejoin:round;stroke-miterlimit:4;stroke-dasharray:none"
           id="path4021-9"
           sodipodi:sides="5"
           sodipodi:cx="316.80908"
           sodipodi:cy="702.72314"
           sodipodi:r1="2.5560052"
           sodipodi:r2="6.3900132"
           sodipodi:arg1="0.91148626"
           sodipodi:arg2="1.5398048"
           inkscape:flatsided="false"
           inkscape:rounded="0"
           inkscape:randomized="0"
           d="m 318.37482,704.74345 -1.36773,4.36664 -1.63559,-4.27353 -4.57558,0.0486 3.55895,-2.87613 -1.46013,-4.33662 3.83514,2.49599 3.67316,-2.72876 -1.18869,4.41874 3.73026,2.65016 z"
           inkscape:transform-center-x="-0.80493538"
           inkscape:transform-center-y="-1.9164205"
           transform="matrix(0.98793341,0.79605374,-0.79605374,0.98793341,604.63661,-234.09938)" />
        <path
           sodipodi:type="star"
           style="fill:#ffffff;fill-opacity:1;stroke-width:0.5;stroke-linejoin:round;stroke-miterlimit:4;stroke-dasharray:none"
           id="path4021-7"
           sodipodi:sides="5"
           sodipodi:cx="316.80908"
           sodipodi:cy="702.72314"
           sodipodi:r1="2.5560052"
           sodipodi:r2="6.3900132"
           sodipodi:arg1="0.91148626"
           sodipodi:arg2="1.5398048"
           inkscape:flatsided="false"
           inkscape:rounded="0"
           inkscape:randomized="0"
           d="m 318.37482,704.74345 -1.36773,4.36664 -1.63559,-4.27353 -4.57558,0.0486 3.55895,-2.87613 -1.46013,-4.33662 3.83514,2.49599 3.67316,-2.72876 -1.18869,4.41874 3.73026,2.65016 z"
           inkscape:transform-center-x="-0.80493538"
           inkscape:transform-center-y="-1.9164205"
           transform="matrix(0.98793341,0.79605374,-0.79605374,0.98793341,586.44387,-227.93126)" />
      </g>
      <path
         transform="matrix(1.0666329,0.85946793,-0.85946793,1.0666329,606.03178,-377.29447)"
         inkscape:transform-center-y="-2.0690566"
         inkscape:transform-center-x="-0.86906624"
         d="m 318.37482,704.74345 -1.36773,4.36664 -1.63559,-4.27353 -4.57558,0.0486 3.55895,-2.87613 -1.46013,-4.33662 3.83514,2.49599 3.67316,-2.72876 -1.18869,4.41874 3.73026,2.65016 z"
         inkscape:randomized="0"
         inkscape:rounded="0"
         inkscape:flatsided="false"
         sodipodi:arg2="1.5398048"
         sodipodi:arg1="0.91148626"
         sodipodi:r2="6.3900132"
         sodipodi:r1="2.5560052"
         sodipodi:cy="702.72314"
         sodipodi:cx="316.80908"
         sodipodi:sides="5"
         id="path4021-9-2"
         style="fill:#ffff00;fill-opacity:1;stroke-width:0.5;stroke-linejoin:round;stroke-miterlimit:4;stroke-dasharray:none"
         sodipodi:type="star" />
      <g
         transform="translate(55.54259,2.9041886)"
         id="g4823">
        <path
           sodipodi:type="star"
           style="fill:#ffff00;fill-opacity:1;stroke-width:0.5;stroke-linejoin:round;stroke-miterlimit:4;stroke-dasharray:none"
           id="path4574"
           sodipodi:sides="16"
           sodipodi:cx="273.21429"
           sodipodi:cy="657.63007"
           sodipodi:r1="23.679493"
           sodipodi:r2="24.666138"
           sodipodi:arg1="0.97074611"
           sodipodi:arg2="1.1670957"
           inkscape:flatsided="false"
           inkscape:rounded="0.4"
           inkscape:randomized="0"
           d="m 286.58572,677.17292 c -1.59758,1.09309 -1.90183,2.38005 -3.68197,3.14046 -1.78014,0.76041 -2.92031,0.0904 -4.81459,0.48896 -1.89428,0.3985 -2.66788,1.47108 -4.60351,1.49237 -1.93562,0.0213 -2.73263,-1.03399 -4.63521,-1.39073 -1.90259,-0.35673 -3.02776,0.33815 -4.82419,-0.38291 -1.79644,-0.72106 -2.12893,-2.00102 -3.75018,-3.05869 -1.62124,-1.05767 -2.92668,-0.84626 -4.31043,-2.1999 -1.38376,-1.35363 -1.20112,-2.6634 -2.2942,-4.26099 -1.09309,-1.59758 -2.38005,-1.90183 -3.14046,-3.68197 -0.76041,-1.78013 -0.0905,-2.92031 -0.48896,-4.81459 -0.3985,-1.89428 -1.47107,-2.66788 -1.49237,-4.6035 -0.0213,-1.93563 1.03399,-2.73263 1.39073,-4.63522 0.35673,-1.90259 -0.33815,-3.02776 0.38291,-4.82419 0.72106,-1.79644 2.00102,-2.12893 3.05869,-3.75018 1.05767,-1.62124 0.84626,-2.92668 2.1999,-4.31043 1.35363,-1.38375 2.6634,-1.20112 4.26099,-2.2942 1.59758,-1.09309 1.90183,-2.38005 3.68197,-3.14046 1.78014,-0.76041 2.92031,-0.0904 4.81459,-0.48895 1.89428,-0.39851 2.66788,-1.47108 4.6035,-1.49238 1.93563,-0.0213 2.73264,1.034 4.63522,1.39073 1.90259,0.35674 3.02776,-0.33815 4.82419,0.38291 1.79644,0.72106 2.12893,2.00102 3.75018,3.05869 1.62124,1.05767 2.92668,0.84626 4.31043,2.1999 1.38375,1.35363 1.20112,2.6634 2.2942,4.26099 1.09309,1.59758 2.38005,1.90183 3.14046,3.68197 0.76041,1.78014 0.0905,2.92032 0.48895,4.81459 0.39851,1.89428 1.47108,2.66788 1.49238,4.60351 0.0213,1.93562 -1.034,2.73263 -1.39073,4.63521 -0.35674,1.90259 0.33815,3.02776 -0.38291,4.82419 -0.72106,1.79644 -2.00102,2.12893 -3.05869,3.75018 -1.05767,1.62124 -0.84626,2.92668 -2.1999,4.31043 -1.35363,1.38376 -2.6634,1.20112 -4.26099,2.2942 z"
           inkscape:transform-center-x="0.2036373"
           inkscape:transform-center-y="-2.2663954"
           transform="matrix(1.0344515,-0.19840901,0.19840901,1.0344515,-128.61526,51.810323)" />
        <path
           sodipodi:type="arc"
           style="fill:#002395;fill-opacity:1;stroke-width:0.5;stroke-linejoin:round;stroke-miterlimit:4;stroke-dasharray:none"
           id="path4578"
           sodipodi:cx="341.11606"
           sodipodi:cy="680.35327"
           sodipodi:rx="23.169643"
           sodipodi:ry="23.169643"
           d="m 364.2857,680.35327 c 0,12.79624 -10.3734,23.16964 -23.16964,23.16964 -12.79624,0 -23.16965,-10.3734 -23.16965,-23.16964 0,-12.79624 10.37341,-23.16964 23.16965,-23.16964 12.79624,0 23.16964,10.3734 23.16964,23.16964 z"
           transform="matrix(0.94412332,0,0,0.94412332,-37.564218,35.551164)" />
        <path
           sodipodi:type="arc"
           style="fill:#05b9dc;fill-opacity:1;stroke-width:0.5;stroke-linejoin:round;stroke-miterlimit:4;stroke-dasharray:none"
           id="path4578-8"
           sodipodi:cx="341.11606"
           sodipodi:cy="680.35327"
           sodipodi:rx="23.169643"
           sodipodi:ry="23.169643"
           d="m 364.2857,680.35327 c 0,12.79624 -10.3734,23.16964 -23.16964,23.16964 -12.79624,0 -23.16965,-10.3734 -23.16965,-23.16964 0,-12.79624 10.37341,-23.16964 23.16965,-23.16964 12.79624,0 23.16964,10.3734 23.16964,23.16964 z"
           transform="matrix(0.90173411,0,0,0.90173411,-23.104578,64.390802)" />
        <path
           sodipodi:type="star"
           style="fill:#cb7a4b;fill-opacity:1;stroke-width:0.5;stroke-linejoin:round;stroke-miterlimit:4;stroke-dasharray:none"
           id="path4600"
           sodipodi:sides="24"
           sodipodi:cx="274.10715"
           sodipodi:cy="714.14789"
           sodipodi:r1="12.503188"
           sodipodi:r2="1.8754781"
           sodipodi:arg1="0.43490154"
           sodipodi:arg2="0.58000153"
           inkscape:flatsided="false"
           inkscape:rounded="0"
           inkscape:randomized="0"
           d="m 285.44643,719.41575 -9.77052,-4.24005 8.02072,6.99537 -8.34019,-6.62437 5.93689,8.83293 -6.3415,-8.55725 3.44847,10.06853 -3.91064,-9.90697 0.72503,10.61799 -1.21327,-10.58155 -2.04781,10.44384 1.56678,-10.535 -4.6811,9.55795 4.24005,-9.77052 -6.99538,8.02073 6.62437,-8.3402 -8.83292,5.93689 8.55725,-6.3415 -10.06854,3.44847 9.90697,-3.91064 -10.61798,0.72503 10.58154,-1.21327 -10.44383,-2.04781 10.535,1.56678 -9.55796,-4.6811 9.77052,4.24005 -8.02072,-6.99537 8.34019,6.62436 -5.93688,-8.83292 6.34149,8.55725 -3.44846,-10.06853 3.91063,9.90696 -0.72503,-10.61798 1.21327,10.58154 2.04781,-10.44383 -1.56677,10.535 4.68109,-9.55796 -4.24004,9.77052 6.99537,-8.02072 -6.62437,8.34019 8.83293,-5.93688 -8.55725,6.34149 10.06853,-3.44846 -9.90697,3.91063 10.61799,-0.72503 -10.58155,1.21327 10.44384,2.04781 -10.535,-1.56677 z"
           transform="matrix(1.6776085,0,0,1.6776085,-175.35307,-520.17201)" />
        <path
           inkscape:connector-curvature="0"
           style="fill:#ffff00;fill-opacity:0.92272728;stroke:none"
           d="m 270.38481,672.59925 c -0.30786,0.19759 -0.39982,0.69071 -0.10104,1.0315 1.92364,2.19403 3.1889,5.03139 3.8652,8.07117 -0.22928,0.32851 -0.75997,0.6166 0.1092,1.51539 -0.0311,0.42793 -0.28244,1.40518 0.0862,1.36092 6.34981,-0.74953 13.36323,-0.75859 20.32724,-0.0669 0.36877,0.042 0.10785,-0.92141 0.0749,-1.34914 0.86539,-0.90418 0.34232,-1.20264 0.11166,-1.52977 0.66356,-3.04393 1.9318,-5.89484 3.84622,-8.10079 0.54375,-0.62648 -0.24746,-1.73604 -1.23213,-0.66735 -1.59655,-0.68327 -0.61106,0.90611 -1.24543,1.80664 -3.48964,4.9536 -3.9519,2.65664 -4.42443,-0.12025 0.93317,-0.10273 1.89142,-1.191 0.54093,-2.2113 -0.0753,-1.37785 -0.75635,-1.56787 -1.41811,-0.22943 -1.29272,0.40052 -1.34119,0.9923 -0.26648,1.84435 -2.10012,5.01107 -4.14387,4.1912 -5.35016,0.17533 2.06486,-2.08983 -0.5399,-2.93541 -0.81951,-2.93219 -0.27963,0.003 -2.89554,0.8607 -0.82195,2.93764 -1.1894,4.02336 -3.24802,4.87988 -5.36912,-0.11807 1.07112,-0.85869 1.03789,-1.46976 -0.25648,-1.86226 -0.66737,-1.33429 -1.33922,-1.11816 -1.40881,0.26013 -1.34618,1.0287 -0.40307,2.08415 0.53054,2.18111 -0.46093,2.77973 -0.90226,5.08069 -4.41263,0.14888 -0.63814,-0.89653 0.32712,-2.46985 -1.26657,-1.77665 -0.37094,-0.39847 -0.70744,-0.5025 -0.9596,-0.43012 -0.0525,0.0151 -0.0956,0.0328 -0.13955,0.0611 z m 7.318,6.42271 1.32036,-0.33111 c 0.22045,-0.0568 0.42996,0.12609 0.47652,0.39475 l 0.14073,0.70627 c 0.0466,0.26861 -0.10349,0.52388 -0.32398,0.58061 l -1.31319,0.3554 c -0.22046,0.0568 -0.44989,-0.11734 -0.49645,-0.38604 l -0.12078,-0.715 c -0.0466,-0.2686 0.0963,-0.54816 0.31683,-0.60488 z m 5.6455,-0.85306 c 0.069,-0.0355 0.13526,-0.0379 0.21368,-0.0387 l 1.88222,-0.0286 c 0.31364,-0.002 0.555,0.31309 0.54251,0.69497 l -0.007,0.35938 c -0.0125,0.38187 -0.2695,0.69094 -0.58315,0.69403 l -1.88939,0.003 c -0.31365,0.002 -0.54784,-0.28878 -0.53535,-0.67067 l 0.007,-0.35938 c 0.009,-0.2864 0.16273,-0.549 0.36948,-0.65536 z m 6.25557,0.22367 c 0.0922,-0.0586 0.19302,-0.0906 0.30056,-0.0494 l 1.29598,0.50228 c 0.21497,0.0823 0.32065,0.3677 0.25313,0.62964 l -0.18134,0.68272 c -0.0675,0.26193 -0.29462,0.41497 -0.5096,0.33276 l -1.28883,-0.478 c -0.21496,-0.0823 -0.32064,-0.36771 -0.25312,-0.62966 l 0.17418,-0.70699 c 0.0338,-0.131 0.11688,-0.22482 0.20902,-0.28346 z"
           id="path4699-2" />
      </g>
    </g>
  </g>
</svg>
