<?xml version="1.0" encoding="UTF-8" standalone="no"?>
<svg
   xmlns:dc="http://purl.org/dc/elements/1.1/"
   xmlns:cc="http://creativecommons.org/ns#"
   xmlns:rdf="http://www.w3.org/1999/02/22-rdf-syntax-ns#"
   xmlns:svg="http://www.w3.org/2000/svg"
   xmlns="http://www.w3.org/2000/svg"
   xmlns:sodipodi="http://sodipodi.sourceforge.net/DTD/sodipodi-0.dtd"
   xmlns:inkscape="http://www.inkscape.org/namespaces/inkscape"
   version="1.1"
   preserveAspectRatio="xMidYMid meet"
   zoomAndPan="magnify"
   id="Civil Ensign of the United Kingdom"
   viewBox="-15 -7.5 30 15"
   width="1200"
   height="600"
   inkscape:version="0.47 r22583"
   sodipodi:docname="South Africa Flag 1910-1912.svg">
  <metadata
     id="metadata26">
    <rdf:RDF>
      <cc:Work
         rdf:about="">
        <dc:format>image/svg+xml</dc:format>
        <dc:type
           rdf:resource="http://purl.org/dc/dcmitype/StillImage" />
        <dc:title />
      </cc:Work>
    </rdf:RDF>
  </metadata>
  <sodipodi:namedview
     pagecolor="#ffffff"
     bordercolor="#666666"
     borderopacity="1"
     objecttolerance="10"
     gridtolerance="10"
     guidetolerance="10"
     inkscape:pageopacity="0"
     inkscape:pageshadow="2"
     inkscape:window-width="1024"
     inkscape:window-height="749"
     id="namedview24"
     showgrid="false"
     showguides="true"
     inkscape:guide-bbox="true"
     inkscape:zoom="0.54447222"
     inkscape:cx="600"
     inkscape:cy="300"
     inkscape:window-x="-4"
     inkscape:window-y="-4"
     inkscape:window-maximized="1"
     inkscape:current-layer="Civil Ensign of the United Kingdom" />
  <defs
     id="defs3">
    <inkscape:perspective
       sodipodi:type="inkscape:persp3d"
       inkscape:vp_x="0 : 300 : 1"
       inkscape:vp_y="0 : 1000 : 0"
       inkscape:vp_z="1200 : 300 : 1"
       inkscape:persp3d-origin="600 : 200 : 1"
       id="perspective28" />
    <clipPath
       id="border">
      <rect
         x="-15"
         y="-7.5"
         width="30"
         height="15"
         id="rect6" />
    </clipPath>
    <inkscape:perspective
       id="perspective2842"
       inkscape:persp3d-origin="0.5 : 0.33333333 : 1"
       inkscape:vp_z="1 : 0.5 : 1"
       inkscape:vp_y="0 : 1000 : 0"
       inkscape:vp_x="0 : 0.5 : 1"
       sodipodi:type="inkscape:persp3d" />
    <inkscape:perspective
       sodipodi:type="inkscape:persp3d"
       inkscape:vp_x="0 : 0.5 : 1"
       inkscape:vp_y="0 : 1000 : 0"
       inkscape:vp_z="1 : 0.5 : 1"
       inkscape:persp3d-origin="0.5 : 0.33333333 : 1"
       id="perspective3239" />
    <inkscape:perspective
       id="perspective3415"
       inkscape:persp3d-origin="372.04724 : 350.78739 : 1"
       inkscape:vp_z="744.09448 : 526.18109 : 1"
       inkscape:vp_y="0 : 1000 : 0"
       inkscape:vp_x="0 : 526.18109 : 1"
       sodipodi:type="inkscape:persp3d" />
  </defs>
  <rect
     fill="#CF142B"
     x="-15"
     y="-7.5"
     width="30"
     height="15"
     id="rect8" />
  <comment
     id="comment10">The above line is the ensign field color: #CF142B red and #00247D blue</comment>
  <g
     id="canton"
     transform="matrix(0.5,0,0,0.5,-7.5,-3.75)">
    <g
       clip-path="url(#border)"
       id="g13">
      <circle
         r="20"
         fill="#00247D"
         id="circle15"
         d="m 20,0 c 0,11.045695 -8.954305,20 -20,20 -11.045695,0 -20,-8.954305 -20,-20 0,-11.045695 8.954305,-20 20,-20 11.045695,0 20,8.954305 20,20 z" />
      <path
         d="M -20,-10 L 20,10 M -20,10 L 20,-10"
         stroke-width="3"
         stroke="white"
         id="diags_white" />
      <path
         d="M -20,-10 L 20,10 M -20,10 L 20,-10"
         stroke-width="2"
         stroke="#CF142B"
         id="diags_red" />
      <path
         stroke="none"
         fill="white"
         d="M 0,0 l 20,10 h -3 l -20,-10 M 0,0 l 20,-10 h 3 l -20,10 M 0,0 l -20,10 h -3 l 20,-10 M 0,0 l -20,-10 h 3 l 20,10"
         id="eraser_white" />
      <comment
         id="comment20">I think the above two lines give the simplest way to make the diagonals</comment>
      <path
         d="M -20,0 H 20 M 0,-10 V 10"
         stroke-width="5"
         stroke="white"
         id="cross_white" />
      <path
         d="M -20,0 H 20 M 0,-10 V 10"
         stroke-width="3"
         stroke="#CF142B"
         id="cross_red" />
    </g>
  </g>
  <g
     transform="matrix(0.01229159,0,0,0.01229159,2.8130909,-5.690954)"
     id="layer1"
     inkscape:label="Ebene 1">
    <g
       id="g3066"
       transform="translate(-182.77397,-578.42664)">
      <path
         sodipodi:nodetypes="ccscscccc"
         id="path3853"
         d="m 365.02844,827.14378 0,374.62492 c 0,31.8218 20.44077,57.6801 42.625,67.5 67.89301,30.0532 149.40625,56.5938 149.40625,56.5938 0,0 81.51325,-26.5407 149.40625,-56.5938 22.18424,-9.8199 42.625,-35.6782 42.625,-67.5 l 0,-374.62492 -192.03125,0 -192.03125,0 z"
         style="fill:none;stroke:#000000;stroke-width:7;stroke-linecap:butt;stroke-linejoin:miter;stroke-miterlimit:4;stroke-opacity:1;stroke-dasharray:none" />
      <path
         style="fill:#f3122c;fill-opacity:1;stroke:#000000;stroke-width:2;stroke-linecap:butt;stroke-linejoin:miter;stroke-miterlimit:4;stroke-opacity:1;stroke-dasharray:none"
         d="m 365.02844,827.14378 0,374.62492 c 0,31.8218 20.44077,57.6801 42.625,67.5 67.89301,30.0532 149.40625,56.5938 149.40625,56.5938 0,0 81.51325,-26.5407 149.40625,-56.5938 22.18424,-9.8199 42.625,-35.6782 42.625,-67.5 l 0,-374.62492 -192.03125,0 -192.03125,0 z"
         id="path3836"
         sodipodi:nodetypes="ccscscccc" />
      <path
         style="fill:#fabe5c;fill-opacity:1;stroke:#000000;stroke-width:2;stroke-linecap:butt;stroke-linejoin:miter;stroke-miterlimit:4;stroke-opacity:1;stroke-dasharray:none"
         d="m 557.06922,827.15501 0,279.63669 192.02172,1.0787 0,-280.72662 -192.02172,0.0112 z"
         id="path3851" />
      <path
         style="fill:#7caa54;fill-opacity:1;stroke:#000000;stroke-width:2;stroke-linecap:butt;stroke-linejoin:miter;stroke-miterlimit:4;stroke-opacity:1;stroke-dasharray:none"
         d="m 557.05969,1030.7375 0,295.125 c 0,0 81.51325,-26.5407 149.40625,-56.5938 22.18424,-9.8199 42.625,-35.6782 42.625,-67.5 l 0,-128.9999 c -18.87956,-1.3176 -9.34259,-42.0313 -32.78125,-42.0313 -23.82414,0 -13.83946,42.0625 -37.78125,42.0625 -23.94179,0 -17.26201,-42.0625 -38.96875,-42.0625 -21.70674,0 -18.0709,42.0498 -39.4375,42.0625 -25.28623,0.015 -15.26414,-42.0625 -43.0625,-42.0625 z"
         id="path3828"
         sodipodi:nodetypes="ccsccssssc" />
      <path
         id="path3849"
         d="m 557.06922,1030.7375 0,295.125 c 0,0 -81.51325,-26.5407 -149.40625,-56.5938 -22.18424,-9.8199 -42.625,-35.6782 -42.625,-67.5 l 0,-128.9999 c 18.87956,-1.3176 9.34259,-42.0313 32.78125,-42.0313 23.82414,0 13.83946,42.0625 37.78125,42.0625 23.94179,0 17.26201,-42.0625 38.96875,-42.0625 21.70674,0 18.07208,41.8373 39.4375,42.0625 27.00233,0.2847 15.26414,-42.0625 43.0625,-42.0625 z"
         style="fill:#fabe5c;fill-opacity:1;stroke:#000000;stroke-width:2;stroke-linecap:butt;stroke-linejoin:miter;stroke-miterlimit:4;stroke-opacity:1;stroke-dasharray:none"
         sodipodi:nodetypes="ccsccssssc" />
      <g
         id="g3922"
         transform="translate(817.62711,-30.508474)">
        <path
           transform="matrix(0.99890461,0.04679297,-0.04679297,0.99890461,-799.91822,603.34134)"
           d="m 705.69857,577.62225 c 0,12.58448 -7.78712,22.78622 -17.39303,22.78622 -9.6059,0 -17.39303,-10.20174 -17.39303,-22.78622 0,-12.58448 7.78713,-22.78621 17.39303,-22.78621 9.60591,0 17.39303,10.20173 17.39303,22.78621 z"
           sodipodi:ry="22.786217"
           sodipodi:rx="17.393028"
           sodipodi:cy="577.62225"
           sodipodi:cx="688.30554"
           id="path3737"
           style="fill:#ffffff;stroke:#000000;stroke-width:2;stroke-linecap:square;stroke-linejoin:miter;stroke-miterlimit:4;stroke-opacity:1;stroke-dasharray:none;stroke-dashoffset:0"
           sodipodi:type="arc" />
        <path
           transform="translate(-817.51922,654.17399)"
           d="m 597.39407,584.90466 c 0,8.79327 -5.54902,15.92161 -12.39407,15.92161 -6.84505,0 -12.39407,-7.12834 -12.39407,-15.92161 0,-8.79326 5.54902,-15.92161 12.39407,-15.92161 6.84505,0 12.39407,7.12835 12.39407,15.92161 z"
           sodipodi:ry="15.92161"
           sodipodi:rx="12.394068"
           sodipodi:cy="584.90466"
           sodipodi:cx="585"
           id="path3731"
           style="fill:#ffffff;stroke:#000000;stroke-width:2;stroke-linecap:square;stroke-linejoin:miter;stroke-miterlimit:4;stroke-opacity:1;stroke-dasharray:none;stroke-dashoffset:0"
           sodipodi:type="arc" />
        <path
           sodipodi:type="arc"
           style="fill:none;stroke:#000000;stroke-width:3.24085569;stroke-linecap:square;stroke-linejoin:miter;stroke-miterlimit:4;stroke-opacity:1;stroke-dasharray:none;stroke-dashoffset:0"
           id="path3733"
           sodipodi:cx="585"
           sodipodi:cy="584.90466"
           sodipodi:rx="12.394068"
           sodipodi:ry="15.92161"
           d="m 597.39407,584.90466 c 0,8.79327 -5.54902,15.92161 -12.39407,15.92161 -6.84505,0 -12.39407,-7.12834 -12.39407,-15.92161 0,-8.79326 5.54902,-15.92161 12.39407,-15.92161 6.84505,0 12.39407,7.12835 12.39407,15.92161 z"
           transform="matrix(0.59540482,0.07411542,-0.07840553,0.62986937,-534.32702,825.8448)" />
        <path
           transform="matrix(1.4798225,0,0,1.1414214,111.8701,-176.89653)"
           d="m -230.33898,1239.4067 c 0,1.0531 -0.59758,1.9068 -1.33474,1.9068 -0.73716,0 -1.33475,-0.8537 -1.33475,-1.9068 0,-1.053 0.59759,-1.9067 1.33475,-1.9067 0.73716,0 1.33474,0.8537 1.33474,1.9067 z"
           sodipodi:ry="1.9067796"
           sodipodi:rx="1.3347458"
           sodipodi:cy="1239.4067"
           sodipodi:cx="-231.67372"
           id="path3855"
           style="fill:#ffffff;stroke:#000000;stroke-width:1.38498378;stroke-miterlimit:4;stroke-dasharray:none"
           sodipodi:type="arc" />
        <path
           sodipodi:nodetypes="ccccccccsscscscssccccccccccccccccc"
           id="path3673"
           d="m -176.84126,1239.9367 101.44068,-30.8898 -1.90678,-11.0593 -5.72034,2.6694 0.38136,-8.3898 -3.81356,-2.6695 0.38136,-8.7712 -2.24187,-2.4461 -0.0463,-32.6386 c -0.008,-5.4228 -4.14188,-11.7321 -11.7932,-14.5054 -3.91019,-1.4173 -12.40433,1.3483 -12.40433,1.3483 0,0 -6.93376,-5.9794 -18.44854,-4.8838 -5.83626,0.5508 -9.42171,7.564 -9.42171,7.564 0,0 -6.96656,-2.4102 -12.57865,-0.5229 -4.28114,1.4397 -9.9774,9.1684 -9.9774,9.1684 0,0 -6.27812,0.1432 -11.6089,2.6176 -2.37003,1.1001 -5.50495,3.7981 -5.40955,6.4092 0.11139,3.0488 5.4231,5.8045 5.4231,5.8045 l -0.53932,18.6065 -44.8093,16.0631 -9.15254,3.8135 -15.63559,3.4322 9.5339,9.9153 -1.52543,7.6271 -4.57627,0.3814 -0.76271,3.0508 -3.4322,0 -0.38136,1.5254 -6.10169,0.7628 0,7.6271 9.15254,0 38.51695,17.5423 27.45762,-9.1525 3e-5,0 z"
           style="fill:#ffffff;stroke:#000000;stroke-width:2;stroke-linecap:butt;stroke-linejoin:miter;stroke-miterlimit:4;stroke-opacity:1;stroke-dasharray:none" />
        <path
           id="path3745"
           d="m -164.7332,1156.8965 0,10.5826 c 0,0 0.38135,0.3813 0.95339,0.1907 0.57203,-0.1907 8.48517,-5.7204 8.48517,-5.7204 l 12.68008,-2.8602 -13.34746,-2.8601 -8.77118,0.6674 z"
           style="fill:#b3b3b3;fill-opacity:1;stroke:#000000;stroke-width:1px;stroke-linecap:butt;stroke-linejoin:miter;stroke-opacity:1" />
        <path
           sodipodi:nodetypes="cccccc"
           id="path3743"
           d="m -220.64952,1194.746 44.68284,-16.0401 1.22288,1.93 -1.81144,3.8135 -35.27542,12.5848 -8.81886,-2.2882 z"
           style="fill:#b3b3b3;fill-opacity:1;stroke:none" />
        <path
           id="path3741"
           d="m -133.27134,1190.2651 -62.63771,18.3051 0,11.822 2.57415,-0.7627 60.44492,-18.9725 -0.38136,-10.3919 z"
           style="fill:#b3b3b3;stroke:#000000;stroke-width:1px;stroke-linecap:butt;stroke-linejoin:miter;stroke-opacity:1" />
        <path
           transform="matrix(1.14008,0,0,1.0652204,-916.94792,616.75138)"
           d="m 729.15255,561.7373 c 0,13.26888 -8.02473,24.02543 -17.92373,24.02543 -9.899,0 -17.92373,-10.75655 -17.92373,-24.02543 0,-13.26887 8.02473,-24.02542 17.92373,-24.02542 9.899,0 17.92373,10.75655 17.92373,24.02542 z"
           sodipodi:ry="24.025423"
           sodipodi:rx="17.923729"
           sodipodi:cy="561.7373"
           sodipodi:cx="711.22882"
           id="path2828"
           style="fill:#ffffff;stroke:#000000;stroke-width:1.81485772;stroke-miterlimit:4;stroke-dasharray:none"
           sodipodi:type="arc" />
        <g
           style="stroke:#000000"
           transform="translate(-817.13786,653.79263)"
           id="g3624">
          <path
             transform="matrix(0.85422833,0,0,0.78462247,104.08148,120.31142)"
             d="m 729.15255,561.7373 c 0,13.26888 -8.02473,24.02543 -17.92373,24.02543 -9.899,0 -17.92373,-10.75655 -17.92373,-24.02543 0,-13.26887 8.02473,-24.02542 17.92373,-24.02542 9.899,0 17.92373,10.75655 17.92373,24.02542 z"
             sodipodi:ry="24.025423"
             sodipodi:rx="17.923729"
             sodipodi:cy="561.7373"
             sodipodi:cx="711.22882"
             id="path2830"
             style="fill:none;stroke:#000000;stroke-width:2.44293904;stroke-miterlimit:4;stroke-dasharray:none"
             sodipodi:type="arc" />
          <path
             sodipodi:type="arc"
             style="fill:none;stroke:#000000;stroke-width:11.32603168;stroke-miterlimit:4;stroke-dasharray:none"
             id="path2832"
             sodipodi:cx="711.22882"
             sodipodi:cy="561.7373"
             sodipodi:rx="17.923729"
             sodipodi:ry="24.025423"
             d="m 729.15255,561.7373 c 0,13.26888 -8.02473,24.02543 -17.92373,24.02543 -9.899,0 -17.92373,-10.75655 -17.92373,-24.02543 0,-13.26887 8.02473,-24.02542 17.92373,-24.02542 9.899,0 17.92373,10.75655 17.92373,24.02542 z"
             transform="matrix(0.19977844,0,0,0.15608309,570.25195,473.64667)" />
          <path
             style="fill:none;stroke:#000000;stroke-width:2;stroke-linecap:butt;stroke-linejoin:miter;stroke-miterlimit:4;stroke-opacity:1;stroke-dasharray:none"
             d="m 711.80084,557.54237 -5.91101,-12.9661"
             id="path2834" />
          <path
             style="fill:none;stroke:#000000;stroke-width:2;stroke-linecap:butt;stroke-linejoin:miter;stroke-miterlimit:4;stroke-opacity:1;stroke-dasharray:none"
             d="m 709.0693,559.42022 -10.38189,-7.14597"
             id="path2836" />
          <path
             style="fill:none;stroke:#000000;stroke-width:2;stroke-linecap:butt;stroke-linejoin:miter;stroke-miterlimit:4;stroke-opacity:1;stroke-dasharray:none"
             d="m 708.79964,562.92579 -11.32569,2.02245"
             id="path2838" />
          <path
             style="fill:none;stroke:#000000;stroke-width:2;stroke-linecap:butt;stroke-linejoin:miter;stroke-miterlimit:4;stroke-opacity:1;stroke-dasharray:none"
             d="m 710.4176,565.2179 -8.22462,9.84257"
             id="path2840" />
          <path
             style="fill:none;stroke:#000000;stroke-width:2;stroke-linecap:butt;stroke-linejoin:miter;stroke-miterlimit:4;stroke-opacity:1;stroke-dasharray:none"
             d="m 712.7097,565.35273 -0.13483,13.88746"
             id="path2842" />
          <path
             style="fill:none;stroke:#000000;stroke-width:2;stroke-linecap:butt;stroke-linejoin:miter;stroke-miterlimit:4;stroke-opacity:1;stroke-dasharray:none"
             d="m 714.59732,564.13926 7.41563,10.24706"
             id="path2844" />
          <path
             style="fill:none;stroke:#000000;stroke-width:2;stroke-linecap:butt;stroke-linejoin:miter;stroke-miterlimit:4;stroke-opacity:1;stroke-dasharray:none"
             d="m 716.08044,562.52131 9.70774,4.17972"
             id="path2846" />
          <path
             style="fill:none;stroke:#000000;stroke-width:2;stroke-linecap:butt;stroke-linejoin:miter;stroke-miterlimit:4;stroke-opacity:1;stroke-dasharray:none"
             d="m 713.51868,557.53261 3.37074,-13.34814"
             id="path2848" />
          <path
             style="fill:none;stroke:#000000;stroke-width:2;stroke-linecap:butt;stroke-linejoin:miter;stroke-miterlimit:4;stroke-opacity:1;stroke-dasharray:none"
             d="m 715.40629,559.15056 9.9774,-4.98869"
             id="path2850" />
        </g>
        <path
           transform="translate(-819.426,653.60195)"
           d="m 646.3983,598.82416 c 0,10.68881 -7.17104,19.35381 -16.01695,19.35381 -8.84592,0 -16.01695,-8.665 -16.01695,-19.35381 0,-10.68882 7.17103,-19.35382 16.01695,-19.35382 8.84591,0 16.01695,8.665 16.01695,19.35382 z"
           sodipodi:ry="19.353813"
           sodipodi:rx="16.016949"
           sodipodi:cy="598.82416"
           sodipodi:cx="630.38135"
           id="path3651"
           style="fill:#ffffff;stroke:#000000;stroke-width:2;stroke-linecap:butt;stroke-linejoin:miter;stroke-miterlimit:4;stroke-opacity:1;stroke-dasharray:none;stroke-dashoffset:0"
           sodipodi:type="arc" />
        <path
           sodipodi:type="arc"
           style="fill:none;stroke:#000000;stroke-width:2.91084933;stroke-linecap:butt;stroke-linejoin:miter;stroke-miterlimit:4;stroke-opacity:1;stroke-dasharray:none;stroke-dashoffset:0"
           id="path3653"
           sodipodi:cx="630.38135"
           sodipodi:cy="598.82416"
           sodipodi:rx="16.016949"
           sodipodi:ry="19.353813"
           d="m 646.3983,598.82416 c 0,10.68881 -7.17104,19.35381 -16.01695,19.35381 -8.84592,0 -16.01695,-8.665 -16.01695,-19.35381 0,-10.68882 7.17103,-19.35382 16.01695,-19.35382 8.84591,0 16.01695,8.665 16.01695,19.35382 z"
           transform="matrix(0.6845238,0,0,0.68965517,-620.65102,839.53927)" />
        <path
           transform="matrix(0.21311927,0,0,0.18806218,-322.00327,1139.6356)"
           d="m 646.3983,598.82416 c 0,10.68881 -7.17104,19.35381 -16.01695,19.35381 -8.84592,0 -16.01695,-8.665 -16.01695,-19.35381 0,-10.68882 7.17103,-19.35382 16.01695,-19.35382 8.84591,0 16.01695,8.665 16.01695,19.35382 z"
           sodipodi:ry="19.353813"
           sodipodi:rx="16.016949"
           sodipodi:cy="598.82416"
           sodipodi:cx="630.38135"
           id="path3655"
           style="fill:none;stroke:#000000;stroke-width:9.99005508;stroke-linecap:butt;stroke-linejoin:miter;stroke-miterlimit:4;stroke-opacity:1;stroke-dasharray:none;stroke-dashoffset:0"
           sodipodi:type="arc" />
        <path
           sodipodi:nodetypes="cc"
           id="path3657"
           d="m -190.66541,1249.995 -6.67373,-5.482"
           style="fill:none;stroke:#000000;stroke-width:2;stroke-linecap:butt;stroke-linejoin:miter;stroke-miterlimit:4;stroke-opacity:1;stroke-dasharray:none" />
        <path
           id="path3659"
           d="m -191.80947,1252.9028 -8.2945,0.572"
           style="fill:none;stroke:#000000;stroke-width:2;stroke-linecap:butt;stroke-linejoin:miter;stroke-miterlimit:4;stroke-opacity:1;stroke-dasharray:none" />
        <path
           sodipodi:nodetypes="cc"
           id="path3661"
           d="m -190.28405,1255.2386 -6.67373,6.3401"
           style="fill:none;stroke:#000000;stroke-width:2;stroke-linecap:butt;stroke-linejoin:miter;stroke-miterlimit:4;stroke-opacity:1;stroke-dasharray:none" />
        <path
           id="path3663"
           d="m -188.09125,1256.2397 -0.28602,9.6292"
           style="fill:none;stroke:#000000;stroke-width:2;stroke-linecap:butt;stroke-linejoin:miter;stroke-miterlimit:4;stroke-opacity:1;stroke-dasharray:none" />
        <path
           sodipodi:nodetypes="cc"
           id="path3665"
           d="m -185.27875,1255.3339 4.43326,5.6727"
           style="fill:none;stroke:#000000;stroke-width:2;stroke-linecap:butt;stroke-linejoin:miter;stroke-miterlimit:4;stroke-opacity:1;stroke-dasharray:none" />
        <path
           sodipodi:nodetypes="cc"
           id="path3667"
           d="m -183.70566,1252.1401 5.43432,-0.095"
           style="fill:none;stroke:#000000;stroke-width:2;stroke-linecap:butt;stroke-linejoin:miter;stroke-miterlimit:4;stroke-opacity:1;stroke-dasharray:none" />
        <path
           sodipodi:nodetypes="cc"
           id="path3669"
           d="m -185.3741,1248.7556 3.95657,-5.1007"
           style="fill:none;stroke:#000000;stroke-width:2;stroke-linecap:butt;stroke-linejoin:miter;stroke-miterlimit:4;stroke-opacity:1;stroke-dasharray:none" />
        <path
           sodipodi:nodetypes="cc"
           id="path3671"
           d="m -188.56795,1248.1359 -1.81144,-8.5806"
           style="fill:none;stroke:#000000;stroke-width:2;stroke-linecap:butt;stroke-linejoin:miter;stroke-miterlimit:4;stroke-opacity:1;stroke-dasharray:none" />
        <path
           sodipodi:nodetypes="csscscsc"
           id="path3677"
           d="m -173.98109,1159.0892 c -0.16483,-0.082 13.18207,-4.6673 23.63449,-2.1628 5.04618,1.2091 13.69531,3.4415 19.32088,7.4639 5.4356,3.8865 7.93649,9.5874 7.93649,9.5874 0,0 1.23376,-9.1131 11.85077,-9.2894 4.65163,-0.077 9.14297,4.6976 9.14297,4.6976 0,0 1.91838,-6.1919 6.86441,-6.4831 2.97401,-0.1751 6.29237,4.1949 6.29237,4.1949"
           style="fill:none;stroke:#000000;stroke-width:2;stroke-linecap:butt;stroke-linejoin:miter;stroke-miterlimit:4;stroke-opacity:1;stroke-dasharray:none" />
        <path
           sodipodi:nodetypes="csc"
           id="path3679"
           d="m -162.34973,1144.2164 c 0,0 14.72334,0.2088 23.07204,5.1483 11.35018,6.7153 15.56818,21.1074 15.56818,21.1074"
           style="fill:none;stroke:#000000;stroke-width:2;stroke-linecap:butt;stroke-linejoin:miter;stroke-miterlimit:4;stroke-opacity:1;stroke-dasharray:none" />
        <path
           sodipodi:nodetypes="cc"
           id="path3681"
           d="m -162.58602,1144.3149 0.13483,11.7302"
           style="fill:none;stroke:#000000;stroke-width:2;stroke-linecap:butt;stroke-linejoin:miter;stroke-miterlimit:4;stroke-opacity:1;stroke-dasharray:none" />
        <path
           id="path3683"
           d="m -155.17039,1145.5284 -0.26966,10.5167"
           style="fill:none;stroke:#000000;stroke-width:2;stroke-linecap:butt;stroke-linejoin:miter;stroke-miterlimit:4;stroke-opacity:1;stroke-dasharray:none" />
        <path
           id="path3685"
           d="m -136.29423,1152.0002 -6.20217,7.5504"
           style="fill:none;stroke:#000000;stroke-width:2;stroke-linecap:butt;stroke-linejoin:miter;stroke-miterlimit:4;stroke-opacity:1;stroke-dasharray:none" />
        <path
           sodipodi:nodetypes="cc"
           id="path3687"
           d="m -131.30553,1157.2585 -4.04489,4.8539"
           style="fill:none;stroke:#000000;stroke-width:2;stroke-linecap:butt;stroke-linejoin:miter;stroke-miterlimit:4;stroke-opacity:1;stroke-dasharray:none" />
        <path
           sodipodi:nodetypes="csc"
           id="path3689"
           d="m -112.29676,1132.8234 c 0,0 3.2396,3.1375 4.72154,4.7694 1.55263,1.7097 4.24032,5.4795 4.24032,5.4795"
           style="fill:none;stroke:#000000;stroke-width:2;stroke-linecap:butt;stroke-linejoin:miter;stroke-miterlimit:4;stroke-opacity:1;stroke-dasharray:none" />
        <path
           sodipodi:nodetypes="csc"
           id="path3691"
           d="m -140.21573,1135.2954 c 0,0 8.38881,2.5402 14.70534,6.2188 4.9856,2.9034 9.87676,7.6598 9.87676,7.6598"
           style="fill:none;stroke:#000000;stroke-width:2;stroke-linecap:butt;stroke-linejoin:miter;stroke-miterlimit:4;stroke-opacity:1;stroke-dasharray:none" />
        <path
           sodipodi:nodetypes="cscccc"
           id="path3693"
           d="m -86.74433,1189.4154 c 0,0 -9.84167,-7.5783 -21.77499,-5.8651 -15.09224,2.1668 -24.26934,19.1458 -24.26934,19.1458 l -0.26966,-18.0671 -31.55015,-10.2471 0,13.483"
           style="fill:none;stroke:#000000;stroke-width:2;stroke-linecap:butt;stroke-linejoin:miter;stroke-miterlimit:4;stroke-opacity:1;stroke-dasharray:none" />
        <path
           sodipodi:nodetypes="csccc"
           id="path3695"
           d="m -122.9461,1174.5842 c 0,0 -2.44237,-7.7645 -8.76392,-3.3034 -1.544,1.0896 -2.42694,6.2022 -2.42694,6.2022 l -30.88226,-10.0993 -0.0953,-10.0106"
           style="fill:none;stroke:#000000;stroke-width:2;stroke-linecap:butt;stroke-linejoin:miter;stroke-miterlimit:4;stroke-opacity:1;stroke-dasharray:none" />
        <path
           sodipodi:nodetypes="cc"
           id="path3697"
           d="m -123.06429,1169.4782 0.1849,21.0007"
           style="fill:none;stroke:#000000;stroke-width:2;stroke-linecap:butt;stroke-linejoin:miter;stroke-miterlimit:4;stroke-opacity:1;stroke-dasharray:none" />
        <path
           sodipodi:nodetypes="cc"
           id="path3699"
           d="m -102.06756,1168.599 -0.0279,14.611"
           style="fill:none;stroke:#000000;stroke-width:2;stroke-linecap:butt;stroke-linejoin:miter;stroke-miterlimit:4;stroke-opacity:1;stroke-dasharray:none" />
        <path
           sodipodi:nodetypes="cc"
           id="path3701"
           d="m -127.26498,1215.3392 -60.0159,17.8761"
           style="fill:none;stroke:#000000;stroke-width:2;stroke-linecap:butt;stroke-linejoin:miter;stroke-miterlimit:4;stroke-opacity:1;stroke-dasharray:none" />
        <path
           id="path3703"
           d="m -201.43871,1239.9367 -5.33899,-4.3856 -0.16729,-11.8215 2.56177,-3.1011 8.6291,-0.2697 62.83063,-19.8199"
           style="fill:none;stroke:#000000;stroke-width:2;stroke-linecap:butt;stroke-linejoin:miter;stroke-miterlimit:4;stroke-opacity:1;stroke-dasharray:none" />
        <path
           id="path3705"
           d="m -150.31652,1206.741 0,9.4381"
           style="fill:none;stroke:#000000;stroke-width:2;stroke-linecap:butt;stroke-linejoin:miter;stroke-miterlimit:4;stroke-opacity:1;stroke-dasharray:none" />
        <path
           id="path3707"
           d="m -174.45103,1214.2915 0,8.7639"
           style="fill:none;stroke:#000000;stroke-width:2;stroke-linecap:butt;stroke-linejoin:miter;stroke-miterlimit:4;stroke-opacity:1;stroke-dasharray:none" />
        <path
           sodipodi:nodetypes="cc"
           id="path3709"
           d="m -194.47897,1220.4876 0.14297,12.823"
           style="fill:none;stroke:#000000;stroke-width:2;stroke-linecap:square;stroke-linejoin:miter;stroke-miterlimit:4;stroke-opacity:1;stroke-dasharray:none" />
        <path
           sodipodi:nodetypes="ccc"
           id="path3711"
           d="m -133.59764,1190.0222 -62.29131,18.3368 0.13483,11.3257"
           style="fill:none;stroke:#000000;stroke-width:2;stroke-linecap:butt;stroke-linejoin:miter;stroke-miterlimit:4;stroke-opacity:1;stroke-dasharray:none" />
        <path
           id="path3713"
           d="m -142.90058,1181.5892 -60.44491,19.4492 0.31056,9.0734 -5.66284,5.3932 -19.9548,-9.0336 -0.40448,-8.6291"
           style="fill:none;stroke:#000000;stroke-width:2;stroke-linecap:butt;stroke-linejoin:miter;stroke-miterlimit:4;stroke-opacity:1;stroke-dasharray:none" />
        <path
           sodipodi:nodetypes="ccc"
           id="path3715"
           d="m -203.34549,1201.3244 -8.9142,-4.4809 -12.25106,-1.5731"
           style="fill:none;stroke:#000000;stroke-width:2;stroke-linecap:butt;stroke-linejoin:miter;stroke-miterlimit:4;stroke-opacity:1;stroke-dasharray:none" />
        <path
           id="path3717"
           d="M -203.44083,1209.8096 -228.801,1197.7015"
           style="fill:none;stroke:#000000;stroke-width:2;stroke-linecap:butt;stroke-linejoin:miter;stroke-miterlimit:4;stroke-opacity:1;stroke-dasharray:none" />
        <path
           sodipodi:nodetypes="cc"
           id="path3719"
           d="m -193.95367,1207.7761 -9.87669,2.7368"
           style="fill:none;stroke:#000000;stroke-width:2;stroke-linecap:butt;stroke-linejoin:miter;stroke-miterlimit:4;stroke-opacity:1;stroke-dasharray:none" />
        <path
           sodipodi:nodetypes="cssc"
           id="path3721"
           d="m -212.25969,1196.8912 c 0.4145,-0.1037 9.87398,-3.2098 19.0941,-6.2616 7.74564,-2.5638 15.36444,-4.9631 16.89637,-6.7522 2.40355,-2.8071 1.14407,-6.2924 1.14407,-6.2924"
           style="fill:none;stroke:#000000;stroke-width:2;stroke-linecap:butt;stroke-linejoin:miter;stroke-miterlimit:4;stroke-opacity:1;stroke-dasharray:none" />
        <path
           sodipodi:nodetypes="csc"
           id="path3723"
           d="m -164.54253,1168.0511 c 0,0 6.23089,-5.0156 9.91526,-6.3877 5.6792,-2.115 13.34745,-2.1928 13.34745,-2.1928"
           style="fill:none;stroke:#000000;stroke-width:2;stroke-linecap:butt;stroke-linejoin:miter;stroke-miterlimit:4;stroke-opacity:1;stroke-dasharray:none" />
        <path
           sodipodi:nodetypes="cc"
           id="path3725"
           d="m -203.44083,1242.8922 -42.61652,-19.5445"
           style="fill:none;stroke:#000000;stroke-width:2;stroke-linecap:butt;stroke-linejoin:miter;stroke-miterlimit:4;stroke-opacity:1;stroke-dasharray:none" />
        <path
           sodipodi:nodetypes="cccc"
           id="path3727"
           d="m -234.98956,1210.9208 22.17948,10.4493 -0.0674,9.3706 -25.61765,-12.3369"
           style="fill:none;stroke:#000000;stroke-width:2;stroke-linecap:butt;stroke-linejoin:miter;stroke-miterlimit:4;stroke-opacity:1;stroke-dasharray:none" />
        <path
           sodipodi:nodetypes="csc"
           id="path3729"
           d="m -225.838,1224.5048 c 0,0 -2.41527,-1.0771 -6.08419,-0.2359 -2.56899,0.589 -4.28084,2.9662 -4.28084,2.9662"
           style="fill:none;stroke:#000000;stroke-width:2;stroke-linecap:butt;stroke-linejoin:miter;stroke-miterlimit:4;stroke-opacity:1;stroke-dasharray:none" />
        <path
           sodipodi:nodetypes="cc"
           id="path3739"
           d="m -156.98721,1177.3958 0.12666,8.32"
           style="fill:none;stroke:#000000;stroke-width:2;stroke-linecap:butt;stroke-linejoin:miter;stroke-miterlimit:4;stroke-opacity:1;stroke-dasharray:none" />
        <path
           sodipodi:nodetypes="cc"
           id="path3916"
           d="m -232.95198,1238.7933 -5.83139,1.382"
           style="fill:none;stroke:#000000;stroke-width:2;stroke-linecap:butt;stroke-linejoin:miter;stroke-miterlimit:4;stroke-opacity:1;stroke-dasharray:none" />
        <path
           id="path3918"
           d="m -231.63739,1240.1753 -3.10109,6.337"
           style="fill:none;stroke:#000000;stroke-width:2;stroke-linecap:butt;stroke-linejoin:miter;stroke-miterlimit:4;stroke-opacity:1;stroke-dasharray:none" />
        <path
           id="path3920"
           d="m -230.69359,1240.3101 4.17972,3.5056"
           style="fill:none;stroke:#000000;stroke-width:2;stroke-linecap:butt;stroke-linejoin:miter;stroke-miterlimit:4;stroke-opacity:1;stroke-dasharray:none" />
      </g>
      <g
         id="g4094"
         transform="translate(-1.781528e-6,619.32202)">
        <path
           sodipodi:nodetypes="csscsscc"
           id="path4092"
           d="m 699.22673,280.8621 c 0,0 4.97177,-6.04269 5.93251,-9.70774 3.83848,-14.64307 0.25736,-39.25448 19.30377,-39.85771 8.53874,-0.27043 13.59467,11.27382 13.59467,11.27382 0,0 -8.61704,-2.6607 -14.79458,1.14407 -7.05617,4.34591 -4.23983,11.37997 -6.97843,18.59691 -2.86463,7.54904 -16.24896,19.76411 -16.24896,19.76411 l -0.80898,-1.21346 z"
           style="fill:#ffffff;stroke:#000000;stroke-width:2;stroke-linecap:butt;stroke-linejoin:miter;stroke-miterlimit:4;stroke-opacity:1;stroke-dasharray:none" />
        <g
           transform="translate(-200.62657,-12.404331)"
           id="g4079">
          <path
             sodipodi:nodetypes="csssccccc"
             id="path4036"
             d="m 897.20398,286.69017 c 0,0 -3.08,-3.97366 -18.03438,-5.15076 -27.54158,-2.17848 -30.01759,-7.84576 -40.07721,-18.57927 -8.52069,-9.09148 -15.60253,-21.99533 -27.64009,-25.21315 -13.84102,-3.69992 -30.33667,13.21331 -30.33667,13.21331 l 10.51671,14.83126 46.8838,14.12571 31.47729,7.1849 27.21055,-0.412 z"
             style="fill:#000000;stroke:#000000;stroke-width:1px;stroke-linecap:butt;stroke-linejoin:miter;stroke-opacity:1" />
          <path
             sodipodi:nodetypes="cssccc"
             id="path4038"
             d="m 793.78526,252.18127 c 0,0 -9.25481,-6.99844 -16.85187,1.10458 -5.1337,5.4756 -4.17874,9.20212 -7.25056,13.82415 -2.68851,4.04528 -9.62923,8.19916 -9.62923,8.19916 l 18.30508,-3.43221 15.42658,-19.69568 z"
             style="fill:#ffffff;stroke:#000000;stroke-width:1.5;stroke-linecap:butt;stroke-linejoin:miter;stroke-miterlimit:4;stroke-opacity:1;stroke-dasharray:none" />
          <path
             style="fill:#746d6f;fill-opacity:1;stroke:#000000;stroke-width:2;stroke-linecap:butt;stroke-linejoin:miter;stroke-miterlimit:4;stroke-opacity:1;stroke-dasharray:none"
             d="m 806.75,248.28125 c -10.79,0.0987 -24,10.625 -24,10.625 l -0.5625,11.0625 c 0,0 4.67591,10.2753 6.46875,15.625 1.12667,3.36191 0.013,7.94929 2.65625,10.3125 2.01032,1.79729 8.03125,1.125 8.03125,1.125 L 802,284.84375 l 7.625,-2.65625 c 0,0 8.72242,9.31026 5.90625,14.28125 -2.86386,5.05517 -12.31597,1.43928 -17.53125,4 -4.5449,2.23155 0.7249,17.71254 5.15625,24.40625 4.39845,6.64402 19.8125,13.34375 19.8125,13.34375 l 0.78125,-9.125 c 0,0 -7.59522,-2.91905 -10,-6.375 -1.32926,-1.91029 -1.0625,-12.65625 -1.0625,-12.65625 l 11.71875,-0.0937 c 0,0 9.46157,7.33721 23.70966,10.14994 12.24031,2.23056 27.47664,2.77118 37.71449,-3.53022 l 7.4196,5.94278 12.31409,12.1965 4.28125,1.03125 c 3.52019,0.43582 9.15643,9.40258 11.89936,12.78337 4.76926,5.87833 11.0625,22.5 11.0625,22.5 l 5.34375,-4.96875 c 0,0 -5.44068,-22.50409 -11.8125,-32.03125 -1.699,-2.54035 -4.82373,-3.08961 -7.07468,-5.15678 -6.55456,-6.01944 -8.50697,-33.81697 -15.04502,-39.85434 -5.67155,-5.23723 -12.46078,-6.48908 -20.03125,-8 -9.39015,-1.87409 -21.49055,-0.007 -30.5,-3.25 C 827.49402,268.35291 832.494,253.69957 810,248.625 c -1.04678,-0.23615 -2.13379,-0.35396 -3.25,-0.34375 z"
             id="path4042"
             sodipodi:nodetypes="cccsscccsssccscccccccsccsssscsc" />
          <path
             sodipodi:nodetypes="csccscc"
             id="path4044"
             d="m 886.37775,316.20958 c 0,0 -11.28178,5.50704 -30.34373,4.40675 -14.50511,-0.84115 -30.80607,-11.15946 -30.80607,-11.15946 l 3.17014,-2.76763 c 0,0 19.46281,7.24372 27.7572,6.98288 8.69253,-0.27337 24.88348,-3.08754 24.88348,-3.08754 l 5.33898,5.625 z"
             style="fill:#ffffff;stroke:none" />
          <path
             sodipodi:nodetypes="csscsc"
             id="path4046"
             d="m 793.78962,252.30859 c 0,0 -10.91289,4.90211 -14.70321,9.39181 -2.586,3.06316 -3.80792,6.68081 -5.761,10.18163 -1.96288,3.51838 -6.50173,9.81944 -6.50173,9.81944 0,0 14.6858,-6.51726 19.85665,-12.83476 3.92629,-4.79695 7.10929,-16.55812 7.10929,-16.55812 z"
             style="fill:#ffffff;stroke:#000000;stroke-width:1.5;stroke-linecap:butt;stroke-linejoin:miter;stroke-miterlimit:4;stroke-opacity:1;stroke-dasharray:none" />
          <path
             sodipodi:nodetypes="ccssssccssc"
             id="path4048"
             d="m 815.46038,265.83193 -0.52331,0.0937 c 0,0 -0.28336,1.71089 -0.32044,3.78125 -0.0371,2.07036 -0.67979,3.83764 -1.45869,5.05138 -1.48493,2.31392 -3.80582,1.88274 -6.60381,3.10487 -1.32428,0.57843 -3.34798,2.49378 -4.31356,3.9375 -0.96558,1.44372 -1.25847,2.87818 -1.25847,2.87818 l 4.14362,-0.90415 c 2.18306,-4.74925 6.63179,-4.78447 9.20966,-7.81778 1.21542,-1.43016 1.24295,-4.07931 1.28125,-6.21875 0.0383,-2.13939 -0.15625,-3.9062 -0.15625,-3.9062 z"
             style="font-size:medium;font-style:normal;font-variant:normal;font-weight:normal;font-stretch:normal;text-indent:0;text-align:start;text-decoration:none;line-height:normal;letter-spacing:normal;word-spacing:normal;text-transform:none;direction:ltr;block-progression:tb;writing-mode:lr-tb;text-anchor:start;color:#000000;fill:#000000;fill-opacity:1;stroke:none;stroke-width:1px;marker:none;visibility:visible;display:inline;overflow:visible;enable-background:accumulate;font-family:Bitstream Vera Sans;-inkscape-font-specification:Bitstream Vera Sans" />
          <path
             sodipodi:nodetypes="cscscc"
             id="path4050"
             d="m 796.6161,270.20852 c 0,0 -2.43952,3.26332 -3.76589,4.38559 -2.96729,2.51069 -5.46324,3.46112 -5.46324,3.46112 0,0 5.25887,0.7941 7.27468,-0.55331 2.84908,-1.90434 1.95445,-7.29344 1.95445,-7.29344 l 0,4e-5 z"
             style="fill:#000000;stroke:none" />
          <path
             sodipodi:nodetypes="css"
             id="path4052"
             d="m 836.3958,294.64511 c 0,0 -3.30975,5.55865 -5.4606,8.22461 -2.33773,2.89759 -4.78646,7.14598 -9.77516,7.14598"
             style="fill:none;stroke:#000000;stroke-width:2;stroke-linecap:butt;stroke-linejoin:miter;stroke-miterlimit:4;stroke-opacity:1;stroke-dasharray:none" />
          <path
             sodipodi:nodetypes="csss"
             id="path4054"
             d="m 902.25169,325.64814 c -7.6686,-1.55318 -11.91802,-5.19047 -15.96928,-9.34322 -3.44369,-3.52995 -4.70324,-6.45413 -7.99687,-7.65387 -2.1182,-0.77158 -7.12285,-0.82534 -7.12285,-0.82534"
             style="fill:none;stroke:#000000;stroke-width:2;stroke-linecap:butt;stroke-linejoin:miter;stroke-miterlimit:4;stroke-opacity:1;stroke-dasharray:none" />
          <path
             sodipodi:nodetypes="css"
             id="path4058"
             d="m 880.77786,310.58459 c 0,0 -13.19055,3.91232 -25.1946,3.4322 -13.36785,-0.52705 -27.17162,-7.24577 -27.17162,-7.24577"
             style="fill:none;stroke:#000000;stroke-width:2;stroke-linecap:butt;stroke-linejoin:miter;stroke-miterlimit:4;stroke-opacity:1;stroke-dasharray:none" />
          <path
             sodipodi:nodetypes="css"
             id="path4060"
             d="m 878.73232,292.7575 c 0,0 -4.04473,0.59314 -5.32577,2.56176 -1.34032,2.0597 -1.28089,4.58422 -1.28089,4.58422"
             style="fill:none;stroke:#000000;stroke-width:2;stroke-linecap:butt;stroke-linejoin:miter;stroke-miterlimit:4;stroke-opacity:1;stroke-dasharray:none" />
        </g>
        <g
           transform="translate(0.76270976,-0.13471314)"
           id="g4019">
          <path
             style="fill:#000000;stroke:#000000;stroke-width:1px;stroke-linecap:butt;stroke-linejoin:miter;stroke-opacity:1"
             d="m 697.7436,334.38949 c 0,0 -3.08,-3.97366 -18.03438,-5.15076 -27.54158,-2.17848 -30.01759,-7.84576 -40.07721,-18.57927 -8.52069,-9.09148 -15.60253,-21.99533 -27.64009,-25.21315 -13.84102,-3.69992 -30.33667,13.21331 -30.33667,13.21331 l 10.51671,14.83126 46.8838,14.12571 31.47729,7.1849 27.21055,-0.412 z"
             id="path3989"
             sodipodi:nodetypes="csssccccc" />
          <path
             style="fill:#ffffff;stroke:#000000;stroke-width:1.5;stroke-linecap:butt;stroke-linejoin:miter;stroke-miterlimit:4;stroke-opacity:1;stroke-dasharray:none"
             d="m 594.32488,299.88059 c 0,0 -9.25481,-6.99844 -16.85187,1.10458 -5.1337,5.4756 -4.17874,9.20212 -7.25056,13.82415 -2.68851,4.04528 -9.62923,8.19916 -9.62923,8.19916 l 18.30508,-3.43221 15.42658,-19.69568 z"
             id="path3993"
             sodipodi:nodetypes="cssccc" />
          <path
             style="fill:#ffffff;stroke:#000000;stroke-width:2;stroke-linecap:butt;stroke-linejoin:miter;stroke-miterlimit:4;stroke-opacity:1;stroke-dasharray:none"
             d="m 700.74152,339.78814 c 0,0 17.42021,-23.31818 29.55509,-23.26271 12.10864,0.0562 16.01695,14.87288 16.01695,14.87288 0,0 -13.08071,-5.27607 -19.63983,-4.00424 -9.05103,1.75502 -23.07204,15.25424 -23.07204,15.25424 l -2.86017,-2.86017 z"
             id="path4017"
             sodipodi:nodetypes="cscscc" />
          <path
             style="fill:#746d6f;fill-opacity:1;stroke:#000000;stroke-width:2;stroke-linecap:butt;stroke-linejoin:miter;stroke-miterlimit:4;stroke-opacity:1;stroke-dasharray:none"
             d="m 729.91525,401.18644 5.33898,-4.95762 c 0,0 -5.45021,-22.50674 -11.82203,-32.0339 -1.699,-2.54035 -5.94821,-1.17435 -8.19916,-3.24152 -6.55456,-6.01944 -3.94923,-18.17874 -10.48728,-24.21611 -5.67155,-5.23723 -12.45072,-6.49756 -20.02119,-8.00848 -9.39015,-1.87409 -21.49902,10e-4 -30.50847,-3.24152 -26.19348,-9.42834 -21.17125,-24.09916 -43.66525,-29.17373 -11.16567,-2.51894 -27.26695,10.29661 -27.26695,10.29661 l -0.57204,11.05932 c 0,0 4.69021,10.2859 6.48305,15.6356 1.12667,3.36191 0.0262,7.9334 2.66949,10.29661 2.01032,1.79729 8.00848,1.14407 8.00848,1.14407 l 2.66949,-12.20339 7.62712,-2.6695 c 0,0 8.72718,9.32986 5.91101,14.30085 -2.86386,5.05517 -12.32708,1.44352 -17.54236,4.00424 -4.5449,2.23155 0.71695,17.71307 5.1483,24.40678 4.39845,6.64402 19.83051,13.34746 19.83051,13.34746 l 0.76271,-9.15255 c 0,0 -7.5759,-2.9154 -9.98068,-6.37135 -1.32926,-1.91029 -1.07864,-12.63101 -1.07864,-12.63101 l 11.72949,-0.1117 c 0,0 12.15801,8.29286 26.4061,11.10559 9.35915,1.8476 22.11864,0 22.11864,0 l 7.24577,10.29661 c 0,0 15.77317,4.95477 17.00305,12.04543 0.75943,4.37836 0.92067,13.12406 0.92067,13.12406 l 9.5339,-1.14407 -1.90678,-15.25423 -3.4322,-4.57628 0,-9.91525 c 0,0 12.4712,0.96868 16.01695,5.33898 4.76926,5.87833 11.05932,22.5 11.05932,22.5 z"
             id="path3987"
             sodipodi:nodetypes="ccssssssccsscccsssccsccsccscccccsc" />
          <path
             style="fill:#ffffff;stroke:none"
             d="m 686.91737,363.9089 c 0,0 -11.28178,5.50704 -30.34373,4.40675 -14.50511,-0.84115 -30.80607,-11.15946 -30.80607,-11.15946 l 3.17014,-2.76763 c 0,0 19.46281,7.24372 27.7572,6.98288 8.69253,-0.27337 24.88348,-3.08754 24.88348,-3.08754 l 5.33898,5.625 z"
             id="path4015"
             sodipodi:nodetypes="csccscc" />
          <path
             style="fill:#ffffff;stroke:#000000;stroke-width:1.5;stroke-linecap:butt;stroke-linejoin:miter;stroke-miterlimit:4;stroke-opacity:1;stroke-dasharray:none"
             d="m 594.32924,300.00791 c 0,0 -10.91289,4.90211 -14.70321,9.39181 -2.586,3.06316 -3.80792,6.68081 -5.761,10.18163 -1.96288,3.51838 -6.50173,9.81944 -6.50173,9.81944 0,0 14.6858,-6.51726 19.85665,-12.83476 3.92629,-4.79695 7.10929,-16.55812 7.10929,-16.55812 z"
             id="path3991"
             sodipodi:nodetypes="csscsc" />
          <path
             style="font-size:medium;font-style:normal;font-variant:normal;font-weight:normal;font-stretch:normal;text-indent:0;text-align:start;text-decoration:none;line-height:normal;letter-spacing:normal;word-spacing:normal;text-transform:none;direction:ltr;block-progression:tb;writing-mode:lr-tb;text-anchor:start;color:#000000;fill:#000000;fill-opacity:1;stroke:none;stroke-width:1px;marker:none;visibility:visible;display:inline;overflow:visible;enable-background:accumulate;font-family:Bitstream Vera Sans;-inkscape-font-specification:Bitstream Vera Sans"
             d="m 616,313.53125 -0.52331,0.0937 c 0,0 -0.28336,1.71089 -0.32044,3.78125 -0.0371,2.07036 -0.67979,3.83764 -1.45869,5.05138 -1.48493,2.31392 -3.80582,1.88274 -6.60381,3.10487 -1.32428,0.57843 -3.34798,2.49378 -4.31356,3.9375 -0.96558,1.44372 -1.25847,2.87818 -1.25847,2.87818 l 4.14362,-0.90415 c 2.18306,-4.74925 6.63179,-4.78447 9.20966,-7.81778 1.21542,-1.43016 1.24295,-4.07931 1.28125,-6.21875 0.0383,-2.13939 -0.15625,-3.9062 -0.15625,-3.9062 z"
             id="path3995"
             sodipodi:nodetypes="ccssssccssc" />
          <path
             style="fill:#000000;stroke:none"
             d="m 597.15572,317.90784 c 0,0 -2.43952,3.26332 -3.76589,4.38559 -2.96729,2.51069 -5.46324,3.46112 -5.46324,3.46112 0,0 5.25887,0.7941 7.27468,-0.55331 2.84908,-1.90434 1.95445,-7.29344 1.95445,-7.29344 l 0,4e-5 z"
             id="path4001"
             sodipodi:nodetypes="cscscc" />
          <path
             style="fill:none;stroke:#000000;stroke-width:2;stroke-linecap:butt;stroke-linejoin:miter;stroke-miterlimit:4;stroke-opacity:1;stroke-dasharray:none"
             d="m 636.93542,342.34443 c 0,0 -3.30975,5.55865 -5.4606,8.22461 -2.33773,2.89759 -4.78646,7.14598 -9.77516,7.14598"
             id="path4003"
             sodipodi:nodetypes="css" />
          <path
             style="fill:none;stroke:#000000;stroke-width:2;stroke-linecap:butt;stroke-linejoin:miter;stroke-miterlimit:4;stroke-opacity:1;stroke-dasharray:none"
             d="m 702.79131,373.34746 c -7.6686,-1.55318 -11.91802,-5.19047 -15.96928,-9.34322 -3.44369,-3.52995 -4.70324,-6.45413 -7.99687,-7.65387 -2.1182,-0.77158 -7.12285,-0.82534 -7.12285,-0.82534"
             id="path4005"
             sodipodi:nodetypes="csss" />
          <path
             style="fill:none;stroke:#000000;stroke-width:2;stroke-linecap:butt;stroke-linejoin:miter;stroke-miterlimit:4;stroke-opacity:1;stroke-dasharray:none"
             d="m 673.06977,368.83847 c 0.53932,-0.13483 5.82971,-1.08631 8.35944,-2.22469 3.37074,-1.51683 4.85107,-2.57531 4.85107,-2.57531"
             id="path4007"
             sodipodi:nodetypes="css" />
          <path
             style="fill:none;stroke:#000000;stroke-width:2;stroke-linecap:butt;stroke-linejoin:miter;stroke-miterlimit:4;stroke-opacity:1;stroke-dasharray:none"
             d="m 681.31748,358.28391 c 0,0 -13.19055,3.91232 -25.1946,3.4322 -13.36785,-0.52705 -27.17162,-7.24577 -27.17162,-7.24577"
             id="path4009"
             sodipodi:nodetypes="css" />
          <path
             style="fill:none;stroke:#000000;stroke-width:2;stroke-linecap:butt;stroke-linejoin:miter;stroke-miterlimit:4;stroke-opacity:1;stroke-dasharray:none"
             d="m 679.27194,340.45682 c 0,0 -4.04473,0.59314 -5.32577,2.56176 -1.34032,2.0597 -1.28089,4.58422 -1.28089,4.58422"
             id="path4013"
             sodipodi:nodetypes="css" />
        </g>
      </g>
      <g
         id="g4370"
         transform="translate(4.3145498,623.45245)">
        <path
           sodipodi:nodetypes="cssssssssssssss"
           id="path4123"
           d="m 461.44068,618.94068 c -4.79077,0.45227 -10.65432,1.43929 -15.45847,1.16323 -6.70221,-0.38513 -11.39601,-2.34123 -17.7195,-4.59543 -8.56274,-3.05245 -23.7944,-2.8293 -25.55085,-9.5339 -1.07088,-4.08768 3.22853,-6.6237 6.61392,-9.15254 3.55281,-2.6539 12.45388,-6.1017 13.9793,-6.1017 1.52543,0 6.86441,0 8.38983,0 1.52543,0 6.1049,-5.13524 20.21187,-4.57627 10.45311,0.42226 19.36927,-3.24116 29.65322,-1.32119 5.97981,1.11641 12.20143,4.87353 18.01627,6.66017 5.15533,1.584 10.60737,1.09168 15.20797,3.9061 2.25643,1.38037 5.96577,2.28441 5.38525,4.86509 -1.24919,5.55325 -10.20711,5.12951 -14.87288,8.38983 -4.65645,3.25381 -10.039,6.46426 -15.39303,8.36273 -9.70753,3.44218 -18.20874,0.96584 -28.4629,1.93388 z"
           style="fill:#859947;fill-opacity:1;stroke:#000000;stroke-width:1.5;stroke-linecap:butt;stroke-linejoin:miter;stroke-miterlimit:4;stroke-opacity:1;stroke-dasharray:none" />
        <path
           sodipodi:nodetypes="csccscc"
           id="path4328"
           d="m 443.16261,586.79926 c 0,0 -7.38378,7.23429 -9.72246,9.5323 -1.55671,1.52964 -2.50901,4.55615 -2.50901,4.55615 l 0.8125,0.5625 c 0,0 3.59081,-2.57962 4.95816,-3.9232 2.14932,-2.11195 8.20553,-10.96264 8.20553,-10.96264 l -1.74472,0.23489 z"
           style="font-size:medium;font-style:normal;font-variant:normal;font-weight:normal;font-stretch:normal;text-indent:0;text-align:start;text-decoration:none;line-height:normal;letter-spacing:normal;word-spacing:normal;text-transform:none;direction:ltr;block-progression:tb;writing-mode:lr-tb;text-anchor:start;color:#000000;fill:#000000;fill-opacity:1;stroke:none;stroke-width:1px;marker:none;visibility:visible;display:inline;overflow:visible;enable-background:accumulate;font-family:Bitstream Vera Sans;-inkscape-font-specification:Bitstream Vera Sans" />
        <path
           sodipodi:nodetypes="csssccc"
           id="path4326"
           d="m 414.68591,594.05085 c 0,0 2.58586,5.62334 0.87184,7.43837 -1.56907,1.66154 -6.96148,-4.40579 -7.65286,-2.22755 -0.99707,3.14137 5.1848,6.01232 8.13243,4.53794 4.2062,-2.10391 2.31804,-11.56021 2.31804,-11.56021 l -3.66949,1.81145 4e-5,0 z"
           style="font-size:medium;font-style:normal;font-variant:normal;font-weight:normal;font-stretch:normal;text-indent:0;text-align:start;text-decoration:none;line-height:normal;letter-spacing:normal;word-spacing:normal;text-transform:none;direction:ltr;block-progression:tb;writing-mode:lr-tb;text-anchor:start;color:#000000;fill:#000000;fill-opacity:1;stroke:none;stroke-width:1px;marker:none;visibility:visible;display:inline;overflow:visible;enable-background:accumulate;font-family:Bitstream Vera Sans;-inkscape-font-specification:Bitstream Vera Sans" />
        <path
           sodipodi:nodetypes="cscccccccc"
           id="path4324"
           d="m 441.21875,603.07203 c -0.98855,5.76533 -2.23416,3.76139 -3.30808,3.61918 -2.06406,-0.27332 -4.39289,-3.6163 -9.34817,3.12129 -1.13797,1.68518 -2.92373,4.77383 -2.92373,4.77383 l 0.90625,0.40625 c 0,0 1.777,-3.01197 2.86123,-4.61758 3.53665,-6.15984 5.47651,0.96216 10.05032,0.0233 3.01781,-1.32327 2.30269,-4.82792 2.73093,-7.77331 l -0.96875,0.44703 0,1e-5 z"
           style="font-size:medium;font-style:normal;font-variant:normal;font-weight:normal;font-stretch:normal;text-indent:0;text-align:start;text-decoration:none;line-height:normal;letter-spacing:normal;word-spacing:normal;text-transform:none;direction:ltr;block-progression:tb;writing-mode:lr-tb;text-anchor:start;color:#000000;fill:#000000;fill-opacity:1;stroke:none;stroke-width:1px;marker:none;visibility:visible;display:inline;overflow:visible;enable-background:accumulate;font-family:Bitstream Vera Sans;-inkscape-font-specification:Bitstream Vera Sans" />
        <path
           id="path4315"
           d="m 461.625,608.1875 -0.375,0.90625 c 0,0 1.7622,0.73199 3.90625,1.46875 2.14405,0.73676 4.64294,1.49339 6.25,1.625 2.18864,0.17924 4.87401,-0.40935 7.03125,-1.03125 2.15724,-0.6219 3.09925,-0.13848 3.78125,-1.28125 0.31428,-0.52661 -0.30759,-1.81389 -0.30759,-1.81389 -0.63148,-3.724 -7.40233,1.16848 -10.95048,1.23878 -3.64847,0.0723 -5.98332,0.14124 -9.33568,-1.11239 z"
           style="font-size:medium;font-style:normal;font-variant:normal;font-weight:normal;font-stretch:normal;text-indent:0;text-align:start;text-decoration:none;line-height:normal;letter-spacing:normal;word-spacing:normal;text-transform:none;direction:ltr;block-progression:tb;writing-mode:lr-tb;text-anchor:start;color:#000000;fill:#000000;fill-opacity:1;stroke:none;stroke-width:1px;marker:none;visibility:visible;display:inline;overflow:visible;enable-background:accumulate;font-family:Bitstream Vera Sans;-inkscape-font-specification:Bitstream Vera Sans" />
        <path
           sodipodi:nodetypes="cssssscc"
           id="path4330"
           d="m 489.96875,588 c 0,0 -2.72662,0.39446 -4.76218,1.42903 -0.77363,0.39319 -2.02074,0.64707 -2.25155,1.16194 -0.74879,1.67039 -0.66866,3.00915 -0.39252,3.90893 0.0971,0.31632 0.55863,0.56566 0.875,0.46875 0.85539,-0.26203 0.64601,-1.71505 1.25,-2.375 1.55669,-1.70092 7.12341,-3.98835 7.12341,-3.98835 L 489.96875,588 z"
           style="font-size:medium;font-style:normal;font-variant:normal;font-weight:normal;font-stretch:normal;text-indent:0;text-align:start;text-decoration:none;line-height:normal;letter-spacing:normal;word-spacing:normal;text-transform:none;direction:ltr;block-progression:tb;writing-mode:lr-tb;text-anchor:start;color:#000000;fill:#000000;fill-opacity:1;stroke:none;stroke-width:1px;marker:none;visibility:visible;display:inline;overflow:visible;enable-background:accumulate;font-family:Bitstream Vera Sans;-inkscape-font-specification:Bitstream Vera Sans" />
        <path
           sodipodi:nodetypes="ccsccscccsccccccsc"
           id="path4336"
           d="m 463.94894,602.29606 -10.65155,0 c 0,0 -0.97868,-16.20375 -1.48312,-23.05587 -0.28783,-3.90976 -15.77278,-18.03271 -15.77278,-18.03271 l 3.00832,-2.82971 c 0,0 5.79989,9.45021 7.67769,8.93622 1.60789,-0.44011 3.06432,-9.24206 3.06432,-9.24206 l 2.69659,0 1.07864,14.02228 c 0,0 2.73313,3.50419 4.58421,3.23592 2.15342,-0.31208 4.04489,-5.12353 4.04489,-5.12353 l -1.3483,-19.9548 4.58421,-0.26965 1.3483,19.41547 12.67399,-12.13467 4.58421,8.35944 c 0,0 -19.46051,9.73105 -19.68514,13.75263 -0.34019,6.09041 -0.40448,22.92104 -0.40448,22.92104 z"
           style="fill:#be4c00;fill-opacity:1;stroke:#000000;stroke-width:1.40746641;stroke-linecap:butt;stroke-linejoin:miter;stroke-opacity:1;stroke-miterlimit:4;stroke-dasharray:none" />
        <g
           id="g4338">
          <path
             style="fill:#859947;fill-opacity:1;stroke:#000000;stroke-width:1.5;stroke-linecap:round;stroke-linejoin:miter;stroke-miterlimit:4;stroke-opacity:1;stroke-dasharray:none"
             d="m 464,474.5 c -3.15345,-0.84231 -5.68477,6.49662 -7.09375,6.75 -1.14872,0.20658 -1.18492,-5.34379 -3.3125,-5.46875 -3.04527,-0.17886 -4.56251,7.12626 -5.625,7.21875 -0.95513,0.0831 -1.13316,-6.21982 -3.5625,-6.375 -3.28504,-0.20984 -5.1792,7.97744 -5.875,7.9375 -0.68843,-0.0395 -1.71746,-7.12541 -4.5625,-7.21875 -1.75132,-0.0575 -0.3724,4.16164 -3.09375,4.25 0,0 -3.38483,0.88962 -4.8125,0.15625 -2.01733,-1.03626 -2.70261,-7.27421 -3.78125,-5.65625 -1.07863,1.61796 -1.54063,6.70357 -4.3125,7.5625 -2.57658,0.79842 -4.99527,-4.96323 -7.28125,-3.53125 -2.28637,1.43223 1.70112,5.99972 0,8.09375 -0.57709,0.71038 -2.11041,-0.14788 -2.6875,0.5625 -1.81277,2.23147 2.3199,6.92686 0,8.625 -1.44612,1.05855 -3.67888,-2.68355 -5.125,-1.625 -1.52138,1.11364 1.07269,4.10573 0,5.65625 -1.31099,1.89496 -5.05672,0.61658 -6.46875,2.4375 -1.47045,1.89626 1.60249,7.4316 -0.78125,7.15625 -1.57791,-0.18227 -3.08102,-0.23914 -4.25,-0.21875 -1.66157,0.029 -2.65372,0.24497 -2.25,0.53125 0.99879,0.70825 11.16922,5.60135 8.5625,9.65625 l -0.28125,0.4375 c -1.76779,2.7499 -7.26064,-1.51381 -9.84375,-1.46875 -1.66157,0.029 -2.65372,0.24497 -2.25,0.53125 0.69623,0.49369 6.31929,4.54768 5.21875,6.34375 -1.58144,2.58088 -11.48588,6.63963 -10.21875,6.59375 0.75426,-0.0273 9.1446,-0.60538 6.75,1.59375 0,0 -2.50499,1.54357 -3.0625,2.8125 -1.08521,2.47003 -1.05438,5.6104 0,8.09375 1.14298,2.69204 7.49274,3.41784 6.3125,6.09375 -1.62623,3.68708 -2.4379,7.29371 -1.75,6.75 0.83214,-0.65772 8.10071,-5.77087 9.96875,-4.4375 2.07457,1.48079 1.59072,10.73462 2,9.71875 0.4932,-1.22417 6.14087,-7.01874 7.84375,-11.5625 0.19613,-0.52332 -0.24625,-1.75095 0.3125,-1.65625 l 1.84375,0.3125 c 1.77201,0.30034 -2.38451,2.66409 -2.625,4.03125 -0.93452,5.31252 1.28806,13.8804 1.78125,12.65625 0.35791,-0.88837 4.34573,-7.98634 5.71875,-7.6875 1.34523,0.29279 1.51183,7.69885 1.84375,6.875 0.35703,-0.88618 3.61111,-8.18636 5.71875,-7.625 2.72239,0.72509 9.0346,10.09301 8.71875,8.84375 -0.27762,-1.09808 -4.4835,-13.45867 -0.0937,-11.8125 l 1.5,0.5625 c 0.45644,0.17117 0.18268,0.92089 0.375,1.3125 2.37778,4.84173 9.22974,10.46701 8.90625,9.1875 -0.1778,-0.70325 -2.72523,-7.80341 0.125,-6.5625 0,0 3.0297,1.41441 4.59375,2 1.94373,0.72775 3.96211,2.51185 5.9375,1.875 1.70723,-0.55039 1.53441,-3.6956 3.21875,-4.3125 3.38342,-1.23921 8.28898,-0.38303 10.53125,2.4375 1.84096,2.31573 -2.81628,7.96929 0,8.875 3.36839,1.08327 2.7203,-9.33072 6.1875,-8.625 1.63193,0.33217 -0.17481,3.79598 1.09375,4.875 2.26537,1.9269 6.40056,-1.07074 8.90625,0.53125 0.94629,0.605 0.6014,2.44269 1.59375,2.96875 2.32243,1.23115 5.50577,-2.01386 7.84375,-0.8125 1.29054,0.66314 0.77731,3.32984 2.15625,3.78125 2.52598,0.8269 5.64229,-1.15759 7.28125,-3.25 0.90717,-1.15816 -0.37124,-5.25811 0.78125,-4.34375 3.38044,2.68196 7.10973,4.56185 6.71875,3.71875 -0.36671,-0.79077 -2.80955,-8.23395 -1.4375,-8.34375 1.9208,-0.15372 11.43593,6.13191 10.75,5.09375 -0.36972,-0.55959 -4.58164,-6.20009 -1.84375,-5.5625 0,0 1.54365,0.78725 2.28125,0.53125 5.31452,-1.84451 8.47483,-7.95133 10.53125,-13.1875 1.9546,-4.97691 0.84282,-11.08313 0.96577,-16.6254 0.0699,-3.15201 3.11932,-6.37962 0.90923,-8.46835 -0.98505,-0.93096 -2.94605,1.34326 -4.03125,0.53125 -1.89089,-1.41488 0.9503,-5.81711 -1.09375,-7 -1.08163,-0.62594 -2.47007,2.05156 -3.5,1.34375 -2.07752,-1.42776 2.06473,-6.1163 0,-7.5625 -1.0985,-0.76942 -2.45226,1.55531 -3.78125,1.375 -3.38258,-0.45893 -4.96787,-6.44333 -8.34375,-5.9375 -5.26037,0.7882 -8.37045,12.92591 -9.71875,12.65625 -1.3483,-0.26966 -5.83026,-1.69274 -8.375,-0.53125 -1.75126,0.79932 -1.60337,4.26416 -3.5,4.59375 -3.90272,0.6782 -7.98331,-3.04104 -9.96875,-6.46875 -0.85754,-1.48048 -1.43323,-3.86003 -0.28125,-5.125 1.63541,-1.79582 6.32611,1.95196 7.28125,-0.28125 1.60189,-3.74538 -9.76764,-5.44248 -8.09375,-9.15625 1.62654,-3.60871 9.63721,3.26507 11.875,0 2.3994,-3.50086 -1.39907,-9.08087 -4.59375,-11.875 -2.01587,-1.76312 -5.83778,-0.0659 -7.8125,-1.875 -1.88724,-1.72894 -0.28608,-5.89478 -2.4375,-7.28125 -2.47349,-1.59403 -9.175,3.82242 -8.78125,0.90625 0.48673,-3.60476 0.31188,-7.1969 -2.3438,-7.90625 z"
             id="path4181" />
          <path
             style="fill:#859947;fill-opacity:1;stroke:#000000;stroke-width:1.5;stroke-linecap:round;stroke-linejoin:miter;stroke-miterlimit:4;stroke-opacity:1;stroke-dasharray:none"
             d="m 502.62712,535.42373 c 0,0 1.52542,-6.48305 0,-7.24576 -1.52543,-0.76271 -5.72034,-5.33898 -5.72034,-5.33898"
             id="path4235" />
          <path
             style="fill:#859947;fill-opacity:1;stroke:#000000;stroke-width:1.5;stroke-linecap:round;stroke-linejoin:miter;stroke-miterlimit:4;stroke-opacity:1;stroke-dasharray:none"
             d="m 506.44068,546.86441 -9.5339,0.38135"
             id="path4233" />
          <path
             style="fill:#859947;fill-opacity:1;stroke:#000000;stroke-width:1.5;stroke-linecap:round;stroke-linejoin:miter;stroke-miterlimit:4;stroke-opacity:1;stroke-dasharray:none"
             d="m 503.77118,562.11865 c 0,0 -9.67656,-3.15195 -11.82203,-7.24577 -1.06377,-2.0298 1.19926,-4.72366 0.38136,-6.8644 -0.70578,-1.84727 -4.09127,-2.22013 -4.19492,-4.19492 -0.18002,-3.42983 6.48305,-8.00847 6.48305,-8.00847"
             id="path4231" />
          <path
             style="fill:#859947;fill-opacity:1;stroke:#000000;stroke-width:1.5;stroke-linecap:round;stroke-linejoin:miter;stroke-miterlimit:4;stroke-opacity:1;stroke-dasharray:none"
             d="m 522.07627,528.17797 c 0,0 -5.86908,-5.50012 -9.15254,-4.57627 -2.30882,0.64962 -4.08496,3.71863 -3.81356,6.10169 0.34582,3.03651 3.67816,5.26956 6.48305,6.48305 3.7352,1.61598 12.20339,0.38136 12.20339,0.38136"
             id="path4229" />
          <path
             style="fill:#859947;fill-opacity:1;stroke:#000000;stroke-width:1.5;stroke-linecap:round;stroke-linejoin:miter;stroke-miterlimit:4;stroke-opacity:1;stroke-dasharray:none"
             d="m 474.02542,560.59322 c 0,0 4.57627,0.76271 5.33898,-0.76271 0.76272,-1.52542 1.40427,-5.65595 0.76272,-8.38983 -0.4433,-1.88907 -2.43005,-3.11924 -3.05085,-4.95763 -0.40873,-1.21038 -0.38136,-3.81356 -0.38136,-3.81356"
             id="path4227" />
          <path
             style="fill:#859947;fill-opacity:1;stroke:#000000;stroke-width:1.5;stroke-linecap:round;stroke-linejoin:miter;stroke-miterlimit:4;stroke-opacity:1;stroke-dasharray:none"
             d="m 476.69491,541.90678 c -1.90678,0 -9.91525,-3.30508 -9.91525,0 l 0,4.95763"
             id="path4225" />
          <path
             style="fill:#859947;fill-opacity:1;stroke:#000000;stroke-width:1.5;stroke-linecap:round;stroke-linejoin:miter;stroke-miterlimit:4;stroke-opacity:1;stroke-dasharray:none"
             d="m 456.8644,554.11017 c 2.28814,1.14407 9.09982,7.35458 9.24788,2.76483 0,0 3.3171,-1.97249 1.43009,-5.43432 -1.06426,-1.95245 -5.72034,-3.4322 -5.72034,-3.4322"
             id="path4223" />
          <path
             style="fill:#859947;fill-opacity:1;stroke:#000000;stroke-width:1.5;stroke-linecap:round;stroke-linejoin:miter;stroke-miterlimit:4;stroke-opacity:1;stroke-dasharray:none"
             d="m 434.74576,517.11865 c 0.76271,-1.52543 3.24152,-8.00847 0.95339,-8.00847 -2.28814,0 -5.03109,-2.6968 -7.05508,-0.76272 -1.47047,1.40515 1.39111,4.61793 0,6.10169 -2.70089,2.88076 -8.54912,-0.49728 -11.25001,2.38348 -1.82584,1.94743 -0.57203,3.71822 -0.57203,6.38771 0,3.4322 -2.07692,7.56413 0,10.29661 1.43704,1.89063 5.57966,-0.0905 6.86441,1.90678 1.32284,2.05645 1.90678,7.24576 -1.14407,7.24576 -3.05085,0 -7.24576,1.90678 -7.24576,1.90678"
             id="path4221"
             sodipodi:nodetypes="cssssssssc" />
          <path
             style="fill:#859947;fill-opacity:1;stroke:#000000;stroke-width:1.5;stroke-linecap:round;stroke-linejoin:miter;stroke-miterlimit:4;stroke-opacity:1;stroke-dasharray:none"
             d="m 437.79661,558.68644 c 0,0 -1.92665,-9.67271 1.52542,-10.67796 2.25047,-0.65534 4.57627,5.33898 4.57627,5.33898"
             id="path4219" />
          <path
             style="fill:#859947;fill-opacity:1;stroke:#000000;stroke-width:1.5;stroke-linecap:round;stroke-linejoin:miter;stroke-miterlimit:4;stroke-opacity:1;stroke-dasharray:none"
             d="m 455.72034,521.31356 c 0,0 10.46563,6.39477 8.77118,10.67797 -1.08465,2.74174 -6.75312,-1.00559 -8.77118,1.14407 -1.30797,1.39326 5.33898,5.72033 -0.38136,5.72033 -5.72034,0 -6.33315,-2.18845 -7.62712,0 -1.47677,2.49762 1.65501,6.22435 4.19492,7.62712 1.89496,1.04656 4.90804,-1.86644 6.48305,-0.38135 1.01737,0.95928 0.66426,2.96446 0,4.19491 -2.31136,4.28145 -9.89203,3.72703 -12.20339,8.00848 -0.24155,0.44744 0,1.52542 0,1.52542"
             id="path4217" />
          <path
             style="fill:#859947;fill-opacity:1;stroke:#000000;stroke-width:1.5;stroke-linecap:round;stroke-linejoin:miter;stroke-miterlimit:4;stroke-opacity:1;stroke-dasharray:none"
             d="m 406.90678,515.21187 c 0,0 -3.81356,-8.00848 -0.38136,-7.62712 3.4322,0.38135 9.83524,3.78689 11.82204,0.38135 1.72479,-2.95643 -6.86441,-8.77118 -5.33899,-8.77118 1.52543,0 7.51525,2.83913 9.5339,0.38135 2.07432,-2.52555 -4.65673,-7.28201 -2.28814,-9.53389 3.26501,-3.10413 12.20339,5.33898 12.96611,3.81355 0.76271,-1.52542 1.62193,-6.55403 4.19491,-6.48305 3.07342,0.0848 1.50531,7.85919 4.57627,8.00848 3.73426,0.18154 2.76161,-9.51109 6.48305,-9.15254 4.30397,0.41468 1.02321,11.55716 5.33899,11.82203 3.41635,0.20967 2.42739,-6.97173 5.33898,-8.77119 2.6042,-1.60948 7.31357,-3.21025 9.15254,-0.76271 2.77952,3.69934 -8.11345,9.58207 -4.95763,12.9661 2.08434,2.23507 6.67515,-4.89359 8.77119,-2.66949 2.51023,2.66359 -4.81103,6.77511 -3.81356,10.29661 1.01181,3.57212 8.30637,3.18097 8.77119,6.86441 0.26103,2.0685 -1.8798,4.17829 -3.81356,4.95763 -2.38445,0.96098 -5.60337,0.44134 -7.62712,-1.14407 -1.83973,-1.44125 -1.0235,-4.82398 -2.66949,-6.48305 -1.84571,-1.86038 -7.24576,-3.05085 -7.24576,-3.05085"
             id="path4215" />
          <path
             style="fill:#859947;fill-opacity:1;stroke:#000000;stroke-width:1.5;stroke-linecap:round;stroke-linejoin:miter;stroke-miterlimit:4;stroke-opacity:1;stroke-dasharray:none"
             d="m 390.1971,528.94871 c 0,0 -1.48249,4.62379 0,5.93251 1.08657,0.9592 3.80209,-1.89508 4.31455,-0.53932 0.84624,2.23882 -4.81416,1.92883 -5.93251,4.04489 -0.84001,1.58941 -1.55275,4.48721 0,5.39319 2.05116,1.19678 4.04571,-4.50018 6.20217,-3.50557 2.99346,1.38066 -1.16651,8.46701 1.88761,9.70774 3.64996,1.48279 8.44808,-3.00864 9.70774,-6.74149 1.02703,-3.04349 -2.96625,-9.16842 -2.96625,-9.16842"
             id="path4213" />
          <g
             id="g4293"
             style="fill:#ff0000;fill-opacity:1;stroke-linecap:round">
            <path
               transform="matrix(1.0731707,0,0,1.075,-17.251622,-97.984991)"
               d="m 427.4101,553.21808 c 0,2.97857 -2.47498,5.39319 -5.52802,5.39319 -3.05304,0 -5.52802,-2.41462 -5.52802,-5.39319 0,-2.97858 2.47498,-5.39319 5.52802,-5.39319 3.05304,0 5.52802,2.41461 5.52802,5.39319 z"
               sodipodi:ry="5.3931875"
               sodipodi:rx="5.528017"
               sodipodi:cy="553.21808"
               sodipodi:cx="421.88208"
               id="path4265"
               style="fill:#ff0000;fill-opacity:1;stroke:#000000;stroke-width:1.39653754;stroke-linecap:round;stroke-miterlimit:4;stroke-opacity:1;stroke-dasharray:none"
               sodipodi:type="arc" />
            <path
               sodipodi:type="arc"
               style="fill:#ff0000;fill-opacity:1;stroke:#000000;stroke-width:1.39653754;stroke-linecap:round;stroke-miterlimit:4;stroke-opacity:1;stroke-dasharray:none"
               id="path4267"
               sodipodi:cx="421.88208"
               sodipodi:cy="553.21808"
               sodipodi:rx="5.528017"
               sodipodi:ry="5.3931875"
               d="m 427.4101,553.21808 c 0,2.97857 -2.47498,5.39319 -5.52802,5.39319 -3.05304,0 -5.52802,-2.41462 -5.52802,-5.39319 0,-2.97858 2.47498,-5.39319 5.52802,-5.39319 3.05304,0 5.52802,2.41461 5.52802,5.39319 z"
               transform="matrix(1.0731707,0,0,1.075,-9.4315004,-88.277254)" />
            <path
               transform="matrix(1.0731707,0,0,1.075,22.388305,-103.37818)"
               d="m 427.4101,553.21808 c 0,2.97857 -2.47498,5.39319 -5.52802,5.39319 -3.05304,0 -5.52802,-2.41462 -5.52802,-5.39319 0,-2.97858 2.47498,-5.39319 5.52802,-5.39319 3.05304,0 5.52802,2.41461 5.52802,5.39319 z"
               sodipodi:ry="5.3931875"
               sodipodi:rx="5.528017"
               sodipodi:cy="553.21808"
               sodipodi:cx="421.88208"
               id="path4269"
               style="fill:#ff0000;fill-opacity:1;stroke:#000000;stroke-width:1.39653754;stroke-linecap:round;stroke-miterlimit:4;stroke-opacity:1;stroke-dasharray:none"
               sodipodi:type="arc" />
            <path
               transform="matrix(1.0731707,0,0,1.075,-51.768021,-76.951561)"
               d="m 427.4101,553.21808 c 0,2.97857 -2.47498,5.39319 -5.52802,5.39319 -3.05304,0 -5.52802,-2.41462 -5.52802,-5.39319 0,-2.97858 2.47498,-5.39319 5.52802,-5.39319 3.05304,0 5.52802,2.41461 5.52802,5.39319 z"
               sodipodi:ry="5.3931875"
               sodipodi:rx="5.528017"
               sodipodi:cy="553.21808"
               sodipodi:cx="421.88208"
               id="path4271"
               style="fill:#ff0000;fill-opacity:1;stroke:#000000;stroke-width:1.39653754;stroke-linecap:round;stroke-miterlimit:4;stroke-opacity:1;stroke-dasharray:none"
               sodipodi:type="arc" />
            <path
               sodipodi:type="arc"
               style="fill:#ff0000;fill-opacity:1;stroke:#000000;stroke-width:1.39653754;stroke-linecap:round;stroke-miterlimit:4;stroke-opacity:1;stroke-dasharray:none"
               id="path4273"
               sodipodi:cx="421.88208"
               sodipodi:cy="553.21808"
               sodipodi:rx="5.528017"
               sodipodi:ry="5.3931875"
               d="m 427.4101,553.21808 c 0,2.97857 -2.47498,5.39319 -5.52802,5.39319 -3.05304,0 -5.52802,-2.41462 -5.52802,-5.39319 0,-2.97858 2.47498,-5.39319 5.52802,-5.39319 3.05304,0 5.52802,2.41461 5.52802,5.39319 z"
               transform="matrix(1.0731707,0,0,1.075,-31.00425,-42.165503)" />
            <path
               transform="matrix(1.0731707,0,0,1.075,-43.67824,-51.603581)"
               d="m 427.4101,553.21808 c 0,2.97857 -2.47498,5.39319 -5.52802,5.39319 -3.05304,0 -5.52802,-2.41462 -5.52802,-5.39319 0,-2.97858 2.47498,-5.39319 5.52802,-5.39319 3.05304,0 5.52802,2.41461 5.52802,5.39319 z"
               sodipodi:ry="5.3931875"
               sodipodi:rx="5.528017"
               sodipodi:cy="553.21808"
               sodipodi:cx="421.88208"
               id="path4275"
               style="fill:#ff0000;fill-opacity:1;stroke:#000000;stroke-width:1.39653754;stroke-linecap:round;stroke-miterlimit:4;stroke-opacity:1;stroke-dasharray:none"
               sodipodi:type="arc" />
            <path
               sodipodi:type="arc"
               style="fill:#ff0000;fill-opacity:1;stroke:#000000;stroke-width:1.39653754;stroke-linecap:round;stroke-miterlimit:4;stroke-opacity:1;stroke-dasharray:none"
               id="path4277"
               sodipodi:cx="421.88208"
               sodipodi:cy="553.21808"
               sodipodi:rx="5.528017"
               sodipodi:ry="5.3931875"
               d="m 427.4101,553.21808 c 0,2.97857 -2.47498,5.39319 -5.52802,5.39319 -3.05304,0 -5.52802,-2.41462 -5.52802,-5.39319 0,-2.97858 2.47498,-5.39319 5.52802,-5.39319 3.05304,0 5.52802,2.41461 5.52802,5.39319 z"
               transform="matrix(1.0731707,0,0,1.075,-31.813228,-64.54723)" />
            <path
               transform="matrix(1.0731707,0,0,1.075,39.376844,-31.648788)"
               d="m 427.4101,553.21808 c 0,2.97857 -2.47498,5.39319 -5.52802,5.39319 -3.05304,0 -5.52802,-2.41462 -5.52802,-5.39319 0,-2.97858 2.47498,-5.39319 5.52802,-5.39319 3.05304,0 5.52802,2.41461 5.52802,5.39319 z"
               sodipodi:ry="5.3931875"
               sodipodi:rx="5.528017"
               sodipodi:cy="553.21808"
               sodipodi:cx="421.88208"
               id="path4279"
               style="fill:#ff0000;fill-opacity:1;stroke:#000000;stroke-width:1.39653754;stroke-linecap:round;stroke-miterlimit:4;stroke-opacity:1;stroke-dasharray:none"
               sodipodi:type="arc" />
            <path
               sodipodi:type="arc"
               style="fill:#ff0000;fill-opacity:1;stroke:#000000;stroke-width:1.39653754;stroke-linecap:round;stroke-miterlimit:4;stroke-opacity:1;stroke-dasharray:none"
               id="path4281"
               sodipodi:cx="421.88208"
               sodipodi:cy="553.21808"
               sodipodi:rx="5.528017"
               sodipodi:ry="5.3931875"
               d="m 427.4101,553.21808 c 0,2.97857 -2.47498,5.39319 -5.52802,5.39319 -3.05304,0 -5.52802,-2.41462 -5.52802,-5.39319 0,-2.97858 2.47498,-5.39319 5.52802,-5.39319 3.05304,0 5.52802,2.41461 5.52802,5.39319 z"
               transform="matrix(1.0731707,0,0,1.075,32.365701,-61.311318)" />
            <path
               transform="matrix(1.0731707,0,0,1.075,16.725457,-68.86178)"
               d="m 427.4101,553.21808 c 0,2.97857 -2.47498,5.39319 -5.52802,5.39319 -3.05304,0 -5.52802,-2.41462 -5.52802,-5.39319 0,-2.97858 2.47498,-5.39319 5.52802,-5.39319 3.05304,0 5.52802,2.41461 5.52802,5.39319 z"
               sodipodi:ry="5.3931875"
               sodipodi:rx="5.528017"
               sodipodi:cy="553.21808"
               sodipodi:cx="421.88208"
               id="path4283"
               style="fill:#ff0000;fill-opacity:1;stroke:#000000;stroke-width:1.39653754;stroke-linecap:round;stroke-miterlimit:4;stroke-opacity:1;stroke-dasharray:none"
               sodipodi:type="arc" />
            <path
               sodipodi:type="arc"
               style="fill:#ff0000;fill-opacity:1;stroke:#000000;stroke-width:1.39653754;stroke-linecap:round;stroke-miterlimit:4;stroke-opacity:1;stroke-dasharray:none"
               id="path4285"
               sodipodi:cx="421.88208"
               sodipodi:cy="553.21808"
               sodipodi:rx="5.528017"
               sodipodi:ry="5.3931875"
               d="m 427.4101,553.21808 c 0,2.97857 -2.47498,5.39319 -5.52802,5.39319 -3.05304,0 -5.52802,-2.41462 -5.52802,-5.39319 0,-2.97858 2.47498,-5.39319 5.52802,-5.39319 3.05304,0 5.52802,2.41461 5.52802,5.39319 z"
               transform="matrix(1.0731707,0,0,1.075,53.93845,-80.457133)" />
            <path
               transform="matrix(1.0731707,0,0,1.075,52.320493,-52.951878)"
               d="m 427.4101,553.21808 c 0,2.97857 -2.47498,5.39319 -5.52802,5.39319 -3.05304,0 -5.52802,-2.41462 -5.52802,-5.39319 0,-2.97858 2.47498,-5.39319 5.52802,-5.39319 3.05304,0 5.52802,2.41461 5.52802,5.39319 z"
               sodipodi:ry="5.3931875"
               sodipodi:rx="5.528017"
               sodipodi:cy="553.21808"
               sodipodi:cx="421.88208"
               id="path4287"
               style="fill:#ff0000;fill-opacity:1;stroke:#000000;stroke-width:1.39653754;stroke-linecap:round;stroke-miterlimit:4;stroke-opacity:1;stroke-dasharray:none"
               sodipodi:type="arc" />
            <path
               sodipodi:type="arc"
               style="fill:#ff0000;fill-opacity:1;stroke:#000000;stroke-width:1.39653754;stroke-linecap:round;stroke-miterlimit:4;stroke-opacity:1;stroke-dasharray:none"
               id="path4289"
               sodipodi:cx="421.88208"
               sodipodi:cy="553.21808"
               sodipodi:rx="5.528017"
               sodipodi:ry="5.3931875"
               d="m 427.4101,553.21808 c 0,2.97857 -2.47498,5.39319 -5.52802,5.39319 -3.05304,0 -5.52802,-2.41462 -5.52802,-5.39319 0,-2.97858 2.47498,-5.39319 5.52802,-5.39319 3.05304,0 5.52802,2.41461 5.52802,5.39319 z"
               transform="matrix(1.0731707,0,0,1.075,64.724824,-53.221537)" />
            <path
               transform="matrix(1.0731707,0,0,1.075,61.488912,-37.041975)"
               d="m 427.4101,553.21808 c 0,2.97857 -2.47498,5.39319 -5.52802,5.39319 -3.05304,0 -5.52802,-2.41462 -5.52802,-5.39319 0,-2.97858 2.47498,-5.39319 5.52802,-5.39319 3.05304,0 5.52802,2.41461 5.52802,5.39319 z"
               sodipodi:ry="5.3931875"
               sodipodi:rx="5.528017"
               sodipodi:cy="553.21808"
               sodipodi:cx="421.88208"
               id="path4291"
               style="fill:#ff0000;fill-opacity:1;stroke:#000000;stroke-width:1.39653754;stroke-linecap:round;stroke-miterlimit:4;stroke-opacity:1;stroke-dasharray:none"
               sodipodi:type="arc" />
          </g>
        </g>
        <path
           style="font-size:medium;font-style:normal;font-variant:normal;font-weight:normal;font-stretch:normal;text-indent:0;text-align:start;text-decoration:none;line-height:normal;letter-spacing:normal;word-spacing:normal;text-transform:none;direction:ltr;block-progression:tb;writing-mode:lr-tb;text-anchor:start;color:#000000;fill:#000000;fill-opacity:1;stroke:none;stroke-width:1px;marker:none;visibility:visible;display:inline;overflow:visible;enable-background:accumulate;font-family:Bitstream Vera Sans;-inkscape-font-specification:Bitstream Vera Sans"
           d="m 505.09886,592.48512 c 0,0 -2.72235,-0.42292 -4.97188,-0.0311 -0.85494,0.14889 -2.12165,0.0257 -2.49337,0.45017 -1.20595,1.37717 -1.52215,2.68052 -1.52217,3.62172 2e-5,0.33088 0.36807,0.70467 0.69895,0.70485 0.89463,4.8e-4 1.12079,-1.45002 1.89184,-1.90371 1.98724,-1.1693 7.9801,-1.72272 7.9801,-1.72272 l -1.58347,-1.11917 z"
           id="path4368"
           sodipodi:nodetypes="cssssscc" />
      </g>
      <g
         id="layer1-7"
         inkscape:label="Ebene 1"
         transform="matrix(1.1816536,0,0,1.1816536,54.211174,300.91732)">
        <g
           id="g3781"
           transform="translate(-155.54421,321.32785)">
          <path
             style="fill:#ffffff;stroke:#000000;stroke-width:1px;stroke-linecap:butt;stroke-linejoin:miter;stroke-opacity:1"
             d="m 479.98154,176.09048 -4.4741,8.76924 12.34852,4.4741 3.40031,-10.02198 -11.27473,-3.22136 z"
             id="path3779" />
          <path
             style="font-size:medium;font-style:normal;font-variant:normal;font-weight:normal;font-stretch:normal;text-indent:0;text-align:start;text-decoration:none;line-height:normal;letter-spacing:normal;word-spacing:normal;text-transform:none;direction:ltr;block-progression:tb;writing-mode:lr-tb;text-anchor:start;color:#000000;fill:#ffffff;fill-opacity:1;stroke:#000000;stroke-width:1.5;stroke-miterlimit:4;stroke-dasharray:none;marker:none;visibility:visible;display:inline;overflow:visible;enable-background:accumulate;font-family:Bitstream Vera Sans;-inkscape-font-specification:Bitstream Vera Sans"
             d="m 547.45033,178.25703 -1.625,3.46875 c 0,0 8.27274,3.75473 8.5,13.5625 0.16578,6.9965 -4.93403,11.94288 -10.625,17.8125 -5.69097,5.86962 -11.84106,12.69633 -11.5625,23 0.27987,10.15797 7.67715,17.97244 14.71875,23.25 7.0416,5.27756 14,8.15625 14,8.15625 l 1.46875,-3.5 c 0,0 -6.5762,-2.73245 -13.1875,-7.6875 -6.60299,-4.94883 -12.97419,-11.99857 -13.21875,-20.3125 -3.1e-4,-0.0105 2.9e-4,-0.0208 0,-0.0312 -0.22299,-8.74223 4.91086,-14.42193 10.53125,-20.21875 5.62753,-5.80423 11.86598,-11.71152 11.65625,-20.56255 -0.277,-11.95471 -10.65625,-16.9375 -10.65625,-16.9375 z"
             id="path3692" />
          <path
             style="fill:#ffffff;stroke:#000000;stroke-width:1.99999988;stroke-miterlimit:4;stroke-dasharray:none"
             d="m 546.51283,144.31953 c -5.24174,0 -9.5,4.22701 -9.5,9.46875 0,4.02544 2.52298,7.46153 6.0625,8.84375 l -0.25,109.875 c -2.58809,-1.18973 -5.9341,-2.89973 -7.71875,-4.59375 -2.91957,-2.77131 -6.09375,-6.625 -6.09375,-6.625 l 6.4375,-4.125 -16.46875,-8.9375 0.71875,18.59375 5.03125,-3.5625 c 0,0 4.57025,7.2229 8.03125,10.5625 3.87879,3.74273 13.4375,9.46875 13.4375,9.46875 0,0 9.52746,-5.72602 13.40625,-9.46875 3.461,-3.3396 8.0625,-10.5625 8.0625,-10.5625 l 5.03125,3.5625 0.6875,-18.59375 -16.4375,8.9375 6.4375,4.125 c 0,0 -3.17418,3.85369 -6.09375,6.625 -1.6368,1.55368 -4.63241,3.13581 -7.125,4.3125 l -0.25,-109.59375 c 3.54542,-1.37511 6.0625,-4.80794 6.0625,-8.84375 0,-5.24174 -4.22701,-9.46875 -9.46875,-9.46875 z m 0,4.9375 c 2.51603,0 4.53125,2.01522 4.53125,4.53125 0,2.51603 -2.01522,4.5625 -4.53125,4.5625 -2.51603,0 -4.5625,-2.04647 -4.5625,-4.5625 0,-2.51603 2.04647,-4.53125 4.5625,-4.53125 z"
             id="path3669-4" />
          <path
             style="fill:#ffffff;stroke:#000000;stroke-width:2;stroke-linecap:butt;stroke-linejoin:miter;stroke-miterlimit:4;stroke-opacity:1;stroke-dasharray:none"
             d="m 481.07621,183.53761 c 0,0 11.20254,1.10758 18.6982,1.07378 5.25298,-0.0243 15.7225,-1.07378 15.7225,-1.07378 0,0 4.66759,5.66781 5.56805,9.11136 1.15331,4.41051 -1.0936,9.14625 -0.50619,13.66705 0.52269,4.0227 1.87911,7.63849 2.53094,11.64229 1.57313,9.66272 1.49914,19.57075 1.30888,29.35883 -0.12816,6.59363 -0.58443,13.15002 -0.8027,19.74128 -0.12286,3.71 0,11.13611 0,11.13611 0,0 -4.69613,4.55929 -7.5928,5.6946 -4.08746,1.60202 -12.65467,0.88583 -12.65467,0.88583 0,0 -3.34509,3.01982 -5.4415,3.5433 -2.66489,0.66542 -7.71935,-1.01237 -7.71935,-1.01237 l -11.13611,-1.51856 2.02475,-102.24972 z"
             id="path3637"
             sodipodi:nodetypes="cscssssscscsccc" />
          <path
             style="fill:#ffffff;stroke:#000000;stroke-width:2;stroke-linecap:butt;stroke-linejoin:miter;stroke-miterlimit:4;stroke-opacity:1;stroke-dasharray:none"
             d="m 457.07414,176.98531 c 3.55761,-2.61629 13.24334,-0.35793 13.24334,-0.35793 l 10.02198,5.01099 c 0,0 9.77378,15.03485 11.4537,23.62325 2.11157,10.79521 -1.8697,21.93312 -2.14757,32.92939 -0.41295,16.34191 0.71586,49.03614 0.71586,49.03614 0,0 -6.80488,4.14008 -10.73785,4.5048 -4.29325,0.39813 -12.52748,-2.71516 -12.52748,-2.71516 0,0 -4.19529,4.22164 -8.61198,4.14688 -3.30092,-0.0543 -5.70514,-3.43102 -5.70514,-3.43102 0,0 -2.82856,0.35449 -3.93721,-0.35793 -0.80923,-0.52001 -1.43171,-2.5055 -1.43171,-2.5055 l -6.44271,0 -3.57928,-14.67505 1.78964,-11.4537 0.71586,-18.97018 5.01099,-11.09577 3.22135,-6.80064 -0.71585,-15.74883 5.01099,-17.53848 c 0,0 0.79282,-10.76241 4.65307,-13.60126 z"
             id="path2831"
             sodipodi:nodetypes="cccsscscscscccccccccs" />
          <path
             style="fill:none;stroke:#000000;stroke-width:2;stroke-linecap:butt;stroke-linejoin:miter;stroke-miterlimit:4;stroke-opacity:1;stroke-dasharray:none"
             d="m 455.2845,180.56459 7.51649,3.57928 c 0,0 0.48044,10.04507 0,15.03298 -0.41952,4.35542 -1.76941,8.57219 -2.5055,12.88541 -0.68975,4.04171 -0.13964,8.41606 -1.78964,12.16955 -0.98982,2.25167 -2.9105,7.46271 -4.65307,5.72685 l -5.64372,-5.62201"
             id="path2847"
             sodipodi:nodetypes="ccssssc" />
          <path
             style="fill:none;stroke:#000000;stroke-width:2;stroke-linecap:butt;stroke-linejoin:miter;stroke-miterlimit:4;stroke-opacity:1;stroke-dasharray:none"
             d="m 458.86378,224.94767 11.81162,18.61226"
             id="path2849" />
          <path
             style="font-size:medium;font-style:normal;font-variant:normal;font-weight:normal;font-stretch:normal;text-indent:0;text-align:start;text-decoration:none;line-height:normal;letter-spacing:normal;word-spacing:normal;text-transform:none;direction:ltr;block-progression:tb;writing-mode:lr-tb;text-anchor:start;color:#000000;fill:#000000;fill-opacity:1;stroke:none;stroke-width:2;marker:none;visibility:visible;display:inline;overflow:visible;enable-background:accumulate;font-family:Bitstream Vera Sans;-inkscape-font-specification:Bitstream Vera Sans"
             d="m 476.48158,189.13203 c 0,0 -0.88034,18.03493 -1.4375,26.71875 -0.25057,3.90536 -1.95881,7.70281 -2.84375,11.75 -1.07425,4.91299 -2.875,14.71875 -2.875,14.71875 l 0,0.0937 0,0.125 2.15625,47.59375 1.96875,-0.0937 -2.125,-47.53125 0,-0.0625 c 0.052,-0.28318 1.8044,-9.65287 2.84375,-14.40625 0.84582,-3.86829 2.96225,-7.71805 2.875,-11.90625 l -0.5625,-26.99995 0,-5e-5 z"
             id="path2851"
             sodipodi:nodetypes="csscccccccsscc" />
          <path
             style="fill:none;stroke:#000000;stroke-width:2;stroke-linecap:butt;stroke-linejoin:miter;stroke-miterlimit:4;stroke-opacity:1;stroke-dasharray:none"
             d="m 444.8151,231.30089 c 0,0 7.14695,2.73961 7.24804,5.4584 0.23227,6.24645 0.42653,10.72072 -1.25274,15.56987 -0.97606,2.81851 -1.53067,6.49703 -4.47411,6.9796 -2.28605,0.37479 -6.97959,-4.38462 -6.97959,-4.38462"
             id="path3625"
             sodipodi:nodetypes="cssss" />
          <path
             style="fill:none;stroke:#000000;stroke-width:2;stroke-linecap:butt;stroke-linejoin:miter;stroke-miterlimit:4;stroke-opacity:1;stroke-dasharray:none"
             d="m 439.18026,261.38553 7.37041,6.75939 0.73757,18.08532"
             id="path3627"
             sodipodi:nodetypes="ccc" />
          <path
             style="fill:none;stroke:#000000;stroke-width:2;stroke-linecap:butt;stroke-linejoin:miter;stroke-miterlimit:4;stroke-opacity:1;stroke-dasharray:none"
             d="m 452.52591,289.26988 -0.16625,-28.17148 c 0,0 3.234,-25.40343 5.43033,-26.12875 2.3774,-0.78512 8.23235,13.24334 8.23235,13.24334 l -0.71586,15.74884 1.43171,3.93721 0.48448,21.16118"
             id="path3629"
             sodipodi:nodetypes="ccscccc" />
          <path
             style="fill:none;stroke:#000000;stroke-width:2;stroke-linecap:butt;stroke-linejoin:miter;stroke-miterlimit:4;stroke-opacity:1;stroke-dasharray:none"
             d="m 469.24369,176.62738 -6.08478,7.15856"
             id="path3631"
             sodipodi:nodetypes="cc" />
          <path
             style="font-size:medium;font-style:normal;font-variant:normal;font-weight:normal;font-stretch:normal;text-indent:0;text-align:start;text-decoration:none;line-height:normal;letter-spacing:normal;word-spacing:normal;text-transform:none;direction:ltr;block-progression:tb;writing-mode:lr-tb;text-anchor:start;color:#000000;fill:#000000;fill-opacity:1;stroke:none;stroke-width:2;marker:none;visibility:visible;display:inline;overflow:visible;enable-background:accumulate;font-family:Bitstream Vera Sans;-inkscape-font-specification:Bitstream Vera Sans"
             d="m 509.63628,184.27777 c 0,0 -0.0181,1.51005 0.0625,3.34375 0.0806,1.8337 0.36051,7.40991 0.81405,8.97926 0.96814,3.35001 1.41185,5.71138 1.95792,8.84375 0.7359,4.22124 1.27013,8.53106 0.88583,12.96875 -0.26457,3.05516 -0.75222,6.24464 -0.375,9.5 0.45238,3.90395 2.67052,7.13475 2.875,10.34375 0.35527,5.57548 -2.06498,11.28495 -2.5,17.40625 -0.30456,4.28542 -0.36093,17.49175 -0.35793,17.57349 10e-6,4.1e-4 0,0.0625 0,0.0625 l -0.375,11.03125 2.375,-11.03125 0,-0.0312 0,-0.0312 c 0,0 0.0407,-13.42459 0.32673,-17.44849 0.40224,-5.66 2.92706,-11.44461 2.53125,-17.65625 -0.25202,-3.9549 -1.99491,-7.21075 -2.36881,-10.4375 -0.33744,-2.91204 0.0727,-5.96339 0.34375,-9.09375 0.38434,-4.43823 0.79418,-8.94448 0,-13.5 -0.60869,-3.49153 -2.48257,-5.95305 -3.38119,-9.0625 -0.34421,-1.19104 -0.67368,-6.73917 -0.75155,-8.51051 l -2.0625,-3.24995 -5e-5,-1.5e-4 z"
             id="path3639"
             sodipodi:nodetypes="csssssssscccccssssssccc" />
          <path
             style="font-size:medium;font-style:normal;font-variant:normal;font-weight:normal;font-stretch:normal;text-indent:0;text-align:start;text-decoration:none;line-height:normal;letter-spacing:normal;word-spacing:normal;text-transform:none;direction:ltr;block-progression:tb;writing-mode:lr-tb;text-anchor:start;color:#000000;fill:#000000;fill-opacity:1;stroke:none;stroke-width:2;marker:none;visibility:visible;display:inline;overflow:visible;enable-background:accumulate;font-family:Bitstream Vera Sans;-inkscape-font-specification:Bitstream Vera Sans"
             d="m 502.35658,183.79819 0,14.92759 0,0.34375 0.1875,0.25 2.625,3.5 c 0,0 -3.25466,1.45683 -4.02389,2.92607 -1.36226,2.60194 -0.4459,5.88213 -0.1988,8.8087 l 1.41029,16.70273 c 0,0 -10e-6,0.0311 0,0.0312 0.004,0.0295 0.4963,4.03061 1,8.375 0.25278,2.18018 0.52978,4.41519 0.71875,6.28125 0.18897,1.86606 0.3125,3.40685 0.3125,3.90625 0,1.06547 -0.37205,4.04232 -0.75,6.625 -0.37795,2.58268 -0.78125,4.84375 -0.78125,4.84375 l 0,0.0937 0,0.0625 -0.17896,22.9456 2,0 0.17896,-22.7581 c 0,0 0.36867,-2.30052 0.75,-4.90625 0.38133,-2.60573 0.78125,-5.44078 0.78125,-6.90625 0,-0.76607 -0.15308,-2.21086 -0.34375,-4.09375 -0.19067,-1.88289 -0.43409,-4.15808 -0.6875,-6.34375 -0.50682,-4.37135 -1.03125,-8.40625 -1.03125,-8.40625 l 0,-0.0312 0,-0.0312 -1.009,-16.85235 c -0.94054,-7.53833 -0.46992,-8.50141 3.91515,-10.8039 l 0.34375,-0.5625 -0.375,-0.5625 -2.84375,-3.75 0,-14.61509 -2,0 z"
             id="path3645"
             sodipodi:nodetypes="cccccsscsssssccccccsssscccccccccc" />
          <path
             style="fill:none;stroke:#000000;stroke-width:2;stroke-linecap:butt;stroke-linejoin:miter;stroke-miterlimit:4;stroke-opacity:1;stroke-dasharray:none"
             d="m 491.97212,206.8723 c 0,0 2.70532,-3.3478 4.56358,-3.4898 3.62282,-0.27684 6.44271,3.22136 6.44271,3.22136 0,0 3.46627,-3.59596 5.81633,-3.57929 1.70821,0.0121 4.4741,2.95291 4.4741,2.95291 l 6.80064,-1.78964"
             id="path3651-0"
             sodipodi:nodetypes="cscscc" />
          <path
             style="fill:none;stroke:#000000;stroke-width:2;stroke-linecap:butt;stroke-linejoin:miter;stroke-miterlimit:4;stroke-opacity:1;stroke-dasharray:none"
             d="m 496.5149,203.0258 -2.78402,-18.982"
             id="path3653-9" />
          <path
             style="fill:none;stroke:#000000;stroke-width:1.5;stroke-linecap:round;stroke-linejoin:miter;stroke-miterlimit:4;stroke-opacity:1;stroke-dasharray:none"
             d="m 479.6236,236.40137 c 0,0 -0.616,14.51279 -0.54961,21.77219 0.0887,9.69331 1.26547,29.05359 1.26547,29.05359"
             id="path3655-4"
             sodipodi:nodetypes="csc" />
          <path
             style="fill:#ffffff;stroke:#000000;stroke-width:2;stroke-linecap:butt;stroke-linejoin:miter;stroke-miterlimit:4;stroke-opacity:1;stroke-dasharray:none"
             d="m 546.57533,169.85078 -27,0.0312 0,7.59375 23.43743,12.65592 6.96905,-3.7e-4 23.71852,-12.65555 0,-7.59375 -27,-0.0312 -0.125,0 z"
             id="path3683-8"
             sodipodi:nodetypes="ccccccccc" />
          <path
             style="fill:#ffffff;stroke:#000000;stroke-width:2;stroke-linecap:butt;stroke-linejoin:miter;stroke-miterlimit:4;stroke-opacity:1;stroke-dasharray:none"
             d="m 499.77241,188.43901 c -0.48079,2.09688 -4.48945,4.29513 -4.48945,4.29513 0,0 -3.36058,-2.51503 -3.85483,-3.43027 -1.21041,-2.24139 -0.40801,-4.37425 -1.42461,-5.51793 -4.32511,-4.86575 -12.058,-3.35899 -16.82262,-7.15856 -3.33992,-2.66343 -6.7272,-4.52257 -6.26374,-8.76923 0.62347,-5.71278 7.30838,-8.69046 11.81162,-12.16956 2.76394,-2.13536 10.20095,-2.32654 10.20095,-2.32654 l 2.86343,-4.65306 -4.65307,-5.01099 c -1.28647,-1.38543 0.72794,-3.134 1.68516,-5.14586 0.66927,-1.40665 -0.002,-3.12496 0.82034,-4.16027 1.02458,-1.29061 2.9907,-0.75024 4.47281,-1.55424 1.92654,-1.04509 3.47164,-3.29325 5.54918,-3.81468 1.50436,-0.37757 3.07331,0.21719 4.52651,0.75928 3.3283,1.24157 6.60813,2.71231 7.16756,6.22032 0.2739,1.71751 -1.67209,4.47409 -1.67209,4.47409 l 0.5676,3.68412 -2.37895,-0.12655 c 0,0 0.7639,4.62033 -0.63273,6.10649 -2.56857,0.30001 -6.46433,0.17896 -9.36755,-1.43171 0,0 8.88066,4.36591 12.3358,6.6958 3.11285,2.09908 6.33587,4.47749 8.17993,7.74787 1.92603,3.41576 3.82338,11.32715 3.82338,11.32715 0,0 11.7315,-6.49712 17.18055,-10.37991 1.51777,-1.08151 2.47284,-3.96977 4.29514,-3.57928 0,0 3.72285,-0.0482 5.01099,1.07378 1.05304,0.9172 1.43171,3.93721 1.43171,3.93721 0,0 -4.26094,-0.3229 -5.72685,1.07378 -3.18766,3.03712 -13.30097,13.42074 -20.38018,18.96647 -2.52018,1.97426 -8.96992,-2.14385 -8.96992,-2.14385 l -16.12847,1.24376 c 0,0 -4.18996,-7.11494 -7.117,-9.89545 -3.3379,-3.1708 -11.24217,-7.15856 -11.24217,-7.15856 l -0.23138,0.77727 c 0,0 8.28224,3.69308 11.4537,6.80064 3.71264,3.63783 8.65363,10.30212 7.97925,13.24334 z"
             id="path3657-8"
             sodipodi:nodetypes="ccsssssccssssssscccccsscssscssccsccss" />
          <path
             style="fill:none;stroke:#000000;stroke-width:2;stroke-linecap:butt;stroke-linejoin:miter;stroke-miterlimit:4;stroke-opacity:1;stroke-dasharray:none"
             d="m 515.51226,183.12091 c 1.43171,2.41602 -1.90301,-2.58865 -2.32127,-4.15433 -0.85917,-3.21614 1.44779,-6.40107 0.53426,-9.6022 -0.42689,-1.49588 -3.6942,-8.14131 -3.6942,-8.14131"
             id="path3659-2"
             sodipodi:nodetypes="csss" />
          <path
             style="fill:none;stroke:#000000;stroke-width:2;stroke-linecap:butt;stroke-linejoin:miter;stroke-miterlimit:4;stroke-opacity:1;stroke-dasharray:none"
             d="m 494.11969,177.04858 c 0,0 5.53338,0.27555 10.13768,0.23139 4.2012,-0.0403 8.47458,-0.47363 8.47458,-0.47363"
             id="path3661-4"
             sodipodi:nodetypes="css" />
          <path
             style="fill:none;stroke:#000000;stroke-width:2;stroke-linecap:butt;stroke-linejoin:miter;stroke-miterlimit:4;stroke-opacity:1;stroke-dasharray:none"
             d="m 485.32874,170.24981 c 0,0 4.11741,-7.61713 3.95892,-11.16091 -0.0763,-1.70654 -2.14757,-5.41234 -2.14757,-5.41234"
             id="path3663-5"
             sodipodi:nodetypes="csc" />
          <path
             style="fill:none;stroke:#000000;stroke-width:2;stroke-linecap:butt;stroke-linejoin:miter;stroke-miterlimit:4;stroke-opacity:1;stroke-dasharray:none"
             d="m 489.26595,160.39407 c 0,0 7.96736,4.08662 12.63232,3.51414 2.98722,-0.36658 8.13496,-3.75824 8.13496,-3.75824 l 0.78145,-4.32608"
             id="path3665-5"
             sodipodi:nodetypes="cscc" />
          <path
             style="fill:none;stroke:#000000;stroke-width:2;stroke-linecap:butt;stroke-linejoin:miter;stroke-miterlimit:4;stroke-opacity:1;stroke-dasharray:none"
             d="m 492.0225,148.35763 c 0,0 0.63504,-4.58454 1.70838,-6.58042 0.53758,-0.99963 1.83369,-1.48644 2.27784,-2.53094 0.46336,-1.08968 -0.61352,-2.73639 0.25309,-3.5433 1.11138,-1.03483 3.04177,-0.11878 4.55568,0 1.61781,0.12694 3.33129,0.0881 4.80877,0.75928 1.6768,0.76172 4.23932,3.5433 4.23932,3.5433"
             id="path3667-1"
             sodipodi:nodetypes="csssssc" />
          <path
             style="fill:none;stroke:#000000;stroke-width:2;stroke-linecap:butt;stroke-linejoin:miter;stroke-miterlimit:4;stroke-opacity:1;stroke-dasharray:none"
             d="m 560.20033,169.86638 0,13.93747"
             id="path3688" />
          <path
             style="fill:none;stroke:#000000;stroke-width:2;stroke-linecap:butt;stroke-linejoin:miter;stroke-miterlimit:4;stroke-opacity:1;stroke-dasharray:none"
             d="m 566.77966,169.87398 0.12796,10.78583"
             id="path3690" />
        </g>
      </g>
    </g>
  </g>
</svg>
